<svg id="problem" xmlns="http://www.w3.org/2000/svg" width="56.978" height="50.301" viewBox="0 0 56.978 50.301">
  <path id="Trazado_710" data-name="Trazado 710" d="M55.213,32.438,38.409,5.506a11.688,11.688,0,0,0-19.839,0L1.765,32.438A11.687,11.687,0,0,0,11.685,50.3H45.293a11.687,11.687,0,0,0,9.92-17.863Zm-9.92,14.525H11.685A8.348,8.348,0,0,1,4.6,34.205L21.4,7.274a8.349,8.349,0,0,1,14.174,0l16.8,26.931a8.348,8.348,0,0,1-7.087,12.757Zm0,0" transform="translate(0 0)" fill="#f2f4ff"/>
  <path id="Trazado_711" data-name="Trazado 711" d="M86.067,62.364a5.011,5.011,0,0,0-8.51,0L60.753,89.3a5.01,5.01,0,0,0,4.254,7.652H98.616a5.01,5.01,0,0,0,4.255-7.652ZM83.481,90.158H80.143V86.82h3.339Zm0-6.677H80.143v-11.8h3.339Zm0,0" transform="translate(-53.323 -53.323)" fill="#f2f4ff"/>
</svg>
