<svg xmlns="http://www.w3.org/2000/svg" width="32.284" height="28.501" viewBox="0 0 32.284 28.501"><path d="M31.284,18.379,21.763,3.12a6.623,6.623,0,0,0-11.241,0L1,18.379A6.622,6.622,0,0,0,6.621,28.5H25.663a6.622,6.622,0,0,0,5.62-10.122Zm-5.62,8.23H6.621a4.73,4.73,0,0,1-4.016-7.228L12.126,4.121a4.731,4.731,0,0,1,8.031,0l9.521,15.259a4.73,4.73,0,0,1-4.016,7.228Zm0,0" transform="translate(0 0)" fill="#e59d32"/><path d="M74.77,61.339a2.839,2.839,0,0,0-4.822,0L60.427,76.6a2.839,2.839,0,0,0,2.411,4.336H81.88A2.839,2.839,0,0,0,84.291,76.6ZM73.3,77.088H71.413V75.2H73.3Zm0-3.783H71.413V66.621H73.3Zm0,0" transform="translate(-56.217 -56.217)" fill="#e59d32"/></svg>