<svg id="b466e680-bc77-4584-835b-97a61e3cfdf1" data-name="Capa 1" xmlns="http://www.w3.org/2000/svg" viewBox="0 0 396.73 319.21"><g id="bfbbe5b4-1f83-49df-a9fc-66a56ae88f23" data-name="Grupo 716"><path id="a411ffcb-af2c-44fa-99a0-882d683d13ef" data-name="Trazado 1341" d="M355.81,170.05a64.91,64.91,0,0,0-3.24-34.33,71.28,71.28,0,0,0-60-45.84A72.67,72.67,0,0,0,240.53,105c-13.85-34.84-48.82-58.8-88.2-58.8h-.77c-48.57.39-90.66,39-93.51,86.13a88.86,88.86,0,0,0,4,32.51c-32.12,7.64-55.17,35.35-55.17,68.38C6.89,271.33,31.5,312,100.4,312H323.56c43.77,0,73.17-40.67,73.17-78.62C396.73,206.32,380.54,181.7,355.81,170.05Z" transform="translate(0 -9.24)" style="fill:#97bff0"/><g id="a93ffe01-eefe-496f-9439-58fccbea40e9" data-name="Grupo 30"><path id="b3723f8b-2c9d-43fe-be51-272c8184874a" data-name="Rectángulo 2" d="M3.61,311.82H393.13a3.75,3.75,0,0,1,3.6,3.89h0v8.85a3.75,3.75,0,0,1-3.6,3.89H3.61A3.76,3.76,0,0,1,0,324.56H0v-8.85a3.76,3.76,0,0,1,3.61-3.89Z" transform="translate(0 -9.24)" style="fill:#3700b1"/><path id="b353620e-e9a9-44b5-8f4a-028ec422d84e" data-name="Trazado 41" d="M396.73,319.84v.39H0v-.39c0-4.43,3.3-8,7.37-8h382C393.43,311.82,396.73,315.41,396.73,319.84Z" transform="translate(0 -9.24)" style="fill:#542bd8"/></g><g id="a5ec4c40-493b-4729-b430-3df00dc75b9b" data-name="Grupo 27"><g id="a99d7444-db0e-4710-92f4-9a1d185595ef" data-name="Grupo 7"><path id="b2f69532-5e4e-4c6f-8ac9-1e4da87238cd" data-name="Trazado 13" d="M155.66,288.5c-8.36,6-34.88,3.91-36,3.71-4-.69,8.8-6.87,8.8-6.87s-15.39,3.32-15.71,1.88c-.54-2.36,13.45-7.7,13.45-7.7s-18.84,4.87-18.28,2,15.7-6.47,15.7-6.47c-6.34,1.17-9.72.94-11.54.36a1.23,1.23,0,0,1,.17-2.33c4.22-1,13.36-3,18.19-3.51A80.22,80.22,0,0,0,143,266.85c-2.21-4.87-8.25-6.69-6.66-8.36,4.36-4.59,14,4.26,19,7.58a11.43,11.43,0,0,1,2.48,2.33,14.52,14.52,0,0,1,.35,17.39A16.34,16.34,0,0,1,155.66,288.5Z" transform="translate(0 -9.24)" style="fill:#f7ad89"/><path id="a04cab76-b215-4e07-a247-df8539b15a42" data-name="Trazado 1342" d="M229.5,249.54A304.16,304.16,0,0,1,198.93,275c-11.23,8.12-43.31,8-43.31,8l-4-14.85c23.61-10.91,31.44-12.59,31.44-12.59l40.65-72.09,5.76,39.05Z" transform="translate(0 -9.24)" style="fill:#542bd8"/></g><g id="bc045746-2661-4441-ac36-75a98d68a3fa" data-name="Grupo 11"><path id="ef4b03ea-c16b-4ea0-9aad-1f04fc8114e2" data-name="Trazado 14" d="M352,311.4c-1.65-19.41-3.85-45.41-6.63-68.93-.13-1-.25-2-.37-3.05-3.1-25.4-6.88-47.4-11.42-54.26-13.42-20.31-59.83-28.67-59.83-28.67l-22.89,4.87S228,179.73,223.73,183.45c0,0,.68,23.82,1.13,33.53,1.08,23.9,7.07,61-1.37,94.42Z" transform="translate(0 -9.24)" style="fill:#6b5efd"/><g id="b7a4ed23-c858-4599-a77b-7a403bcc6c57" data-name="Grupo 8"><path id="fdf96f06-0589-4c42-8e98-db1c772d045e" data-name="Trazado 15" d="M265.89,191.12c15.5-2.89,19.91-19.67,20.09-20.39h0a1.2,1.2,0,0,0-.82-1.46h0a1.14,1.14,0,0,0-1.38.86c0,.16-4.23,16-18.27,18.64a1.2,1.2,0,0,0,.2,2.37Z" transform="translate(0 -9.24)" style="fill:#542bd8"/></g><g id="f51a20f2-4a4d-478b-9ad1-712eccca2a7d" data-name="Grupo 9"><path id="a33fec17-9076-4e27-8058-3faca9311247" data-name="Trazado 16" d="M303.43,293.47h0a1.19,1.19,0,0,0,1-1.35v0a1.17,1.17,0,0,0-1.31-1c-17.24,2.41-34.15-7.09-45.3-15.48a132.22,132.22,0,0,1-20.41-19.15l0,0h0l0-.05a1.12,1.12,0,0,0-1.59-.07,1.22,1.22,0,0,0-.11,1.68,134.17,134.17,0,0,0,20.77,19.51c10.25,7.73,25.25,16.35,41.15,16.35A42.49,42.49,0,0,0,303.43,293.47Z" transform="translate(0 -9.24)" style="fill:#542bd8"/></g><g id="a3ff3255-7043-4756-9768-48466da148a1" data-name="Grupo 10"><path id="ac38aeda-ebe8-4c42-81e5-f93a999eab7e" data-name="Trazado 17" d="M287.18,303.43h0a1.2,1.2,0,0,0,0-2.39h-.86c-19.58,0-34.28-13.12-34.43-13.25h0a1.11,1.11,0,0,0-1.58.12,1.22,1.22,0,0,0,.07,1.68c.63.58,15.48,13.85,35.93,13.85Z" transform="translate(0 -9.24)" style="fill:#542bd8"/></g></g><g id="ab395cc5-4c48-4e83-bc8a-91a24b781489" data-name="Grupo 26"><path id="f78c3928-a49a-4cae-a48b-28d29d7fa6ed" data-name="Trazado 36" d="M184.46,296.5s-23.89,12.78-32.92,7.84S141,292.09,141,292.09s-13.27,5.42-14.2,1.34,11.42-7.91,21.14-13.35,30.33-4.72,30.33-4.72Z" transform="translate(0 -9.24)" style="fill:#f7ad89"/><g id="b2ea046f-7160-45bd-9e12-81da6d52a309" data-name="Grupo 25"><path id="efde1e65-453d-4bc9-b6b5-49d61e37b64a" data-name="Trazado 37" d="M343,210c.19,12.1-14.81,23.6-21.54,29.9C299.65,260.2,276,279,269.14,281.71c-24.25,9.67-86.27,15-86.27,15s-8.31-20.48-4.32-21.29C200.63,271,244.1,256,258.38,249.45c11-5,51.45-58.43,66-73.55C333.2,180.18,342.67,191.13,343,210Z" transform="translate(0 -9.24)" style="fill:#542bd8"/></g></g><g id="ad2ec965-cce0-47aa-87b9-daf8e3872547" data-name="Grupo 553"><g id="e8ec54a5-2a68-41dd-999e-ac340ca211b8" data-name="Grupo 475"><path id="bcfcf8c9-e465-41d2-86ed-b0a170fa3115" data-name="Trazado 1042" d="M269.64,145.73l-22.09,7.45,6,19.08c2.87,9.15,25,1.7,22.09-7.45Z" transform="translate(0 -9.24)" style="fill:#f7ad89"/><g id="fc988a09-e43d-417e-8cde-728e95aa7c0e" data-name="Grupo 474" style="opacity:0.5"><path id="a09f2a54-e068-4a06-9b1f-8c6f6c821730" data-name="Trazado 1043" d="M274.45,170.28A31,31,0,0,0,251,164l-3.4-10.85,22.09-7.45,6,19.09A5.92,5.92,0,0,1,274.45,170.28Z" transform="translate(0 -9.24)" style="fill:#ffbe92"/></g></g><g id="a4e7579c-7bc6-464f-8ff5-4f8b563e966c" data-name="Grupo 481"><g id="b729acff-6433-4ea1-9802-0411c43870c2" data-name="Grupo 476"><path id="aee4e037-cde8-4135-9964-38918613e7d3" data-name="Trazado 1044" d="M209,124.37c-5.28,3.95-11.57-2.4-14.9-7.9-2.1-3.49-6.25-9.47-2.51-13.41,2.81-3,6.78-2.06,10.16-1.63Z" transform="translate(0 -9.24)" style="fill:#ffbe92"/><path id="ae034d7b-e770-435d-8656-5bf70bda2d64" data-name="Trazado 1045" d="M204,120.82a17.41,17.41,0,0,1-6.61-6.24l-.48-.71c-1.46-2.15-4.18-6.15-2.62-7.78a2.31,2.31,0,0,1,1.08-.65,9.55,9.55,0,0,1,3.2-.13A54.32,54.32,0,0,1,204,120.82Z" transform="translate(0 -9.24)" style="fill:#f2a46e"/></g><path id="e45a648d-316d-4f1e-b76f-f312acfbd682" data-name="Trazado 1046" d="M277.68,53.08c-11.24-12.63-27.79-18.23-48.91-12.51-14.49,3.93-23.56,12.07-28.19,22.74-3.18,7.26-4.29,15.71-3.72,24.79q.24,3.62.82,7.18A105.48,105.48,0,0,0,202.47,114a94.56,94.56,0,0,0,24.14,39.59c4.78,4.58,10.29,8.53,16.51,10.65,5.4,1.82,10.19,1.58,15.36.52,1.36-.25,2.74-.59,4.16-.94,30.07-7.66,34.67-47.95,30.61-74.41C291,74.79,285.71,62.13,277.68,53.08Z" transform="translate(0 -9.24)" style="fill:#f7ad89"/><g id="acb7fcdf-0f54-43f6-a1bf-d301986778a3" data-name="Grupo 477" style="opacity:0.5"><path id="bdbb82fb-f9a0-46b8-8280-753e40348e01" data-name="Trazado 1047" d="M277.68,53.08a42,42,0,0,0-11,1.83,198.49,198.49,0,0,1-34,6.91c-7.89.84-19.74,2.23-26.24,7.38-4.67,3.7-2.66,12.67-5,17.81,5.49-4,9.85-10.15,9.9-17.24,2.41,1.88,6,3.31,8.77,4.63,9.48,4.62,18.32,4.09,28.52,1.93,7.73-1.63,40.57-15.65,39.15,32.69-.61,21.09-4.52,43.1-29.33,55.77,1.36-.25,2.74-.59,4.16-.94,30.07-7.66,34.67-47.95,30.61-74.41C291,74.79,285.71,62.13,277.68,53.08Z" transform="translate(0 -9.24)" style="fill:#ffbe92"/></g><g id="e47c2180-f3e5-4855-a1da-10e71b0ca209" data-name="Grupo 479"><path id="a9db69f9-8f84-4373-aa72-d190573064b8" data-name="Trazado 1048" d="M290.19,100.5c6.47.77,9-8,9.29-14.45.2-4.11,1-11.43-4.11-13-3.85-1.16-6.89,1.64-9.64,3.72Z" transform="translate(0 -9.24)" style="fill:#ffbe92"/><g id="e7a289cc-0056-4c1c-bc84-469d8c8e1120" data-name="Grupo 478" style="opacity:0.5"><path id="ef3756e7-61d2-4333-a6dc-6dd0cf8346cf" data-name="Trazado 1049" d="M290.19,100.5c6.47.77,9-8,9.29-14.45.2-4.11,1-11.43-4.11-13-3.85-1.16-6.89,1.64-9.64,3.72Z" transform="translate(0 -9.24)" style="fill:#ffbe92"/></g><path id="f0b06eb9-baea-4128-b74c-b8a5ba4b53ee" data-name="Trazado 1050" d="M182.57,63.56c.05-7.43,1.72-18.21,8.73-21.85,1.45-.75,4.63-.78,5.67-1.78.85-.82,1.21-3.62,1.82-4.8,9.23-18,32.32-26.56,51-24.44C268,12.76,284,26.06,290.84,43.11c2.37,5.93,3.2,11.86,4.54,18,.19.88.62,11.94-1.74,11.81-7.37-.41-6.1,8-4.72,12.62.35,1.13,2.72,8.1,1.8,8.71-.58.39-.37.3-1.06.33-3.48-9.86-4.11-20.28-14.77-24.82-6.23-2.67-12.89.27-19.12,1.76a100.71,100.71,0,0,1-25,2.52c-7.71-.24-21-6.55-21-6.55s-.75,5.46-1.25,7.72c-1.15,5.19-4.82,8.36-6.47,13.15a40.64,40.64,0,0,0-1.5,7.56c-.16,1.2,6,23,5.93,25-2.51-.13-6.28-15-6.28-15s-2.46-4.86-3.81-7c-2-3.15-3.82-6.26-5.68-9.38l-.17-.29C186.29,81.92,182.52,72.08,182.57,63.56Z" transform="translate(0 -9.24)" style="fill:#2e3062"/><path id="aa5bd783-30c6-4520-8833-90d2da7ad674" data-name="Trazado 1051" d="M292.85,94.88a18.3,18.3,0,0,0,2.85-8.8c.71-7.27.49-11.52-5.4-7.49A55.21,55.21,0,0,0,292.85,94.88Z" transform="translate(0 -9.24)" style="fill:#da8751"/></g><path id="fedf5c0e-2034-4a79-9db9-afdd52afe69d" data-name="Trazado 1190" d="M206,123.7c-.33-1.13-.5-1.75-.5-1.75.28.64,2.32,1.14,2.59,1.75,4.78,10.6,6.46,16.12,13.16,15.67a13.9,13.9,0,0,0,1.58-.19c3.93-.72,5.83-4.89,11.22-7.08,6.29-2.55,16.14-3.18,21.74-6,15.57-7.88,15,4,21.79,0,2.53-1.48,5.14-1.9,8.12-5.29,5-5.64,4.14-20,2.59-29.31l2.46,3.06s6.66,23.83,6.18,29.73c-.72,8.86-8.37,30.94-31.93,39.61a71.34,71.34,0,0,1-12.2,3.28c-16,3.38-32.29-7.1-37.33-18.25A211.19,211.19,0,0,1,206,123.7Z" transform="translate(0 -9.24)" style="fill:#55578d"/><path id="a32836aa-99be-4711-9039-76e19c273989" data-name="Trazado 1052" d="M268.44,126.72l-35.09,10.4C257.14,163.29,268.44,126.72,268.44,126.72Z" transform="translate(0 -9.24)" style="fill:#fff"/><g id="b47fb46e-2a58-4572-81b6-cc1f1da8713a" data-name="Grupo 480"><path id="ed6c4a8a-3d45-40cc-8c19-64fe54403d43" data-name="Trazado 1053" d="M224.06,105.38c-2,.57-2.87,3.57-2,6.68s3.14,5.16,5.11,4.58,2.87-3.58,2-6.69S226,104.8,224.06,105.38Z" transform="translate(0 -9.24)" style="fill:#2e3062"/><path id="b683b6e5-2d6e-4f52-b742-fa846ad9e352" data-name="Trazado 1054" d="M258.34,95.41c-2,.58-2.87,3.58-2,6.69s3.15,5.16,5.12,4.57,2.87-3.57,2-6.68S260.31,94.83,258.34,95.41Z" transform="translate(0 -9.24)" style="fill:#2e3062"/></g><path id="a1f49dd0-21f7-4996-bc88-52c860199007" data-name="Trazado 1055" d="M227.09,89.9c-8.15.53-15.92,7.26-15.92,7.26l.66,1.58c4.92-4.56,14.1-5,14.1-5Z" transform="translate(0 -9.24)" style="fill:#2e3062"/><path id="efff1753-a9d8-46ce-b614-ed5f2ae42ce0" data-name="Trazado 1056" d="M247.69,85.45c7.62-3.11,17.41-.44,17.41-.44l0,1.73c-6.32-2-14.82,1.69-14.82,1.69Z" transform="translate(0 -9.24)" style="fill:#2e3062"/></g></g></g><g id="bedf0ee7-58b0-41ac-b242-f285a56981e2" data-name="Grupo 28"><rect id="abd0ad67-8691-469c-afb9-7e3373dabb7c" data-name="Rectángulo 1" x="75.95" y="281.31" width="165.64" height="20.7" rx="2.09" style="fill:#001030"/><path id="be6399d9-6118-4159-8d97-05b11610b42e" data-name="Trazado 38" d="M167.54,311.26,133.25,195.88a10.24,10.24,0,0,0-9.93-7.11H54.81c-6.78,0-11.71,6.08-10,12.27L76,311.26Z" transform="translate(0 -9.24)" style="fill:#2e3062"/><path id="fea079f8-9806-449d-9e7f-07648a03bf5f" data-name="Trazado 39" d="M123.32,188.77h7.83a10.27,10.27,0,0,1,9.94,7.12l34,114.42h-7.83l-34-114.42A10.28,10.28,0,0,0,123.32,188.77Z" transform="translate(0 -9.24)" style="fill:#001030"/><path id="b594807f-d847-471f-bc66-11daeeebcb22" data-name="Trazado 40" d="M98.55,239.85c-7.69,0-12.51,6.28-10.76,14.09s9.41,14.16,17.1,14.19,12.51-6.28,10.75-14.09S106.24,239.88,98.55,239.85Z" transform="translate(0 -9.24)" style="fill:#524e82"/></g><g id="aa4bd1e9-53d0-4a58-95c5-6b00efcb7d38" data-name="Grupo 653"><path id="b771fc44-9eb7-4597-92a4-c6e131caedf2" data-name="Trazado 1343" d="M302.63,60,312.12,98l2.06-.55a8.06,8.06,0,0,0,5.54-9.78l-5.61-22.53a7.79,7.79,0,0,0-7.48-6,7.57,7.57,0,0,0-1.95.26Z" transform="translate(0 -9.24)" style="fill:#1f234f"/><g id="a8e60299-d710-4224-a106-95c3fedb5ac3" data-name="Grupo 652"><path id="e26a6524-80f6-45df-a7e0-9ae2fdcc9ac4" data-name="Trazado 1344" d="M174,92.92l13.44,44.41a5,5,0,0,0,5,3.58,4.69,4.69,0,0,0,1.23-.23l10.69-3.49c2.59-.84,4.77-4.71,4-7.4L194.75,86.51a5.93,5.93,0,0,0-5.65-3.72,4.69,4.69,0,0,0-1.23.23l-10.69,3.49A5.16,5.16,0,0,0,174,92.92Z" transform="translate(0 -9.24)" style="fill:#1f234f"/><path id="f567859e-e52e-454b-9f3f-61090359ab41" data-name="Trazado 1345" d="M168.59,106.76l6.72,22.2a7.75,7.75,0,0,0,7.76,5.62,7.41,7.41,0,0,0,1.93-.37l2-.66L175.68,96l-2,.66A8.09,8.09,0,0,0,168.59,106.76Z" transform="translate(0 -9.24)" style="fill:#1f234f"/></g><path id="ec770380-f17b-4ed0-b111-2678df428648" data-name="Trazado 1346" d="M178.14,78.61,187.68,76a54.63,54.63,0,0,1,9.23-34.63,51.23,51.23,0,0,1,28.92-20.74A50.06,50.06,0,0,1,238.66,19c19.93,0,38.09,12.1,46.42,30.89l9.64-2.59c-9.7-23.13-31.54-38-55.87-38a59.06,59.06,0,0,0-15.31,2,61,61,0,0,0-34.88,25.31A65.15,65.15,0,0,0,178.14,78.61Z" transform="translate(0 -9.24)" style="fill:#1f234f"/><path id="b231cd92-3117-49f7-9542-3fea52f55cd2" data-name="Trazado 1347" d="M284.67,48.92c0,2.1,2,11.23,2,11.23l12.17-3.51c0-2.11-4.73-10.53-4.73-10.53Z" transform="translate(0 -9.24)" style="fill:#1f234f"/><path id="e8303a2d-1c8e-47e7-a2fe-4ba8c8f1dc7b" data-name="Trazado 1348" d="M178,76.32c0,2.11-.11,12.61-.11,12.61L190,86.82c0-2.11-2.43-12.23-2.43-12.23Z" transform="translate(0 -9.24)" style="fill:#1f234f"/><path id="e9edba1b-c8fe-488f-a1bb-aeca31b95678" data-name="Trazado 1349" d="M240.08,167.86a7.77,7.77,0,0,0,7.48,6,7.56,7.56,0,0,0,1.95-.25l27.12-7.3a7.94,7.94,0,0,0,5.74-7.07l.05-.49.46-.12,11.34-3c13.1-3.53,21-17.46,17.6-31.06l-3.51-14.08-.17-.68.66-.18,2.71-.73a5.14,5.14,0,0,0,3.54-6.23L303.81,57.57A5,5,0,0,0,299,53.73a4.7,4.7,0,0,0-1.24.17L287,56.81a4.92,4.92,0,0,0-3,2.36c-.67,1.18-1.9,3.66-1.57,5l10.78,43.18c.56,2.26,4,4.62,6.27,4.62a4.75,4.75,0,0,0,1.24-.17l2.71-.73.65-.17.17.68,3.52,14.08c2.8,11.25-3.73,22.76-14.56,25.68l-11.34,3-.46.13-.27-.41a7.63,7.63,0,0,0-6.41-3.54,7.2,7.2,0,0,0-1.91.25l-27.13,7.29a7.69,7.69,0,0,0-4.72,3.7A8.21,8.21,0,0,0,240.08,167.86Z" transform="translate(0 -9.24)" style="fill:#1f234f"/></g></g></svg>