<svg id="eafb8fad-046c-4081-b7d2-2cf33cf2677b" data-name="Capa 1" xmlns="http://www.w3.org/2000/svg" xmlns:xlink="http://www.w3.org/1999/xlink" viewBox="0 0 397.13 324.82"><defs><clipPath id="e60d0931-f086-4653-ac43-bebdd6e3f3af" transform="translate(-0.04 -2.24)"><circle cx="255.9" cy="51.9" r="20.26" style="fill:none"/></clipPath></defs><path id="b998f0af-dae0-4d00-b110-9353ef477f3b" data-name="Trazado 1341" d="M354.74,160.34a71.86,71.86,0,0,0-3.23-36.13C342.1,97.5,318.63,78.55,291.8,76a69.63,69.63,0,0,0-51.84,16C226.16,55.24,191.33,30,152.13,30h-.78c-48.36.41-90.27,41-93.11,90.65a98.31,98.31,0,0,0,4,34.22c-32,8-54.94,37.21-54.94,72,0,40.07,24.5,82.88,93.11,82.88H322.62c43.59,0,72.87-42.81,72.87-82.74C395.49,198.51,379.37,172.6,354.74,160.34Z" transform="translate(-0.04 -2.24)" style="fill:#97bff0"/><g id="b3bfac98-1879-4f47-b77b-5666ed775f8d" data-name="Grupo 30"><path id="b0b4e2e0-7216-43ce-ab5b-ae697c5fa66c" data-name="Rectángulo 2" d="M3.65,309.55H391.9a3.86,3.86,0,0,1,3.59,4.09h0V323a3.88,3.88,0,0,1-3.59,4.1H3.65A3.88,3.88,0,0,1,.05,323h0v-9.32a3.87,3.87,0,0,1,3.6-4.09Z" transform="translate(-0.04 -2.24)" style="fill:#3700b1"/><path id="aea27655-e7c8-4689-a123-efc76e52acc2" data-name="Trazado 41" d="M395.49,318v.4H.05V318c0-4.67,3.29-8.45,7.34-8.45H388.15C392.21,309.55,395.49,313.33,395.49,318Z" transform="translate(-0.04 -2.24)" style="fill:#542bd8"/></g><g id="e7715bcb-8782-496b-a201-ba45d3f0ce48" data-name="Grupo 29"><g id="a6d39f5a-bdc1-471b-b246-a62b70279bf8" data-name="Grupo 28"><rect id="a9851d9a-4d76-4333-91dc-925e6fd6635e" data-name="Rectángulo 1" x="30.37" y="280.97" width="217.64" height="26.2" rx="2.94" style="fill:#001030"/><path id="a7a947cf-e5a7-42bc-bb7d-cd45ccf49559" data-name="Trazado 38" d="M248,309.41l40.9-139.48c2.3-7.84-4.19-15.52-13.09-15.52h-90c-6.08,0-11.41,3.67-13.06,9l-45,146Z" transform="translate(-0.04 -2.24)" style="fill:#2e3062"/><path id="e91a4eca-662f-4fa1-9b66-6a779d950b02" data-name="Trazado 39" d="M172.75,163.41,128.08,308.22H117.79l44.67-144.81c1.66-5.33,7-9,13-9h10.28C179.73,154.4,174.4,158.08,172.75,163.41Z" transform="translate(-0.04 -2.24)" style="fill:#001030"/><path id="b5db8545-35d9-4b57-80c9-185e2da4cc1d" data-name="Trazado 40" d="M195.89,237c-2.3,9.88,4,17.86,14.13,17.83s20.16-8.08,22.46-18-4-17.86-14.12-17.82S198.19,227.12,195.89,237Z" transform="translate(-0.04 -2.24)" style="fill:#524e82"/></g></g><g id="ae5b6f91-9088-4ddc-9e07-258278fd9102" data-name="Grupo 655"><g id="a7288073-ed56-4967-80a4-9563b74e9b79" data-name="Grupo 654"><path id="b5b9b36d-ce3a-4bb7-b21f-adced2925396" data-name="Trazado 1350" d="M307,182.18l15.31,7c16.12,7.37,42.43-17.15,59.73-55s18-73.61,2.5-81.19l-15.31-7c-5.65-2.58-12.69.05-15.85,5.91L343.09,74.42c-3.68,8.07,2.39,17.17,10.9,16.67,5.94-.21,11.65,4.35,11.86,10.29,1.66,13.43-8.5,34.61-19.15,41.92a11.93,11.93,0,0,1-15.54-2.23c-5.2-6.76-16.06-5.38-19.74,2.68l-10.31,22.57C298.54,172,301.16,179,307,182.18Z" transform="translate(-0.04 -2.24)" style="fill:#00bd00;stroke:#6168ff;stroke-miterlimit:10;stroke-width:3px"/></g></g><g id="efe4388f-2396-4085-aead-014ac3376b9b" data-name="Grupo 69"><rect id="e1f98275-706e-460a-8abb-1beced3a89dc" data-name="Rectángulo 4" x="184.02" y="40.83" width="135.46" height="70.96" rx="2.05" transform="translate(148.53 316.05) rotate(-83.77)" style="fill:#524e82"/><g id="a47634d3-a2a8-434e-8839-d60ace7802b3" data-name="Grupo 35"><g id="b661f4c4-6264-4513-b7da-0365c0e449f4" data-name="Grupo 34"><g id="f5498d12-0ef9-4e7c-9731-3e2db1682526" data-name="Grupo 33"><path id="a7c07749-98b8-4d7e-8af0-794044a825c9" data-name="Trazado 45" d="M277.47,11l-2.66,2.36a3.21,3.21,0,0,0-1.06,2.1,3,3,0,0,1-3.15,2.79L248,15.76a3,3,0,0,1-2.48-3.4,3.24,3.24,0,0,0-.58-2.28L242.82,7.2Z" transform="translate(-0.04 -2.24)" style="fill:#2e3062"/><ellipse id="a93ba8f3-d39d-49c0-9846-8a72caa4db98" data-name="Elipse 2" cx="269.02" cy="14" rx="1.3" ry="1.18" transform="translate(225.87 277.67) rotate(-83.77)" style="fill:#524e82"/><path id="eb2499c2-bc18-46bb-af13-420e17613784" data-name="Rectángulo 3" d="M249,10.51l16.88,1.84a.59.59,0,0,1,.49.67l-.15,1.37a.58.58,0,0,1-.62.54L248.7,13.09a.59.59,0,0,1-.49-.67l.15-1.36A.58.58,0,0,1,249,10.51Z" transform="translate(-0.04 -2.24)" style="fill:#524e82"/></g><path id="b0bcdb2d-05ba-4d22-8c09-687c49dcd421" data-name="Trazado 1351" d="M288.53,8.55,231.07,2.28c-3.61-.4-6.9,2.51-7.34,6.49h0L209.86,135.92c-.44,4,2.14,7.53,5.75,7.92h0l57.46,6.28c3.61.39,6.9-2.52,7.33-6.5L294.28,16.48C294.72,12.49,292.14,8.94,288.53,8.55ZM277.09,143.7a3,3,0,0,1-3.21,2.86h0l-58.26-6.36a3.05,3.05,0,0,1-2.54-3.49l14-128a2.88,2.88,0,0,1,.1-.51,3.15,3.15,0,0,1,2-2.21,2.57,2.57,0,0,1,.61-.14,2.62,2.62,0,0,1,.56,0l58.24,6.36a3.07,3.07,0,0,1,2.54,3.49Z" transform="translate(-0.04 -2.24)" style="fill:#2e3062"/></g></g><g id="b1bcdb10-5fae-445d-9c59-db83ac7a7fa5" data-name="Grupo 68"><circle id="ae3d348d-e7f3-4311-9294-377966ff9272" data-name="Elipse 4" cx="236.61" cy="116.02" r="6.36" style="fill:#f43853"/><path id="e7fed09c-84d0-4002-be70-9f130b20af06" data-name="Trazado 78" d="M236.68,118s-1.12-.18-1.29.09-.12,1.34-1.46,1.12-.76-1.31-.57-1.62.52-.87,3.42-.56,3.11.94,3.23,1.29.44,1.52-.91,1.45-1-1-1.18-1.41S236.68,118,236.68,118Z" transform="translate(-0.04 -2.24)" style="fill:#fff"/><circle id="a97c4045-881f-45b5-a1cc-1f75fe0d1e0b" data-name="Elipse 4-2" cx="258.01" cy="118.36" r="6.36" style="fill:#00bd00"/><path id="b472a47e-106c-403c-bc89-129bc3f573fe" data-name="Trazado 78-2" d="M257.84,120.75s.6,1,.91.91c.47-.07,1.09-.8,1.81.35s-.47,1.44-.83,1.5-1,.19-2.69-2.19-1.36-2.95-1.18-3.27.84-1.34,1.69-.28-.05,1.4-.27,1.82C257.14,119.86,257.84,120.75,257.84,120.75Z" transform="translate(-0.04 -2.24)" style="fill:#fff"/></g><g id="b07af465-89f2-4462-ae5f-25bd54a9a08f" data-name="Grupo 657"><g style="clip-path:url(#e60d0931-f086-4653-ac43-bebdd6e3f3af)"><g id="aa843179-7562-4221-bb0e-11b735a092e1" data-name="Grupo 656"><rect id="a93db657-4b37-46ec-a001-119b7c522c09" data-name="Rectángulo 104" x="229.3" y="31.48" width="52.29" height="49.79" transform="translate(171.65 301.96) rotate(-83.77)" style="fill:#fff"/><g id="bd7df461-cfe6-4731-b5d4-47ea0edd8d54" data-name="Grupo 66"><g id="af26899f-0323-419b-ab21-047bf0e26b36" data-name="Grupo 65"><g id="b03aa9e8-0c68-42e2-8839-a5d0cb5a24ed" data-name="Grupo 54"><g id="bbf5618a-b32d-4780-9b29-0b0e2b17d9f1" data-name="Grupo 51"><g id="e863602d-c957-4830-9cb3-a997059acafe" data-name="Grupo 50"><g id="e4fe78c5-bbe2-4d94-8fe8-0865ae093616" data-name="Grupo 49"><path id="b79da50a-5e21-4f89-8967-a6cc71f0d58f" data-name="Trazado 54" d="M268.89,75.52l-1,9.53a1.49,1.49,0,0,1-1.62,1.32h0l-29.8-3.25a1.48,1.48,0,0,1-1.31-1.63h0l1-9.53c.51-4.72,2.7-6.12,2.7-6.12a28.18,28.18,0,0,1,6.39-2.47s6-1.32,6-1.34l6,1.08c.67.5,4.54,2.13,6.8,3.56.34.22.54.34.74.48a9.14,9.14,0,0,1,3.12,3.27A13.39,13.39,0,0,1,268.89,75.52Z" transform="translate(-0.04 -2.24)" style="fill:#ff495a"/></g></g></g><g id="af076a0d-a6d0-4a5a-8b5b-f749517d0935" data-name="Grupo 52"><path id="ea5d04a4-9a57-4bad-87f4-bdf86efe6b9d" data-name="Trazado 55" d="M241.41,76.73l-1.75,6.74-.6-.07,1.78-6.82a.29.29,0,1,1,.58.1h0A.43.43,0,0,1,241.41,76.73Z" transform="translate(-0.04 -2.24)" style="fill:#e21c47"/></g><g id="ff87a4b5-375b-48ef-a3f3-62d9c0a15830" data-name="Grupo 53"><path id="e736bcbd-4c01-4384-835c-d7a1faaefe91" data-name="Trazado 56" d="M264.35,86.16l-.59-.06-.1-5.34a.3.3,0,0,1,.29-.3.29.29,0,0,1,.3.29Z" transform="translate(-0.04 -2.24)" style="fill:#e21c47"/></g><path id="bd9c768a-c5dc-4aba-bb83-a3e275d77bda" data-name="Trazado 57" d="M256.83,74l6.31.69s-.43,5.6-3.73,5.24S256.83,74,256.83,74Z" transform="translate(-0.04 -2.24)" style="fill:#e21c47"/></g><g id="f50edc5f-f721-4c06-9361-ca049c6f495b" data-name="Grupo 64"><path id="e46e4ca5-8826-4f10-a723-a8662aa3deab" data-name="Trazado 58" d="M263.82,46.91s3.49-.81,3.44-3.46c0-2.26-2.67-1.08-2.26-2.8s1.06-3.24-1-3.91c-1.81-.58-2,.76-4.22-1.46-2.63-2.62-5.43,2.48-8,2.36-3.82-.17-4.55,2-5.12,3.82s1,4.12,1,4.12Z" transform="translate(-0.04 -2.24)" style="fill:#2e3062"/><g id="e6ae1148-4db8-47be-ba61-b5bb68b5adeb" data-name="Grupo 57"><path id="ef7f6a4b-5046-4388-8281-91a262bc6b47" data-name="Trazado 59" d="M262.84,50.67s1.62-1.73,2.5-.06-1.11,6.1-3.55,4.7Z" transform="translate(-0.04 -2.24)" style="fill:#fa8465"/><g id="a7810069-4f86-454c-90bc-57b5c71b1663" data-name="Grupo 55"><path id="b44d733c-f40d-40cd-bb12-f4f896e8012d" data-name="Trazado 60" d="M262.5,54a.23.23,0,0,0,.23-.14,3.37,3.37,0,0,1,2.1-1.79.21.21,0,0,0,.13-.28.23.23,0,0,0-.23-.14h0a3.76,3.76,0,0,0-2.4,2.06.22.22,0,0,0,.12.28h.05Z" transform="translate(-0.04 -2.24)" style="fill:#fa664d"/></g><g id="af73e196-5cee-4f63-a1d5-68d14862da3c" data-name="Grupo 56"><path id="bd4ec555-5ee9-49f9-ad83-c0dbae894963" data-name="Trazado 61" d="M264.06,53.39a.21.21,0,0,0,.24-.19.16.16,0,0,0,0-.12h0a2,2,0,0,0-.74-.75.22.22,0,0,0-.3.08.22.22,0,0,0,.08.3h0a1.61,1.61,0,0,1,.57.56A.21.21,0,0,0,264.06,53.39Z" transform="translate(-0.04 -2.24)" style="fill:#fa664d"/></g></g><path id="f3e121f4-24dd-463c-902c-ae64c7e2cf6b" data-name="Trazado 62" d="M251.16,58.09l-.5,4.57s1.11,2.48,2.94,2.83,3.69-1.62,3.69-1.62l.52-4.73Z" transform="translate(-0.04 -2.24)" style="fill:#f7ad89"/><path id="e9a2b4d1-e825-42f8-96bc-65bb18adefd2" data-name="Trazado 63" d="M251.16,58.09l-.22,2c1.09,1.51,3.25,2.09,6.55,2l.31-2.94Z" transform="translate(-0.04 -2.24)" style="fill:#fa8465"/><path id="b0774b87-0f6d-47d2-af1d-c30c26a5483b" data-name="Trazado 64" d="M263.82,49.33c-.07.46-.14.94-.24,1.43,0,.18-.07.37-.1.55-.15.74-.34,1.5-.56,2.26h0a.39.39,0,0,1,0,.06l0,.15c0,.11-.06.21-.1.32s-.11.34-.17.51c-1,2.9-2.71,5.49-5.48,6.15-6.55,1.56-8.52-3.63-9.23-7.15-.05-.24-.09-.47-.13-.69-.06-.38-.11-.8-.15-1.24h0v0h0c-.08-1-.09-2.05-.07-3.13s.06-1.87.1-2.7a4.56,4.56,0,0,1,.33-1.46c0-.11.09-.22.14-.33s0-.1.08-.16l.18-.31.2-.29c.07-.1.15-.19.22-.28h0c.12-.13.24-.26.37-.38a4.83,4.83,0,0,1,1-.72,2.53,2.53,0,0,1,.33-.16,4,4,0,0,1,.69-.24c2.88-.76,7.16-1.14,10.89,1.54a4.79,4.79,0,0,1,1.73,2.33c0,.1.06.19.09.29a1.8,1.8,0,0,1,.05.19c0,.13.05.26.07.39a2.2,2.2,0,0,1,0,.36,3.85,3.85,0,0,1,0,.76C264,48,263.92,48.62,263.82,49.33Z" transform="translate(-0.04 -2.24)" style="fill:#f7ad89"/><g id="fc044961-7208-48a2-955a-7f25b18eac8c" data-name="Grupo 58"><path id="f38dcc22-9230-4b78-a29e-d3050add5ce1" data-name="Trazado 65" d="M254.53,59.27a2.25,2.25,0,0,1-1-.45.22.22,0,0,1,0-.32.23.23,0,0,1,.28,0h0a2,2,0,0,0,.77.35,1.86,1.86,0,0,0,.87-.12.23.23,0,0,1,.29.13.23.23,0,0,1-.11.28A2.38,2.38,0,0,1,254.53,59.27Z" transform="translate(-0.04 -2.24)" style="fill:#fa8465"/></g><path id="ede93c97-5b32-44da-a549-56b950c50089" data-name="Trazado 66" d="M252,49.65c-.06.49.15.91.46,1s.61-.34.66-.83-.16-.91-.46-.94S252,49.16,252,49.65Z" transform="translate(-0.04 -2.24)" style="fill:#2e3062"/><path id="f2eef35f-0627-461f-a6d7-aa597cd0d99a" data-name="Trazado 67" d="M258.77,50.39c-.06.49.15.91.46,1s.6-.33.66-.82-.16-.91-.47-1S258.82,49.91,258.77,50.39Z" transform="translate(-0.04 -2.24)" style="fill:#2e3062"/><path id="ae83b186-8c28-449d-ba86-a51317932796" data-name="Trazado 68" d="M250.51,46.48a6.28,6.28,0,0,1,4.12.3l-.29,1a11.57,11.57,0,0,0-4-.12A1.79,1.79,0,0,1,250.51,46.48Z" transform="translate(-0.04 -2.24)" style="fill:#2e3062"/><path id="bcfe5aec-e623-48b1-ad5b-6e8b8a541047" data-name="Trazado 69" d="M261.53,47.69a6.31,6.31,0,0,0-4.12-.6l.08,1a11.52,11.52,0,0,1,3.93.75A1.75,1.75,0,0,0,261.53,47.69Z" transform="translate(-0.04 -2.24)" style="fill:#2e3062"/><g id="e86a51e7-2d04-4547-948f-d34eacb38373" data-name="Grupo 59"><path id="a00b26b8-0689-4301-b18d-0e2425c1c5c9" data-name="Trazado 70" d="M255.09,54a2.34,2.34,0,0,1-.77-.26.21.21,0,0,1-.08-.29.21.21,0,0,1,.29-.09,1.31,1.31,0,0,0,.86.18.22.22,0,0,0,.13-.19,31.23,31.23,0,0,0,.23-3.34.22.22,0,0,1,.23-.21.21.21,0,0,1,.21.22,32.75,32.75,0,0,1-.24,3.42.67.67,0,0,1-.37.49A.93.93,0,0,1,255.09,54Z" transform="translate(-0.04 -2.24)" style="fill:#fa8465"/></g><path id="a62dca65-01d5-4371-b0d9-f626a280daa9" data-name="Trazado 71" d="M257.64,55.94A2.62,2.62,0,0,1,254.82,58a2.52,2.52,0,0,1-2.29-2.63Z" transform="translate(-0.04 -2.24)" style="fill:#fff9ff"/><path id="bec60961-1c15-4e54-a431-ba9dc4187b33" data-name="Trazado 72" d="M263.82,49.33c-.07.46-.15.94-.24,1.43,0,.18-.07.37-.1.55-.15.74-.34,1.5-.56,2.26l-.91-.29a14.73,14.73,0,0,0,.88-3.82c-.09-1.07-.89-1.78-.49-2.76a2.15,2.15,0,0,0-1.32-2.45c-.77-.27-2.81.65-4.4-.58a5.44,5.44,0,0,0-5.46-.5c-1.26.78-.61,2.64-1.46,2.77s-.48,2.13-.48,3.11.07,2.25.08,2.33l-1.1-.1-.21-2.06c-.35-.2-.35-.52-.53-.68,0-.94.06-1.87.1-2.71a4.62,4.62,0,0,1,.33-1.46c0-.1.09-.22.14-.32l.08-.16.18-.31a3,3,0,0,1,.2-.29,3,3,0,0,1,.22-.28h0a4.83,4.83,0,0,1,1.39-1.11l.32-.15a5.83,5.83,0,0,1,.7-.25c2.88-.76,7.16-1.14,10.89,1.55a4.79,4.79,0,0,1,1.73,2.33,2.46,2.46,0,0,1,.09.29,1.05,1.05,0,0,1,.05.19c0,.12.05.25.07.38a2.21,2.21,0,0,1,0,.37,4.82,4.82,0,0,1,0,.76C264,48,263.92,48.62,263.82,49.33Z" transform="translate(-0.04 -2.24)" style="fill:#2e3062"/><g id="a81b65ff-a272-4404-9258-1c24b7f98bbd" data-name="Grupo 63"><path id="b61c335c-81d2-4b86-8f9b-436f52be4b59" data-name="Trazado 73" d="M248.31,49.77a1.91,1.91,0,0,0-.76-1.53,1.12,1.12,0,0,0-1.57.11.71.71,0,0,0-.1.14c-1.22,1.44-.24,6.19,2.45,5.35Z" transform="translate(-0.04 -2.24)" style="fill:#f7ad89"/><g id="a021e14d-31df-4418-a606-35ca900d6e5f" data-name="Grupo 60"><path id="bfbc16c9-55ac-4cc2-ac04-4b6da3206acf" data-name="Trazado 74" d="M247.93,52.36a.2.2,0,0,1-.19-.18,3.36,3.36,0,0,0-1.67-2.2.22.22,0,0,1-.07-.3.21.21,0,0,1,.27-.09,3.77,3.77,0,0,1,1.9,2.52.23.23,0,0,1-.18.26h-.06Z" transform="translate(-0.04 -2.24)" style="fill:#fa8465"/></g><g id="bd823ba8-8dbb-46f0-8cfe-a724c61109d5" data-name="Grupo 62"><g id="b07011b9-8737-408b-a879-8bf3d50511fb" data-name="Grupo 61"><path id="be514a24-a0b8-4c13-9f33-18412151d7ed" data-name="Trazado 75" d="M246.53,51.48a.22.22,0,0,1-.2-.24.22.22,0,0,1,0-.11h0a2,2,0,0,1,.88-.57.22.22,0,1,1,.14.42,1.6,1.6,0,0,0-.68.42A.21.21,0,0,1,246.53,51.48Z" transform="translate(-0.04 -2.24)" style="fill:#fa8465"/></g></g></g></g></g></g></g></g></g><g id="f8ffdb8a-123f-4664-97ef-ba52edf9af27" data-name="Grupo 658"><g id="aa87ea60-43d4-4f66-aa37-2dfaad9bb06a" data-name="Trazado 1352"><path d="M231.18,79.2l1,.1-.54,5c-.22,2-1.26,2.49-2.55,2.35a3.12,3.12,0,0,1-1-.29l.23-.77a2.33,2.33,0,0,0,.79.23c.86.09,1.41-.24,1.57-1.7Z" transform="translate(-0.04 -2.24)" style="fill:#fff"/><path d="M231.18,79.2l1,.1-.54,5c-.2,1.78-1.06,2.37-2.16,2.37l-.39,0a3.28,3.28,0,0,1-1-.29l.22-.77a2.54,2.54,0,0,0,.8.23h.25c.72,0,1.18-.4,1.32-1.71Z" transform="translate(-0.04 -2.24)" style="fill:#fff"/></g><g id="f3eec638-516a-4915-b237-e3c88e795d64" data-name="Trazado 1353"><path d="M238,84.74a2.62,2.62,0,0,1-2.69,2.57,1.46,1.46,0,0,1-.29,0,2.56,2.56,0,0,1-2.3-2.79,2,2,0,0,1,0-.24,2.63,2.63,0,0,1,2.68-2.58l.28,0a2.56,2.56,0,0,1,2.32,2.77A2.51,2.51,0,0,1,238,84.74Zm-4.25-.41a1.82,1.82,0,0,0,1.34,2.22l.06,0c.93.1,1.72-.7,1.85-1.9.1-.91-.23-2.11-1.38-2.24s-1.76.88-1.87,1.9Z" transform="translate(-0.04 -2.24)" style="fill:#fff"/><path d="M235.38,87.31l-.32,0a2.55,2.55,0,0,1-2.26-3,2.62,2.62,0,0,1,2.63-2.57h.33a2.55,2.55,0,0,1,2.28,3A2.63,2.63,0,0,1,235.38,87.31Zm.09-4.89c-1,0-1.58,1-1.68,1.91a1.84,1.84,0,0,0,1.4,2.24h.16c.86,0,1.57-.78,1.69-1.92.1-.9-.23-2.1-1.38-2.23Z" transform="translate(-0.04 -2.24)" style="fill:#fff"/></g><g id="a6075ff3-2389-4fa0-a2b3-2d25043098e5" data-name="Trazado 1354"><path d="M239,86.59a2.58,2.58,0,0,0,1.24.52c.71.08,1.08-.24,1.13-.68s-.2-.75-.89-1.09c-.93-.45-1.32-1-1.25-1.68a1.67,1.67,0,0,1,1.89-1.39l.13,0a2.69,2.69,0,0,1,1.28.47l-.32.68A2.21,2.21,0,0,0,241.1,83a.8.8,0,0,0-1,.64c0,.44.26.67.92,1,.89.45,1.32,1,1.23,1.76-.1.94-.9,1.53-2.18,1.39a3.08,3.08,0,0,1-1.46-.53Z" transform="translate(-0.04 -2.24)" style="fill:#fff"/><path d="M240.45,87.85l-.36,0a3.09,3.09,0,0,1-1.47-.53l.33-.71a2.62,2.62,0,0,0,1.24.52h.21c.57,0,.87-.29.92-.69s-.2-.75-.89-1.09c-.93-.45-1.32-1-1.25-1.67a1.6,1.6,0,0,1,1.73-1.39l.29,0a2.7,2.7,0,0,1,1.28.47l-.32.68A2.25,2.25,0,0,0,241.1,83h-.16a.74.74,0,0,0-.82.64c-.05.44.25.67.92,1,.89.45,1.31,1,1.23,1.76A1.63,1.63,0,0,1,240.45,87.85Z" transform="translate(-0.04 -2.24)" style="fill:#fff"/></g><g id="e23956b9-35c5-456c-ad9b-98698ef1b15a" data-name="Trazado 1355"><path d="M244.17,85.63a1.72,1.72,0,0,0,1.36,2,1.24,1.24,0,0,0,.27,0,3.55,3.55,0,0,0,1.52-.11l.09.71a4.31,4.31,0,0,1-1.82.14,2.5,2.5,0,0,1-2.38-2.62,2.33,2.33,0,0,1,0-.37,2.62,2.62,0,0,1,2.61-2.62h.22a2.28,2.28,0,0,1,2,2.55,1.52,1.52,0,0,1,0,.21c0,.15-.05.3-.08.45Zm2.93-.38a1.4,1.4,0,0,0-1-1.7l-.17,0a1.61,1.61,0,0,0-1.66,1.42Zm.72-4.45-1.52,1.44-.7-.08,1.15-1.47Z" transform="translate(-0.04 -2.24)" style="fill:#fff"/><path d="M246.2,88.46l-.61,0a2.5,2.5,0,0,1-2.34-3,2.65,2.65,0,0,1,2.53-2.63l.3,0A2.27,2.27,0,0,1,248,85.59a3.51,3.51,0,0,1-.08.45l-3.76-.41a1.72,1.72,0,0,0,1.63,2.06l.53,0a3.41,3.41,0,0,0,1-.14l.09.71A3.86,3.86,0,0,1,246.2,88.46Zm-.44-4.95a1.66,1.66,0,0,0-1.5,1.43l2.84.31a1.39,1.39,0,0,0-1.18-1.73Zm.54-1.27-.7-.08,1.15-1.47,1.07.11Z" transform="translate(-0.04 -2.24)" style="fill:#fff"/></g><g id="ae2764c6-d91f-426c-8173-a115ee34d944" data-name="Trazado 1356"><path d="M252.08,81.57a11.69,11.69,0,0,1,1.87.06,3,3,0,0,1,2,.85,2,2,0,0,1,.48,1.63,2.17,2.17,0,0,1-.75,1.53,3.13,3.13,0,0,1-2.37.57,3.3,3.3,0,0,1-.76-.15l-.33,3-1-.1Zm.57,3.7a3.59,3.59,0,0,0,.79.17c1.16.12,1.93-.36,2-1.39s-.53-1.54-1.6-1.66a4.62,4.62,0,0,0-.91,0Z" transform="translate(-0.04 -2.24)" style="fill:#fff"/><path d="M252.65,81.55a10.84,10.84,0,0,1,1.3.08,3,3,0,0,1,2,.85,2,2,0,0,1,.48,1.63,2.21,2.21,0,0,1-.75,1.53,2.86,2.86,0,0,1-1.88.6l-.49,0a3.2,3.2,0,0,1-.76-.15l-.33,3-1-.1.8-7.37Zm1.14,3.91a1.51,1.51,0,0,0,1.69-1.41c.11-1-.53-1.54-1.6-1.66l-.62,0H253l-.32,2.9a3.48,3.48,0,0,0,.79.17Z" transform="translate(-0.04 -2.24)" style="fill:#fff"/></g><g id="a3b9a5e8-a240-4ac5-a54f-16d25ac0059a" data-name="Trazado 1357"><path d="M257.67,87.11a1.72,1.72,0,0,0,1.36,2l.28,0a3.52,3.52,0,0,0,1.51-.12l.09.72a4.3,4.3,0,0,1-1.82.13,2.49,2.49,0,0,1-2.38-2.61,2.21,2.21,0,0,1,0-.37,2.61,2.61,0,0,1,2.61-2.62h.22a2.29,2.29,0,0,1,2,2.56l0,.21a3.58,3.58,0,0,1-.09.45Zm2.93-.39a1.4,1.4,0,0,0-1-1.7l-.18,0a1.61,1.61,0,0,0-1.66,1.42Z" transform="translate(-0.04 -2.24)" style="fill:#fff"/><path d="M259.7,89.94a4.45,4.45,0,0,1-.61,0,2.5,2.5,0,0,1-2.34-3,2.65,2.65,0,0,1,2.53-2.63h.3a2.28,2.28,0,0,1,1.93,2.77,3.88,3.88,0,0,1-.08.45l-3.76-.41a1.73,1.73,0,0,0,1.63,2.06l.53,0a3.38,3.38,0,0,0,1-.15l.09.72A4.18,4.18,0,0,1,259.7,89.94Zm-.44-5a1.66,1.66,0,0,0-1.5,1.43l2.84.31A1.39,1.39,0,0,0,259.42,85Z" transform="translate(-0.04 -2.24)" style="fill:#fff"/></g><g id="b7333948-dcfa-49c7-b10b-ddd9fff727b7" data-name="Trazado 1358"><path d="M262.8,86.46c.07-.63.12-1.17.14-1.67l.85.09-.08,1.05h0a1.62,1.62,0,0,1,1.61-1,.89.89,0,0,1,.28.07l-.11.91a1.91,1.91,0,0,0-.33-.06,1.36,1.36,0,0,0-1.44,1.1,2.39,2.39,0,0,0-.09.45l-.32,2.86-1-.11Z" transform="translate(-0.04 -2.24)" style="fill:#fff"/><path d="M262.94,84.79l.85.1-.08,1h0a1.66,1.66,0,0,1,1.46-1h.16a1.07,1.07,0,0,1,.27.06l-.1.92a1.07,1.07,0,0,0-.33-.07h-.14a1.4,1.4,0,0,0-1.3,1.12,2.6,2.6,0,0,0-.1.44l-.31,2.86-1-.11.4-3.68C262.87,85.84,262.92,85.3,262.94,84.79Z" transform="translate(-0.04 -2.24)" style="fill:#fff"/></g><g id="f8c5a214-81c1-42ac-8e7e-0ff57d6cf74f" data-name="Trazado 1359"><path d="M266.72,88.09a1.73,1.73,0,0,0,1.36,2,1.33,1.33,0,0,0,.28,0,3.36,3.36,0,0,0,1.51-.11l.09.72a4.47,4.47,0,0,1-1.82.13,2.5,2.5,0,0,1-2.38-2.61,2.21,2.21,0,0,1,0-.37,2.63,2.63,0,0,1,2.61-2.63h.22a2.29,2.29,0,0,1,2,2.56c0,.07,0,.14,0,.21s-.05.3-.08.45Zm2.93-.38a1.4,1.4,0,0,0-1-1.7l-.17,0a1.63,1.63,0,0,0-1.67,1.42Z" transform="translate(-0.04 -2.24)" style="fill:#fff"/><path d="M268.75,90.93a4.55,4.55,0,0,1-.61,0,2.5,2.5,0,0,1-2.34-3,2.65,2.65,0,0,1,2.53-2.63h.3a2.28,2.28,0,0,1,1.94,2.77,2.51,2.51,0,0,1-.09.45l-3.76-.41a1.72,1.72,0,0,0,1.64,2.05,3.36,3.36,0,0,0,1.51-.11l.09.71A3.81,3.81,0,0,1,268.75,90.93Zm-.44-5a1.66,1.66,0,0,0-1.5,1.43l2.84.31A1.39,1.39,0,0,0,268.48,86Z" transform="translate(-0.04 -2.24)" style="fill:#fff"/></g><g id="acb45d1f-bb2e-4c64-a17e-b61599f56016" data-name="Trazado 1360"><path d="M270.9,90.51l2.77-2.88c.26-.27.51-.5.79-.76v0l-2.9-.32.09-.78,4.08.44-.08.61-2.73,2.85c-.25.27-.5.51-.78.77v0l3.14.34-.09.77-4.35-.47Z" transform="translate(-0.04 -2.24)" style="fill:#fff"/><path d="M275.19,91.55l-4.35-.47.06-.57,2.77-2.89.79-.75v0l-2.9-.32.09-.79,4.08.45-.08.61-2.73,2.85c-.25.27-.5.51-.77.76v0l3.14.35Z" transform="translate(-0.04 -2.24)" style="fill:#fff"/></g></g><g id="b9237556-69c1-4b7e-a0c0-3eb279d77142" data-name="Grupo 659"><path id="bf33d2e0-9e61-4c95-adb5-9f0cb358ef56" data-name="Trazado 1361" d="M231.32,89.73l.49,0-.37,3.35,1.61.18-.05.41-2.09-.23Z" transform="translate(-0.04 -2.24)" style="fill:#fff"/><path id="ec46bde2-9fad-4d77-9e51-921502392a4e" data-name="Trazado 1362" d="M234,89.82l.49.05-.43,4-.49-.06Z" transform="translate(-0.04 -2.24)" style="fill:#fff"/><path id="e8f34f30-30dd-4d63-9892-b726de5ce440" data-name="Trazado 1363" d="M236.34,94.08v-.34h0a1,1,0,0,1-.87.31.76.76,0,0,1-.74-.8v-.06c.08-.66.69-1,1.74-.83v0a.56.56,0,0,0-.41-.68l-.13,0a1.42,1.42,0,0,0-.73.13l-.07-.34a1.67,1.67,0,0,1,.91-.14,1,1,0,0,1,.94,1,2.23,2.23,0,0,1,0,.23l-.11,1a4.85,4.85,0,0,0,0,.66Zm.07-1.38c-.53-.07-1.15,0-1.21.48a.44.44,0,0,0,.35.51h.07a.69.69,0,0,0,.7-.38.42.42,0,0,0,0-.16Z" transform="translate(-0.04 -2.24)" style="fill:#fff"/><path id="bd844f6a-d929-4870-8c33-6bf567c7468d" data-name="Trazado 1364" d="M237.74,92.24c0-.28,0-.5.06-.73l.43,0,0,.44h0a.94.94,0,0,1,.9-.4.79.79,0,0,1,.7.62h0a1,1,0,0,1,.34-.31.88.88,0,0,1,.61-.13c.36,0,.86.33.76,1.26l-.17,1.59-.48-.05.16-1.53c.06-.52-.09-.85-.49-.89a.63.63,0,0,0-.63.38.73.73,0,0,0-.07.24l-.18,1.67-.48,0,.18-1.62c0-.43-.11-.76-.48-.8a.67.67,0,0,0-.67.42.86.86,0,0,0-.06.23L238,94.25l-.48,0Z" transform="translate(-0.04 -2.24)" style="fill:#fff"/><path id="fcdef1d2-a010-4be6-8c57-cd3a70f40d4f" data-name="Trazado 1365" d="M243.67,94.88v-.34h0a1,1,0,0,1-.87.31.76.76,0,0,1-.74-.8V94c.07-.66.69-.95,1.73-.83v0a.56.56,0,0,0-.41-.68.29.29,0,0,0-.13,0,1.32,1.32,0,0,0-.73.12l-.07-.34a1.67,1.67,0,0,1,.91-.14,1,1,0,0,1,.94,1,1.85,1.85,0,0,1,0,.23l-.1,1a3.5,3.5,0,0,0,0,.65Zm.07-1.38c-.53-.07-1.15,0-1.21.48a.44.44,0,0,0,.35.51H243a.69.69,0,0,0,.7-.38.75.75,0,0,0,0-.16Z" transform="translate(-0.04 -2.24)" style="fill:#fff"/><path id="b731b887-e13f-4186-b91d-f7c62cf39e05" data-name="Trazado 1366" d="M247.62,91.3l-.36,3.27c0,.24,0,.51,0,.7l-.44,0,0-.47h0a1,1,0,0,1-1,.42,1.24,1.24,0,0,1-1-1.42s0,0,0-.07a1.29,1.29,0,0,1,1.27-1.32h.09a.91.91,0,0,1,.77.5h0l.18-1.61Zm-.75,2.31a.74.74,0,0,0,0-.21.72.72,0,0,0-.64-.65c-.51,0-.86.36-.93,1s.16,1,.69,1.09a.75.75,0,0,0,.79-.51.78.78,0,0,0,0-.21Z" transform="translate(-0.04 -2.24)" style="fill:#fff"/><path id="a415869b-6b05-4b65-989e-a65da4dfd75b" data-name="Trazado 1367" d="M249.49,95.52v-.35h0a1,1,0,0,1-.87.32.77.77,0,0,1-.74-.81v-.06c.07-.65.69-.94,1.73-.82v-.06a.55.55,0,0,0-.41-.67.34.34,0,0,0-.14,0,1.38,1.38,0,0,0-.72.12l-.08-.33a1.71,1.71,0,0,1,.92-.14,1,1,0,0,1,.93,1,.85.85,0,0,1,0,.23l-.1,1a3.54,3.54,0,0,0,0,.65Zm.08-1.39c-.53-.07-1.15,0-1.21.48a.45.45,0,0,0,.35.52h.06a.66.66,0,0,0,.7-.38.38.38,0,0,0,.05-.15Z" transform="translate(-0.04 -2.24)" style="fill:#fff"/><path id="f8962751-4bbd-43a7-9ca2-efbadb84e888" data-name="Trazado 1368" d="M254,94.23l-1.46-.16-.15,1.35,1.63.18,0,.41-2.11-.23.41-3.76,2,.22,0,.41-1.55-.17-.13,1.19,1.46.16Z" transform="translate(-0.04 -2.24)" style="fill:#fff"/><path id="bef7fbfe-a959-4ee4-a2b5-65c9381f4a21" data-name="Trazado 1369" d="M254.82,94.11c0-.28.05-.51.06-.74l.43,0,0,.45h0a1,1,0,0,1,.95-.41c.37,0,.93.32.83,1.25l-.18,1.61-.49,0,.17-1.56c.05-.43-.07-.81-.53-.86a.7.7,0,0,0-.72.43.54.54,0,0,0-.05.22l-.18,1.62-.49-.05Z" transform="translate(-0.04 -2.24)" style="fill:#fff"/><path id="bd9dac9f-895f-4edb-8736-79534fa69998" data-name="Trazado 1370" d="M258.65,93l-.09.78.7.07,0,.38-.7-.08-.16,1.45c0,.34,0,.54.32.57a1.31,1.31,0,0,0,.28,0v.37a1.36,1.36,0,0,1-.45,0,.67.67,0,0,1-.5-.27,1,1,0,0,1-.12-.72L258,94.1l-.42,0,0-.37.42,0,.07-.64Z" transform="translate(-0.04 -2.24)" style="fill:#fff"/><path id="f4432b43-554a-4ae1-a478-dc82a636728a" data-name="Trazado 1371" d="M259.72,94.75c0-.31.06-.59.07-.84l.43,0,0,.53h0A.8.8,0,0,1,261,94a.32.32,0,0,1,.14,0l0,.46a.45.45,0,0,0-.16,0,.69.69,0,0,0-.73.55,1.89,1.89,0,0,0,0,.23L260,96.66l-.48,0Z" transform="translate(-0.04 -2.24)" style="fill:#fff"/><path id="a2e67239-070a-4699-a8eb-0350086bb516" data-name="Trazado 1372" d="M262.81,97v-.35h0a1,1,0,0,1-.87.32.77.77,0,0,1-.74-.8.13.13,0,0,1,0-.06c.07-.66.68-1,1.73-.83v-.06a.55.55,0,0,0-.41-.67l-.13,0a1.42,1.42,0,0,0-.73.13l-.07-.34a1.67,1.67,0,0,1,.91-.14,1,1,0,0,1,.94,1,.85.85,0,0,1,0,.23l-.11,1a3.58,3.58,0,0,0,0,.65Zm.07-1.38c-.53-.07-1.15,0-1.2.48a.43.43,0,0,0,.34.51h.07a.69.69,0,0,0,.7-.39.33.33,0,0,0,0-.15Z" transform="translate(-0.04 -2.24)" style="fill:#fff"/><path id="fd66b21f-0bb9-4296-9e0f-a8904b717bf2" data-name="Trazado 1373" d="M264.21,95.13c0-.28.05-.5.06-.73l.43,0,0,.45h0a1,1,0,0,1,.94-.41c.38,0,.93.33.83,1.25l-.18,1.61-.49,0,.17-1.56c0-.43-.07-.81-.53-.86a.7.7,0,0,0-.72.43.59.59,0,0,0-.05.22l-.18,1.62-.49,0Z" transform="translate(-0.04 -2.24)" style="fill:#fff"/><path id="eb5c9923-c6b0-4fb6-8722-6e337d6ac80a" data-name="Trazado 1374" d="M268,94l-.09.77.7.08,0,.37-.7-.08-.16,1.46c0,.33,0,.53.32.56a.71.71,0,0,0,.29,0l0,.37a1.1,1.1,0,0,1-.44,0,.67.67,0,0,1-.51-.26,1,1,0,0,1-.11-.72l.16-1.48-.42,0,0-.38.42,0,.07-.65Z" transform="translate(-0.04 -2.24)" style="fill:#fff"/><path id="bfe4b0e4-3eeb-414f-9d75-2e3170ff8185" data-name="Trazado 1375" d="M269.29,96.4a.87.87,0,0,0,.68,1l.14,0a1.62,1.62,0,0,0,.76-.06l.05.36a2.2,2.2,0,0,1-.92.07,1.27,1.27,0,0,1-1.2-1.32,1.13,1.13,0,0,1,0-.18A1.3,1.3,0,0,1,270.14,95h.11a1.15,1.15,0,0,1,1,1.29.36.36,0,0,1,0,.1.93.93,0,0,1,0,.23Zm1.47-.19a.71.71,0,0,0-.5-.86h-.09a.8.8,0,0,0-.84.71Z" transform="translate(-0.04 -2.24)" style="fill:#fff"/></g><g id="b86f9587-2dc9-48f7-817c-76f90ea1e79a" data-name="Grupo 660"><path id="ac3229c6-4645-40f2-a34f-893ee820310c" data-name="Trazado 1376" d="M288.43,14.05l-.29,3a.08.08,0,0,1-.08.08l-.32,0a.1.1,0,0,1-.07-.09l.29-3s.05-.08.09-.07l.32,0A.07.07,0,0,1,288.43,14.05Z" transform="translate(-0.04 -2.24)" style="fill:#fff"/><path id="edab21a6-c575-4f6f-ba57-d1d032328de4" data-name="Trazado 1377" d="M287.59,14.6,287.36,17a.08.08,0,0,1-.08.07L287,17a.08.08,0,0,1-.07-.08h0l.23-2.36a.08.08,0,0,1,.08-.07h0l.31,0s.08.05.07.09Z" transform="translate(-0.04 -2.24)" style="fill:#fff"/><path id="a7bb894f-6c78-4e69-8abc-89e7b903842d" data-name="Trazado 1378" d="M286.76,15l-.18,1.88a.08.08,0,0,1-.08.08h0l-.32,0a.07.07,0,0,1-.07-.08l.18-1.89a.09.09,0,0,1,.09-.07l.31,0A.07.07,0,0,1,286.76,15Z" transform="translate(-0.04 -2.24)" style="fill:#fff"/><path id="a4e95089-5aa3-44b1-b214-8a24a547187d" data-name="Trazado 1379" d="M285.94,15.39l-.14,1.42a.08.08,0,0,1-.09.07l-.31,0a.08.08,0,0,1-.07-.09l.13-1.42a.1.1,0,0,1,.09-.07h0l.32,0a.09.09,0,0,1,.07.09Z" transform="translate(-0.04 -2.24)" style="fill:#fff"/></g><g id="aa1f8814-6e44-4d91-821e-9743d94d2180" data-name="Grupo 669"><g id="b415885a-685a-4514-b0f6-acc4b436a5c3" data-name="Grupo 662"><g id="a748d6a5-fa77-4918-bcd6-78860843bc33" data-name="Grupo 661"><path id="a0faf9ce-9842-4364-8679-47eb5c5e49cd" data-name="Trazado 1380" d="M282.92,16.06a.32.32,0,1,0,.29.35A.32.32,0,0,0,282.92,16.06Z" transform="translate(-0.04 -2.24)" style="fill:#fff"/></g></g><g id="edf74e04-1b18-4301-a39d-4252a09dc516" data-name="Grupo 664"><g id="a8461919-a547-41c2-b02f-04676a3bc7c6" data-name="Grupo 663"><path id="fa09e07e-3962-40ad-8d3b-2c24f8770807" data-name="Trazado 1381" d="M283.75,15.71a1.1,1.1,0,0,0-1.56-.17.21.21,0,0,0,.27.33.69.69,0,0,1,1,.11.22.22,0,0,0,.14.08.18.18,0,0,0,.16,0,.21.21,0,0,0,0-.3Z" transform="translate(-0.04 -2.24)" style="fill:#fff"/></g></g><g id="bd5b785e-5b8c-49b6-9f67-68e91f7f77bc" data-name="Grupo 666"><g id="a1ccc185-139a-4be6-8e42-63a100780cbc" data-name="Grupo 665"><path id="ef96abe1-8231-4ada-b655-c6e24b262d19" data-name="Trazado 1382" d="M284.87,14.81a2.56,2.56,0,0,0-3.58-.39.22.22,0,0,0,0,.31.23.23,0,0,0,.29,0,2.11,2.11,0,0,1,3,.32.25.25,0,0,0,.14.08.22.22,0,0,0,.2-.35Z" transform="translate(-0.04 -2.24)" style="fill:#fff"/></g></g><g id="a198ad3b-75ec-4152-a69b-f381d1ee2a81" data-name="Grupo 668"><g id="fa5334c1-0e49-457f-ab62-72d9cb47782d" data-name="Grupo 667"><path id="bc982f4e-8936-4f61-bbb8-8092262e16cb" data-name="Trazado 1383" d="M284.3,15.27a1.82,1.82,0,0,0-2.55-.28.22.22,0,0,0,0,.31.25.25,0,0,0,.14.08.22.22,0,0,0,.16-.05,1.39,1.39,0,0,1,1.94.21.22.22,0,0,0,.31,0,.28.28,0,0,0,.08-.15A.22.22,0,0,0,284.3,15.27Z" transform="translate(-0.04 -2.24)" style="fill:#fff"/></g></g></g><g id="b63f661e-221a-42d0-9afe-509811926919" data-name="Grupo 670"><path id="e0c0d9e4-2d74-4805-80d2-519fc9cfb42b" data-name="Trazado 1384" d="M232.64,12a.86.86,0,0,1,.66-.77v0a.76.76,0,0,1-.44-.72.86.86,0,0,1,.95-.75h.05a.79.79,0,0,1,.83.74v.07a.76.76,0,0,1-.55.68h0a.85.85,0,0,1,.56.83.93.93,0,0,1-1,.82h-.06C233,12.89,232.6,12.48,232.64,12Zm.61-1.51c0,.31.2.49.54.61a.62.62,0,0,0,.51-.52.48.48,0,0,0-.42-.53h-.06a.49.49,0,0,0-.56.4.11.11,0,0,0,0,0Zm1,1.61c0-.37-.22-.57-.63-.72a.67.67,0,0,0-.59.59.56.56,0,0,0,.5.62h.07a.56.56,0,0,0,.64-.45.07.07,0,0,1,0,0Z" transform="translate(-0.04 -2.24)" style="fill:#fff"/><path id="b35bcab2-c14c-4bf5-964d-ce2565c8d921" data-name="Trazado 1385" d="M235.75,11.14a.29.29,0,0,1,.29-.28.27.27,0,0,1,.27.29v0a.28.28,0,1,1-.56,0Zm-.11,1.65a.28.28,0,0,1,.28-.28.29.29,0,0,1,.28.29v0a.27.27,0,0,1-.28.27.28.28,0,0,1-.28-.28Z" transform="translate(-0.04 -2.24)" style="fill:#fff"/><path id="b7942aeb-ec1c-4dbc-932e-6a02d7061680" data-name="Trazado 1386" d="M237.92,10.52h0l-.55.24-.06-.31.69-.31.36,0-.22,3-.4,0Z" transform="translate(-0.04 -2.24)" style="fill:#fff"/><path id="a51d0195-515d-4e7c-bd4f-81d49a46cefa" data-name="Trazado 1387" d="M241.06,10.7l-1.15-.08-.18.77H240a1.28,1.28,0,0,1,.65.21.89.89,0,0,1,.38.81,1.05,1.05,0,0,1-1.13,1h-.08a1.48,1.48,0,0,1-.75-.24l.13-.3a1.43,1.43,0,0,0,.64.21.67.67,0,0,0,.76-.57v0c0-.4-.22-.7-.83-.74h-.42l.3-1.45,1.45.11Z" transform="translate(-0.04 -2.24)" style="fill:#fff"/></g><g id="acd789d4-9096-48ae-979a-1aa3bc997d56" data-name="Grupo 672"><g id="bc6ee9fa-f4a1-440e-b576-58c528dbeeea" data-name="Grupo 671"><path id="aa023eb6-3a52-4db1-b686-714537c0b828" data-name="Trazado 1388" d="M279.92,14.86h-.1v-.09a.47.47,0,0,0-.41-.53h0l-3.17-.32a.47.47,0,0,0-.51.44l-.12,1.14A.46.46,0,0,0,276,16h0l3.17.32a.47.47,0,0,0,.51-.43v-.1h.1a.27.27,0,0,0,.3-.25l0-.39A.28.28,0,0,0,279.92,14.86Zm-2.46.86a.07.07,0,0,1-.08,0l-1.31-.13a.08.08,0,0,1-.08-.1h0l.12-1.15a.09.09,0,0,1,.11-.08h0l.74.07a.09.09,0,0,1,.08.06l.44,1.2a.1.1,0,0,1,0,.09Z" transform="translate(-0.04 -2.24)" style="fill:#fff"/></g></g></g><line id="bb5ce0f7-9be5-4281-9d81-4e05d5e47038" data-name="Línea 3" x1="320.06" y1="172" x2="214.03" y2="244.3" style="fill:none;stroke:#ffb74b;stroke-linecap:round;stroke-miterlimit:10;stroke-width:5px;stroke-dasharray:12"/><path id="e0b58be5-feea-4401-93c2-223a2c7b6042" data-name="Trazado 1480" d="M242.1,136.24,216.44,245.72" transform="translate(-0.04 -2.24)" style="fill:none;stroke:#ffb74b;stroke-linecap:round;stroke-width:5px;stroke-dasharray:12"/></svg>