<svg id="Grupo_673" data-name="Grupo 673" xmlns="http://www.w3.org/2000/svg" xmlns:xlink="http://www.w3.org/1999/xlink" width="416.353" height="300.068" viewBox="0 0 416.353 300.068">
  <defs>
    <clipPath id="clip-path">
      <circle id="SVGID" cx="19.254" cy="19.254" r="19.254" fill="none"/>
    </clipPath>
  </defs>
  <path id="Trazado_1341" data-name="Trazado 1341" d="M574.448,490.431a68.275,68.275,0,0,0-3.064-34.322c-8.946-25.386-31.246-43.388-56.735-45.849a66.2,66.2,0,0,0-49.26,15.154c-13.111-34.841-46.2-58.8-83.448-58.8h-.736c-45.951.388-85.776,38.985-88.472,86.129a93.519,93.519,0,0,0,3.8,32.508c-30.389,7.642-52.2,35.358-52.2,68.384,0,38.078,23.282,78.746,88.471,78.746H543.934c41.417,0,69.234-40.668,69.235-78.615C613.169,526.7,597.852,502.087,574.448,490.431Z" transform="translate(-237.444 -348.768)" fill="#97bff0"/>
  <g id="Grupo_30" data-name="Grupo 30" transform="translate(0 283.434)">
    <path id="Rectángulo_2" data-name="Rectángulo 2" d="M262.416,923.86H631.307a3.675,3.675,0,0,1,3.416,3.888h0v8.858a3.675,3.675,0,0,1-3.416,3.888H262.416A3.675,3.675,0,0,1,259,936.606h0v-8.856a3.676,3.676,0,0,1,3.417-3.889h0Z" transform="translate(-258.998 -923.86)" fill="#3700b1"/>
    <path id="Trazado_41" data-name="Trazado 41" d="M634.721,931.887v.382H259v-.382c0-4.433,3.121-8.027,6.971-8.028H627.745C631.6,923.859,634.72,927.453,634.721,931.887Z" transform="translate(-258.996 -923.86)" fill="#542bd8"/>
  </g>
  <g id="Grupo_29" data-name="Grupo 29" transform="translate(28.851 136.023)">
    <g id="Grupo_28" data-name="Grupo 28" transform="translate(0 0)">
      <rect id="Rectángulo_1" data-name="Rectángulo 1" width="206.785" height="24.895" rx="2.789" transform="translate(0 122.389)" fill="#001030"/>
      <path id="Trazado_38" data-name="Trazado 38" d="M806.953,896.624l38.867-132.532c2.184-7.443-3.978-14.748-12.439-14.748H747.855c-5.771,0-10.839,3.495-12.4,8.553l-42.8,138.727Z" transform="translate(-600.211 -749.34)" fill="#2e3062"/>
      <path id="Trazado_39" data-name="Trazado 39" d="M733.706,757.9,691.265,895.485H681.49L723.934,757.9c1.572-5.062,6.633-8.56,12.4-8.56h9.769C740.338,749.339,735.28,752.839,733.706,757.9Z" transform="translate(-598.469 -749.339)" fill="#001030"/>
      <path id="Trazado_40" data-name="Trazado 40" d="M769.329,839.177c-2.189,9.388,3.821,16.969,13.421,16.936s19.159-7.672,21.347-17.059-3.822-16.969-13.423-16.936S771.516,829.79,769.329,839.177Z" transform="translate(-612.102 -760.693)" fill="#524e82"/>
    </g>
  </g>
  <g id="Grupo_655" data-name="Grupo 655" transform="translate(324.07 32.035)">
    <g id="Grupo_654" data-name="Grupo 654" transform="translate(0 0)">
      <path id="Trazado_1350" data-name="Trazado 1350" d="M909.912,584.076l14.551,6.647c15.318,7,40.309-16.3,56.754-52.3s17.134-69.933,2.375-77.139l-14.552-6.648c-5.362-2.449-12.056.047-15.062,5.617l-9.8,21.445c-3.5,7.659,2.269,16.31,10.353,15.838,5.645-.2,11.072,4.132,11.271,9.777,1.579,12.756-8.076,32.877-18.194,39.827a11.345,11.345,0,0,1-14.769-2.118c-4.936-6.42-15.252-5.116-18.751,2.543l-9.8,21.445C901.846,574.374,904.342,581.069,909.912,584.076Z" transform="translate(-903.355 -453.699)" fill="#00bd00" stroke="#6168ff" stroke-miterlimit="10" stroke-width="3"/>
    </g>
  </g>
  <g id="Grupo_69" data-name="Grupo 69" transform="translate(241.409 0)">
    <rect id="Rectángulo_4" data-name="Rectángulo 4" width="128.706" height="67.425" rx="1.945" transform="translate(0 130.696) rotate(-83.771)" fill="#524e82"/>
    <g id="Grupo_35" data-name="Grupo 35" transform="translate(0.652)">
      <g id="Grupo_34" data-name="Grupo 34">
        <g id="Grupo_33" data-name="Grupo 33" transform="translate(31.365 4.713)">
          <path id="Trazado_45" data-name="Trazado 45" d="M822.558,424.731l-2.527,2.24a3.119,3.119,0,0,0-1.009,2,2.836,2.836,0,0,1-2.993,2.652l-21.5-2.347a2.836,2.836,0,0,1-2.352-3.235,3.123,3.123,0,0,0-.554-2.168l-1.984-2.731Z" transform="translate(-789.642 -421.139)" fill="#2e3062"/>
          <ellipse id="Elipse_2" data-name="Elipse 2" cx="1.231" cy="1.117" rx="1.231" ry="1.117" transform="translate(23.643 7.563) rotate(-83.771)" fill="#524e82"/>
          <path id="Rectángulo_3" data-name="Rectángulo 3" d="M797.493,425.512l16.043,1.752a.555.555,0,0,1,.459.633l-.142,1.3a.554.554,0,0,1-.585.518l-16.043-1.751a.554.554,0,0,1-.459-.633l.142-1.3A.555.555,0,0,1,797.493,425.512Z" transform="translate(-791.645 -422.368)" fill="#524e82"/>
        </g>
        <path id="Trazado_1351" data-name="Trazado 1351" d="M820.792,420.575,766.2,414.617c-3.433-.377-6.552,2.385-6.968,6.168h0v.007h0l-13.186,120.8c-.413,3.786,2.036,7.159,5.471,7.534h0l54.587,5.958c3.436.375,6.555-2.39,6.968-6.176l13.186-120.8C826.677,424.323,824.227,420.95,820.792,420.575ZM809.929,548.984a2.9,2.9,0,0,1-3.054,2.722h0l-55.353-6.042a2.9,2.9,0,0,1-2.414-3.313l13.278-121.638a3.121,3.121,0,0,1,.091-.491,3.014,3.014,0,0,1,1.875-2.1,2.51,2.51,0,0,1,.573-.128,2.624,2.624,0,0,1,.532,0l55.339,6.04a2.91,2.91,0,0,1,2.411,3.318Z" transform="translate(-746.004 -414.582)" fill="#2e3062"/>
      </g>
    </g>
    <g id="Grupo_68" data-name="Grupo 68" transform="translate(20.106 104.194)">
      <circle id="Elipse_4" data-name="Elipse 4" cx="6.045" cy="6.045" r="6.045" fill="#f43853"/>
      <path id="Trazado_78" data-name="Trazado 78" d="M780.18,567.22s-1.063-.176-1.226.077c-.243.376-.114,1.281-1.382,1.067s-.727-1.242-.549-1.535.493-.832,3.257-.53,2.954.893,3.065,1.22.418,1.445-.866,1.38-.964-.92-1.119-1.34C781.256,567.278,780.18,567.22,780.18,567.22Z" transform="translate(-774.107 -561.422)" fill="#fff"/>
      <circle id="Elipse_4-2" data-name="Elipse 4" cx="6.045" cy="6.045" r="6.045" transform="translate(20.338 2.22)" fill="#00bd00"/>
      <path id="Trazado_78-2" data-name="Trazado 78" d="M808.7,569.963s.574.912.871.866c.442-.068,1.034-.764,1.715.327s-.446,1.368-.785,1.428-.95.183-2.558-2.085-1.292-2.8-1.121-3.1.8-1.271,1.608-.268-.05,1.332-.26,1.726C808.034,569.12,808.7,569.963,808.7,569.963Z" transform="translate(-782.524 -561.555)" fill="#fff"/>
    </g>
    <g id="Grupo_657" data-name="Grupo 657" transform="translate(25.185 27.929)">
      <g id="Grupo_656" data-name="Grupo 656" clip-path="url(#clip-path)">
        <rect id="Rectángulo_104" data-name="Rectángulo 104" width="47.311" height="49.686" transform="translate(-1.991 -3.754) rotate(6.229)" fill="#fff"/>
        <g id="Grupo_66" data-name="Grupo 66" transform="translate(-0.504 2.752)">
          <g id="Grupo_65" data-name="Grupo 65">
            <g id="Grupo_54" data-name="Grupo 54" transform="translate(0 26.116)">
              <g id="Grupo_51" data-name="Grupo 51">
                <g id="Grupo_50" data-name="Grupo 50">
                  <g id="Grupo_49" data-name="Grupo 49">
                    <path id="Trazado_54" data-name="Trazado 54" d="M811.537,506.434l-.989,9.058A1.4,1.4,0,0,1,809,516.741h0l-28.308-3.09a1.408,1.408,0,0,1-1.25-1.551h0l.989-9.061c.489-4.478,2.562-5.814,2.562-5.814a26.987,26.987,0,0,1,6.078-2.343c.037-.014,5.7-1.258,5.739-1.278l5.667,1.025c.643.477,4.318,2.032,6.464,3.388.324.206.515.326.7.456a8.619,8.619,0,0,1,2.97,3.109A12.6,12.6,0,0,1,811.537,506.434Z" transform="translate(-779.436 -493.604)" fill="#ff495a"/>
                  </g>
                </g>
              </g>
              <g id="Grupo_52" data-name="Grupo 52" transform="translate(3.764 13.608)">
                <path id="Trazado_55" data-name="Trazado 55" d="M786.9,512.908l-1.665,6.4-.564-.062,1.685-6.482a.281.281,0,1,1,.553.1C786.908,512.882,786.9,512.895,786.9,512.908Z" transform="translate(-784.672 -512.536)" fill="#e21c47"/>
              </g>
              <g id="Grupo_53" data-name="Grupo 53" transform="translate(27.135 17.536)">
                <path id="Trazado_56" data-name="Trazado 56" d="M817.845,523.409l-.563-.061-.093-5.073a.281.281,0,0,1,.562-.009Z" transform="translate(-817.189 -518.002)" fill="#e21c47"/>
              </g>
              <path id="Trazado_57" data-name="Trazado 57" d="M808.125,509.423l6,.655s-.416,5.319-3.547,4.977C807.344,514.7,808.125,509.423,808.125,509.423Z" transform="translate(-787.481 -498.053)" fill="#e21c47"/>
            </g>
            <g id="Grupo_64" data-name="Grupo 64" transform="translate(9.751)">
              <path id="Trazado_58" data-name="Trazado 58" d="M810.961,469.029s3.315-.766,3.267-3.285c-.04-2.143-2.536-1.029-2.149-2.659s1.008-3.082-.965-3.714c-1.726-.555-1.9.724-4.012-1.389-2.5-2.495-5.16,2.36-7.622,2.245-3.631-.168-4.322,1.941-4.865,3.63s.98,3.907.98,3.907Z" transform="translate(-793.423 -457.269)" fill="#2e3062"/>
              <g id="Grupo_57" data-name="Grupo 57" transform="translate(15.603 14.585)">
                <path id="Trazado_59" data-name="Trazado 59" d="M815.714,478.307s1.535-1.641,2.37-.054-1.05,5.8-3.374,4.465Z" transform="translate(-814.711 -477.562)" fill="#fa8465"/>
                <g id="Grupo_55" data-name="Grupo 55" transform="translate(0.495 1.624)">
                  <path id="Trazado_60" data-name="Trazado 60" d="M815.585,482.063a.206.206,0,0,0,.214-.129,3.2,3.2,0,0,1,2-1.7.208.208,0,0,0-.1-.4h0a3.576,3.576,0,0,0-2.276,1.951.207.207,0,0,0,.116.27h0A.2.2,0,0,0,815.585,482.063Z" transform="translate(-815.399 -479.822)" fill="#fa664d"/>
                </g>
                <g id="Grupo_56" data-name="Grupo 56" transform="translate(1.353 2.305)">
                  <path id="Trazado_61" data-name="Trazado 61" d="M817.4,481.8a.208.208,0,0,0,.208-.3h0a1.888,1.888,0,0,0-.706-.708.207.207,0,0,0-.21.358h0a1.5,1.5,0,0,1,.544.535A.21.21,0,0,0,817.4,481.8Z" transform="translate(-816.593 -480.768)" fill="#fa664d"/>
                </g>
              </g>
              <path id="Trazado_62" data-name="Trazado 62" d="M800.481,488.415l-.474,4.341s1.053,2.352,2.788,2.693,3.511-1.543,3.511-1.543l.491-4.493Z" transform="translate(-794.972 -466.029)" fill="#f7ad89"/>
              <path id="Trazado_63" data-name="Trazado 63" d="M800.585,488.415l-.21,1.926c1.032,1.432,3.083,1.985,6.219,1.866l.3-2.794Z" transform="translate(-795.076 -466.029)" fill="#fa8465"/>
              <path id="Trazado_64" data-name="Trazado 64" d="M811.332,473.719c-.062.436-.136.891-.224,1.356-.031.171-.065.345-.1.518-.144.706-.32,1.432-.533,2.15l0,.01c0,.011-.008.029-.015.054l-.045.147c-.032.1-.063.2-.1.305-.05.157-.1.32-.162.484-.977,2.753-2.577,5.215-5.2,5.838-6.224,1.483-8.1-3.448-8.774-6.787-.048-.227-.088-.448-.123-.659-.06-.358-.107-.756-.141-1.177v0a.125.125,0,0,1,0-.017v0c-.074-.919-.088-1.953-.07-2.978.015-.892.057-1.775.1-2.566a4.536,4.536,0,0,1,.307-1.388c.041-.1.086-.209.136-.31.027-.052.051-.1.078-.152.053-.1.11-.2.169-.292s.124-.188.19-.279.138-.178.211-.262h0a4.669,4.669,0,0,1,.35-.364,4.6,4.6,0,0,1,.968-.689c.1-.053.2-.1.31-.149a4.672,4.672,0,0,1,.661-.229c2.733-.722,6.8-1.085,10.345,1.468a4.552,4.552,0,0,1,1.645,2.21c.033.092.06.185.088.28.016.06.031.119.044.179.028.121.051.242.069.365a3.3,3.3,0,0,1,.038.346,4.515,4.515,0,0,1-.007.725C811.5,472.407,811.43,473.039,811.332,473.719Z" transform="translate(-793.799 -459.653)" fill="#f7ad89"/>
              <g id="Grupo_58" data-name="Grupo 58" transform="translate(7.712 22.713)">
                <path id="Trazado_65" data-name="Trazado 65" d="M804.731,489.658a2.106,2.106,0,0,1-.934-.425.211.211,0,0,1,.269-.323h0a1.692,1.692,0,0,0,.725.332,1.779,1.779,0,0,0,.831-.111.211.211,0,0,1,.165.388A2.212,2.212,0,0,1,804.731,489.658Z" transform="translate(-803.731 -488.87)" fill="#fa8465"/>
              </g>
              <path id="Trazado_66" data-name="Trazado 66" d="M801.7,476.948c-.05.463.147.865.441.9s.574-.318.625-.781-.148-.865-.441-.9S801.749,476.485,801.7,476.948Z" transform="translate(-795.446 -462.583)" fill="#2e3062"/>
              <path id="Trazado_67" data-name="Trazado 67" d="M810.712,477.932c-.051.464.147.865.441.9s.574-.318.625-.781-.147-.865-.441-.9S810.762,477.468,810.712,477.932Z" transform="translate(-797.98 -462.86)" fill="#2e3062"/>
              <path id="Trazado_68" data-name="Trazado 68" d="M799.729,472.981a5.962,5.962,0,0,1,3.915.288l-.272.925a10.965,10.965,0,0,0-3.778-.111A1.65,1.65,0,0,1,799.729,472.981Z" transform="translate(-794.845 -461.629)" fill="#2e3062"/>
              <path id="Trazado_69" data-name="Trazado 69" d="M812.844,474.379a6.007,6.007,0,0,0-3.914-.568l.068.97a11.024,11.024,0,0,1,3.74.712A1.657,1.657,0,0,0,812.844,474.379Z" transform="translate(-797.482 -461.878)" fill="#2e3062"/>
              <g id="Grupo_59" data-name="Grupo 59" transform="translate(8.407 14.495)">
                <path id="Trazado_70" data-name="Trazado 70" d="M805.531,481.426a2.211,2.211,0,0,1-.729-.239.208.208,0,0,1,.2-.365,1.243,1.243,0,0,0,.819.168.226.226,0,0,0,.123-.181,31.124,31.124,0,0,0,.219-3.171.207.207,0,0,1,.415.011,30.8,30.8,0,0,1-.229,3.247.633.633,0,0,1-.354.471A.876.876,0,0,1,805.531,481.426Z" transform="translate(-804.699 -477.436)" fill="#fa8465"/>
              </g>
              <path id="Trazado_71" data-name="Trazado 71" d="M807.327,485.358a2.482,2.482,0,0,1-2.674,1.972,2.388,2.388,0,0,1-2.175-2.5Z" transform="translate(-795.667 -465.02)" fill="#fff9ff"/>
              <path id="Trazado_72" data-name="Trazado 72" d="M811.334,473.719c-.062.436-.136.891-.224,1.356-.031.171-.065.345-.1.518-.143.707-.32,1.432-.533,2.15l-.861-.275a13.982,13.982,0,0,0,.84-3.628c-.091-1.018-.852-1.694-.471-2.624a2.035,2.035,0,0,0-1.252-2.327c-.727-.255-2.672.617-4.185-.556a5.156,5.156,0,0,0-5.187-.467c-1.193.737-.573,2.5-1.386,2.626s-.456,2.021-.455,2.961c0,.908.07,2.13.074,2.206l-1.037-.089-.2-1.956c-.336-.193-.339-.5-.51-.655.014-.892.057-1.775.1-2.566a4.535,4.535,0,0,1,.307-1.388c.041-.1.086-.209.136-.31l.077-.152c.054-.1.11-.2.17-.292s.124-.188.19-.279.137-.177.211-.262h0a4.529,4.529,0,0,1,1.317-1.052c.1-.052.2-.1.31-.15a4.67,4.67,0,0,1,.661-.229c2.733-.722,6.8-1.085,10.346,1.468a4.551,4.551,0,0,1,1.647,2.21c.032.093.06.187.088.279.016.06.031.119.044.179.029.12.051.242.069.365a3.37,3.37,0,0,1,.038.346,4.479,4.479,0,0,1-.005.727C811.5,472.408,811.432,473.041,811.334,473.719Z" transform="translate(-793.802 -459.653)" fill="#2e3062"/>
              <g id="Grupo_63" data-name="Grupo 63" transform="translate(0 12.768)">
                <path id="Trazado_73" data-name="Trazado 73" d="M795.8,476.746a1.8,1.8,0,0,0-.722-1.453,1.057,1.057,0,0,0-1.586.231c-1.157,1.368-.225,5.887,2.331,5.088Z" transform="translate(-793.002 -475.033)" fill="#f7ad89"/>
                <g id="Grupo_60" data-name="Grupo 60" transform="translate(0.56 1.513)">
                  <path id="Trazado_74" data-name="Trazado 74" d="M795.658,479.8a.207.207,0,0,1-.182-.172,3.207,3.207,0,0,0-1.581-2.094.208.208,0,0,1,.188-.37,3.574,3.574,0,0,1,1.8,2.4.207.207,0,0,1-.171.239A.21.21,0,0,1,795.658,479.8Z" transform="translate(-793.781 -477.138)" fill="#fa8465"/>
                </g>
                <g id="Grupo_62" data-name="Grupo 62" transform="translate(0.917 2.452)">
                  <g id="Grupo_61" data-name="Grupo 61">
                    <path id="Trazado_75" data-name="Trazado 75" d="M794.463,479.332a.208.208,0,0,1-.139-.336h0a1.894,1.894,0,0,1,.842-.54.207.207,0,1,1,.127.395,1.5,1.5,0,0,0-.647.406A.208.208,0,0,1,794.463,479.332Z" transform="translate(-794.278 -478.445)" fill="#fa8465"/>
                  </g>
                </g>
              </g>
            </g>
          </g>
        </g>
      </g>
    </g>
    <g id="Grupo_658" data-name="Grupo 658" transform="translate(17.976 73.122)">
      <g id="Trazado_1352" data-name="Trazado 1352" transform="translate(-770.107 -516.317)" fill="#fff" stroke-miterlimit="10">
        <path d="M773.082,516.317l.915.1-.517,4.741c-.206,1.882-1.194,2.36-2.414,2.226a2.965,2.965,0,0,1-.959-.275l.218-.732a2.193,2.193,0,0,0,.753.221c.82.09,1.344-.226,1.495-1.614Z" stroke="none"/>
        <path d="M 773.0818481445312 516.3170166015625 L 773.9968872070312 516.416748046875 L 773.4794921875 521.15771484375 C 773.2948608398438 522.846923828125 772.4798583984375 523.4046630859375 771.4330444335938 523.4046630859375 C 771.3133544921875 523.4046630859375 771.1907958984375 523.3973999023438 771.065673828125 523.3836669921875 C 770.7294311523438 523.3471069335938 770.3275146484375 523.2291870117188 770.10693359375 523.109130859375 L 770.3247680664062 522.3775024414062 C 770.5059204101562 522.4716186523438 770.7725219726562 522.5650634765625 771.0772705078125 522.59814453125 C 771.1610107421875 522.6072998046875 771.2417602539062 522.6122436523438 771.3192749023438 522.6122436523438 C 772.0006103515625 522.6122436523438 772.436767578125 522.2306518554688 772.572265625 520.9844360351562 L 773.0818481445312 516.3170166015625 Z" stroke="none" fill="#fff"/>
      </g>
      <g id="Trazado_1353" data-name="Trazado 1353" transform="translate(-771.865 -517.241)" fill="#fff" stroke-miterlimit="10">
        <path d="M781.362,522.506a2.5,2.5,0,0,1-2.828,2.425,2.433,2.433,0,0,1-2.153-2.884,2.5,2.5,0,0,1,2.818-2.427A2.424,2.424,0,0,1,781.362,522.506Zm-4.042-.388a1.743,1.743,0,0,0,1.332,2.125c.883.1,1.636-.662,1.761-1.808.094-.862-.218-2-1.31-2.122S777.425,521.151,777.319,522.118Z" stroke="none"/>
        <path d="M 778.8352661132812 524.94775390625 C 778.7339477539062 524.94775390625 778.6329956054688 524.9421997070312 778.5330810546875 524.9312744140625 C 777.1560668945312 524.7811279296875 776.2044067382812 523.65625 776.3798828125 522.0477294921875 C 776.552001953125 520.4729614257812 777.6114501953125 519.6038818359375 778.8839111328125 519.6038818359375 C 778.9873657226562 519.6038818359375 779.0921020507812 519.609619140625 779.197998046875 519.6211547851562 C 780.6592407226562 519.7807006835938 781.5318603515625 520.9508666992188 781.3615112304688 522.5062255859375 C 781.1732788085938 524.235107421875 779.9820556640625 524.94775390625 778.8352661132812 524.94775390625 Z M 778.919677734375 520.3025512695312 C 777.9429321289062 520.3025512695312 777.4188232421875 521.20654296875 777.3192749023438 522.1180419921875 C 777.1976928710938 523.23291015625 777.7468872070312 524.1434936523438 778.6510620117188 524.24267578125 C 778.70166015625 524.2481689453125 778.7518310546875 524.2509155273438 778.8014526367188 524.2509155273438 C 779.61865234375 524.2509765625 780.2941284179688 523.5151977539062 780.4119262695312 522.4343872070312 C 780.5061645507812 521.5724487304688 780.1942138671875 520.431884765625 779.101806640625 520.3126831054688 C 779.0394287109375 520.3058471679688 778.978759765625 520.3025512695312 778.919677734375 520.3025512695312 Z" stroke="none" fill="#fff"/>
      </g>
      <g id="Trazado_1354" data-name="Trazado 1354" transform="translate(-774.04 -517.463)" fill="#fff" stroke-miterlimit="10">
        <path d="M784.4,524.481a2.436,2.436,0,0,0,1.179.5c.673.074,1.026-.229,1.072-.649.048-.441-.188-.712-.845-1.039-.879-.425-1.255-.978-1.188-1.587a1.579,1.579,0,0,1,1.918-1.3,2.562,2.562,0,0,1,1.217.452l-.3.648a1.992,1.992,0,0,0-1.009-.408c-.547-.06-.886.223-.928.6-.045.421.239.643.873.968.847.433,1.25.924,1.167,1.68-.1.894-.859,1.448-2.068,1.317a2.922,2.922,0,0,1-1.392-.5Z" stroke="none"/>
        <path d="M 785.8265380859375 525.682861328125 C 785.716552734375 525.682861328125 785.60205078125 525.6765747070312 785.4832763671875 525.6636352539062 C 784.9254150390625 525.6025390625 784.4259033203125 525.409912109375 784.0909423828125 525.1605224609375 L 784.3992919921875 524.481201171875 C 784.6529541015625 524.6896362304688 785.1158447265625 524.9320068359375 785.578125 524.9822387695312 C 785.6466674804688 524.98974609375 785.7119140625 524.993408203125 785.7738037109375 524.993408203125 C 786.3201293945312 524.993408203125 786.6083374023438 524.7108764648438 786.6497802734375 524.3331909179688 C 786.6978759765625 523.8919067382812 786.46142578125 523.62158203125 785.80517578125 523.294677734375 C 784.9261474609375 522.8692016601562 784.55029296875 522.317138671875 784.6170654296875 521.7077026367188 C 784.6985473632812 520.9575805664062 785.3214111328125 520.3908081054688 786.2636108398438 520.3908081054688 C 786.3515625 520.3908081054688 786.442138671875 520.395751953125 786.5355224609375 520.4059448242188 C 787.05078125 520.4627075195312 787.486328125 520.6589965820312 787.752197265625 520.858154296875 L 787.447509765625 521.5056762695312 C 787.2613525390625 521.3575439453125 786.911376953125 521.1491088867188 786.43896484375 521.0975952148438 C 786.3895874023438 521.0921630859375 786.341796875 521.0895385742188 786.2958374023438 521.0895385742188 C 785.8331298828125 521.0895385742188 785.5490112304688 521.3543701171875 785.5113525390625 521.6982421875 C 785.4659423828125 522.1194458007812 785.75 522.3414916992188 786.384521484375 522.66650390625 C 787.2313232421875 523.09912109375 787.6343994140625 523.5900268554688 787.5516357421875 524.3468017578125 C 787.4642333984375 525.1525268554688 786.8355712890625 525.682861328125 785.8265380859375 525.682861328125 Z" stroke="none" fill="#fff"/>
      </g>
      <g id="Trazado_1355" data-name="Trazado 1355" transform="translate(-775.751 -516.87)" fill="#fff" stroke-miterlimit="10">
        <path d="M791.071,522.984a1.64,1.64,0,0,0,1.553,1.956,3.359,3.359,0,0,0,1.437-.109l.086.679a4.136,4.136,0,0,1-1.727.131A2.377,2.377,0,0,1,790.2,522.8a2.484,2.484,0,0,1,2.686-2.483,2.168,2.168,0,0,1,1.841,2.626,3.592,3.592,0,0,1-.078.427Zm2.784-.367a1.325,1.325,0,0,0-1.118-1.643,1.542,1.542,0,0,0-1.583,1.348Zm.684-4.223-1.446,1.364-.663-.073,1.089-1.4Z" stroke="none"/>
        <path d="M 793.0009155273438 525.6734619140625 C 792.8228759765625 525.6734619140625 792.6292114257812 525.6636962890625 792.4197998046875 525.6408081054688 C 790.8529663085938 525.4697265625 790.0300903320312 524.3377075195312 790.1975708007812 522.8024291992188 C 790.3540649414062 521.3679809570312 791.269287109375 520.3040771484375 792.59912109375 520.3040771484375 C 792.6919555664062 520.3040771484375 792.7866821289062 520.3092041015625 792.8834228515625 520.31982421875 C 794.54443359375 520.5010375976562 794.8262329101562 522.0103759765625 794.7242431640625 522.9461669921875 C 794.7031860351562 523.1351928710938 794.6666259765625 523.2797241210938 794.6458129882812 523.3731079101562 L 791.0714111328125 522.9835815429688 C 790.9556884765625 524.2362060546875 791.6982421875 524.838623046875 792.6239624023438 524.93994140625 C 792.8087158203125 524.9602661132812 792.9740600585938 524.9691772460938 793.124267578125 524.9691772460938 C 793.5120849609375 524.9691772460938 793.799072265625 524.9094848632812 794.0607299804688 524.830810546875 L 794.1463623046875 525.5100708007812 C 793.8926391601562 525.5930786132812 793.5110473632812 525.6734619140625 793.0009155273438 525.6734619140625 Z M 792.580322265625 520.9651489257812 C 791.7448120117188 520.9651489257812 791.2896728515625 521.7254028320312 791.1541137695312 522.3223266601562 L 793.8558959960938 522.6168823242188 C 793.9306640625 522.0297241210938 793.7781982421875 521.0875244140625 792.7374267578125 520.973876953125 C 792.6836547851562 520.968017578125 792.6312255859375 520.9651489257812 792.580322265625 520.9651489257812 Z M 793.0940551757812 519.7578735351562 L 792.4314575195312 519.6852416992188 L 793.520263671875 518.2828979492188 L 794.5401000976562 518.3943481445312 L 793.0940551757812 519.7578735351562 Z" stroke="none" fill="#fff"/>
      </g>
      <g id="Trazado_1356" data-name="Trazado 1356" transform="translate(-778.745 -517.193)" fill="#fff" stroke-miterlimit="10">
        <path d="M801.583,519.446a10.667,10.667,0,0,1,1.77.055,2.923,2.923,0,0,1,1.923.806,1.914,1.914,0,0,1,.458,1.55,2.1,2.1,0,0,1-.712,1.454,2.954,2.954,0,0,1-2.25.542,3.188,3.188,0,0,1-.729-.144l-.31,2.838-.914-.1Zm.541,3.517a3.106,3.106,0,0,0,.75.156c1.1.121,1.835-.342,1.941-1.32.1-.936-.511-1.46-1.52-1.57a3.828,3.828,0,0,0-.87-.02Z" stroke="none"/>
        <path d="M 802.1199951171875 519.4313354492188 C 802.4717407226562 519.4313354492188 802.8812255859375 519.4498291015625 803.353271484375 519.50146484375 C 804.2574462890625 519.5999145507812 804.8971557617188 519.8824462890625 805.27587890625 520.3072509765625 C 805.6280517578125 520.6852416992188 805.8034057617188 521.2265014648438 805.7343139648438 521.8568725585938 C 805.6647338867188 522.4978637695312 805.4202880859375 522.9816284179688 805.0221557617188 523.310791015625 C 804.5783081054688 523.6912841796875 803.9458618164062 523.87841796875 803.2372436523438 523.87841796875 C 803.085205078125 523.87841796875 802.9297485351562 523.8698120117188 802.771728515625 523.8526611328125 C 802.4985961914062 523.8225708007812 802.247802734375 523.7844848632812 802.0429077148438 523.7090454101562 L 801.7332763671875 526.5473022460938 L 800.8189086914062 526.4473266601562 L 801.5829467773438 519.4461669921875 C 801.744384765625 519.4371337890625 801.9231567382812 519.4313354492188 802.1199951171875 519.4313354492188 Z M 803.2058715820312 523.1376953125 C 804.1226196289062 523.1376953125 804.7197875976562 522.675048828125 804.8151245117188 521.7992553710938 C 804.9171752929688 520.8635864257812 804.3041381835938 520.3388671875 803.294921875 520.2288818359375 C 803.0636596679688 520.2034912109375 802.86279296875 520.1923217773438 802.7031860351562 520.1923217773438 C 802.5875244140625 520.1923217773438 802.4935302734375 520.1981811523438 802.4252319335938 520.2086791992188 L 802.1241455078125 522.9630126953125 C 802.3189697265625 523.0370483398438 802.568359375 523.0857543945312 802.8737182617188 523.118896484375 C 802.988525390625 523.1314697265625 803.099365234375 523.1376953125 803.2058715820312 523.1376953125 Z" stroke="none" fill="#fff"/>
      </g>
      <g id="Trazado_1357" data-name="Trazado 1357" transform="translate(-780.771 -518.209)" fill="#fff" stroke-miterlimit="10">
        <path d="M808.919,525.722a1.64,1.64,0,0,0,1.553,1.957,3.362,3.362,0,0,0,1.438-.109l.085.68a4.15,4.15,0,0,1-1.727.13,2.377,2.377,0,0,1-2.222-2.838,2.485,2.485,0,0,1,2.686-2.483,2.168,2.168,0,0,1,1.841,2.626,3.393,3.393,0,0,1-.078.427Zm2.784-.366a1.325,1.325,0,0,0-1.118-1.643A1.542,1.542,0,0,0,809,525.061Z" stroke="none"/>
        <path d="M 810.8487548828125 528.4124145507812 C 810.6704711914062 528.4124145507812 810.4766235351562 528.402587890625 810.2670288085938 528.3796997070312 C 808.7001342773438 528.2086181640625 807.8771362304688 527.0765991210938 808.0445556640625 525.5421142578125 C 808.2012329101562 524.1066284179688 809.1175537109375 523.0431518554688 810.4473876953125 523.0431518554688 C 810.5398559570312 523.0431518554688 810.63427734375 523.0482788085938 810.7305908203125 523.0587768554688 C 812.3917236328125 523.2399291992188 812.6741333007812 524.7493286132812 812.5712890625 525.6851196289062 C 812.5512084960938 525.874267578125 812.5137939453125 526.0186157226562 812.492919921875 526.1121215820312 L 808.9185791015625 525.7223510742188 C 808.802978515625 526.9752197265625 809.5462036132812 527.5782470703125 810.4711303710938 527.678955078125 C 810.6558227539062 527.69921875 810.8212280273438 527.7081298828125 810.971435546875 527.7081298828125 C 811.3594970703125 527.7081298828125 811.64697265625 527.6484985351562 811.9086303710938 527.5697021484375 L 811.9940795898438 528.2496337890625 C 811.74072265625 528.3321533203125 811.3588256835938 528.4124145507812 810.8487548828125 528.4124145507812 Z M 810.4273681640625 523.7041625976562 C 809.5919799804688 523.7041625976562 809.1365966796875 524.4644775390625 809.0011596679688 525.0613403320312 L 811.7030639648438 525.3560180664062 C 811.77783203125 524.7687377929688 811.6254272460938 523.8263549804688 810.5845947265625 523.712890625 C 810.53076171875 523.70703125 810.4783325195312 523.7041625976562 810.4273681640625 523.7041625976562 Z" stroke="none" fill="#fff"/>
      </g>
      <g id="Trazado_1358" data-name="Trazado 1358" transform="translate(-782.879 -518.397)" fill="#fff" stroke-miterlimit="10">
        <path d="M815.9,525.3c.065-.6.111-1.116.131-1.592l.81.088-.078,1,.042,0a1.537,1.537,0,0,1,1.531-.96,1.023,1.023,0,0,1,.259.06l-.1.872a1.413,1.413,0,0,0-.312-.065,1.305,1.305,0,0,0-1.37,1.052,2.6,2.6,0,0,0-.09.426l-.3,2.713-.915-.1Z" stroke="none"/>
        <path d="M 816.0330810546875 523.7130126953125 L 816.8431396484375 523.8014526367188 L 816.7655029296875 524.80322265625 L 816.8070678710938 524.8076171875 C 817.0894165039062 524.20068359375 817.6251831054688 523.83935546875 818.1931762695312 523.83935546875 C 818.2413330078125 523.83935546875 818.2896728515625 523.8419799804688 818.338134765625 523.8472290039062 C 818.443115234375 523.85888671875 818.515625 523.8776245117188 818.5975952148438 523.90771484375 L 818.5018920898438 524.7796630859375 C 818.4093017578125 524.7485961914062 818.3158569335938 524.727783203125 818.1900634765625 524.7141723632812 C 818.1441040039062 524.7091674804688 818.0987548828125 524.7066650390625 818.05419921875 524.7066650390625 C 817.466796875 524.7066650390625 817.0077514648438 525.1343383789062 816.8200073242188 525.7664184570312 C 816.784912109375 525.8900146484375 816.74755859375 526.03515625 816.7301635742188 526.192626953125 L 816.4348754882812 528.9052124023438 L 815.5199584960938 528.8053588867188 L 815.9022827148438 525.304931640625 C 815.9677734375 524.7055053710938 816.0137329101562 524.1893920898438 816.0330810546875 523.7130126953125 Z" stroke="none" fill="#fff"/>
      </g>
      <g id="Trazado_1359" data-name="Trazado 1359" transform="translate(-784.136 -518.576)" fill="#fff" stroke-miterlimit="10">
        <path d="M820.885,527.028a1.64,1.64,0,0,0,1.553,1.957,3.351,3.351,0,0,0,1.438-.109l.085.68a4.149,4.149,0,0,1-1.727.13,2.377,2.377,0,0,1-2.222-2.838,2.485,2.485,0,0,1,2.686-2.483,2.169,2.169,0,0,1,1.841,2.626,3.534,3.534,0,0,1-.079.428Zm2.784-.366a1.325,1.325,0,0,0-1.118-1.643,1.541,1.541,0,0,0-1.583,1.348Z" stroke="none"/>
        <path d="M 822.8148193359375 529.7183837890625 C 822.6365966796875 529.7183837890625 822.4426879882812 529.7085571289062 822.2330932617188 529.6856689453125 C 820.6661376953125 529.5145263671875 819.84326171875 528.382568359375 820.0106201171875 526.8479614257812 C 820.1671752929688 525.4132080078125 821.0836181640625 524.34912109375 822.4136352539062 524.34912109375 C 822.506103515625 524.34912109375 822.600341796875 524.354248046875 822.6967163085938 524.36474609375 C 824.3577270507812 524.5458984375 824.64013671875 526.05517578125 824.5380249023438 526.9910888671875 C 824.51708984375 527.1800537109375 824.4798583984375 527.3253173828125 824.4589233398438 527.418701171875 L 820.8846435546875 527.0283813476562 C 820.76904296875 528.28125 821.5120849609375 528.88427734375 822.4371948242188 528.9849853515625 C 822.6224365234375 529.0052490234375 822.7882080078125 529.0142822265625 822.9387817382812 529.0142822265625 C 823.3262329101562 529.0142822265625 823.61328125 528.954833984375 823.8746948242188 528.8756103515625 L 823.9601440429688 529.5555419921875 C 823.7066650390625 529.63818359375 823.3248901367188 529.7183837890625 822.8148193359375 529.7183837890625 Z M 822.3933715820312 525.0101318359375 C 821.5580444335938 525.0101318359375 821.102783203125 525.7703857421875 820.9680786132812 526.3672485351562 L 823.6690673828125 526.6619262695312 C 823.7438354492188 526.0746459960938 823.5914306640625 525.1323852539062 822.5506591796875 525.0188598632812 C 822.4968872070312 525.0130004882812 822.4443359375 525.0101318359375 822.3933715820312 525.0101318359375 Z" stroke="none" fill="#fff"/>
      </g>
      <g id="Trazado_1360" data-name="Trazado 1360" transform="translate(-786.019 -518.75)" fill="#fff" stroke-miterlimit="10">
        <path d="M826.741,529.5l2.629-2.744c.25-.249.487-.469.748-.716l0-.021-2.754-.3.081-.746,3.879.423-.073.577-2.593,2.706c-.241.261-.479.49-.739.728l0,.021,2.975.325-.08.736-4.131-.451Z" stroke="none"/>
        <path d="M 830.8133544921875 530.4853515625 L 826.6820068359375 530.0339965820312 L 826.7407836914062 529.497802734375 L 829.3699340820312 526.7536010742188 C 829.6201782226562 526.5042114257812 829.856689453125 526.2850341796875 830.1183471679688 526.0371704101562 L 830.1204833984375 526.0162353515625 L 827.3660278320312 525.715087890625 L 827.4474487304688 524.968994140625 L 831.3264770507812 525.3922729492188 L 831.2531127929688 525.9695434570312 L 828.6598510742188 528.6754760742188 C 828.4183959960938 528.9365234375 828.1804809570312 529.165771484375 827.9208984375 529.4036254882812 L 827.9189453125 529.424560546875 L 830.8937377929688 529.7494506835938 L 830.8133544921875 530.4853515625 Z" stroke="none" fill="#fff"/>
      </g>
    </g>
    <g id="Grupo_659" data-name="Grupo 659" transform="translate(20.702 83.13)">
      <path id="Trazado_1361" data-name="Trazado 1361" d="M774.289,530.241l.461.05-.348,3.183,1.525.167-.042.386-1.986-.216Z" transform="translate(-773.9 -530.241)" fill="#fff"/>
      <path id="Trazado_1362" data-name="Trazado 1362" d="M777.763,530.353l.466.05-.41,3.76-.466-.05Z" transform="translate(-774.871 -530.273)" fill="#fff"/>
      <path id="Trazado_1363" data-name="Trazado 1363" d="M780.459,534.934l0-.327-.016,0a.963.963,0,0,1-.825.3.735.735,0,0,1-.7-.822c.068-.62.655-.9,1.645-.786l.006-.052a.532.532,0,0,0-.518-.657,1.283,1.283,0,0,0-.688.118l-.072-.318a1.593,1.593,0,0,1,.866-.136.915.915,0,0,1,.86,1.155l-.105.958a3.6,3.6,0,0,0-.024.619Zm.074-1.316c-.507-.065-1.095-.039-1.149.459a.414.414,0,0,0,.391.492.641.641,0,0,0,.666-.361.474.474,0,0,0,.043-.146Z" transform="translate(-775.308 -530.802)" fill="#fff"/>
      <path id="Trazado_1364" data-name="Trazado 1364" d="M782.844,533.288c.029-.265.047-.482.055-.7l.407.045-.024.415.015,0a.889.889,0,0,1,.857-.383.761.761,0,0,1,.669.592h.011a1.062,1.062,0,0,1,.323-.3.877.877,0,0,1,.586-.118c.339.037.818.314.721,1.2l-.165,1.509-.455-.05.158-1.45c.054-.493-.093-.809-.47-.85a.606.606,0,0,0-.6.364.779.779,0,0,0-.063.229l-.173,1.583-.455-.05.167-1.535c.044-.407-.1-.725-.458-.763a.641.641,0,0,0-.628.4.647.647,0,0,0-.062.224l-.169,1.546-.456-.049Z" transform="translate(-776.358 -530.902)" fill="#fff"/>
      <path id="Trazado_1365" data-name="Trazado 1365" d="M790.149,535.992v-.327l-.017,0a.958.958,0,0,1-.824.3.734.734,0,0,1-.7-.822c.067-.62.655-.9,1.645-.785l.006-.052a.532.532,0,0,0-.518-.657,1.283,1.283,0,0,0-.688.118l-.073-.318a1.6,1.6,0,0,1,.867-.136.915.915,0,0,1,.86,1.155l-.1.958a3.593,3.593,0,0,0-.024.619Zm.074-1.316c-.507-.065-1.094-.039-1.149.459a.415.415,0,0,0,.391.492.641.641,0,0,0,.666-.362.481.481,0,0,0,.043-.145Z" transform="translate(-778.034 -531.1)" fill="#fff"/>
      <path id="Trazado_1366" data-name="Trazado 1366" d="M794.932,532.3l-.338,3.1c-.024.227-.048.487-.051.664l-.418-.046.027-.447h-.01a.955.955,0,0,1-.929.407,1.175,1.175,0,0,1-.954-1.422,1.233,1.233,0,0,1,1.3-1.251.864.864,0,0,1,.731.477h.01l.167-1.53Zm-.71,2.189a.883.883,0,0,0,0-.2.691.691,0,0,0-.614-.614c-.482-.052-.814.34-.876.906-.056.519.151.976.654,1.031a.705.705,0,0,0,.744-.482.784.784,0,0,0,.043-.2Z" transform="translate(-779.06 -530.807)" fill="#fff"/>
      <path id="Trazado_1367" data-name="Trazado 1367" d="M797.852,536.832l0-.327h-.016a.959.959,0,0,1-.825.3.735.735,0,0,1-.7-.822c.068-.62.655-.9,1.645-.785l.006-.053a.532.532,0,0,0-.518-.657,1.286,1.286,0,0,0-.689.118l-.072-.319a1.6,1.6,0,0,1,.867-.135.914.914,0,0,1,.86,1.154l-.1.959a3.734,3.734,0,0,0-.024.619Zm.073-1.315c-.507-.066-1.094-.039-1.148.458a.414.414,0,0,0,.391.493.642.642,0,0,0,.666-.361.492.492,0,0,0,.042-.145Z" transform="translate(-780.2 -531.336)" fill="#fff"/>
      <path id="Trazado_1368" data-name="Trazado 1368" d="M803.647,535.364l-1.387-.152-.14,1.286,1.546.169-.042.387-2.007-.219.39-3.569,1.928.211-.043.387-1.466-.16-.123,1.127,1.387.152Z" transform="translate(-781.695 -531.092)" fill="#fff"/>
      <path id="Trazado_1369" data-name="Trazado 1369" d="M805.422,535.752c.029-.264.047-.482.055-.7l.413.045-.019.426h.01a.949.949,0,0,1,.9-.39c.355.039.883.311.787,1.19l-.167,1.53-.466-.05.161-1.478c.045-.413-.07-.774-.51-.822a.666.666,0,0,0-.676.409.658.658,0,0,0-.056.213l-.168,1.541-.466-.051Z" transform="translate(-782.708 -531.595)" fill="#fff"/>
      <path id="Trazado_1370" data-name="Trazado 1370" d="M810.178,534.564l-.081.735.667.073-.039.354-.667-.073-.151,1.382c-.035.318.036.507.3.536a1.034,1.034,0,0,0,.273,0l-.017.352a1.133,1.133,0,0,1-.42.018.652.652,0,0,1-.482-.25.957.957,0,0,1-.107-.687l.152-1.4-.4-.043.039-.355.4.043.067-.614Z" transform="translate(-783.83 -531.457)" fill="#fff"/>
      <path id="Trazado_1371" data-name="Trazado 1371" d="M811.906,536.567c.033-.3.056-.562.066-.8l.408.045-.039.5.021,0a.775.775,0,0,1,.771-.484.487.487,0,0,1,.131.031l-.048.439a.726.726,0,0,0-.157-.033.657.657,0,0,0-.69.53,1.339,1.339,0,0,0-.045.214l-.15,1.366-.461-.05Z" transform="translate(-784.535 -531.795)" fill="#fff"/>
      <path id="Trazado_1372" data-name="Trazado 1372" d="M815.452,538.753l0-.327h-.016a.96.96,0,0,1-.825.3.735.735,0,0,1-.7-.822c.068-.62.655-.9,1.645-.785l.006-.052a.532.532,0,0,0-.518-.657,1.283,1.283,0,0,0-.688.118l-.072-.319a1.6,1.6,0,0,1,.867-.135.914.914,0,0,1,.86,1.154l-.1.959a3.588,3.588,0,0,0-.024.619Zm.074-1.315c-.507-.065-1.095-.039-1.149.459a.415.415,0,0,0,.391.492.644.644,0,0,0,.667-.362.488.488,0,0,0,.042-.145Z" transform="translate(-785.15 -531.877)" fill="#fff"/>
      <path id="Trazado_1373" data-name="Trazado 1373" d="M817.837,537.107c.03-.265.047-.482.055-.7l.413.045-.019.426h.01a.949.949,0,0,1,.9-.39c.355.039.883.31.787,1.19l-.167,1.53-.466-.051.161-1.478c.045-.413-.071-.774-.51-.822a.666.666,0,0,0-.677.408.676.676,0,0,0-.055.213l-.168,1.541-.466-.051Z" transform="translate(-786.2 -531.976)" fill="#fff"/>
      <path id="Trazado_1374" data-name="Trazado 1374" d="M822.593,535.919l-.081.736.667.072-.038.355-.668-.073-.151,1.382c-.034.318.036.508.3.536a1.042,1.042,0,0,0,.274,0l-.017.352a1.151,1.151,0,0,1-.42.019.654.654,0,0,1-.482-.251.957.957,0,0,1-.107-.687l.153-1.4-.4-.043.039-.355.4.043.068-.614Z" transform="translate(-787.321 -531.838)" fill="#fff"/>
      <path id="Trazado_1375" data-name="Trazado 1375" d="M824.451,538.531a.826.826,0,0,0,.782.985,1.7,1.7,0,0,0,.724-.055l.043.342a2.092,2.092,0,0,1-.87.065,1.2,1.2,0,0,1-1.119-1.429,1.251,1.251,0,0,1,1.352-1.251,1.093,1.093,0,0,1,.928,1.323,1.966,1.966,0,0,1-.039.215Zm1.4-.185a.666.666,0,0,0-.564-.827.776.776,0,0,0-.8.678Z" transform="translate(-787.991 -532.193)" fill="#fff"/>
    </g>
    <g id="Grupo_660" data-name="Grupo 660" transform="translate(72.404 11.106)">
      <path id="Trazado_1376" data-name="Trazado 1376" d="M849.654,430.145l-.276,2.84a.075.075,0,0,1-.081.068l-.3-.029a.075.075,0,0,1-.067-.082l.276-2.84a.076.076,0,0,1,.082-.068l.3.029A.075.075,0,0,1,849.654,430.145Z" transform="translate(-846.704 -430.034)" fill="#fff"/>
      <path id="Trazado_1377" data-name="Trazado 1377" d="M848.563,430.876l-.218,2.243a.076.076,0,0,1-.082.068l-.3-.029a.074.074,0,0,1-.067-.082l.218-2.242a.075.075,0,0,1,.082-.068l.3.029A.074.074,0,0,1,848.563,430.876Z" transform="translate(-846.414 -430.239)" fill="#fff"/>
      <path id="Trazado_1378" data-name="Trazado 1378" d="M847.486,431.4l-.174,1.794a.075.075,0,0,1-.082.068l-.3-.029a.075.075,0,0,1-.067-.082l.174-1.794a.076.076,0,0,1,.082-.068l.3.029A.075.075,0,0,1,847.486,431.4Z" transform="translate(-846.123 -430.386)" fill="#fff"/>
      <path id="Trazado_1379" data-name="Trazado 1379" d="M846.409,431.923l-.131,1.345a.075.075,0,0,1-.081.068l-.3-.029a.076.076,0,0,1-.068-.083l.131-1.345a.075.075,0,0,1,.082-.068l.3.029A.074.074,0,0,1,846.409,431.923Z" transform="translate(-845.832 -430.534)" fill="#fff"/>
    </g>
    <g id="Grupo_669" data-name="Grupo 669" transform="translate(68.487 11.043)">
      <g id="Grupo_662" data-name="Grupo 662" transform="translate(1.291 2.085)">
        <g id="Grupo_661" data-name="Grupo 661">
          <path id="Trazado_1380" data-name="Trazado 1380" d="M842.519,432.849a.306.306,0,1,0,.273.337A.307.307,0,0,0,842.519,432.849Z" transform="translate(-842.179 -432.847)" fill="#fff"/>
        </g>
      </g>
      <g id="Grupo_664" data-name="Grupo 664" transform="translate(0.855 1.357)">
        <g id="Grupo_663" data-name="Grupo 663">
          <path id="Trazado_1381" data-name="Trazado 1381" d="M843.138,432.229a1.061,1.061,0,0,0-1.488-.162.207.207,0,0,0,.26.322.647.647,0,0,1,.906.1.208.208,0,0,0,.139.076.2.2,0,0,0,.152-.044A.206.206,0,0,0,843.138,432.229Z" transform="translate(-841.573 -431.834)" fill="#fff"/>
        </g>
      </g>
      <g id="Grupo_666" data-name="Grupo 666">
        <g id="Grupo_665" data-name="Grupo 665">
          <path id="Trazado_1382" data-name="Trazado 1382" d="M843.864,430.847a2.427,2.427,0,0,0-3.4-.367.207.207,0,0,0,.26.321,2.012,2.012,0,0,1,2.822.3.205.205,0,0,0,.139.076.206.206,0,0,0,.183-.335Z" transform="translate(-840.383 -429.946)" fill="#fff"/>
        </g>
      </g>
      <g id="Grupo_668" data-name="Grupo 668" transform="translate(0.438 0.696)">
        <g id="Grupo_667" data-name="Grupo 667">
          <path id="Trazado_1383" data-name="Trazado 1383" d="M843.492,431.555a1.727,1.727,0,0,0-2.422-.262.206.206,0,0,0,.108.366.209.209,0,0,0,.152-.044,1.311,1.311,0,0,1,1.839.2.207.207,0,0,0,.367-.107A.2.2,0,0,0,843.492,431.555Z" transform="translate(-840.992 -430.914)" fill="#fff"/>
        </g>
      </g>
    </g>
    <g id="Grupo_670" data-name="Grupo 670" transform="translate(22.335 7.171)">
      <path id="Trazado_1384" data-name="Trazado 1384" d="M776.173,426.7a.828.828,0,0,1,.629-.734l0-.014a.717.717,0,0,1-.413-.683.813.813,0,0,1,.949-.706.75.75,0,0,1,.791.772.737.737,0,0,1-.525.643v.014a.8.8,0,0,1,.53.789.891.891,0,0,1-1.043.771C776.483,427.508,776.143,427.122,776.173,426.7Zm.585-1.43c-.021.289.186.46.513.574a.572.572,0,0,0,.479-.494.451.451,0,0,0-.456-.507A.461.461,0,0,0,776.758,425.269Zm.974,1.523c.025-.351-.208-.538-.592-.678a.631.631,0,0,0-.563.56.536.536,0,0,0,.538.593A.525.525,0,0,0,777.732,426.792Z" transform="translate(-776.171 -424.56)" fill="#fff"/>
      <path id="Trazado_1385" data-name="Trazado 1385" d="M780.251,426.239a.266.266,0,1,1,.53.037.266.266,0,1,1-.53-.037Zm-.111,1.571a.266.266,0,1,1,.53.037.266.266,0,1,1-.53-.037Z" transform="translate(-777.287 -424.958)" fill="#fff"/>
      <path id="Trazado_1386" data-name="Trazado 1386" d="M782.932,425.383h-.009l-.522.236-.055-.3.656-.293.334.024-.205,2.893-.378-.027Z" transform="translate(-777.908 -424.69)" fill="#fff"/>
      <path id="Trazado_1387" data-name="Trazado 1387" d="M786.567,425.6l-1.1-.079-.164.736a1.479,1.479,0,0,1,.237,0,1.224,1.224,0,0,1,.612.2.826.826,0,0,1,.361.773,1,1,0,0,1-1.146.911,1.411,1.411,0,0,1-.709-.229l.118-.291a1.307,1.307,0,0,0,.607.2.64.64,0,0,0,.73-.579c.022-.374-.208-.66-.787-.7a3.027,3.027,0,0,0-.4,0l.284-1.375,1.385.1Z" transform="translate(-778.557 -424.733)" fill="#fff"/>
    </g>
    <g id="Grupo_672" data-name="Grupo 672" transform="translate(63.174 11.092)">
      <g id="Grupo_671" data-name="Grupo 671">
        <path id="Trazado_1388" data-name="Trazado 1388" d="M837.077,430.916l-.088-.009.009-.091a.447.447,0,0,0-.394-.5l-3.006-.3a.453.453,0,0,0-.489.409l-.115,1.086a.447.447,0,0,0,.394.5l3.006.3a.453.453,0,0,0,.489-.409l.01-.091.088.009a.272.272,0,0,0,.293-.245l.039-.362A.269.269,0,0,0,837.077,430.916Zm-2.334.82a.087.087,0,0,1-.08.035l-1.237-.124a.09.09,0,0,1-.079-.1l.115-1.087a.091.091,0,0,1,.1-.082l.707.071a.089.089,0,0,1,.074.058l.415,1.14A.092.092,0,0,1,834.743,431.736Z" transform="translate(-832.991 -430.015)" fill="#fff"/>
      </g>
    </g>
  </g>
  <line id="Línea_3" data-name="Línea 3" x1="135.21" y2="59.026" transform="translate(203.35 164.542)" fill="none" stroke="#ffb74b" stroke-linecap="round" stroke-miterlimit="10" stroke-width="5" stroke-dasharray="12"/>
  <path id="Trazado_1480" data-name="Trazado 1480" d="M47.981,0-25.5,92.967" transform="translate(231.129 129.881)" fill="none" stroke="#ffb74b" stroke-linecap="round" stroke-width="5" stroke-dasharray="12"/>
</svg>
