<svg xmlns="http://www.w3.org/2000/svg" width="769.961" height="409.459" viewBox="0 0 769.961 409.459">
  <g id="Grupo_709" data-name="Grupo 709" transform="translate(94.034 -538.273)">
    <path id="Trazado_1427" data-name="Trazado 1427" d="M386.018,749.466a82.185,82.185,0,0,0-4.107-43.527,90.4,90.4,0,0,0-76.049-58.145,92.184,92.184,0,0,0-66.029,19.218c-17.574-44.184-61.922-74.57-111.855-74.57h-.985C65.4,592.935,12.017,641.882,8.4,701.669A112.588,112.588,0,0,0,13.5,742.9c-40.734,9.691-69.97,44.841-69.97,86.724,0,48.29,31.208,99.864,118.588,99.864h283c55.516,0,92.8-51.575,92.8-99.7C437.922,795.457,417.393,764.249,386.018,749.466Z" transform="translate(0 0)" fill="#97bff0"/>
    <g id="Grupo_707" data-name="Grupo 707" transform="translate(84.145 538.273)">
      <path id="Trazado_1428" data-name="Trazado 1428" d="M346.239,853.322l-94.214,11.825a16.051,16.051,0,0,1-14.081-8.236l-14.08-25.262-4.854-8.7-1.68-3.014-7.638-102.312,37.985,92.442L257.8,834.732l87.726-1.45.368,10.031Z" transform="translate(-84.145 -538.273)" fill="#ded8d8"/>
      <path id="Trazado_1429" data-name="Trazado 1429" d="M345.894,843.313c-2.83,1.335-6.373,1.565-9.226,1.7-29.012,1.358-58.162,3.727-87.22,2.393-8.4-.391-11.526-1.726-17.462-7.409a89.917,89.917,0,0,1-8.122-8.351c-2.323-2.807-4.279-5.867-4.854-8.7a7.211,7.211,0,0,1,.023-3.29c1.518-5.705,18.566-8.144,23.674-9.133a26.389,26.389,0,0,1,4.97-.461L257.8,834.732l87.726-1.45Z" transform="translate(-84.145 -538.273)" fill="#e0dada" opacity="0.6" style="mix-blend-mode: multiply;isolation: isolate"/>
      <path id="Trazado_1430" data-name="Trazado 1430" d="M341.708,846.708a2.272,2.272,0,1,1-2.272-2.272A2.272,2.272,0,0,1,341.708,846.708Z" transform="translate(-84.145 -538.273)" fill="#6f6a6a"/>
      <g id="Grupo_691" data-name="Grupo 691" transform="translate(150.3 197.867)">
        <g id="Grupo_688" data-name="Grupo 688" transform="translate(111.126 95.362)">
          <path id="Trazado_1431" data-name="Trazado 1431" d="M378.082,838.89c2-.381,9.064-5.618,9.064-5.618l-5.945-.034S378.568,836.161,378.082,838.89Z" transform="translate(-345.571 -831.502)" fill="#ffbe92"/>
          <path id="Trazado_1432" data-name="Trazado 1432" d="M351.39,834.428c-.069.016-.138.031-.208.045a11.742,11.742,0,0,1-1.939.1c-1.223.033-2.448.044-3.672.044,0,.01.574,12.089.574,12.089s14.424-.038,22.158-1.955c9.779-2.423,17.715-10.659,15.432-11.238a87.14,87.14,0,0,0-12.665-1.909c-1.751-.013-3.93-.466-5.451.623-1.311.939-7.274,1.052-8.831,1.1A12.5,12.5,0,0,0,354,833.6C353.1,833.844,352.289,834.218,351.39,834.428Z" transform="translate(-345.571 -831.502)" fill="#ffbe92"/>
        </g>
        <g id="Grupo_690" data-name="Grupo 690">
          <g id="Grupo_689" data-name="Grupo 689">
            <path id="Trazado_1433" data-name="Trazado 1433" d="M234.445,823.995v5.3a3.975,3.975,0,0,0,3.975,3.975h77.6v-9.277Z" transform="translate(-234.445 -736.14)" fill="#454545"/>
            <path id="Trazado_1434" data-name="Trazado 1434" d="M404.077,823.995H316.018v9.277h84.756a3.086,3.086,0,0,0,3.3-2.8Z" transform="translate(-234.445 -736.14)" fill="#1f1f1f"/>
            <path id="Trazado_1435" data-name="Trazado 1435" d="M267.244,810.375c-.323-.528,4.14-1.066,4.468-1.061a37.729,37.729,0,0,1,5.514.7q6.163,1,12.283,2.262,9.268,1.9,18.409,4.378c3.6.975,11.567,1.728,10.272,7.262H272.5a5.9,5.9,0,0,1-3.27-5.377C269.111,815.994,269.123,813.442,267.244,810.375Z" transform="translate(-234.445 -736.14)" fill="#ffbe92"/>
            <path id="Trazado_1436" data-name="Trazado 1436" d="M316.018,823.995l33.158-82.837a7.579,7.579,0,0,1,7.134-5.018h77.6a2.831,2.831,0,0,1,2.676,3.754l-32.512,84.1Z" transform="translate(-234.445 -736.14)" fill="#454545"/>
            <path id="Trazado_1437" data-name="Trazado 1437" d="M390.7,774.005c-2.432,5.677-7.345,9.175-10.976,7.812s-4.6-7.07-2.17-12.748,7.345-9.175,10.975-7.812S393.134,768.327,390.7,774.005Z" transform="translate(-234.445 -736.14)" fill="#fff"/>
          </g>
          <path id="Trazado_1438" data-name="Trazado 1438" d="M358.469,836.352l6.579-4.368,1.045-10.1c0-2.015,3.659-2.015,3.659,0v9.583l-1.819,3.865Z" transform="translate(-234.445 -736.14)" fill="#ffbe92"/>
          <path id="Trazado_1439" data-name="Trazado 1439" d="M363.73,836.342l6.677-4.6,1.061-10.639c0-2.122,3.714-2.122,3.714,0v10.089l-1.846,4.069Z" transform="translate(-234.445 -736.14)" fill="#ffbe92"/>
          <path id="Trazado_1440" data-name="Trazado 1440" d="M368.469,836.342l6.959-4.792,1.106-11.087c0-2.212,3.871-2.212,3.871,0v10.514l-1.925,4.241Z" transform="translate(-234.445 -736.14)" fill="#ffbe92"/>
          <path id="Trazado_1441" data-name="Trazado 1441" d="M372.117,836.509l8.78-4.587,1.135-10.135c.286-2.193,4.059-1.7,3.773.492L385.8,832.2l-5.806,6.9Z" transform="translate(-234.445 -736.14)" fill="#ffbe92"/>
        </g>
      </g>
      <g id="Grupo_692" data-name="Grupo 692" transform="translate(0 165.007)">
        <path id="Trazado_1442" data-name="Trazado 1442" d="M233.872,791.87a34.389,34.389,0,0,1-2.323,10.675c-4.165,10.077-12.907,17.6-15.369,28.529-1.91,8.444-1.772,17.186-1.058,25.768.092,1.035,1.357,9.318,2.024,15.368.391,3.566.575,6.35.184,6.466a196.774,196.774,0,0,1-20.292,5.038,215.232,215.232,0,0,1-62.188,2.692c-8.421-.851-19.28,1.334-26.8-3.474-4.648-2.968-4.878-6.6-4.372-11.6.76-7.8.737-15.438.737-23.26a186.045,186.045,0,0,0-3.659-35.339.564.564,0,0,0-.045-.184.968.968,0,0,0-.047-.23c-.391-2.163-.828-4.3-1.311-6.442-.552-2.554-1.15-5.107-1.771-7.661-.207-.851-.438-1.7-.668-2.577-.46-1.564-.92-3.106-1.426-4.648-4.32-13.293-10.546-26.472-10.422-40.078.06-5.433-2.2-11.628.23-17.9,3.647-9.037,13.462-11.911,22.662-14.725,18.086-5.349,47.563-14,72.771-9.548,7.3.811,16.518,2.36,22.639,5.752a21.469,21.469,0,0,1,6.557,5.338c11.734,14.425,21.19,35.224,23.191,53.744A103.883,103.883,0,0,1,233.872,791.87Z" transform="translate(-84.145 -703.28)" fill="#e0dada"/>
        <path id="Trazado_1443" data-name="Trazado 1443" d="M233.872,791.87a34.389,34.389,0,0,1-2.323,10.675c-4.165,10.077-12.907,17.6-15.369,28.529-1.91,8.444-1.772,17.186-1.058,25.768.092,1.035,1.357,9.318,2.024,15.368,0,2.232.092,4.418.184,6.466a196.774,196.774,0,0,1-20.292,5.038c2.324-4.739,4.809-8.973,6.212-14.656,1.679-6.787,4.831-18.474-3.5-21.626-5.637-2.094-12.4-.782-18.13.092-8.926,1.38-18.244,2.83-26.941,5.291-7.477,2.14-21.857,7.156-28.736,1.082-2.715-2.393-3.934-6.833-5.245-10.123-2.232-5.545-4.164-11.136-6.235-16.75a134.831,134.831,0,0,0-7.478-17.255c-3.681-6.856-6.235,2.968-6.235,2.968a.564.564,0,0,0-.045-.184.968.968,0,0,0-.047-.23c-.229-1.127-.92-4.325-1.311-6.442a105.081,105.081,0,0,0-2.439-10.238c-.46-1.564-.92-3.106-1.426-4.648C90,773.789,84.945,763.822,85.063,750.917c.037-3.4-1.478-11.252-.691-14.4,2.12-12.721,14.841-15.859,28.621-19.717,5.323-1.5,22.9-6.158,26.689-6.741-.093.828-1.22.851-1.22.851-4.866,1.1-32.5,6.893-40.124,14.2-9.233,8.927,9.734,26.972,14.678,38.077,3.106,7.017,11.458,14.494,16.128,20.522,8.237,10.63,14.357,21.65,28.966,24.365,7.455,1.38,14.955-1.634,22.064-3.589,8.191-2.278,17.577.644,26.458.115,13.367-.782,20.89-11.136,20.614-24.25-.976-46.881-38.465-76.175-39.917-59.841-.345,4.049-.069,8.812-2.324,12.4-4.371,6.925-14.057-1.933-17.462-5.384-1.5-1.495-2.738-4.348-4.325-5.452,0,5.222-1.243,17.485-9.272,16.265-2.973-.469-10.471-9.409-11.757-12.378-.989-2.323-4.141-9.593-2.876-11.917,1.013-1.864,7.132-3.129,9.019-3.313,2.6-.23,5.269-.092,7.892-.253,5.13-.276,10.1-1.795,15.23-2.048,10.911-.595,21.675,2.462,31.911,6.074a21.469,21.469,0,0,1,6.557,5.338c11.734,14.425,21.19,35.224,23.191,53.744A103.883,103.883,0,0,1,233.872,791.87Z" transform="translate(-84.145 -703.28)" fill="#e0dada" opacity="0.5" style="mix-blend-mode: multiply;isolation: isolate"/>
        <path id="Trazado_1444" data-name="Trazado 1444" d="M148.022,708.1c-.994,10.616,14.778,12.076,14.778,12.076s-2.465,7.885-3.86,10.47c-5.921,10.971-4.223,10.693-12.009,5.005-13.052-9.535-14.65-27.485,1.091-29.507Z" transform="translate(-84.145 -703.28)" fill="#fff"/>
        <path id="Trazado_1445" data-name="Trazado 1445" d="M172.98,713.752c.274-.873.788-10.472.788-10.472,9.3,1.248,18.358,16.619,7.745,31.7-5.222,7.418-13.962-11.938-15.6-15.368a9.266,9.266,0,0,0,1.781-.36A8.183,8.183,0,0,0,172.98,713.752Z" transform="translate(-84.145 -703.28)" fill="#fff"/>
      </g>
      <path id="Trazado_1446" data-name="Trazado 1446" d="M228.057,929.03c-5-15.277-9.119-29.978-10.45-46.306-.116-1.333-.208-2.691-.277-4.048-37.248,11.319-76.475,11.457-114.045,2.277,0,.345-.024.667-.047,1.013a124.376,124.376,0,0,1-4.486,30.691c-1.573,5.6-3.458,10.858-5.507,16.373Z" transform="translate(-84.145 -538.273)" fill="#454545"/>
      <path id="Trazado_1447" data-name="Trazado 1447" d="M179,905.386c14.581,4.394,23.31,10.693,28.287,23.644h20.77c-5-15.277-9.119-29.978-10.45-46.306a36.6,36.6,0,0,0-6.581,2.3c-11.25,4.924-24.594,4.579-36.65,5.407-11,.737-22.915,1.978-33.913,1.15a151.529,151.529,0,0,1-29.655-5.728,28.893,28.893,0,0,1-7.57-3.888,124.376,124.376,0,0,1-4.486,30.691c11.457-4.808,20.246-9.226,32.969-10.192C147.366,901.268,163.793,900.808,179,905.386Z" transform="translate(-84.145 -538.273)" fill="#595959" opacity="0.4" style="mix-blend-mode: multiply;isolation: isolate"/>
      <g id="Grupo_693" data-name="Grupo 693" transform="translate(17.152 333.418)">
        <path id="Trazado_1448" data-name="Trazado 1448" d="M101.3,891.01c37.959,9.785,80.427,9.794,118.08-.925l-.836-18.394c-37.654,10.719-79.285,10.7-117.244.919Z" transform="translate(-101.297 -871.691)" fill="#161616"/>
        <path id="Trazado_1449" data-name="Trazado 1449" d="M190.034,898.909l-30.392,1.027-.7-21.792,30.392-1.027Z" transform="translate(-101.297 -871.691)" fill="#fff"/>
      </g>
      <g id="Grupo_706" data-name="Grupo 706" transform="translate(27.846)">
        <g id="Grupo_704" data-name="Grupo 704" transform="translate(1.547 25.38)">
          <g id="Grupo_695" data-name="Grupo 695" transform="translate(35.942 126.992)">
            <path id="Trazado_1450" data-name="Trazado 1450" d="M149.592,711.912c-.027,10.2,25.533,10.264,25.56.069l.057-21.266-25.56-.069Z" transform="translate(-149.48 -690.646)" fill="#ffbe92"/>
            <g id="Grupo_694" data-name="Grupo 694" opacity="0.5" style="mix-blend-mode: multiply;isolation: isolate">
              <path id="Trazado_1451" data-name="Trazado 1451" d="M149.649,690.646l25.56.069-.032,12.091a35.112,35.112,0,0,0-22.593,14.247C148.526,714.276,149.589,713.258,149.649,690.646Z" transform="translate(-149.48 -690.646)" fill="#ffbe92"/>
            </g>
          </g>
          <g id="Grupo_703" data-name="Grupo 703">
            <g id="Grupo_696" data-name="Grupo 696" transform="translate(107.158 61.575)">
              <path id="Trazado_1452" data-name="Trazado 1452" d="M225.637,626.542c3.753-.968,8.111-2.526,11.707.279,4.784,3.732.95,10.855-.936,14.956-2.976,6.473-9.18,14.314-15.712,10.788Z" transform="translate(-220.696 -625.229)" fill="#ffbe92"/>
              <path id="Trazado_1453" data-name="Trazado 1453" d="M229.74,630.292a11.438,11.438,0,0,1,3.628-.327,2.635,2.635,0,0,1,1.315.555c2,1.54-.5,6.295-1.849,8.848l-.441.844c-1.975,3.822-4.557,6.594-6.589,7.766A58.337,58.337,0,0,1,229.74,630.292Z" transform="translate(-220.696 -625.229)" fill="#f2a46e"/>
            </g>
            <path id="Trazado_1454" data-name="Trazado 1454" d="M122.046,627.287c-1.3,45.818,30.9,79.551,48.448,76.83,22.877-.17,50.03-29.123,57.619-63.479,4.74-21.338,3.695-41.27-5.083-55.447C202.732,552.346,124.187,550.333,122.046,627.287Z" transform="translate(-113.538 -563.654)" fill="#ffbe92"/>
            <g id="Grupo_697" data-name="Grupo 697" transform="translate(8.469 0.362)" opacity="0.5" style="mix-blend-mode: multiply;isolation: isolate">
              <path id="Trazado_1455" data-name="Trazado 1455" d="M122.046,627.287c-1.326,46.78,31.561,79.448,48.448,76.83-30.05-9.21-31.665-35.6-31.665-58.369-.2,2.527,1.386,5.187,3.216,6.8.115-2.085-.343-4.091-.4-6.159a69.09,69.09,0,0,1,.843-9.861,33.79,33.79,0,0,1,6.5-15.829c3.612-4.948,7.484-9.377,13.351-11.724,5.35-2.14,11.264-2.776,16.941-3.6a155.621,155.621,0,0,0,24.649-5.321c11.195-3.5,18.235-7.95,14.8-18.872C212.1,560.149,124.386,543.184,122.046,627.287Z" transform="translate(-122.007 -564.016)" fill="#ffbe92"/>
            </g>
            <g id="Grupo_699" data-name="Grupo 699" transform="translate(0 45.512)">
              <path id="Trazado_1456" data-name="Trazado 1456" d="M128.749,612.42c-3.395-1.868-7.232-4.458-11.41-2.632-5.561,2.429-3.612,10.281-2.8,14.721,1.279,7.009,5.346,16.142,12.548,14.346Z" transform="translate(-113.538 -609.165)" fill="#ffbe92"/>
              <g id="Grupo_698" data-name="Grupo 698" opacity="0.5" style="mix-blend-mode: multiply;isolation: isolate">
                <path id="Trazado_1457" data-name="Trazado 1457" d="M128.749,612.42c-3.395-1.868-7.232-4.458-11.41-2.632-5.561,2.429-3.612,10.281-2.8,14.721,1.279,7.009,5.346,16.142,12.548,14.346Z" transform="translate(-113.538 -609.165)" fill="#ffbe92"/>
              </g>
              <path id="Trazado_1458" data-name="Trazado 1458" d="M123.845,615.035a11.456,11.456,0,0,0-3.434-1.216,2.653,2.653,0,0,0-1.412.212c-2.318,1-1.071,6.223-.4,9.03l.218.927c.966,4.192,2.78,7.517,4.458,9.157A58.343,58.343,0,0,0,123.845,615.035Z" transform="translate(-113.538 -609.165)" fill="#e99459"/>
            </g>
            <path id="Trazado_1459" data-name="Trazado 1459" d="M196.959,669.021l-39.725-5S174.557,701.526,196.959,669.021Z" transform="translate(-113.538 -563.654)" fill="#fff"/>
            <g id="Grupo_700" data-name="Grupo 700" transform="translate(44.91 65.573)">
              <path id="Trazado_1460" data-name="Trazado 1460" d="M198.784,639.951c-1.061,8.435,7.317,9.494,8.38,1.055.443-3.521-1.073-6.612-3.387-6.9S199.228,636.43,198.784,639.951Z" transform="translate(-158.448 -629.227)" fill="#4e1e00"/>
              <path id="Trazado_1461" data-name="Trazado 1461" d="M158.525,635.1c-.444,3.521,1.073,6.612,3.387,6.9s4.549-2.327,4.992-5.848-1.073-6.612-3.387-6.9S158.968,631.576,158.525,635.1Z" transform="translate(-158.448 -629.227)" fill="#4e1e00"/>
            </g>
            <g id="Grupo_701" data-name="Grupo 701" transform="translate(82.847 60.235)">
              <path id="Trazado_1462" data-name="Trazado 1462" d="M216.235,629.659s-11.84-5.348-19.641-1.708c-1.035-2.29,1.831-3.507,7.332-4.031S216.235,629.659,216.235,629.659Z" transform="translate(-196.385 -623.889)" fill="#592300"/>
            </g>
            <g id="Grupo_702" data-name="Grupo 702" transform="translate(39.975 53.551)">
              <path id="Trazado_1463" data-name="Trazado 1463" d="M153.513,619.276s12.949-1.075,19.081,4.967c1.742-1.812-.551-3.918-5.558-6.253S153.513,619.276,153.513,619.276Z" transform="translate(-153.513 -617.205)" fill="#592300"/>
            </g>
          </g>
        </g>
        <g id="Grupo_705" data-name="Grupo 705">
          <path id="Trazado_1464" data-name="Trazado 1464" d="M217.5,667.017c2.323-9.3,10.163-14.09,7.7-38.1-.713-6.962-1.9-15.224-4.346-21.8-2.021-5.439-4.969-10.289-5.389-16.231.124,2.054-9.462,5.832-11.061,6.423a54.165,54.165,0,0,1-14.451,2.863c-11.134.921-24.269.468-33.5,7.791C147.82,614.8,143.2,625.943,141.632,636.6c-.551,3.742-.057,8.767-1.119,12.078-1.91-4.742-2.109-10.62-2.335-15.705-.286-6.443-.485-12.891,1.591-19.078-3.163,4.027-3.972,10.614-5.268,15.474a108.312,108.312,0,0,0-3.785,20.846c-.37,5.7-1.264,14.2.381,19.58-6.23-5.825-9.476-16.769-12.052-24.687a155.052,155.052,0,0,1-6.068-29.034C101.454,520.112,194.2,528.9,218.959,558.2c22.867,5.611,27.124,24.921,26.22,48.324C244.294,629.423,232.763,650.383,217.5,667.017Z" transform="translate(-111.991 -538.273)" fill="#641100"/>
          <path id="Trazado_1465" data-name="Trazado 1465" d="M133.219,564.041c-5.449,6.11-10.957,20.1-7.94,27.9,1.733-5.24,3.341-13.215,7.865-16.687-3.462,5.93-6.819,13.821-7.692,20.756-.883,7.013-1.637,24.732,1.489,29.987a73.12,73.12,0,0,1,24.847-51.64c-8.759,7.592-7.316,30.482-7.495,34.546.315-7.12,4.766-15.611,10.259-20.037,12.676-10.215,40.06-1.295,57.1-14.724,0,0-12.133,1.683-18.244.851-9.676-1.317-22.648-6.726-24.157-8.189,3.927-2.319,17.839-1.686,21.9-1.35,2.923.242,6.18,1.463,9.074,1.375-8.546-2.869-18.547-5.264-27.59-5.026,9.237-2.505,25.7-1.616,34.742,2.921-7.837-5.708-18.734-8.328-28.353-7.971,9.079-5.318,33.23-.493,36.293,4.9-4.8-8.451-18-12.479-26.748-14.719C167.236,541.463,148.523,546.883,133.219,564.041Z" transform="translate(-111.991 -538.273)" fill="#811900"/>
          <path id="Trazado_1466" data-name="Trazado 1466" d="M218.145,565.957a19.72,19.72,0,0,1,8.482,2.2c-.684-1.387-4.239-3.872-5.506-4.748,3.077,1.025,5.537,1.782,8.108,4.2,9.7,9.115,9.971,16.518,10.286,29.753a18.273,18.273,0,0,0-7.322-11c2.733,3.581,1.594,7.148.808,11.085-1.637-7.494-7.276-13.775-13.83-17.3,3.312-1.865,8.191,1.658,9.914,4.47-.3-.49-.357-1.4-.619-1.972-.969-2.1-.9-3.06-3.019-5.143a60.12,60.12,0,0,0-5.133-3.89,17.653,17.653,0,0,1,6.859,2.853c.544.325,3.173,2.308,3.106,2.987C230.631,575.866,221.1,565.983,218.145,565.957Z" transform="translate(-111.991 -538.273)" fill="#811900"/>
        </g>
      </g>
    </g>
    <g id="Grupo_708" data-name="Grupo 708" transform="translate(82.655 723.764)">
      <path id="Trazado_1467" data-name="Trazado 1467" d="M271.558,823.988l-106.569,23.26L140.9,852.493a16.325,16.325,0,0,1-11.619-4.831L90.477,773.948c-16.633-33.489-3.406-52.294,8.858-49.995C107.18,725.2,111,732.719,115,738.7c5.683,8.535,36.228,81.4,37.378,81.491.184,0,116.945-17.187,116.945-17.187Z" transform="translate(-82.655 -723.764)" fill="#e8e2e2"/>
      <path id="Trazado_1468" data-name="Trazado 1468" d="M164.989,847.248,140.9,852.493a16.325,16.325,0,0,1-11.619-4.831L90.477,773.948c-16.919-34.067-2.632-51.47,7.7-50.065-21.986,7.1,5.295,56.045,17.206,87.313,4.233,11.135,15.668,34.464,21.4,36.6C142.166,849.8,156.546,847.041,164.989,847.248Z" transform="translate(-82.655 -723.764)" fill="#e0dada" opacity="0.5" style="mix-blend-mode: multiply;isolation: isolate"/>
      <path id="Trazado_1469" data-name="Trazado 1469" d="M269.317,818.227a2.271,2.271,0,1,1-2.272-2.271A2.272,2.272,0,0,1,269.317,818.227Z" transform="translate(-82.655 -723.764)" fill="#6f6a6a"/>
    </g>
    <g id="Grupo_30-2" data-name="Grupo 30-2" transform="translate(-94.034 923.492)">
      <path id="Rectángulo_2-2" data-name="Rectángulo 2-2" d="M-87.034,923.5H668.927c3.866,0,7,2.536,7,5.665h0v12.906c0,3.129-3.135,5.665-7,5.665H-87.034c-3.866,0-7-2.536-7-5.665h0v-12.9c0-3.13,3.135-5.667,7-5.667h0Z" transform="translate(94.034 -923.492)" fill="#3700b1"/>
      <path id="Trazado_41-2" data-name="Trazado 41-2" d="M675.926,935.192v.557H-94.033v-.557c0-6.459,6.4-11.7,14.286-11.7H661.635C669.525,923.495,675.924,928.736,675.926,935.192Z" transform="translate(94.034 -923.492)" fill="#542bd8"/>
    </g>
  </g>
</svg>
