<svg xmlns="http://www.w3.org/2000/svg" width="769.964" height="418.604" viewBox="0 0 769.964 418.604">
  <g id="Grupo_686" data-name="Grupo 686" transform="translate(131.36 -555.031)">
    <g id="Grupo_30" data-name="Grupo 30" transform="translate(-131.36 949.399)">
      <path id="Rectángulo_2" data-name="Rectángulo 2" d="M266,923.86h755.961c3.866,0,7,2.536,7,5.665h0v12.906c0,3.129-3.134,5.665-7,5.665H266c-3.866,0-7-2.536-7-5.665h0v-12.9c0-3.13,3.135-5.667,7-5.667h0Z" transform="translate(-258.997 -923.86)" fill="#3700b1"/>
      <path id="Trazado_41" data-name="Trazado 41" d="M1028.959,935.556v.557H259v-.557c0-6.459,6.4-11.7,14.286-11.7h741.382C1022.558,923.859,1028.957,929.1,1028.959,935.556Z" transform="translate(-258.996 -923.86)" fill="#542bd8"/>
    </g>
    <path id="Trazado_1427" data-name="Trazado 1427" d="M686.825,523.637a82.186,82.186,0,0,0-4.107-43.527,90.4,90.4,0,0,0-76.049-58.145,92.18,92.18,0,0,0-66.029,19.218c-17.574-44.184-61.922-74.57-111.855-74.57H427.8c-61.594.493-114.976,49.44-118.59,109.227a112.574,112.574,0,0,0,5.093,41.226c-40.734,9.691-69.97,44.841-69.97,86.724,0,48.29,31.208,99.864,118.588,99.864h283c55.516,0,92.8-51.575,92.8-99.7C738.729,569.628,718.2,538.42,686.825,523.637Z" transform="translate(-172.088 250.002)" fill="#97bff0"/>
    <g id="Grupo_687" data-name="Grupo 687" transform="translate(95.84 -20)">
      <g id="Grupo_674" data-name="Grupo 674" transform="translate(56.244 749.496)">
        <path id="Trazado_1389" data-name="Trazado 1389" d="M65.479,750.559c9.336-3.411,19.5-3.962,29.47-4.642l57.877-98.766-18.4-5.631s-2.514,3.485-2.585,3.6l-72.71,101.06a15.285,15.285,0,0,0-2.842,8.643A68.261,68.261,0,0,1,65.479,750.559Z" transform="translate(-56.163 -641.52)" fill="#febd95"/>
        <path id="Trazado_1390" data-name="Trazado 1390" d="M66.09,713.291c-1.588,8.722-3.141,17.547-2.2,26.31a63.222,63.222,0,0,0,2.039,10.063A15.064,15.064,0,0,0,69.2,748.5l59.171-29.981,24.959-12.658,3.338-43.747,3.605-8.816Z" transform="translate(-44.291 -622.394)" fill="#febd95"/>
        <path id="Trazado_1391" data-name="Trazado 1391" d="M66.762,677.542l-.273.378c-5.466,7.6-15.245,17.966-7.048,26.678,5.912,6.279,13.469,6.172,19.034,5.209,5.287-.913,17.987-8.63,22.529-10.937l5.193-2.637C104.19,693.078,67.2,677.718,66.762,677.542Z" transform="translate(-56.163 -583.021)" fill="#febd95"/>
        <path id="Trazado_1392" data-name="Trazado 1392" d="M68.056,684.921c-.525.184-1.05.315-1.574.446a2.834,2.834,0,0,1-1.627-.026C66.429,685.157,67.663,684.973,68.056,684.921Z" transform="translate(-42.259 -571.038)" fill="#febd95" opacity="0.5" style="mix-blend-mode: multiply;isolation: isolate"/>
        <path id="Trazado_1393" data-name="Trazado 1393" d="M177.212,716.625l-28.633,14.539-48.171,24.463c-4.542,2.307-17.177,10.583-22.529,10.937-5.552.367-12.445.585-18.357-5.694-8.2-8.712.9-18.591,6.371-26.19l11.2-15.568,28.774-40,22.587-31.4c1.155-1.6,2.377-3.178,3.472-4.823,0,0-59.543,89.522-59.564,89.556-2.934,4.408-5.332,8.208-5.941,13.666-.876,7.84,6.961,8.888,12.592,7.8,6.3-1.22,14.584-6.161,19.89-9.772,8.714-5.933,14.6-9.995,23.828-15.1,8.331-4.613,16.694-9.166,25.027-13.773,4.448-2.461,9.1-4.77,13.319-7.612,2.047-1.391,4.146-2.729,6.166-4.2,2.991-2.178,4.015,2.913,5.117,5.353C172.725,709.645,175.822,717.333,177.212,716.625Z" transform="translate(-56.244 -639.294)" fill="#febd95" opacity="0.5" style="mix-blend-mode: multiply;isolation: isolate"/>
      </g>
      <path id="Trazado_1394" data-name="Trazado 1394" d="M115.826,645.343c1.086-.079,7.793-1.585,8.541-1.084s27.363-.1,27.363-.1l17.662,1.186L137.57,700.979,118.4,699.735C109.15,679.83,106.146,661.244,115.826,645.343Z" transform="translate(87.075 112.259)" fill="#febd95"/>
      <g id="Grupo_675" data-name="Grupo 675" transform="translate(147.887 753.873)">
        <path id="Trazado_1395" data-name="Trazado 1395" d="M110.046,701.844c-.478,0-3.558,7.137-3.891,7.83a74.35,74.35,0,0,0-4.177,10.6,44.286,44.286,0,0,0-1.194,22.464c3.343,14.681,14.466,26.547,18.213,41.514,3.367,13.275,11.889,30.176,8.906,44.119-2.6,12.236-9.459,23.251-15.421,34.495H239.5c-6.775-10.423-13.97-20.577-17.158-32.634-6.4-24.253,1.934-50.42,5.18-74.387,3.629-26.691,13.967-69.446,44.07-77.349-7.061-24.949-69.029-34.9-77.635-35.308-.262,0-.525.239-.811.669-4.13,5.993-13.44,49.249-36.381,47.628-13.967-.716-6.3-46.958-7.809-47.937-.929-.622-5.059.477-6.206.643-6.122.827-13.576.958-18.142,5.229-16.384,15.324-33.44,31.509-33.44,31.509S108.9,701.437,110.046,701.844Z" transform="translate(-91.169 -643.188)" fill="#367696"/>
      </g>
      <path id="Trazado_1396" data-name="Trazado 1396" d="M161.825,840.249c9.339,2.64,15.872,10.357,20.638,19.958h13.088c-6.775-10.423-13.97-20.577-17.158-32.634-6.4-24.253,1.934-50.42,5.18-74.387,3.629-26.691,13.967-69.446,44.07-77.349-5.324-18.811-36.812-26.688-53.141-31.01,11.278,7.428,12.115,14.458,12.724,32.3.359,11.27-3.82,19.291-5.728,29.842-1.53,8.452,1.981,17.045,1,25.4-1.147,9.525-7.638,19.625-16.975,22.968-7.662,2.745-18.31,1.12-26.665-.286,8.069,2.1,16.423,9.929,20.409,16.447,4.442,7.258,3.941,15.922,3.965,24.23,0,12.128-4.442,21.892-15.639,27.861-7.806,4.177-24.374,6.78-29.362,14.062C128.928,848.008,149,836.646,161.825,840.249Z" transform="translate(100.669 113.345)" fill="#367696" opacity="0.3" style="mix-blend-mode: multiply;isolation: isolate"/>
      <g id="Grupo_676" data-name="Grupo 676" transform="translate(182.2 918.989)">
        <path id="Trazado_1397" data-name="Trazado 1397" d="M104.246,709.39s74.922,6.321,96.9-3.22l3.54,24.33s-44.537,19.1-100.44,3.012Z" transform="translate(-104.246 -706.023)" fill="#204659"/>
        <path id="Trazado_1398" data-name="Trazado 1398" d="M146.35,724.881c0,10.367-7.607,18.769-16.993,18.769s-17-8.4-17-18.769,7.609-18.767,17-18.767S146.35,714.516,146.35,724.881Z" transform="translate(-91.066 -706.114)" fill="#699cb5"/>
        <path id="Trazado_1399" data-name="Trazado 1399" d="M145.075,724.558c0,9.976-7.324,18.063-16.358,18.063s-16.355-8.087-16.355-18.063,7.324-18.061,16.355-18.061S145.075,714.584,145.075,724.558Z" transform="translate(-91.066 -705.492)" fill="#84c3e3"/>
        <path id="Trazado_1400" data-name="Trazado 1400" d="M136.358,720.879c0,6.691-4.912,12.117-10.973,12.117s-10.971-5.426-10.971-12.117,4.912-12.117,10.971-12.117S136.358,714.188,136.358,720.879Z" transform="translate(-87.733 -701.814)" fill="#204659"/>
      </g>
      <g id="Grupo_684" data-name="Grupo 684" transform="translate(141.743 575.031)">
        <path id="Trazado_1401" data-name="Trazado 1401" d="M222.619,608.061l-124.1,28.83c-2.165.5.451,14.261.819,15.823,1.514,6.447,4.264,12.511,7.072,18.478,10.27,21.842,25.652,27.394,48.643,26.786,22.729-.6,49.31-.826,60.047-40.147C219.528,641.614,223.3,625.054,222.619,608.061Z" transform="translate(-74.469 -521.391)" fill="#73340a"/>
        <g id="Grupo_677" data-name="Grupo 677" transform="translate(69.258 163.652)">
          <path id="Trazado_1402" data-name="Trazado 1402" d="M141.929,656.722c0,8.365-26.707,8.365-26.707,0V637.4h26.707Z" transform="translate(-115.222 -637.399)" fill="#febd95"/>
          <path id="Trazado_1403" data-name="Trazado 1403" d="M141.929,637.4H115.222v8.268c9.407.425,20.4,5.258,25.571,13.786C142.561,657.543,141.929,657.031,141.929,637.4Z" transform="translate(-115.222 -637.399)" fill="#febd95" opacity="0.5" style="mix-blend-mode: multiply;isolation: isolate"/>
        </g>
        <g id="Grupo_682" data-name="Grupo 682" transform="translate(17.731 42.359)">
          <g id="Grupo_678" data-name="Grupo 678" transform="translate(0 47.077)">
            <path id="Trazado_1404" data-name="Trazado 1404" d="M95.585,619.865c0,5.938,4,10.751,8.924,10.751s4.93-21.5,0-21.5S95.585,613.93,95.585,619.865Z" transform="translate(-95.585 -609.115)" fill="#febd95"/>
            <path id="Trazado_1405" data-name="Trazado 1405" d="M96.645,616.931c0,3.319,2.236,6.012,4.991,6.012s2.755-12.02,0-12.02S96.645,613.612,96.645,616.931Z" transform="translate(-93.864 -606.18)" fill="#febd95"/>
          </g>
          <path id="Trazado_1406" data-name="Trazado 1406" d="M210.035,631.89l-1.4,12.086c-4.044,34.639-2.968,32.755-5.106,38.344-11.538,30.079-41.115,43.448-57.6,40.026-20.981-4.285-39.745-27.465-47.221-53.469V631.89a40.117,40.117,0,0,1,40.134-40.134H169.9a39.458,39.458,0,0,1,8.51.905,2.688,2.688,0,0,1,.409.108A40.091,40.091,0,0,1,210.035,631.89Z" transform="translate(-90.521 -590.227)" fill="#febd95"/>
          <g id="Grupo_679" data-name="Grupo 679" transform="translate(26.578 46.016)">
            <path id="Trazado_1407" data-name="Trazado 1407" d="M106.646,613a1.064,1.064,0,0,1-.436-1.955c.3-.194,7.6-4.718,15.258-.635a1.066,1.066,0,0,1-1,1.881c-6.539-3.487-13.054.514-13.117.554A1.06,1.06,0,0,1,106.646,613Z" transform="translate(-105.714 -608.711)" fill="#4e2a21"/>
          </g>
          <g id="Grupo_680" data-name="Grupo 680" transform="translate(70.558 46.007)">
            <path id="Trazado_1408" data-name="Trazado 1408" d="M137.854,613.018a1.07,1.07,0,0,1-.7-.158c-.063-.042-6.563-4.059-13.115-.588a1.066,1.066,0,0,1-1-1.884c7.667-4.057,14.954.478,15.258.674a1.068,1.068,0,0,1,.328,1.469A1.079,1.079,0,0,1,137.854,613.018Z" transform="translate(-122.475 -608.707)" fill="#4e2a21"/>
          </g>
          <path id="Trazado_1409" data-name="Trazado 1409" d="M208.283,644.923c-4.044,34.639-2.968,32.755-5.106,38.344-11.538,30.079-41.115,43.448-57.6,40.026,38.32-6.3,62.322-48.05,51.488-78.866-4.7-13.293-15.534-23.309-25.98-32.766a52.945,52.945,0,0,1-27.6,11.8q4.168-3.228,8.336-6.46c-11.569,5.536-23.246,11.136-33.112,19.323s-17.88,19.323-19.669,32.012c.367-2.477-.213-5.342-.108-7.864a75.394,75.394,0,0,1,.819-8.187,73.071,73.071,0,0,1,4.332-15.789c1.034-2.543,2.217-5.02,3.49-7.434.861-1.658,1.291-3.445,2.131-5.083,1.984-3.944,6.9-7.281,10.278-10A105.362,105.362,0,0,1,165.371,592.7a94.386,94.386,0,0,1,9.866-1.488c.108-.021.215-.021.3-.042,1.013.8,1.981,1.637,2.931,2.543,8.874,8.184,14.841,19.194,20.593,29.921,3.125,5.817,6.269,11.656,8.273,17.945C207.7,642.682,208,643.8,208.283,644.923Z" transform="translate(-90.171 -591.174)" fill="#febd95" opacity="0.5" style="mix-blend-mode: multiply;isolation: isolate"/>
          <path id="Trazado_1410" data-name="Trazado 1410" d="M116.482,620.2c0,3.776-2.034,6.838-4.545,6.838s-4.542-3.062-4.542-6.838,2.034-6.841,4.542-6.841S116.482,616.425,116.482,620.2Z" transform="translate(-76.406 -555.14)" fill="#4e2a21"/>
          <path id="Trazado_1411" data-name="Trazado 1411" d="M131.121,619.961c0,3.776-2.034,6.838-4.542,6.838s-4.545-3.062-4.545-6.838,2.034-6.841,4.545-6.841S131.121,616.182,131.121,619.961Z" transform="translate(-52.633 -555.534)" fill="#4e2a21"/>
          <path id="Trazado_1412" data-name="Trazado 1412" d="M111.571,628.811h39.21s-5.88,15.741-21.566,15.741C115.491,644.552,111.571,628.811,111.571,628.811Z" transform="translate(-69.624 -530.053)" fill="#fff"/>
          <g id="Grupo_681" data-name="Grupo 681" transform="translate(114.116 47.077)">
            <path id="Trazado_1413" data-name="Trazado 1413" d="M142.773,630.616c-4.93,0-4.93-21.5,0-21.5C154.57,609.115,154.575,630.616,142.773,630.616Z" transform="translate(-139.075 -609.115)" fill="#febd95"/>
            <path id="Trazado_1414" data-name="Trazado 1414" d="M142.773,630.616c-4.93,0-4.93-21.5,0-21.5C154.57,609.115,154.575,630.616,142.773,630.616Z" transform="translate(-139.075 -609.115)" fill="#febd95" opacity="0.3" style="mix-blend-mode: multiply;isolation: isolate"/>
            <path id="Trazado_1415" data-name="Trazado 1415" d="M142.2,622.942c-2.758,0-2.758-12.02,0-12.02C148.8,610.922,148.8,622.942,142.2,622.942Z" transform="translate(-137.352 -606.18)" fill="#febd95"/>
          </g>
        </g>
        <g id="Grupo_683" data-name="Grupo 683">
          <path id="Trazado_1416" data-name="Trazado 1416" d="M202.074,594.42a14.424,14.424,0,0,1,.971,4.763c.4,13.165-10.134,23.637-17.722,33.254a40.671,40.671,0,0,1-6.237,6.809,65.3,65.3,0,0,1-9.929,6.413c-3.178,1.69-7.447,4.1-11.157,3.907,3.311-1.6,6.368-4.917,8.748-7.683s5.526-6.345,5.857-10.149c-.129,1.485-3.2,4.248-4.177,5.366a37.805,37.805,0,0,1-4.865,4.923,81.424,81.424,0,0,1-9.142,6.083,65.57,65.57,0,0,1-6.405,2.766c-8.315,3.737-16.665,7.557-21.157,16.148a25.964,25.964,0,0,1,5.8-15.437c-3.317,2.59-5.977,6.961-8.323,10.454-8.927,13.293-8.654,25.127-8.09,40.38a60.357,60.357,0,0,0,5.007,21.351c3.613,8.124,9.866,13.841,14.938,20.593-14.319-7.528-23.781-22.928-31.81-36.387-20.966-35.127-22.057-78.247,4.844-110.59,16.046-19.292,42.432-25.9,66.426-20.58C184.766,578.826,198.345,584.758,202.074,594.42Z" transform="translate(-88.828 -575.031)" fill="#d16d2b"/>
          <path id="Trazado_1417" data-name="Trazado 1417" d="M132.937,629.428c8.733,10.994,22.215,20.905,27.268,33.652-1.517-3.826,1.839-10.491,6.61-9.079,4.518,1.338,4.117,8.268,3.529,11.784-2.438,14.545.121,20.036-11.354,52.755C184.479,685.694,188.381,628.08,175.148,601c-7.7-15.752-30.7-27.6-41.876-8.179C126.4,604.75,123.845,617.977,132.937,629.428Z" transform="translate(-26.723 -562.543)" fill="#d16d2b"/>
          <path id="Trazado_1418" data-name="Trazado 1418" d="M141.194,579.247a40.961,40.961,0,0,0-21.257,5.524c-13.259,8.192-24.744,22.975-24.067,38.966-.047-2.283,9.005-12.561,17.756-13.684-4.267,2.863-5.849,7.182-6.235,12.1.1-1.28,6.492-5.111,7.707-5.815,2.351-1.362,6.662-3.335,9.431-2.779.262,4.768-4.658,9.153-7.037,12.86,3.435-2.427,10.38-9.394,15.316-7.8,5.012,1.624-5.615,11.4-6.888,12.781q-6.022,6.557-12.044,13.115c-2.855,3.1-7.03,7.515-7.52,11.884.294-3.9,8.3-9.491,11.173-11.755,4.466-3.516,9.609-6.2,14.542-8.987,8.187-4.634,16.707-9.6,23.954-15.642,6.547-5.455,11.871-10.808,16.08-18.286a19.981,19.981,0,0,0,3.018-9.674c-1.115.307-2.133,1.69-3.057,2.472a50.311,50.311,0,0,1-10.491,7.027c-2.994,1.467-6.156,2.364-9.229,3.629a19.731,19.731,0,0,1-4.589,1.7c3.456-2.091,7.6-9.071,7.938-13.164-2.53,1.648-4.513,4.159-6.7,6.224a48,48,0,0,1-10.666,7.289c2.527-3.254,5.274-6.277,7.024-10.053.687-1.483,1.147-3,1.737-4.532a47.75,47.75,0,0,0,1.183-4.8c-2.427,1.167-5.067,3.445-7.376,4.98-2.766,1.837-6.877,5.794-10.37,5.844,3.519-3.705,5.356-8.016,9.9-10.855-5.865-.278-10.4,5.552-15.589,7.229a71.772,71.772,0,0,1,6.051-8.407C133.855,583.23,137.316,581.362,141.194,579.247Z" transform="translate(-77.436 -568.242)" fill="#e68c50"/>
          <path id="Trazado_1419" data-name="Trazado 1419" d="M147.128,628.115c.882-3.5-.1-7.756-1.556-11.078,2.865.575,5.143,4.941,6.292,7.546.352-5.03-2.847-8.843-5.117-12.994,2.679,1.136,4.369,3.571,6.014,5.883.189-3.165-.071-5.482-1.766-8.208,3.128,2.157,6.151,4.214,8.226,7.51,1.317,2.094,1.753,4.532,2.816,6.7.939-12.133-5.71-23.736-13.353-32.637-1.779-2.073-3.9-3.555-5.862-5.4,3.592,3.382,9.234,12.367,8.344,17.722a79.718,79.718,0,0,0-10.181-9.428c2.1,3.065,2.787,7.035,4.76,10.1-2.9.645-5.374-2.414-6.715-4.66-.108,3.676,2.228,6.384,2.54,9.782.068.758-3.713-.782-3.978-.976a11.593,11.593,0,0,1-3.162-4.057c-1.923-3.642-3.165-11.679-3.165-11.679s-.5,4.639-.441,7c.176,7.158,2.569,13.789,8.14,18.5C142.386,620.639,145.842,623.652,147.128,628.115Z" transform="translate(-20.633 -558.12)" fill="#e68c50"/>
        </g>
      </g>
      <path id="Trazado_1420" data-name="Trazado 1420" d="M150.464,736.985l9.6,63.954-4.786,42.306H184.31c2.805-15.468,4.915-29.932,5.056-39.081.54-35.455-1.871-64.468-2.855-88.053-2.3-55.114-7.024-60.842-7.024-60.842-26.812,5.39-34.97,42.07-34.97,42.07l5.891,39.21Z" transform="translate(143.355 130.306)" fill="#febd95"/>
      <g id="Grupo_685" data-name="Grupo 685" transform="translate(134.51 668.009)">
        <path id="Trazado_1421" data-name="Trazado 1421" d="M94.632,610.465s-8.245,2.068-5.594,16.416,17.179,57.468,17.179,57.468,6.166,5.639,9.842,4.377,2.913-9.514,2.913-9.514Z" transform="translate(-82.105 -610.465)" fill="#161c4f"/>
        <path id="Trazado_1422" data-name="Trazado 1422" d="M108.753,642.83a7,7,0,0,1-3.744,1.462,19.63,19.63,0,0,1-5.51-.123c-1.64-.223-3.629-.727-3.765-2.837-.142-2.17,2.354-3,3.8-3.758,2.346-1.223,5.914-2.963,8.78-1.632,1.973.916,2.348,3.183,1.674,5.012A4.578,4.578,0,0,1,108.753,642.83Z" transform="translate(-70.39 -569.868)" fill="#febd95"/>
        <path id="Trazado_1423" data-name="Trazado 1423" d="M110.643,640.238a3.967,3.967,0,0,1-.787.8c-2.753,2.057-7,2.22-10.257,2.212-1.973-.005-4.392-.3-4.8-2.871-.422-2.642,2.446-4.078,4.078-5.245,2.642-1.889,6.678-4.613,10.233-3.448C112.412,632.762,112.506,637.766,110.643,640.238Z" transform="translate(-71.968 -576.465)" fill="#febd95"/>
        <path id="Trazado_1424" data-name="Trazado 1424" d="M108.916,636.056a4.25,4.25,0,0,1-.653.926c-2.393,2.516-6.5,3.377-9.677,3.9-1.921.32-4.316.422-5.072-2.091-.779-2.585,1.811-4.5,3.238-5.938,2.306-2.328,5.857-5.726,9.478-5.14C109.593,628.257,110.386,633.267,108.916,636.056Z" transform="translate(-74.217 -582.561)" fill="#febd95"/>
        <path id="Trazado_1425" data-name="Trazado 1425" d="M105.132,632.5a3.594,3.594,0,0,1-.569.8c-2.081,2.188-5.655,2.939-8.415,3.4-1.669.278-3.752.367-4.411-1.821-.677-2.246,1.574-3.907,2.816-5.161,2.007-2.026,5.093-4.98,8.245-4.471C105.72,625.723,106.408,630.076,105.132,632.5Z" transform="translate(-77.072 -586.552)" fill="#febd95"/>
        <path id="Trazado_1426" data-name="Trazado 1426" d="M86.071,665.5a9.585,9.585,0,0,0,4.495,6.919c4.188,2.6,9.42,4.416,10.045,4.322s9.124-2.645,13.206-6.864,8.153-9.514,8.153-9.514l-.493-9.57-1.692-5.922-5.967-9.071-4.959-9.05s-5.7.021-9.41,2.351-7.158,8.237-8.389,11.931S86.071,665.5,86.071,665.5Z" transform="translate(-86.071 -584.015)" fill="#febd95"/>
      </g>
    </g>
  </g>
</svg>
