<svg xmlns="http://www.w3.org/2000/svg" xmlns:xlink="http://www.w3.org/1999/xlink" width="812.5" height="451.324" viewBox="0 0 812.5 451.324">
  <defs>
    <clipPath id="clip-path">
      <ellipse id="SVGID" cx="20.265" cy="21.04" rx="20.265" ry="21.04" fill="none"/>
    </clipPath>
  </defs>
  <g id="Grupo_673" data-name="Grupo 673" transform="translate(0.5)">
    <path id="Trazado_1341" data-name="Trazado 1341" d="M780.456,564.139a107.1,107.1,0,0,0-4.976-54.754c-14.529-40.5-50.746-69.216-92.141-73.142a108.817,108.817,0,0,0-80,24.174c-21.293-55.581-75.025-93.8-135.523-93.8h-1.195c-74.627.62-139.3,62.193-143.683,137.4a146.7,146.7,0,0,0,6.17,51.86c-49.353,12.191-84.776,56.407-84.776,109.093,0,60.745,37.811,125.623,143.681,125.623H730.9c67.263,0,112.44-64.878,112.441-125.415A112.786,112.786,0,0,0,780.456,564.139Z" transform="translate(-115.671 -366.613)" fill="#97bff0"/>
    <g id="Grupo_30" data-name="Grupo 30" transform="translate(0 424.788)">
      <path id="Rectángulo_2" data-name="Rectángulo 2" d="M266.382,923.86h797.232c4.077,0,7.382,2.777,7.382,6.2h0v14.131c0,3.426-3.306,6.2-7.382,6.2H266.382c-4.077,0-7.382-2.777-7.382-6.2h0V930.065c0-3.427,3.307-6.2,7.386-6.2h0Z" transform="translate(-258.997 -923.86)" fill="#3700b1"/>
      <path id="Trazado_41" data-name="Trazado 41" d="M1071,936.666v.61H259v-.61c0-7.072,6.744-12.806,15.066-12.806h781.857C1064.244,923.859,1070.993,929.593,1071,936.666Z" transform="translate(-258.996 -923.86)" fill="#542bd8"/>
    </g>
    <g id="Grupo_29" data-name="Grupo 29" transform="translate(128.661 21.061)">
      <g id="Grupo_27" data-name="Grupo 27" transform="translate(0 1.513)">
        <g id="Grupo_7" data-name="Grupo 7" transform="translate(163.66 231.254)">
          <path id="Trazado_13" data-name="Trazado 13" d="M706.275,885.028a19.382,19.382,0,0,1,.466-23.229,15.155,15.155,0,0,1,3.315-3.116c6.562-4.438,19.486-16.259,25.313-10.134,2.126,2.236-5.95,4.665-8.9,11.173a107.723,107.723,0,0,0,16.767,3.654c6.456.673,18.665,3.388,24.309,4.687a1.633,1.633,0,0,1,.219,3.107c-2.419.778-6.945,1.091-15.406-.479,0,0,20.223,4.827,20.969,8.648s-24.424-2.68-24.424-2.68,18.694,7.129,17.978,10.284c-.435,1.92-20.995-2.516-20.995-2.516s17.057,8.262,11.754,9.176c-1.542.271-36.986,3.027-48.146-4.95A21.332,21.332,0,0,1,706.275,885.028Z" transform="translate(-610.831 -748.292)" fill="#f7ad89"/>
          <path id="Trazado_1342" data-name="Trazado 1342" d="M601,793.941l7.7-52.179,54.307,96.325s10.472,2.248,42.009,16.812l-5.305,19.846s-42.866.125-57.859-10.722A407.745,407.745,0,0,1,601,830.067Z" transform="translate(-601.003 -741.762)" fill="#542bd8"/>
        </g>
        <g id="Grupo_11" data-name="Grupo 11" transform="translate(0 195.229)">
          <path id="Trazado_14" data-name="Trazado 14" d="M591.512,910.333c-11.275-44.7-3.267-94.223-1.826-126.151.591-12.977,1.5-44.807,1.5-44.807-5.647-4.968-36.231-29.514-36.231-29.514l-30.584-6.511s-62.012,11.174-79.945,38.31c-6.059,9.16-11.116,38.561-15.249,72.5q-.245,2.029-.492,4.07c-3.715,31.43-6.656,66.17-8.86,92.106Z" transform="translate(-419.824 -703.35)" fill="#6b5efd"/>
          <g id="Grupo_8" data-name="Grupo 8" transform="translate(88.147 17.029)">
            <path id="Trazado_15" data-name="Trazado 15" d="M544.574,750.774a1.6,1.6,0,0,0,.269-3.166c-18.757-3.5-24.356-24.694-24.41-24.907a1.534,1.534,0,0,0-1.877-1.141,1.6,1.6,0,0,0-1.1,1.95h0c.241.955,6.126,23.38,26.842,27.239A1.341,1.341,0,0,0,544.574,750.774Z" transform="translate(-517.407 -721.507)" fill="#542bd8"/>
          </g>
          <g id="Grupo_9" data-name="Grupo 9" transform="translate(63.529 133.009)">
            <path id="Trazado_16" data-name="Trazado 16" d="M499.322,895.725c21.24,0,41.287-11.524,54.983-21.846a179.393,179.393,0,0,0,27.751-26.063,1.64,1.64,0,0,0-.152-2.252,1.5,1.5,0,0,0-2.169.157h0l-.021.026a176.091,176.091,0,0,1-27.268,25.587c-14.9,11.213-37.491,23.912-60.53,20.689a1.548,1.548,0,0,0-1.746,1.346,1.59,1.59,0,0,0,1.277,1.81l.058.008A56.655,56.655,0,0,0,499.322,895.725Z" transform="translate(-490.153 -845.173)" fill="#542bd8"/>
          </g>
          <g id="Grupo_10" data-name="Grupo 10" transform="translate(85.063 175.076)">
            <path id="Trazado_17" data-name="Trazado 17" d="M516.722,911.3c27.326,0,47.161-17.731,48.005-18.5a1.64,1.64,0,0,0,.1-2.256,1.5,1.5,0,0,0-2.125-.147c-.2.179-19.845,17.708-46.011,17.708-.376,0-.747,0-1.123-.01h-.025a1.6,1.6,0,0,0-.027,3.191h0C515.914,911.3,516.322,911.3,516.722,911.3Z" transform="translate(-513.993 -890.028)" fill="#542bd8"/>
          </g>
        </g>
        <g id="Grupo_26" data-name="Grupo 26" transform="translate(12.035 221.165)">
          <path id="Trazado_36" data-name="Trazado 36" d="M675.855,872.7s27.524-.963,40.517,6.305,29.5,12.394,28.253,17.841-18.981-1.793-18.981-1.793-1.968,9.758-14.032,16.364-43.988-10.473-43.988-10.473Z" transform="translate(-455.82 -739.809)" fill="#f7ad89"/>
          <g id="Grupo_25" data-name="Grupo 25">
            <path id="Trazado_37" data-name="Trazado 37" d="M458.012,731c19.43,20.214,73.508,91.617,88.168,98.281,19.085,8.679,77.164,28.748,106.669,34.676,5.324,1.071-5.772,28.435-5.772,28.435s-82.869-7.091-115.271-20.015c-9.164-3.658-40.765-28.736-69.877-55.927-9-8.411-29.041-23.775-28.779-39.945C433.565,751.36,446.212,736.728,458.012,731Z" transform="translate(-433.147 -731.005)" fill="#542bd8"/>
          </g>
        </g>
        <g id="Grupo_553" data-name="Grupo 553" transform="translate(69.933)">
          <g id="Grupo_475" data-name="Grupo 475" transform="translate(31.771 180.853)">
            <path id="Trazado_1042" data-name="Trazado 1042" d="M532.756,713.516c-3.825,12.223,25.687,22.179,29.517,9.951l7.978-25.494-29.516-9.952Z" transform="translate(-532.415 -688.021)" fill="#f7ad89"/>
            <g id="Grupo_474" data-name="Grupo 474" transform="translate(0.031)" opacity="0.5">
              <path id="Trazado_1043" data-name="Trazado 1043" d="M532.76,713.516l7.979-25.5,29.516,9.952-4.536,14.494a41.467,41.467,0,0,0-31.411,8.368A7.956,7.956,0,0,1,532.76,713.516Z" transform="translate(-532.45 -688.021)" fill="#ffbe92"/>
            </g>
          </g>
          <g id="Grupo_481" data-name="Grupo 481">
            <g id="Grupo_476" data-name="Grupo 476" transform="translate(121.14 121.038)">
              <path id="Trazado_1044" data-name="Trazado 1044" d="M641.045,624.872c4.511-.578,9.816-1.771,13.573,2.177,5,5.26-.545,13.258-3.359,17.911-4.443,7.351-12.847,15.838-19.909,10.555Z" transform="translate(-631.35 -624.243)" fill="#ffbe92"/>
              <path id="Trazado_1045" data-name="Trazado 1045" d="M645.961,630.426a12.962,12.962,0,0,1,4.271.174,3.084,3.084,0,0,1,1.443.881c2.091,2.174-1.543,7.52-3.495,10.391l-.64.949c-2.876,4.3-6.3,7.245-8.841,8.337A72.853,72.853,0,0,1,645.961,630.426Z" transform="translate(-632.06 -624.621)" fill="#f2a46e"/>
            </g>
            <path id="Trazado_1046" data-name="Trazado 1046" d="M506.52,603.305c-5.416,35.348.732,89.181,40.905,99.414,1.9.471,3.742.924,5.555,1.262,6.908,1.422,13.307,1.74,20.53-.7,8.308-2.827,15.671-8.1,22.049-14.221a126.323,126.323,0,0,0,32.261-52.9,141.74,141.74,0,0,0,6.4-25.056q.781-4.763,1.089-9.591c.771-12.125-.719-23.416-4.961-33.119-6.188-14.26-18.311-25.142-37.672-30.388-28.219-7.643-50.336-.153-65.342,16.714C516.594,566.814,509.509,583.725,506.52,603.305Z" transform="translate(-497.977 -497.659)" fill="#f7ad89"/>
            <g id="Grupo_477" data-name="Grupo 477" transform="translate(6.859 57.07)" opacity="0.5">
              <path id="Trazado_1047" data-name="Trazado 1047" d="M506.519,604.613c-5.416,35.348.733,89.181,40.905,99.414,1.9.471,3.742.924,5.555,1.261-33.151-16.933-38.372-46.344-39.181-74.515-1.9-64.592,41.975-45.855,52.309-43.674,13.628,2.874,25.429,3.594,38.1-2.584,3.631-1.77,8.5-3.677,11.719-6.187.073,9.477,5.889,17.742,13.232,23.038-3.181-6.872-.5-18.858-6.738-23.8-8.68-6.882-24.523-8.739-35.065-9.86a264.448,264.448,0,0,1-45.388-9.232,56.151,56.151,0,0,0-14.639-2.441C516.592,568.122,509.509,585.031,506.519,604.613Z" transform="translate(-504.836 -556.035)" fill="#ffbe92"/>
            </g>
            <g id="Grupo_479" data-name="Grupo 479">
              <path id="Trazado_1048" data-name="Trazado 1048" d="M515.833,589.474c-3.667-2.791-7.733-6.523-12.872-4.976-6.835,2.061-5.762,11.844-5.494,17.334.423,8.668,3.767,20.334,12.417,19.3Z" transform="translate(-497.243 -500.712)" fill="#ffbe92"/>
              <g id="Grupo_478" data-name="Grupo 478" transform="translate(0 83.423)" opacity="0.5">
                <path id="Trazado_1049" data-name="Trazado 1049" d="M515.833,589.474c-3.667-2.791-7.733-6.523-12.872-4.976-6.835,2.061-5.762,11.844-5.494,17.334.423,8.668,3.767,20.334,12.417,19.3Z" transform="translate(-497.243 -584.135)" fill="#ffbe92"/>
              </g>
              <path id="Trazado_1050" data-name="Trazado 1050" d="M643.554,600.512c-.075.13-.151.257-.225.385-2.487,4.172-4.986,8.321-7.594,12.534-1.8,2.913-5.087,9.406-5.087,9.406s-5.039,19.926-8.394,20.1c-.063-2.641,8.14-31.8,7.929-33.395a55.11,55.11,0,0,0-2-10.109c-2.213-6.4-7.113-10.636-8.649-17.571-.67-3.015-1.67-10.306-1.67-10.306s-17.776,8.423-28.066,8.743a134.615,134.615,0,0,1-33.338-3.356c-8.332-1.992-17.221-5.919-25.545-2.363-14.247,6.076-15.091,20-19.735,33.165-.93-.03-.654.084-1.424-.431-1.225-.815,1.936-10.129,2.4-11.637,1.852-6.122,3.542-17.415-6.305-16.864-3.151.175-2.579-14.608-2.315-15.781,1.779-8.255,2.9-16.19,6.065-24.1,9.128-22.785,30.506-40.555,54.9-43.33,24.9-2.827,55.751,8.643,68.083,32.656.812,1.576,1.293,5.326,2.429,6.417,1.392,1.343,5.641,1.379,7.578,2.382,9.366,4.857,11.6,19.271,11.668,29.193C654.323,577.629,649.291,590.775,643.554,600.512Z" transform="translate(-497.83 -495.183)" fill="#2e3062"/>
              <path id="Trazado_1051" data-name="Trazado 1051" d="M510.255,592.231c-7.873-5.385-8.161.3-7.208,10.012.486,5.215,2.091,9.514,3.795,11.761A73.442,73.442,0,0,0,510.255,592.231Z" transform="translate(-497.767 -501.086)" fill="#da8751"/>
            </g>
            <path id="Trazado_1190" data-name="Trazado 1190" d="M610.164,687.476c-6.744,14.89-28.463,28.895-49.883,24.381a96.361,96.361,0,0,1-16.3-4.382c-31.477-11.593-41.7-41.087-42.66-52.934-.64-7.878,8.256-39.712,8.256-39.712l3.287-4.092c-2.07,12.5-3.184,31.623,3.454,39.162,3.982,4.523,7.468,5.088,10.86,7.073,9.054,5.289,8.3-10.538,29.114,0,7.479,3.783,20.632,4.636,29.039,8.038,7.21,2.919,9.75,8.491,15,9.455a16.322,16.322,0,0,0,2.1.255c8.957.6,11.2-6.766,17.594-20.938.355-.808,3.079-1.476,3.454-2.339,0,0-.226.836-.668,2.339A282.577,282.577,0,0,1,610.164,687.476Z" transform="translate(-497.635 -502.365)" fill="#55578d"/>
            <path id="Trazado_1052" data-name="Trazado 1052" d="M590.286,674.841,543.4,660.94S558.507,709.806,590.286,674.841Z" transform="translate(-501.706 -505.485)" fill="#fff"/>
            <g id="Grupo_480" data-name="Grupo 480" transform="translate(47.927 113.495)">
              <path id="Trazado_1053" data-name="Trazado 1053" d="M601.435,636.636c-1.143,4.155.062,8.155,2.693,8.934s5.688-1.956,6.831-6.114-.062-8.16-2.693-8.933S602.578,632.481,601.435,636.636Z" transform="translate(-555.204 -617.081)" fill="#2e3062"/>
              <path id="Trazado_1054" data-name="Trazado 1054" d="M550.734,622.443c-1.145,4.155.061,8.155,2.691,8.934s5.689-1.958,6.833-6.114-.061-8.16-2.693-8.933S551.876,618.288,550.734,622.443Z" transform="translate(-550.301 -616.199)" fill="#2e3062"/>
            </g>
            <path id="Trazado_1055" data-name="Trazado 1055" d="M606.119,613.649s12.263.552,18.832,6.643l.891-2.11s-10.381-8.991-21.274-9.694Z" transform="translate(-507.621 -502.225)" fill="#2e3062"/>
            <path id="Trazado_1056" data-name="Trazado 1056" d="M568.083,606s-11.352-4.891-19.8-2.262l.056-2.31s13.085-3.575,23.256.578Z" transform="translate(-502.178 -501.698)" fill="#2e3062"/>
          </g>
        </g>
      </g>
      <g id="Grupo_28" data-name="Grupo 28" transform="translate(147.509 239.873)">
        <rect id="Rectángulo_1" data-name="Rectángulo 1" width="221.318" height="27.663" rx="2.789" transform="translate(0 136)" fill="#001030"/>
        <path id="Trazado_38" data-name="Trazado 38" d="M814.985,913l41.6-147.27c2.338-8.271-4.257-16.388-13.314-16.388H751.735a13.686,13.686,0,0,0-13.268,9.5L692.656,913Z" transform="translate(-593.714 -749.339)" fill="#2e3062"/>
        <path id="Trazado_39" data-name="Trazado 39" d="M737.376,758.851,691.952,911.738H681.49l45.427-152.887a13.709,13.709,0,0,1,13.275-9.512h10.456A13.714,13.714,0,0,0,737.376,758.851Z" transform="translate(-592.635 -749.339)" fill="#001030"/>
        <path id="Trazado_40" data-name="Trazado 40" d="M769.36,841.074c-2.342,10.432,4.089,18.856,14.365,18.819s20.506-8.525,22.847-18.956-4.091-18.856-14.366-18.819S771.7,830.643,769.36,841.074Z" transform="translate(-601.085 -753.862)" fill="#524e82"/>
      </g>
      <g id="Grupo_653" data-name="Grupo 653" transform="translate(42.78)">
        <path id="Trazado_1343" data-name="Trazado 1343" d="M487.611,565.013a10.021,10.021,0,0,0-2.6-.345,10.4,10.4,0,0,0-9.992,8.038l-7.508,30.1a10.779,10.779,0,0,0,7.41,13.07l2.751.739,12.686-50.867Z" transform="translate(-467.184 -497.989)" fill="#1f234f"/>
        <g id="Grupo_652" data-name="Grupo 652" transform="translate(149.091 98.264)">
          <path id="Trazado_1344" data-name="Trazado 1344" d="M674.077,603.322l-14.288-4.66a6.423,6.423,0,0,0-1.643-.308c-2.994-.158-6.652,1.994-7.552,4.968l-17.985,57.826c-1.089,3.6,1.815,8.765,5.279,9.895l14.287,4.66a6.434,6.434,0,0,0,1.643.308,6.6,6.6,0,0,0,6.612-4.781l17.955-59.336A6.9,6.9,0,0,0,674.077,603.322Z" transform="translate(-632.377 -598.346)" fill="#1f234f"/>
          <path id="Trazado_1345" data-name="Trazado 1345" d="M681.7,618.11l-2.711-.884-15.168,50.13,2.71.883a10.035,10.035,0,0,0,2.577.482,10.351,10.351,0,0,0,10.373-7.5l8.977-29.668A10.819,10.819,0,0,0,681.7,618.11Z" transform="translate(-635.288 -599.52)" fill="#1f234f"/>
        </g>
        <path id="Trazado_1346" data-name="Trazado 1346" d="M646.241,530.1a81.573,81.573,0,0,0-46.612-33.817,78.791,78.791,0,0,0-20.444-2.712c-32.507,0-61.7,19.906-74.659,50.806l12.89,3.465c11.126-25.1,35.385-41.265,62.02-41.265a66.039,66.039,0,0,1,17.136,2.272,68.412,68.412,0,0,1,38.644,27.707,73,73,0,0,1,12.338,46.271l12.745,3.427A87.061,87.061,0,0,0,646.241,530.1Z" transform="translate(-470.794 -493.57)" fill="#1f234f"/>
        <path id="Trazado_1347" data-name="Trazado 1347" d="M504.719,546.1s-6.323,11.254-6.323,14.068l16.26,4.689s2.71-12.192,2.71-15.005Z" transform="translate(-470.202 -496.835)" fill="#1f234f"/>
        <path id="Trazado_1348" data-name="Trazado 1348" d="M662.644,586.671S659.4,600.2,659.4,603.016l16.26,2.813s-.153-14.031-.153-16.845Z" transform="translate(-485.77 -499.356)" fill="#1f234f"/>
        <path id="Trazado_1349" data-name="Trazado 1349" d="M573.505,701.321a10.315,10.315,0,0,0-6.312-4.942l-36.245-9.743a9.964,9.964,0,0,0-2.558-.335,10.216,10.216,0,0,0-8.564,4.729l-.357.55-.619-.166-15.15-4.073c-14.472-3.891-23.2-19.28-19.449-34.306l4.692-18.815.227-.908.874.235,3.625.974a6.4,6.4,0,0,0,1.656.22c3,0,7.623-3.148,8.375-6.165l14.4-57.7c.441-1.768-1.2-5.076-2.09-6.65a6.573,6.573,0,0,0-4.023-3.15l-14.5-3.9a6.378,6.378,0,0,0-1.656-.22,6.631,6.631,0,0,0-6.369,5.124l-15.017,60.21a6.872,6.872,0,0,0,4.724,8.332l3.624.974.874.235-.226.908-4.693,18.816c-4.533,18.174,6.021,36.788,23.526,41.494l15.15,4.073.618.166.055.66a10.644,10.644,0,0,0,7.673,9.448l36.242,9.743a10.025,10.025,0,0,0,2.6.345,10.4,10.4,0,0,0,9.992-8.038A11.008,11.008,0,0,0,573.505,701.321Z" transform="translate(-467.866 -497.51)" fill="#1f234f"/>
      </g>
    </g>
    <g id="Grupo_655" data-name="Grupo 655" transform="translate(666.228 147.335)">
      <g id="Grupo_654" data-name="Grupo 654" transform="translate(0 0)">
        <path id="Trazado_1350" data-name="Trazado 1350" d="M909.985,590.565l14.713,6.978c15.489,7.346,40.757-17.111,57.384-54.9s17.324-73.414,2.4-80.978l-14.714-6.978c-5.421-2.571-12.189.049-15.23,5.9L944.634,483.1c-3.537,8.04,2.294,17.122,10.468,16.626,5.708-.208,11.2,4.338,11.4,10.264,1.6,13.391-8.166,34.513-18.4,41.809a11.176,11.176,0,0,1-14.933-2.224c-4.991-6.74-15.421-5.371-18.959,2.67l-9.9,22.512C901.829,580.38,904.353,587.408,909.985,590.565Z" transform="translate(-903.355 -453.699)" fill="#00bd00" stroke="#6168ff" stroke-miterlimit="10" stroke-width="2"/>
      </g>
    </g>
    <g id="Grupo_69" data-name="Grupo 69" transform="translate(564.685 70.625)">
      <path id="Rectángulo_4" data-name="Rectángulo 4" d="M2.413.542,138.741,0a2.071,2.071,0,0,1,2.12,2.043l-.276,66.895A2.112,2.112,0,0,1,138.448,71L2.12,71.54A2.071,2.071,0,0,1,0,69.5L.276,2.6A2.112,2.112,0,0,1,2.413.542Z" transform="translate(0 143.043) rotate(-83.771)" fill="#524e82"/>
      <g id="Grupo_35" data-name="Grupo 35" transform="translate(1.264 0)">
        <g id="Grupo_34" data-name="Grupo 34">
          <g id="Grupo_33" data-name="Grupo 33" transform="translate(33.012 5.15)">
            <path id="Trazado_45" data-name="Trazado 45" d="M824.286,425.065l-2.66,2.447a3.456,3.456,0,0,0-1.062,2.182,3.025,3.025,0,0,1-3.15,2.9l-22.625-2.564a3.084,3.084,0,0,1-2.475-3.535,3.512,3.512,0,0,0-.583-2.369l-2.089-2.985Z" transform="translate(-789.642 -421.139)" fill="#2e3062"/>
            <path id="Elipse_2" data-name="Elipse 2" d="M1.349,0a1.257,1.257,0,0,1,1.34,1.171A1.281,1.281,0,0,1,1.34,2.352,1.257,1.257,0,0,1,0,1.182,1.281,1.281,0,0,1,1.349,0Z" transform="translate(24.879 8.269) rotate(-83.771)" fill="#524e82"/>
            <path id="Rectángulo_3" data-name="Rectángulo 3" d="M797.532,425.512l16.886,1.914a.6.6,0,0,1,.484.691l-.149,1.416a.591.591,0,0,1-.616.566l-16.886-1.913a.6.6,0,0,1-.483-.691l.149-1.416A.592.592,0,0,1,797.532,425.512Z" transform="translate(-791.376 -422.077)" fill="#524e82"/>
          </g>
          <path id="Trazado_1351" data-name="Trazado 1351" d="M824.719,421.131l-57.454-6.511c-3.613-.412-6.9,2.606-7.333,6.74h0v.008h0L746.052,553.377c-.435,4.137,2.143,7.823,5.758,8.233h0l57.453,6.511c3.616.41,6.9-2.611,7.334-6.748l13.879-132.008C830.914,425.227,828.335,421.541,824.719,421.131ZM813.286,561.452a3.094,3.094,0,0,1-3.214,2.974h0l-58.26-6.6a3.158,3.158,0,0,1-2.541-3.62l13.975-132.922a3.532,3.532,0,0,1,.1-.536,3.253,3.253,0,0,1,1.974-2.3,2.558,2.558,0,0,1,.6-.14,2.662,2.662,0,0,1,.56,0l58.245,6.6a3.164,3.164,0,0,1,2.537,3.626Z" transform="translate(-746.004 -414.582)" fill="#2e3062"/>
        </g>
      </g>
      <g id="Grupo_68" data-name="Grupo 68" transform="translate(21.74 113.859)">
        <ellipse id="Elipse_4" data-name="Elipse 4" cx="6.363" cy="6.606" rx="6.363" ry="6.606" fill="#f43853"/>
        <path id="Trazado_78" data-name="Trazado 78" d="M780.36,567.314s-1.119-.193-1.291.084c-.256.411-.12,1.4-1.455,1.166s-.766-1.357-.577-1.678.519-.909,3.428-.579,3.109.976,3.226,1.334.44,1.579-.911,1.508-1.015-1.006-1.178-1.464C781.492,567.377,780.36,567.314,780.36,567.314Z" transform="translate(-773.968 -560.977)" fill="#fff"/>
        <ellipse id="Elipse_4-2" data-name="Elipse 4" cx="6.363" cy="6.606" rx="6.363" ry="6.606" transform="translate(21.407 2.426)" fill="#00bd00"/>
        <path id="Trazado_78-2" data-name="Trazado 78" d="M808.811,570.267s.6,1,.917.947c.465-.074,1.088-.835,1.806.357s-.47,1.495-.826,1.56-1,.2-2.693-2.278-1.359-3.063-1.18-3.391.846-1.389,1.692-.293-.052,1.455-.274,1.886C808.105,569.346,808.811,570.267,808.811,570.267Z" transform="translate(-781.255 -561.079)" fill="#fff"/>
      </g>
      <g id="Grupo_657" data-name="Grupo 657" transform="translate(27.085 30.519)">
        <g id="Grupo_656" data-name="Grupo 656" clip-path="url(#clip-path)">
          <path id="Trazado_1620" data-name="Trazado 1620" d="M0,0,49.818.205l.216,54.271L.216,54.271Z" transform="translate(-2.096 -4.102) rotate(6.229)" fill="#fff"/>
          <g id="Grupo_66" data-name="Grupo 66" transform="translate(-0.53 3.008)">
            <g id="Grupo_65" data-name="Grupo 65">
              <g id="Grupo_54" data-name="Grupo 54" transform="translate(0 28.538)">
                <g id="Grupo_51" data-name="Grupo 51">
                  <g id="Grupo_50" data-name="Grupo 50">
                    <g id="Grupo_49" data-name="Grupo 49">
                      <path id="Trazado_54" data-name="Trazado 54" d="M813.223,507.624l-1.041,9.9a1.493,1.493,0,0,1-1.627,1.364h0L780.76,515.51a1.526,1.526,0,0,1-1.316-1.695h0l1.041-9.9c.514-4.893,2.7-6.353,2.7-6.353a27.775,27.775,0,0,1,6.4-2.56c.039-.015,6-1.375,6.041-1.4l5.965,1.12c.677.522,4.545,2.22,6.8,3.7.341.225.542.356.738.5a9.293,9.293,0,0,1,3.126,3.4A14.229,14.229,0,0,1,813.223,507.624Z" transform="translate(-779.436 -493.604)" fill="#ff495a"/>
                    </g>
                  </g>
                </g>
                <g id="Grupo_52" data-name="Grupo 52" transform="translate(3.961 14.87)">
                  <path id="Trazado_55" data-name="Trazado 55" d="M787.018,512.942l-1.753,7-.593-.068,1.774-7.084a.3.3,0,0,1,.345-.247.307.307,0,0,1,.237.358A.415.415,0,0,1,787.018,512.942Z" transform="translate(-784.672 -512.536)" fill="#e21c47"/>
                </g>
                <g id="Grupo_53" data-name="Grupo 53" transform="translate(28.56 19.163)">
                  <path id="Trazado_56" data-name="Trazado 56" d="M817.88,523.911l-.593-.067-.1-5.544a.3.3,0,0,1,.591-.01Z" transform="translate(-817.189 -518.002)" fill="#e21c47"/>
                </g>
                <path id="Trazado_57" data-name="Trazado 57" d="M808.129,509.423l6.314.716s-.438,5.812-3.733,5.438C807.307,515.191,808.129,509.423,808.129,509.423Z" transform="translate(-786.401 -496.998)" fill="#e21c47"/>
              </g>
              <g id="Grupo_64" data-name="Grupo 64" transform="translate(10.263)">
                <path id="Trazado_58" data-name="Trazado 58" d="M811.826,470.12s3.489-.837,3.438-3.589c-.042-2.341-2.669-1.125-2.262-2.905s1.061-3.368-1.015-4.059c-1.816-.606-2,.791-4.223-1.517-2.632-2.726-5.431,2.579-8.022,2.454-3.822-.184-4.549,2.121-5.121,3.967s1.031,4.27,1.031,4.27Z" transform="translate(-793.366 -457.269)" fill="#2e3062"/>
                <g id="Grupo_57" data-name="Grupo 57" transform="translate(16.423 15.938)">
                  <path id="Trazado_59" data-name="Trazado 59" d="M815.767,478.376s1.615-1.793,2.495-.059-1.105,6.334-3.551,4.879Z" transform="translate(-814.711 -477.562)" fill="#fa8465"/>
                  <g id="Grupo_55" data-name="Grupo 55" transform="translate(0.521 1.775)">
                    <path id="Trazado_60" data-name="Trazado 60" d="M815.594,482.271a.217.217,0,0,0,.225-.141,3.394,3.394,0,0,1,2.1-1.861.227.227,0,0,0,.157-.276.217.217,0,0,0-.266-.163h0a3.789,3.789,0,0,0-2.4,2.132.23.23,0,0,0,.122.295h0A.206.206,0,0,0,815.594,482.271Z" transform="translate(-815.399 -479.822)" fill="#fa664d"/>
                  </g>
                  <g id="Grupo_56" data-name="Grupo 56" transform="translate(1.424 2.518)">
                    <path id="Trazado_61" data-name="Trazado 61" d="M817.446,481.9a.21.21,0,0,0,.121-.023.232.232,0,0,0,.1-.3h0a2.028,2.028,0,0,0-.743-.774.213.213,0,0,0-.3.081.232.232,0,0,0,.078.31h0a1.61,1.61,0,0,1,.573.585A.221.221,0,0,0,817.446,481.9Z" transform="translate(-816.593 -480.768)" fill="#fa664d"/>
                  </g>
                </g>
                <path id="Trazado_62" data-name="Trazado 62" d="M800.506,488.415l-.5,4.743s1.108,2.57,2.934,2.943,3.7-1.686,3.7-1.686l.517-4.91Z" transform="translate(-794.708 -463.952)" fill="#f7ad89"/>
                <path id="Trazado_63" data-name="Trazado 63" d="M800.6,488.415l-.221,2.1c1.086,1.565,3.245,2.169,6.546,2.039l.321-3.053Z" transform="translate(-794.797 -463.952)" fill="#fa8465"/>
                <path id="Trazado_64" data-name="Trazado 64" d="M812.146,474.459c-.066.477-.143.973-.235,1.482-.033.187-.068.377-.106.566-.151.772-.337,1.565-.561,2.349l0,.011c0,.013-.008.031-.016.059l-.048.161c-.033.109-.067.221-.1.334-.052.172-.11.349-.17.529-1.029,3.008-2.712,5.7-5.47,6.38-6.551,1.62-8.523-3.768-9.235-7.417-.051-.248-.092-.49-.129-.72-.063-.391-.113-.826-.149-1.286v0a.128.128,0,0,1,0-.018v0c-.078-1-.092-2.134-.073-3.255.016-.975.06-1.94.11-2.8a5.119,5.119,0,0,1,.323-1.517c.043-.114.091-.229.143-.339.028-.057.054-.112.082-.167.056-.108.116-.214.178-.319s.131-.206.2-.3.145-.194.222-.287v0a5.006,5.006,0,0,1,.368-.4,4.854,4.854,0,0,1,1.018-.752c.105-.058.214-.113.326-.163a4.8,4.8,0,0,1,.7-.25c2.876-.789,7.16-1.185,10.888,1.6a4.963,4.963,0,0,1,1.732,2.415c.034.1.064.2.092.306.017.065.032.13.046.2.03.133.054.265.073.4a3.751,3.751,0,0,1,.04.379,5.117,5.117,0,0,1-.008.792C812.321,473.025,812.249,473.715,812.146,474.459Z" transform="translate(-793.692 -459.088)" fill="#f7ad89"/>
                <g id="Grupo_58" data-name="Grupo 58" transform="translate(8.117 24.82)">
                  <path id="Trazado_65" data-name="Trazado 65" d="M804.783,489.731a2.181,2.181,0,0,1-.983-.464.237.237,0,0,1-.007-.326.217.217,0,0,1,.29-.028h0a1.752,1.752,0,0,0,.763.363,1.81,1.81,0,0,0,.875-.121.221.221,0,0,1,.282.143.235.235,0,0,1-.109.28A2.249,2.249,0,0,1,804.783,489.731Z" transform="translate(-803.731 -488.87)" fill="#fa8465"/>
                </g>
                <path id="Trazado_66" data-name="Trazado 66" d="M801.7,477.021c-.053.506.155.945.464.98s.6-.347.657-.854-.155-.945-.464-.98S801.752,476.515,801.7,477.021Z" transform="translate(-795.118 -461.324)" fill="#2e3062"/>
                <path id="Trazado_67" data-name="Trazado 67" d="M810.712,478c-.054.507.154.946.465.981s.6-.347.657-.854-.155-.945-.465-.98S810.765,477.5,810.712,478Z" transform="translate(-797.312 -461.535)" fill="#2e3062"/>
                <path id="Trazado_68" data-name="Trazado 68" d="M799.739,473a6.058,6.058,0,0,1,4.121.315l-.287,1.011a11.125,11.125,0,0,0-3.976-.122A1.865,1.865,0,0,1,799.739,473Z" transform="translate(-794.597 -460.595)" fill="#2e3062"/>
                <path id="Trazado_69" data-name="Trazado 69" d="M813.05,474.446a6.125,6.125,0,0,0-4.12-.62l.071,1.059a11.221,11.221,0,0,1,3.937.778A1.875,1.875,0,0,0,813.05,474.446Z" transform="translate(-796.88 -460.786)" fill="#2e3062"/>
                <g id="Grupo_59" data-name="Grupo 59" transform="translate(8.849 15.84)">
                  <path id="Trazado_70" data-name="Trazado 70" d="M805.575,481.8a2.268,2.268,0,0,1-.767-.261.232.232,0,0,1-.08-.31.214.214,0,0,1,.287-.089c.188.105.644.287.862.184a.247.247,0,0,0,.129-.2c.161-.777.231-3.439.231-3.465a.218.218,0,1,1,.437.012,34.9,34.9,0,0,1-.241,3.548.689.689,0,0,1-.373.514A.891.891,0,0,1,805.575,481.8Z" transform="translate(-804.699 -477.436)" fill="#fa8465"/>
                </g>
                <path id="Trazado_71" data-name="Trazado 71" d="M807.581,485.407a2.634,2.634,0,0,1-2.814,2.155,2.585,2.585,0,0,1-2.289-2.733Z" transform="translate(-795.309 -463.183)" fill="#fff9ff"/>
                <path id="Trazado_72" data-name="Trazado 72" d="M812.148,474.459c-.066.477-.143.973-.235,1.482-.032.187-.068.377-.107.566-.151.772-.337,1.565-.561,2.349l-.906-.3a15.766,15.766,0,0,0,.884-3.964c-.1-1.112-.9-1.851-.5-2.868a2.241,2.241,0,0,0-1.318-2.543c-.766-.279-2.812.674-4.4-.607a5.258,5.258,0,0,0-5.46-.511c-1.256.805-.6,2.729-1.458,2.869s-.48,2.209-.479,3.235c0,.993.074,2.328.078,2.411l-1.092-.1-.212-2.138c-.354-.211-.357-.546-.536-.716.015-.975.06-1.94.11-2.8a5.116,5.116,0,0,1,.323-1.517c.043-.114.091-.229.143-.339.027-.057.054-.111.081-.167.057-.108.116-.214.178-.319s.13-.206.2-.3.145-.194.222-.287v0a5.01,5.01,0,0,1,.368-.4,4.876,4.876,0,0,1,1.018-.752c.107-.057.215-.113.327-.163a4.8,4.8,0,0,1,.7-.25c2.877-.789,7.16-1.185,10.889,1.6a4.963,4.963,0,0,1,1.733,2.415c.034.1.064.2.092.3.017.065.033.13.046.2.031.131.054.265.073.4a3.806,3.806,0,0,1,.04.379,5.079,5.079,0,0,1-.005.794C812.325,473.026,812.25,473.718,812.148,474.459Z" transform="translate(-793.695 -459.088)" fill="#2e3062"/>
                <g id="Grupo_63" data-name="Grupo 63" transform="translate(0 13.953)">
                  <path id="Trazado_73" data-name="Trazado 73" d="M795.947,476.9a2,2,0,0,0-.759-1.588,1.087,1.087,0,0,0-1.669.253c-1.218,1.5-.237,6.433,2.453,5.56Z" transform="translate(-793.002 -475.033)" fill="#f7ad89"/>
                  <g id="Grupo_60" data-name="Grupo 60" transform="translate(0.59 1.653)">
                    <path id="Trazado_74" data-name="Trazado 74" d="M795.756,480.043a.221.221,0,0,1-.191-.188,3.476,3.476,0,0,0-1.664-2.289.23.23,0,0,1-.1-.3.215.215,0,0,1,.294-.1,3.875,3.875,0,0,1,1.9,2.619.226.226,0,0,1-.18.261A.215.215,0,0,1,795.756,480.043Z" transform="translate(-793.781 -477.138)" fill="#fa8465"/>
                  </g>
                  <g id="Grupo_62" data-name="Grupo 62" transform="translate(0.965 2.68)">
                    <g id="Grupo_61" data-name="Grupo 61">
                      <path id="Trazado_75" data-name="Trazado 75" d="M794.472,479.414a.212.212,0,0,1-.113-.049.232.232,0,0,1-.033-.318h0a1.986,1.986,0,0,1,.886-.59.217.217,0,0,1,.275.146.228.228,0,0,1-.141.285,1.573,1.573,0,0,0-.681.444A.215.215,0,0,1,794.472,479.414Z" transform="translate(-794.278 -478.445)" fill="#fa8465"/>
                    </g>
                  </g>
                </g>
              </g>
            </g>
          </g>
        </g>
      </g>
      <g id="Grupo_658" data-name="Grupo 658" transform="translate(19.498 79.905)">
        <g id="Trazado_1352" data-name="Trazado 1352" transform="translate(-770.107 -516.317)" fill="#fff" stroke-miterlimit="10">
          <path d="M773.238,516.317l.963.109-.545,5.181c-.216,2.057-1.257,2.578-2.54,2.432a3.035,3.035,0,0,1-1.009-.3l.229-.8a2.244,2.244,0,0,0,.792.241c.863.1,1.415-.247,1.573-1.763Z" stroke="none"/>
          <path d="M 773.2380981445312 516.3170166015625 L 774.2011108398438 516.4260864257812 L 773.656494140625 521.6068115234375 C 773.4622802734375 523.4527587890625 772.6046752929688 524.0621337890625 771.5029296875 524.0621337890625 C 771.3770141601562 524.0621337890625 771.2478637695312 524.05419921875 771.1161499023438 524.0391845703125 C 770.7621459960938 523.999267578125 770.3392333984375 523.8704223632812 770.1069946289062 523.7392578125 L 770.336181640625 522.939697265625 C 770.5269165039062 523.0426025390625 770.8075561523438 523.144775390625 771.1282348632812 523.1808471679688 C 771.2164306640625 523.1908569335938 771.3013916015625 523.1962890625 771.3829956054688 523.1962890625 C 772.1000366210938 523.1962890625 772.5591430664062 522.7791748046875 772.7017211914062 521.41748046875 L 773.2380981445312 516.3170166015625 Z" stroke="none" fill="#fff"/>
        </g>
        <g id="Trazado_1353" data-name="Trazado 1353" transform="translate(-771.629 -517.022)" fill="#fff" stroke-miterlimit="10">
          <path d="M781.624,522.776a2.648,2.648,0,1,1-2.277-3.153A2.632,2.632,0,0,1,781.624,522.776Zm-4.254-.424c-.128,1.218.45,2.213,1.4,2.322.93.105,1.722-.723,1.853-1.976.1-.942-.229-2.188-1.379-2.319S777.481,521.3,777.37,522.351Z" stroke="none"/>
          <path d="M 778.9653930664062 525.4434814453125 C 778.8587646484375 525.4434814453125 778.7525634765625 525.4373779296875 778.6473999023438 525.4254760742188 C 777.197998046875 525.2614135742188 776.1963500976562 524.0321655273438 776.3809814453125 522.2744750976562 C 776.5621948242188 520.5536499023438 777.6771850585938 519.6039428710938 779.0165405273438 519.6039428710938 C 779.12548828125 519.6039428710938 779.2356567382812 519.6102294921875 779.34716796875 519.6228637695312 C 780.8851928710938 519.7971801757812 781.8035278320312 521.0758666992188 781.6242065429688 522.7755737304688 C 781.4261474609375 524.664794921875 780.1723022460938 525.4434814453125 778.9653930664062 525.4434814453125 Z M 779.05419921875 520.3673706054688 C 778.026123046875 520.3673706054688 777.474609375 521.3551635742188 777.3697509765625 522.351318359375 C 777.2418823242188 523.569580078125 777.8198852539062 524.564697265625 778.771484375 524.6730346679688 C 778.82470703125 524.6790771484375 778.8775634765625 524.6820068359375 778.9298095703125 524.6820068359375 C 779.789794921875 524.6820678710938 780.5007934570312 523.8781127929688 780.6248779296875 522.697021484375 C 780.7240600585938 521.7551879882812 780.3956909179688 520.5087890625 779.2457885742188 520.37841796875 C 779.1802368164062 520.3709716796875 779.1163330078125 520.3673706054688 779.05419921875 520.3673706054688 Z" stroke="none" fill="#fff"/>
        </g>
        <g id="Trazado_1354" data-name="Trazado 1354" transform="translate(-773.512 -517.191)" fill="#fff" stroke-miterlimit="10">
          <path d="M784.416,524.861a2.518,2.518,0,0,0,1.241.547c.709.081,1.079-.25,1.128-.709.051-.482-.2-.778-.889-1.135-.925-.465-1.321-1.068-1.251-1.734a1.669,1.669,0,0,1,2.019-1.422,2.638,2.638,0,0,1,1.281.494l-.321.708a2.059,2.059,0,0,0-1.061-.446.79.79,0,0,0-.976.657c-.048.46.251.7.919,1.058.891.473,1.315,1.009,1.229,1.836-.1.976-.9,1.583-2.177,1.439a3.006,3.006,0,0,1-1.465-.55Z" stroke="none"/>
          <path d="M 785.9176635742188 526.1738891601562 C 785.8019409179688 526.1738891601562 785.6814575195312 526.1669921875 785.556396484375 526.1528930664062 C 784.9692993164062 526.0861206054688 784.4434814453125 525.8756103515625 784.0909423828125 525.6030883789062 L 784.41552734375 524.86083984375 C 784.6824951171875 525.0885620117188 785.1697387695312 525.3533935546875 785.65625 525.4082641601562 C 785.7283935546875 525.41650390625 785.7971801757812 525.4204711914062 785.8623657226562 525.4204711914062 C 786.437255859375 525.4204711914062 786.7406005859375 525.1116943359375 786.7841186523438 524.6990966796875 C 786.8348388671875 524.2169189453125 786.5858764648438 523.9215087890625 785.895263671875 523.564208984375 C 784.9700927734375 523.0991821289062 784.5744018554688 522.4959716796875 784.6447143554688 521.8299560546875 C 784.7305908203125 521.0103149414062 785.3859252929688 520.3909912109375 786.3776245117188 520.3909912109375 C 786.47021484375 520.3909912109375 786.565673828125 520.3964233398438 786.6639404296875 520.4075317382812 C 787.2062377929688 520.469482421875 787.6647338867188 520.6840209960938 787.944580078125 520.901611328125 L 787.6238403320312 521.6092529296875 C 787.4278564453125 521.4473876953125 787.0595092773438 521.2195434570312 786.5623779296875 521.1631469726562 C 786.5104370117188 521.1572265625 786.4602661132812 521.1544189453125 786.4119262695312 521.1544189453125 C 785.9247436523438 521.1544189453125 785.6256713867188 521.44384765625 785.5859375 521.8197021484375 C 785.5382080078125 522.2799682617188 785.8370361328125 522.5226440429688 786.5050048828125 522.877685546875 C 787.3961791992188 523.3505249023438 787.8204345703125 523.886962890625 787.7335205078125 524.7139282226562 C 787.6414184570312 525.5943603515625 786.979736328125 526.1738891601562 785.9176635742188 526.1738891601562 Z" stroke="none" fill="#fff"/>
        </g>
        <g id="Trazado_1355" data-name="Trazado 1355" transform="translate(-774.994 -516.739)" fill="#fff" stroke-miterlimit="10">
          <path d="M791.119,523.42a1.774,1.774,0,0,0,1.634,2.138,3.411,3.411,0,0,0,1.512-.119l.09.742a4.2,4.2,0,0,1-1.817.143,2.577,2.577,0,0,1-2.339-3.1c.176-1.677,1.266-2.89,2.827-2.713a2.366,2.366,0,0,1,1.937,2.87,4.015,4.015,0,0,1-.083.466Zm2.931-.4a1.447,1.447,0,0,0-1.177-1.8c-.985-.112-1.515.781-1.667,1.474Zm.72-4.614-1.522,1.49-.7-.079,1.146-1.532Z" stroke="none"/>
          <path d="M 793.1494750976562 526.359130859375 C 792.9620361328125 526.359130859375 792.7581787109375 526.3484497070312 792.5377197265625 526.3234252929688 C 790.8886108398438 526.1364135742188 790.0225219726562 524.8994750976562 790.19873046875 523.2216796875 C 790.363525390625 521.6542358398438 791.326904296875 520.4916381835938 792.7266235351562 520.4916381835938 C 792.8242797851562 520.4916381835938 792.9239501953125 520.4972534179688 793.0257568359375 520.5088500976562 C 794.7739868164062 520.7069091796875 795.0704956054688 522.356201171875 794.963134765625 523.3788452148438 C 794.9411010742188 523.58544921875 794.902587890625 523.7432861328125 794.880615234375 523.8453369140625 L 791.1185302734375 523.4197387695312 C 790.9967651367188 524.78857421875 791.7781982421875 525.4468383789062 792.7525634765625 525.5575561523438 C 792.9470825195312 525.5797119140625 793.1210327148438 525.5895385742188 793.2791137695312 525.5895385742188 C 793.6873168945312 525.5895385742188 793.9894409179688 525.5242309570312 794.2648315429688 525.438232421875 L 794.3549194335938 526.1806030273438 C 794.0879516601562 526.2713012695312 793.6863403320312 526.359130859375 793.1494750976562 526.359130859375 Z M 792.7066650390625 521.2140502929688 C 791.8272705078125 521.2140502929688 791.3483276367188 522.0447998046875 791.20556640625 522.6970825195312 L 794.0492553710938 523.01904296875 C 794.1279907226562 522.3773803710938 793.9674682617188 521.3477172851562 792.8720703125 521.2235717773438 C 792.8154907226562 521.2171630859375 792.76025390625 521.2140502929688 792.7066650390625 521.2140502929688 Z M 793.2473754882812 519.8947143554688 L 792.5499877929688 519.8153686523438 L 793.6959838867188 518.2830200195312 L 794.7694702148438 518.4047241210938 L 793.2473754882812 519.8947143554688 Z" stroke="none" fill="#fff"/>
        </g>
        <g id="Trazado_1356" data-name="Trazado 1356" transform="translate(-777.586 -516.985)" fill="#fff" stroke-miterlimit="10">
          <path d="M801.623,519.448a10.832,10.832,0,0,1,1.863.06,3.025,3.025,0,0,1,2.024.88,2.146,2.146,0,0,1,.483,1.693,2.322,2.322,0,0,1-.75,1.589,3.024,3.024,0,0,1-2.369.592,3.249,3.249,0,0,1-.767-.157l-.326,3.1-.962-.109Zm.57,3.843a3.169,3.169,0,0,0,.789.17c1.161.132,1.931-.374,2.043-1.442.107-1.023-.538-1.6-1.6-1.716a3.876,3.876,0,0,0-.915-.022Z" stroke="none"/>
          <path d="M 802.1879272460938 519.431396484375 C 802.5582275390625 519.431396484375 802.9893798828125 519.4515991210938 803.486328125 519.5079956054688 C 804.43798828125 519.6155395507812 805.111328125 519.92431640625 805.510009765625 520.3884887695312 C 805.880615234375 520.8015747070312 806.0652465820312 521.39306640625 805.9925537109375 522.0818481445312 C 805.9192504882812 522.7823486328125 805.6620483398438 523.3109741210938 805.2428588867188 523.6707763671875 C 804.7756958007812 524.0866088867188 804.1098022460938 524.291015625 803.3638305664062 524.291015625 C 803.2039184570312 524.291015625 803.0404052734375 524.2816772460938 802.8743286132812 524.262939453125 C 802.5867919921875 524.22998046875 802.3228149414062 524.1883544921875 802.1072387695312 524.1058959960938 L 801.78125 527.20751953125 L 800.8189697265625 527.0982666015625 L 801.6231079101562 519.4475708007812 C 801.7929077148438 519.437744140625 801.9808959960938 519.431396484375 802.1879272460938 519.431396484375 Z M 803.3311767578125 523.4816284179688 C 804.2962036132812 523.4816284179688 804.9247436523438 522.97607421875 805.0250244140625 522.01904296875 C 805.1323852539062 520.9964599609375 804.4871826171875 520.4230346679688 803.4249877929688 520.3028564453125 C 803.1815185546875 520.2750854492188 802.9700927734375 520.2628784179688 802.8020629882812 520.2628784179688 C 802.680419921875 520.2628784179688 802.58154296875 520.269287109375 802.5097045898438 520.2808227539062 L 802.1927490234375 523.2906494140625 C 802.3977661132812 523.3715209960938 802.6603393554688 523.4248046875 802.981689453125 523.4610595703125 C 803.1024780273438 523.4747924804688 803.2191772460938 523.4816284179688 803.3311767578125 523.4816284179688 Z" stroke="none" fill="#fff"/>
        </g>
        <g id="Trazado_1357" data-name="Trazado 1357" transform="translate(-779.34 -517.76)" fill="#fff" stroke-miterlimit="10">
          <path d="M808.966,525.971a1.775,1.775,0,0,0,1.634,2.138,3.414,3.414,0,0,0,1.513-.119l.09.743a4.216,4.216,0,0,1-1.818.142,2.577,2.577,0,0,1-2.339-3.1c.176-1.678,1.267-2.89,2.827-2.714a2.365,2.365,0,0,1,1.937,2.87,3.859,3.859,0,0,1-.082.467Zm2.931-.4a1.447,1.447,0,0,0-1.177-1.8c-.985-.112-1.515.781-1.667,1.474Z" stroke="none"/>
          <path d="M 810.9970703125 528.9104614257812 C 810.8094482421875 528.9104614257812 810.6053466796875 528.8997802734375 810.384765625 528.874755859375 C 808.7357177734375 528.6878662109375 807.8695068359375 527.4508056640625 808.045654296875 525.7739868164062 C 808.2105712890625 524.205322265625 809.1751708984375 523.0431518554688 810.5748291015625 523.0431518554688 C 810.672119140625 523.0431518554688 810.7713623046875 523.0487670898438 810.8727416992188 523.0602416992188 C 812.62109375 523.2581787109375 812.9183349609375 524.9075927734375 812.8101196289062 525.9302368164062 C 812.7890014648438 526.1368408203125 812.7495727539062 526.294677734375 812.7277221679688 526.3967895507812 L 808.965576171875 525.970947265625 C 808.8438720703125 527.3400268554688 809.6261596679688 527.9989624023438 810.5996704101562 528.1090087890625 C 810.7941284179688 528.1311645507812 810.9681396484375 528.1409301757812 811.1262817382812 528.1409301757812 C 811.5347290039062 528.1409301757812 811.8372802734375 528.07568359375 812.1126708984375 527.9896240234375 L 812.20263671875 528.732666015625 C 811.9359130859375 528.8228759765625 811.5339965820312 528.9104614257812 810.9970703125 528.9104614257812 Z M 810.5537109375 523.7655029296875 C 809.6743774414062 523.7655029296875 809.1951293945312 524.59619140625 809.0525512695312 525.24853515625 L 811.8963012695312 525.570556640625 C 811.9749755859375 524.9288330078125 811.8146362304688 523.8991088867188 810.7191162109375 523.7750244140625 C 810.6625366210938 523.7686157226562 810.6072998046875 523.7655029296875 810.5537109375 523.7655029296875 Z" stroke="none" fill="#fff"/>
        </g>
        <g id="Trazado_1358" data-name="Trazado 1358" transform="translate(-781.165 -517.904)" fill="#fff" stroke-miterlimit="10">
          <path d="M815.922,525.453c.069-.655.117-1.219.138-1.74l.853.1-.082,1.095.044,0a1.613,1.613,0,0,1,1.612-1.049,1.044,1.044,0,0,1,.273.066l-.1.953a1.449,1.449,0,0,0-.328-.072,1.383,1.383,0,0,0-1.442,1.15,2.932,2.932,0,0,0-.094.466l-.311,2.964-.963-.109Z" stroke="none"/>
          <path d="M 816.0601806640625 523.7130126953125 L 816.9127197265625 523.8096313476562 L 816.8309326171875 524.9044189453125 L 816.874755859375 524.9091186523438 C 817.171875 524.2459106445312 817.7357177734375 523.8511962890625 818.33349609375 523.8511962890625 C 818.3842163085938 523.8511962890625 818.4351806640625 523.8540649414062 818.4862670898438 523.8598022460938 C 818.5965576171875 523.8724365234375 818.6730346679688 523.8929443359375 818.7592163085938 523.9257202148438 L 818.6586303710938 524.8786010742188 C 818.56103515625 524.8446655273438 818.462646484375 524.8219604492188 818.3302612304688 524.8070068359375 C 818.2819213867188 524.801513671875 818.2342529296875 524.798828125 818.1873779296875 524.798828125 C 817.5691528320312 524.798828125 817.0859985351562 525.2661743164062 816.8883056640625 525.9569091796875 C 816.8513793945312 526.0919799804688 816.8120727539062 526.2506103515625 816.7938232421875 526.422607421875 L 816.4829711914062 529.3868408203125 L 815.52001953125 529.2777099609375 L 815.92236328125 525.45263671875 C 815.9912109375 524.797607421875 816.0396728515625 524.233642578125 816.0601806640625 523.7130126953125 Z" stroke="none" fill="#fff"/>
        </g>
        <g id="Trazado_1359" data-name="Trazado 1359" transform="translate(-782.254 -518.041)" fill="#fff" stroke-miterlimit="10">
          <path d="M820.932,527.277a1.774,1.774,0,0,0,1.634,2.138,3.4,3.4,0,0,0,1.513-.12l.09.743a4.213,4.213,0,0,1-1.818.142,2.577,2.577,0,0,1-2.339-3.1c.176-1.677,1.267-2.89,2.827-2.714a2.366,2.366,0,0,1,1.938,2.87,4.009,4.009,0,0,1-.083.467Zm2.931-.4a1.447,1.447,0,0,0-1.177-1.8c-.985-.112-1.515.782-1.666,1.474Z" stroke="none"/>
          <path d="M 822.96337890625 530.2164916992188 C 822.7756958007812 530.2164916992188 822.571533203125 530.2057495117188 822.350830078125 530.1807250976562 C 820.70166015625 529.9938354492188 819.8355712890625 528.7568359375 820.01171875 527.0798950195312 C 820.1764526367188 525.5120239257812 821.1410522460938 524.3491821289062 822.5408325195312 524.3491821289062 C 822.63818359375 524.3491821289062 822.7374267578125 524.3547973632812 822.8388061523438 524.3662719726562 C 824.5870971679688 524.5641479492188 824.8843383789062 526.2135009765625 824.77685546875 527.2362060546875 C 824.7548828125 527.4428100585938 824.7156372070312 527.6014404296875 824.6937255859375 527.7034912109375 L 820.9317016601562 527.2770385742188 C 820.8099365234375 528.6461181640625 821.592041015625 529.3050537109375 822.5657958984375 529.4150390625 C 822.7608032226562 529.4371948242188 822.935302734375 529.447021484375 823.0938110351562 529.447021484375 C 823.50146484375 529.447021484375 823.8036499023438 529.382080078125 824.0787353515625 529.2955322265625 L 824.1686401367188 530.03857421875 C 823.90185546875 530.12890625 823.5001220703125 530.2164916992188 822.96337890625 530.2164916992188 Z M 822.519775390625 525.0714721679688 C 821.6405029296875 525.0714721679688 821.1612548828125 525.90234375 821.0194702148438 526.5545043945312 L 823.8623046875 526.8765258789062 C 823.9409790039062 526.2347412109375 823.780517578125 525.205078125 822.6851806640625 525.0809936523438 C 822.6285400390625 525.0745849609375 822.5733642578125 525.0714721679688 822.519775390625 525.0714721679688 Z" stroke="none" fill="#fff"/>
        </g>
        <g id="Trazado_1360" data-name="Trazado 1360" transform="translate(-783.883 -518.174)" fill="#fff" stroke-miterlimit="10">
          <path d="M826.744,529.918l2.767-3c.263-.273.512-.512.788-.783l0-.023-2.9-.329.086-.815,4.083.463-.077.631-2.729,2.957c-.254.285-.5.536-.778.8l0,.023,3.131.355-.085.8-4.348-.493Z" stroke="none"/>
          <path d="M 831.0302734375 530.9971313476562 L 826.6820068359375 530.5038452148438 L 826.743896484375 529.91796875 L 829.51123046875 526.9192504882812 C 829.7745361328125 526.6466674804688 830.0234375 526.4071044921875 830.298828125 526.1362915039062 L 830.301025390625 526.1133422851562 L 827.402099609375 525.7843017578125 L 827.4876708984375 524.9690551757812 L 831.5704345703125 525.4315795898438 L 831.4932861328125 526.0623779296875 L 828.7637939453125 529.0194091796875 C 828.5096435546875 529.3046875 828.25927734375 529.5550537109375 827.986083984375 529.8151245117188 L 827.98388671875 529.837890625 L 831.114990234375 530.1929321289062 L 831.0302734375 530.9971313476562 Z" stroke="none" fill="#fff"/>
        </g>
      </g>
      <g id="Grupo_659" data-name="Grupo 659" transform="translate(22.368 90.841)">
        <path id="Trazado_1361" data-name="Trazado 1361" d="M774.31,530.241l.485.055-.366,3.478,1.605.182-.044.422-2.09-.236Z" transform="translate(-773.9 -530.241)" fill="#fff"/>
        <path id="Trazado_1362" data-name="Trazado 1362" d="M777.785,530.353l.491.055-.432,4.109-.491-.055Z" transform="translate(-774.741 -530.265)" fill="#fff"/>
        <path id="Trazado_1363" data-name="Trazado 1363" d="M780.54,535.184l0-.357-.016,0a.993.993,0,0,1-.869.324.8.8,0,0,1-.741-.9c.071-.677.69-.982,1.732-.859l.006-.057a.579.579,0,0,0-.545-.718,1.307,1.307,0,0,0-.724.129l-.076-.348a1.622,1.622,0,0,1,.912-.148c.825.093.964.7.906,1.262l-.11,1.047a4.08,4.08,0,0,0-.026.676Zm.078-1.438c-.534-.071-1.152-.043-1.21.5a.449.449,0,0,0,.412.538.67.67,0,0,0,.7-.394.535.535,0,0,0,.045-.159Z" transform="translate(-775.119 -530.669)" fill="#fff"/>
        <path id="Trazado_1364" data-name="Trazado 1364" d="M782.855,533.352c.031-.289.05-.527.058-.76l.429.049-.025.453.016,0a.924.924,0,0,1,.9-.419.812.812,0,0,1,.7.647l.011,0a1.134,1.134,0,0,1,.34-.331.9.9,0,0,1,.617-.129c.357.04.861.343.759,1.316l-.174,1.649-.479-.054.166-1.585c.057-.539-.1-.884-.495-.929a.636.636,0,0,0-.628.4.88.88,0,0,0-.066.251l-.182,1.73-.479-.055.176-1.678c.047-.445-.108-.792-.482-.833a.674.674,0,0,0-.661.441.725.725,0,0,0-.065.244l-.178,1.689-.48-.054Z" transform="translate(-776.028 -530.745)" fill="#fff"/>
        <path id="Trazado_1365" data-name="Trazado 1365" d="M790.231,536.242v-.357l-.017,0a.988.988,0,0,1-.868.323.8.8,0,0,1-.74-.9c.071-.677.689-.982,1.732-.858l.006-.057a.579.579,0,0,0-.545-.718,1.307,1.307,0,0,0-.724.129l-.076-.348a1.626,1.626,0,0,1,.912-.148c.825.093.964.7.9,1.262l-.11,1.047a4.065,4.065,0,0,0-.026.676Zm.078-1.438c-.533-.072-1.151-.042-1.209.5a.449.449,0,0,0,.411.538.671.671,0,0,0,.7-.4.546.546,0,0,0,.045-.159Z" transform="translate(-777.479 -530.896)" fill="#fff"/>
        <path id="Trazado_1366" data-name="Trazado 1366" d="M795.073,532.309l-.356,3.385c-.026.248-.05.533-.054.726l-.44-.05.029-.489h-.011a.991.991,0,0,1-.978.445,1.281,1.281,0,0,1-1-1.554c.092-.932.71-1.442,1.367-1.367a.91.91,0,0,1,.769.521h.011l.176-1.672Zm-.747,2.392a.993.993,0,0,0,0-.217.742.742,0,0,0-.646-.671c-.507-.057-.856.372-.922.99-.059.567.159,1.067.688,1.126a.742.742,0,0,0,.783-.526.886.886,0,0,0,.045-.218Z" transform="translate(-778.368 -530.673)" fill="#fff"/>
        <path id="Trazado_1367" data-name="Trazado 1367" d="M797.933,537.082l0-.357h-.017a.99.99,0,0,1-.869.323.8.8,0,0,1-.741-.9c.072-.677.69-.982,1.732-.858l.006-.057a.578.578,0,0,0-.545-.718,1.31,1.31,0,0,0-.725.129l-.076-.349a1.626,1.626,0,0,1,.912-.148c.825.093.964.7.9,1.261l-.11,1.048a4.25,4.25,0,0,0-.026.676Zm.077-1.437c-.533-.072-1.151-.043-1.208.5a.449.449,0,0,0,.412.539.672.672,0,0,0,.7-.395.557.557,0,0,0,.045-.159Z" transform="translate(-779.355 -531.077)" fill="#fff"/>
        <path id="Trazado_1368" data-name="Trazado 1368" d="M803.754,535.559l-1.46-.166-.148,1.406,1.627.185-.044.422-2.113-.24.41-3.9,2.029.23-.045.423-1.543-.174-.13,1.231,1.46.166Z" transform="translate(-780.649 -530.89)" fill="#fff"/>
        <path id="Trazado_1369" data-name="Trazado 1369" d="M805.433,535.816c.03-.289.05-.527.057-.76l.434.049-.02.466.011,0a.984.984,0,0,1,.947-.426c.374.042.929.339.828,1.3l-.176,1.672-.49-.055.169-1.615c.048-.452-.074-.846-.537-.9a.7.7,0,0,0-.712.447.737.737,0,0,0-.059.233l-.177,1.684-.49-.056Z" transform="translate(-781.526 -531.274)" fill="#fff"/>
        <path id="Trazado_1370" data-name="Trazado 1370" d="M810.229,534.564l-.085.8.7.08-.041.387-.7-.079-.159,1.51c-.036.347.038.555.311.586a1.043,1.043,0,0,0,.288,0l-.018.385a1.15,1.15,0,0,1-.442.02.679.679,0,0,1-.507-.273,1.079,1.079,0,0,1-.113-.751l.16-1.528-.417-.047.041-.388.418.047.07-.671Z" transform="translate(-782.497 -531.169)" fill="#fff"/>
        <path id="Trazado_1371" data-name="Trazado 1371" d="M811.916,536.641c.035-.33.059-.614.07-.877l.429.049-.041.551.022,0a.813.813,0,0,1,.812-.528.5.5,0,0,1,.138.034l-.051.48a.74.74,0,0,0-.166-.036.7.7,0,0,0-.726.58,1.511,1.511,0,0,0-.047.234l-.157,1.493-.485-.055Z" transform="translate(-783.108 -531.426)" fill="#fff"/>
        <path id="Trazado_1372" data-name="Trazado 1372" d="M815.533,539l0-.357-.017,0a.991.991,0,0,1-.869.323.8.8,0,0,1-.741-.9c.071-.677.69-.982,1.732-.858l.006-.057a.578.578,0,0,0-.546-.718,1.307,1.307,0,0,0-.724.129l-.076-.349a1.63,1.63,0,0,1,.912-.148c.825.093.964.7.9,1.261l-.11,1.048a4.077,4.077,0,0,0-.026.676Zm.078-1.437c-.534-.071-1.152-.042-1.21.5a.449.449,0,0,0,.412.538.673.673,0,0,0,.7-.4.551.551,0,0,0,.045-.159Z" transform="translate(-783.64 -531.489)" fill="#fff"/>
        <path id="Trazado_1373" data-name="Trazado 1373" d="M817.848,537.172c.031-.29.05-.527.058-.761l.434.049-.02.466.01,0a.985.985,0,0,1,.947-.426c.374.042.929.339.828,1.3l-.176,1.672-.49-.056.17-1.615c.047-.451-.075-.846-.537-.9a.7.7,0,0,0-.713.446.765.765,0,0,0-.058.233l-.177,1.684-.49-.056Z" transform="translate(-784.55 -531.565)" fill="#fff"/>
        <path id="Trazado_1374" data-name="Trazado 1374" d="M822.644,535.919l-.085.8.7.079-.04.388-.7-.08-.159,1.51c-.036.347.038.555.311.586a1.051,1.051,0,0,0,.288,0l-.018.385a1.168,1.168,0,0,1-.442.021.681.681,0,0,1-.508-.274,1.08,1.08,0,0,1-.113-.751l.161-1.528-.418-.047.041-.388.418.047.071-.671Z" transform="translate(-785.52 -531.459)" fill="#fff"/>
        <path id="Trazado_1375" data-name="Trazado 1375" d="M824.474,538.656a.893.893,0,0,0,.823,1.077,1.725,1.725,0,0,0,.762-.06l.045.374a2.124,2.124,0,0,1-.915.071,1.3,1.3,0,0,1-1.178-1.561c.089-.845.638-1.456,1.423-1.367a1.192,1.192,0,0,1,.977,1.446,2.171,2.171,0,0,1-.042.235Zm1.476-.2a.728.728,0,0,0-.593-.9c-.5-.057-.763.393-.839.741Z" transform="translate(-786.1 -531.73)" fill="#fff"/>
      </g>
      <g id="Grupo_660" data-name="Grupo 660" transform="translate(76.784 12.136)">
        <path id="Trazado_1376" data-name="Trazado 1376" d="M849.692,430.155l-.29,3.1a.08.08,0,0,1-.086.074L849,433.3a.081.081,0,0,1-.07-.09l.29-3.1a.081.081,0,0,1,.086-.074l.312.031A.081.081,0,0,1,849.692,430.155Z" transform="translate(-846.587 -430.034)" fill="#fff"/>
        <path id="Trazado_1377" data-name="Trazado 1377" d="M848.6,430.887l-.229,2.451a.081.081,0,0,1-.086.074l-.313-.032a.08.08,0,0,1-.07-.09l.229-2.45a.079.079,0,0,1,.086-.074l.312.031A.08.08,0,0,1,848.6,430.887Z" transform="translate(-846.336 -430.191)" fill="#fff"/>
        <path id="Trazado_1378" data-name="Trazado 1378" d="M847.519,431.41l-.183,1.96a.08.08,0,0,1-.086.074l-.312-.031a.081.081,0,0,1-.07-.09l.183-1.96a.081.081,0,0,1,.086-.074l.312.031A.081.081,0,0,1,847.519,431.41Z" transform="translate(-846.084 -430.303)" fill="#fff"/>
        <path id="Trazado_1379" data-name="Trazado 1379" d="M846.44,431.934l-.138,1.47a.08.08,0,0,1-.086.074l-.312-.031a.082.082,0,0,1-.071-.09l.138-1.47a.08.08,0,0,1,.086-.074l.312.031A.08.08,0,0,1,846.44,431.934Z" transform="translate(-845.833 -430.415)" fill="#fff"/>
      </g>
      <g id="Grupo_669" data-name="Grupo 669" transform="translate(72.661 12.067)">
        <g id="Grupo_662" data-name="Grupo 662" transform="translate(1.359 2.279)">
          <g id="Grupo_661" data-name="Grupo 661">
            <path id="Trazado_1380" data-name="Trazado 1380" d="M842.537,432.849a.326.326,0,0,0-.356.3.333.333,0,0,0,.288.369.327.327,0,0,0,.356-.3A.332.332,0,0,0,842.537,432.849Z" transform="translate(-842.179 -432.847)" fill="#fff"/>
          </g>
        </g>
        <g id="Grupo_664" data-name="Grupo 664" transform="translate(0.9 1.483)">
          <g id="Grupo_663" data-name="Grupo 663">
            <path id="Trazado_1381" data-name="Trazado 1381" d="M843.22,432.266a1.1,1.1,0,0,0-.75-.425,1.082,1.082,0,0,0-.817.247.232.232,0,0,0-.033.317.213.213,0,0,0,.306.035.658.658,0,0,1,.5-.15.665.665,0,0,1,.456.258.217.217,0,0,0,.147.083.209.209,0,0,0,.16-.048A.231.231,0,0,0,843.22,432.266Z" transform="translate(-841.573 -431.834)" fill="#fff"/>
          </g>
        </g>
        <g id="Grupo_666" data-name="Grupo 666">
          <g id="Grupo_665" data-name="Grupo 665">
            <path id="Trazado_1382" data-name="Trazado 1382" d="M844.047,430.93a2.51,2.51,0,0,0-1.713-.968,2.47,2.47,0,0,0-1.87.567.231.231,0,0,0-.033.317.216.216,0,0,0,.147.083.213.213,0,0,0,.16-.049,2.049,2.049,0,0,1,1.55-.47,2.086,2.086,0,0,1,1.42.8.212.212,0,0,0,.306.035A.231.231,0,0,0,844.047,430.93Z" transform="translate(-840.383 -429.946)" fill="#fff"/>
          </g>
        </g>
        <g id="Grupo_668" data-name="Grupo 668" transform="translate(0.461 0.76)">
          <g id="Grupo_667" data-name="Grupo 667">
            <path id="Trazado_1383" data-name="Trazado 1383" d="M843.623,431.615a1.791,1.791,0,0,0-1.219-.69,1.759,1.759,0,0,0-1.331.4.227.227,0,0,0-.08.151.23.23,0,0,0,.047.166.213.213,0,0,0,.307.035,1.335,1.335,0,0,1,1.01-.306,1.357,1.357,0,0,1,.926.524.213.213,0,0,0,.307.035.232.232,0,0,0,.033-.317Z" transform="translate(-840.992 -430.914)" fill="#fff"/>
          </g>
        </g>
      </g>
      <g id="Grupo_670" data-name="Grupo 670" transform="translate(24.086 7.837)">
        <path id="Trazado_1384" data-name="Trazado 1384" d="M776.173,426.9a.9.9,0,0,1,.662-.8l0-.015a.788.788,0,0,1-.434-.746.862.862,0,0,1,1-.772.792.792,0,0,1,.281,1.546v.015a.881.881,0,0,1,.557.862.945.945,0,0,1-1.1.843A.92.92,0,0,1,776.173,426.9Zm.616-1.563c-.022.316.2.5.54.627a.616.616,0,0,0,.5-.54.524.524,0,0,0-1.044-.086ZM777.814,427c.026-.384-.219-.588-.623-.741a.678.678,0,0,0-.592.612.578.578,0,0,0,.567.648A.558.558,0,0,0,777.814,427Z" transform="translate(-776.171 -424.56)" fill="#fff"/>
        <path id="Trazado_1385" data-name="Trazado 1385" d="M780.257,426.264a.281.281,0,1,1,.558.041.278.278,0,0,1-.3.281A.283.283,0,0,1,780.257,426.264Zm-.117,1.717a.282.282,0,0,1,.3-.286.286.286,0,0,1,.256.327.279.279,0,0,1-.3.281A.283.283,0,0,1,780.14,427.981Z" transform="translate(-777.138 -424.864)" fill="#fff"/>
        <path id="Trazado_1386" data-name="Trazado 1386" d="M782.962,425.417h-.01l-.549.258-.058-.331.691-.32.351.026-.216,3.161-.4-.029Z" transform="translate(-777.675 -424.659)" fill="#fff"/>
        <path id="Trazado_1387" data-name="Trazado 1387" d="M786.668,425.643l-1.161-.086-.173.8a1.5,1.5,0,0,1,.249,0,1.256,1.256,0,0,1,.644.218.915.915,0,0,1,.38.845,1.069,1.069,0,0,1-1.207,1,1.449,1.449,0,0,1-.746-.251l.125-.318a1.342,1.342,0,0,0,.639.223.68.68,0,0,0,.769-.632c.023-.409-.219-.721-.828-.766a3.065,3.065,0,0,0-.423,0l.3-1.5,1.457.107Z" transform="translate(-778.237 -424.692)" fill="#fff"/>
      </g>
      <g id="Grupo_672" data-name="Grupo 672" transform="translate(67.07 12.121)">
        <g id="Grupo_671" data-name="Grupo 671">
          <path id="Trazado_1388" data-name="Trazado 1388" d="M837.292,431l-.093-.009.01-.1a.485.485,0,0,0-.415-.543l-3.164-.331a.483.483,0,0,0-.515.447l-.121,1.187a.485.485,0,0,0,.415.544l3.164.331a.482.482,0,0,0,.515-.447l.011-.1.093.01a.29.29,0,0,0,.309-.268l.041-.4A.291.291,0,0,0,837.292,431Zm-2.456.9a.09.09,0,0,1-.084.039l-1.3-.136a.1.1,0,0,1-.083-.108l.121-1.188a.1.1,0,0,1,.1-.09l.745.078a.094.094,0,0,1,.078.064l.437,1.246A.1.1,0,0,1,834.835,431.9Z" transform="translate(-832.991 -430.015)" fill="#fff"/>
        </g>
      </g>
    </g>
    <line id="Línea_3" data-name="Línea 3" x1="214.083" y2="59.126" transform="translate(463.495 292.057)" fill="none" stroke="#1829c4" stroke-linecap="round" stroke-miterlimit="10" stroke-width="5" stroke-dasharray="12"/>
    <g id="Grupo_196" data-name="Grupo 196" transform="translate(0 199.78)">
      <g id="Grupo_185" data-name="Grupo 185" transform="translate(31.372 145.626)">
        <g id="Grupo_184" data-name="Grupo 184">
          <rect id="Rectángulo_19" data-name="Rectángulo 19" width="69.614" height="78.329" fill="#ff495a"/>
        </g>
        <rect id="Rectángulo_20" data-name="Rectángulo 20" width="69.614" height="19.377" transform="translate(0 58.951)" fill="#e21c47"/>
      </g>
      <g id="Grupo_195" data-name="Grupo 195">
        <g id="Grupo_186" data-name="Grupo 186" transform="translate(21.438)">
          <path id="Trazado_210" data-name="Trazado 210" d="M272.753,838.748H287.1c.82-4.356,9.23-50.937,1.613-90.853-7.984-41.91-32.366-66.8-47.506-48.892s3.784,52.82,18.08,78.1C272.792,800.99,272.792,835.066,272.753,838.748Z" transform="translate(-235.629 -693.124)" fill="#00bd00" stroke="#6168ff" stroke-miterlimit="10" stroke-width="1"/>
        </g>
        <g id="Grupo_187" data-name="Grupo 187" transform="translate(39.333 28.889)">
          <path id="Trazado_211" data-name="Trazado 211" d="M279.491,839.92h3.8c3.83-65.264-24.563-115.36-24.862-115.864a1.849,1.849,0,0,0-2.623-.539,2.01,2.01,0,0,0-.614,2.56C255.463,726.578,283.326,775.814,279.491,839.92Z" transform="translate(-254.962 -723.185)" fill="#097c09" stroke="#6168ff" stroke-miterlimit="10" stroke-width="1"/>
        </g>
        <g id="Grupo_189" data-name="Grupo 189" transform="translate(76.255 16.489)">
          <path id="Trazado_212" data-name="Trazado 212" d="M343.448,710.282c-32.416,0-50.782,102.567-48.39,129.137h13.8c1.127-6.748,6.507-24.733,30.883-65.64C351.135,754.666,376.876,710.282,343.448,710.282Z" transform="translate(-294.85 -710.282)" fill="#00bd00" stroke="#6168ff" stroke-miterlimit="10" stroke-width="1"/>
        </g>
        <g id="Grupo_190" data-name="Grupo 190" transform="translate(82.151 44.751)">
          <path id="Trazado_213" data-name="Trazado 213" d="M338.233,739.948a1.86,1.86,0,0,0-2.584.733c-.3.555-27.827,51.5-34.429,99.879h3.825c6.612-47.413,33.6-97.4,33.909-97.942A2.009,2.009,0,0,0,338.233,739.948Z" transform="translate(-301.22 -739.69)" fill="#097c09" stroke="#6168ff" stroke-miterlimit="10" stroke-width="1"/>
        </g>
        <g id="Grupo_192" data-name="Grupo 192" transform="translate(0 54.87)">
          <path id="Trazado_214" data-name="Trazado 214" d="M268.894,840.974c.542-18.957-24.927-96.038-46.675-90.468-23.759,6.089,2.152,42.368,11.869,55.859,15.487,21.484,21.5,30.686,23.773,34.608Z" transform="translate(-212.469 -750.219)" fill="#00bd00" stroke="#6168ff" stroke-miterlimit="10" stroke-width="1"/>
        </g>
        <g id="Grupo_193" data-name="Grupo 193" transform="translate(13.958 74.32)">
          <path id="Trazado_215" data-name="Trazado 215" d="M265.906,841.764c-7.377-31.908-33.817-68.919-35.005-70.6a1.851,1.851,0,0,0-2.673-.247,2.024,2.024,0,0,0-.417,2.51l.056.079c.294.41,26.57,37.242,34.122,68.251Z" transform="translate(-227.548 -770.458)" fill="#097c09" stroke="#6168ff" stroke-miterlimit="10" stroke-width="1"/>
        </g>
      </g>
    </g>
    <line id="Línea_6" data-name="Línea 6" x1="131" y2="121" transform="translate(455.5 230.5)" fill="none" stroke="#1829c4" stroke-linecap="round" stroke-miterlimit="10" stroke-width="5" stroke-dasharray="12"/>
  </g>
</svg>
