<svg xmlns="http://www.w3.org/2000/svg" xmlns:xlink="http://www.w3.org/1999/xlink" width="770.464" height="412.197" viewBox="0 0 770.464 412.197">
  <defs>
    <clipPath id="clip-path">
      <circle id="SVGID" cx="19.216" cy="19.216" r="19.216" fill="none"/>
    </clipPath>
  </defs>
  <g id="Grupo_673" data-name="Grupo 673" transform="translate(-137.832 -378.521)">
    <path id="Trazado_1341" data-name="Trazado 1341" d="M752.7,547.015a94.422,94.422,0,0,0-4.718-50.007,103.861,103.861,0,0,0-87.371-66.8,105.9,105.9,0,0,0-75.859,22.079c-20.191-50.762-71.141-85.672-128.507-85.672h-1.133c-70.764.566-132.093,56.8-136.245,125.489a129.334,129.334,0,0,0,5.851,47.364c-46.8,11.134-80.387,51.517-80.387,99.636,0,55.479,35.854,114.732,136.243,114.732H705.712c63.781,0,106.619-59.253,106.62-114.542C812.333,599.852,788.743,564,752.7,547.015Z" transform="translate(16 11.908)" fill="#97bff0"/>
    <g id="Grupo_30" data-name="Grupo 30" transform="translate(138.332 766.482)">
      <path id="Rectángulo_2" data-name="Rectángulo 2" d="M266,923.86h755.961c3.866,0,7,2.536,7,5.665h0v12.906c0,3.129-3.134,5.665-7,5.665H266c-3.866,0-7-2.536-7-5.665h0v-12.9c0-3.13,3.135-5.667,7-5.667h0Z" transform="translate(-258.997 -923.86)" fill="#3700b1"/>
      <path id="Trazado_41" data-name="Trazado 41" d="M1028.959,935.556v.557H259v-.557c0-6.459,6.4-11.7,14.286-11.7h741.382C1022.558,923.859,1028.957,929.1,1028.959,935.556Z" transform="translate(-258.996 -923.86)" fill="#542bd8"/>
    </g>
    <g id="Grupo_29" data-name="Grupo 29" transform="translate(260.332 397.756)">
      <g id="Grupo_27" data-name="Grupo 27" transform="translate(0 1.382)">
        <g id="Grupo_7" data-name="Grupo 7" transform="translate(155.188 211.205)">
          <path id="Trazado_13" data-name="Trazado 13" d="M706.086,881.716a17.183,17.183,0,0,1,.442-21.215,14.167,14.167,0,0,1,3.143-2.846c6.222-4.053,18.478-14.85,24-9.256,2.016,2.042-5.642,4.26-8.435,10.2a105.521,105.521,0,0,0,15.9,3.337c6.122.614,17.7,3.094,23.05,4.281a1.476,1.476,0,0,1,.207,2.838c-2.294.711-6.585,1-14.608-.438,0,0,19.176,4.409,19.884,7.9s-23.16-2.448-23.16-2.448,17.726,6.511,17.048,9.393c-.412,1.753-19.908-2.3-19.908-2.3s16.174,7.546,11.145,8.38c-1.462.247-35.071,2.764-45.654-4.521A19.744,19.744,0,0,1,706.086,881.716Z" transform="translate(-615.583 -756.834)" fill="#f7ad89"/>
          <path id="Trazado_1342" data-name="Trazado 1342" d="M601,789.417l7.3-47.655,51.5,87.974s9.93,2.053,39.834,15.354l-5.031,18.125s-40.647.114-54.864-9.793A383.693,383.693,0,0,1,601,822.411Z" transform="translate(-601.003 -741.762)" fill="#542bd8"/>
        </g>
        <g id="Grupo_11" data-name="Grupo 11" transform="translate(0 178.304)">
          <path id="Trazado_14" data-name="Trazado 14" d="M582.624,892.389c-10.691-40.82-3.1-86.054-1.731-115.214.56-11.852,1.422-40.923,1.422-40.923-5.354-4.537-34.355-26.955-34.355-26.955l-29-5.946s-58.8,10.2-75.806,34.989c-5.746,8.366-10.541,35.218-14.459,66.213q-.233,1.853-.467,3.717c-3.523,28.705-6.312,60.433-8.4,84.121Z" transform="translate(-419.824 -703.35)" fill="#6b5efd"/>
          <g id="Grupo_8" data-name="Grupo 8" transform="translate(83.584 15.552)">
            <path id="Trazado_15" data-name="Trazado 15" d="M543.167,748.236a1.458,1.458,0,0,0,.255-2.892c-17.786-3.194-23.095-22.554-23.146-22.748a1.458,1.458,0,1,0-2.821.739h0c.229.872,5.809,21.353,25.452,24.877A1.319,1.319,0,0,0,543.167,748.236Z" transform="translate(-517.407 -721.507)" fill="#542bd8"/>
          </g>
          <g id="Grupo_9" data-name="Grupo 9" transform="translate(60.24 121.477)">
            <path id="Trazado_16" data-name="Trazado 16" d="M498.848,891.342c20.14,0,39.15-10.525,52.136-19.952a167.71,167.71,0,0,0,26.314-23.8,1.458,1.458,0,0,0-2.2-1.913h0l-.02.024a164.63,164.63,0,0,1-25.857,23.368c-14.129,10.241-35.55,21.839-57.4,18.9a1.458,1.458,0,0,0-.445,2.882l.055.008A55.737,55.737,0,0,0,498.848,891.342Z" transform="translate(-490.153 -845.173)" fill="#542bd8"/>
          </g>
          <g id="Grupo_10" data-name="Grupo 10" transform="translate(80.66 159.898)">
            <path id="Trazado_17" data-name="Trazado 17" d="M516.581,909.459c25.911,0,44.719-16.194,45.52-16.9a1.458,1.458,0,0,0-1.92-2.194c-.19.163-18.817,16.173-43.629,16.173-.356,0-.708,0-1.065-.009h-.024a1.457,1.457,0,0,0-.026,2.915h0C515.815,909.455,516.2,909.459,516.581,909.459Z" transform="translate(-513.993 -890.028)" fill="#542bd8"/>
          </g>
        </g>
        <g id="Grupo_26" data-name="Grupo 26" transform="translate(11.412 201.991)">
          <path id="Trazado_36" data-name="Trazado 36" d="M675.429,872.7s26.1-.88,38.419,5.759,27.972,11.32,26.79,16.294-18-1.638-18-1.638-1.866,8.912-13.306,14.946-41.711-9.565-41.711-9.565Z" transform="translate(-466.784 -751.326)" fill="#f7ad89"/>
          <g id="Grupo_25" data-name="Grupo 25">
            <path id="Trazado_37" data-name="Trazado 37" d="M456.725,731c18.424,18.461,69.7,83.674,83.6,89.761,18.1,7.926,73.169,26.255,101.147,31.67,5.048.978-5.473,25.97-5.473,25.97s-78.579-6.476-109.3-18.28c-8.69-3.341-38.654-26.244-66.26-51.078-8.534-7.681-27.538-21.713-27.289-36.482C433.544,749.6,445.536,736.231,456.725,731Z" transform="translate(-433.147 -731.005)" fill="#542bd8"/>
          </g>
        </g>
        <g id="Grupo_553" data-name="Grupo 553" transform="translate(66.313)">
          <g id="Grupo_475" data-name="Grupo 475" transform="translate(30.127 165.174)">
            <path id="Trazado_1042" data-name="Trazado 1042" d="M532.739,711.306c-3.627,11.163,24.357,20.256,27.989,9.089l7.565-23.284L540.3,688.022Z" transform="translate(-532.415 -688.021)" fill="#f7ad89"/>
            <g id="Grupo_474" data-name="Grupo 474" transform="translate(0.029)" opacity="0.5">
              <path id="Trazado_1043" data-name="Trazado 1043" d="M532.744,711.306l7.566-23.285L568.3,697.11,564,710.348a40.429,40.429,0,0,0-29.785,7.643A7.063,7.063,0,0,1,532.744,711.306Z" transform="translate(-532.45 -688.021)" fill="#ffbe92"/>
            </g>
          </g>
          <g id="Grupo_481" data-name="Grupo 481">
            <g id="Grupo_476" data-name="Grupo 476" transform="translate(114.868 110.545)">
              <path id="Trazado_1044" data-name="Trazado 1044" d="M640.543,624.818c4.278-.528,9.308-1.617,12.87,1.988,4.739,4.8-.517,12.109-3.186,16.358-4.213,6.714-12.182,14.465-18.878,9.64Z" transform="translate(-631.35 -624.243)" fill="#ffbe92"/>
              <path id="Trazado_1045" data-name="Trazado 1045" d="M645.585,630.418a12.754,12.754,0,0,1,4.05.159,2.946,2.946,0,0,1,1.368.8c1.983,1.985-1.463,6.868-3.314,9.491l-.607.867c-2.727,3.925-5.974,6.617-8.383,7.615A64.931,64.931,0,0,1,645.585,630.418Z" transform="translate(-632.404 -625.115)" fill="#f2a46e"/>
            </g>
            <path id="Trazado_1046" data-name="Trazado 1046" d="M506.433,597.385c-5.136,32.283.695,81.449,38.788,90.8,1.8.43,3.549.844,5.268,1.153,6.55,1.3,12.618,1.589,19.467-.641,7.878-2.582,14.86-7.4,20.908-12.988a114.724,114.724,0,0,0,30.591-48.311,125.6,125.6,0,0,0,6.065-22.883,85.944,85.944,0,0,0,1.032-8.76c.731-11.073-.682-21.386-4.7-30.248-5.868-13.024-17.363-22.962-35.722-27.754-26.758-6.98-47.73-.14-61.96,15.265C515.985,564.057,509.267,579.5,506.433,597.385Z" transform="translate(-498.333 -500.897)" fill="#f7ad89"/>
            <g id="Grupo_477" data-name="Grupo 477" transform="translate(6.504 52.122)" opacity="0.5">
              <path id="Trazado_1047" data-name="Trazado 1047" d="M506.432,600.4c-5.136,32.283.695,81.45,38.788,90.8,1.8.43,3.549.844,5.268,1.152-31.435-15.465-36.386-42.326-37.152-68.055-1.8-58.993,39.8-41.88,49.6-39.887,12.923,2.624,24.113,3.282,36.127-2.36,3.443-1.616,8.056-3.358,11.113-5.651.069,8.655,5.585,16.2,12.547,21.041-3.017-6.276-.477-17.223-6.389-21.736-8.23-6.285-23.253-7.981-33.249-9a259.187,259.187,0,0,1-43.038-8.432,55.1,55.1,0,0,0-13.881-2.229C515.983,567.074,509.267,582.518,506.432,600.4Z" transform="translate(-504.836 -556.035)" fill="#ffbe92"/>
            </g>
            <g id="Grupo_479" data-name="Grupo 479">
              <path id="Trazado_1048" data-name="Trazado 1048" d="M514.871,589.011c-3.478-2.549-7.333-5.958-12.206-4.545-6.481,1.882-5.464,10.817-5.209,15.832.4,7.917,3.572,18.572,11.774,17.627Z" transform="translate(-497.243 -507.944)" fill="#ffbe92"/>
              <g id="Grupo_478" data-name="Grupo 478" transform="translate(0 76.191)" opacity="0.5">
                <path id="Trazado_1049" data-name="Trazado 1049" d="M514.871,589.011c-3.478-2.549-7.333-5.958-12.206-4.545-6.481,1.882-5.464,10.817-5.209,15.832.4,7.917,3.572,18.572,11.774,17.627Z" transform="translate(-497.243 -584.135)" fill="#ffbe92"/>
              </g>
              <path id="Trazado_1050" data-name="Trazado 1050" d="M636.294,591.38c-.071.119-.143.235-.213.352-2.358,3.811-4.728,7.6-7.2,11.447-1.711,2.66-4.824,8.59-4.824,8.59s-4.778,18.2-7.96,18.361c-.06-2.412,7.718-29.044,7.519-30.5a48.7,48.7,0,0,0-1.895-9.233c-2.1-5.843-6.744-9.714-8.2-16.048-.636-2.754-1.584-9.412-1.584-9.412s-16.856,7.693-26.613,7.985a132.347,132.347,0,0,1-31.612-3.065c-7.9-1.819-16.329-5.405-24.223-2.158-13.509,5.55-14.309,18.266-18.713,30.29-.882-.027-.62.077-1.35-.393-1.161-.744,1.836-9.251,2.272-10.628,1.756-5.592,3.358-15.905-5.979-15.4-2.988.16-2.445-13.342-2.2-14.413,1.687-7.539,2.746-14.786,5.751-22.012,8.655-20.81,28.927-37.039,52.057-39.573,23.61-2.582,52.865,7.894,64.559,29.825.77,1.439,1.227,4.864,2.3,5.861,1.32,1.227,5.349,1.259,7.186,2.176,8.882,4.436,11,17.6,11.064,26.662C646.505,570.482,641.734,582.488,636.294,591.38Z" transform="translate(-498.114 -495.183)" fill="#2e3062"/>
              <path id="Trazado_1051" data-name="Trazado 1051" d="M509.862,592.051c-7.466-4.918-7.738.277-6.835,9.144.461,4.763,1.983,8.689,3.6,10.741A64.815,64.815,0,0,0,509.862,592.051Z" transform="translate(-498.021 -508.807)" fill="#da8751"/>
            </g>
            <path id="Trazado_1190" data-name="Trazado 1190" d="M604.528,680.823c-6.395,13.6-26.99,26.39-47.3,22.267a94.162,94.162,0,0,1-15.452-4c-29.847-10.588-39.537-37.525-40.452-48.345-.607-7.195,7.829-36.269,7.829-36.269l3.117-3.737c-1.962,11.419-3.019,28.882,3.275,35.767,3.776,4.131,7.081,4.647,10.3,6.46,8.585,4.83,7.866-9.624,27.606,0,7.092,3.455,19.564,4.234,27.535,7.341,6.837,2.666,9.245,7.755,14.225,8.636a16.048,16.048,0,0,0,1.994.233c8.493.547,10.624-6.179,16.683-19.123.337-.738,2.919-1.348,3.275-2.136,0,0-.214.763-.634,2.136A252.191,252.191,0,0,1,604.528,680.823Z" transform="translate(-497.824 -511.76)" fill="#55578d"/>
            <path id="Trazado_1052" data-name="Trazado 1052" d="M587.859,673.636,543.4,660.94S557.725,705.569,587.859,673.636Z" transform="translate(-503.865 -518.962)" fill="#fff"/>
            <g id="Grupo_480" data-name="Grupo 480" transform="translate(45.446 103.655)">
              <path id="Trazado_1053" data-name="Trazado 1053" d="M601.412,636.095c-1.083,3.794.059,7.448,2.553,8.159s5.394-1.787,6.477-5.584-.059-7.453-2.553-8.159S602.5,632.3,601.412,636.095Z" transform="translate(-557.574 -618.235)" fill="#2e3062"/>
              <path id="Trazado_1054" data-name="Trazado 1054" d="M550.711,621.9c-1.086,3.794.058,7.448,2.552,8.159s5.395-1.789,6.479-5.584-.058-7.453-2.553-8.158S551.795,618.107,550.711,621.9Z" transform="translate(-550.301 -616.199)" fill="#2e3062"/>
            </g>
            <path id="Trazado_1055" data-name="Trazado 1055" d="M606.039,613.2s11.628.5,17.857,6.067l.845-1.927s-9.843-8.212-20.172-8.853Z" transform="translate(-512.64 -511.437)" fill="#2e3062"/>
            <path id="Trazado_1056" data-name="Trazado 1056" d="M567.058,605.482s-10.764-4.467-18.773-2.066l.053-2.11s12.408-3.265,22.052.528Z" transform="translate(-504.565 -510.22)" fill="#2e3062"/>
          </g>
        </g>
      </g>
      <g id="Grupo_28" data-name="Grupo 28" transform="translate(139.873 219.077)">
        <rect id="Rectángulo_1" data-name="Rectángulo 1" width="209.86" height="25.265" rx="2.789" transform="translate(0 124.209)" fill="#001030"/>
        <path id="Trazado_38" data-name="Trazado 38" d="M808.652,898.814l39.445-134.5c2.217-7.554-4.037-14.967-12.624-14.967h-86.8c-5.857,0-11,3.547-12.581,8.68l-43.44,140.79Z" transform="translate(-598.836 -749.34)" fill="#2e3062"/>
        <path id="Trazado_39" data-name="Trazado 39" d="M734.482,758.026,691.41,897.659H681.49l43.076-139.633c1.6-5.137,6.732-8.687,12.588-8.687h9.914C741.213,749.339,736.08,752.891,734.482,758.026Z" transform="translate(-597.235 -749.339)" fill="#001030"/>
        <path id="Trazado_40" data-name="Trazado 40" d="M769.335,839.43c-2.221,9.528,3.878,17.221,13.621,17.187s19.444-7.786,21.664-17.313S800.742,822.084,791,822.118,771.555,829.9,769.335,839.43Z" transform="translate(-609.771 -759.78)" fill="#524e82"/>
      </g>
      <g id="Grupo_653" data-name="Grupo 653" transform="translate(40.566)">
        <path id="Trazado_1343" data-name="Trazado 1343" d="M486.554,564.983a9.783,9.783,0,0,0-11.937,7.026L467.5,599.5a9.806,9.806,0,0,0,7.026,11.937l2.608.675,12.029-46.457Z" transform="translate(-467.184 -503.769)" fill="#1f234f"/>
        <g id="Grupo_652" data-name="Grupo 652" transform="translate(142.226 89.745)">
          <path id="Trazado_1344" data-name="Trazado 1344" d="M671.918,602.891l-13.548-4.256a6.3,6.3,0,0,0-1.558-.281c-2.839-.145-6.308,1.821-7.161,4.537L632.6,655.7c-1.032,3.284,1.721,8,5.006,9.037L651.15,669a6.308,6.308,0,0,0,1.558.281,6.242,6.242,0,0,0,6.27-4.367L676,610.719A6.251,6.251,0,0,0,671.918,602.891Z" transform="translate(-633.23 -598.345)" fill="#1f234f"/>
          <path id="Trazado_1345" data-name="Trazado 1345" d="M680.77,618.034l-2.57-.808L663.817,663.01l2.57.807a9.784,9.784,0,0,0,12.28-6.408l8.512-27.1A9.8,9.8,0,0,0,680.77,618.034Z" transform="translate(-637.618 -601.054)" fill="#1f234f"/>
        </g>
        <path id="Trazado_1346" data-name="Trazado 1346" d="M638.9,526.932a77.236,77.236,0,0,0-134.38,13.039l12.223,3.165a64.76,64.76,0,0,1,123.4,31.952l12.085,3.13A77.263,77.263,0,0,0,638.9,526.932Z" transform="translate(-472.541 -493.57)" fill="#1f234f"/>
        <path id="Trazado_1347" data-name="Trazado 1347" d="M504.392,546.1s-6,10.278-6,12.848l15.418,4.283s2.57-11.135,2.57-13.7Z" transform="translate(-471.661 -501.106)" fill="#1f234f"/>
        <path id="Trazado_1348" data-name="Trazado 1348" d="M662.476,586.671s-3.08,12.358-3.08,14.928l15.418,2.57s-.145-12.815-.145-15.384Z" transform="translate(-494.758 -506.926)" fill="#1f234f"/>
        <path id="Trazado_1349" data-name="Trazado 1349" d="M568.366,688.806a9.732,9.732,0,0,0-5.985-4.513l-34.369-8.9a9.79,9.79,0,0,0-10.547,4.014l-.338.5-.587-.152-14.366-3.72a25.737,25.737,0,0,1-18.442-31.332l4.449-17.184.215-.829.829.215,3.437.89a6.288,6.288,0,0,0,1.57.2c2.842,0,7.228-2.875,7.942-5.631l13.654-52.7c.418-1.615-1.136-4.636-1.982-6.074a6.2,6.2,0,0,0-3.815-2.877l-13.748-3.56a6.235,6.235,0,0,0-7.61,4.479l-14.239,54.99a6.252,6.252,0,0,0,4.48,7.609l3.436.89.829.214-.214.829-4.45,17.185a31.13,31.13,0,0,0,22.308,37.9l14.366,3.72.586.152.052.6a9.815,9.815,0,0,0,7.276,8.629l34.365,8.9a9.783,9.783,0,0,0,11.937-7.026A9.729,9.729,0,0,0,568.366,688.806Z" transform="translate(-468.195 -502.664)" fill="#1f234f"/>
      </g>
    </g>
    <g id="Grupo_655" data-name="Grupo 655" transform="translate(770.07 513.083)">
      <g id="Grupo_654" data-name="Grupo 654" transform="translate(0 0)">
        <path id="Trazado_1350" data-name="Trazado 1350" d="M909.642,578.7l13.951,6.373c14.687,6.709,38.647-15.628,54.413-50.14s16.428-67.049,2.277-73.958L966.331,454.6c-5.14-2.348-11.558.045-14.441,5.385L942.5,480.547c-3.354,7.343,2.176,15.638,9.926,15.185,5.412-.19,10.616,3.962,10.807,9.374,1.514,12.23-7.743,31.521-17.443,38.184a10.877,10.877,0,0,1-14.16-2.031c-4.732-6.155-14.623-4.905-17.978,2.438l-9.392,20.56C901.908,569.4,904.3,575.816,909.642,578.7Z" transform="translate(-903.355 -453.699)" fill="#00bd00" stroke="#6168ff" stroke-miterlimit="10" stroke-width="2"/>
      </g>
    </g>
    <g id="Grupo_69" data-name="Grupo 69" transform="translate(674.332 443.023)">
      <rect id="Rectángulo_4" data-name="Rectángulo 4" width="128.452" height="67.292" rx="1.945" transform="translate(0 130.438) rotate(-83.771)" fill="#524e82"/>
      <g id="Grupo_35" data-name="Grupo 35" transform="translate(0.651 0)">
        <g id="Grupo_34" data-name="Grupo 34">
          <g id="Grupo_33" data-name="Grupo 33" transform="translate(31.303 4.703)">
            <path id="Trazado_45" data-name="Trazado 45" d="M822.493,424.724l-2.522,2.235a3.114,3.114,0,0,0-1.007,1.993,2.83,2.83,0,0,1-2.987,2.647l-21.454-2.342a2.83,2.83,0,0,1-2.347-3.229,3.116,3.116,0,0,0-.553-2.163l-1.981-2.726Z" transform="translate(-789.642 -421.139)" fill="#2e3062"/>
            <ellipse id="Elipse_2" data-name="Elipse 2" cx="1.229" cy="1.115" rx="1.229" ry="1.115" transform="translate(23.596 7.548) rotate(-83.771)" fill="#524e82"/>
            <path id="Rectángulo_3" data-name="Rectángulo 3" d="M797.492,425.512,813.5,427.26a.553.553,0,0,1,.458.631l-.141,1.293a.553.553,0,0,1-.584.517l-16.012-1.747a.553.553,0,0,1-.458-.631l.141-1.293A.554.554,0,0,1,797.492,425.512Z" transform="translate(-791.655 -422.374)" fill="#524e82"/>
          </g>
          <path id="Trazado_1351" data-name="Trazado 1351" d="M820.644,420.563l-54.48-5.947c-3.426-.376-6.539,2.38-6.954,6.156h0v.007h0l-13.16,120.564c-.412,3.778,2.032,7.145,5.46,7.519h0l54.479,5.947c3.429.374,6.542-2.385,6.954-6.163l13.16-120.564C826.518,424.3,824.073,420.938,820.644,420.563ZM809.8,548.719a2.9,2.9,0,0,1-3.048,2.717h0l-55.244-6.03a2.9,2.9,0,0,1-2.41-3.306l13.251-121.4a3.115,3.115,0,0,1,.091-.49,3.008,3.008,0,0,1,1.872-2.1,2.5,2.5,0,0,1,.572-.128,2.618,2.618,0,0,1,.531,0l55.229,6.028a2.9,2.9,0,0,1,2.406,3.311Z" transform="translate(-746.004 -414.582)" fill="#2e3062"/>
        </g>
      </g>
      <g id="Grupo_68" data-name="Grupo 68" transform="translate(20.067 103.988)">
        <circle id="Elipse_4" data-name="Elipse 4" cx="6.033" cy="6.033" r="6.033" fill="#f43853"/>
        <path id="Trazado_78" data-name="Trazado 78" d="M780.173,567.218s-1.061-.176-1.224.077c-.242.375-.114,1.278-1.379,1.065s-.726-1.24-.547-1.532.492-.83,3.251-.529,2.948.892,3.059,1.218.417,1.442-.864,1.377-.962-.919-1.117-1.337C781.247,567.276,780.173,567.218,780.173,567.218Z" transform="translate(-774.112 -561.431)" fill="#fff"/>
        <circle id="Elipse_4-2" data-name="Elipse 4" cx="6.033" cy="6.033" r="6.033" transform="translate(20.298 2.216)" fill="#00bd00"/>
        <path id="Trazado_78-2" data-name="Trazado 78" d="M808.7,569.957s.573.91.87.864c.441-.067,1.031-.763,1.712.326s-.445,1.365-.783,1.425-.948.183-2.553-2.081-1.289-2.8-1.119-3.1.8-1.269,1.6-.268-.049,1.329-.26,1.723C808.032,569.115,808.7,569.957,808.7,569.957Z" transform="translate(-782.572 -561.565)" fill="#fff"/>
      </g>
      <g id="Grupo_657" data-name="Grupo 657" transform="translate(25.135 27.874)">
        <g id="Grupo_656" data-name="Grupo 656" clip-path="url(#clip-path)">
          <rect id="Rectángulo_104" data-name="Rectángulo 104" width="47.218" height="49.588" transform="translate(-1.988 -3.747) rotate(6.229)" fill="#fff"/>
          <g id="Grupo_66" data-name="Grupo 66" transform="translate(-0.503 2.747)">
            <g id="Grupo_65" data-name="Grupo 65">
              <g id="Grupo_54" data-name="Grupo 54" transform="translate(0 26.064)">
                <g id="Grupo_51" data-name="Grupo 51">
                  <g id="Grupo_50" data-name="Grupo 50">
                    <g id="Grupo_49" data-name="Grupo 49">
                      <path id="Trazado_54" data-name="Trazado 54" d="M811.474,506.408l-.987,9.04a1.4,1.4,0,0,1-1.543,1.246h0l-28.252-3.084a1.405,1.405,0,0,1-1.248-1.548h0l.987-9.043c.488-4.469,2.557-5.8,2.557-5.8a26.932,26.932,0,0,1,6.066-2.339c.037-.014,5.689-1.256,5.728-1.275l5.656,1.023c.642.476,4.31,2.028,6.451,3.382.324.205.514.325.7.455a8.6,8.6,0,0,1,2.964,3.1A12.581,12.581,0,0,1,811.474,506.408Z" transform="translate(-779.435 -493.604)" fill="#ff495a"/>
                    </g>
                  </g>
                </g>
                <g id="Grupo_52" data-name="Grupo 52" transform="translate(3.756 13.581)">
                  <path id="Trazado_55" data-name="Trazado 55" d="M786.9,512.907l-1.662,6.391-.562-.062,1.682-6.47a.281.281,0,1,1,.552.1A.378.378,0,0,1,786.9,512.907Z" transform="translate(-784.672 -512.536)" fill="#e21c47"/>
                </g>
                <g id="Grupo_53" data-name="Grupo 53" transform="translate(27.082 17.501)">
                  <path id="Trazado_56" data-name="Trazado 56" d="M817.844,523.4l-.562-.061-.093-5.063a.281.281,0,0,1,.561-.009Z" transform="translate(-817.189 -518.002)" fill="#e21c47"/>
                </g>
                <path id="Trazado_57" data-name="Trazado 57" d="M808.125,509.423l5.987.654s-.415,5.308-3.54,4.967C807.345,514.691,808.125,509.423,808.125,509.423Z" transform="translate(-787.522 -498.075)" fill="#e21c47"/>
              </g>
              <g id="Grupo_64" data-name="Grupo 64" transform="translate(9.732)">
                <path id="Trazado_58" data-name="Trazado 58" d="M810.928,469.006s3.308-.765,3.26-3.278c-.04-2.138-2.531-1.027-2.145-2.653s1.006-3.076-.963-3.707c-1.722-.554-1.892.722-4-1.386-2.5-2.49-5.15,2.356-7.607,2.241-3.624-.168-4.313,1.938-4.856,3.623s.978,3.9.978,3.9Z" transform="translate(-793.425 -457.269)" fill="#2e3062"/>
                <g id="Grupo_57" data-name="Grupo 57" transform="translate(15.573 14.557)">
                  <path id="Trazado_59" data-name="Trazado 59" d="M815.712,478.306s1.531-1.638,2.366-.054-1.048,5.785-3.367,4.456Z" transform="translate(-814.711 -477.562)" fill="#fa8465"/>
                  <g id="Grupo_55" data-name="Grupo 55" transform="translate(0.494 1.621)">
                    <path id="Trazado_60" data-name="Trazado 60" d="M815.584,482.059a.206.206,0,0,0,.214-.128,3.2,3.2,0,0,1,1.992-1.7.207.207,0,0,0-.1-.4h0a3.569,3.569,0,0,0-2.272,1.947.207.207,0,0,0,.116.269h0A.2.2,0,0,0,815.584,482.059Z" transform="translate(-815.399 -479.822)" fill="#fa664d"/>
                  </g>
                  <g id="Grupo_56" data-name="Grupo 56" transform="translate(1.35 2.3)">
                    <path id="Trazado_61" data-name="Trazado 61" d="M817.4,481.8a.206.206,0,0,0,.115-.021.208.208,0,0,0,.093-.278h0a1.885,1.885,0,0,0-.7-.707.207.207,0,1,0-.209.357h0a1.5,1.5,0,0,1,.543.534A.209.209,0,0,0,817.4,481.8Z" transform="translate(-816.593 -480.768)" fill="#fa664d"/>
                  </g>
                </g>
                <path id="Trazado_62" data-name="Trazado 62" d="M800.481,488.415l-.473,4.332s1.051,2.347,2.783,2.688,3.5-1.54,3.5-1.54l.49-4.484Z" transform="translate(-794.982 -466.073)" fill="#f7ad89"/>
                <path id="Trazado_63" data-name="Trazado 63" d="M800.584,488.415l-.209,1.922c1.03,1.429,3.077,1.981,6.207,1.862l.3-2.788Z" transform="translate(-795.086 -466.073)" fill="#fa8465"/>
                <path id="Trazado_64" data-name="Trazado 64" d="M811.3,473.7c-.062.435-.136.889-.223,1.354-.031.171-.065.344-.1.517-.143.705-.32,1.429-.532,2.146l0,.01c0,.011-.008.029-.015.054l-.045.147c-.032.1-.063.2-.1.3-.049.157-.1.319-.161.483-.976,2.747-2.572,5.2-5.187,5.827-6.211,1.48-8.082-3.441-8.757-6.774-.048-.227-.088-.448-.123-.658-.06-.357-.107-.755-.141-1.174v0a.116.116,0,0,1,0-.017v0c-.074-.917-.088-1.949-.07-2.973.015-.89.057-1.772.1-2.561a4.527,4.527,0,0,1,.306-1.385c.041-.1.086-.209.136-.309.026-.052.051-.1.077-.152.053-.1.11-.2.169-.291s.124-.188.189-.278.138-.177.21-.262h0a4.546,4.546,0,0,1,1.315-1.05c.1-.053.2-.1.309-.149a4.663,4.663,0,0,1,.66-.228c2.727-.721,6.789-1.082,10.325,1.465a4.543,4.543,0,0,1,1.642,2.206c.032.092.06.185.088.279.016.06.031.119.044.179.028.121.051.242.069.364a3.29,3.29,0,0,1,.038.346,4.5,4.5,0,0,1-.007.723C811.468,472.394,811.4,473.024,811.3,473.7Z" transform="translate(-793.804 -459.665)" fill="#f7ad89"/>
                <g id="Grupo_58" data-name="Grupo 58" transform="translate(7.697 22.669)">
                  <path id="Trazado_65" data-name="Trazado 65" d="M804.729,489.656a2.1,2.1,0,0,1-.932-.424.21.21,0,0,1,.268-.323h0a1.689,1.689,0,0,0,.724.331,1.776,1.776,0,0,0,.829-.111.211.211,0,0,1,.164.387A2.207,2.207,0,0,1,804.729,489.656Z" transform="translate(-803.731 -488.87)" fill="#fa8465"/>
                </g>
                <path id="Trazado_66" data-name="Trazado 66" d="M801.7,476.947c-.05.462.147.863.44.9s.573-.317.623-.78-.147-.863-.44-.9S801.749,476.484,801.7,476.947Z" transform="translate(-795.458 -462.61)" fill="#2e3062"/>
                <path id="Trazado_67" data-name="Trazado 67" d="M810.712,477.93c-.051.463.146.864.44.9s.573-.317.623-.78-.147-.863-.44-.9S810.762,477.467,810.712,477.93Z" transform="translate(-798.005 -462.888)" fill="#2e3062"/>
                <path id="Trazado_68" data-name="Trazado 68" d="M799.729,472.981a5.95,5.95,0,0,1,3.907.288l-.272.923a10.944,10.944,0,0,0-3.77-.111A1.647,1.647,0,0,1,799.729,472.981Z" transform="translate(-794.854 -461.651)" fill="#2e3062"/>
                <path id="Trazado_69" data-name="Trazado 69" d="M812.836,474.378a6,6,0,0,0-3.907-.567l.067.968a11,11,0,0,1,3.733.71A1.654,1.654,0,0,0,812.836,474.378Z" transform="translate(-797.504 -461.902)" fill="#2e3062"/>
                <g id="Grupo_59" data-name="Grupo 59" transform="translate(8.391 14.466)">
                  <path id="Trazado_70" data-name="Trazado 70" d="M805.53,481.418a2.207,2.207,0,0,1-.727-.238.207.207,0,0,1,.2-.364,1.24,1.24,0,0,0,.817.168.225.225,0,0,0,.123-.181,31.067,31.067,0,0,0,.219-3.165.207.207,0,0,1,.414.011,30.729,30.729,0,0,1-.229,3.241.632.632,0,0,1-.354.47A.875.875,0,0,1,805.53,481.418Z" transform="translate(-804.699 -477.436)" fill="#fa8465"/>
                </g>
                <path id="Trazado_71" data-name="Trazado 71" d="M807.317,485.357a2.478,2.478,0,0,1-2.669,1.968,2.383,2.383,0,0,1-2.171-2.5Z" transform="translate(-795.68 -465.059)" fill="#fff9ff"/>
                <path id="Trazado_72" data-name="Trazado 72" d="M811.3,473.7c-.062.435-.136.889-.223,1.354-.031.171-.065.344-.1.517-.143.705-.319,1.429-.531,2.146l-.859-.274a13.957,13.957,0,0,0,.839-3.62c-.091-1.016-.85-1.691-.47-2.619a2.031,2.031,0,0,0-1.25-2.323c-.726-.255-2.666.615-4.176-.555a5.145,5.145,0,0,0-5.177-.466c-1.191.735-.572,2.493-1.383,2.62s-.455,2.017-.454,2.955c0,.907.07,2.126.074,2.2l-1.035-.089-.2-1.953c-.336-.193-.339-.5-.509-.654.014-.89.057-1.772.1-2.561a4.527,4.527,0,0,1,.306-1.385c.041-.1.086-.209.136-.309l.077-.152c.054-.1.11-.2.169-.291s.123-.188.189-.278.137-.177.21-.262h0a4.522,4.522,0,0,1,1.314-1.05c.1-.052.2-.1.31-.149a4.664,4.664,0,0,1,.659-.228c2.728-.721,6.79-1.082,10.325,1.465a4.544,4.544,0,0,1,1.643,2.206c.032.093.06.187.087.278.016.06.031.119.044.179.029.12.051.242.069.364a3.356,3.356,0,0,1,.038.346,4.46,4.46,0,0,1-.005.725C811.472,472.4,811.4,473.027,811.3,473.7Z" transform="translate(-793.806 -459.665)" fill="#2e3062"/>
                <g id="Grupo_63" data-name="Grupo 63" transform="translate(0 12.743)">
                  <path id="Trazado_73" data-name="Trazado 73" d="M795.794,476.742a1.8,1.8,0,0,0-.72-1.45,1.054,1.054,0,0,0-1.582.231c-1.155,1.366-.224,5.876,2.326,5.078Z" transform="translate(-793.002 -475.033)" fill="#f7ad89"/>
                  <g id="Grupo_60" data-name="Grupo 60" transform="translate(0.559 1.51)">
                    <path id="Trazado_74" data-name="Trazado 74" d="M795.654,479.791a.206.206,0,0,1-.182-.171,3.2,3.2,0,0,0-1.578-2.09.207.207,0,0,1,.188-.369,3.568,3.568,0,0,1,1.8,2.392.207.207,0,0,1-.171.238A.21.21,0,0,1,795.654,479.791Z" transform="translate(-793.781 -477.138)" fill="#fa8465"/>
                  </g>
                  <g id="Grupo_62" data-name="Grupo 62" transform="translate(0.915 2.447)">
                    <g id="Grupo_61" data-name="Grupo 61">
                      <path id="Trazado_75" data-name="Trazado 75" d="M794.462,479.33a.207.207,0,0,1-.138-.336h0a1.889,1.889,0,0,1,.84-.539.207.207,0,1,1,.127.394,1.5,1.5,0,0,0-.646.405A.207.207,0,0,1,794.462,479.33Z" transform="translate(-794.278 -478.445)" fill="#fa8465"/>
                    </g>
                  </g>
                </g>
              </g>
            </g>
          </g>
        </g>
      </g>
      <g id="Grupo_658" data-name="Grupo 658" transform="translate(17.941 72.978)">
        <g id="Trazado_1352" data-name="Trazado 1352" transform="translate(-770.107 -516.317)" fill="#fff" stroke-miterlimit="10">
          <path d="M773.076,516.317l.913.1-.516,4.732c-.205,1.879-1.192,2.355-2.409,2.221a2.959,2.959,0,0,1-.957-.274l.217-.73a2.188,2.188,0,0,0,.751.22c.819.09,1.341-.225,1.492-1.611Z" stroke="none"/>
          <path d="M 773.0759887695312 516.3170166015625 L 773.9891357421875 516.4166259765625 L 773.4727172851562 521.148193359375 C 773.2885131835938 522.833984375 772.4752807617188 523.3906860351562 771.4306640625 523.3906860351562 C 771.3111572265625 523.3906860351562 771.1888427734375 523.3833618164062 771.0638427734375 523.3696899414062 C 770.7282104492188 523.333251953125 770.3271484375 523.215576171875 770.10693359375 523.0957641601562 L 770.3242797851562 522.3655395507812 C 770.505126953125 522.4595336914062 770.771240234375 522.5527954101562 771.0753173828125 522.5858154296875 C 771.1588745117188 522.594970703125 771.239501953125 522.5999145507812 771.3168334960938 522.5999145507812 C 771.9968872070312 522.5999145507812 772.43212890625 522.2190551757812 772.5673828125 520.9752807617188 L 773.0759887695312 516.3170166015625 Z" stroke="none" fill="#fff"/>
        </g>
        <g id="Trazado_1353" data-name="Trazado 1353" transform="translate(-771.874 -517.246)" fill="#fff" stroke-miterlimit="10">
          <path d="M781.352,522.5a2.5,2.5,0,0,1-2.823,2.42,2.428,2.428,0,0,1-2.149-2.878,2.5,2.5,0,0,1,2.813-2.422A2.419,2.419,0,0,1,781.352,522.5Zm-4.034-.387a1.739,1.739,0,0,0,1.329,2.12c.882.1,1.633-.661,1.757-1.8.094-.86-.217-2-1.308-2.118S777.423,521.148,777.317,522.113Z" stroke="none"/>
          <path d="M 778.8304443359375 524.9371948242188 C 778.7293090820312 524.9371948242188 778.6286010742188 524.931640625 778.5289306640625 524.9207763671875 C 777.154541015625 524.7708740234375 776.2047729492188 523.6482543945312 776.3798217773438 522.0429077148438 C 776.5516357421875 520.4712524414062 777.6089477539062 519.6038818359375 778.8790283203125 519.6038818359375 C 778.9822998046875 519.6038818359375 779.0867919921875 519.609619140625 779.1925048828125 519.6211547851562 C 780.65087890625 519.7803955078125 781.5216674804688 520.9482421875 781.3516235351562 522.5005493164062 C 781.163818359375 524.2259521484375 779.974853515625 524.9371948242188 778.8304443359375 524.9371948242188 Z M 778.9146118164062 520.3012084960938 C 777.9397583007812 520.3012084960938 777.4168701171875 521.2033081054688 777.3174438476562 522.1130981445312 C 777.1961669921875 523.2257690429688 777.7442626953125 524.1345825195312 778.6466064453125 524.2335205078125 C 778.6970825195312 524.239013671875 778.7471923828125 524.2417602539062 778.7967529296875 524.2417602539062 C 779.6122436523438 524.2418212890625 780.286376953125 523.5075073242188 780.404052734375 522.4288330078125 C 780.4981079101562 521.5686645507812 780.1867065429688 520.4302978515625 779.0963745117188 520.311279296875 C 779.0341796875 520.3045043945312 778.9735107421875 520.3012084960938 778.9146118164062 520.3012084960938 Z" stroke="none" fill="#fff"/>
        </g>
        <g id="Trazado_1354" data-name="Trazado 1354" transform="translate(-774.06 -517.469)" fill="#fff" stroke-miterlimit="10">
          <path d="M784.4,524.473a2.432,2.432,0,0,0,1.176.5c.672.074,1.024-.228,1.07-.648.048-.44-.188-.71-.843-1.036-.877-.425-1.253-.976-1.186-1.584a1.576,1.576,0,0,1,1.915-1.3,2.557,2.557,0,0,1,1.214.451l-.3.646a1.989,1.989,0,0,0-1.006-.407c-.546-.06-.884.222-.926.6-.045.42.238.642.871.966.845.432,1.247.922,1.165,1.677-.1.892-.858,1.445-2.064,1.314a2.916,2.916,0,0,1-1.39-.5Z" stroke="none"/>
          <path d="M 785.822998046875 525.6724853515625 C 785.7132568359375 525.6724853515625 785.5990600585938 525.6661987304688 785.4805297851562 525.6533203125 C 784.923828125 525.5923461914062 784.4252319335938 525.4000854492188 784.0909423828125 525.1511840820312 L 784.3987426757812 524.4732666015625 C 784.65185546875 524.6812744140625 785.1138916015625 524.923095703125 785.5751953125 524.9732666015625 C 785.6435546875 524.9807739257812 785.708740234375 524.9844360351562 785.7705078125 524.9844360351562 C 786.3157958984375 524.9844360351562 786.6034545898438 524.7024536132812 786.6447143554688 524.3255615234375 C 786.6928100585938 523.8851318359375 786.4567260742188 523.6153564453125 785.8018798828125 523.2890625 C 784.924560546875 522.8643188476562 784.5493774414062 522.3134155273438 784.6160278320312 521.7051391601562 C 784.6974487304688 520.95654296875 785.3190307617188 520.3909301757812 786.2593994140625 520.3909301757812 C 786.34716796875 520.3909301757812 786.4375610351562 520.3958740234375 786.53076171875 520.406005859375 C 787.0449829101562 520.462646484375 787.479736328125 520.6585693359375 787.7450561523438 520.8572998046875 L 787.44091796875 521.5036010742188 C 787.255126953125 521.355712890625 786.9058227539062 521.147705078125 786.4344482421875 521.09619140625 C 786.3851928710938 521.0908203125 786.3375244140625 521.0881958007812 786.291748046875 521.0881958007812 C 785.829833984375 521.0881958007812 785.5462646484375 521.3525390625 785.508544921875 521.69580078125 C 785.4632568359375 522.1161499023438 785.7466430664062 522.3377685546875 786.3800048828125 522.6620483398438 C 787.22509765625 523.0938720703125 787.6273803710938 523.5838012695312 787.544921875 524.339111328125 C 787.4576416015625 525.1431884765625 786.830078125 525.6724853515625 785.822998046875 525.6724853515625 Z" stroke="none" fill="#fff"/>
        </g>
        <g id="Trazado_1355" data-name="Trazado 1355" transform="translate(-775.78 -516.873)" fill="#fff" stroke-miterlimit="10">
          <path d="M791.07,522.974a1.636,1.636,0,0,0,1.549,1.953,3.351,3.351,0,0,0,1.434-.109l.085.678a4.127,4.127,0,0,1-1.723.13,2.372,2.372,0,0,1-2.218-2.833,2.479,2.479,0,0,1,2.681-2.478,2.164,2.164,0,0,1,1.837,2.621,3.558,3.558,0,0,1-.078.426Zm2.779-.366a1.322,1.322,0,0,0-1.116-1.64,1.539,1.539,0,0,0-1.58,1.346Zm.683-4.214-1.443,1.361-.661-.072,1.087-1.4Z" stroke="none"/>
          <path d="M 792.9954833984375 525.658935546875 C 792.8178100585938 525.658935546875 792.6244506835938 525.649169921875 792.4154663085938 525.6263427734375 C 790.8517456054688 525.45556640625 790.0304565429688 524.3258056640625 790.1975708007812 522.79345703125 C 790.353759765625 521.3618774414062 791.267333984375 520.3001098632812 792.5945434570312 520.3001098632812 C 792.6871948242188 520.3001098632812 792.7816772460938 520.3052978515625 792.8782348632812 520.3158569335938 C 794.5359497070312 520.4967041015625 794.817138671875 522.0030517578125 794.71533203125 522.93701171875 C 794.6943969726562 523.125732421875 794.6578979492188 523.2698974609375 794.6370849609375 523.3630981445312 L 791.0697631835938 522.974365234375 C 790.9542846679688 524.2245483398438 791.6952514648438 524.8257446289062 792.6192016601562 524.9268798828125 C 792.8035888671875 524.9471435546875 792.9686279296875 524.9560546875 793.1184692382812 524.9560546875 C 793.5055541992188 524.9560546875 793.7919921875 524.8964233398438 794.0531616210938 524.81787109375 L 794.1386108398438 525.495849609375 C 793.8854370117188 525.5787353515625 793.5045776367188 525.658935546875 792.9954833984375 525.658935546875 Z M 792.5756225585938 520.9599609375 C 791.7418823242188 520.9599609375 791.28759765625 521.7186889648438 791.1522827148438 522.3143920898438 L 793.8487548828125 522.6083984375 C 793.9234008789062 522.0223999023438 793.7711791992188 521.08203125 792.7324829101562 520.9686279296875 C 792.6787719726562 520.9627685546875 792.62646484375 520.9599609375 792.5756225585938 520.9599609375 Z M 793.08837890625 519.7549438476562 L 792.4270629882812 519.6824951171875 L 793.5137329101562 518.282958984375 L 794.5316772460938 518.3941650390625 L 793.08837890625 519.7549438476562 Z" stroke="none" fill="#fff"/>
        </g>
        <g id="Trazado_1356" data-name="Trazado 1356" transform="translate(-778.788 -517.197)" fill="#fff" stroke-miterlimit="10">
          <path d="M801.581,519.446a10.649,10.649,0,0,1,1.767.055,2.918,2.918,0,0,1,1.919.8,1.911,1.911,0,0,1,.458,1.547,2.091,2.091,0,0,1-.711,1.451,2.949,2.949,0,0,1-2.246.541,3.183,3.183,0,0,1-.727-.143l-.309,2.833-.912-.1Zm.54,3.51a3.1,3.1,0,0,0,.748.156c1.1.12,1.831-.341,1.938-1.317.1-.934-.51-1.458-1.517-1.567a3.819,3.819,0,0,0-.868-.02Z" stroke="none"/>
          <path d="M 802.1172485351562 519.4313354492188 C 802.4683837890625 519.4313354492188 802.8770751953125 519.4498291015625 803.3482055664062 519.5013427734375 C 804.2506103515625 519.599609375 804.8890380859375 519.881591796875 805.26708984375 520.3054809570312 C 805.6185302734375 520.6828002929688 805.7935791015625 521.2229614257812 805.7246704101562 521.85205078125 C 805.6551513671875 522.4918212890625 805.4112548828125 522.974609375 805.0137939453125 523.30322265625 C 804.57080078125 523.6829833984375 803.939453125 523.8697509765625 803.232177734375 523.8697509765625 C 803.0805053710938 523.8697509765625 802.9254760742188 523.8611450195312 802.7678833007812 523.8440551757812 C 802.4952392578125 523.81396484375 802.2449340820312 523.7759399414062 802.0404663085938 523.7006225585938 L 801.7313842773438 526.5333251953125 L 800.8189086914062 526.43359375 L 801.5814208984375 519.4461669921875 C 801.7424926757812 519.4371337890625 801.9208984375 519.4313354492188 802.1172485351562 519.4313354492188 Z M 803.2011108398438 523.1304321289062 C 804.1160888671875 523.1304321289062 804.712158203125 522.668701171875 804.8072509765625 521.794677734375 C 804.9090576171875 520.8607177734375 804.2972412109375 520.3370361328125 803.2900390625 520.227294921875 C 803.0592041015625 520.2019653320312 802.8587036132812 520.1907958984375 802.6993408203125 520.1907958984375 C 802.583984375 520.1907958984375 802.490234375 520.1966552734375 802.422119140625 520.2071533203125 L 802.12158203125 522.9560546875 C 802.3159790039062 523.0299072265625 802.56494140625 523.07861328125 802.8696899414062 523.1116943359375 C 802.9842529296875 523.1242065429688 803.0948486328125 523.1304321289062 803.2011108398438 523.1304321289062 Z" stroke="none" fill="#fff"/>
        </g>
        <g id="Trazado_1357" data-name="Trazado 1357" transform="translate(-780.825 -518.218)" fill="#fff" stroke-miterlimit="10">
          <path d="M808.917,525.717a1.637,1.637,0,0,0,1.549,1.953,3.355,3.355,0,0,0,1.435-.109l.085.679a4.142,4.142,0,0,1-1.724.13,2.372,2.372,0,0,1-2.218-2.832,2.48,2.48,0,0,1,2.681-2.478,2.163,2.163,0,0,1,1.837,2.621,3.414,3.414,0,0,1-.078.426Zm2.779-.366a1.322,1.322,0,0,0-1.116-1.64,1.539,1.539,0,0,0-1.58,1.346Z" stroke="none"/>
          <path d="M 810.8431396484375 528.40185546875 C 810.6652221679688 528.40185546875 810.4716796875 528.39208984375 810.2625122070312 528.3692016601562 C 808.6988525390625 528.198486328125 807.87744140625 527.0687255859375 808.0444946289062 525.5372314453125 C 808.2008666992188 524.1045532226562 809.115478515625 523.0431518554688 810.442626953125 523.0431518554688 C 810.534912109375 523.0431518554688 810.6290893554688 523.0482788085938 810.7252197265625 523.0587768554688 C 812.383056640625 523.2395629882812 812.6649169921875 524.7459716796875 812.5623168945312 525.679931640625 C 812.5422973632812 525.86865234375 812.5048828125 526.0127563476562 812.4841918945312 526.1060791015625 L 808.9168090820312 525.7171630859375 C 808.8013916015625 526.967529296875 809.5431518554688 527.5693359375 810.46630859375 527.6697998046875 C 810.6506958007812 527.6900634765625 810.8157348632812 527.698974609375 810.9656982421875 527.698974609375 C 811.3529663085938 527.698974609375 811.6398315429688 527.639404296875 811.9009399414062 527.560791015625 L 811.9862670898438 528.2393798828125 C 811.7333374023438 528.32177734375 811.3522338867188 528.40185546875 810.8431396484375 528.40185546875 Z M 810.4227905273438 523.702880859375 C 809.5889282226562 523.702880859375 809.1344604492188 524.4616088867188 808.999267578125 525.057373046875 L 811.69580078125 525.3514404296875 C 811.7703857421875 524.765380859375 811.6183471679688 523.8248901367188 810.5795288085938 523.7115478515625 C 810.52587890625 523.7056884765625 810.4735717773438 523.702880859375 810.4227905273438 523.702880859375 Z" stroke="none" fill="#fff"/>
        </g>
        <g id="Trazado_1358" data-name="Trazado 1358" transform="translate(-782.944 -518.408)" fill="#fff" stroke-miterlimit="10">
          <path d="M815.9,525.3c.065-.6.111-1.113.131-1.589l.808.088-.078,1,.042,0a1.534,1.534,0,0,1,1.528-.958,1.019,1.019,0,0,1,.259.06l-.1.87a1.423,1.423,0,0,0-.311-.065,1.3,1.3,0,0,0-1.367,1.05,2.586,2.586,0,0,0-.09.425l-.295,2.707-.913-.1Z" stroke="none"/>
          <path d="M 816.0321655273438 523.7130126953125 L 816.840576171875 523.80126953125 L 816.7630004882812 524.8011474609375 L 816.8045654296875 524.805419921875 C 817.0863037109375 524.1997680664062 817.6210327148438 523.8392333984375 818.1878051757812 523.8391723632812 C 818.2359619140625 523.8391723632812 818.2841796875 523.841796875 818.3326416015625 523.8470458984375 C 818.437255859375 523.858642578125 818.509765625 523.8773193359375 818.5914916992188 523.9073486328125 L 818.49609375 524.7775268554688 C 818.403564453125 524.74658203125 818.3102416992188 524.725830078125 818.1847534179688 524.712158203125 C 818.138916015625 524.7071533203125 818.09375 524.7047119140625 818.04931640625 524.7047119140625 C 817.4630737304688 524.7047119140625 817.0048828125 525.1315307617188 816.8174438476562 525.7623901367188 C 816.7824096679688 525.8857421875 816.7451171875 526.0306396484375 816.7278442382812 526.187744140625 L 816.43310546875 528.89501953125 L 815.5199584960938 528.7952880859375 L 815.9014892578125 525.3018188476562 C 815.966796875 524.70361328125 816.0127563476562 524.1884765625 816.0321655273438 523.7130126953125 Z" stroke="none" fill="#fff"/>
        </g>
        <g id="Trazado_1359" data-name="Trazado 1359" transform="translate(-784.207 -518.587)" fill="#fff" stroke-miterlimit="10">
          <path d="M820.883,527.023a1.637,1.637,0,0,0,1.549,1.953,3.344,3.344,0,0,0,1.435-.109l.085.679a4.14,4.14,0,0,1-1.724.13,2.372,2.372,0,0,1-2.218-2.832,2.48,2.48,0,0,1,2.681-2.478,2.164,2.164,0,0,1,1.838,2.621,3.528,3.528,0,0,1-.079.427Zm2.779-.366a1.322,1.322,0,0,0-1.116-1.64,1.538,1.538,0,0,0-1.579,1.346Z" stroke="none"/>
          <path d="M 822.8092041015625 529.7078247070312 C 822.6312866210938 529.7078247070312 822.4378051757812 529.6980590820312 822.2285766601562 529.6751708984375 C 820.6647338867188 529.5044555664062 819.843505859375 528.3746948242188 820.0105590820312 526.8431396484375 C 820.166748046875 525.4111938476562 821.0814208984375 524.34912109375 822.4087524414062 524.34912109375 C 822.5010375976562 524.34912109375 822.5951538085938 524.354248046875 822.6912841796875 524.36474609375 C 824.3490600585938 524.5455322265625 824.6309204101562 526.0518798828125 824.5289916992188 526.9859008789062 C 824.5081787109375 527.174560546875 824.470947265625 527.3194580078125 824.4501342773438 527.4126586914062 L 820.8828735351562 527.023193359375 C 820.7674560546875 528.2735595703125 821.509033203125 528.8753662109375 822.432373046875 528.975830078125 C 822.6173095703125 528.99609375 822.7827758789062 529.0050659179688 822.93310546875 529.0050659179688 C 823.3197021484375 529.0050659179688 823.606201171875 528.9457397460938 823.8670043945312 528.86669921875 L 823.9522705078125 529.5452880859375 C 823.6992797851562 529.6278076171875 823.3182373046875 529.707763671875 822.8092041015625 529.7078247070312 Z M 822.3887329101562 525.0088500976562 C 821.5549926757812 525.0088500976562 821.1005859375 525.7676391601562 820.9661254882812 526.36328125 L 823.6618041992188 526.6574096679688 C 823.7363891601562 526.0712890625 823.584228515625 525.130859375 822.5455932617188 525.0175170898438 C 822.4918823242188 525.0116577148438 822.4396362304688 525.0088500976562 822.3887329101562 525.0088500976562 Z" stroke="none" fill="#fff"/>
        </g>
        <g id="Trazado_1360" data-name="Trazado 1360" transform="translate(-786.099 -518.763)" fill="#fff" stroke-miterlimit="10">
          <path d="M826.741,529.489l2.624-2.739c.25-.249.486-.468.747-.715l0-.021-2.749-.3.081-.745,3.871.422-.073.576-2.588,2.7c-.241.26-.478.489-.737.727l0,.021,2.969.324-.08.734-4.123-.451Z" stroke="none"/>
          <path d="M 830.80517578125 530.4744873046875 L 826.6820068359375 530.0239868164062 L 826.74072265625 529.4888305664062 L 829.36474609375 526.7501220703125 C 829.6143798828125 526.501220703125 829.8504638671875 526.2824096679688 830.111572265625 526.0350341796875 L 830.1136474609375 526.01416015625 L 827.36474609375 525.713623046875 L 827.4459228515625 524.968994140625 L 831.3173828125 525.3914184570312 L 831.244140625 525.967529296875 L 828.656005859375 528.668212890625 C 828.4150390625 528.9287109375 828.1776123046875 529.157470703125 827.9185791015625 529.3948974609375 L 827.91650390625 529.415771484375 L 830.885498046875 529.739990234375 L 830.80517578125 530.4744873046875 Z" stroke="none" fill="#fff"/>
        </g>
      </g>
      <g id="Grupo_659" data-name="Grupo 659" transform="translate(20.662 82.966)">
        <path id="Trazado_1361" data-name="Trazado 1361" d="M774.289,530.241l.46.05-.347,3.176,1.522.166-.042.385L773.9,533.8Z" transform="translate(-773.9 -530.241)" fill="#fff"/>
        <path id="Trazado_1362" data-name="Trazado 1362" d="M777.763,530.353l.466.05-.409,3.752-.466-.05Z" transform="translate(-774.876 -530.273)" fill="#fff"/>
        <path id="Trazado_1363" data-name="Trazado 1363" d="M780.456,534.928l0-.326-.016,0a.961.961,0,0,1-.824.3.733.733,0,0,1-.7-.82c.068-.618.654-.9,1.642-.784l.006-.052a.531.531,0,0,0-.517-.656,1.281,1.281,0,0,0-.686.118l-.072-.318a1.59,1.59,0,0,1,.865-.136.913.913,0,0,1,.859,1.153l-.1.956a3.588,3.588,0,0,0-.024.618Zm.074-1.313c-.506-.065-1.093-.039-1.147.458a.414.414,0,0,0,.39.491.639.639,0,0,0,.665-.36.474.474,0,0,0,.043-.146Z" transform="translate(-775.315 -530.805)" fill="#fff"/>
        <path id="Trazado_1364" data-name="Trazado 1364" d="M782.844,533.286c.029-.264.047-.481.055-.694l.407.045-.024.414.015,0a.888.888,0,0,1,.855-.382.759.759,0,0,1,.668.591h.011a1.059,1.059,0,0,1,.322-.3.876.876,0,0,1,.585-.118c.339.036.816.314.719,1.2l-.165,1.506-.454-.049.158-1.448c.054-.492-.093-.808-.469-.849a.605.605,0,0,0-.6.363.781.781,0,0,0-.062.229l-.173,1.58-.454-.05.167-1.532c.044-.407-.1-.723-.457-.761a.7.7,0,0,0-.689.626l-.169,1.543-.455-.049Z" transform="translate(-776.37 -530.906)" fill="#fff"/>
        <path id="Trazado_1365" data-name="Trazado 1365" d="M790.146,535.987v-.326l-.016,0a.956.956,0,0,1-.823.295.733.733,0,0,1-.7-.82c.067-.618.653-.9,1.642-.783l.006-.052a.531.531,0,0,0-.517-.656,1.28,1.28,0,0,0-.686.118l-.073-.318a1.594,1.594,0,0,1,.865-.136.913.913,0,0,1,.858,1.153l-.1.956a3.581,3.581,0,0,0-.024.618Zm.074-1.313c-.506-.065-1.092-.039-1.146.458a.414.414,0,0,0,.39.491.64.64,0,0,0,.665-.361.485.485,0,0,0,.043-.145Z" transform="translate(-778.055 -531.104)" fill="#fff"/>
        <path id="Trazado_1366" data-name="Trazado 1366" d="M794.926,532.3l-.338,3.092c-.024.227-.047.486-.051.663l-.418-.046.027-.446h-.01a.953.953,0,0,1-.927.407,1.173,1.173,0,0,1-.952-1.42,1.23,1.23,0,0,1,1.3-1.249.863.863,0,0,1,.73.476h.01l.167-1.527Zm-.709,2.185a.876.876,0,0,0,0-.2.689.689,0,0,0-.613-.613c-.481-.052-.812.339-.875.9-.056.518.151.974.653,1.029a.7.7,0,0,0,.742-.481.783.783,0,0,0,.043-.2Z" transform="translate(-779.086 -530.81)" fill="#fff"/>
        <path id="Trazado_1367" data-name="Trazado 1367" d="M797.849,536.827l0-.326h-.016a.958.958,0,0,1-.824.295.733.733,0,0,1-.7-.82c.068-.618.654-.9,1.642-.783l.006-.052a.531.531,0,0,0-.516-.656,1.284,1.284,0,0,0-.687.118l-.072-.318a1.593,1.593,0,0,1,.865-.135.912.912,0,0,1,.858,1.152l-.1.957a3.739,3.739,0,0,0-.024.618Zm.073-1.313c-.506-.066-1.092-.039-1.146.458a.414.414,0,0,0,.39.492.64.64,0,0,0,.665-.361.492.492,0,0,0,.042-.145Z" transform="translate(-780.232 -531.342)" fill="#fff"/>
        <path id="Trazado_1368" data-name="Trazado 1368" d="M803.643,535.36l-1.384-.151-.14,1.284,1.543.169-.042.386-2-.219.389-3.562,1.924.21-.042.386-1.463-.159-.123,1.125,1.385.151Z" transform="translate(-781.735 -531.096)" fill="#fff"/>
        <path id="Trazado_1369" data-name="Trazado 1369" d="M805.422,535.75c.029-.264.047-.481.055-.694l.412.045-.019.425h.01a.947.947,0,0,1,.9-.389c.354.039.881.31.785,1.187l-.167,1.527-.465-.05.161-1.475c.045-.412-.07-.773-.509-.821a.665.665,0,0,0-.675.408.654.654,0,0,0-.056.213l-.168,1.538-.465-.051Z" transform="translate(-782.753 -531.602)" fill="#fff"/>
        <path id="Trazado_1370" data-name="Trazado 1370" d="M810.176,534.564l-.08.734.666.073-.039.354-.666-.072-.151,1.38c-.034.317.036.506.295.535a1.025,1.025,0,0,0,.273,0l-.017.352a1.133,1.133,0,0,1-.419.018.65.65,0,0,1-.481-.25.955.955,0,0,1-.107-.686l.152-1.4-.4-.043.039-.354.4.043.067-.613Z" transform="translate(-783.88 -531.463)" fill="#fff"/>
        <path id="Trazado_1371" data-name="Trazado 1371" d="M811.905,536.565c.033-.3.056-.561.066-.8l.407.044-.039.5.021,0a.773.773,0,0,1,.77-.483.485.485,0,0,1,.131.031l-.048.438a.725.725,0,0,0-.157-.033.656.656,0,0,0-.689.529,1.332,1.332,0,0,0-.045.214l-.149,1.364-.46-.05Z" transform="translate(-784.589 -531.802)" fill="#fff"/>
        <path id="Trazado_1372" data-name="Trazado 1372" d="M815.449,538.748l0-.326h-.016a.958.958,0,0,1-.824.295.733.733,0,0,1-.7-.82c.067-.618.654-.9,1.642-.783l.006-.052a.531.531,0,0,0-.517-.656,1.281,1.281,0,0,0-.686.118l-.072-.319a1.6,1.6,0,0,1,.865-.135A.913.913,0,0,1,816,537.22l-.1.957a3.586,3.586,0,0,0-.024.618Zm.074-1.313c-.506-.065-1.093-.039-1.147.458a.414.414,0,0,0,.39.491.642.642,0,0,0,.666-.361.487.487,0,0,0,.042-.145Z" transform="translate(-785.207 -531.885)" fill="#fff"/>
        <path id="Trazado_1373" data-name="Trazado 1373" d="M817.837,537.106c.029-.265.047-.481.055-.7l.412.045-.019.425h.01a.947.947,0,0,1,.9-.389c.354.039.881.31.785,1.188l-.167,1.527-.465-.051.161-1.475c.045-.412-.071-.773-.509-.82a.665.665,0,0,0-.676.407.678.678,0,0,0-.055.213l-.168,1.538-.465-.051Z" transform="translate(-786.262 -531.985)" fill="#fff"/>
        <path id="Trazado_1374" data-name="Trazado 1374" d="M822.591,535.919l-.08.735.666.072-.038.354-.666-.073-.15,1.38c-.034.317.036.506.295.535a1.033,1.033,0,0,0,.273,0l-.017.352a1.149,1.149,0,0,1-.419.019.653.653,0,0,1-.481-.25.955.955,0,0,1-.107-.686l.153-1.4-.4-.043.039-.354.4.043.067-.613Z" transform="translate(-787.389 -531.846)" fill="#fff"/>
        <path id="Trazado_1375" data-name="Trazado 1375" d="M824.45,538.528a.824.824,0,0,0,.781.983,1.7,1.7,0,0,0,.722-.054l.043.341a2.088,2.088,0,0,1-.868.065,1.194,1.194,0,0,1-1.117-1.426,1.249,1.249,0,0,1,1.349-1.249,1.091,1.091,0,0,1,.926,1.321,1.916,1.916,0,0,1-.039.214Zm1.4-.184a.665.665,0,0,0-.562-.826.775.775,0,0,0-.8.677Z" transform="translate(-788.062 -532.203)" fill="#fff"/>
      </g>
      <g id="Grupo_660" data-name="Grupo 660" transform="translate(72.261 11.084)">
        <path id="Trazado_1376" data-name="Trazado 1376" d="M849.653,430.144l-.275,2.835a.075.075,0,0,1-.081.067l-.3-.029a.075.075,0,0,1-.067-.082l.275-2.835a.076.076,0,0,1,.082-.067l.3.029A.075.075,0,0,1,849.653,430.144Z" transform="translate(-846.709 -430.034)" fill="#fff"/>
        <path id="Trazado_1377" data-name="Trazado 1377" d="M848.562,430.876l-.217,2.238a.076.076,0,0,1-.082.067l-.3-.029a.074.074,0,0,1-.067-.082l.217-2.237a.074.074,0,0,1,.082-.067l.3.029A.074.074,0,0,1,848.562,430.876Z" transform="translate(-846.417 -430.24)" fill="#fff"/>
        <path id="Trazado_1378" data-name="Trazado 1378" d="M847.485,431.4l-.174,1.79a.075.075,0,0,1-.082.067l-.3-.029a.075.075,0,0,1-.067-.082l.174-1.79a.076.076,0,0,1,.082-.067l.3.029A.075.075,0,0,1,847.485,431.4Z" transform="translate(-846.125 -430.388)" fill="#fff"/>
        <path id="Trazado_1379" data-name="Trazado 1379" d="M846.408,431.923l-.131,1.343a.075.075,0,0,1-.081.067l-.3-.029a.076.076,0,0,1-.067-.082l.13-1.342a.075.075,0,0,1,.082-.067l.3.029A.074.074,0,0,1,846.408,431.923Z" transform="translate(-845.833 -430.536)" fill="#fff"/>
      </g>
      <g id="Grupo_669" data-name="Grupo 669" transform="translate(68.352 11.021)">
        <g id="Grupo_662" data-name="Grupo 662" transform="translate(1.288 2.081)">
          <g id="Grupo_661" data-name="Grupo 661">
            <path id="Trazado_1380" data-name="Trazado 1380" d="M842.518,432.849a.306.306,0,1,0,.273.336A.307.307,0,0,0,842.518,432.849Z" transform="translate(-842.179 -432.847)" fill="#fff"/>
          </g>
        </g>
        <g id="Grupo_664" data-name="Grupo 664" transform="translate(0.854 1.354)">
          <g id="Grupo_663" data-name="Grupo 663">
            <path id="Trazado_1381" data-name="Trazado 1381" d="M843.135,432.229a1.059,1.059,0,0,0-1.485-.162.206.206,0,0,0,.259.321.646.646,0,0,1,.9.1.208.208,0,0,0,.139.075.2.2,0,0,0,.151-.044A.206.206,0,0,0,843.135,432.229Z" transform="translate(-841.573 -431.834)" fill="#fff"/>
          </g>
        </g>
        <g id="Grupo_666" data-name="Grupo 666">
          <g id="Grupo_665" data-name="Grupo 665">
            <path id="Trazado_1382" data-name="Trazado 1382" d="M843.857,430.845a2.423,2.423,0,0,0-3.4-.367.206.206,0,0,0,.26.321,2.009,2.009,0,0,1,2.816.3.2.2,0,0,0,.139.076.206.206,0,0,0,.183-.334Z" transform="translate(-840.383 -429.946)" fill="#fff"/>
          </g>
        </g>
        <g id="Grupo_668" data-name="Grupo 668" transform="translate(0.437 0.694)">
          <g id="Grupo_667" data-name="Grupo 667">
            <path id="Trazado_1383" data-name="Trazado 1383" d="M843.487,431.554a1.723,1.723,0,0,0-2.417-.261.206.206,0,0,0,.108.365.209.209,0,0,0,.152-.044,1.308,1.308,0,0,1,1.836.2.207.207,0,0,0,.367-.107A.2.2,0,0,0,843.487,431.554Z" transform="translate(-840.992 -430.914)" fill="#fff"/>
          </g>
        </g>
      </g>
      <g id="Grupo_670" data-name="Grupo 670" transform="translate(22.291 7.157)">
        <path id="Trazado_1384" data-name="Trazado 1384" d="M776.173,426.7a.827.827,0,0,1,.628-.732l0-.014a.715.715,0,0,1-.412-.682.811.811,0,0,1,.947-.705.749.749,0,0,1,.79.77.736.736,0,0,1-.524.641v.014a.8.8,0,0,1,.529.788.89.89,0,0,1-1.041.77C776.482,427.5,776.143,427.117,776.173,426.7Zm.584-1.427c-.021.288.186.459.512.572a.571.571,0,0,0,.478-.494.45.45,0,0,0-.456-.506A.46.46,0,0,0,776.757,425.268Zm.972,1.52c.025-.351-.207-.537-.59-.676a.63.63,0,0,0-.562.559.535.535,0,0,0,.537.592A.524.524,0,0,0,777.729,426.788Z" transform="translate(-776.171 -424.56)" fill="#fff"/>
        <path id="Trazado_1385" data-name="Trazado 1385" d="M780.251,426.239a.265.265,0,1,1,.529.037.265.265,0,1,1-.529-.037Zm-.111,1.568a.265.265,0,1,1,.529.037.265.265,0,1,1-.529-.037Z" transform="translate(-777.293 -424.96)" fill="#fff"/>
        <path id="Trazado_1386" data-name="Trazado 1386" d="M782.931,425.383h-.009l-.521.235-.055-.3.655-.293.333.024-.205,2.887-.377-.027Z" transform="translate(-777.917 -424.69)" fill="#fff"/>
        <path id="Trazado_1387" data-name="Trazado 1387" d="M786.563,425.6l-1.1-.079-.164.735a1.473,1.473,0,0,1,.236,0,1.221,1.221,0,0,1,.611.2.825.825,0,0,1,.36.772,1,1,0,0,1-1.144.91,1.408,1.408,0,0,1-.707-.229l.118-.291a1.3,1.3,0,0,0,.606.2.638.638,0,0,0,.729-.577c.022-.374-.207-.658-.785-.7a3.025,3.025,0,0,0-.4,0l.284-1.372,1.382.1Z" transform="translate(-778.569 -424.734)" fill="#fff"/>
      </g>
      <g id="Grupo_672" data-name="Grupo 672" transform="translate(63.05 11.07)">
        <g id="Grupo_671" data-name="Grupo 671">
          <path id="Trazado_1388" data-name="Trazado 1388" d="M837.069,430.914l-.088-.009.009-.09a.446.446,0,0,0-.393-.5l-3-.3a.453.453,0,0,0-.488.408l-.115,1.084a.446.446,0,0,0,.393.5l3,.3a.452.452,0,0,0,.488-.408l.01-.09.088.009a.271.271,0,0,0,.293-.245l.039-.362A.268.268,0,0,0,837.069,430.914Zm-2.329.818a.087.087,0,0,1-.08.035l-1.235-.124a.09.09,0,0,1-.079-.1l.115-1.085a.09.09,0,0,1,.1-.082l.706.071a.089.089,0,0,1,.074.058l.415,1.138A.092.092,0,0,1,834.74,431.733Z" transform="translate(-832.991 -430.015)" fill="#fff"/>
        </g>
      </g>
    </g>
    <line id="Línea_3" data-name="Línea 3" x1="203" y2="54" transform="translate(577.832 645.258)" fill="none" stroke="#1829c4" stroke-linecap="round" stroke-miterlimit="10" stroke-width="5" stroke-dasharray="12"/>
    <g id="Grupo_196" data-name="Grupo 196" transform="translate(138.332 560.981)">
      <g id="Grupo_185" data-name="Grupo 185" transform="translate(29.748 133.001)">
        <g id="Grupo_184" data-name="Grupo 184">
          <rect id="Rectángulo_19" data-name="Rectángulo 19" width="66.01" height="71.539" fill="#ff495a"/>
        </g>
        <rect id="Rectángulo_20" data-name="Rectángulo 20" width="66.01" height="17.697" transform="translate(0 53.84)" fill="#e21c47"/>
      </g>
      <g id="Grupo_195" data-name="Grupo 195">
        <g id="Grupo_186" data-name="Grupo 186" transform="translate(20.328)">
          <path id="Trazado_210" data-name="Trazado 210" d="M270.831,826.123h13.607c.778-3.979,8.753-46.521,1.53-82.976-7.571-38.277-30.691-61-45.047-44.654s3.588,48.241,17.144,71.33C270.868,791.639,270.868,822.76,270.831,826.123Z" transform="translate(-235.629 -693.124)" fill="#00bd00" stroke="#6168ff" stroke-miterlimit="10" stroke-width="1"/>
        </g>
        <g id="Grupo_187" data-name="Grupo 187" transform="translate(37.297 26.385)">
          <path id="Trazado_211" data-name="Trazado 211" d="M278.221,829.8h3.6c3.632-59.606-23.292-105.359-23.575-105.819a1.793,1.793,0,0,0-3.069,1.846C255.437,726.284,281.858,771.251,278.221,829.8Z" transform="translate(-254.962 -723.185)" fill="#097c09" stroke="#6168ff" stroke-miterlimit="10" stroke-width="1"/>
        </g>
        <g id="Grupo_189" data-name="Grupo 189" transform="translate(72.307 15.06)">
          <path id="Trazado_212" data-name="Trazado 212" d="M340.932,710.282c-30.738,0-48.153,93.675-45.885,117.941h13.086c1.069-6.163,6.17-22.589,29.284-59.949C348.221,750.818,372.63,710.282,340.932,710.282Z" transform="translate(-294.85 -710.282)" fill="#00bd00" stroke="#6168ff" stroke-miterlimit="10" stroke-width="1"/>
        </g>
        <g id="Grupo_190" data-name="Grupo 190" transform="translate(77.898 40.871)">
          <path id="Trazado_213" data-name="Trazado 213" d="M336.317,739.925a1.8,1.8,0,0,0-2.451.67c-.283.506-26.387,47.036-32.646,91.22h3.627c6.269-43.3,31.86-88.957,32.154-89.451A1.8,1.8,0,0,0,336.317,739.925Z" transform="translate(-301.22 -739.689)" fill="#097c09" stroke="#6168ff" stroke-miterlimit="10" stroke-width="1"/>
        </g>
        <g id="Grupo_192" data-name="Grupo 192" transform="translate(0 50.113)">
          <path id="Trazado_214" data-name="Trazado 214" d="M265.973,833.106c.514-17.314-23.637-87.712-44.259-82.625-22.529,5.561,2.041,38.695,11.255,51.016,14.685,19.621,20.391,28.026,22.542,31.608Z" transform="translate(-212.469 -750.219)" fill="#00bd00" stroke="#6168ff" stroke-miterlimit="10" stroke-width="1"/>
        </g>
        <g id="Grupo_193" data-name="Grupo 193" transform="translate(13.235 67.877)">
          <path id="Trazado_215" data-name="Trazado 215" d="M263.92,835.582c-7-29.142-32.066-62.944-33.193-64.48a1.8,1.8,0,0,0-2.931,2.067l.053.072c.279.375,25.195,34.013,32.356,62.334Z" transform="translate(-227.548 -770.458)" fill="#097c09" stroke="#6168ff" stroke-miterlimit="10" stroke-width="1"/>
        </g>
      </g>
    </g>
  </g>
</svg>
