<svg xmlns="http://www.w3.org/2000/svg" width="32.753" height="24.134" viewBox="0 0 32.753 24.134"><defs><style>.a{fill:#fff;}</style></defs><path class="a" d="M58.374,96.068,58.086,96H29.427l-.176.041,14.51,15.238Z" transform="translate(-27.38 -96)"/><path class="a" d="M358.832,117.279l-10.319,10.742L358.7,138.529a2.692,2.692,0,0,0,.27-1.134V118.085A2.656,2.656,0,0,0,358.832,117.279Z" transform="translate(-326.218 -115.674)"/><path class="a" d="M.159,115.62a2.837,2.837,0,0,0-.159.934v19.307a2.708,2.708,0,0,0,.188.982l10.282-10.394Z" transform="translate(0 -114.14)"/><path class="a" d="M44.739,285.226l-4.358-4.583L30.3,290.825l.108.026H58.98l-9.867-10.179Z" transform="translate(-28.366 -266.718)"/></svg>