<svg xmlns="http://www.w3.org/2000/svg" width="950.001" height="688.954" viewBox="0 0 950.001 688.954">
  <g id="Grupo_29" data-name="Grupo 29" transform="translate(-215.396 -322.663)">
    <path id="Trazado_1470" data-name="Trazado 1470" d="M215.4,778.727C215.4,871.2,287.044,970.3,393.721,970.3h543.8c167.905,0,227.872-99.1,227.872-191.892,0-80.481-56.18-148.024-134.451-166.645a216.329,216.329,0,0,0,9.786-79.217c-6.945-114.883-109.521-208.939-227.876-209.884h-1.894c-95.949,0-181.165,58.387-214.934,143.29-35.034-27.777-80.481-41.345-126.878-36.928a173.708,173.708,0,0,0-146.13,111.727c-10.1,27.459-12.941,55.234-7.892,83.639C254.849,652.8,215.394,712.763,215.4,778.727Z" transform="translate(0 0)" fill="#97bff0"/>
    <g id="Grupo_27" data-name="Grupo 27" transform="translate(482.607 444.437)">
      <g id="Grupo_7" data-name="Grupo 7" transform="translate(0 304.104)">
        <path id="Trazado_1471" data-name="Trazado 1471" d="M690.023,752.309l-5.588-64.679L597.682,818.193s-13.527,2.8-54.267,20.919l6.854,24.692s55.375.156,74.743-13.34,50.242-40.958,62.917-52.814Z" transform="translate(-477.863 -687.63)" fill="#542bd8"/>
        <path id="Trazado_1472" data-name="Trazado 1472" d="M488.055,842.137c-4.571-3.641,10.843-8.886,26.613-12.714s29.683-11.977,33.9-11.977h4.218l6.854,24.692a140.741,140.741,0,0,1-25.675,1.268c-12.73-.727-19.707-2.467-24.1-1.268S492.327,845.539,488.055,842.137Z" transform="translate(-487.239 -665.965)" fill="#f7ad89"/>
      </g>
      <g id="Grupo_11" data-name="Grupo 11" transform="translate(189.552 272.174)">
        <path id="Trazado_14" data-name="Trazado 14" d="M649.68,915.622c14.565-55.612,18.882-123.95,17.019-163.674-.763-16.146,0-59.751,0-59.751,7.294-6.181,48.927-31.582,48.927-31.582s60.767,0,60.777,0c13.516-2.771,27.252,11.782,39.8,16.29,20.9,7.507,32.338,18.478,43.881,38.784,5.244,9.227,9.214,22.622,11.236,33.041,11.314,58.263-5.062,107.855.146,166.894Z" transform="translate(-649.68 -660.267)" fill="#6b5efd"/>
        <g id="Grupo_8" data-name="Grupo 8" transform="translate(77.312 31.413)">
          <path id="Trazado_15" data-name="Trazado 15" d="M716.456,690.515a1.987,1.987,0,0,1,2.646-2.939c19.7,14.763,43.927,2.081,44.168,1.95a1.987,1.987,0,1,1,1.883,3.5h0c-1.081.582-26.679,14.038-48.433-2.271A1.829,1.829,0,0,1,716.456,690.515Z" transform="translate(-715.934 -687.187)" fill="#542bd8"/>
        </g>
        <g id="Grupo_9" data-name="Grupo 9" transform="translate(20.513 163.313)">
          <path id="Trazado_16" data-name="Trazado 16" d="M774.62,863.121c-27.436,0-53.334-14.339-71.027-27.182a228.476,228.476,0,0,1-35.847-32.429,1.986,1.986,0,0,1,3-2.606h0l.027.033A224.284,224.284,0,0,0,706,832.774c19.247,13.95,48.43,29.752,78.192,25.741a1.987,1.987,0,0,1,.6,3.928l-.075.009A75.714,75.714,0,0,1,774.62,863.121Z" transform="translate(-667.259 -800.222)" fill="#542bd8"/>
        </g>
        <g id="Grupo_10" data-name="Grupo 10" transform="translate(45.715 215.655)">
          <path id="Trazado_17" data-name="Trazado 17" d="M751.518,871.549c-35.3,0-60.924-22.061-62.013-23.017a1.986,1.986,0,0,1,2.615-2.99c.259.224,25.635,22.033,59.438,22.033.485,0,.965,0,1.45-.013h.033a1.986,1.986,0,0,1,.035,3.971h0C752.56,871.544,752.034,871.549,751.518,871.549Z" transform="translate(-688.857 -845.078)" fill="#542bd8"/>
        </g>
      </g>
      <g id="Grupo_26" data-name="Grupo 26" transform="translate(22.627 309.39)">
        <path id="Trazado_36" data-name="Trazado 36" d="M595.551,827.762s-35.555-1.2-52.34,7.844-38.107,15.422-36.5,22.2,24.52-2.231,24.52-2.231,2.542,12.143,18.125,20.362S606.186,862.9,606.186,862.9Z" transform="translate(-506.629 -669.537)" fill="#f7ad89"/>
        <g id="Grupo_25" data-name="Grupo 25" transform="translate(87.485)">
          <path id="Trazado_37" data-name="Trazado 37" d="M848.958,692.16C822.493,716.417,748.833,802.106,728.865,810.1c-26,10.415-105.106,34.5-145.295,41.614-7.251,1.285,7.864,34.123,7.864,34.123s112.875-8.51,157.01-24.021c12.482-4.389,55.525-34.484,95.179-67.116,12.259-10.094,39.559-28.531,39.2-47.937C882.259,716.587,865.031,699.026,848.958,692.16Z" transform="translate(-581.602 -692.16)" fill="#542bd8"/>
        </g>
      </g>
      <g id="Grupo_553" data-name="Grupo 553" transform="translate(160.888)">
        <g id="Grupo_475" data-name="Grupo 475" transform="translate(107.082 236.765)">
          <path id="Trazado_1042" data-name="Trazado 1042" d="M758.237,663.251c.622,15.979-39.434,17.537-40.06,1.551l-1.3-33.328,40.059-1.551Z" transform="translate(-716.882 -629.922)" fill="#f7ad89"/>
          <g id="Grupo_474" data-name="Grupo 474" opacity="0.5">
            <path id="Trazado_1043" data-name="Trazado 1043" d="M758.237,663.251l-1.3-33.329-40.059,1.551.738,18.949a55.076,55.076,0,0,1,36.218,21.048A9.618,9.618,0,0,0,758.237,663.251Z" transform="translate(-716.882 -629.922)" fill="#ffbe92"/>
          </g>
        </g>
        <g id="Grupo_481" data-name="Grupo 481" transform="translate(32.032 4.426)">
          <g id="Grupo_476" data-name="Grupo 476" transform="translate(0 125.981)">
            <path id="Trazado_1044" data-name="Trazado 1044" d="M674.884,542.4c-5.413-2.277-11.6-5.569-17.611-2.16-7.992,4.544-3.806,16.066-1.881,22.626,3.036,10.361,10.614,23.475,21.18,19.627Z" transform="translate(-652.566 -538.776)" fill="#ffbe92"/>
            <path id="Trazado_1045" data-name="Trazado 1045" d="M667.006,546.115a17.378,17.378,0,0,0-5.368-1.291,4.028,4.028,0,0,0-2.092.547c-3.335,1.869-.624,9.546.831,13.67l.475,1.362c2.123,6.155,5.383,10.886,8.171,13.088A88.41,88.41,0,0,0,667.006,546.115Z" transform="translate(-651.667 -537.767)" fill="#f2a46e"/>
          </g>
          <path id="Trazado_1046" data-name="Trazado 1046" d="M829.853,577.757c-5.223,44.225-31.073,106.526-84.476,104.672-2.522-.1-4.964-.208-7.332-.439-9.069-.722-17.131-2.589-25.285-8.049-9.371-6.3-16.74-15.207-22.6-24.77a156.3,156.3,0,0,1-22.216-74.666,171.1,171.1,0,0,1,.523-32.246,117.421,117.421,0,0,1,1.89-11.867c3.144-14.788,8.814-27.786,17.369-37.915,12.516-14.9,31.267-23.674,57.11-23.157,37.666.757,62.627,17.491,75.578,42.957C829.671,530.525,832.758,553.262,829.853,577.757Z" transform="translate(-650.087 -424.391)" fill="#f7ad89"/>
          <g id="Grupo_477" data-name="Grupo 477" transform="translate(28.403 77.541)" opacity="0.5">
            <path id="Trazado_1047" data-name="Trazado 1047" d="M828.268,573.091c-5.221,44.225-31.071,106.526-84.474,104.673-2.522-.105-4.965-.209-7.332-.441,46.94-8.635,63.375-42.016,73.91-75.464,24.2-76.675-36.674-69.645-50.258-70.661-17.914-1.345-32.828-4.626-46.491-16.472-3.915-3.395-9.318-7.385-12.476-11.523-3.3,11.321-13.321,19.174-24.24,22.939,6.279-7.111,7-22.4,16.424-26.13,13.118-5.193,33.442-1.853,46.927.506A353.137,353.137,0,0,0,799.8,505.4a75.085,75.085,0,0,1,19.025,2.217C828.089,525.861,831.175,548.594,828.268,573.091Z" transform="translate(-676.907 -497.264)" fill="#ffbe92"/>
          </g>
          <g id="Grupo_479" data-name="Grupo 479" transform="translate(5.416)">
            <path id="Trazado_1048" data-name="Trazado 1048" d="M801.284,542.346c5.5-2.055,11.819-5.1,17.684-1.439,7.8,4.868,3.158,16.206.967,22.686-3.456,10.23-11.559,23.025-21.963,18.749Z" transform="translate(-633.715 -412.725)" fill="#ffbe92"/>
            <g id="Grupo_478" data-name="Grupo 478" transform="translate(164.257 126.473)" opacity="0.5">
              <path id="Trazado_1049" data-name="Trazado 1049" d="M801.284,542.346c5.5-2.055,11.819-5.1,17.684-1.439,7.8,4.868,3.158,16.206.967,22.686-3.456,10.23-11.559,23.025-21.963,18.749Z" transform="translate(-797.972 -539.198)" fill="#ffbe92"/>
            </g>
            <path id="Trazado_1050" data-name="Trazado 1050" d="M661.124,535.629c.049.182.1.361.149.54,1.68,5.87,3.385,11.715,5.2,17.674,1.258,4.121,3.144,13.049,3.144,13.049s-.475,25.626,3.636,27.018c.972-3.14.637-40.936,1.438-42.77a66.224,66.224,0,0,1,5.9-11.4c4.915-6.885,12.439-10.24,16.695-18,1.853-3.375,5.562-11.754,5.562-11.754s19.25,16.328,31.933,20.325a180.274,180.274,0,0,0,42.58,7.689c11.032.54,23.41-1.04,32.556,6.14,15.657,12.278,12,29.246,13.318,46.641,1.165.291.783.33,1.915-.015,1.8-.546,1.019-12.808.957-14.775-.231-7.982,1.487-22.1,13.542-17.978,3.857,1.315,8.145-16.586,8.215-18.085.581-10.509,1.875-20.4.612-30.988-3.642-30.487-24.208-59.271-53.594-71.159-30-12.128-72.231-9.227-95.683,15.2-1.541,1.6-3.408,5.923-5.19,6.83-2.184,1.119-7.479-.33-10.225.193-13.287,2.526-20.942,19-24.379,30.857C655.477,504.45,657.285,521.957,661.124,535.629Z" transform="translate(-657.208 -430.813)" fill="#2e3062"/>
            <path id="Trazado_1051" data-name="Trazado 1051" d="M807.077,546.32c11.609-3.684,10.041,3.228,5.574,14.52-2.368,6.074-5.817,10.657-8.694,12.75A88.3,88.3,0,0,1,807.077,546.32Z" transform="translate(-632.729 -411.702)" fill="#da8751"/>
          </g>
          <path id="Trazado_1190" data-name="Trazado 1190" d="M673.431,620.748c3.348,20.2,25.612,44.592,53.768,46.71a128.451,128.451,0,0,0,21.739.475c43.053-2.828,65.731-34.555,70.937-48.4,3.461-9.208,3.168-50.45,3.168-50.45l-2.7-6.054c-1.657,15.7-6.738,38.982-17.54,45.678-6.481,4.018-11.005,3.47-15.893,4.656-13.045,3.153-6.749-15.53-36.194-10.223-10.578,1.9-27.217-1.693-38.818-.571-9.951.963-14.993,6.743-21.848,6.053a21.753,21.753,0,0,1-2.7-.433c-11.338-2.428-11.641-12.035-14.792-31.248-.168-1.092-3.327-2.85-3.5-4.014,0,0,0,1.079.038,3.035A343.872,343.872,0,0,0,673.431,620.748Z" transform="translate(-649.814 -408.748)" fill="#55578d"/>
          <path id="Trazado_1052" data-name="Trazado 1052" d="M702.886,603.559l62.988-.181s-5.52,27.094-33.6,23.686C722.954,627.535,712.464,621.906,702.886,603.559Z" transform="translate(-644.168 -402.014)" fill="#fff"/>
          <g id="Grupo_480" data-name="Grupo 480" transform="translate(53.334 146.396)">
            <path id="Trazado_1053" data-name="Trazado 1053" d="M709.3,565.99c.015,5.376-2.836,9.743-6.369,9.752s-6.411-4.341-6.425-9.719,2.837-9.748,6.369-9.752S709.281,560.613,709.3,565.99Z" transform="translate(-696.502 -556.271)" fill="#2e3062"/>
            <path id="Trazado_1054" data-name="Trazado 1054" d="M761.946,566.113c.017,5.377-2.836,9.744-6.368,9.752s-6.41-4.341-6.426-9.719,2.836-9.749,6.369-9.752S761.931,560.736,761.946,566.113Z" transform="translate(-687.715 -556.25)" fill="#2e3062"/>
          </g>
          <path id="Trazado_1055" data-name="Trazado 1055" d="M712.837,542.015s-15.432-3.645-25.659,1.34l-.394-2.839s15.947-7.12,29.726-4.137Z" transform="translate(-641.691 -411.252)" fill="#2e3062"/>
          <path id="Trazado_1056" data-name="Trazado 1056" d="M746.33,544.488s15.767-1.871,25.378,4.244l.712-2.787s-15.059-8.874-29.107-7.474Z" transform="translate(-637.421 -412.871)" fill="#2e3062"/>
        </g>
        <g id="Grupo_711" data-name="Grupo 711" transform="translate(0)">
          <path id="Trazado_1473" data-name="Trazado 1473" d="M835.249,525.668A13.326,13.326,0,0,1,848.3,539.3l-.848,38.682a13.357,13.357,0,0,1-13.632,13.047l-3.669-.081,1.433-65.361Z" transform="translate(-590.897 -410.57)" fill="#1f234f"/>
          <g id="Grupo_710" data-name="Grupo 710" transform="translate(0 100.138)">
            <path id="Trazado_1474" data-name="Trazado 1474" d="M643.7,511.633l19.338-.564a8.5,8.5,0,0,1,8.75,8.256l2.252,77.351a8.516,8.516,0,0,1-8.255,8.751l-19.338.562a8.492,8.492,0,0,1-8.751-8.255l-2.252-77.351A8.515,8.515,0,0,1,643.7,511.633Z" transform="translate(-620.293 -511.066)" fill="#1f234f"/>
            <path id="Trazado_1475" data-name="Trazado 1475" d="M635.415,524.121l3.668-.107,1.9,65.35-3.669.107a13.33,13.33,0,0,1-13.725-12.949l-1.126-38.676A13.356,13.356,0,0,1,635.415,524.121Z" transform="translate(-622.46 -508.905)" fill="#1f234f"/>
          </g>
          <path id="Trazado_1476" data-name="Trazado 1476" d="M683.421,451.169a105.222,105.222,0,0,1,171.348,66.857l-17.2-.377a88.225,88.225,0,0,0-173.617-3.805l-17-.373A105.269,105.269,0,0,1,683.421,451.169Z" transform="translate(-621.471 -427.02)" fill="#1f234f"/>
          <path id="Trazado_1477" data-name="Trazado 1477" d="M827.33,503.192s4.054,15.7,3.1,19.065l-21.8-.095s.755-15.55,1.706-18.919Z" transform="translate(-594.487 -414.308)" fill="#1f234f"/>
          <path id="Trazado_1478" data-name="Trazado 1478" d="M665.205,499.647s-.538,17.342-1.49,20.711l-21.164-2.34s4.934-16.747,5.886-20.116Z" transform="translate(-622.205 -415.19)" fill="#1f234f"/>
          <path id="Trazado_1479" data-name="Trazado 1479" d="M704.68,661.3a13.253,13.253,0,0,1,9.518-3.7l48.353,1.06a13.341,13.341,0,0,1,12.341,9.168l.258.783.825.019,20.212.443a35.063,35.063,0,0,0,35.782-34.247l.53-24.177.026-1.167-1.166-.026-4.836-.106a8.494,8.494,0,0,1-8.318-8.69l1.7-77.366a8.506,8.506,0,0,1,8.69-8.318l19.342.425a8.494,8.494,0,0,1,8.318,8.69l-1.7,77.366a8.516,8.516,0,0,1-8.69,8.318l-4.836-.106-1.167-.026-.026,1.167-.53,24.177a42.409,42.409,0,0,1-43.279,41.424l-20.212-.443-.825-.019-.293.772a13.37,13.37,0,0,1-12.733,8.618l-48.35-1.06A13.343,13.343,0,0,1,704.68,661.3Z" transform="translate(-614.589 -412.341)" fill="#1f234f"/>
        </g>
      </g>
    </g>
    <g id="Grupo_28" data-name="Grupo 28" transform="translate(363.204 768.097)">
      <rect id="Rectángulo_1" data-name="Rectángulo 1" width="285.899" height="34.419" rx="2.789" transform="translate(54.29 169.213)" fill="#001030"/>
      <path id="Trazado_38" data-name="Trazado 38" d="M439.263,908.021,385.526,724.783c-3.02-10.291,5.5-20.39,17.2-20.39H520.971c7.979,0,14.984,4.832,17.138,11.826l59.18,191.8Z" transform="translate(-384.913 -704.388)" fill="#2e3062"/>
      <path id="Trazado_39" data-name="Trazado 39" d="M518.663,716.223l58.68,190.226h13.514L532.173,716.223c-2.172-7-9.171-11.833-17.149-11.833H501.518C509.494,704.389,516.487,709.227,518.663,716.223Z" transform="translate(-365.452 -704.389)" fill="#001030"/>
      <path id="Trazado_40" data-name="Trazado 40" d="M497.121,800.752c3.027,12.982-5.281,23.461-18.555,23.416s-26.49-10.608-29.515-23.586,5.285-23.461,18.558-23.415S494.1,787.774,497.121,800.752Z" transform="translate(-374.312 -692.243)" fill="#524e82"/>
    </g>
    <g id="Grupo_30" data-name="Grupo 30" transform="translate(258.191 971.743)">
      <path id="Rectángulo_2" data-name="Rectángulo 2" d="M1117.549,878.909H260.011c-4.386,0-7.941,4.173-7.941,9.32h0v21.234c0,5.147,3.554,9.32,7.941,9.32h857.539c4.385,0,7.941-4.173,7.941-9.32h0V888.234c0-5.15-3.557-9.325-7.945-9.325h0Z" transform="translate(-252.07 -878.909)" fill="#3700b1"/>
      <path id="Trazado_41" data-name="Trazado 41" d="M252.071,897.936v.9h873.423v-.9c0-10.507-7.254-19.025-16.207-19.027h-841C259.333,878.909,252.072,887.427,252.071,897.936Z" transform="translate(-252.07 -878.909)" fill="#542bd8"/>
    </g>
    <g id="Grupo_196" data-name="Grupo 196" transform="translate(909.332 749.278)">
      <g id="Grupo_185" data-name="Grupo 185" transform="translate(32.862 146.926)">
        <g id="Grupo_184" data-name="Grupo 184">
          <rect id="Rectángulo_19" data-name="Rectángulo 19" width="72.921" height="79.029" fill="#ff495a"/>
        </g>
        <rect id="Rectángulo_20" data-name="Rectángulo 20" width="72.921" height="19.55" transform="translate(0 59.478)" fill="#e21c47"/>
      </g>
      <g id="Grupo_195" data-name="Grupo 195">
        <g id="Grupo_186" data-name="Grupo 186" transform="translate(22.457)">
          <path id="Trazado_210" data-name="Trazado 210" d="M274.517,840.049h15.032c.859-4.4,9.669-51.392,1.69-91.664-8.364-42.285-33.9-67.392-49.763-49.329s3.964,53.292,18.939,78.8C274.558,801.954,274.558,836.333,274.517,840.049Z" transform="translate(-235.629 -693.124)" fill="#00bd00" stroke="#6168ff" stroke-miterlimit="10" stroke-width="1"/>
        </g>
        <g id="Grupo_187" data-name="Grupo 187" transform="translate(41.202 29.147)">
          <path id="Trazado_211" data-name="Trazado 211" d="M280.657,840.962h3.975c4.012-65.847-25.731-116.39-26.044-116.9A1.981,1.981,0,0,0,255.2,726.1C255.487,726.609,284.674,776.284,280.657,840.962Z" transform="translate(-254.962 -723.185)" fill="#097c09" stroke="#6168ff" stroke-miterlimit="10" stroke-width="1"/>
        </g>
        <g id="Grupo_189" data-name="Grupo 189" transform="translate(79.878 16.637)">
          <path id="Trazado_212" data-name="Trazado 212" d="M345.757,710.282c-33.957,0-53.195,103.483-50.689,130.29h14.456c1.181-6.809,6.816-24.954,32.35-66.226C353.809,755.063,380.774,710.282,345.757,710.282Z" transform="translate(-294.85 -710.282)" fill="#00bd00" stroke="#6168ff" stroke-miterlimit="10" stroke-width="1"/>
        </g>
        <g id="Grupo_190" data-name="Grupo 190" transform="translate(86.054 45.15)">
          <path id="Trazado_213" data-name="Trazado 213" d="M339.992,739.95a1.987,1.987,0,0,0-2.707.74c-.313.559-29.149,51.96-36.065,100.771h4.006c6.926-47.837,35.2-98.271,35.521-98.817A1.986,1.986,0,0,0,339.992,739.95Z" transform="translate(-301.22 -739.69)" fill="#097c09" stroke="#6168ff" stroke-miterlimit="10" stroke-width="1"/>
        </g>
        <g id="Grupo_192" data-name="Grupo 192" transform="translate(0 55.36)">
          <path id="Trazado_214" data-name="Trazado 214" d="M271.575,841.785c.568-19.126-26.112-96.9-48.893-91.276-24.888,6.143,2.254,42.746,12.433,56.358,16.223,21.676,22.526,30.961,24.9,34.918Z" transform="translate(-212.469 -750.219)" fill="#00bd00" stroke="#6168ff" stroke-miterlimit="10" stroke-width="1"/>
        </g>
        <g id="Grupo_193" data-name="Grupo 193" transform="translate(14.621 74.983)">
          <path id="Trazado_215" data-name="Trazado 215" d="M267.729,842.4C260,810.208,232.3,772.867,231.06,771.17a1.988,1.988,0,0,0-3.238,2.283l.058.08c.308.414,27.833,37.574,35.744,68.861Z" transform="translate(-227.548 -770.458)" fill="#097c09" stroke="#6168ff" stroke-miterlimit="10" stroke-width="1"/>
        </g>
      </g>
    </g>
  </g>
</svg>
