<svg id="b928b248-3484-4605-b9dc-fcfa16358770" data-name="Capa 1" xmlns="http://www.w3.org/2000/svg" viewBox="0 0 332.22 117.13"><g id="a50d7586-4ab9-4c20-a86f-573d79c665ec" data-name="Online" style="isolation:isolate"><g style="isolation:isolate"><path d="M174.94,91.31A15.5,15.5,0,0,1,190.44,76c9.1,0,15.41,6.23,15.41,15.33a15.54,15.54,0,0,1-15.41,15.34C181.34,106.65,174.94,100.42,174.94,91.31Zm26,0c0-6.06-4.43-11-10.5-11a10.64,10.64,0,0,0-10.58,11c0,6.07,4.51,11,10.58,11S200.94,97.38,200.94,91.31Z" fill="#f2f4ff"/><path d="M209.79,97.71a9.13,9.13,0,0,1,9.27-8.94c5.33,0,9.1,3.61,9.1,8.94v8.53h-4.59V97.71A4.45,4.45,0,0,0,219,93a4.5,4.5,0,0,0-4.6,4.67v8.53h-4.59Z" fill="#f2f4ff"/><path d="M233.57,76.39h4.59v29.85h-4.59Z" fill="#f2f4ff"/><path d="M243.41,78.77A2.83,2.83,0,0,1,246.28,76a2.77,2.77,0,0,1,2.79,2.79,2.83,2.83,0,0,1-2.79,2.87A2.9,2.9,0,0,1,243.41,78.77Zm.49,10.41h4.59v17.06H243.9Z" fill="#f2f4ff"/><path d="M254.07,97.71a9.13,9.13,0,0,1,9.27-8.94c5.33,0,9.1,3.61,9.1,8.94v8.53h-4.59V97.71a4.6,4.6,0,1,0-9.19,0v8.53h-4.59Z" fill="#f2f4ff"/><path d="M276.05,97.71a9.17,9.17,0,0,1,9.18-8.94c5.33,0,8.86,3.36,9.18,8.94v1.56H280.56a4.69,4.69,0,0,0,4.67,3.44,4.51,4.51,0,0,0,3.53-1.56l2.78,2.87a8.86,8.86,0,0,1-6.31,2.63C279.9,106.65,276.05,103,276.05,97.71Zm13.85-2a4.65,4.65,0,0,0-4.67-3.28,4.73,4.73,0,0,0-4.59,3.28Z" fill="#f2f4ff"/></g></g><g id="fe436a67-c499-4401-b571-6080a82b3c52" data-name="Llámame" style="isolation:isolate"><g style="isolation:isolate"><path d="M146,47.21a4.3,4.3,0,0,1,2.27-3.73,13.28,13.28,0,0,0,5.18,2.43c2.33-6.42,4.87-12.69,6.32-15.06a8,8,0,0,1,7.08-4.16c6.32,0,10.53,4.32,10.53,9,0,5.4-5.51,11.88-17.55,15.66a38.47,38.47,0,0,1-4.11,7.4c14.48,2.43,17.55,6.81,17.55,10.59a5.46,5.46,0,0,1-3.56,5.4c-3.94-3.41-9.07-6.21-19.76-8.64-1.95,1.83-3.57,3-5.24,3-2.7,0-5.19-4.27-5.19-7.24,0-2.54,1.46-3.73,5.51-3.73.92,0,1.94.06,3.13.17,1.25-2.38,2.27-4.49,3.19-6.7C148.3,51.1,146,49.37,146,47.21Zm15.39-1.4c5.67-2.27,9.24-5.73,9.24-8.86,0-1.67-1.89-3-4-3-.7,0-1.46.48-2.16,2.86Z" fill="#f2f4ff"/><path d="M178.7,39.7c1-7.29,4.81-11.66,9.07-11.66,2.33,0,3.79,1.08,3.79,3.83,0,2.38-1.08,5-5.14,12.64-1.45,5.24-4,14.63-4,16,0,.6.27.82.76.82,1.67,0,4.85-3.08,7.66-7.46a2,2,0,0,1,2.05,1.84c0,4.1-8.74,12.58-14.2,12.58-3.13,0-4.26-1.35-4.26-4.16,0-3.62,1.72-9.88,2.16-12.15C177.24,48.45,178.22,43.38,178.7,39.7Z" fill="#f2f4ff"/><path d="M194,67.57c-3.08,0-5.35-2.54-5.35-7.45,0-8.1,6.7-16.58,12.1-16.58a1.82,1.82,0,0,1,1.4.38l.16-3.14a2.53,2.53,0,0,1,1.89-.7c3.68,0,5.67,2.49,5.67,4.38a14.45,14.45,0,0,1-.59,3.56c-1.89,6.8-2.59,10.21-2.59,11.61,0,1.08.21,1.24.65,1.24,1.08,0,3.88-2,7.34-6.91a1.81,1.81,0,0,1,2,1.67c0,3.51-9,12.21-12.85,12.21-2.38,0-3.89-1-3.89-4.43a15.7,15.7,0,0,1,.16-2.1C198.41,66.22,195.93,67.57,194,67.57Zm7.88-20.14c-2.7,1.72-5.29,6.21-5.29,10.36,0,2,.65,2.22,1.4,2.22a3,3,0,0,0,2.16-1.35Zm9.24-20.15c0,1.57-1.41,3.84-4.16,6.7-2.22,2.27-5,3.94-6.64,3.94-.76,0-1.25-.43-1.25-1.4,3.73-5.4,5.67-8.53,5.67-11.18a3.1,3.1,0,0,1,2.7-1.46C209.91,23.88,211.16,25.29,211.16,27.28Z" fill="#f2f4ff"/><path d="M242.8,43.27c2.48,0,3.67,1.89,3.67,4A15,15,0,0,1,245,52.83c-1,2.37-3.13,7.07-3.13,8.42,0,.6.27.81.76.81,1,0,4.43-2.81,8.15-8.1a2,2,0,0,1,2.11,1.78c0,3.4-9.45,13.18-14.42,13.18-3.19,0-4.27-1.4-4.27-4.38,0-3.56,3.19-10,3.19-11.17a.57.57,0,0,0-.65-.65c-.48,0-2.37,1.13-4.48,4.05a75.47,75.47,0,0,0-1.46,10.85,2.58,2.58,0,0,1-2.16.81c-3,0-5.07-1.24-5.13-4.48a26.3,26.3,0,0,1,1.84-7.83,14.32,14.32,0,0,0,.92-3c0-.49-.22-.65-.65-.65s-1.78.81-3.89,3.73a74.93,74.93,0,0,0-1.4,10.85c-.54.54-.92.7-2.16.7-3,0-5.24-2.86-5.3-6.1a23.09,23.09,0,0,1,1.52-7.34,8.76,8.76,0,0,1-.54-3.35c0-3.19,4.32-7.18,7.66-7.18,1.57,0,2.33.65,2.33,2.27a15.12,15.12,0,0,1-1.68,6.1c3.94-6.81,6.64-8.37,9-8.37A3,3,0,0,1,234.38,47,10,10,0,0,1,233,52.23C237.45,45.59,240.42,43.27,242.8,43.27Z" fill="#f2f4ff"/><path d="M253.92,67.57c-3.07,0-5.34-2.54-5.34-7.45,0-8.1,6.69-16.58,12.09-16.58a1.83,1.83,0,0,1,1.41.38l.16-3.14a2.5,2.5,0,0,1,1.89-.7c3.67,0,5.67,2.49,5.67,4.38a14.45,14.45,0,0,1-.59,3.56c-1.89,6.8-2.6,10.21-2.6,11.61,0,1.08.22,1.24.65,1.24,1.08,0,3.89-2,7.35-6.91a1.8,1.8,0,0,1,2,1.67c0,3.51-9,12.21-12.85,12.21-2.37,0-3.89-1-3.89-4.43a15.88,15.88,0,0,1,.17-2.1C258.3,66.22,255.81,67.57,253.92,67.57Zm7.89-20.14c-2.7,1.72-5.29,6.21-5.29,10.36,0,2,.64,2.22,1.4,2.22a3,3,0,0,0,2.16-1.35Z" fill="#f2f4ff"/><path d="M302.69,43.27c2.48,0,3.67,1.89,3.67,4a15.18,15.18,0,0,1-1.46,5.57c-1,2.37-3.13,7.07-3.13,8.42,0,.6.27.81.75.81,1,0,4.43-2.81,8.16-8.1a2,2,0,0,1,2.1,1.78c0,3.4-9.45,13.18-14.41,13.18-3.19,0-4.27-1.4-4.27-4.38,0-3.56,3.19-10,3.19-11.17a.57.57,0,0,0-.65-.65c-.49,0-2.38,1.13-4.48,4.05a75.47,75.47,0,0,0-1.46,10.85,2.59,2.59,0,0,1-2.16.81c-3,0-5.08-1.24-5.13-4.48a26.26,26.26,0,0,1,1.83-7.83,13.72,13.72,0,0,0,.92-3c0-.49-.21-.65-.65-.65s-1.78.81-3.88,3.73a75,75,0,0,0-1.41,10.85c-.54.54-.92.7-2.16.7-3,0-5.24-2.86-5.29-6.1a23.05,23.05,0,0,1,1.51-7.34,9,9,0,0,1-.54-3.35c0-3.19,4.32-7.18,7.67-7.18,1.57,0,2.32.65,2.32,2.27a15.23,15.23,0,0,1-1.67,6.1c3.94-6.81,6.64-8.37,9-8.37A3,3,0,0,1,294.26,47a9.9,9.9,0,0,1-1.35,5.24C297.34,45.59,300.31,43.27,302.69,43.27Z" fill="#f2f4ff"/><path d="M308.46,58.93c0-8.16,6.65-16.47,11.88-16.47,3.73,0,5.78,1.78,5.78,5.56,0,4.54-2.64,8-10,9.72,0,2.43.48,3.78,2.59,3.78,3.67,0,8.42-3.13,11.5-7.83a1.93,1.93,0,0,1,2.05,1.78c0,4-9,12.59-16,12.59C310.89,68.06,308.46,64.76,308.46,58.93ZM319,48.13c-.75,0-2.21,1.83-2.59,5.61,3-.54,3.67-2.21,3.67-3.83C320.07,48.78,319.64,48.13,319,48.13Z" fill="#f2f4ff"/></g></g><g id="e7eb6c06-f2ca-462d-a764-aed80bc1741f" data-name="Grupo 612"><path id="b338e681-13f0-482a-ad84-2e0d7f3b1a31" data-name="Trazado 1249" d="M120.61,97.27c.17-1.3.34-2.58.49-3.83.31-2.6.57-5.21.82-7.81,0,0,0,0,0,0,.41-3.94.51-6,.57-7.77C123,62.27,123,46.55,121.12,31a10.67,10.67,0,0,0-9.83-9.36c-3.38-.24-6.88-.45-10.4-.64a21.13,21.13,0,0,0-5.4-12c-6.68-7-16.8-6-19.32-5.65-3-1.25-17.45-6.74-31.89-.37A23.93,23.93,0,0,0,29.7,21.26c-2.11.13-10.88.26-13,.41A10.67,10.67,0,0,0,6.88,31a263.22,263.22,0,0,0,0,62.41c.15,1.26.32,2.54.49,3.83a10.12,10.12,0,0,0,2.73,19.86H117.88a10.12,10.12,0,0,0,2.73-19.86ZM99.12,44.11a19.68,19.68,0,0,1,4.81,3.15,22.39,22.39,0,0,1,0,11.38,17.85,17.85,0,0,1-4.81,2.89Zm.28,20.94a18,18,0,0,0,7.35-4.17,1.8,1.8,0,0,0,.48-.79,26.21,26.21,0,0,0,0-14.27,1.74,1.74,0,0,0-.48-.79,17.8,17.8,0,0,0-7.35-4.17.11.11,0,0,0,0,0c.55-2.34,1-4.59,1.28-6.73,2.57.14,5.16.3,7.73.46a249.06,249.06,0,0,1,1.53,27.57,250,250,0,0,1-1.53,27.63c-6.5.44-13.08.77-19.6,1l-.33-1.63A13.36,13.36,0,0,0,75.38,78.43H72.71v-.74a21.55,21.55,0,0,0,18-11.21,4.14,4.14,0,0,0,2,1.65,6.19,6.19,0,0,0-.15-1c-.09-.38.49-1,.88-1h1.69c.53,0,.9.76,1,1.29,0,.25.06.51.08.79a4.85,4.85,0,0,0,3.27-3.21Zm-42.3,9.1a18,18,0,0,1-18-18V44.32c3.2-.46,6.3-1,9.21-1.61h0c.18,0,5.83-1.27,7.83-1.89C64,38.41,71.91,35.2,76.57,31.4A29.34,29.34,0,0,0,79,35.79c2.89,4.25,6.58,7,10.74,8.06V56.19a18,18,0,0,1-17.95,18ZM69.15,77.7v2.5a4.71,4.71,0,1,1-9.41,0V77.7Zm-4.7,10.77A8.28,8.28,0,0,0,72.51,82h2.87A9.79,9.79,0,0,1,85,89.82l.21,1c-6,.18-12,.27-17.88.27-7.79,0-15.71-.15-23.58-.46l.17-.84A9.79,9.79,0,0,1,53.51,82h2.87A8.27,8.27,0,0,0,64.45,88.47Zm27.8-46c.08-.75,1.28-1.52,2.44-1.52s2.5.83,2.5,1.59L96.8,63a2.32,2.32,0,0,1-2.11,2c-1.16,0-2.49-.83-2.58-1.58a113.76,113.76,0,0,1,.13-21ZM32.77,24.86c.85-9,5.08-15.12,12.94-18.59C60,0,75,6.77,75.18,6.84A1.85,1.85,0,0,0,76.27,7c.1,0,10.5-1.92,16.67,4.53,4.83,5.06,6,13.86,3.49,26.18a4.93,4.93,0,0,0-6.25,2.59C82.16,37.94,79,28,79,27.85a1.77,1.77,0,0,0-2.21-1.19,1.74,1.74,0,0,0-.75.44c-3.84,3.84-10,7.2-18.56,9.66-3.28,1-9.62,2.43-9.83,2.47-3.18.66-6.58,1.24-10.1,1.73a2.39,2.39,0,0,0-.13-.28,5,5,0,0,0-3.85-2.6A49.24,49.24,0,0,1,32.77,24.86ZM33,41.62c1.49-.1,2.64.45,2.79,1.2,1.1,5.25,1.38,14.42,1.39,21.24,0,.76-1.12,1.46-2.61,1.56s-2.74-.44-2.79-1.2L30.35,43.17C30.3,42.41,31.47,41.71,33,41.62Zm-2.87-2.73a3.58,3.58,0,0,0-1.83,2.92s0,0,0,0a17.87,17.87,0,0,0-7.06,4.64,1.71,1.71,0,0,0-.43.82,26.25,26.25,0,0,0,.93,14.24,1.91,1.91,0,0,0,.53.76A18.12,18.12,0,0,0,29.83,66,4.72,4.72,0,0,0,33,69a5.29,5.29,0,0,0,3.55-.25,3.47,3.47,0,0,0,2-1.63A21.54,21.54,0,0,0,56.19,77.69v.74H53.51A13.36,13.36,0,0,0,40.42,89.11l-.29,1.4c-4.61-.2-15.91-.46-20.53-.77a249.71,249.71,0,0,1,0-55.2c1.1-.07,8.78-.14,9.81-.2.18,1.57.41,3.09.68,4.55Zm-.3,23.87a19.12,19.12,0,0,1-4.9-2.86,22.47,22.47,0,0,1-.74-11.36,18.51,18.51,0,0,1,4.49-3.38ZM10.41,31.45A7.09,7.09,0,0,1,17,25.22c1.86-.13,10.38-.26,12.25-.37a43.63,43.63,0,0,0-.09,5.94c-1.47.09-9.62.19-11.24.3a1.78,1.78,0,0,0-1.64,1.57,253.86,253.86,0,0,0,0,59,1.76,1.76,0,0,0,1.64,1.56c5.64.4,18,.71,23.62.95,8.61.36,17.3.55,25.82.55,6.63,0,13.4-.12,20.11-.34,7.54-.24,15.18-.63,22.7-1.16a1.76,1.76,0,0,0,1.64-1.56,253.86,253.86,0,0,0,0-59,1.78,1.78,0,0,0-1.64-1.57c-3-.2-6-.4-9.05-.56a46.93,46.93,0,0,0,.14-5.93c3.33.18,6.63.39,9.83.62a7.1,7.1,0,0,1,6.55,6.23A259.31,259.31,0,0,1,119,77.14c0,.18-.32,5.74-.55,7.57-.33,2.74-.53,5.54-.86,8.31-.15,1.26-.32,2.56-.49,3.87H10.92c-.17-1.31-.34-2.6-.5-3.87A259.33,259.33,0,0,1,10.41,31.45Zm70.6,69a5,5,0,0,1-4.45,3.23c-3.08.13-6.19.2-9.25.2s-6.17-.07-9.24-.2a4.94,4.94,0,0,1-4.45-3.23Zm36.87,13.13H10.12a6.56,6.56,0,1,1,0-13.12H49.93a8.48,8.48,0,0,0,8,6.77c3.12.14,6.29.2,9.4.2s6.27-.07,9.4-.2a8.48,8.48,0,0,0,8-6.77h33.18a6.56,6.56,0,1,1,0,13.12Z" fill="#fff"/><path id="a5abf6e3-1f48-4930-a762-a0a2b2c842d8" data-name="Trazado 1250" d="M56.19,77.69v.74H53.51A13.36,13.36,0,0,0,40.42,89.11l-.28,1.4c-4.62-.2-15.92-.46-20.54-.77a249.71,249.71,0,0,1,0-55.2c1.1-.07,8.78-.14,9.81-.2.18,1.57.42,3.09.68,4.55a3.61,3.61,0,0,0-1.83,2.92.07.07,0,0,1,0,0,17.87,17.87,0,0,0-7.06,4.64,1.7,1.7,0,0,0-.42.82,26.06,26.06,0,0,0,.93,14.24,1.76,1.76,0,0,0,.52.76A18.12,18.12,0,0,0,29.83,66,4.76,4.76,0,0,0,33,69a5.29,5.29,0,0,0,3.55-.25,3.5,3.5,0,0,0,2-1.63A21.53,21.53,0,0,0,56.19,77.69Z" fill="#fff"/><path id="a553979e-04e8-4e43-9b6b-c6d6cc64ad71" data-name="Trazado 1251" d="M50.56,45.12C49.14,45.12,48,47,48,49.36s1.14,4.25,2.56,4.25,2.56-1.9,2.56-4.25S52,45.12,50.56,45.12Z" fill="#fff"/><path id="f80f5e47-b0a6-4f93-a46f-4ec9594bd019" data-name="Trazado 1252" d="M78.34,53.61c1.41,0,2.56-1.9,2.56-4.25s-1.15-4.25-2.56-4.25-2.56,1.9-2.56,4.25S76.93,53.61,78.34,53.61Z" fill="#fff"/><path id="b26b1084-2281-4e84-b20e-af3cee02b588" data-name="Trazado 1253" d="M61.81,54.89h5.27a1.78,1.78,0,1,0,0-3.55H61.81a1.78,1.78,0,1,0,0,3.55Z" fill="#fff"/><path id="f0408a64-a5aa-4327-8a41-63a6b41b0df4" data-name="Trazado 1254" d="M70.08,59.48a1.77,1.77,0,0,0-2.33,1h0a3.58,3.58,0,0,1-6.6,0,1.78,1.78,0,1,0-3.31,1.31l0,.07a7.14,7.14,0,0,0,13.16,0,1.79,1.79,0,0,0-1-2.33Z" fill="#fff"/><g id="e43f5960-55c3-4665-a6b6-eed298f2214b" data-name="Grupo 611"><path id="be59f58f-2642-4743-beff-c80857921c14" data-name="Trazado 1255" d="M108.4,34.54c-2.57-.17-5.16-.32-7.73-.46q-.47,3.21-1.28,6.73s0,0,0,0A17.9,17.9,0,0,1,106.76,45a1.72,1.72,0,0,1,.47.79,26.21,26.21,0,0,1,0,14.27,1.78,1.78,0,0,1-.47.79,18.12,18.12,0,0,1-7.36,4.17,4.85,4.85,0,0,1-3.27,3.21h0a12,12,0,0,1-1.33,6.56A5.92,5.92,0,1,1,92,72.46a9,9,0,0,0,.65-4.33,4.16,4.16,0,0,1-2-1.65,21.55,21.55,0,0,1-18,11.21v.74h2.67A13.35,13.35,0,0,1,88.47,89.11l.33,1.63c6.52-.23,13.1-.57,19.6-1a249.71,249.71,0,0,0,0-55.2Z" fill="#fff"/></g></g></svg>