<svg id="a7b6596d-d4a5-446e-8af8-ae659400b594" data-name="a720d7e9-d991-4e05-ad2c-a3ac22217953" xmlns="http://www.w3.org/2000/svg" viewBox="0 0 127.99 117.14"><g id="fa3af6c4-0090-4508-a590-6b2e43c751e6" data-name="bc4bea6f-1ef8-42b7-8761-585cd8fb51d8"><path id="ffca7345-0dab-4f6e-b02b-1574fe8011e0" data-name="baf60e48-17ad-45a7-b019-326ec46d316c" d="M50.57,45.16C49.15,45.16,48,47,48,49.4s1.14,4.25,2.56,4.25,2.56-1.9,2.56-4.25S52,45.16,50.57,45.16Z" fill="#f2f4ff"/><path id="e275a305-e51f-4d9b-947c-07bf8302e70d" data-name="ba911f77-972e-4d80-88b5-ff893989fe16" d="M78.35,53.65c1.41,0,2.56-1.9,2.56-4.25s-1.15-4.25-2.56-4.25-2.56,1.9-2.56,4.25S76.94,53.65,78.35,53.65Z" fill="#f2f4ff"/><path id="f42bd374-8fdc-4e04-be7b-bff1e8b9798d" data-name="e4246899-169a-45d5-8507-1c442c4169d1" d="M61.82,54.93h5.27a1.78,1.78,0,0,0,.26-3.55,1.13,1.13,0,0,0-.26,0H61.82a1.78,1.78,0,1,0-.27,3.55Z" fill="#f2f4ff"/><path id="fa54a9ca-6dc6-490c-9d4f-92fc4af47f66" data-name="f556ea61-9490-4a88-b6a2-d34d161ee3bc" d="M70.09,59.52a1.78,1.78,0,0,0-2.32,1v0h0a3.58,3.58,0,0,1-4.69,1.91,3.54,3.54,0,0,1-1.91-1.91,1.78,1.78,0,0,0-3.33,1.28l0,0v.07A7.14,7.14,0,0,0,71,61.9a1.8,1.8,0,0,0-1-2.33h0Z" fill="#f2f4ff"/><g id="a7facd68-4b6b-40f8-8cda-1ac543aea728" data-name="ea954044-3df0-45c6-99a7-0cb48fe6d4a0"><path d="M120.62,97.31c.17-1.3.34-2.58.49-3.83.31-2.6.58-5.21.82-7.81h0c.41-4,.52-6,.57-7.78.51-15.58.51-31.3-1.37-46.85a10.67,10.67,0,0,0-9.82-9.36c-3.39-.23-6.88-.45-10.4-.64a21.32,21.32,0,0,0-5.4-12c-6.69-7-16.8-6-19.33-5.65-3-1.25-17.45-6.74-31.89-.37A24,24,0,0,0,29.71,21.3c-2.11.13-10.88.26-13,.41A10.66,10.66,0,0,0,6.89,31a262.69,262.69,0,0,0,0,62.41c.16,1.26.32,2.54.49,3.83a10.12,10.12,0,0,0,2.73,19.86H117.89a10.12,10.12,0,0,0,2.73-19.86ZM96.81,63a2.33,2.33,0,0,1-2.11,2c-1.15,0-2.49-.83-2.58-1.58a114.2,114.2,0,0,1,.13-21h0c.08-.75,1.28-1.52,2.44-1.52s2.5.83,2.5,1.59Zm-4.29,4.17c-.1-.38.48-1,.87-1h1.69c.53,0,.9.76,1,1.29,0,.25.07.51.09.79s0,.64,0,1a12.14,12.14,0,0,1-1.38,5.6,5.88,5.88,0,1,1-4.34-2.74,6.35,6.35,0,0,1,1.53.38,9.28,9.28,0,0,0,.66-4.33A8.36,8.36,0,0,0,92.52,67.21Zm-2.76-11a18,18,0,0,1-18,18H57.12a18,18,0,0,1-18-18V44.36c3.2-.46,6.3-1,9.22-1.61h0c.18,0,5.83-1.27,7.83-1.89,7.84-2.41,15.75-5.62,20.41-9.42A27.66,27.66,0,0,0,79,35.83c2.88,4.25,6.57,7,10.74,8.06ZM69.16,77.74v2.5a4.71,4.71,0,1,1-9.41.43,3.09,3.09,0,0,1,0-.43v-2.5ZM43.91,89.86A9.78,9.78,0,0,1,53.52,82h2.87a8.26,8.26,0,0,0,16.13,0h2.87A9.81,9.81,0,0,1,85,89.86l.21,1c-6,.18-12,.27-17.88.27-7.79,0-15.71-.15-23.58-.46ZM99.13,44.15a19.87,19.87,0,0,1,4.81,3.15,22.43,22.43,0,0,1,0,11.39,17.82,17.82,0,0,1-4.81,2.88ZM32.78,24.91c.85-9,5.09-15.13,12.94-18.6C60,0,75,6.81,75.19,6.88A1.77,1.77,0,0,0,76.28,7c.1,0,10.5-1.92,16.67,4.53,4.83,5.06,6,13.86,3.49,26.18a4.91,4.91,0,0,0-6.24,2.6C82.17,38,79,28,79,27.89A1.77,1.77,0,0,0,76.8,26.7h0a1.63,1.63,0,0,0-.75.44c-3.84,3.84-10,7.2-18.56,9.66-3.28,1-9.62,2.43-9.82,2.47-3.19.66-6.59,1.24-10.11,1.73a2.39,2.39,0,0,0-.13-.28,5,5,0,0,0-3.85-2.6A49.2,49.2,0,0,1,32.78,24.91ZM33,41.66c1.49-.1,2.64.45,2.8,1.2,1.09,5.25,1.37,14.42,1.39,21.24,0,.77-1.13,1.46-2.62,1.56s-2.73-.44-2.78-1.2L30.4,43.21C30.31,42.45,31.49,41.75,33,41.66ZM29.8,62.81a19.22,19.22,0,0,1-4.89-2.87,22.36,22.36,0,0,1-.75-11.36,18.32,18.32,0,0,1,4.49-3.38ZM10.42,31.49A7.08,7.08,0,0,1,17,25.26c1.87-.13,10.38-.26,12.25-.37a45.45,45.45,0,0,0-.09,5.95c-1.47.09-9.62.19-11.24.3a1.75,1.75,0,0,0-1.64,1.56,253.11,253.11,0,0,0,0,59,1.76,1.76,0,0,0,1.64,1.57c5.65.39,18,.7,23.63.94,8.6.36,17.29.55,25.82.55,6.63,0,13.39-.11,20.1-.34,7.54-.24,15.18-.63,22.7-1.15a1.78,1.78,0,0,0,1.64-1.57,254.21,254.21,0,0,0,0-59,1.77,1.77,0,0,0-1.64-1.56c-3-.21-6-.4-9.05-.57a48.77,48.77,0,0,0,.15-5.92c3.32.18,6.62.38,9.82.61a7.1,7.1,0,0,1,6.55,6.23A259.3,259.3,0,0,1,119,77.18c0,.18-.32,5.75-.54,7.57-.34,2.74-.53,5.54-.87,8.31-.15,1.26-.31,2.56-.49,3.87H10.93c-.17-1.31-.34-2.6-.5-3.87A259.33,259.33,0,0,1,10.42,31.49Zm70.6,69a5,5,0,0,1-4.45,3.23c-3.07.13-6.18.2-9.24.2s-6.17-.07-9.25-.2a5,5,0,0,1-4.45-3.23Zm36.87,13.13H10.13a6.56,6.56,0,1,1,0-13.12H50a8.44,8.44,0,0,0,8,6.77c3.13.14,6.29.2,9.4.2s6.27-.07,9.4-.2a8.49,8.49,0,0,0,8-6.77h33.18a6.56,6.56,0,0,1,0,13.12h0Z" fill="#f2f4ff"/></g></g></svg>