<svg id="Capa_1" data-name="Capa 1" xmlns="http://www.w3.org/2000/svg" viewBox="0 0 944.16 641.38"><g id="banner"><g id="Grupo_6" data-name="Grupo 6"><path id="Trazado_1" data-name="Trazado 1" d="M341.54,147.56C259.31,43.87,97.36,68,51,191.23c-.67,1.77-1.32,3.56-2,5.37C-15.49,377.79,176,680.68,459.9,647.72c294.59-34.2,484-281.59,442.25-420.64S727.24,95.28,563.92,208.46C471.64,272.4,392.73,212.12,341.54,147.56Z" transform="translate(-1.54 -31)" fill="#5362b4"/><path id="Trazado_2" data-name="Trazado 2" d="M56.2,443.91a59.8,59.8,0,0,0-4.69-47.3c-7.72-14.14-19.82-29.1-34.36-22.33-25.53,11.9,0,77.26,20.84,84.44C47.41,462,53,453.81,56.2,443.91Z" transform="translate(-1.54 -31)" fill="#5362b4"/><path id="Trazado_3" data-name="Trazado 3" d="M870.76,480.24a59.82,59.82,0,0,0,39.07-27.08c8.6-13.61,15.8-31.46,2.81-40.88-22.79-16.54-67.5,37.57-63.67,59.24C850.71,481.34,860.53,482.22,870.76,480.24Z" transform="translate(-1.54 -31)" fill="#5362b4"/><path id="Trazado_4" data-name="Trazado 4" d="M940.15,304.66A31.49,31.49,0,0,0,945,280.11c-1.74-8.29-5.56-17.67-13.92-16.47-14.67,2.11-11.72,38.93-2.33,45.71C933,312.42,937,309.15,940.15,304.66Z" transform="translate(-1.54 -31)" fill="#5362b4"/><path id="Trazado_5" data-name="Trazado 5" d="M270.12,51a39.07,39.07,0,0,0-27.46-14.45c-10.48-.88-23,.34-24.52,10.7-2.7,18.18,42.11,27.75,53.49,19C276.8,62.3,274.34,56.34,270.12,51Z" transform="translate(-1.54 -31)" fill="#5362b4"/><path id="Trazado_6" data-name="Trazado 6" d="M202.45,53c-1.92-4.56-5.65-6.63-10.19-6s-10,2.88-11.83,9.6c-3.27,11.8,15,12.66,20.91,5.82C204,59.38,203.66,55.91,202.45,53Z" transform="translate(-1.54 -31)" fill="#5362b4"/><path id="Trazado_7" data-name="Trazado 7" d="M31.2,344.67c-2.54-6-7.49-8.78-13.49-7.88s-13.19,3.8-15.66,12.7c-4.33,15.61,19.83,16.76,27.68,7.7C33.29,353.08,32.8,348.48,31.2,344.67Z" transform="translate(-1.54 -31)" fill="#5362b4"/><path id="Trazado_8" data-name="Trazado 8" d="M940.57,237.21c-1.91-4.56-5.65-6.63-10.19-6s-10,2.87-11.83,9.59c-3.27,11.8,15,12.66,20.92,5.82C942.16,243.57,941.79,240.09,940.57,237.21Z" transform="translate(-1.54 -31)" fill="#5362b4"/><g id="Grupo_3" data-name="Grupo 3"><g id="Grupo_1" data-name="Grupo 1"><path id="Trazado_9" data-name="Trazado 9" d="M747.47,194H702.89a2.16,2.16,0,0,1-2.16-2.16V155a2.16,2.16,0,0,1,2.16-2.16h44.58a2.16,2.16,0,0,1,2.16,2.16v36.77A2.16,2.16,0,0,1,747.47,194Zm-43.54-3.19h42.5v-34.7h-42.5Z" transform="translate(-1.54 -31)" fill="#dadaef"/></g><g id="Grupo_2" data-name="Grupo 2"><path id="Trazado_10" data-name="Trazado 10" d="M762.63,186.69a3.79,3.79,0,0,1-1.58-.35l-9.5-4.54a3.68,3.68,0,0,1-2.08-3.31V168.32a3.69,3.69,0,0,1,2.08-3.31l9.5-4.53a3.67,3.67,0,0,1,4.89,1.72,3.8,3.8,0,0,1,.35,1.59V183a3.66,3.66,0,0,1-3.66,3.66Zm0-23.38a.46.46,0,0,0-.2.05l-9.5,4.54a.46.46,0,0,0-.27.42v10.17a.47.47,0,0,0,.27.43l9.5,4.53a.46.46,0,0,0,.62-.21.41.41,0,0,0,.05-.21V163.79a.45.45,0,0,0-.22-.4.44.44,0,0,0-.25-.08Z" transform="translate(-1.54 -31)" fill="#dadaef"/></g></g></g><g id="Grupo_30" data-name="Grupo 30"><path id="Rectángulo_2" data-name="Rectángulo 2" d="M60.79,641.51H839.94a7.21,7.21,0,0,1,7.21,7.22h0v16.43a7.21,7.21,0,0,1-7.21,7.22H60.79a7.22,7.22,0,0,1-7.22-7.22V648.73a7.22,7.22,0,0,1,7.22-7.22Z" transform="translate(-1.54 -31)" fill="#3700b1"/><path id="Trazado_41" data-name="Trazado 41" d="M847.15,656.24v.7H53.57v-.7A14.73,14.73,0,0,1,68.3,641.51H832.42A14.73,14.73,0,0,1,847.15,656.24Z" transform="translate(-1.54 -31)" fill="#542bd8"/></g><g id="Grupo_69" data-name="Grupo 69"><g id="Grupo_35" data-name="Grupo 35"><g id="Grupo_34" data-name="Grupo 34"><g id="Grupo_31" data-name="Grupo 31"><path id="Trazado_42" data-name="Trazado 42" d="M87.19,60.38V381.12a18.2,18.2,0,0,0,18.2,18.2H265.12a18.19,18.19,0,0,0,18.2-18.19h0V60.38a18.2,18.2,0,0,0-18.2-18.2H105.39a18.18,18.18,0,0,0-18.2,18.18v0Z" transform="translate(-1.54 -31)" fill="#2e3062"/></g><g id="Grupo_32" data-name="Grupo 32"><path id="Trazado_43" data-name="Trazado 43" d="M274.24,59.27v323a8,8,0,0,1-8,8h-162a8,8,0,0,1-8-8v-323A7.35,7.35,0,0,1,96.38,58a8,8,0,0,1,4.76-6.05,7.69,7.69,0,0,1,1.61-.5,8,8,0,0,1,1.54-.15H266.22A8,8,0,0,1,274.24,59.27Z" transform="translate(-1.54 -31)" fill="#fff9ff"/></g><path id="Trazado_44" data-name="Trazado 44" d="M274.24,59.27V80.78h-178V59.27A8.17,8.17,0,0,1,96.38,58a8.08,8.08,0,0,1,4.76-6.07,8.3,8.3,0,0,1,1.61-.49,8,8,0,0,1,1.54-.15H266.22A8,8,0,0,1,274.24,59.27Z" transform="translate(-1.54 -31)" fill="#dadaef"/><g id="Grupo_33" data-name="Grupo 33"><path id="Trazado_45" data-name="Trazado 45" d="M235.46,51.25l-6.6,6.6a7.86,7.86,0,0,0-2.29,5.53,7.82,7.82,0,0,1-7.81,7.82h-62.9A7.82,7.82,0,0,1,148,63.38a7.82,7.82,0,0,0-2.29-5.53l-6.6-6.6Z" transform="translate(-1.54 -31)" fill="#2e3062"/><circle id="Elipse_2" data-name="Elipse 2" cx="211.61" cy="30.08" r="3.25" fill="#524e82"/><rect id="Rectángulo_3" data-name="Rectángulo 3" x="153.99" y="26.83" width="50" height="6.5" rx="1.4" fill="#524e82"/></g></g></g><g id="Grupo_48" data-name="Grupo 48"><g id="Grupo_37" data-name="Grupo 37"><path id="Trazado_46" data-name="Trazado 46" d="M274.24,262v45.73a4,4,0,0,1-.77.08h-81.9a27,27,0,0,1,2.51-6.58,26.28,26.28,0,0,1,7.3-8.46c4.44-3.32,9.69-5.13,15.56-3.26.39.12.77.24,1.14.34a20.42,20.42,0,0,0,3.94.74c12.16.92,8.25-14.78,18.26-21.6,10.64-7.23,19.76-1.35,27.6-3.29a11.16,11.16,0,0,0,3-1.23,13.28,13.28,0,0,0,1.8-1.27C273.21,262.79,273.72,262.39,274.24,262Z" transform="translate(-1.54 -31)" fill="#542bd8"/><g id="Grupo_36" data-name="Grupo 36"><path id="Trazado_47" data-name="Trazado 47" d="M274.24,277.74V281l-25,16h0l-6.52,4.18-10.25,6.59h-5.13l10.26-6.59,11.1-7.12Z" transform="translate(-1.54 -31)" fill="#3700b1"/></g></g><g id="Grupo_41" data-name="Grupo 41"><path id="Trazado_48" data-name="Trazado 48" d="M161,288.19c2.78-2.82,5.49-5.71,8-8.76-6.12-16.47-16-46.65-17.55-74.29-2.52-43.8-22.3-48.73-31.48-37.71-29.84,35.82,39.64,120.91,39.64,120.91Z" transform="translate(-1.54 -31)" fill="#542bd8"/><g id="Grupo_40" data-name="Grupo 40"><g id="Grupo_39" data-name="Grupo 39"><g id="Grupo_38" data-name="Grupo 38"><path id="Trazado_49" data-name="Trazado 49" d="M164.07,285c.46-.49.92-1,1.37-1.47-11.95-20.19-19.9-42.16-24.66-57.95a295.77,295.77,0,0,1-8.35-34.5,1,1,0,0,0-1.9.31,298,298,0,0,0,8.4,34.72C143.75,242.18,151.86,264.55,164.07,285Z" transform="translate(-1.54 -31)" fill="#3700b1"/></g></g></g></g><g id="Grupo_45" data-name="Grupo 45"><path id="Trazado_50" data-name="Trazado 50" d="M169,309.05l-6.34,1.81-3.37,1-9.54,2.74a539.46,539.46,0,0,1-53.5-55.72V143.38c5.11,9.58,13.87,22.29,17.6,38.61q.8,3.54,1.71,7c12.07,47.12,36.31,91.38,47.5,110.33C166.75,305.57,169,309.05,169,309.05Z" transform="translate(-1.54 -31)" fill="#6b5efd"/><g id="Grupo_44" data-name="Grupo 44"><g id="Grupo_43" data-name="Grupo 43"><g id="Grupo_42" data-name="Grupo 42"><path id="Trazado_51" data-name="Trazado 51" d="M162.68,310.87l-3.37,1c-27-30.76-47.38-66.66-60.1-92.38q-1.53-3.09-2.95-6V206c1.8,3.87,3.73,7.92,5.8,12.12C114.86,243.94,135.42,280.13,162.68,310.87Z" transform="translate(-1.54 -31)" fill="#542bd8"/></g></g></g></g><g id="Grupo_47" data-name="Grupo 47"><path id="Trazado_52" data-name="Trazado 52" d="M274.24,158.72V263.09c-.49.24-1,.45-1.5.66l-1.82.73-3,1.23c-13.47,5.46-22.83,10.44-19.14,28.4,0,.2.08.41.13.61.17.78.31,1.55.42,2.32h0a34.68,34.68,0,0,1,.37,4.19H183.8a37.36,37.36,0,0,1-.94-25.49c2.41-7.49,7-13.9,15.37-16.53,26.12-8.26,3.5-24.91,10.25-42.93,7.77-20.77,28.76-17.3,32.88-33.31C245.93,165.27,263.45,151.49,274.24,158.72Z" transform="translate(-1.54 -31)" fill="#6b5efd"/><g id="Grupo_46" data-name="Grupo 46"><path id="Trazado_53" data-name="Trazado 53" d="M217.7,301.23l43-106.23a2,2,0,0,0-3.65-1.47h0l-43.63,107.7Z" transform="translate(-1.54 -31)" fill="#542bd8"/></g></g></g><g id="Grupo_66" data-name="Grupo 66"><g id="Grupo_65" data-name="Grupo 65"><g id="Grupo_54" data-name="Grupo 54"><g id="Grupo_51" data-name="Grupo 51"><g id="Grupo_50" data-name="Grupo 50"><g id="Grupo_49" data-name="Grupo 49"><path id="Trazado_54" data-name="Trazado 54" d="M274.24,330.4v51.82a8,8,0,0,1-8,8h-162a8,8,0,0,1-8-8V330.4c0-25.62,10.9-34.45,10.9-34.45a153,153,0,0,1,32.91-17c.2-.1,31.46-10.64,31.67-10.77l32.68,2.3c3.93,2.3,25.67,8.82,38.63,15.16,2,1,3.12,1.53,4.25,2.15,10.83,6,15.4,10.91,18.71,15.75C267.61,305.89,273,317.53,274.24,330.4Z" transform="translate(-1.54 -31)" fill="#ff495a"/></g></g></g><g id="Grupo_52" data-name="Grupo 52"><path id="Trazado_55" data-name="Trazado 55" d="M127.32,353l-5.46,37.23h-3.23l5.53-37.7a1.6,1.6,0,0,1,3.19.24A.91.91,0,0,1,127.32,353Z" transform="translate(-1.54 -31)" fill="#e21c47"/></g><g id="Grupo_53" data-name="Grupo 53"><path id="Trazado_56" data-name="Trazado 56" d="M256.1,390.24h-3.22l-3.65-28.63a1.6,1.6,0,0,1,3.17-.4Z" transform="translate(-1.54 -31)" fill="#e21c47"/></g><path id="Trazado_57" data-name="Trazado 57" d="M208.55,329.21h34.32s.93,30.33-17,30.33C207.39,359.54,208.55,329.21,208.55,329.21Z" transform="translate(-1.54 -31)" fill="#e21c47"/></g><g id="Grupo_64" data-name="Grupo 64"><path id="Trazado_58" data-name="Trazado 58" d="M230.24,179.65s18.28-6.37,16.45-20.58c-1.55-12.1-15-4.26-13.79-13.71s3.8-18.05-7.75-20.41c-10.1-2.07-10.27,5.26-23.54-5.37C185.93,107,173.89,136.11,159.9,137c-20.63,1.28-23.24,13.64-25.27,23.52s8,21.49,8,21.49Z" transform="translate(-1.54 -31)" fill="#2e3062"/><g id="Grupo_57" data-name="Grupo 57"><path id="Trazado_59" data-name="Trazado 59" d="M227.18,200.42s7.67-10.23,13.37-1.77-2.36,33.42-16.32,27.33Z" transform="translate(-1.54 -31)" fill="#fa8465"/><g id="Grupo_55" data-name="Grupo 55"><path id="Trazado_60" data-name="Trazado 60" d="M227.28,218.26a1.17,1.17,0,0,0,1.13-.86c2.17-7.71,10.15-10.84,10.24-10.87a1.18,1.18,0,0,0-.84-2.2c-.37.14-9.18,3.55-11.67,12.43a1.19,1.19,0,0,0,.82,1.46A1.12,1.12,0,0,0,227.28,218.26Z" transform="translate(-1.54 -31)" fill="#fa664d"/></g><g id="Grupo_56" data-name="Grupo 56"><path id="Trazado_61" data-name="Trazado 61" d="M235.34,214.38a1.2,1.2,0,0,0,.64-.19,1.18,1.18,0,0,0,.35-1.63A10.72,10.72,0,0,0,231.9,209a1.18,1.18,0,0,0-1,2.15,8.57,8.57,0,0,1,3.41,2.7A1.2,1.2,0,0,0,235.34,214.38Z" transform="translate(-1.54 -31)" fill="#fa664d"/></g></g><path id="Trazado_62" data-name="Trazado 62" d="M168.79,247.16V272s7.41,12.65,17.42,13.51,18.9-10.89,18.9-10.89V248.9Z" transform="translate(-1.54 -31)" fill="#f7ad89"/><path id="Trazado_63" data-name="Trazado 63" d="M168.79,247.16v11c6.72,7.45,18.66,9.32,36.32,6.71v-16Z" transform="translate(-1.54 -31)" fill="#fa8465"/><path id="Trazado_64" data-name="Trazado 64" d="M231.64,192.7c-.09,2.5-.22,5.12-.43,7.8-.07,1-.15,2-.25,3-.38,4.09-.93,8.3-1.69,12.49a.13.13,0,0,1,0,.06,1.73,1.73,0,0,1,0,.31l-.16.87c-.12.58-.24,1.17-.37,1.78-.19.92-.39,1.87-.62,2.84-3.82,16.17-11.35,31.08-25.78,36.22-34.27,12.23-47.91-14.5-53.8-33-.41-1.26-.77-2.48-1.1-3.65-.56-2-1.07-4.21-1.52-6.57h0a.28.28,0,0,1,0-.09v0c-1-5.15-1.7-11-2.23-16.8-.47-5-.78-10.07-1-14.57a26,26,0,0,1,.88-8c.17-.61.36-1.23.58-1.83.11-.31.22-.61.34-.91.24-.6.5-1.18.78-1.76s.58-1.14.9-1.69.67-1.1,1-1.61h0a24,24,0,0,1,1.75-2.27,26.32,26.32,0,0,1,5-4.5c.54-.36,1.1-.71,1.66-1a25.69,25.69,0,0,1,3.6-1.7c15-5.77,37.8-10.33,59.4,1.91a26,26,0,0,1,10.66,11.48c.24.5.46,1,.67,1.53.12.33.25.65.36,1,.23.67.44,1.33.61,2a18.13,18.13,0,0,1,.43,1.94,25.55,25.55,0,0,1,.41,4.1C231.77,185.17,231.77,188.79,231.64,192.7Z" transform="translate(-1.54 -31)" fill="#f7ad89"/><g id="Grupo_58" data-name="Grupo 58"><path id="Trazado_65" data-name="Trazado 65" d="M187.58,251.48a11.89,11.89,0,0,1-5.54-1.82,1.2,1.2,0,0,1,1.32-2h0a9.67,9.67,0,0,0,4.3,1.43,10.19,10.19,0,0,0,4.63-1.14,1.2,1.2,0,0,1,1.17,2.09A12.52,12.52,0,0,1,187.58,251.48Z" transform="translate(-1.54 -31)" fill="#fa8465"/></g><path id="Trazado_66" data-name="Trazado 66" d="M168.05,201.35c0,2.64,1.36,4.8,3,4.8s3.05-2.15,3.05-4.8-1.37-4.81-3.05-4.81S168.05,198.69,168.05,201.35Z" transform="translate(-1.54 -31)" fill="#2e3062"/><path id="Trazado_67" data-name="Trazado 67" d="M205.11,201.35c0,2.64,1.37,4.8,3,4.8s3.05-2.15,3.05-4.8-1.36-4.81-3.05-4.81S205.11,198.69,205.11,201.35Z" transform="translate(-1.54 -31)" fill="#2e3062"/><path id="Trazado_68" data-name="Trazado 68" d="M158.45,185.16s12.61-5,22.31-.79l-1,5.4s-14.25-1.2-21.42,1.7A9.3,9.3,0,0,1,158.45,185.16Z" transform="translate(-1.54 -31)" fill="#2e3062"/><path id="Trazado_69" data-name="Trazado 69" d="M218.4,185.18s-12.7-5-22.48-.79l1,5.44s14.35-1.21,21.59,1.72A9.42,9.42,0,0,0,218.4,185.18Z" transform="translate(-1.54 -31)" fill="#2e3062"/><g id="Grupo_59" data-name="Grupo 59"><path id="Trazado_70" data-name="Trazado 70" d="M187.47,222.8a12.79,12.79,0,0,1-4.27-.9,1.18,1.18,0,0,1,.89-2.19c1.07.44,3.63,1.11,4.74.45a1.28,1.28,0,0,0,.58-1.1c.43-4.12-.7-17.93-.72-18.07a1.18,1.18,0,0,1,2.36-.19c0,.58,1.15,14.17.7,18.5a3.6,3.6,0,0,1-1.71,2.88A5,5,0,0,1,187.47,222.8Z" transform="translate(-1.54 -31)" fill="#fa8465"/></g><path id="Trazado_71" data-name="Trazado 71" d="M202.3,231.78c-.9,4.51-3.87,12.8-13.9,12.8s-12.87-7.57-13.84-12.8Z" transform="translate(-1.54 -31)" fill="#fff9ff"/><path id="Trazado_72" data-name="Trazado 72" d="M231.64,192.7c-.09,2.5-.22,5.12-.43,7.8-.07,1-.15,2-.25,3-.38,4.09-.93,8.3-1.69,12.49l-5-1s3.65-15.33,2.51-21-5.86-9.05-4.28-14.55S218.23,168,214,167s-14.73,5.14-24-.56-23.33-4.36-29.62.56-1.7,14.47-6.22,15.7-1.32,11.71-.74,17c.58,5.14,1.71,12,1.78,12.42l-5.92.14-2.35-10.94c-2-.88-2.22-2.61-3.28-3.38-.47-5.06-.78-10.08-1-14.58a25.91,25.91,0,0,1,.88-8c.17-.62.36-1.24.58-1.84.12-.31.23-.61.34-.91.24-.59.5-1.18.78-1.75s.58-1.14.9-1.7.67-1.09,1-1.61h0a25.75,25.75,0,0,1,6.8-6.76c.54-.36,1.09-.71,1.66-1a27.41,27.41,0,0,1,3.59-1.7c15-5.77,37.8-10.33,59.4,1.92a25.9,25.9,0,0,1,10.67,11.47c.24.51.46,1,.67,1.53.12.33.25.65.36,1a19.62,19.62,0,0,1,.61,2,18.13,18.13,0,0,1,.43,1.94,25.67,25.67,0,0,1,.42,4.1C231.78,185.18,231.77,188.8,231.64,192.7Z" transform="translate(-1.54 -31)" fill="#2e3062"/><g id="Grupo_63" data-name="Grupo 63"><path id="Trazado_73" data-name="Trazado 73" d="M148.58,204.14a10.27,10.27,0,0,0-5-7.78c-2.63-1.5-6-1.94-8.83,2.29-5.7,8.45,2.36,33.42,16.32,27.33Z" transform="translate(-1.54 -31)" fill="#f7ad89"/><g id="Grupo_60" data-name="Grupo 60"><path id="Trazado_74" data-name="Trazado 74" d="M148.06,218.26a1.18,1.18,0,0,1-1.14-.86c-2.16-7.71-10.15-10.84-10.23-10.87a1.18,1.18,0,0,1,.83-2.2c.38.14,9.18,3.55,11.67,12.43a1.18,1.18,0,0,1-.82,1.46A1.1,1.1,0,0,1,148.06,218.26Z" transform="translate(-1.54 -31)" fill="#fa8465"/></g><g id="Grupo_62" data-name="Grupo 62"><g id="Grupo_61" data-name="Grupo 61"><path id="Trazado_75" data-name="Trazado 75" d="M140,214.38a1.19,1.19,0,0,1-1-1.82,10.72,10.72,0,0,1,4.43-3.57,1.19,1.19,0,0,1,1.55.63,1.18,1.18,0,0,1-.59,1.52,8.47,8.47,0,0,0-3.4,2.7A1.22,1.22,0,0,1,140,214.38Z" transform="translate(-1.54 -31)" fill="#fa8465"/></g></g></g></g></g></g><rect id="Rectángulo_4" data-name="Rectángulo 4" x="94.73" y="317.99" width="177.97" height="41.98" rx="3.39" opacity="0.4" style="isolation:isolate"/><g id="Grupo_68" data-name="Grupo 68"><circle id="Elipse_3" data-name="Elipse 3" cx="140.7" cy="341.34" r="12.85" fill="#fff" opacity="0.8" style="isolation:isolate"/><circle id="Elipse_4" data-name="Elipse 4" cx="184.22" cy="341.34" r="12.85" fill="#f43853"/><circle id="Elipse_5" data-name="Elipse 5" cx="226.73" cy="341.34" r="12.85" fill="#fff" opacity="0.8" style="isolation:isolate"/><g id="Grupo_67" data-name="Grupo 67"><path id="Trazado_76" data-name="Trazado 76" d="M141,367.48a1.43,1.43,0,1,1-1.43,1.43,1.43,1.43,0,0,1,1.43-1.43Z" transform="translate(-1.54 -31)" fill="#454545"/><path id="Trazado_77" data-name="Trazado 77" d="M149.21,375.12H135.27l3.23-3.55,2.22,2.24,4.13-3.83Z" transform="translate(-1.54 -31)" fill="#454545"/></g><path id="Trazado_78" data-name="Trazado 78" d="M185.76,371.81s-2.29-.13-2.58.44c-.43.85,0,2.73-2.67,2.58s-1.83-2.46-1.52-3.12.85-1.87,6.77-1.87,6.45,1.2,6.76,1.87,1.21,3-1.52,3.12-2.25-1.73-2.67-2.58C188,371.68,185.76,371.81,185.76,371.81Z" transform="translate(-1.54 -31)" fill="#fff"/><rect id="Rectángulo_5" data-name="Rectángulo 5" x="220.42" y="336.66" width="12.61" height="8.47" fill="#454545"/><path id="Trazado_79" data-name="Trazado 79" d="M231.76,379.09v-3.78l-3.34.57Z" transform="translate(-1.54 -31)" fill="#454545"/><rect id="Rectángulo_6" data-name="Rectángulo 6" x="222" y="338.78" width="9.45" height="1.44" fill="#fff"/><rect id="Rectángulo_7" data-name="Rectángulo 7" x="222" y="341.75" width="5.02" height="1.44" fill="#fff"/></g></g><g id="Grupo_110" data-name="Grupo 110"><g id="Grupo_74" data-name="Grupo 74"><g id="Grupo_73" data-name="Grupo 73"><g id="Grupo_70" data-name="Grupo 70"><path id="Trazado_80" data-name="Trazado 80" d="M687.4,237.46V558.2a18.2,18.2,0,0,0,18.2,18.2H865.33a18.2,18.2,0,0,0,18.2-18.2h0V237.46a18.2,18.2,0,0,0-18.2-18.2H705.6a18.2,18.2,0,0,0-18.2,18.2Z" transform="translate(-1.54 -31)" fill="#2e3062"/></g><g id="Grupo_71" data-name="Grupo 71"><path id="Trazado_81" data-name="Trazado 81" d="M874.45,236.35V559.3a8,8,0,0,1-8,8,0,0,0,0,1-.05,0H704.51a8,8,0,0,1-8-8v-323a7.37,7.37,0,0,1,.12-1.32,8,8,0,0,1,6.37-6.56,8.73,8.73,0,0,1,1.54-.14H866.43A8,8,0,0,1,874.45,236.35Z" transform="translate(-1.54 -31)" fill="#fff9ff"/></g><path id="Trazado_82" data-name="Trazado 82" d="M874.45,236.35v21.51h-178V236.35a8.4,8.4,0,0,1,.11-1.32,8.08,8.08,0,0,1,4.76-6.06,8.22,8.22,0,0,1,1.62-.5,8.71,8.71,0,0,1,1.53-.14H866.43A8,8,0,0,1,874.45,236.35Z" transform="translate(-1.54 -31)" fill="#dadaef"/><g id="Grupo_72" data-name="Grupo 72"><path id="Trazado_83" data-name="Trazado 83" d="M835.68,228.33l-6.6,6.6a7.82,7.82,0,0,0-2.29,5.53,7.82,7.82,0,0,1-7.82,7.82H756.06a7.82,7.82,0,0,1-7.81-7.82,7.86,7.86,0,0,0-2.29-5.53l-6.6-6.6Z" transform="translate(-1.54 -31)" fill="#2e3062"/><circle id="Elipse_6" data-name="Elipse 6" cx="811.83" cy="207.15" r="3.25" fill="#524e82"/><rect id="Rectángulo_8" data-name="Rectángulo 8" x="754.2" y="203.91" width="50" height="6.5" rx="1.4" fill="#524e82"/></g></g></g><g id="Grupo_85" data-name="Grupo 85"><g id="Grupo_76" data-name="Grupo 76"><path id="Trazado_84" data-name="Trazado 84" d="M874.45,409.22v58.9h-.14c-12.4-.53-21.5-1.61-24.65,13.09a25.76,25.76,0,0,1-1.4,4.47l-20.77-9.43L824.73,475l-19.28-8.75a26.62,26.62,0,0,1,6.91-16.84l.43-.47a17.39,17.39,0,0,1,11.15-5.81,16.34,16.34,0,0,1,3.28.06l.9.1c18.22,1.7,8.89-15.41,18.44-25S866.93,413.61,874.45,409.22Z" transform="translate(-1.54 -31)" fill="#542bd8"/><g id="Grupo_75" data-name="Grupo 75"><path id="Trazado_85" data-name="Trazado 85" d="M874.45,427.75v3.86l-16.74,15.9-1.49,1.42-28.74,27.31L824.73,475l27.42-26.06,5.15-4.9Z" transform="translate(-1.54 -31)" fill="#3700b1"/></g></g><g id="Grupo_80" data-name="Grupo 80"><path id="Trazado_86" data-name="Trazado 86" d="M730.29,496.52c3.52-1.81,7-3.71,10.34-5.83-.7-17.55-.67-49.3,6.4-76.06,11.21-42.42-6.06-53.26-18.21-45.63-39.5,24.77.11,127.24.11,127.24Z" transform="translate(-1.54 -31)" fill="#542bd8"/><g id="Grupo_79" data-name="Grupo 79"><g id="Grupo_78" data-name="Grupo 78"><g id="Grupo_77" data-name="Grupo 77"><path id="Trazado_87" data-name="Trazado 87" d="M734.15,494.48l1.76-1c-5.09-22.9-5.82-46.26-5.44-62.75a299.38,299.38,0,0,1,2.78-35.39,1,1,0,0,0-.85-1.06,1,1,0,0,0-1,.76,301,301,0,0,0-2.8,35.61C728.16,447.42,728.91,471.2,734.15,494.48Z" transform="translate(-1.54 -31)" fill="#3700b1"/></g></g></g></g><g id="Grupo_82" data-name="Grupo 82"><path id="Trazado_88" data-name="Trazado 88" d="M742.25,531.33l-5.8.39-3.08.2-8.72.59a470.63,470.63,0,0,1-28.17-44V350.14c8.12,3.88,15.74,14.6,19.47,34.72a157.12,157.12,0,0,1,2.39,26.78c.36,30.53,6.78,61.59,12.87,84.4C736.87,517.24,742.25,531.33,742.25,531.33Z" transform="translate(-1.54 -31)" fill="#6b5efd"/><g id="Grupo_81" data-name="Grupo 81"><path id="Trazado_89" data-name="Trazado 89" d="M736.45,531.72l-3.08.2c-17.55-31.51-28.43-66.22-34.61-90.73-.82-3.24-1.57-6.38-2.28-9.42V418.62c1.33,6.54,3,13.95,5,21.93C707.69,465.19,718.68,500.18,736.45,531.72Z" transform="translate(-1.54 -31)" fill="#542bd8"/></g></g><g id="Grupo_84" data-name="Grupo 84"><path id="Trazado_90" data-name="Trazado 90" d="M874.45,301.53V411.05c-12.77,5.3-21.34,10.64-17.46,28.38.12.54.23,1.08.31,1.62a31.42,31.42,0,0,1,.4,3.48c0,.48.06,1,.07,1.42H791.91a37.42,37.42,0,0,1-.94-25.49c2.42-7.5,7-13.9,15.38-16.53,26.12-8.26,3.5-24.91,10.25-42.94,7.77-20.76,28.75-17.3,32.88-33.31C853,313.88,864.47,302.47,874.45,301.53Z" transform="translate(-1.54 -31)" fill="#6b5efd"/><g id="Grupo_83" data-name="Grupo 83"><path id="Trazado_91" data-name="Trazado 91" d="M825.83,445.94l43-106.23a2,2,0,0,0-3.65-1.47h0l-43.63,107.7Z" transform="translate(-1.54 -31)" fill="#542bd8"/></g></g></g><g id="Grupo_107" data-name="Grupo 107"><g id="Grupo_106" data-name="Grupo 106"><path id="Trazado_92" data-name="Trazado 92" d="M874.45,465.31v51.15c-5.26,3.45-13.44,5.92-21.15,5.88-35-.16-60.37-59.57-92.95-47s-41.59-31.7-27-43.19,1.61-48,1.61-48-15.24-24.07-1.48-49.34,28.65-38.12,61-31.33,47.12,17.26,50,40.81,5.67,43.84,14.21,58.09c10.06,16.77-15.22,48.71,12.92,62.43C872.07,465,874.07,465.1,874.45,465.31Z" transform="translate(-1.54 -31)" fill="#2e3062"/><path id="Trazado_93" data-name="Trazado 93" d="M738.71,446.2,731.18,553s-3.27,5.48-8.64,14.34h-18a8,8,0,0,1-8-8V516.5C723,471.05,738.71,446.2,738.71,446.2Z" transform="translate(-1.54 -31)" fill="#f68601"/><g id="Grupo_86" data-name="Grupo 86"><path id="Trazado_94" data-name="Trazado 94" d="M864.7,567.31H712.49c-3.21-6.71-4-16.66,2.21-33.77,14.51-40.17,24-87.34,24-87.34l9-.47,9.65-.49,45.85-2.33,27,10.45,26.37,10.19S861.43,502.28,864.7,567.31Z" transform="translate(-1.54 -31)" fill="#fda803"/><path id="Trazado_95" data-name="Trazado 95" d="M760.63,445.08C757.32,459.61,750.2,489,772,489.56c26.2.68,52.42-25.12,58.26-36.2l-27-10.45Z" transform="translate(-1.54 -31)" fill="#f7ad89"/></g><g id="Grupo_87" data-name="Grupo 87"><path id="Trazado_96" data-name="Trazado 96" d="M864.21,556c-1.05,3.92-2.14,7.67-3.27,11.28H811.81c11-22.08,25.84-55.14,44.81-103.77C856.62,463.55,881.4,492.12,864.21,556Z" transform="translate(-1.54 -31)" fill="#f68601"/></g><g id="Grupo_105" data-name="Grupo 105"><g id="Grupo_94" data-name="Grupo 94"><g id="Grupo_91" data-name="Grupo 91"><path id="Trazado_97" data-name="Trazado 97" d="M745.14,379.47s-8.49-8.86-13.36-.4,5.32,31.13,18.56,24.1Z" transform="translate(-1.54 -31)" fill="#fa8465"/><path id="Trazado_98" data-name="Trazado 98" d="M744,402.13a2.53,2.53,0,1,1-2.76-2.28A2.53,2.53,0,0,1,744,402.13Z" transform="translate(-1.54 -31)" fill="#fff9ff"/><g id="Grupo_88" data-name="Grupo 88"><path id="Trazado_99" data-name="Trazado 99" d="M746.64,396.22a1.15,1.15,0,0,1-1.2-.7c-2.83-7-11-9.2-11.08-9.22a1.11,1.11,0,0,1-.82-1.32v-.05a1.19,1.19,0,0,1,1.44-.78c.38.1,9.38,2.47,12.64,10.56a1.12,1.12,0,0,1-.64,1.43h0A1.16,1.16,0,0,1,746.64,396.22Z" transform="translate(-1.54 -31)" fill="#fa664d"/></g><g id="Grupo_90" data-name="Grupo 90"><g id="Grupo_89" data-name="Grupo 89"><path id="Trazado_100" data-name="Trazado 100" d="M738.33,393.34a1.22,1.22,0,0,1-.65-.12,1.07,1.07,0,0,1-.52-1.43l0-.07a10.54,10.54,0,0,1,4-3.76,1.19,1.19,0,0,1,1.59.41,1.08,1.08,0,0,1-.39,1.49l-.06,0a8.29,8.29,0,0,0-3.12,2.85A1.2,1.2,0,0,1,738.33,393.34Z" transform="translate(-1.54 -31)" fill="#fa664d"/></g></g></g><path id="Trazado_101" data-name="Trazado 101" d="M808.17,422.9l2.74,28.74s-12.37,11.58-22.7,13.47-15.09-10-15.09-10l-2.56-26.75Z" transform="translate(-1.54 -31)" fill="#f7ad89"/><path id="Trazado_102" data-name="Trazado 102" d="M808.44,425.72l1.09,11.46c-6.25,8.43-18.4,12.36-37,11.4l-1.67-17.44Z" transform="translate(-1.54 -31)" fill="#fa8465"/><path id="Trazado_103" data-name="Trazado 103" d="M741.63,390.83c.6,2.75,1.26,5.53,2,8.3,5.08,18.36,18.83,37.42,34.08,39.38,32.92,4.24,43.88-22.35,47.25-41.51.38-2.13-.92-4.4-.7-6.9.51-5.92,2.23-12.76,2.14-19.33-.06-4.55-.23-9-.42-13.08a26.51,26.51,0,0,0-18.8-24.3c-15.38-4.48-38.32-7-58.43,7.53a26.74,26.74,0,0,0-10.84,23.76A200.45,200.45,0,0,0,741.63,390.83Z" transform="translate(-1.54 -31)" fill="#f7ad89"/><g id="Grupo_92" data-name="Grupo 92"><path id="Trazado_104" data-name="Trazado 104" d="M782.34,401.54a1.26,1.26,0,0,0,1.1-1.4,1.25,1.25,0,0,0-1.13-1.1l-4.37-.32,4.41-16.33a1.25,1.25,0,0,0-2.42-.66L774.71,401l7.42.52Z" transform="translate(-1.54 -31)" fill="#fa8465"/></g><path id="Trazado_105" data-name="Trazado 105" d="M751,358.17c-12,6.95-6.62,21.53-10.16,29.45-.23.51-.51.63-.83.41a196.42,196.42,0,0,1-3.81-26.67,27.11,27.11,0,0,1,11.5-24.25c21.24-14.89,45.41-12.4,61.6-7.88A27,27,0,0,1,829.07,354c.2,4.13.35,8.7.4,13.34-2,1.44-7,2.5-6.91,5.88.28,8.94.43,15.06-1.48,14.71-3.22-.6-6.19-11.18-3.27-18.48,0,0-3.33-4.41-15.5-7.81A228,228,0,0,1,771.39,350s-6-2.9-8.6-6.44A26.83,26.83,0,0,1,751,358.17Z" transform="translate(-1.54 -31)" fill="#2e3062"/><path id="Trazado_106" data-name="Trazado 106" d="M763.52,382.73c.27,2.76-.94,5.13-2.7,5.3s-3.38-1.93-3.65-4.69,1-5.13,2.7-5.3S763.26,380,763.52,382.73Z" transform="translate(-1.54 -31)" fill="#2e3062"/><path id="Trazado_107" data-name="Trazado 107" d="M800.9,379.26c.27,2.76-.94,5.13-2.7,5.3s-3.38-1.93-3.65-4.69,1-5.13,2.7-5.3S800.64,376.5,800.9,379.26Z" transform="translate(-1.54 -31)" fill="#2e3062"/><path id="Trazado_108" data-name="Trazado 108" d="M753,369a62,62,0,0,1,13.1-2.38c1.45-.09,2.72.89,2.63,2.06v0a2,2,0,0,1-2.17,1.67c-3.77.08-13.56,1.07-18,2.87a2.38,2.38,0,0,1,.78-2.07A7.69,7.69,0,0,1,753,369Z" transform="translate(-1.54 -31)" fill="#2e3062"/><path id="Trazado_109" data-name="Trazado 109" d="M804.08,364.7a61.06,61.06,0,0,0-13.31,0c-1.45.17-2.52,1.35-2.23,2.49v0a2,2,0,0,0,2.42,1.26c3.73-.59,13.55-1.33,18.23-.34a2.37,2.37,0,0,0-1.13-1.9A7.68,7.68,0,0,0,804.08,364.7Z" transform="translate(-1.54 -31)" fill="#2e3062"/><path id="Trazado_110" data-name="Trazado 110" d="M769.17,410.31c1.35,4.3,5.2,12.08,15.59,11.09s12.63-8.65,13.15-13.83Z" transform="translate(-1.54 -31)" fill="#fff9ff"/><g id="Grupo_93" data-name="Grupo 93"><path id="Trazado_111" data-name="Trazado 111" d="M785.34,429a12.32,12.32,0,0,1-5.92-1.13,1.24,1.24,0,0,1,1.09-2.22h0a9.82,9.82,0,0,0,4.59.9,10.48,10.48,0,0,0,4.59-1.78,1.23,1.23,0,0,1,1.47,2h0A12.85,12.85,0,0,1,785.34,429Z" transform="translate(-1.54 -31)" fill="#fa8465"/></g></g><g id="Grupo_98" data-name="Grupo 98"><path id="Trazado_112" data-name="Trazado 112" d="M822.75,372s7.78-11.52,13.71-4.32S837.22,398.32,824,394Z" transform="translate(-1.54 -31)" fill="#f7ad89"/><path id="Trazado_113" data-name="Trazado 113" d="M832,393.73a2.53,2.53,0,1,1-2.76-2.28,2.53,2.53,0,0,1,2.76,2.28Z" transform="translate(-1.54 -31)" fill="#fff9ff"/><g id="Grupo_95" data-name="Grupo 95"><path id="Trazado_114" data-name="Trazado 114" d="M826.08,386.69a1.09,1.09,0,0,0,1-.88c1.3-7.21,8.3-10.76,8.38-10.79a1.08,1.08,0,0,0-1-1.94c-.33.16-8.05,4-9.54,12.34a1.08,1.08,0,0,0,.87,1.26h0A.93.93,0,0,0,826.08,386.69Z" transform="translate(-1.54 -31)" fill="#fa8465"/></g><g id="Grupo_97" data-name="Grupo 97"><g id="Grupo_96" data-name="Grupo 96"><path id="Trazado_115" data-name="Trazado 115" d="M833.09,382.45a1.08,1.08,0,0,0,.74-1.74h0a9.8,9.8,0,0,0-4.34-2.87,1.08,1.08,0,1,0-.69,2.05h0a7.77,7.77,0,0,1,3.34,2.15A1.05,1.05,0,0,0,833.09,382.45Z" transform="translate(-1.54 -31)" fill="#fa8465"/></g></g></g><g id="Grupo_104" data-name="Grupo 104"><g id="Grupo_99" data-name="Grupo 99"><path id="Trazado_116" data-name="Trazado 116" d="M783.73,377.15l.23,2a14.81,14.81,0,0,0,16.42,13l.48-.06a13.36,13.36,0,0,0,8.66-5.12,14.58,14.58,0,0,0,3-10.84l-.28-2.32a5.28,5.28,0,0,0-1.95-3.48,5.18,5.18,0,0,0-3.83-1.09l-18.2,2.15a5.17,5.17,0,0,0-4.32,3.5,5.06,5.06,0,0,0-.26,2.15A.59.59,0,0,0,783.73,377.15Zm2.14-.25a3,3,0,0,1,2.67-3.38l18.2-2.15a3.06,3.06,0,0,1,3.39,2.67h0l.27,2.33a12.39,12.39,0,0,1-2.56,9.22,11.25,11.25,0,0,1-7.28,4.34l-.43.06a12.67,12.67,0,0,1-14-11.12Z" transform="translate(-1.54 -31)" fill="#fff9ff"/></g><g id="Grupo_100" data-name="Grupo 100"><path id="Trazado_117" data-name="Trazado 117" d="M745.14,381.7l.23,2a14.82,14.82,0,0,0,16.42,13l.49-.06a13.27,13.27,0,0,0,8.65-5.12,14.54,14.54,0,0,0,3-10.84l-.28-2.32a.36.36,0,0,0,0-.1,4.79,4.79,0,0,0-.67-1.93,5.21,5.21,0,0,0-5.1-2.54l-18.2,2.15a5.22,5.22,0,0,0-3.76,2.34,5.12,5.12,0,0,0-.77,2A4.76,4.76,0,0,0,745.14,381.7Zm2.15-.25a3,3,0,0,1,2.67-3.38l18.2-2.15a3,3,0,0,1,3.38,2.67l.28,2.33a12.42,12.42,0,0,1-2.56,9.22,11.25,11.25,0,0,1-7.28,4.34l-.44.06a12.67,12.67,0,0,1-14-11.12Z" transform="translate(-1.54 -31)" fill="#fff9ff"/></g><g id="Grupo_101" data-name="Grupo 101"><path id="Trazado_118" data-name="Trazado 118" d="M810.32,370.31a26.07,26.07,0,0,1,13-3.9l-.56,2.21A24.44,24.44,0,0,0,811.71,372c-.53.32-.8.53-.82.54l-1.34-1.69C809.8,370.66,810.06,370.48,810.32,370.31Z" transform="translate(-1.54 -31)" fill="#fff9ff"/></g><g id="Grupo_102" data-name="Grupo 102"><path id="Trazado_119" data-name="Trazado 119" d="M784.46,377.15l.46-2.11a22,22,0,0,0-6.58-.32,14.62,14.62,0,0,0-5.75,1.82l1.16,1.82a12.76,12.76,0,0,1,4.85-1.5A20.23,20.23,0,0,1,784.46,377.15Z" transform="translate(-1.54 -31)" fill="#fff9ff"/></g><g id="Grupo_103" data-name="Grupo 103"><path id="Trazado_120" data-name="Trazado 120" d="M742.43,377.53a21.29,21.29,0,0,1,4.4,1l-.71,2c-.06,0-1-.29-3.79-.95Z" transform="translate(-1.54 -31)" fill="#fff9ff"/></g></g></g></g></g><rect id="Rectángulo_9" data-name="Rectángulo 9" x="694.95" y="495.89" width="177.97" height="41.98" rx="3.39" opacity="0.4" style="isolation:isolate"/><g id="Grupo_109" data-name="Grupo 109"><circle id="Elipse_7" data-name="Elipse 7" cx="740.92" cy="519.24" r="12.85" fill="#fff" opacity="0.8" style="isolation:isolate"/><circle id="Elipse_8" data-name="Elipse 8" cx="784.43" cy="519.24" r="12.85" fill="#f43853"/><circle id="Elipse_9" data-name="Elipse 9" cx="826.94" cy="519.24" r="12.85" fill="#fff" opacity="0.8" style="isolation:isolate"/><g id="Grupo_108" data-name="Grupo 108"><path id="Trazado_121" data-name="Trazado 121" d="M741.19,545.38a1.43,1.43,0,1,1-1.43,1.43h0A1.43,1.43,0,0,1,741.19,545.38Z" transform="translate(-1.54 -31)" fill="#454545"/><path id="Trazado_122" data-name="Trazado 122" d="M749.43,553H735.48l3.24-3.56,2.21,2.24,4.13-3.83Z" transform="translate(-1.54 -31)" fill="#454545"/></g><path id="Trazado_123" data-name="Trazado 123" d="M786,549.71s-2.29-.13-2.58.44c-.42.85.06,2.74-2.67,2.58s-1.82-2.46-1.51-3.12.85-1.87,6.76-1.87,6.45,1.2,6.76,1.87,1.22,3-1.51,3.12-2.25-1.73-2.68-2.58C788.26,549.58,786,549.71,786,549.71Z" transform="translate(-1.54 -31)" fill="#fff"/><rect id="Rectángulo_10" data-name="Rectángulo 10" x="820.64" y="514.56" width="12.61" height="8.47" fill="#454545"/><path id="Trazado_124" data-name="Trazado 124" d="M832,557v-3.78l-3.35.57Z" transform="translate(-1.54 -31)" fill="#454545"/><rect id="Rectángulo_11" data-name="Rectángulo 11" x="822.22" y="516.69" width="9.45" height="1.44" fill="#fff"/><rect id="Rectángulo_12" data-name="Rectángulo 12" x="822.22" y="519.66" width="5.02" height="1.44" fill="#fff"/></g></g><g id="Grupo_119" data-name="Grupo 119"><g id="Grupo_115" data-name="Grupo 115"><g id="Grupo_111" data-name="Grupo 111"><path id="Trazado_125" data-name="Trazado 125" d="M188.43,403.42a1.87,1.87,0,0,1-1.87-1.87v-3.72a1.87,1.87,0,0,1,3.73-.09v3.81a1.87,1.87,0,0,1-1.86,1.87Z" transform="translate(-1.54 -31)" fill="#a299ff"/></g><g id="Grupo_112" data-name="Grupo 112"><path id="Trazado_126" data-name="Trazado 126" d="M188.43,621.18a1.86,1.86,0,0,1-1.86-1.86v-7.51a1.86,1.86,0,0,1,3.72,0v7.51a1.86,1.86,0,0,1-1.86,1.86Zm0-15.55a1.87,1.87,0,0,1-1.87-1.87h0v-7.51a1.87,1.87,0,0,1,3.73,0v7.51a1.87,1.87,0,0,1-1.86,1.87Zm0-15.56a1.87,1.87,0,0,1-1.87-1.86h0V580.7a1.87,1.87,0,1,1,3.73-.09v7.6a1.86,1.86,0,0,1-1.86,1.86Zm0-15.55a1.87,1.87,0,0,1-1.87-1.87h0v-7.5a1.87,1.87,0,1,1,3.73-.09v7.59a1.87,1.87,0,0,1-1.86,1.87Zm0-15.56a1.87,1.87,0,0,1-1.87-1.86h0v-7.51a1.87,1.87,0,1,1,3.73-.09v7.6a1.86,1.86,0,0,1-1.86,1.86Zm0-15.55a1.87,1.87,0,0,1-1.87-1.87h0V534a1.87,1.87,0,1,1,3.73-.09v7.59a1.87,1.87,0,0,1-1.86,1.87Zm0-15.56a1.87,1.87,0,0,1-1.87-1.86h0v-7.51a1.87,1.87,0,1,1,3.73-.09V526a1.86,1.86,0,0,1-1.86,1.86Zm0-15.55a1.87,1.87,0,0,1-1.87-1.87h0v-7.5a1.87,1.87,0,0,1,3.73-.09v7.59a1.87,1.87,0,0,1-1.86,1.87Zm0-15.56a1.87,1.87,0,0,1-1.87-1.86h0v-7.51a1.87,1.87,0,0,1,3.73-.09v7.6a1.86,1.86,0,0,1-1.86,1.86Zm0-15.55a1.87,1.87,0,0,1-1.87-1.86v-7.51a1.87,1.87,0,0,1,3.73-.09v7.6a1.86,1.86,0,0,1-1.86,1.86Zm0-15.56a1.87,1.87,0,0,1-1.87-1.86v-7.51a1.87,1.87,0,0,1,3.73-.09v7.6a1.86,1.86,0,0,1-1.86,1.86Zm0-15.55a1.86,1.86,0,0,1-1.86-1.86v-7.51a1.86,1.86,0,0,1,3.72,0v7.51a1.86,1.86,0,0,1-1.86,1.86Zm0-15.55a1.87,1.87,0,0,1-1.87-1.87h0v-7.51a1.87,1.87,0,0,1,3.73,0v7.51a1.87,1.87,0,0,1-1.86,1.87Zm0-15.56a1.87,1.87,0,0,1-1.87-1.86V409.6a1.87,1.87,0,0,1,3.73,0v7.51a1.86,1.86,0,0,1-1.86,1.86Z" transform="translate(-1.54 -31)" fill="#a299ff"/></g><g id="Grupo_113" data-name="Grupo 113"><path id="Trazado_127" data-name="Trazado 127" d="M192.15,633h-3.72a1.87,1.87,0,0,1-1.87-1.86v-3.73a1.87,1.87,0,0,1,3.73,0v1.87h1.86a1.86,1.86,0,0,1,0,3.72Z" transform="translate(-1.54 -31)" fill="#a299ff"/></g><g id="Grupo_114" data-name="Grupo 114"><path id="Trazado_128" data-name="Trazado 128" d="M302.18,629.23H294.6a1.86,1.86,0,1,0-.09,3.72h7.67a1.86,1.86,0,1,0,.09-3.72Z" transform="translate(-1.54 -31)" fill="#a299ff"/><path id="Trazado_129" data-name="Trazado 129" d="M286.47,629.23h-7.59a1.86,1.86,0,0,0,0,3.72h7.59a1.86,1.86,0,0,0,0-3.72Z" transform="translate(-1.54 -31)" fill="#a299ff"/><path id="Trazado_130" data-name="Trazado 130" d="M255,629.23h-7.59a1.86,1.86,0,0,0,0,3.72H255a1.86,1.86,0,0,0,0-3.72Z" transform="translate(-1.54 -31)" fill="#a299ff"/><path id="Trazado_131" data-name="Trazado 131" d="M207.87,629.23h-7.59a1.86,1.86,0,0,0-.08,3.72h7.67a1.86,1.86,0,1,0,.09-3.72Z" transform="translate(-1.54 -31)" fill="#a299ff"/><path id="Trazado_132" data-name="Trazado 132" d="M223.59,629.23H216a1.86,1.86,0,0,0,0,3.72h7.59a1.86,1.86,0,0,0,0-3.72Z" transform="translate(-1.54 -31)" fill="#a299ff"/><path id="Trazado_133" data-name="Trazado 133" d="M239.31,629.23h-7.59a1.86,1.86,0,0,0-.08,3.72h7.67a1.86,1.86,0,0,0,.08-3.72Z" transform="translate(-1.54 -31)" fill="#a299ff"/><path id="Trazado_134" data-name="Trazado 134" d="M270.75,629.23h-7.59a1.86,1.86,0,1,0-.09,3.72h7.68a1.86,1.86,0,0,0,.08-3.72Z" transform="translate(-1.54 -31)" fill="#a299ff"/><path id="Trazado_135" data-name="Trazado 135" d="M317.9,629.23h-7.59a1.86,1.86,0,0,0,0,3.72h7.59a1.86,1.86,0,0,0,0-3.72Z" transform="translate(-1.54 -31)" fill="#a299ff"/><path id="Trazado_136" data-name="Trazado 136" d="M396.5,629.23h-7.59a1.86,1.86,0,0,0-.09,3.72h7.68a1.86,1.86,0,0,0,.08-3.72Z" transform="translate(-1.54 -31)" fill="#a299ff"/><path id="Trazado_137" data-name="Trazado 137" d="M405.08,629.23h-.45a1.86,1.86,0,0,0,0,3.72h.45Z" transform="translate(-1.54 -31)" fill="#a299ff"/><path id="Trazado_138" data-name="Trazado 138" d="M380.78,629.23h-7.59a1.86,1.86,0,0,0,0,3.72h7.59a1.86,1.86,0,0,0,0-3.72Z" transform="translate(-1.54 -31)" fill="#a299ff"/><path id="Trazado_139" data-name="Trazado 139" d="M365.06,629.23h-7.59a1.86,1.86,0,0,0-.08,3.72h7.67a1.86,1.86,0,1,0,.09-3.72Z" transform="translate(-1.54 -31)" fill="#a299ff"/><path id="Trazado_140" data-name="Trazado 140" d="M333.62,629.23H326A1.86,1.86,0,0,0,326,633h7.67a1.86,1.86,0,1,0,.09-3.72Z" transform="translate(-1.54 -31)" fill="#a299ff"/><path id="Trazado_141" data-name="Trazado 141" d="M349.34,629.23h-7.59a1.86,1.86,0,0,0,0,3.72h7.59a1.86,1.86,0,0,0,0-3.72Z" transform="translate(-1.54 -31)" fill="#a299ff"/></g></g><g id="Grupo_116" data-name="Grupo 116"><path id="Trazado_142" data-name="Trazado 142" d="M790.18,221.22a1.87,1.87,0,0,1-1.86-1.87h0V211.9a1.86,1.86,0,1,1,3.72-.08.11.11,0,0,1,0,.08v7.45A1.87,1.87,0,0,1,790.18,221.22Zm0-15.44a1.86,1.86,0,0,1-1.86-1.86h0v-7.45a1.86,1.86,0,0,1,3.72,0v7.45A1.86,1.86,0,0,1,790.18,205.78Zm0-15.43a1.87,1.87,0,0,1-1.86-1.87V181A1.86,1.86,0,1,1,792,181a.11.11,0,0,1,0,.08v7.45A1.87,1.87,0,0,1,790.18,190.35Zm0-15.44a1.86,1.86,0,0,1-1.86-1.86h0V165.6a1.86,1.86,0,0,1,3.72,0v7.45a1.86,1.86,0,0,1-1.86,1.86Zm0-15.43a1.87,1.87,0,0,1-1.86-1.87v-7.45a1.86,1.86,0,0,1,3.72,0v7.45a1.87,1.87,0,0,1-1.86,1.87Zm0-15.44a1.86,1.86,0,0,1-1.86-1.86v-7.45a1.86,1.86,0,1,1,3.72-.09.14.14,0,0,1,0,.09v7.45a1.86,1.86,0,0,1-1.86,1.86Zm0-15.43a1.87,1.87,0,0,1-1.86-1.87h0v-7.45a1.87,1.87,0,0,1,3.73,0v7.45a1.86,1.86,0,0,1-1.86,1.86h0Zm0-15.44a1.84,1.84,0,0,1-1.53-.81h-5.11a1.86,1.86,0,0,1,0-3.72h6.64a1.87,1.87,0,0,1,1.87,1.86h0v.81a1.87,1.87,0,0,1-1.87,1.86Zm-14.62-.81H768.1a1.86,1.86,0,1,1-.08-3.72h7.54a1.86,1.86,0,0,1,.08,3.72Zm-15.44,0h-7.45a1.86,1.86,0,1,1-.09-3.72h7.54a1.86,1.86,0,1,1,.09,3.72Zm-15.43,0h-7.46a1.86,1.86,0,0,1,0-3.72h7.46a1.86,1.86,0,0,1,0,3.72Zm-15.44,0H721.8a1.86,1.86,0,0,1,0-3.72h7.45a1.86,1.86,0,0,1,0,3.72Zm-15.43,0h-7.46a1.86,1.86,0,0,1,0-3.72h7.46a1.86,1.86,0,0,1,0,3.72Zm-15.44,0h-7.46a1.86,1.86,0,1,1-.08-3.72h7.54a1.86,1.86,0,0,1,0,3.72Zm-15.44,0h-7.45a1.86,1.86,0,1,1-.08-3.72h7.53a1.86,1.86,0,0,1,0,3.72Z" transform="translate(-1.54 -31)" fill="#a299ff"/></g><g id="Grupo_117" data-name="Grupo 117"><path id="Trazado_143" data-name="Trazado 143" d="M327.44,112.36H320a1.86,1.86,0,0,1-1.82-1.9,1.88,1.88,0,0,1,1.82-1.83h7.45a1.87,1.87,0,0,1,.09,3.73Zm-15.43,0h-7.45a1.87,1.87,0,0,1,0-3.73H312a1.87,1.87,0,0,1,.08,3.73Zm-15.44,0h-7.45a1.87,1.87,0,0,1,0-3.73h7.45a1.87,1.87,0,0,1,0,3.73Z" transform="translate(-1.54 -31)" fill="#a299ff"/></g><g id="Grupo_118" data-name="Grupo 118"><path id="Trazado_144" data-name="Trazado 144" d="M788.21,631.67h-7.45a1.86,1.86,0,1,1-.08-3.72h7.53a1.86,1.86,0,1,1,.09,3.72Zm-15.43,0h-7.45a1.86,1.86,0,0,1,0-3.72h7.45a1.86,1.86,0,0,1,0,3.72Zm-15.44,0h-7.45a1.86,1.86,0,0,1,0-3.72h7.45a1.86,1.86,0,0,1,0,3.72Zm-15.43,0h-7.45a1.86,1.86,0,1,1-.09-3.72h7.54a1.86,1.86,0,0,1,0,3.72Zm-15.44,0H719a1.86,1.86,0,0,1,0-3.72h7.45a1.86,1.86,0,0,1,0,3.72Zm-15.43,0h-7.45a1.86,1.86,0,1,1-.09-3.72H711a1.86,1.86,0,1,1,.08,3.72Zm-15.44,0h-7.45a1.86,1.86,0,0,1,0-3.72h7.45a1.86,1.86,0,0,1,0,3.72Zm-15.43,0h-7.45a1.86,1.86,0,0,1,0-3.72h7.45a1.86,1.86,0,1,1,.08,3.72Zm-15.44,0h-7.45a1.86,1.86,0,1,1-.09-3.72h7.54a1.86,1.86,0,0,1,0,3.72Zm-15.43,0h-7.46a1.86,1.86,0,0,1,0-3.72h7.46a1.86,1.86,0,0,1,0,3.72Zm-15.44,0h-7.45a1.86,1.86,0,0,1,0-3.72h7.45a1.86,1.86,0,0,1,0,3.72Zm156.32-6a1.87,1.87,0,0,1-1.86-1.86h0v-7.45a1.87,1.87,0,0,1,3.73,0v7.45a1.87,1.87,0,0,1-1.87,1.87Zm0-15.44a1.86,1.86,0,0,1-1.86-1.86h0v-7.45a1.87,1.87,0,1,1,3.73-.09v7.54a1.87,1.87,0,0,1-1.87,1.86Zm0-15.43a1.87,1.87,0,0,1-1.86-1.87v-7.45a1.87,1.87,0,0,1,3.73,0v7.45a1.88,1.88,0,0,1-1.87,1.87Zm0-15.44a1.86,1.86,0,0,1-1.86-1.86h0v-1.08a1.87,1.87,0,1,1,3.73-.09v1.17a1.87,1.87,0,0,1-1.87,1.86Z" transform="translate(-1.54 -31)" fill="#a299ff"/></g></g><g id="Grupo_147" data-name="Grupo 147"><g id="Grupo_129" data-name="Grupo 129"><g id="Grupo_126" data-name="Grupo 126"><g id="Grupo_120" data-name="Grupo 120"><path id="Trazado_145" data-name="Trazado 145" d="M7.16,409H4.78A1.18,1.18,0,0,1,3.6,407.8a1.14,1.14,0,0,1,.15-.6l1.19-2.05A1.19,1.19,0,0,1,7,406.33l-.16.28h.32a1.19,1.19,0,1,1,0,2.37Z" transform="translate(-1.54 -31)" fill="#ff495a"/></g><g id="Grupo_121" data-name="Grupo 121"><path id="Trazado_146" data-name="Trazado 146" d="M8.08,403.27a1.11,1.11,0,0,1-.59-.16,1.18,1.18,0,0,1-.44-1.62h0l2.11-3.65a1.19,1.19,0,0,1,1.65-.34,1.17,1.17,0,0,1,.4,1.52l-2.1,3.66A1.17,1.17,0,0,1,8.08,403.27ZM12.3,396a1.19,1.19,0,0,1-1.19-1.19,1.21,1.21,0,0,1,.16-.59l2.11-3.66a1.19,1.19,0,0,1,2.06,1.19l-2.11,3.66a1.19,1.19,0,0,1-1,.59Zm4.22-7.31a1.11,1.11,0,0,1-.59-.16,1.18,1.18,0,0,1-.44-1.62h0l2.11-3.66a1.19,1.19,0,0,1,2.09,1.14l0,0-2.11,3.66a1.17,1.17,0,0,1-1,.59Z" transform="translate(-1.54 -31)" fill="#ff495a"/></g><g id="Grupo_122" data-name="Grupo 122"><path id="Trazado_147" data-name="Trazado 147" d="M23.12,381.34a1.18,1.18,0,0,1-1-.59l-.16-.28-.16.28a1.18,1.18,0,0,1-1.62.43,1.19,1.19,0,0,1-.44-1.62h0l1.19-2.06a1.18,1.18,0,0,1,1.62-.43,1.07,1.07,0,0,1,.44.43l1.19,2.06a1.18,1.18,0,0,1-.44,1.62,1.11,1.11,0,0,1-.59.16Z" transform="translate(-1.54 -31)" fill="#ff495a"/></g><g id="Grupo_123" data-name="Grupo 123"><path id="Trazado_148" data-name="Trazado 148" d="M35.78,403.27a1.18,1.18,0,0,1-1-.59L32.64,399a1.19,1.19,0,1,1,2.06-1.18l2.11,3.65a1.18,1.18,0,0,1-.44,1.62,1.11,1.11,0,0,1-.59.16ZM31.56,396a1.18,1.18,0,0,1-1-.59l-2.11-3.66a1.19,1.19,0,0,1,2.06-1.19l2.11,3.66a1.18,1.18,0,0,1-.44,1.62,1.11,1.11,0,0,1-.59.16Zm-4.22-7.31a1.18,1.18,0,0,1-1-.59L24.2,384.4a1.19,1.19,0,0,1,2-1.24l0,0,2.11,3.66a1.18,1.18,0,0,1-.44,1.62A1.11,1.11,0,0,1,27.34,388.65Z" transform="translate(-1.54 -31)" fill="#ff495a"/></g><g id="Grupo_124" data-name="Grupo 124"><path id="Trazado_149" data-name="Trazado 149" d="M39.08,409H36.7a1.19,1.19,0,1,1,0-2.37H37l-.16-.28a1.19,1.19,0,1,1,2.06-1.18l1.19,2.05a1.19,1.19,0,0,1-.44,1.62A1.11,1.11,0,0,1,39.08,409Z" transform="translate(-1.54 -31)" fill="#ff495a"/></g><g id="Grupo_125" data-name="Grupo 125"><path id="Trazado_150" data-name="Trazado 150" d="M32.48,409H28.26a1.19,1.19,0,0,1,0-2.37h4.23a1.19,1.19,0,1,1,0,2.37ZM24,409H19.82a1.19,1.19,0,0,1,0-2.37H24a1.19,1.19,0,1,1,0,2.37Zm-8.44,0H11.38a1.19,1.19,0,0,1,0-2.37H15.6a1.19,1.19,0,1,1,0,2.37Z" transform="translate(-1.54 -31)" fill="#ff495a"/></g></g><g id="Grupo_127" data-name="Grupo 127"><path id="Trazado_151" data-name="Trazado 151" d="M65.81,454.09h-.17a17.7,17.7,0,0,1-4.87-1.43,1.19,1.19,0,0,1,1-2.16A15.16,15.16,0,0,0,66,451.72a1.19,1.19,0,0,1-.17,2.37Zm4.73,0a1.19,1.19,0,0,1-.16-2.37,15,15,0,0,0,4.21-1.23,1.19,1.19,0,1,1,1,2.16h0a17.5,17.5,0,0,1-4.87,1.43Zm8.53-3.89a1.19,1.19,0,0,1-.78-2.09,15.74,15.74,0,0,0,2.88-3.32,1.19,1.19,0,1,1,2,1.28h0a18.17,18.17,0,0,1-3.32,3.84,1.23,1.23,0,0,1-.78.29Zm-21.78,0a1.21,1.21,0,0,1-.78-.29,17.93,17.93,0,0,1-3.33-3.84,1.19,1.19,0,0,1,.36-1.64,1.17,1.17,0,0,1,1.64.36h0a15.74,15.74,0,0,0,2.88,3.32,1.18,1.18,0,0,1,.12,1.67,1.11,1.11,0,0,1-.89.41Zm26.85-7.89A1.19,1.19,0,0,1,83,441.12a1.26,1.26,0,0,1,0-.33,15.61,15.61,0,0,0,.62-4.35,1.19,1.19,0,0,1,2.38,0h0a17.76,17.76,0,0,1-.72,5,1.18,1.18,0,0,1-1.14.85Zm-31.93,0a1.17,1.17,0,0,1-1.13-.85,17.76,17.76,0,0,1-.72-5,1.19,1.19,0,1,1,2.37,0h0a15.21,15.21,0,0,0,.63,4.35,1.2,1.2,0,0,1-.82,1.48,1.14,1.14,0,0,1-.33.05Zm31.93-9.37a1.18,1.18,0,0,1-1.14-.85,15.24,15.24,0,0,0-1.83-4,1.19,1.19,0,0,1,2-1.29,17.58,17.58,0,0,1,2.12,4.62,1.19,1.19,0,0,1-.81,1.47,1,1,0,0,1-.34.05Zm-31.92,0a1,1,0,0,1-.34,0,1.2,1.2,0,0,1-.81-1.48h0a17.49,17.49,0,0,1,2.11-4.61,1.19,1.19,0,1,1,2,1.28,15.24,15.24,0,0,0-1.83,4,1.2,1.2,0,0,1-1.14.85Zm26.85-7.88a1.18,1.18,0,0,1-.78-.29,15.8,15.8,0,0,0-3.7-2.38,1.18,1.18,0,0,1-.59-1.57,1.2,1.2,0,0,1,1.58-.59A17.8,17.8,0,0,1,79.85,423a1.2,1.2,0,0,1,.12,1.67,1.21,1.21,0,0,1-.9.41Zm-21.78,0a1.17,1.17,0,0,1-1.19-1.18,1.21,1.21,0,0,1,.41-.9,17.74,17.74,0,0,1,4.26-2.75,1.19,1.19,0,1,1,1,2.16h0a16,16,0,0,0-3.7,2.38,1.1,1.1,0,0,1-.77.28Zm13.26-3.89h-.17a15.44,15.44,0,0,0-4.4,0,1.19,1.19,0,0,1-.34-2.36,18.71,18.71,0,0,1,5.07,0,1.2,1.2,0,0,1,1,1.35,1.18,1.18,0,0,1-1.17,1Z" transform="translate(-1.54 -31)" fill="#6b5efd"/></g><g id="Grupo_128" data-name="Grupo 128"><path id="Trazado_152" data-name="Trazado 152" d="M34.75,353.44h-.17A17.6,17.6,0,0,1,29.71,352a1.19,1.19,0,1,1,1-2.16,15.35,15.35,0,0,0,4.21,1.24,1.19,1.19,0,0,1-.16,2.36Zm4.73,0a1.19,1.19,0,0,1-.17-2.36,15.52,15.52,0,0,0,4.22-1.24,1.19,1.19,0,0,1,1,2.16,17.7,17.7,0,0,1-4.87,1.43ZM48,349.55a1.19,1.19,0,0,1-.77-2.09,15.5,15.5,0,0,0,2.88-3.32,1.19,1.19,0,1,1,2,1.29,17.64,17.64,0,0,1-3.33,3.83,1.16,1.16,0,0,1-.78.29Zm-21.78,0a1.23,1.23,0,0,1-.78-.29,18.37,18.37,0,0,1-3.32-3.83,1.19,1.19,0,1,1,2-1.29A15.5,15.5,0,0,0,27,347.46a1.19,1.19,0,0,1,.12,1.68,1.21,1.21,0,0,1-.9.41Zm26.86-7.88a1.27,1.27,0,0,1-.34-.05,1.2,1.2,0,0,1-.81-1.48h0a15.26,15.26,0,0,0,.63-4.35,1.19,1.19,0,1,1,2.37,0,18.12,18.12,0,0,1-.71,5,1.18,1.18,0,0,1-1.14.85Zm-31.93,0a1.2,1.2,0,0,1-1.14-.86,17.76,17.76,0,0,1-.72-5,1.19,1.19,0,0,1,2.38,0h0a15.61,15.61,0,0,0,.62,4.35,1.2,1.2,0,0,1-.81,1.48,1.26,1.26,0,0,1-.33.05Zm31.93-9.37a1.21,1.21,0,0,1-1.15-.86,15.21,15.21,0,0,0-1.82-4,1.19,1.19,0,0,1,2-1.29,17.88,17.88,0,0,1,2.11,4.62,1.19,1.19,0,0,1-.81,1.47,1,1,0,0,1-.33.05Zm-31.93,0A1.2,1.2,0,0,1,20,331.1a1.26,1.26,0,0,1,.05-.33,17.82,17.82,0,0,1,2.11-4.61,1.19,1.19,0,1,1,2,1.28,15.57,15.57,0,0,0-1.83,4,1.18,1.18,0,0,1-1.14.85ZM48,324.41a1.15,1.15,0,0,1-.77-.29,16,16,0,0,0-3.7-2.38,1.19,1.19,0,0,1,1-2.16,17.61,17.61,0,0,1,4.27,2.75A1.19,1.19,0,0,1,48.9,324a1.24,1.24,0,0,1-.9.4Zm-21.78,0A1.19,1.19,0,0,1,25,323.22a1.17,1.17,0,0,1,.41-.89,17.8,17.8,0,0,1,4.27-2.75,1.19,1.19,0,0,1,1,2.16,15.59,15.59,0,0,0-3.7,2.38,1.18,1.18,0,0,1-.78.29Zm13.26-3.89h-.17a15.44,15.44,0,0,0-4.4,0,1.19,1.19,0,0,1-.37-2.35h0a17.94,17.94,0,0,1,5.07,0,1.19,1.19,0,0,1-.17,2.36Z" transform="translate(-1.54 -31)" fill="#fda803"/></g></g><g id="Grupo_140" data-name="Grupo 140"><g id="Grupo_137" data-name="Grupo 137"><g id="Grupo_136" data-name="Grupo 136"><g id="Grupo_130" data-name="Grupo 130"><path id="Trazado_153" data-name="Trazado 153" d="M848.34,74.09h2.38a1.19,1.19,0,0,0,1.19-1.19,1.21,1.21,0,0,0-.16-.59l-1.19-2.06a1.19,1.19,0,1,0-2.06,1.19h0l.16.27h-.32a1.19,1.19,0,0,0,0,2.38Z" transform="translate(-1.54 -31)" fill="#fda803"/></g><g id="Grupo_131" data-name="Grupo 131"><path id="Trazado_154" data-name="Trazado 154" d="M846.39,67.78l-2.11-3.65a1.19,1.19,0,1,1,2.06-1.19h0l2.11,3.65a1.19,1.19,0,1,1-2.06,1.19Zm-4.22-7.31-2.11-3.65a1.19,1.19,0,1,1,2.06-1.19h0l2.11,3.65a1.2,1.2,0,0,1-.44,1.63A1.18,1.18,0,0,1,842.17,60.47ZM838,53.16l-2.11-3.65a1.19,1.19,0,1,1,2.06-1.19L840,52A1.19,1.19,0,1,1,838,53.16Z" transform="translate(-1.54 -31)" fill="#fda803"/></g><g id="Grupo_132" data-name="Grupo 132"><path id="Trazado_155" data-name="Trazado 155" d="M832.38,46.45a1.18,1.18,0,0,0,1-.6l.16-.27.16.27a1.19,1.19,0,1,0,2.06-1.19l-1.19-2a1.19,1.19,0,0,0-1.63-.44,1.21,1.21,0,0,0-.43.44l-1.19,2a1.19,1.19,0,0,0,.44,1.63,1.21,1.21,0,0,0,.59.16Z" transform="translate(-1.54 -31)" fill="#fda803"/></g><g id="Grupo_133" data-name="Grupo 133"><path id="Trazado_156" data-name="Trazado 156" d="M819.13,68.22a1.19,1.19,0,0,1-.44-1.62h0l2.11-3.65a1.19,1.19,0,1,1,2.06,1.19h0l-2.11,3.65a1.17,1.17,0,0,1-1.61.44Zm4.22-7.31a1.19,1.19,0,0,1-.44-1.63h0L825,55.63a1.19,1.19,0,1,1,2.06,1.19h0L825,60.47a1.18,1.18,0,0,1-1,.6A1.21,1.21,0,0,1,823.35,60.91Zm4.22-7.31a1.19,1.19,0,0,1-.44-1.62h0l2.11-3.65a1.19,1.19,0,1,1,2.06,1.19h0l-2.11,3.65a1.19,1.19,0,0,1-1.62.44Z" transform="translate(-1.54 -31)" fill="#fda803"/></g><g id="Grupo_134" data-name="Grupo 134"><path id="Trazado_157" data-name="Trazado 157" d="M816.42,74.09h2.38a1.19,1.19,0,1,0,0-2.38h-.32l.16-.27a1.19,1.19,0,1,0-2.06-1.19h0l-1.19,2.06a1.18,1.18,0,0,0,.44,1.62,1.11,1.11,0,0,0,.59.16Z" transform="translate(-1.54 -31)" fill="#fda803"/></g><g id="Grupo_135" data-name="Grupo 135"><path id="Trazado_158" data-name="Trazado 158" d="M821.83,72.91A1.19,1.19,0,0,1,823,71.72h4.22a1.19,1.19,0,1,1,0,2.37H823A1.18,1.18,0,0,1,821.83,72.91Zm8.44,0a1.19,1.19,0,0,1,1.19-1.19h4.22a1.19,1.19,0,1,1,0,2.37h-4.22a1.18,1.18,0,0,1-1.19-1.18Zm8.44,0a1.19,1.19,0,0,1,1.19-1.19h4.22a1.19,1.19,0,1,1,0,2.37H839.9a1.18,1.18,0,0,1-1.19-1.18Z" transform="translate(-1.54 -31)" fill="#fda803"/></g></g></g><g id="Grupo_138" data-name="Grupo 138"><path id="Trazado_159" data-name="Trazado 159" d="M768.75,68.81a1.19,1.19,0,0,1,1-1.34A15.52,15.52,0,0,0,774,66.23a1.19,1.19,0,0,1,1,2.16,17.7,17.7,0,0,1-4.87,1.43h-.17A1.2,1.2,0,0,1,768.75,68.81Zm-3.72,1a17.6,17.6,0,0,1-4.87-1.43,1.19,1.19,0,1,1,1-2.16,15,15,0,0,0,4.21,1.23,1.19,1.19,0,1,1-.3,2.36Zm-9.14-4.18a17.87,17.87,0,0,1-3.32-3.83,1.19,1.19,0,0,1,2-1.29,15.79,15.79,0,0,0,2.88,3.33,1.19,1.19,0,0,1-1.55,1.8h0Zm21.67-.12a1.19,1.19,0,0,1,.11-1.67h0a16,16,0,0,0,2.88-3.32,1.17,1.17,0,0,1,1.64-.36,1.19,1.19,0,0,1,.36,1.64h0a17.64,17.64,0,0,1-3.33,3.83,1.19,1.19,0,0,1-1.67-.11Zm-27.1-8.32a17.76,17.76,0,0,1-.72-5,1.19,1.19,0,0,1,2.38,0,15.25,15.25,0,0,0,.62,4.35,1.19,1.19,0,0,1-.81,1.47A1.17,1.17,0,0,1,750.46,57.2Zm32.73.8a1.2,1.2,0,0,1-.81-1.48,14.86,14.86,0,0,0,.62-4.35,1.19,1.19,0,1,1,2.38,0,17.76,17.76,0,0,1-.72,5,1.18,1.18,0,0,1-1.46.81Zm-31.93-9.37a1.19,1.19,0,0,1-.8-1.48,17.82,17.82,0,0,1,2.11-4.61,1.19,1.19,0,1,1,2,1.29,15,15,0,0,0-1.83,4,1.19,1.19,0,0,1-1.14.85,1.26,1.26,0,0,1-.33,0Zm31.12-.81a15.1,15.1,0,0,0-1.83-4,1.19,1.19,0,0,1,2-1.29,17.24,17.24,0,0,1,2.11,4.62,1.18,1.18,0,0,1-.78,1.48,1.19,1.19,0,0,1-1.49-.79v0Zm-26.61-7.44a1.18,1.18,0,0,1,.12-1.67h0A17.74,17.74,0,0,1,760.15,36a1.19,1.19,0,1,1,1,2.16h0a15.48,15.48,0,0,0-3.7,2.38,1.18,1.18,0,0,1-1.67-.12Zm21.9.12a15.18,15.18,0,0,0-3.7-2.38A1.19,1.19,0,1,1,775,36a18,18,0,0,1,4.26,2.74,1.19,1.19,0,1,1-1.55,1.8ZM764,35.87a1.19,1.19,0,0,1,1-1.34,18.71,18.71,0,0,1,5.07,0,1.19,1.19,0,0,1,1,1.36,1.17,1.17,0,0,1-1.32,1,16.21,16.21,0,0,0-4.4,0l-.17,0a1.2,1.2,0,0,1-1.17-1Z" transform="translate(-1.54 -31)" fill="#766aff"/></g><g id="Grupo_139" data-name="Grupo 139"><path id="Trazado_160" data-name="Trazado 160" d="M841.34,145a1.19,1.19,0,0,1,1-1.34h0a15.52,15.52,0,0,0,4.22-1.24,1.19,1.19,0,1,1,1,2.16h0a17.6,17.6,0,0,1-4.87,1.43,1.19,1.19,0,0,1-1.34-1Zm-3.73,1a17.54,17.54,0,0,1-4.86-1.43,1.19,1.19,0,1,1,1-2.16,15.16,15.16,0,0,0,4.22,1.23,1.19,1.19,0,0,1-.17,2.37Zm-9.13-4.18a17.87,17.87,0,0,1-3.32-3.83,1.19,1.19,0,1,1,2-1.28,15.74,15.74,0,0,0,2.88,3.32,1.19,1.19,0,1,1-1.56,1.79Zm21.66-.11a1.2,1.2,0,0,1,.12-1.68h0a15.19,15.19,0,0,0,2.88-3.32,1.19,1.19,0,1,1,2,1.28,17.87,17.87,0,0,1-3.32,3.83,1.18,1.18,0,0,1-1.67-.11ZM823,133.41a18.12,18.12,0,0,1-.71-5,1.19,1.19,0,1,1,2.37,0h0a15.61,15.61,0,0,0,.62,4.35,1.19,1.19,0,1,1-2.27.69v0Zm32.74.8a1.19,1.19,0,0,1-.81-1.47h0a15.61,15.61,0,0,0,.62-4.35,1.19,1.19,0,1,1,2.38,0,17.82,17.82,0,0,1-.72,5,1.19,1.19,0,0,1-1.14.85,1.26,1.26,0,0,1-.33,0Zm-31.93-9.37a1.17,1.17,0,0,1-.8-1.47,17.88,17.88,0,0,1,2.11-4.62,1.19,1.19,0,0,1,2,1.29,15.24,15.24,0,0,0-1.83,4,1.2,1.2,0,0,1-1.48.81ZM855,124a15.57,15.57,0,0,0-1.83-4,1.19,1.19,0,1,1,2-1.28,17.82,17.82,0,0,1,2.11,4.61,1.18,1.18,0,1,1-2.26.71l0,0Zm-26.61-7.43a1.2,1.2,0,0,1,.11-1.68,18,18,0,0,1,4.27-2.74,1.19,1.19,0,0,1,1,2.16,15.18,15.18,0,0,0-3.7,2.38,1.18,1.18,0,0,1-1.67-.12h0Zm21.9.11a15.65,15.65,0,0,0-3.7-2.37,1.19,1.19,0,0,1,1-2.17h0a17.91,17.91,0,0,1,4.27,2.75,1.19,1.19,0,0,1-1.56,1.79Zm-13.66-4.62a1.19,1.19,0,0,1,1-1.34,17.94,17.94,0,0,1,5.07,0,1.18,1.18,0,1,1-.3,2.35h0a15.44,15.44,0,0,0-4.4,0,1.19,1.19,0,0,1-1.34-1Z" transform="translate(-1.54 -31)" fill="#ff495a"/></g></g><g id="Grupo_142" data-name="Grupo 142"><path id="Trazado_161" data-name="Trazado 161" d="M490.89,388.3l26.43-2.83A41.51,41.51,0,1,0,496,366.73l-8,19.18a2.06,2.06,0,0,0,1.48,2.52A2,2,0,0,0,490.89,388.3Z" transform="translate(-1.54 -31)" fill="#ff495a"/><g id="Grupo_141" data-name="Grupo 141"><circle id="Elipse_10" data-name="Elipse 10" cx="512.3" cy="315.98" r="5.85" fill="#e21c47"/><circle id="Elipse_11" data-name="Elipse 11" cx="531.73" cy="315.98" r="5.85" fill="#e21c47"/><path id="Trazado_162" data-name="Trazado 162" d="M558.54,347a5.85,5.85,0,1,1-5.85-5.85,5.85,5.85,0,0,1,5.85,5.85Z" transform="translate(-1.54 -31)" fill="#e21c47"/></g></g></g><g id="Grupo_183" data-name="Grupo 183"><g id="Grupo_151" data-name="Grupo 151"><rect id="Rectángulo_14" data-name="Rectángulo 14" x="323.04" width="350.91" height="235.76" rx="3.3" fill="#2e3062"/><path id="Trazado_165" data-name="Trazado 165" d="M666.19,47.26V250.5a6.84,6.84,0,0,1-6.84,6.84H340.72a6.6,6.6,0,0,1-2.37-.44,6.82,6.82,0,0,1-4.46-6.4V47.26a6.84,6.84,0,0,1,6.83-6.84H659.35a6.74,6.74,0,0,1,2.58.51A6.84,6.84,0,0,1,666.19,47.26Z" transform="translate(-1.54 -31)" fill="#fff9ff"/><g id="Grupo_150" data-name="Grupo 150"><path id="Trazado_166" data-name="Trazado 166" d="M666.19,47.25V57.37H333.89V47.25a6.83,6.83,0,0,1,6.83-6.83H659.35a6.83,6.83,0,0,1,6.84,6.83Z" transform="translate(-1.54 -31)" fill="#dadaef"/><path id="Trazado_167" data-name="Trazado 167" d="M378.93,49h0a2.24,2.24,0,0,0,2.24,2.24H605.62A2.24,2.24,0,0,0,607.86,49h0a2.24,2.24,0,0,0-2.24-2.24H381.17A2.24,2.24,0,0,0,378.93,49Z" transform="translate(-1.54 -31)" fill="#fff9ff"/><g id="Grupo_148" data-name="Grupo 148"><path id="Trazado_168" data-name="Trazado 168" d="M353.34,49v1.66a.62.62,0,0,1-.62.62.68.68,0,0,1-.31-.08L351,50.4l-1.44-.83a.62.62,0,0,1-.23-.85.72.72,0,0,1,.23-.23l1.44-.83,1.43-.83a.62.62,0,0,1,.85.23.65.65,0,0,1,.08.31Z" transform="translate(-1.54 -31)" fill="#2e3062"/><path id="Trazado_169" data-name="Trazado 169" d="M360.83,49v1.66a.62.62,0,0,0,.62.62.68.68,0,0,0,.31-.08l1.43-.83,1.44-.83a.62.62,0,0,0,.23-.85.72.72,0,0,0-.23-.23l-1.44-.83-1.43-.83a.62.62,0,0,0-.85.23.65.65,0,0,0-.08.31Z" transform="translate(-1.54 -31)" fill="#2e3062"/></g><g id="Grupo_149" data-name="Grupo 149"><circle id="Elipse_12" data-name="Elipse 12" cx="635.26" cy="17.9" r="3.32" fill="#6b5efd"/><circle id="Elipse_13" data-name="Elipse 13" cx="622.98" cy="17.9" r="3.32" fill="#fda803"/><circle id="Elipse_14" data-name="Elipse 14" cx="647.54" cy="17.9" r="3.32" fill="#ff495a"/></g></g></g><g id="Grupo_165" data-name="Grupo 165"><g id="Grupo_153" data-name="Grupo 153"><path id="Trazado_170" data-name="Trazado 170" d="M635.15,257.39a3.68,3.68,0,0,0,2.67-1.11h0a8.51,8.51,0,0,0,2.59-5.58v-.09c0-13.87,17-12.94,22.47-29.9s-16.15-18.38-28.5-7.91c-8.88,7.53-19.54-3-32.44,5.79-11.2,7.62-5,26.39-23.34,20.52-5.87-1.88-11.13-.07-15.56,3.26a26.31,26.31,0,0,0-9.82,15h81.92Z" transform="translate(-1.54 -31)" fill="#f68601"/><g id="Grupo_152" data-name="Grupo 152"><path id="Trazado_171" data-name="Trazado 171" d="M594.19,257.39l46.45-29.82a1.39,1.39,0,1,0-1.5-2.33h0l-50.08,32.15Z" transform="translate(-1.54 -31)" fill="#e65913"/></g></g><g id="Grupo_156" data-name="Grupo 156"><path id="Trazado_172" data-name="Trazado 172" d="M439.52,233.47c3.18-2.36,6.3-4.8,9.26-7.44-3.55-17.2-8.69-48.53-6.07-76.09,4.16-43.67-14.64-51.55-25.4-42-34.93,30.87,20.83,125.53,20.83,125.53Z" transform="translate(-1.54 -31)" fill="#f68601"/><g id="Grupo_155" data-name="Grupo 155"><g id="Grupo_154" data-name="Grupo 154"><path id="Trazado_173" data-name="Trazado 173" d="M443,230.82l1.57-1.24c-8.75-21.77-13.27-44.69-15.58-61a297.09,297.09,0,0,1-3-35.37,1,1,0,0,0-1.93,0,298.69,298.69,0,0,0,3,35.59C429.43,185.37,434.05,208.71,443,230.82Z" transform="translate(-1.54 -31)" fill="#e65913"/></g></g></g><g id="Grupo_159" data-name="Grupo 159"><path id="Trazado_174" data-name="Trazado 174" d="M450.78,253.08c0-2.77-.09-5.55-.29-8.32-15.81-7.66-43.79-22.67-64-41.53-32.12-29.9-49.81-19.78-48.83-5.47,2.2,31.86,54.06,48.19,86.51,55.32Z" transform="translate(-1.54 -31)" fill="#f68601"/><g id="Grupo_158" data-name="Grupo 158"><g id="Grupo_157" data-name="Grupo 157"><path id="Trazado_175" data-name="Trazado 175" d="M450.77,252.26c0-.67,0-1.34,0-2-22.6-6.33-43.53-16.7-57.89-24.82A296.53,296.53,0,0,1,363,206.3a1,1,0,0,0-1.17,1.53,299.74,299.74,0,0,0,30.08,19.27C406.46,235.34,427.78,245.89,450.77,252.26Z" transform="translate(-1.54 -31)" fill="#e65913"/></g></g></g><g id="Grupo_162" data-name="Grupo 162"><path id="Trazado_176" data-name="Trazado 176" d="M456,253.08l3.25-1.2s-39.54-51.7-57-107.95c-18.78-60.68-48.29-60.73-57.37-42-25.48,52.49,66.18,130.91,91.48,151.2Z" transform="translate(-1.54 -31)" fill="#fda803"/><g id="Grupo_161" data-name="Grupo 161"><g id="Grupo_160" data-name="Grupo 160"><path id="Trazado_177" data-name="Trazado 177" d="M449,253.08h4c-25.61-25-45.79-55-58.62-76.65a430.09,430.09,0,0,1-23.74-45.58,1.39,1.39,0,0,0-2.56,1.1A432.73,432.73,0,0,0,392,177.82C404.54,199,424.16,228.25,449,253.08Z" transform="translate(-1.54 -31)" fill="#f68601"/></g></g></g><g id="Grupo_164" data-name="Grupo 164"><path id="Trazado_178" data-name="Trazado 178" d="M594.1,257.34a34.78,34.78,0,0,0-.79-6.51c-4.5-20.59,7.74-24.47,23.87-31s18-25.81,6.62-41.86,9.1-28.95,1.54-53.1-33.8-8.09-39.54,14.18c-4.12,16-25.11,12.55-32.88,33.31-6.74,18,15.88,34.67-10.25,42.93-8.34,2.64-13,9-15.37,16.54a37.34,37.34,0,0,0,.94,25.48Z" transform="translate(-1.54 -31)" fill="#fda803"/><g id="Grupo_163" data-name="Grupo 163"><path id="Trazado_179" data-name="Trazado 179" d="M562.15,257.34l43-106.23a2,2,0,0,0-3.65-1.48L557.9,257.34Z" transform="translate(-1.54 -31)" fill="#f68601"/></g></g></g><g id="Grupo_180" data-name="Grupo 180"><g id="Grupo_179" data-name="Grupo 179"><g id="Grupo_178" data-name="Grupo 178"><path id="Trazado_180" data-name="Trazado 180" d="M431.24,257.34l-2.67-39.9a367,367,0,0,0-25.15,39.9Z" transform="translate(-1.54 -31)" fill="#542bd8"/><path id="Trazado_181" data-name="Trazado 181" d="M597,257.34a382.6,382.6,0,0,0-23.87-40.82l-4.43,40.82Z" transform="translate(-1.54 -31)" fill="#542bd8"/><g id="Grupo_167" data-name="Grupo 167"><path id="Trazado_182" data-name="Trazado 182" d="M568.91,257.34l4.2-40.82a196.24,196.24,0,0,0-61.91-15.15c-31.14-2.24-50.8,2.89-82.63,16.07l2.67,39.9Z" transform="translate(-1.54 -31)" fill="#6b5efd"/><g id="Grupo_166" data-name="Grupo 166"><path id="Trazado_183" data-name="Trazado 183" d="M470.82,246.61c29-3.4,56.06-23.35,57.29-24.27a1.63,1.63,0,0,0,.33-2.27,1.62,1.62,0,0,0-2.27-.33c-.32.24-32.11,23.69-62.7,24.11a1.62,1.62,0,1,0,0,3.24A71.37,71.37,0,0,0,470.82,246.61Z" transform="translate(-1.54 -31)" fill="#542bd8"/></g></g><g id="Grupo_177" data-name="Grupo 177"><path id="Trazado_184" data-name="Trazado 184" d="M539.69,79.49s18.72,29,16.67,59.19,2.75,65.07-24.27,63.53-75.22,10.84-90.54-12.68S539.69,79.49,539.69,79.49Z" transform="translate(-1.54 -31)" fill="#2e3062"/><path id="Trazado_185" data-name="Trazado 185" d="M546.63,132.8s4.85,43.78-15.92,55.83-35.8-1.4-35.8-1.4S538.69,126.21,546.63,132.8Z" transform="translate(-1.54 -31)" fill="#000b29"/><g id="Grupo_176" data-name="Grupo 176"><g id="Grupo_170" data-name="Grupo 170"><path id="Trazado_186" data-name="Trazado 186" d="M460.34,132.6s-7.46-9.95-13-1.72,2.3,32.51,15.88,26.58Z" transform="translate(-1.54 -31)" fill="#fa8465"/><g id="Grupo_168" data-name="Grupo 168"><path id="Trazado_187" data-name="Trazado 187" d="M460.25,150a1.13,1.13,0,0,1-1.1-.84c-2.1-7.5-9.88-10.53-9.95-10.56a1.15,1.15,0,0,1,.81-2.15c.36.14,8.92,3.46,11.35,12.1a1.15,1.15,0,0,1-.8,1.41,1.06,1.06,0,0,1-.31,0Z" transform="translate(-1.54 -31)" fill="#fa664d"/></g><g id="Grupo_169" data-name="Grupo 169"><path id="Trazado_188" data-name="Trazado 188" d="M452.41,146.17a1,1,0,0,1-.62-.18,1.14,1.14,0,0,1-.35-1.58,10.45,10.45,0,0,1,4.31-3.48,1.15,1.15,0,0,1,.93,2.1,8.32,8.32,0,0,0-3.31,2.62A1.1,1.1,0,0,1,452.41,146.17Z" transform="translate(-1.54 -31)" fill="#fa664d"/></g></g><g id="Grupo_173" data-name="Grupo 173"><path id="Trazado_189" data-name="Trazado 189" d="M537.21,132.6s7.46-9.95,13-1.72-2.3,32.51-15.87,26.58Z" transform="translate(-1.54 -31)" fill="#fa8465"/><g id="Grupo_171" data-name="Grupo 171"><path id="Trazado_190" data-name="Trazado 190" d="M537.31,150a1.14,1.14,0,0,0,1.1-.84c2.1-7.5,9.87-10.53,10-10.56a1.15,1.15,0,0,0-.82-2.15c-.36.14-8.92,3.46-11.35,12.1a1.15,1.15,0,0,0,.8,1.41h0A1.17,1.17,0,0,0,537.31,150Z" transform="translate(-1.54 -31)" fill="#fa664d"/></g><g id="Grupo_172" data-name="Grupo 172"><path id="Trazado_191" data-name="Trazado 191" d="M545.15,146.17a1.07,1.07,0,0,0,.62-.18,1.14,1.14,0,0,0,.34-1.58,10.47,10.47,0,0,0-4.31-3.48,1.15,1.15,0,0,0-.93,2.1,8.32,8.32,0,0,1,3.31,2.62A1.12,1.12,0,0,0,545.15,146.17Z" transform="translate(-1.54 -31)" fill="#fa664d"/></g></g><path id="Trazado_192" data-name="Trazado 192" d="M517.13,178.06v24.15s-7.2,12.3-16.94,13.14-18.38-10.59-18.38-10.59v-25Z" transform="translate(-1.54 -31)" fill="#f7ad89"/><path id="Trazado_193" data-name="Trazado 193" d="M517.13,178.06v10.72c-6.53,7.25-18.14,9.82-35.32,7.29V179.76Z" transform="translate(-1.54 -31)" fill="#fa8465"/><path id="Trazado_194" data-name="Trazado 194" d="M542.6,116c-.44,9.39-1.34,21.12-3.13,30.51-.45,2.34-1,4.54-1.52,6.52-5.08,17.8-17.8,48.32-53.39,35.6-15.72-5.61-23-23.12-26.25-40.93a172.5,172.5,0,0,1-2.38-33,25.24,25.24,0,0,1,12.8-21.46c21-11.91,43.18-7.47,57.77-1.86A25.12,25.12,0,0,1,542.6,116Z" transform="translate(-1.54 -31)" fill="#f7ad89"/><path id="Trazado_195" data-name="Trazado 195" d="M483.11,136.33c0,2.57-1.33,4.66-3,4.66s-3-2.09-3-4.66,1.33-4.67,3-4.67S483.11,133.75,483.11,136.33Z" transform="translate(-1.54 -31)" fill="#2e3062"/><path id="Trazado_196" data-name="Trazado 196" d="M519.75,136.33c0,2.57-1.33,4.66-3,4.66s-3-2.09-3-4.66,1.33-4.67,3-4.67S519.75,133.75,519.75,136.33Z" transform="translate(-1.54 -31)" fill="#2e3062"/><path id="Trazado_197" data-name="Trazado 197" d="M474.25,120.79a49.72,49.72,0,0,1,12.7-1.9,2.22,2.22,0,0,1,2.24,2.18,1.9,1.9,0,0,1,0,.41v0a2.19,2.19,0,0,1-2.27,1.8c-3.58-.16-13,.34-17.39,2.13a3.33,3.33,0,0,1,1-2.36A7.71,7.71,0,0,1,474.25,120.79Z" transform="translate(-1.54 -31)" fill="#2e3062"/><path id="Trazado_198" data-name="Trazado 198" d="M522.21,120.89a49.59,49.59,0,0,0-12.7-1.9,2.2,2.2,0,0,0-2.23,2.18,2.69,2.69,0,0,0,0,.4v0a2.19,2.19,0,0,0,2.27,1.8c3.57-.17,12.95.34,17.38,2.13a3.33,3.33,0,0,0-1-2.36A7.59,7.59,0,0,0,522.21,120.89Z" transform="translate(-1.54 -31)" fill="#2e3062"/><g id="Grupo_174" data-name="Grupo 174"><path id="Trazado_199" data-name="Trazado 199" d="M499.17,155.32a4.91,4.91,0,0,1-2.49-.6,3.52,3.52,0,0,1-1.67-2.8c-.43-4.22.65-17.44.69-18a1.15,1.15,0,0,1,2.29.18c0,.14-1.11,13.57-.7,17.58a1.25,1.25,0,0,0,.57,1.06c1.08.65,3.56,0,4.6-.43a1.15,1.15,0,0,1,.87,2.12A12.16,12.16,0,0,1,499.17,155.32Z" transform="translate(-1.54 -31)" fill="#fa8465"/></g><path id="Trazado_200" data-name="Trazado 200" d="M484.6,162.56c.87,4.37,3.75,12.4,13.46,12.4s12.47-7.34,13.41-12.4Z" transform="translate(-1.54 -31)" fill="#fff9ff"/><g id="Grupo_175" data-name="Grupo 175"><path id="Trazado_201" data-name="Trazado 201" d="M497.93,181.65a11.4,11.4,0,0,1-5.39-1.58,1.15,1.15,0,0,1,1.21-1.95h0a9.22,9.22,0,0,0,4.18,1.23,9.73,9.73,0,0,0,4.4-1.23,1.15,1.15,0,0,1,1.19,2A12.09,12.09,0,0,1,497.93,181.65Z" transform="translate(-1.54 -31)" fill="#fa8465"/></g></g><path id="Trazado_202" data-name="Trazado 202" d="M547.22,114.16a3.76,3.76,0,0,1-2.76,2.11,73.08,73.08,0,0,1-.41,8.5c-1.42,16.58-5.6,19.5-6.55,15.4-.62-2.73-.59-18.35-.29-23.44a54.11,54.11,0,0,1-6.07-.76l-3.85-16.1-1.35,15.9c-5.77,2-19.23-1.21-19.23-1.21L502.2,98.69,499.4,114c-8.65,4.21-19.47,1.41-19.47,1.41L477.44,98.9l-5.74,16.47s-18.46,6.62-18.66,0c-.12-3.86,2.7-14.71,5.09-23.12A34.78,34.78,0,0,1,474.9,71c22.9-12.29,47.12-5.75,55.43-.79C547.94,80.68,547.22,114.16,547.22,114.16Z" transform="translate(-1.54 -31)" fill="#2e3062"/><path id="Trazado_203" data-name="Trazado 203" d="M463.21,80.72S448,98.79,443,131.08s-11.92,56.15,7.53,66.81c21.06,11.54,19.24-12.13,18.93-18.56s-18.21-24-6.26-73.53C467.07,89.81,463.21,80.72,463.21,80.72Z" transform="translate(-1.54 -31)" fill="#2e3062"/><path id="Trazado_204" data-name="Trazado 204" d="M459.66,147.44v0c0,.24,0,1.52.11,3.53.05,1.24.13,2.76.24,4.48.72,10.88,2.83,29.67,9.05,36.18,2.45,2.58,7.19,3.87,12.75,4.4v-8.55a33.9,33.9,0,0,1-14-13c-2.19-4.75-6-12.18-7.74-23.87Z" transform="translate(-1.54 -31)" fill="#000b29"/><path id="Trazado_205" data-name="Trazado 205" d="M542.88,158a2.69,2.69,0,1,1-2.69-2.69h0A2.7,2.7,0,0,1,542.88,158Z" transform="translate(-1.54 -31)" fill="#fff9ff"/></g></g></g></g><rect id="Rectángulo_15" data-name="Rectángulo 15" x="332.35" y="184.35" width="333.09" height="41.98" rx="3.39" opacity="0.4" style="isolation:isolate"/><g id="Grupo_182" data-name="Grupo 182"><circle id="Elipse_15" data-name="Elipse 15" cx="455.09" cy="205.74" r="12.85" fill="#fff" opacity="0.8" style="isolation:isolate"/><circle id="Elipse_16" data-name="Elipse 16" cx="498.6" cy="205.74" r="12.85" fill="#f43853"/><circle id="Elipse_17" data-name="Elipse 17" cx="541.11" cy="205.74" r="12.85" fill="#fff" opacity="0.8" style="isolation:isolate"/><g id="Grupo_181" data-name="Grupo 181"><path id="Trazado_206" data-name="Trazado 206" d="M455.37,231.88a1.43,1.43,0,1,1-1.44,1.43h0A1.44,1.44,0,0,1,455.37,231.88Z" transform="translate(-1.54 -31)" fill="#454545"/><path id="Trazado_207" data-name="Trazado 207" d="M463.6,239.53H449.66l3.23-3.55,2.22,2.24,4.12-3.83Z" transform="translate(-1.54 -31)" fill="#454545"/></g><path id="Trazado_208" data-name="Trazado 208" d="M500.14,236.21s-2.29-.13-2.57.45c-.43.85.05,2.73-2.68,2.57s-1.82-2.45-1.51-3.12.85-1.87,6.76-1.87,6.45,1.21,6.77,1.87,1.21,3-1.52,3.12-2.25-1.72-2.67-2.57C502.43,236.08,500.14,236.21,500.14,236.21Z" transform="translate(-1.54 -31)" fill="#fff"/><rect id="Rectángulo_16" data-name="Rectángulo 16" x="534.81" y="201.07" width="12.61" height="8.47" fill="#454545"/><path id="Trazado_209" data-name="Trazado 209" d="M546.15,243.49v-3.77l-3.34.56Z" transform="translate(-1.54 -31)" fill="#454545"/><rect id="Rectángulo_17" data-name="Rectángulo 17" x="536.39" y="203.19" width="9.45" height="1.44" fill="#fff"/><rect id="Rectángulo_18" data-name="Rectángulo 18" x="536.39" y="206.16" width="5.02" height="1.44" fill="#fff"/></g></g><g id="Grupo_196" data-name="Grupo 196"><g id="Grupo_185" data-name="Grupo 185"><g id="Grupo_184" data-name="Grupo 184"><rect id="Rectángulo_19" data-name="Rectángulo 19" x="109.63" y="536.35" width="67.94" height="73.63" fill="#ff495a"/></g><rect id="Rectángulo_20" data-name="Rectángulo 20" x="109.63" y="591.76" width="67.94" height="18.21" fill="#e21c47"/></g><g id="Grupo_195" data-name="Grupo 195"><g id="Grupo_188" data-name="Grupo 188"><g id="Grupo_186" data-name="Grupo 186"><path id="Trazado_210" data-name="Trazado 210" d="M137.7,567.34h14c.8-4.09,9-47.88,1.57-85.4-7.79-39.39-31.59-62.78-46.36-45.95s3.69,49.65,17.64,73.41C137.74,531.85,137.74,563.88,137.7,567.34Z" transform="translate(-1.54 -31)" fill="#fda803"/></g><g id="Grupo_187" data-name="Grupo 187"><path id="Trazado_211" data-name="Trazado 211" d="M142.87,567.34h3.7c3.74-61.34-24-108.43-24.26-108.9a1.84,1.84,0,1,0-3.16,1.9C119.42,460.81,146.62,507.09,142.87,567.34Z" transform="translate(-1.54 -31)" fill="#f68601"/></g></g><g id="Grupo_191" data-name="Grupo 191"><g id="Grupo_189" data-name="Grupo 189"><path id="Trazado_212" data-name="Trazado 212" d="M202.4,446c-31.64,0-49.56,96.41-47.23,121.38h13.47c1.1-6.34,6.35-23.24,30.14-61.7C209.89,487.68,235,446,202.4,446Z" transform="translate(-1.54 -31)" fill="#fda803"/></g><g id="Grupo_190" data-name="Grupo 190"><path id="Trazado_213" data-name="Trazado 213" d="M196.85,472.77a1.85,1.85,0,0,0-2.53.69c-.29.52-27.15,48.41-33.6,93.88h3.74c6.45-44.57,32.79-91.55,33.09-92.06A1.86,1.86,0,0,0,196.85,472.77Z" transform="translate(-1.54 -31)" fill="#f68601"/></g></g><g id="Grupo_194" data-name="Grupo 194"><g id="Grupo_192" data-name="Grupo 192"><path id="Trazado_214" data-name="Trazado 214" d="M135.62,567.34c.53-17.82-24.33-90.27-45.55-85-23.19,5.72,2.1,39.82,11.58,52.5,15.11,20.2,21,28.85,23.2,32.53Z" transform="translate(-1.54 -31)" fill="#fda803"/></g><g id="Grupo_193" data-name="Grupo 193"><path id="Trazado_215" data-name="Trazado 215" d="M131.61,567.34c-7.2-30-33-64.78-34.17-66.36a1.85,1.85,0,1,0-3,2.13l.06.07c.29.39,25.93,35,33.3,64.16Z" transform="translate(-1.54 -31)" fill="#f68601"/></g></g></g></g><g id="Grupo_554" data-name="Grupo 554"><g id="Grupo_554-2" data-name="Grupo 554-2"><g id="Grupo_143-2" data-name="Grupo 143-2"><path id="Trazado_163-2" data-name="Trazado 163-2" d="M81.11,141.08l-22.38-5.83A33.68,33.68,0,1,1,73,117.17l10.07,21.58a1.67,1.67,0,0,1-.8,2.22A1.69,1.69,0,0,1,81.11,141.08Z" transform="translate(-1.54 -31)" fill="#6b5efd"/></g><g id="question-2"><path id="Trazado_1185-2" data-name="Trazado 1185-2" d="M42.22,118.12,39.3,124l2.92,5.86a5.86,5.86,0,0,0,0-11.71Z" transform="translate(-1.54 -31)" fill="#fda829"/><path id="Trazado_1186-2" data-name="Trazado 1186-2" d="M36.37,124a5.86,5.86,0,0,0,5.85,5.86h0V118.12A5.85,5.85,0,0,0,36.37,124Z" transform="translate(-1.54 -31)" fill="#ffcf2f"/><path id="Trazado_1187-2" data-name="Trazado 1187-2" d="M42.22,79.86l-5.85,5.86,5.85,5.85a3.51,3.51,0,0,1,2.27,6.2L42.22,99.7l-3.9,7.74,3.9,7.75h5.86v-5.1l4-3.4a15.22,15.22,0,0,0-9.86-26.83Z" transform="translate(-1.54 -31)" fill="#fda829"/><g id="Grupo_550-2" data-name="Grupo 550-2"><path id="Trazado_1188-2" data-name="Trazado 1188-2" d="M36.37,104.67v10.52h5.85V99.7Z" transform="translate(-1.54 -31)" fill="#ffcf2f"/><path id="Trazado_1189-2" data-name="Trazado 1189-2" d="M27,95.09v1.46H38.71V95.09a3.52,3.52,0,0,1,3.51-3.52V79.86A15.24,15.24,0,0,0,27,95.09Z" transform="translate(-1.54 -31)" fill="#ffcf2f"/></g></g></g></g><g id="Grupo_29" data-name="Grupo 29"><g id="Grupo_27" data-name="Grupo 27"><g id="Grupo_7" data-name="Grupo 7"><path id="Trazado_12" data-name="Trazado 12" d="M419.53,525.76s29.41,26,56.55,45.35A129.57,129.57,0,0,0,494,582.28c9.29,4.5,17.51,5.91,22.6,1.33,18.89-17,43.62-116.81,43.62-116.81A37.7,37.7,0,0,1,540,461.43s-10.57,25.45-22.36,44.63c-10.86,17.69-19.3,31-19.3,31-2.87-2.46-6-5.17-9.2-8-3.43-3.06-7-6.31-10.68-9.66C451.88,495,420,469.83,420,469.83Z" transform="translate(-1.54 -31)" fill="#542bd8"/><path id="Trazado_13" data-name="Trazado 13" d="M555.55,467.67a18.13,18.13,0,0,1-18.69-12.31,15,15,0,0,1-.78-4.41c-.12-7.83-2.88-24.83,5.22-26.62,3-.65.64,7.43,4.37,13.26a110.9,110.9,0,0,0,11.91-12.32c4-5.12,12.7-14.06,16.77-18.17a1.56,1.56,0,0,1,2.2-.06,1.6,1.6,0,0,1,.45,1.47c-.66,2.44-2.81,6.43-8.6,12.79,0,0,14.7-14.64,18.22-13.31s-15.19,19.3-15.19,19.3,15.76-12.17,18-10c1.33,1.36-13.24,16.48-13.24,16.48s15.82-10.2,13.74-5.24c-.6,1.45-27.66,19-29.67,38.22A21.25,21.25,0,0,1,555.55,467.67Z" transform="translate(-1.54 -31)" fill="#f7ad89"/></g><g id="Grupo_11" data-name="Grupo 11"><path id="Trazado_14" data-name="Trazado 14" d="M429.26,641.68c-11.28-43-3.27-90.75-1.83-121.5.59-12.5,1.5-43.16,1.5-43.16-5.64-4.79-36.23-28.43-36.23-28.43l-30.58-6.27s-62,10.76-79.95,36.9c-6.06,8.82-11.12,37.13-15.25,69.83-.17,1.3-.33,2.61-.49,3.92-3.72,30.27-6.66,63.73-8.87,88.71Z" transform="translate(-1.54 -31)" fill="#6b5efd"/><g id="Grupo_8" data-name="Grupo 8"><path id="Trazado_15" data-name="Trazado 15" d="M372.89,486.91a1.54,1.54,0,0,0,.27-3.06c-18.76-3.36-24.36-23.78-24.41-24a1.54,1.54,0,0,0-3,.78h0c.24.92,6.13,22.52,26.84,26.24A1.27,1.27,0,0,0,372.89,486.91Z" transform="translate(-1.54 -31)" fill="#542bd8"/></g><g id="Grupo_9" data-name="Grupo 9"><path id="Trazado_16" data-name="Trazado 16" d="M330.27,619.12c21.24,0,41.29-11.1,55-21A176.32,176.32,0,0,0,413,573a1.53,1.53,0,1,0-2.31-2l0,0a173.32,173.32,0,0,1-27.27,24.64c-14.9,10.8-37.49,23-60.53,19.93a1.54,1.54,0,1,0-.46,3h.05A58.46,58.46,0,0,0,330.27,619.12Z" transform="translate(-1.54 -31)" fill="#542bd8"/></g><g id="Grupo_10" data-name="Grupo 10"><path id="Trazado_17" data-name="Trazado 17" d="M345.36,631.44c27.33,0,47.17-17.07,48-17.81a1.54,1.54,0,0,0-2-2.32c-.2.17-19.85,17.06-46,17.06h-1.14a1.54,1.54,0,0,0,0,3.07h1.2Z" transform="translate(-1.54 -31)" fill="#542bd8"/></g></g><g id="Grupo_26" data-name="Grupo 26"><path id="Trazado_36" data-name="Trazado 36" d="M489.65,595.3s27.52-.93,40.51,6.07,29.5,11.94,28.26,17.19-19-1.73-19-1.73-2,9.4-14,15.76-44-10.09-44-10.09Z" transform="translate(-1.54 -31)" fill="#f7ad89"/><g id="Grupo_25" data-name="Grupo 25"><path id="Trazado_37" data-name="Trazado 37" d="M294.47,467.3C313.9,486.77,368,555.55,382.64,562c19.09,8.35,77.17,27.69,106.67,33.4,5.33,1-5.77,27.38-5.77,27.38s-82.87-6.83-115.27-19.28c-9.17-3.52-40.77-27.68-69.88-53.87-9-8.1-29-22.9-28.78-38.47C270,486.9,282.67,472.81,294.47,467.3Z" transform="translate(-1.54 -31)" fill="#542bd8"/></g></g><g id="Grupo_553" data-name="Grupo 553"><g id="Grupo_475" data-name="Grupo 475"><path id="Trazado_1042" data-name="Trazado 1042" d="M359.62,453c-3.83,11.77,25.69,21.36,29.51,9.59l8-24.56-29.51-9.59Z" transform="translate(-1.54 -31)" fill="#f7ad89"/><g id="Grupo_474" data-name="Grupo 474" opacity="0.5"><path id="Trazado_1043" data-name="Trazado 1043" d="M359.62,453l8-24.56,29.51,9.59-4.54,14a42.66,42.66,0,0,0-31.41,8.06A7.45,7.45,0,0,1,359.62,453Z" transform="translate(-1.54 -31)" fill="#ffbe92"/></g></g><g id="Grupo_481" data-name="Grupo 481"><g id="Grupo_476" data-name="Grupo 476"><path id="Trazado_1044" data-name="Trazado 1044" d="M458.34,371.46c4.51-.55,9.82-1.7,13.58,2.1,5,5.07-.55,12.77-3.36,17.25-4.44,7.08-12.85,15.26-19.91,10.17Z" transform="translate(-1.54 -31)" fill="#ffbe92"/><path id="Trazado_1045" data-name="Trazado 1045" d="M462.55,376.45a13.32,13.32,0,0,1,4.27.17,3.09,3.09,0,0,1,1.44.84c2.09,2.1-1.54,7.25-3.49,10l-.64.92c-2.88,4.14-6.3,7-8.84,8C456.94,388.9,459.23,382.09,462.55,376.45Z" transform="translate(-1.54 -31)" fill="#f2a46e"/></g><path id="Trazado_1046" data-name="Trazado 1046" d="M336.05,356c-5.42,34.05.73,85.9,40.9,95.76,1.91.45,3.75.89,5.55,1.21,6.91,1.37,13.31,1.68,20.54-.67,8.3-2.72,15.67-7.81,22-13.7a121,121,0,0,0,32.26-50.95,132.25,132.25,0,0,0,6.4-24.13,89.52,89.52,0,0,0,1.08-9.24c.77-11.68-.71-22.55-5-31.9-6.19-13.73-18.31-24.22-37.67-29.27-28.22-7.36-50.34-.15-65.35,16.1C346.12,320.88,339,337.17,336.05,356Z" transform="translate(-1.54 -31)" fill="#f7ad89"/><g id="Grupo_477" data-name="Grupo 477" opacity="0.5"><path id="Trazado_1047" data-name="Trazado 1047" d="M336.05,356c-5.42,34.05.73,85.9,40.9,95.76,1.91.45,3.75.89,5.55,1.21-33.15-16.31-38.37-44.64-39.18-71.77-1.89-62.22,42-44.17,52.31-42.07,13.63,2.77,25.43,3.46,38.1-2.49,3.64-1.7,8.5-3.54,11.73-5.95.07,9.12,5.88,17.08,13.23,22.19-3.18-6.62-.51-18.17-6.74-22.93-8.68-6.62-24.52-8.41-35.07-9.49a274.08,274.08,0,0,1-45.39-8.89,58.14,58.14,0,0,0-14.64-2.36C346.12,320.88,339,337.17,336.05,356Z" transform="translate(-1.54 -31)" fill="#ffbe92"/></g><g id="Grupo_479" data-name="Grupo 479"><path id="Trazado_1048" data-name="Trazado 1048" d="M346.1,339.77c-3.67-2.69-7.74-6.29-12.88-4.8-6.83,2-5.76,11.41-5.49,16.7.42,8.35,3.77,19.59,12.42,18.59Z" transform="translate(-1.54 -31)" fill="#ffbe92"/><g id="Grupo_478" data-name="Grupo 478" opacity="0.5"><path id="Trazado_1049" data-name="Trazado 1049" d="M346.1,339.77c-3.67-2.69-7.74-6.29-12.88-4.8-6.83,2-5.76,11.41-5.49,16.7.42,8.35,3.77,19.59,12.42,18.59Z" transform="translate(-1.54 -31)" fill="#ffbe92"/></g><path id="Trazado_1050" data-name="Trazado 1050" d="M473.23,355.73c-.07.12-.15.24-.22.37-2.49,4-5,8-7.6,12.07-1.8,2.81-5.08,9.06-5.08,9.06s-5,19.19-8.4,19.36c-.06-2.54,8.14-30.63,7.93-32.16a51.19,51.19,0,0,0-2-9.74c-2.21-6.16-7.11-10.25-8.65-16.93-.67-2.9-1.67-9.92-1.67-9.92s-17.77,8.11-28.07,8.42A140,140,0,0,1,386.13,333c-8.33-1.92-17.22-5.7-25.54-2.28C346.34,336.6,345.5,350,340.85,362.7c-.93,0-.65.08-1.42-.42-1.23-.78,1.93-9.75,2.39-11.21,1.85-5.9,3.54-16.77-6.31-16.24-3.15.17-2.57-14.07-2.31-15.2,1.78-8,2.9-15.6,6.06-23.22,9.13-21.94,30.51-39.06,54.91-41.73,24.89-2.73,55.75,8.32,68.08,31.45.81,1.52,1.29,5.13,2.43,6.18,1.39,1.3,5.64,1.33,7.58,2.3,9.36,4.68,11.6,18.56,11.67,28.12C484,333.69,479,346.35,473.23,355.73Z" transform="translate(-1.54 -31)" fill="#2e3062"/><path id="Trazado_1051" data-name="Trazado 1051" d="M340,342.06c-7.87-5.18-8.16.3-7.2,9.65.48,5,2.09,9.16,3.79,11.33C338.8,355.67,340.14,348.61,340,342.06Z" transform="translate(-1.54 -31)" fill="#da8751"/></g><path id="Trazado_1190" data-name="Trazado 1190" d="M440,432.57c-6.75,14.34-28.47,27.83-49.89,23.49a100.59,100.59,0,0,1-16.3-4.22c-31.48-11.17-41.7-39.58-42.66-51-.64-7.59,8.26-38.25,8.26-38.25l3.28-3.94c-2.07,12-3.18,30.46,3.46,37.72,4,4.35,7.46,4.9,10.86,6.81,9.05,5.09,8.29-10.15,29.11,0,7.48,3.64,20.64,4.46,29,7.74,7.21,2.81,9.75,8.18,15,9.11a14.67,14.67,0,0,0,2.1.24c9,.58,11.2-6.51,17.59-20.16.36-.78,3.08-1.43,3.46-2.26,0,0-.23.81-.67,2.26A265.81,265.81,0,0,1,440,432.57Z" transform="translate(-1.54 -31)" fill="#55578d"/><path id="Trazado_1052" data-name="Trazado 1052" d="M416.09,417.4,369.2,404S384.31,451.07,416.09,417.4Z" transform="translate(-1.54 -31)" fill="#fff"/><g id="Grupo_480" data-name="Grupo 480"><path id="Trazado_1053" data-name="Trazado 1053" d="M421.67,382.43c-1.15,4,.06,7.85,2.69,8.6s5.69-1.88,6.83-5.88-.06-7.86-2.69-8.61S422.81,378.42,421.67,382.43Z" transform="translate(-1.54 -31)" fill="#2e3062"/><path id="Trazado_1054" data-name="Trazado 1054" d="M375.86,369.6c-1.14,4,.07,7.86,2.7,8.61s5.68-1.88,6.83-5.88-.06-7.86-2.69-8.61S377,365.6,375.86,369.6Z" transform="translate(-1.54 -31)" fill="#2e3062"/></g><path id="Trazado_1055" data-name="Trazado 1055" d="M426,361.6s12.26.53,18.83,6.39l.89-2s-10.38-8.66-21.27-9.34Z" transform="translate(-1.54 -31)" fill="#2e3062"/><path id="Trazado_1056" data-name="Trazado 1056" d="M393.41,354.74s-11.35-4.71-19.8-2.18l.06-2.22s13.09-3.45,23.26.55Z" transform="translate(-1.54 -31)" fill="#2e3062"/></g></g></g><g id="Grupo_28" data-name="Grupo 28"><rect id="Rectángulo_1" data-name="Rectángulo 1" x="403.55" y="583.86" width="221.33" height="26.65" rx="2.31" fill="#001030"/><path id="Trazado_38" data-name="Trazado 38" d="M626.36,641.5,668,499.65c2.34-8-4.26-15.79-13.31-15.79H563.11c-6.18,0-11.6,3.74-13.27,9.16L504,641.5Z" transform="translate(-1.54 -31)" fill="#2e3062"/><path id="Trazado_39" data-name="Trazado 39" d="M549.83,493,504.4,640.28H493.94L539.37,493c1.68-5.41,7.1-9.16,13.28-9.16h10.46C556.93,483.86,551.51,487.61,549.83,493Z" transform="translate(-1.54 -31)" fill="#001030"/><path id="Trazado_40" data-name="Trazado 40" d="M573.36,567.86c-2.34,10,4.09,18.17,14.37,18.13s20.51-8.21,22.85-18.26-4.09-18.16-14.37-18.13S575.71,557.82,573.36,567.86Z" transform="translate(-1.54 -31)" fill="#524e82"/></g></g><g id="Grupo_551" data-name="Grupo 551"><g id="Grupo_143" data-name="Grupo 143"><path id="Trazado_163" data-name="Trazado 163" d="M688,358.18l-27.9-5.95a41.54,41.54,0,1,1,16.58-23.06l13.59,26a2.07,2.07,0,0,1-.88,2.78A2,2,0,0,1,688,358.18Z" transform="translate(-1.54 -31)" fill="#efa027"/></g><g id="question"><path id="Trazado_1185" data-name="Trazado 1185" d="M638.41,332l-3.61,7.22,3.61,7.22a7.22,7.22,0,1,0,.17-14.44Z" transform="translate(-1.54 -31)" fill="#6b5efa"/><path id="Trazado_1186" data-name="Trazado 1186" d="M631.19,339.23a7.22,7.22,0,0,0,7.22,7.22h0V332a7.22,7.22,0,0,0-7.22,7.22Z" transform="translate(-1.54 -31)" fill="#6b5efa"/><path id="Trazado_1187" data-name="Trazado 1187" d="M638.41,284.84l-7.22,7.22,7.22,7.22a4.33,4.33,0,0,1,2.8,7.64l-2.8,2.38-4.81,9.55,4.81,9.55h7.22v-6.29l4.93-4.19a18.77,18.77,0,0,0-12.15-33.08Z" transform="translate(-1.54 -31)" fill="#6b5efa"/><g id="Grupo_550" data-name="Grupo 550"><path id="Trazado_1188" data-name="Trazado 1188" d="M631.19,315.44v13h7.22V309.3Z" transform="translate(-1.54 -31)" fill="#6b5efa"/><path id="Trazado_1189" data-name="Trazado 1189" d="M619.64,303.61v1.8h14.44v-1.8a4.33,4.33,0,0,1,4.33-4.33V284.84A18.79,18.79,0,0,0,619.64,303.61Z" transform="translate(-1.54 -31)" fill="#6b5efa"/></g></g></g></g></svg>