<svg xmlns="http://www.w3.org/2000/svg" xmlns:xlink="http://www.w3.org/1999/xlink" width="950" height="679.593" viewBox="0 0 950 679.593">
  <defs>
    <clipPath id="clip-path">
      <circle id="SVGID" cx="32.532" cy="32.532" r="32.532" fill="none"/>
    </clipPath>
  </defs>
  <g id="hero-boy" transform="translate(-98.819 -186.651)">
    <path id="Trazado_1293" data-name="Trazado 1293" d="M949.087,488.38c5.049-28.405,2.207-56.18-7.892-83.639A173.711,173.711,0,0,0,795.064,293.014c-46.4-4.418-91.844,9.152-126.877,36.928-33.769-84.9-118.985-143.291-214.934-143.291h-1.894c-118.355.946-220.93,95-227.875,209.885a216.34,216.34,0,0,0,9.786,79.218C155,494.374,98.819,561.918,98.819,642.4c0,92.79,59.967,191.892,227.871,191.892h543.8c106.676,0,178.323-99.1,178.324-191.575C1048.822,576.752,1009.367,516.785,949.087,488.38Z" fill="#6699d8"/>
    <g id="Grupo_30" data-name="Grupo 30" transform="translate(172.357 836.253)">
      <path id="Rectángulo_2" data-name="Rectángulo 2" d="M189.618,926.761H946.661a7.01,7.01,0,0,1,7.01,7.01h0v15.971a7.01,7.01,0,0,1-7.01,7.01H189.618a7.01,7.01,0,0,1-7.01-7.01h0V933.774a7.013,7.013,0,0,1,7.013-7.013h0Z" transform="translate(-182.604 -926.761)" fill="#3700b1"/>
      <path id="Trazado_41" data-name="Trazado 41" d="M953.669,941.072v.681H182.6v-.681a14.308,14.308,0,0,1,14.307-14.311H939.353A14.314,14.314,0,0,1,953.669,941.072Z" transform="translate(-182.603 -926.761)" fill="#542bd8"/>
    </g>
    <g id="Grupo_119" data-name="Grupo 119" transform="translate(289.441 317.297)">
      <rect id="Rectángulo_102" data-name="Rectángulo 102" width="606.936" height="506.439" fill="none" stroke="#1829c4" stroke-linecap="round" stroke-miterlimit="10" stroke-width="5" stroke-dasharray="12"/>
    </g>
    <g id="Grupo_147" data-name="Grupo 147" transform="translate(123.798 246.32)">
      <g id="Grupo_129" data-name="Grupo 129" transform="translate(0 275.586)">
        <g id="Grupo_126" data-name="Grupo 126" transform="translate(0 57.25)">
          <g id="Grupo_120" data-name="Grupo 120" transform="translate(0 26.861)">
            <path id="Trazado_145" data-name="Trazado 145" d="M130.741,668.75h-2.308a1.151,1.151,0,0,1-1-1.729l1.154-2a1.154,1.154,0,1,1,2,1.153h0l-.154.269h.309a1.154,1.154,0,1,1,.006,2.307h-.006Z" transform="translate(-127.278 -664.447)" fill="#ff495a"/>
          </g>
          <g id="Grupo_121" data-name="Grupo 121" transform="translate(3.205 5.526)">
            <path id="Trazado_146" data-name="Trazado 146" d="M132.082,660.228a1.141,1.141,0,0,1-.576-.154,1.155,1.155,0,0,1-.423-1.575h0l2.049-3.55a1.155,1.155,0,0,1,2,1.155l-2.041,3.55A1.158,1.158,0,0,1,132.082,660.228Zm4.1-7.1a1.154,1.154,0,0,1-1-1.732l2.05-3.553a1.155,1.155,0,0,1,2.026,1.109c-.008.015-.017.031-.026.046l-2.053,3.553a1.153,1.153,0,0,1-1,.577Zm4.1-7.1a1.135,1.135,0,0,1-.576-.154,1.154,1.154,0,0,1-.423-1.575h0l2.049-3.553a1.155,1.155,0,0,1,2.027,1.107h0a.343.343,0,0,1-.028.05l-2.049,3.55a1.159,1.159,0,0,1-1,.578Z" transform="translate(-130.929 -640.139)" fill="#ff495a"/>
          </g>
          <g id="Grupo_122" data-name="Grupo 122" transform="translate(15.492)">
            <path id="Trazado_147" data-name="Trazado 147" d="M148.407,638.151a1.152,1.152,0,0,1-1-.577l-.154-.268-.154.268a1.155,1.155,0,0,1-2.026-1.109l.026-.047h0l1.155-2a1.155,1.155,0,0,1,2,0l1.154,2a1.155,1.155,0,0,1-1,1.732Z" transform="translate(-144.928 -633.844)" fill="#ff495a"/>
          </g>
          <g id="Grupo_123" data-name="Grupo 123" transform="translate(19.851 5.524)">
            <path id="Trazado_148" data-name="Trazado 148" d="M161.316,660.228a1.153,1.153,0,0,1-1-.577l-2.049-3.551a1.155,1.155,0,0,1,2-1.154l2.051,3.55a1.155,1.155,0,0,1-1,1.732Zm-4.1-7.1a1.151,1.151,0,0,1-1-.577L154.163,649a1.154,1.154,0,1,1,1.972-1.2c.01.015.018.031.027.046l2.05,3.553a1.155,1.155,0,0,1-1,1.732Zm-4.1-7.1a1.149,1.149,0,0,1-1-.577l-2.051-3.551a1.155,1.155,0,0,1,1.97-1.205l.03.05,2.051,3.553a1.155,1.155,0,0,1-1,1.731Z" transform="translate(-149.895 -640.138)" fill="#ff495a"/>
          </g>
          <g id="Grupo_124" data-name="Grupo 124" transform="translate(31.006 26.86)">
            <path id="Trazado_149" data-name="Trazado 149" d="M166.074,668.751h-2.314a1.154,1.154,0,0,1-.006-2.307h.317l-.154-.269a1.154,1.154,0,0,1,2-1.148l1.154,2a1.154,1.154,0,0,1-1,1.73Z" transform="translate(-162.604 -664.446)" fill="#ff495a"/>
          </g>
          <g id="Grupo_125" data-name="Grupo 125" transform="translate(6.406 28.858)">
            <path id="Trazado_150" data-name="Trazado 150" d="M156.238,669.03h-4.1a1.154,1.154,0,0,1-.006-2.308h4.107a1.154,1.154,0,0,1,.006,2.308h0Zm-8.2,0h-4.1a1.154,1.154,0,0,1-.007-2.308h4.108a1.154,1.154,0,0,1,.006,2.308Zm-8.2,0h-4.1a1.154,1.154,0,0,1-.006-2.308h4.1a1.154,1.154,0,0,1,.006,2.308h0Z" transform="translate(-134.577 -666.722)" fill="#ff495a"/>
          </g>
        </g>
        <g id="Grupo_127" data-name="Grupo 127" transform="translate(45.435 97.787)">
          <path id="Trazado_151" data-name="Trazado 151" d="M194.061,714.483a1.276,1.276,0,0,1-.164-.01,17.2,17.2,0,0,1-4.733-1.388,1.155,1.155,0,0,1,.962-2.1,14.882,14.882,0,0,0,4.1,1.2,1.155,1.155,0,0,1-.162,2.3Zm4.6,0a1.155,1.155,0,0,1-.16-2.3,14.925,14.925,0,0,0,4.1-1.2,1.154,1.154,0,0,1,.96,2.1h0a17.212,17.212,0,0,1-4.73,1.388A1.3,1.3,0,0,1,198.658,714.483Zm8.285-3.783a1.154,1.154,0,0,1-.761-2.021,15.128,15.128,0,0,0,2.8-3.228,1.156,1.156,0,0,1,1.98,1.192c-.011.019-.024.039-.037.058h0a17.383,17.383,0,0,1-3.229,3.722,1.149,1.149,0,0,1-.757.284Zm-21.167,0a1.156,1.156,0,0,1-.756-.281,17.38,17.38,0,0,1-3.228-3.726,1.155,1.155,0,0,1,1.942-1.25h0a15.035,15.035,0,0,0,2.8,3.229,1.154,1.154,0,0,1-.755,2.027Zm26.093-7.658a1.163,1.163,0,0,1-1.155-1.164,1.183,1.183,0,0,1,.047-.318,15.046,15.046,0,0,0,.6-4.233,1.155,1.155,0,0,1,2.308,0h0a17.235,17.235,0,0,1-.7,4.877,1.152,1.152,0,0,1-1.107.83Zm-31.02,0a1.152,1.152,0,0,1-1.107-.828,17.235,17.235,0,0,1-.7-4.877,1.155,1.155,0,0,1,2.308,0h0a15.016,15.016,0,0,0,.606,4.233,1.165,1.165,0,0,1-.791,1.434,1.137,1.137,0,0,1-.318.046Zm31.02-9.1a1.155,1.155,0,0,1-1.107-.829,14.93,14.93,0,0,0-1.775-3.887,1.156,1.156,0,1,1,1.943-1.252h0a17.216,17.216,0,0,1,2.051,4.484,1.155,1.155,0,0,1-.784,1.432,1.073,1.073,0,0,1-.329.047Zm-31.017,0a1.114,1.114,0,0,1-.327-.046,1.154,1.154,0,0,1-.784-1.432h0a17.148,17.148,0,0,1,2.051-4.482,1.155,1.155,0,0,1,1.942,1.25,14.879,14.879,0,0,0-1.776,3.886,1.156,1.156,0,0,1-1.108.818Zm26.092-7.658a1.142,1.142,0,0,1-.761-.284,15.035,15.035,0,0,0-3.6-2.313,1.155,1.155,0,1,1,.96-2.1h0a17.374,17.374,0,0,1,4.145,2.669,1.153,1.153,0,0,1-.758,2.024Zm-21.167,0a1.152,1.152,0,0,1-.756-2.025,17.229,17.229,0,0,1,4.145-2.667,1.154,1.154,0,1,1,.96,2.1h0a15,15,0,0,0-3.6,2.312,1.147,1.147,0,0,1-.753.272ZM198.66,682.5a1.152,1.152,0,0,1-.164-.012,15.3,15.3,0,0,0-4.275,0,1.155,1.155,0,0,1-.326-2.286,17.525,17.525,0,0,1,4.925,0,1.154,1.154,0,0,1-.16,2.3Z" transform="translate(-179.043 -680.028)" fill="#6b5efd"/>
        </g>
        <g id="Grupo_128" data-name="Grupo 128" transform="translate(15.25)">
          <path id="Trazado_152" data-name="Trazado 152" d="M159.671,603.067a1.142,1.142,0,0,1-.164-.012,17.241,17.241,0,0,1-4.733-1.386,1.155,1.155,0,0,1,.96-2.1,14.876,14.876,0,0,0,4.1,1.2,1.155,1.155,0,0,1-.16,2.3Zm4.6,0a1.155,1.155,0,0,1-.161-2.3,14.885,14.885,0,0,0,4.1-1.2,1.155,1.155,0,0,1,.959,2.1,17.275,17.275,0,0,1-4.729,1.386,1.179,1.179,0,0,1-.167.012Zm8.283-3.785a1.154,1.154,0,0,1-.756-2.027,15.087,15.087,0,0,0,2.8-3.225,1.156,1.156,0,1,1,1.943,1.252h0a17.346,17.346,0,0,1-3.229,3.723,1.152,1.152,0,0,1-.758.282Zm-21.167,0a1.141,1.141,0,0,1-.756-.284,17.293,17.293,0,0,1-3.228-3.722,1.156,1.156,0,0,1,1.945-1.245,15.031,15.031,0,0,0,2.8,3.229,1.156,1.156,0,0,1-.756,2.027Zm26.093-7.659a1.1,1.1,0,0,1-.325-.047,1.154,1.154,0,0,1-.785-1.429h0a15.091,15.091,0,0,0,.606-4.234,1.153,1.153,0,1,1,2.307,0,17.386,17.386,0,0,1-.7,4.88,1.154,1.154,0,0,1-1.109.829Zm-31.022,0a1.157,1.157,0,0,1-1.107-.831,17.267,17.267,0,0,1-.7-4.877,1.154,1.154,0,1,1,2.307-.07c0,.024,0,.047,0,.07h0a14.956,14.956,0,0,0,.6,4.233,1.157,1.157,0,0,1-1.109,1.482Zm31.022-9.1a1.158,1.158,0,0,1-1.109-.83,14.9,14.9,0,0,0-1.775-3.887,1.156,1.156,0,0,1,1.943-1.25,17.249,17.249,0,0,1,2.049,4.484,1.156,1.156,0,0,1-.786,1.432h0a1.15,1.15,0,0,1-.318.047Zm-31.02,0a1.156,1.156,0,0,1-1.153-1.158v-.006a1.113,1.113,0,0,1,.047-.318,17.243,17.243,0,0,1,2.051-4.484,1.156,1.156,0,0,1,1.943,1.25,14.846,14.846,0,0,0-1.775,3.887,1.164,1.164,0,0,1-1.111.824Zm26.093-7.658a1.152,1.152,0,0,1-.755-.281,15.055,15.055,0,0,0-3.6-2.315,1.155,1.155,0,0,1,.96-2.1,17.432,17.432,0,0,1,4.145,2.667,1.156,1.156,0,0,1-.758,2.027Zm-21.166,0a1.155,1.155,0,0,1-.757-2.027,17.326,17.326,0,0,1,4.145-2.667,1.155,1.155,0,1,1,.959,2.1,14.982,14.982,0,0,0-3.6,2.313,1.155,1.155,0,0,1-.751.276Zm12.884-3.784c-.054,0-.11,0-.164-.01a15.3,15.3,0,0,0-4.275,0,1.155,1.155,0,1,1-.4-2.274l.04-.007h.034a17.663,17.663,0,0,1,4.925,0,1.155,1.155,0,0,1-.16,2.3Z" transform="translate(-144.652 -568.617)" fill="#fda803"/>
        </g>
      </g>
      <g id="Grupo_140" data-name="Grupo 140" transform="translate(724.977)">
        <g id="Grupo_137" data-name="Grupo 137" transform="translate(63.633 7.442)">
          <g id="Grupo_136" data-name="Grupo 136">
            <g id="Grupo_130" data-name="Grupo 130" transform="translate(30.982 26.832)">
              <path id="Trazado_153" data-name="Trazado 153" d="M1062.251,298.017h2.308a1.155,1.155,0,0,0,1-1.731l-1.155-2a1.154,1.154,0,1,0-2.026,1.108c.008.016.018.031.026.046h0l.155.268h-.309a1.155,1.155,0,0,0-.069,2.308h.069Z" transform="translate(-1061.063 -293.684)" fill="#fda803"/>
            </g>
            <g id="Grupo_131" data-name="Grupo 131" transform="translate(19.853 5.526)">
              <path id="Trazado_154" data-name="Trazado 154" d="M1058.8,288.919l-2.051-3.55a1.155,1.155,0,1,1,1.972-1.2c.01.016.018.032.027.047h0l2.051,3.55a1.155,1.155,0,1,1-1.972,1.2Zm-4.1-7.1-2.051-3.551a1.155,1.155,0,0,1,2-1.154h0l2.049,3.55a1.155,1.155,0,0,1-1.972,1.2l-.027-.047Zm-4.1-7.1-2.051-3.551a1.154,1.154,0,0,1,1.972-1.2c.01.015.018.031.027.046l2.051,3.55a1.155,1.155,0,0,1-1.972,1.2C1050.62,274.746,1050.612,274.73,1050.6,274.715Z" transform="translate(-1048.383 -269.409)" fill="#fda803"/>
            </g>
            <g id="Grupo_132" data-name="Grupo 132" transform="translate(15.507)">
              <path id="Trazado_155" data-name="Trazado 155" d="M1044.587,267.42a1.155,1.155,0,0,0,1-.577l.154-.268.153.268a1.156,1.156,0,0,0,2-1.154l-1.155-2a1.157,1.157,0,0,0-2,0l-1.154,2a1.152,1.152,0,0,0,.42,1.575A1.137,1.137,0,0,0,1044.587,267.42Z" transform="translate(-1043.432 -263.113)" fill="#fda803"/>
            </g>
            <g id="Grupo_133" data-name="Grupo 133" transform="translate(3.205 5.529)">
              <path id="Trazado_156" data-name="Trazado 156" d="M1029.993,289.343a1.154,1.154,0,0,1-.424-1.575h0l2.051-3.551a1.155,1.155,0,0,1,2.027,1.108l-.027.047h0l-2.051,3.55a1.149,1.149,0,0,1-1.568.423l-.009-.006Zm4.1-7.1a1.155,1.155,0,0,1-.423-1.576h0l2.051-3.551a1.154,1.154,0,1,1,2.026,1.108l-.027.047h0l-2.048,3.55a1.143,1.143,0,0,1-1.577.42Zm4.1-7.1a1.154,1.154,0,0,1-.423-1.575h0l2.05-3.55a1.155,1.155,0,1,1,2.027,1.108l-.027.046h0l-2.051,3.55a1.154,1.154,0,0,1-1.576.424Z" transform="translate(-1029.415 -269.412)" fill="#fda803"/>
            </g>
            <g id="Grupo_134" data-name="Grupo 134" transform="translate(0 26.835)">
              <path id="Trazado_157" data-name="Trazado 157" d="M1026.919,298.018h2.308a1.155,1.155,0,1,0,.07-2.308h-.379l.154-.268a1.155,1.155,0,0,0-1.972-1.2c-.01.015-.018.031-.027.047h0l-1.154,2a1.152,1.152,0,0,0,.421,1.576,1.137,1.137,0,0,0,.579.155Z" transform="translate(-1025.764 -293.687)" fill="#fda803"/>
            </g>
            <g id="Grupo_135" data-name="Grupo 135" transform="translate(6.411 28.86)">
              <path id="Trazado_158" data-name="Trazado 158" d="M1033.068,297.15a1.152,1.152,0,0,1,1.151-1.155h4.108a1.155,1.155,0,0,1,.07,2.308h-4.169a1.154,1.154,0,0,1-1.16-1.147Zm8.2,0a1.152,1.152,0,0,1,1.15-1.155h4.1a1.155,1.155,0,0,1,0,2.308h-4.1a1.152,1.152,0,0,1-1.154-1.152v0Zm8.2,0a1.153,1.153,0,0,1,1.151-1.155h4.1a1.155,1.155,0,0,1,.069,2.308h-4.168a1.154,1.154,0,0,1-1.156-1.152v0h0Z" transform="translate(-1033.068 -295.994)" fill="#fda803"/>
            </g>
          </g>
        </g>
        <g id="Grupo_138" data-name="Grupo 138">
          <path id="Trazado_159" data-name="Trazado 159" d="M971.742,288.112a1.154,1.154,0,0,1,.979-1.305,14.878,14.878,0,0,0,4.1-1.2,1.154,1.154,0,0,1,.956,2.1,17.2,17.2,0,0,1-4.733,1.389,1.118,1.118,0,0,1-.162.011A1.155,1.155,0,0,1,971.742,288.112Zm-3.62.979a17.272,17.272,0,0,1-4.741-1.389,1.155,1.155,0,1,1,.96-2.1h0a14.909,14.909,0,0,0,4.1,1.2,1.155,1.155,0,0,1-.292,2.291h-.033Zm-8.876-4.053a17.4,17.4,0,0,1-3.228-3.725A1.156,1.156,0,1,1,957.923,280a.631.631,0,0,1,.037.058,15,15,0,0,0,2.8,3.228,1.156,1.156,0,0,1-1.511,1.75h0Zm21.05-.117a1.152,1.152,0,0,1,.111-1.626l0,0h0a15.161,15.161,0,0,0,2.8-3.229,1.155,1.155,0,1,1,1.942,1.25h0a17.361,17.361,0,0,1-3.229,3.722,1.151,1.151,0,0,1-1.624-.106h0Zm-26.334-8.09a17.322,17.322,0,0,1-.7-4.879,1.154,1.154,0,0,1,2.308-.069c0,.023,0,.047,0,.069a14.991,14.991,0,0,0,.6,4.233,1.155,1.155,0,0,1-2.215.65Zm31.8.778a1.154,1.154,0,0,1-.783-1.432h0a15.048,15.048,0,0,0,.6-4.233,1.154,1.154,0,0,1,2.307,0,17.371,17.371,0,0,1-.7,4.877,1.15,1.15,0,0,1-1.423.787h0Zm-31.02-9.1a1.153,1.153,0,0,1-.783-1.431h0a17.27,17.27,0,0,1,2.049-4.484,1.156,1.156,0,0,1,1.981,1.192l-.038.058a14.909,14.909,0,0,0-1.775,3.886,1.158,1.158,0,0,1-1.107.831,1.113,1.113,0,0,1-.318-.047Zm30.236-.787a14.961,14.961,0,0,0-1.776-3.886,1.155,1.155,0,1,1,1.906-1.307c.013.018.026.038.037.057a17.213,17.213,0,0,1,2.046,4.482,1.154,1.154,0,1,1-2.208.674l-.007-.025Zm-25.856-7.225a1.152,1.152,0,0,1,.111-1.626h0a17.335,17.335,0,0,1,4.143-2.668,1.154,1.154,0,1,1,.96,2.1h0a15.037,15.037,0,0,0-3.595,2.313,1.152,1.152,0,0,1-1.626-.116h0Zm21.277.116a14.9,14.9,0,0,0-3.6-2.313,1.155,1.155,0,1,1,.96-2.1,17.346,17.346,0,0,1,4.146,2.667,1.156,1.156,0,0,1-1.51,1.746h0Zm-13.268-4.5a1.154,1.154,0,0,1,.979-1.305,17.684,17.684,0,0,1,4.927,0,1.155,1.155,0,0,1-.326,2.286,15.367,15.367,0,0,0-4.275,0,1.148,1.148,0,0,1-1.3-.973v0Z" transform="translate(-953.265 -254.634)" fill="#766aff"/>
        </g>
        <g id="Grupo_139" data-name="Grupo 139" transform="translate(70.528 74.048)">
          <path id="Trazado_160" data-name="Trazado 160" d="M1052.093,372.478a1.154,1.154,0,0,1,.979-1.305h0a14.891,14.891,0,0,0,4.1-1.2,1.154,1.154,0,0,1,.959,2.1h0a17.213,17.213,0,0,1-4.735,1.386,1.153,1.153,0,0,1-1.305-.975h0Zm-3.621.979a17.154,17.154,0,0,1-4.73-1.389,1.154,1.154,0,1,1,.96-2.1h0a14.812,14.812,0,0,0,4.1,1.2,1.154,1.154,0,1,1-.326,2.285ZM1039.6,369.4a17.323,17.323,0,0,1-3.229-3.722,1.156,1.156,0,0,1,1.906-1.308q.02.029.037.058a15.02,15.02,0,0,0,2.8,3.229,1.154,1.154,0,0,1-1.511,1.743Zm21.05-.114a1.152,1.152,0,0,1,.11-1.626l0,0h0a15.13,15.13,0,0,0,2.8-3.229,1.156,1.156,0,0,1,1.943,1.25,17.4,17.4,0,0,1-3.229,3.722,1.156,1.156,0,0,1-1.627-.114Zm-26.331-8.092a17.284,17.284,0,0,1-.7-4.877,1.154,1.154,0,1,1,2.307-.006v.006a14.992,14.992,0,0,0,.6,4.233,1.154,1.154,0,1,1-2.208.674l-.006-.025Zm31.8.784a1.153,1.153,0,0,1-.785-1.429h0a15.054,15.054,0,0,0,.6-4.234,1.155,1.155,0,0,1,2.309,0,17.412,17.412,0,0,1-.7,4.878,1.168,1.168,0,0,1-1.432.786Zm-31.023-9.1a1.155,1.155,0,0,1-.777-1.434,17.172,17.172,0,0,1,2.05-4.482,1.156,1.156,0,1,1,1.98,1.192l-.038.058a14.831,14.831,0,0,0-1.775,3.886,1.164,1.164,0,0,1-1.433.784Zm30.237-.787a14.925,14.925,0,0,0-1.775-3.887,1.156,1.156,0,0,1,1.943-1.25,17.229,17.229,0,0,1,2.051,4.484,1.155,1.155,0,0,1-2.2.691l-.011-.042Zm-25.857-7.234a1.156,1.156,0,0,1,.114-1.628,17.347,17.347,0,0,1,4.145-2.668,1.154,1.154,0,0,1,.96,2.1h0a15.016,15.016,0,0,0-3.6,2.313,1.152,1.152,0,0,1-1.625-.106h0Zm21.278.112a15.049,15.049,0,0,0-3.6-2.31,1.155,1.155,0,1,1,.96-2.1h0a17.366,17.366,0,0,1,4.145,2.666,1.155,1.155,0,0,1-1.512,1.743Zm-13.268-4.491a1.155,1.155,0,0,1,.98-1.305,17.6,17.6,0,0,1,4.925,0,1.155,1.155,0,0,1-.245,2.3l-.047-.006h-.032a15.3,15.3,0,0,0-4.275,0,1.153,1.153,0,0,1-1.305-.975h0Z" transform="translate(-1033.62 -338.999)" fill="#ff495a"/>
        </g>
      </g>
      <g id="Grupo_554" data-name="Grupo 554" transform="translate(623.548 266.326)">
        <g id="Grupo_554-2" data-name="Grupo 554-2">
          <g id="Grupo_143-2" data-name="Grupo 143-2">
            <path id="Trazado_163-2" data-name="Trazado 163-2" d="M916.108,630.5l-23.793-6.2a35.786,35.786,0,1,1,15.164-19.214l10.7,22.931a1.78,1.78,0,0,1-2.069,2.48Z" transform="translate(-837.705 -558.067)" fill="#6b5efd"/>
          </g>
          <g id="question-2" transform="translate(22.561 12.952)">
            <path id="Trazado_1185-2" data-name="Trazado 1185-2" d="M879.865,615.169l-2.839,5.689,2.844,5.688a5.688,5.688,0,1,0,.013-11.377h-.018Z" transform="translate(-865.074 -578.001)" fill="#fda829"/>
            <path id="Trazado_1186-2" data-name="Trazado 1186-2" d="M873.781,620.857a5.689,5.689,0,0,0,5.688,5.688h0V615.169a5.689,5.689,0,0,0-5.688,5.689Z" transform="translate(-864.677 -578.001)" fill="#ffcf2f"/>
            <path id="Trazado_1187-2" data-name="Trazado 1187-2" d="M879.469,572.824l-5.688,5.688,5.688,5.688a3.414,3.414,0,0,1,2.207,6.018l-2.206,1.875-3.789,7.527,3.789,7.526h5.688v-4.955l3.886-3.3a14.789,14.789,0,0,0-9.576-26.064Z" transform="translate(-864.677 -572.823)" fill="#fda829"/>
            <g id="Grupo_550-2" data-name="Grupo 550-2" transform="translate(0 0.001)">
              <path id="Trazado_1188-2" data-name="Trazado 1188-2" d="M873.781,599.617v10.216h5.688V594.783Z" transform="translate(-864.677 -575.509)" fill="#ffcf2f"/>
              <path id="Trazado_1189-2" data-name="Trazado 1189-2" d="M863.409,587.615v1.422h11.38v-1.422A3.416,3.416,0,0,1,878.2,584.2V572.824A14.807,14.807,0,0,0,863.409,587.615Z" transform="translate(-863.409 -572.824)" fill="#ffcf2f"/>
            </g>
          </g>
        </g>
      </g>
    </g>
    <g id="Grupo_183" data-name="Grupo 183" transform="translate(456.027 224.387)">
      <g id="Grupo_151" data-name="Grupo 151" transform="translate(0 0)">
        <rect id="Rectángulo_14" data-name="Rectángulo 14" width="195.492" height="290.977" rx="3.395" transform="translate(0 195.403) rotate(-88.271)" fill="#2e3062"/>
        <path id="Trazado_165" data-name="Trazado 165" d="M795.551,252.812,790.467,421.26a5.67,5.67,0,0,1-5.835,5.5l-264.09-7.972a5.428,5.428,0,0,1-1.956-.421,5.644,5.644,0,0,1-3.534-5.415l5.086-168.45a5.665,5.665,0,0,1,5.83-5.5h0l264.085,7.971a5.609,5.609,0,0,1,2.127.485A5.667,5.667,0,0,1,795.551,252.812Z" transform="translate(-506.928 -230.788)" fill="#fff9ff"/>
        <g id="Grupo_150" data-name="Grupo 150" transform="translate(12.954 8.214)">
          <path id="Trazado_166" data-name="Trazado 166" d="M796.224,252.813l-.253,8.387-275.417-8.315.253-8.387a5.665,5.665,0,0,1,5.833-5.493h0l264.094,7.972A5.667,5.667,0,0,1,796.224,252.813Z" transform="translate(-520.555 -239.003)" fill="#dadaef"/>
          <path id="Trazado_167" data-name="Trazado 167" d="M563.329,247.966h0a1.86,1.86,0,0,0,1.8,1.912l186.025,5.616a1.86,1.86,0,0,0,1.913-1.8h0a1.859,1.859,0,0,0-1.8-1.913l-186.025-5.616a1.86,1.86,0,0,0-1.913,1.8Z" transform="translate(-525.786 -239.878)" fill="#fff9ff"/>
          <g id="Grupo_148" data-name="Grupo 148" transform="translate(12.924 5.543)">
            <path id="Trazado_168" data-name="Trazado 168" d="M538.69,247.224l-.041,1.377a.515.515,0,0,1-.784.422l-1.172-.725-1.17-.724a.513.513,0,0,1,.027-.889l1.211-.652,1.214-.653a.514.514,0,0,1,.757.466Z" transform="translate(-535.279 -245.318)" fill="#2e3062"/>
            <path id="Trazado_169" data-name="Trazado 169" d="M546.225,247.441l-.041,1.378a.514.514,0,0,0,.757.468l1.212-.65,1.214-.653a.514.514,0,0,0,.209-.7.5.5,0,0,0-.182-.192l-1.172-.727-1.17-.725a.513.513,0,0,0-.783.42Z" transform="translate(-536.613 -245.349)" fill="#2e3062"/>
          </g>
          <g id="Grupo_149" data-name="Grupo 149" transform="translate(238.335 11.372)">
            <circle id="Elipse_12" data-name="Elipse 12" cx="2.753" cy="2.753" r="2.753" transform="translate(10.18 0.307)" fill="#6b5efd"/>
            <circle id="Elipse_13" data-name="Elipse 13" cx="2.753" cy="2.753" r="2.753" fill="#fda803"/>
            <circle id="Elipse_14" data-name="Elipse 14" cx="2.753" cy="2.753" r="2.753" transform="translate(20.361 0.615)" fill="#ff495a"/>
          </g>
        </g>
      </g>
      <g id="Grupo_165" data-name="Grupo 165" transform="translate(12.528 50.59)">
        <g id="Grupo_153" data-name="Grupo 153" transform="translate(177.221 102.772)">
          <path id="Trazado_170" data-name="Trazado 170" d="M789.876,446.424a3.043,3.043,0,0,0,2.237-.851l.009-.01a7.085,7.085,0,0,0,2.29-4.565l0-.068c.31-11.5,14.414-10.306,19.368-24.22s-12.924-15.643-23.424-7.274c-7.545,6.018-16.114-2.965-27.03,3.99-9.474,6.039-4.773,21.744-19.859,16.421-4.818-1.7-9.218-.334-12.976,2.313a21.822,21.822,0,0,0-8.512,12.212l.006.005Z" transform="translate(-721.982 -404.374)" fill="#f68601"/>
          <g id="Grupo_152" data-name="Grupo 152" transform="translate(29.694 15.353)">
            <path id="Trazado_171" data-name="Trazado 171" d="M760.063,447.536l39.248-23.552a1.149,1.149,0,0,0-1.185-1.968h0l-42.313,25.392Z" transform="translate(-755.813 -421.867)" fill="#e65913"/>
          </g>
        </g>
        <g id="Grupo_156" data-name="Grupo 156" transform="translate(57.973 12.702)">
          <path id="Trazado_172" data-name="Trazado 172" d="M611.72,409.151c2.695-1.875,5.336-3.822,7.859-5.932-2.511-14.352-5.985-40.447-3.122-63.22,4.538-36.1-10.848-43.1-20-35.49-29.728,24.71,14.118,104.561,14.118,104.561Z" transform="translate(-586.12 -301.755)" fill="#f68601"/>
          <g id="Grupo_155" data-name="Grupo 155" transform="translate(15.286 23.145)">
            <g id="Grupo_154" data-name="Grupo 154">
              <path id="Trazado_173" data-name="Trazado 173" d="M616.8,410.269q.669-.5,1.332-.993c-6.7-18.262-9.878-37.376-11.382-50.969a246.127,246.127,0,0,1-1.616-29.39.8.8,0,0,0-1.6-.037,247.588,247.588,0,0,0,1.623,29.577C606.685,372.259,609.93,391.717,616.8,410.269Z" transform="translate(-603.535 -328.125)" fill="#e65913"/>
            </g>
          </g>
        </g>
        <g id="Grupo_159" data-name="Grupo 159" transform="translate(0 76.763)">
          <path id="Trazado_174" data-name="Trazado 174" d="M612.481,434.609c.063-2.3.068-4.6-.03-6.9-12.911-6.748-35.724-19.885-52.043-36.025-25.868-25.585-40.789-17.642-40.328-5.753,1.026,26.46,43.6,41.293,70.316,48.012Z" transform="translate(-520.069 -374.741)" fill="#f68601"/>
          <g id="Grupo_158" data-name="Grupo 158" transform="translate(19.501 18.718)">
            <g id="Grupo_157" data-name="Grupo 157">
              <path id="Trazado_175" data-name="Trazado 175" d="M615.215,436.536q.02-.831.026-1.659c-18.565-5.808-35.661-14.93-47.359-22.015a246.489,246.489,0,0,1-24.294-16.618.8.8,0,0,0-1,1.245h0a248.582,248.582,0,0,0,24.447,16.726C578.913,421.409,596.316,430.686,615.215,436.536Z" transform="translate(-542.287 -396.067)" fill="#e65913"/>
            </g>
          </g>
        </g>
        <g id="Grupo_162" data-name="Grupo 162" transform="translate(4.311)">
          <path id="Trazado_176" data-name="Trazado 176" d="M617.445,424.046l2.722-.911s-31.476-43.84-44.5-90.895c-14.049-50.762-38.508-51.545-46.5-36.283-22.438,42.866,51.573,110.16,72.033,127.607Z" transform="translate(-524.981 -287.283)" fill="#fda803"/>
          <g id="Grupo_161" data-name="Grupo 161" transform="translate(22.508 32.565)">
            <g id="Grupo_160" data-name="Grupo 160">
              <path id="Trazado_177" data-name="Trazado 177" d="M614.776,428.409l3.291.1c-20.6-21.383-36.575-46.753-46.66-64.992a357.7,357.7,0,0,1-18.54-38.372,1.156,1.156,0,1,0-2.171.793c.005.016.011.031.017.046A359.605,359.605,0,0,0,569.354,364.6C579.248,382.493,594.775,407.209,614.776,428.409Z" transform="translate(-550.625 -324.385)" fill="#f68601"/>
            </g>
          </g>
        </g>
        <g id="Grupo_164" data-name="Grupo 164" transform="translate(154.576 24.446)">
          <path id="Trazado_178" data-name="Trazado 178" d="M752.7,434.439a29.292,29.292,0,0,0-.491-5.419c-3.214-17.174,7.022-20.085,20.554-25.068s15.6-20.944,6.537-34.529,8.266-23.766,2.608-43.971-27.812-7.55-33.125,10.762c-3.82,13.167-21.125,9.772-28.082,26.786-6.048,14.771,12.286,29.133-9.572,35.328-6.982,1.975-10.969,7.168-13.155,13.321a30.986,30.986,0,0,0,.141,21.148Z" transform="translate(-696.182 -315.135)" fill="#fda803"/>
          <g id="Grupo_163" data-name="Grupo 163" transform="translate(26.513 29.279)">
            <path id="Trazado_179" data-name="Trazado 179" d="M729.91,437.716l38.324-86.971a1.631,1.631,0,0,0-2.985-1.315l-38.86,88.179Z" transform="translate(-726.389 -348.493)" fill="#f68601"/>
          </g>
        </g>
      </g>
      <g id="Grupo_180" data-name="Grupo 180" transform="translate(65.581 31.739)">
        <g id="Grupo_179" data-name="Grupo 179">
          <g id="Grupo_178" data-name="Grupo 178">
            <path id="Trazado_180" data-name="Trazado 180" d="M603.577,441.8l-1.22-33.132A303.341,303.341,0,0,0,580.514,441.1Z" transform="translate(-580.514 -283.277)" fill="#542bd8"/>
            <path id="Trazado_181" data-name="Trazado 181" d="M760.022,446.348a317.475,317.475,0,0,0-18.761-34.426l-4.69,33.718Z" transform="translate(-599.598 -283.675)" fill="#542bd8"/>
            <g id="Grupo_167" data-name="Grupo 167" transform="translate(21.842 113.322)">
              <path id="Trazado_182" data-name="Trazado 182" d="M720.716,443.56l4.5-33.723a162.546,162.546,0,0,0-50.933-14.1c-25.747-2.642-42.177,1.121-68.886,11.25l1.22,33.132Z" transform="translate(-605.399 -394.917)" fill="#6b5efd"/>
              <g id="Grupo_166" data-name="Grupo 166" transform="translate(26.903 16.182)">
                <path id="Trazado_183" data-name="Trazado 183" d="M643.435,434.468c24.154-2.092,47.048-17.95,48.088-18.679a1.345,1.345,0,0,0-1.541-2.2c-.269.189-27.207,18.833-52.563,18.412a1.345,1.345,0,1,0-.047,2.69A58.968,58.968,0,0,0,643.435,434.468Z" transform="translate(-636.05 -413.354)" fill="#542bd8"/>
              </g>
            </g>
            <g id="Grupo_177" data-name="Grupo 177" transform="translate(30.442)">
              <path id="Trazado_184" data-name="Trazado 184" d="M702.4,281.566s14.789,24.5,12.331,49.477.658,53.994-21.7,52.047-62.618,7.1-74.728-12.78S702.4,281.566,702.4,281.566Z" transform="translate(-615.448 -267.733)" fill="#2e3062"/>
              <path id="Trazado_185" data-name="Trazado 185" d="M713.131,332.041s2.932,36.4-14.587,45.873-29.638-2.056-29.638-2.056S706.72,326.38,713.131,332.041Z" transform="translate(-621.766 -273.851)" fill="#000b29"/>
              <g id="Grupo_176" data-name="Grupo 176" transform="translate(7.446 17.903)">
                <g id="Grupo_170" data-name="Grupo 170" transform="translate(0 33.636)">
                  <path id="Trazado_186" data-name="Trazado 186" d="M636.093,328.85s-5.933-8.428-10.732-1.752,1.088,27,12.491,22.431Z" transform="translate(-623.681 -324.525)" fill="#fa8465"/>
                  <g id="Grupo_168" data-name="Grupo 168" transform="translate(2.46 7.16)">
                    <path id="Trazado_187" data-name="Trazado 187" d="M635.923,344.231a.955.955,0,0,1-.891-.722c-1.554-6.269-7.919-8.981-7.984-9.006a.951.951,0,0,1,.727-1.757c.3.123,7.31,3.091,9.1,10.3a.952.952,0,0,1-.7,1.153.962.962,0,0,1-.255.027Z" transform="translate(-626.484 -332.683)" fill="#fa664d"/>
                  </g>
                  <g id="Grupo_169" data-name="Grupo 169" transform="translate(4.572 11.048)">
                    <path id="Trazado_188" data-name="Trazado 188" d="M629.813,341.444a.931.931,0,0,1-.51-.166.951.951,0,0,1-.245-1.323h0a8.665,8.665,0,0,1,3.655-2.771.951.951,0,0,1,.724,1.76,6.864,6.864,0,0,0-2.812,2.089A.951.951,0,0,1,629.813,341.444Z" transform="translate(-628.89 -337.113)" fill="#fa664d"/>
                  </g>
                </g>
                <g id="Grupo_173" data-name="Grupo 173" transform="translate(73.121 35.953)">
                  <path id="Trazado_189" data-name="Trazado 189" d="M709.989,331.1s6.431-8.055,10.822-1.1-2.72,26.889-13.821,21.636Z" transform="translate(-706.99 -327.166)" fill="#fa8465"/>
                  <g id="Grupo_171" data-name="Grupo 171" transform="translate(1.717 7.301)">
                    <path id="Trazado_190" data-name="Trazado 190" d="M709.874,346.5a.956.956,0,0,0,.933-.668c1.928-6.164,8.447-8.487,8.511-8.508a.951.951,0,0,0-.619-1.8c-.3.105-7.483,2.645-9.709,9.737a.953.953,0,0,0,.627,1.193h0A.978.978,0,0,0,709.874,346.5Z" transform="translate(-708.947 -335.484)" fill="#fa664d"/>
                  </g>
                  <g id="Grupo_172" data-name="Grupo 172" transform="translate(5.233 10.86)">
                    <path id="Trazado_191" data-name="Trazado 191" d="M716.957,344.061a.933.933,0,0,0,.518-.135.953.953,0,0,0,.327-1.306,8.677,8.677,0,0,0-3.483-2.985.951.951,0,1,0-.829,1.712,6.881,6.881,0,0,1,2.681,2.255A.948.948,0,0,0,716.957,344.061Z" transform="translate(-712.952 -339.539)" fill="#fa664d"/>
                  </g>
                </g>
                <path id="Trazado_192" data-name="Trazado 192" d="M685.983,374l-.6,20.02s-6.276,10.015-14.373,10.465-14.968-9.237-14.968-9.237l.626-20.72Z" transform="translate(-627.638 -296.94)" fill="#f7ad89"/>
                <path id="Trazado_193" data-name="Trazado 193" d="M686.014,374l-.268,8.883c-5.6,5.85-15.282,7.689-29.457,5.157l.408-13.517Z" transform="translate(-627.669 -296.94)" fill="#fa8465"/>
                <path id="Trazado_194" data-name="Trazado 194" d="M705.94,312.489a194.889,194.889,0,0,1-3.36,25.21c-.428,1.928-.9,3.743-1.419,5.364-4.658,14.626-15.961,39.6-45.143,28.175-12.888-5.044-18.49-19.739-20.732-34.58a142.6,142.6,0,0,1-1.142-27.449,20.913,20.913,0,0,1,11.142-17.465c17.71-9.346,35.974-5.111,47.931-.1A20.842,20.842,0,0,1,705.94,312.489Z" transform="translate(-624.934 -286.203)" fill="#f7ad89"/>
                <path id="Trazado_195" data-name="Trazado 195" d="M658.525,333.073c-.064,2.137-1.218,3.836-2.577,3.8s-2.408-1.806-2.343-3.944,1.217-3.836,2.576-3.794S658.59,330.936,658.525,333.073Z" transform="translate(-627.34 -291.453)" fill="#2e3062"/>
                <path id="Trazado_196" data-name="Trazado 196" d="M693.13,334.117c-.064,2.137-1.217,3.836-2.576,3.8s-2.408-1.807-2.344-3.944,1.218-3.836,2.577-3.8S693.2,331.981,693.13,334.117Z" transform="translate(-631.572 -291.58)" fill="#2e3062"/>
                <path id="Trazado_197" data-name="Trazado 197" d="M650.729,318.526a41.168,41.168,0,0,1,10.574-1.257,1.833,1.833,0,0,1,1.8,1.87,1.9,1.9,0,0,1-.037.329l-.005.029a1.825,1.825,0,0,1-1.927,1.435c-2.958-.226-10.747-.045-14.463,1.331a2.752,2.752,0,0,1,.9-1.933A6.363,6.363,0,0,1,650.729,318.526Z" transform="translate(-626.492 -290.002)" fill="#2e3062"/>
                <path id="Trazado_198" data-name="Trazado 198" d="M694.851,319.9A41.126,41.126,0,0,0,684.372,318a1.828,1.828,0,0,0-1.9,1.749h0a1.748,1.748,0,0,0,.017.339l.005.029a1.821,1.821,0,0,0,1.834,1.549c2.967-.047,10.73.6,14.357,2.2a2.758,2.758,0,0,0-.778-1.983A6.344,6.344,0,0,0,694.851,319.9Z" transform="translate(-630.87 -290.092)" fill="#2e3062"/>
                <g id="Grupo_174" data-name="Grupo 174" transform="translate(40.624 39.119)">
                  <path id="Trazado_199" data-name="Trazado 199" d="M673.37,349.415a4,4,0,0,1-2.052-.56A2.9,2.9,0,0,1,670,346.493c-.256-3.506.969-14.437,1.021-14.9a.952.952,0,0,1,1.891.213c-.013.112-1.257,11.216-1.015,14.548a1.033,1.033,0,0,0,.44.9c.878.562,2.956.077,3.823-.246a.951.951,0,1,1,.67,1.781h0A10.108,10.108,0,0,1,673.37,349.415Z" transform="translate(-669.966 -330.773)" fill="#fa8465"/>
                </g>
                <path id="Trazado_200" data-name="Trazado 200" d="M659.873,358.438c.614,3.64,2.8,10.368,10.848,10.611,8.07.244,10.518-5.77,11.422-9.938Z" transform="translate(-628.107 -295.037)" fill="#fff9ff"/>
                <g id="Grupo_175" data-name="Grupo 175" transform="translate(37.502 76.381)">
                  <path id="Trazado_201" data-name="Trazado 201" d="M671.243,376.4a9.52,9.52,0,0,1-4.425-1.44.951.951,0,0,1,1.049-1.587h0a7.678,7.678,0,0,0,3.43,1.124,8.1,8.1,0,0,0,3.684-.915.952.952,0,0,1,.936,1.654A9.955,9.955,0,0,1,671.243,376.4Z" transform="translate(-666.409 -373.226)" fill="#fa8465"/>
                </g>
              </g>
              <path id="Trazado_202" data-name="Trazado 202" d="M709.508,308.561a3.141,3.141,0,0,1-2.343,1.684,60.612,60.612,0,0,1-.556,7.031c-1.589,13.711-5.128,16.019-5.81,12.6-.448-2.272-.027-15.219.348-19.43a45.252,45.252,0,0,1-5.017-.785l-2.787-13.439-1.513,13.146c-4.834,1.519-15.91-1.482-15.91-1.482l-3.342-13.272-2.7,12.586c-7.277,3.277-16.173.68-16.173.68l-1.647-13.714-5.168,13.508s-15.469,5.028-15.468-.467c-.005-3.2,2.606-12.124,4.793-19.034a28.84,28.84,0,0,1,14.435-17.223c19.286-9.618,39.2-3.6,45.96.728C710.944,280.832,709.508,308.561,709.508,308.561Z" transform="translate(-617.181 -265.806)" fill="#2e3062"/>
              <path id="Trazado_203" data-name="Trazado 203" d="M638.733,280.542s-13.051,14.606-18,41.24-11.288,46.235,4.569,55.557c17.164,10.091,16.246-9.57,16.154-14.908s-14.5-20.358-3.349-61.093C641.7,288.18,638.733,280.542,638.733,280.542Z" transform="translate(-615.197 -267.608)" fill="#2e3062"/>
              <path id="Trazado_204" data-name="Trazado 204" d="M636.753,343.446v.032c0,.2-.018,1.265.008,2.93.008,1.035.032,2.293.086,3.723.319,9.034,1.6,24.659,6.592,30.214,1.97,2.2,5.861,3.386,10.461,3.96l.214-7.086A28.037,28.037,0,0,1,642.841,366.1a66.257,66.257,0,0,1-5.813-19.971Z" transform="translate(-617.833 -275.301)" fill="#000b29"/>
              <path id="Trazado_205" data-name="Trazado 205" d="M714.414,355.474a2.229,2.229,0,1,1-2.16-2.3h0a2.228,2.228,0,0,1,2.16,2.3Z" transform="translate(-626.786 -276.491)" fill="#fff9ff"/>
            </g>
          </g>
        </g>
      </g>
      <rect id="Rectángulo_15" data-name="Rectángulo 15" width="34.813" height="276.198" rx="3.485" transform="translate(7.952 187.826) rotate(-88.271)" opacity="0.4" style="isolation: isolate"/>
      <g id="Grupo_182" data-name="Grupo 182" transform="translate(99.538 163.168)">
        <circle id="Elipse_15" data-name="Elipse 15" cx="10.658" cy="10.658" r="10.658" fill="#fff" opacity="0.8" style="isolation: isolate"/>
        <circle id="Elipse_16" data-name="Elipse 16" cx="10.658" cy="10.658" r="10.658" transform="translate(36.064 1.089)" fill="#f43853"/>
        <circle id="Elipse_17" data-name="Elipse 17" cx="10.658" cy="10.658" r="10.658" transform="translate(71.297 2.152)" fill="#fff" opacity="0.8" style="isolation: isolate"/>
        <g id="Grupo_181" data-name="Grupo 181" transform="translate(4.813 6.597)">
          <path id="Trazado_206" data-name="Trazado 206" d="M630.123,423.063a1.189,1.189,0,1,1-1.224,1.152h0a1.188,1.188,0,0,1,1.224-1.152Z" transform="translate(-625.201 -423.062)" fill="#454545"/>
          <path id="Trazado_207" data-name="Trazado 207" d="M636.241,429.917l-11.555-.349,2.769-2.862,1.781,1.911,3.514-3.073Z" transform="translate(-624.686 -423.366)" fill="#454545"/>
        </g>
        <path id="Trazado_208" data-name="Trazado 208" d="M671.62,428.2s-1.892-.164-2.144.3c-.375.694-.024,2.266-2.282,2.066s-1.45-2.081-1.176-2.623.751-1.531,5.652-1.382,5.317,1.162,5.559,1.721.933,2.484-1.333,2.547-1.82-1.484-2.152-2.2C673.52,428.152,671.62,428.2,671.62,428.2Z" transform="translate(-624.883 -416.892)" fill="#fff"/>
        <rect id="Rectángulo_16" data-name="Rectángulo 16" width="7.027" height="10.453" transform="translate(76.637 15.804) rotate(-88.271)" fill="#454545"/>
        <path id="Trazado_209" data-name="Trazado 209" d="M715.315,436.182l.095-3.13-2.788.385Z" transform="translate(-630.627 -417.687)" fill="#454545"/>
        <rect id="Rectángulo_17" data-name="Rectángulo 17" width="1.19" height="7.839" transform="translate(78.067 11.767) rotate(-88.271)" fill="#fff"/>
        <rect id="Rectángulo_18" data-name="Rectángulo 18" width="1.19" height="4.159" transform="translate(77.993 14.229) rotate(-88.271)" fill="#fff"/>
      </g>
    </g>
    <g id="Grupo_551" data-name="Grupo 551" transform="translate(612.272 455.886)">
      <g id="Grupo_143" data-name="Grupo 143">
        <path id="Trazado_163" data-name="Trazado 163" d="M684.9,572.7a2.011,2.011,0,0,1-.863-2.709l13.2-25.293a40.35,40.35,0,1,1,16.11,22.4l-27.111,5.789A2.01,2.01,0,0,1,684.9,572.7Z" transform="translate(-683.811 -493.398)" fill="#2e3062"/>
      </g>
      <g id="Grupo_630" data-name="Grupo 630" transform="translate(31.242 11.801)">
        <path id="Trazado_1294" data-name="Trazado 1294" d="M739.245,565.306a3.454,3.454,0,0,0,3.552-3.348v-3.344c9.7-.888,16.118-6.011,16.118-14.344v-.136c0-8.469-5.464-12.362-16.323-14.888v-7.923a28.565,28.565,0,0,1,4.764,1.625,5.644,5.644,0,0,0,7.187-2.106,5.137,5.137,0,0,0-2.155-7.361,31.218,31.218,0,0,0-9.456-2.541v-2.049c0-1.13-1.59-2.049-3.551-2.049s-3.552.872-3.552,1.944v1.948c-10.451.752-16.325,6.352-16.325,14.411v.138c0,8.468,5.6,12.227,16.6,14.752v8.2a26.393,26.393,0,0,1-7.85-2.644c-2.8-1.429-6.231-.923-7.927,1.585a5.083,5.083,0,0,0,1.811,7.453,40.38,40.38,0,0,0,13.556,3.852v3.414A3.488,3.488,0,0,0,739.245,565.306Zm3.277-24.177c3.553,1.023,4.576,2.049,4.576,3.893v.138c0,1.98-1.433,3.14-4.576,3.484Zm-11-16.871v-.136c0-1.776,1.3-3.142,4.645-3.415v7.377C732.482,527.059,731.524,526.033,731.524,524.258Z" transform="translate(-719.405 -506.843)" fill="#00bd00" stroke="#6168ff" stroke-miterlimit="10" stroke-width="1"/>
      </g>
    </g>
    <g id="Grupo_632" data-name="Grupo 632" transform="translate(829.896 469.969)">
      <g id="Grupo_631" data-name="Grupo 631" transform="translate(0 0)">
        <path id="Trazado_1295" data-name="Trazado 1295" d="M939.448,662.389l17.071,7.8c17.97,8.209,47.287-19.122,66.579-61.351s20.1-82.039,2.786-90.492l-17.072-7.8c-6.289-2.873-14.142.055-17.67,6.589l-11.493,25.157c-4.1,8.985,2.662,19.135,12.146,18.58,6.622-.233,12.989,4.848,13.223,11.47,1.852,14.964-9.474,38.568-21.343,46.721-5.4,3.5-13.167,2.673-17.326-2.486-5.79-7.532-17.892-6-22,2.983l-11.492,25.158C929.986,651.009,932.915,658.863,939.448,662.389Z" transform="translate(-931.756 -509.443)" fill="#00bd00" stroke="#6168ff" stroke-miterlimit="10" stroke-width="3"/>
      </g>
    </g>
    <g id="Grupo_196" data-name="Grupo 196" transform="translate(198.57 631.187)">
      <g id="Grupo_185" data-name="Grupo 185" transform="translate(29.748 133.001)">
        <g id="Grupo_184" data-name="Grupo 184">
          <rect id="Rectángulo_19" data-name="Rectángulo 19" width="66.01" height="71.539" fill="#ff495a"/>
        </g>
        <rect id="Rectángulo_20" data-name="Rectángulo 20" width="66.01" height="17.697" transform="translate(0 53.84)" fill="#e21c47"/>
      </g>
      <g id="Grupo_195" data-name="Grupo 195">
        <g id="Grupo_186" data-name="Grupo 186" transform="translate(20.328)">
          <path id="Trazado_210" data-name="Trazado 210" d="M270.831,826.123h13.607c.778-3.979,8.753-46.521,1.53-82.976-7.571-38.277-30.691-61-45.047-44.654s3.588,48.241,17.144,71.33C270.868,791.639,270.868,822.76,270.831,826.123Z" transform="translate(-235.629 -693.124)" fill="#00bd00" stroke="#6168ff" stroke-miterlimit="10" stroke-width="1"/>
        </g>
        <g id="Grupo_187" data-name="Grupo 187" transform="translate(37.297 26.385)">
          <path id="Trazado_211" data-name="Trazado 211" d="M278.221,829.8h3.6c3.632-59.606-23.292-105.359-23.575-105.819a1.793,1.793,0,0,0-3.069,1.846C255.437,726.284,281.858,771.251,278.221,829.8Z" transform="translate(-254.962 -723.185)" fill="#097c09" stroke="#6168ff" stroke-miterlimit="10" stroke-width="1"/>
        </g>
        <g id="Grupo_189" data-name="Grupo 189" transform="translate(72.307 15.06)">
          <path id="Trazado_212" data-name="Trazado 212" d="M340.932,710.282c-30.738,0-48.153,93.675-45.885,117.941h13.086c1.069-6.163,6.17-22.589,29.284-59.949C348.221,750.818,372.63,710.282,340.932,710.282Z" transform="translate(-294.85 -710.282)" fill="#00bd00" stroke="#6168ff" stroke-miterlimit="10" stroke-width="1"/>
        </g>
        <g id="Grupo_190" data-name="Grupo 190" transform="translate(77.898 40.871)">
          <path id="Trazado_213" data-name="Trazado 213" d="M336.317,739.925a1.8,1.8,0,0,0-2.451.67c-.283.506-26.387,47.036-32.646,91.22h3.627c6.269-43.3,31.86-88.957,32.154-89.451A1.8,1.8,0,0,0,336.317,739.925Z" transform="translate(-301.22 -739.689)" fill="#097c09" stroke="#6168ff" stroke-miterlimit="10" stroke-width="1"/>
        </g>
        <g id="Grupo_192" data-name="Grupo 192" transform="translate(0 50.113)">
          <path id="Trazado_214" data-name="Trazado 214" d="M265.973,833.106c.514-17.314-23.637-87.712-44.259-82.625-22.529,5.561,2.041,38.695,11.255,51.016,14.685,19.621,20.391,28.026,22.542,31.608Z" transform="translate(-212.469 -750.219)" fill="#00bd00" stroke="#6168ff" stroke-miterlimit="10" stroke-width="1"/>
        </g>
        <g id="Grupo_193" data-name="Grupo 193" transform="translate(13.235 67.877)">
          <path id="Trazado_215" data-name="Trazado 215" d="M263.92,835.582c-7-29.142-32.066-62.944-33.193-64.48a1.8,1.8,0,0,0-2.931,2.067l.053.072c.279.375,25.195,34.013,32.356,62.334Z" transform="translate(-227.548 -770.458)" fill="#097c09" stroke="#6168ff" stroke-miterlimit="10" stroke-width="1"/>
        </g>
      </g>
    </g>
    <g id="Grupo_29" data-name="Grupo 29" transform="translate(370.567 458.583)">
      <g id="Grupo_27" data-name="Grupo 27" transform="translate(0 1.416)">
        <g id="Grupo_7" data-name="Grupo 7" transform="translate(157.365 148.016)">
          <path id="Trazado_12" data-name="Trazado 12" d="M587.72,789.914s28.58,25.262,54.949,44.065a125.917,125.917,0,0,0,17.408,10.851c9.022,4.372,17.009,5.741,21.959,1.3,18.354-16.486,42.386-113.5,42.386-113.5a36.666,36.666,0,0,1-19.662-5.221s-10.273,24.733-21.721,43.369c-10.555,17.186-18.752,30.121-18.752,30.121-2.8-2.391-5.8-5.024-8.94-7.825-3.34-2.971-6.825-6.128-10.383-9.383-25.811-23.639-56.8-48.122-56.8-48.122Z" transform="translate(-587.72 -674.145)" fill="#542bd8"/>
          <path id="Trazado_13" data-name="Trazado 13" d="M735.586,726.046a17.606,17.606,0,0,1-18.159-11.959,14.5,14.5,0,0,1-.754-4.28c-.12-7.608-2.8-24.129,5.069-25.868,2.872-.635.617,7.217,4.247,12.884a108.164,108.164,0,0,0,11.571-11.969c3.872-4.975,12.34-13.663,16.289-17.657a1.513,1.513,0,0,1,2.575,1.368c-.635,2.378-2.73,6.255-8.351,12.432,0,0,14.287-14.227,17.7-12.937s-14.76,18.751-14.76,18.751,15.32-11.821,17.449-9.661c1.3,1.315-12.856,16.013-12.856,16.013s15.37-9.911,13.35-5.093c-.583,1.4-26.875,18.466-28.832,37.131A20.155,20.155,0,0,1,735.586,726.046Z" transform="translate(-603.424 -666.724)" fill="#f7ad89"/>
        </g>
        <g id="Grupo_11" data-name="Grupo 11" transform="translate(0 182.71)">
          <path id="Trazado_14" data-name="Trazado 14" d="M575.251,899.962c-10.956-41.83-3.175-88.182-1.774-118.062.574-12.145,1.458-41.934,1.458-41.934-5.487-4.649-35.2-27.622-35.2-27.622l-29.717-6.092s-60.255,10.457-77.68,35.854c-5.887,8.572-10.8,36.088-14.816,67.849q-.24,1.9-.478,3.81c-3.61,29.415-6.469,61.927-8.609,86.2Z" transform="translate(-408.429 -706.251)" fill="#6b5efd"/>
          <g id="Grupo_8" data-name="Grupo 8" transform="translate(85.649 15.937)">
            <path id="Trazado_15" data-name="Trazado 15" d="M532.408,751.8a1.495,1.495,0,0,0,.261-2.964c-18.225-3.272-23.666-23.11-23.717-23.31a1.495,1.495,0,0,0-2.891.758h0c.233.893,5.952,21.88,26.081,25.492A1.355,1.355,0,0,0,532.408,751.8Z" transform="translate(-506.012 -724.408)" fill="#542bd8"/>
          </g>
          <g id="Grupo_9" data-name="Grupo 9" transform="translate(61.728 124.479)">
            <path id="Trazado_16" data-name="Trazado 16" d="M487.668,895.384c20.637,0,40.117-10.785,53.424-20.445a171.884,171.884,0,0,0,26.963-24.392,1.493,1.493,0,0,0-2.254-1.96h0l-.02.024a168.662,168.662,0,0,1-26.5,23.947c-14.477,10.493-36.428,22.379-58.814,19.362a1.494,1.494,0,0,0-.455,2.954l.056.007A56.937,56.937,0,0,0,487.668,895.384Z" transform="translate(-478.758 -848.073)" fill="#542bd8"/>
          </g>
          <g id="Grupo_10" data-name="Grupo 10" transform="translate(82.652 163.849)">
            <path id="Trazado_17" data-name="Trazado 17" d="M505.249,912.841c26.552,0,45.824-16.595,46.645-17.313a1.495,1.495,0,0,0-1.968-2.25c-.194.169-19.282,16.574-44.707,16.574-.365,0-.726,0-1.091-.01H504.1a1.493,1.493,0,0,0-.026,2.986h0C504.465,912.836,504.86,912.841,505.249,912.841Z" transform="translate(-502.597 -892.929)" fill="#542bd8"/>
          </g>
        </g>
        <g id="Grupo_26" data-name="Grupo 26" transform="translate(11.694 206.983)">
          <path id="Trazado_36" data-name="Trazado 36" d="M664.226,875.6s26.744-.9,39.369,5.9,28.663,11.6,27.451,16.7-18.443-1.679-18.443-1.679-1.913,9.133-13.634,15.316-42.742-9.8-42.742-9.8Z" transform="translate(-450.426 -751.229)" fill="#f7ad89"/>
          <g id="Grupo_25" data-name="Grupo 25">
            <path id="Trazado_37" data-name="Trazado 37" d="M445.913,733.906c18.879,18.917,71.425,85.741,85.669,91.979,18.545,8.121,74.978,26.9,103.647,32.452,5.172,1-5.609,26.611-5.609,26.611s-80.52-6.637-112-18.732c-8.905-3.423-39.61-26.893-67.9-52.341-8.746-7.87-28.219-22.25-27.964-37.383C422.158,752.956,434.447,739.261,445.913,733.906Z" transform="translate(-421.752 -733.906)" fill="#542bd8"/>
          </g>
        </g>
        <g id="Grupo_553" data-name="Grupo 553" transform="translate(67.951)">
          <g id="Grupo_475" data-name="Grupo 475" transform="translate(30.871 169.256)">
            <path id="Trazado_1042" data-name="Trazado 1042" d="M521.352,714.783c-3.717,11.439,24.958,20.757,28.68,9.313l7.752-23.86-28.68-9.313Z" transform="translate(-521.02 -690.922)" fill="#f7ad89"/>
            <g id="Grupo_474" data-name="Grupo 474" transform="translate(0.03)" opacity="0.5">
              <path id="Trazado_1043" data-name="Trazado 1043" d="M521.356,714.783l7.752-23.861,28.68,9.313L553.38,713.8a41.428,41.428,0,0,0-30.521,7.832A7.235,7.235,0,0,1,521.356,714.783Z" transform="translate(-521.054 -690.922)" fill="#ffbe92"/>
            </g>
          </g>
          <g id="Grupo_481" data-name="Grupo 481">
            <g id="Grupo_476" data-name="Grupo 476" transform="translate(117.707 113.277)">
              <path id="Trazado_1044" data-name="Trazado 1044" d="M629.374,627.733c4.383-.541,9.538-1.657,13.188,2.037,4.856,4.923-.529,12.407-3.263,16.763-4.317,6.879-12.483,14.823-19.346,9.877Z" transform="translate(-619.954 -627.144)" fill="#ffbe92"/>
              <path id="Trazado_1045" data-name="Trazado 1045" d="M634.359,633.321a13.072,13.072,0,0,1,4.15.162,3.036,3.036,0,0,1,1.4.825c2.032,2.035-1.5,7.037-3.4,9.724l-.622.889c-2.795,4.022-6.122,6.779-8.59,7.8A66.557,66.557,0,0,1,634.359,633.321Z" transform="translate(-620.853 -627.887)" fill="#f2a46e"/>
            </g>
            <path id="Trazado_1046" data-name="Trazado 1046" d="M495.076,601.827c-5.262,33.08.712,83.462,39.747,93.039,1.847.44,3.636.865,5.4,1.181,6.712,1.332,12.93,1.629,19.949-.656,8.071-2.646,15.227-7.585,21.424-13.31a117.569,117.569,0,0,0,31.347-49.5,128.791,128.791,0,0,0,6.214-23.449,88.342,88.342,0,0,0,1.058-8.976c.748-11.347-.7-21.915-4.821-31-6.013-13.346-17.792-23.53-36.6-28.44-27.421-7.152-48.91-.144-63.492,15.642C504.864,567.675,497.982,583.5,495.076,601.827Z" transform="translate(-486.776 -502.955)" fill="#f7ad89"/>
            <g id="Grupo_477" data-name="Grupo 477" transform="translate(6.665 53.41)" opacity="0.5">
              <path id="Trazado_1047" data-name="Trazado 1047" d="M495.076,604.4c-5.263,33.081.711,83.462,39.745,93.039,1.848.441,3.636.865,5.4,1.18-32.212-15.847-37.284-43.371-38.071-69.736-1.841-60.451,40.786-42.915,50.826-40.873,13.243,2.689,24.708,3.363,37.021-2.418,3.528-1.656,8.255-3.441,11.387-5.79.07,8.869,5.722,16.6,12.856,21.561-3.091-6.431-.489-17.649-6.547-22.273-8.433-6.442-23.827-8.179-34.071-9.227a265.592,265.592,0,0,1-44.1-8.64,56.469,56.469,0,0,0-14.225-2.285C504.864,570.248,497.981,586.073,495.076,604.4Z" transform="translate(-493.441 -558.936)" fill="#ffbe92"/>
            </g>
            <g id="Grupo_479" data-name="Grupo 479">
              <path id="Trazado_1048" data-name="Trazado 1048" d="M503.91,592.032c-3.563-2.611-7.514-6.105-12.507-4.656-6.642,1.928-5.6,11.085-5.338,16.223.411,8.112,3.66,19.031,12.065,18.062Z" transform="translate(-485.848 -508.962)" fill="#ffbe92"/>
              <g id="Grupo_478" data-name="Grupo 478" transform="translate(0 78.074)" opacity="0.5">
                <path id="Trazado_1049" data-name="Trazado 1049" d="M503.91,592.032c-3.563-2.611-7.514-6.105-12.507-4.656-6.642,1.928-5.6,11.085-5.338,16.223.411,8.112,3.66,19.031,12.065,18.062Z" transform="translate(-485.848 -587.036)" fill="#ffbe92"/>
              </g>
              <path id="Trazado_1050" data-name="Trazado 1050" d="M628.185,596.659c-.073.121-.147.24-.219.361-2.415,3.9-4.845,7.787-7.378,11.729-1.754,2.726-4.943,8.8-4.943,8.8s-4.9,18.647-8.157,18.815c-.061-2.473,7.908-29.762,7.7-31.254a49.835,49.835,0,0,0-1.942-9.46c-2.15-5.988-6.91-9.954-8.4-16.445-.65-2.822-1.622-9.646-1.622-9.646s-17.272,7.884-27.271,8.183a135.576,135.576,0,0,1-32.394-3.14c-8.1-1.865-16.733-5.539-24.821-2.212-13.844,5.686-14.663,18.717-19.176,31.038-.9-.027-.635.08-1.383-.4-1.19-.763,1.881-9.479,2.329-10.891,1.8-5.73,3.441-16.3-6.126-15.783-3.061.164-2.5-13.671-2.249-14.769,1.728-7.726,2.814-15.152,5.892-22.556,8.87-21.324,29.643-37.954,53.345-40.551,24.193-2.645,54.171,8.089,66.154,30.562.788,1.474,1.256,4.984,2.36,6,1.353,1.258,5.48,1.29,7.362,2.23,9.1,4.546,11.275,18.034,11.337,27.321C638.648,575.244,633.76,587.546,628.185,596.659Z" transform="translate(-486.59 -498.084)" fill="#2e3062"/>
              <path id="Trazado_1051" data-name="Trazado 1051" d="M498.644,595c-7.65-5.04-7.928.283-7,9.37.471,4.881,2.032,8.9,3.687,11.007A66.45,66.45,0,0,0,498.644,595Z" transform="translate(-486.51 -509.698)" fill="#da8751"/>
            </g>
            <path id="Trazado_1190" data-name="Trazado 1190" d="M595.684,685.456c-6.553,13.935-27.657,27.041-48.471,22.818a96.681,96.681,0,0,1-15.833-4.1c-30.586-10.85-40.514-38.452-41.452-49.54-.622-7.373,8.022-37.166,8.022-37.166l3.194-3.83c-2.011,11.7-3.094,29.6,3.357,36.65,3.869,4.233,7.255,4.763,10.552,6.62,8.8,4.95,8.06-9.861,28.289,0,7.267,3.542,20.048,4.339,28.216,7.524,7.006,2.731,9.474,7.947,14.577,8.848a16.319,16.319,0,0,0,2.044.24c8.7.56,10.886-6.332,17.1-19.6.346-.756,2.991-1.382,3.356-2.19,0,0-.219.782-.649,2.19A258.66,258.66,0,0,1,595.684,685.456Z" transform="translate(-486.343 -512.215)" fill="#55578d"/>
            <path id="Trazado_1052" data-name="Trazado 1052" d="M577.562,676.85l-45.557-13.009S546.684,709.573,577.562,676.85Z" transform="translate(-491.492 -518.355)" fill="#fff"/>
            <g id="Grupo_480" data-name="Grupo 480" transform="translate(46.569 106.216)">
              <path id="Trazado_1053" data-name="Trazado 1053" d="M590.027,639.137c-1.11,3.888.061,7.633,2.616,8.36s5.528-1.831,6.637-5.721-.06-7.637-2.615-8.361S591.137,635.248,590.027,639.137Z" transform="translate(-545.106 -620.835)" fill="#2e3062"/>
              <path id="Trazado_1054" data-name="Trazado 1054" d="M539.326,624.944c-1.112,3.888.061,7.633,2.616,8.36s5.527-1.832,6.638-5.721-.059-7.637-2.616-8.361S540.436,621.055,539.326,624.944Z" transform="translate(-538.906 -619.1)" fill="#2e3062"/>
            </g>
            <path id="Trazado_1055" data-name="Trazado 1055" d="M594.679,616.219s11.916.516,18.3,6.216l.865-1.974s-10.087-8.415-20.671-9.072Z" transform="translate(-498.972 -511.94)" fill="#2e3062"/>
            <path id="Trazado_1056" data-name="Trazado 1056" d="M556.127,608.517S545.1,603.94,536.889,606.4l.054-2.163s12.715-3.345,22.6.542Z" transform="translate(-492.089 -510.902)" fill="#2e3062"/>
          </g>
        </g>
      </g>
      <g id="Grupo_28" data-name="Grupo 28" transform="translate(143.329 224.491)">
        <rect id="Rectángulo_1" data-name="Rectángulo 1" width="215.046" height="25.889" rx="2.789" transform="translate(0 127.279)" fill="#001030"/>
        <path id="Trazado_38" data-name="Trazado 38" d="M800.123,905.409l40.42-137.827c2.271-7.741-4.137-15.337-12.937-15.337H738.665c-6,0-11.271,3.634-12.891,8.895L681.26,905.409Z" transform="translate(-585.122 -752.241)" fill="#2e3062"/>
        <path id="Trazado_39" data-name="Trazado 39" d="M724.4,761.142,680.26,904.225H670.095l44.14-143.084c1.633-5.264,6.9-8.9,12.9-8.9h10.159C731.293,752.24,726.034,755.879,724.4,761.142Z" transform="translate(-583.757 -752.24)" fill="#001030"/>
        <path id="Trazado_40" data-name="Trazado 40" d="M757.952,842.759c-2.277,9.764,3.973,17.647,13.956,17.612s19.925-7.978,22.2-17.74-3.974-17.647-13.959-17.613S760.226,833,757.952,842.759Z" transform="translate(-594.444 -761.14)" fill="#524e82"/>
      </g>
      <g id="Grupo_634" data-name="Grupo 634" transform="translate(41.568 0)">
        <path id="Trazado_1296" data-name="Trazado 1296" d="M475.637,567.892a10.024,10.024,0,0,0-12.232,7.2l-7.295,28.174a10.046,10.046,0,0,0,7.2,12.231l2.672.693,12.327-47.606Z" transform="translate(-455.788 -505.166)" fill="#1f234f"/>
        <g id="Grupo_633" data-name="Grupo 633" transform="translate(145.74 91.962)">
          <path id="Trazado_1297" data-name="Trazado 1297" d="M661.478,605.9,647.6,601.543a6.424,6.424,0,0,0-1.6-.288c-2.91-.148-6.31,1.866-7.185,4.649l-18.492,54.383c-1.058,3.366,2.626,7.937,5.992,8.995l13.883,4.361a6.389,6.389,0,0,0,8.021-4.187l17.445-55.531A6.4,6.4,0,0,0,661.478,605.9Z" transform="translate(-621.834 -601.246)" fill="#1f234f"/>
          <path id="Trazado_1298" data-name="Trazado 1298" d="M669.794,620.955l-2.633-.828-14.738,46.915,2.633.827a10.025,10.025,0,0,0,12.583-6.567l8.723-27.765A10.047,10.047,0,0,0,669.794,620.955Z" transform="translate(-625.575 -603.555)" fill="#1f234f"/>
        </g>
        <path id="Trazado_1299" data-name="Trazado 1299" d="M630.83,530.657a79.146,79.146,0,0,0-137.7,13.361l12.524,3.243A66.36,66.36,0,0,1,632.106,580l12.384,3.207A79.181,79.181,0,0,0,630.83,530.657Z" transform="translate(-460.355 -496.471)" fill="#1f234f"/>
        <path id="Trazado_1300" data-name="Trazado 1300" d="M493.144,549S487,559.533,487,562.166l15.8,4.388s2.633-11.41,2.633-14.043Z" transform="translate(-459.605 -502.895)" fill="#1f234f"/>
        <path id="Trazado_1301" data-name="Trazado 1301" d="M651.156,589.572S648,602.236,648,604.869l15.8,2.633s-.147-13.131-.147-15.765Z" transform="translate(-479.294 -507.856)" fill="#1f234f"/>
        <path id="Trazado_1302" data-name="Trazado 1302" d="M559.3,694.965a9.971,9.971,0,0,0-6.133-4.625l-35.217-9.119a10.027,10.027,0,0,0-10.807,4.112l-.348.515-.6-.155-14.721-3.812a26.374,26.374,0,0,1-18.9-32.106l4.56-17.609.219-.85.85.219,3.521.912a6.416,6.416,0,0,0,1.609.206c2.913,0,7.408-1.03,8.139-3.854l13.337-54.769c.429-1.655-.51-5.9-1.376-7.371a6.36,6.36,0,0,0-3.91-2.948l-14.087-3.647a6.389,6.389,0,0,0-7.8,4.59L463.045,621a6.4,6.4,0,0,0,4.59,7.8l3.522.912.85.22-.22.85-4.56,17.609a31.9,31.9,0,0,0,22.859,38.833l14.721,3.812.6.156.054.618a10.057,10.057,0,0,0,7.455,8.842l35.215,9.118a10.024,10.024,0,0,0,12.231-7.2A9.971,9.971,0,0,0,559.3,694.965Z" transform="translate(-456.651 -504.223)" fill="#1f234f"/>
      </g>
    </g>
    <g id="Grupo_69" data-name="Grupo 69" transform="translate(222.775 368.552)">
      <rect id="Rectángulo_4" data-name="Rectángulo 4" width="113.921" height="217.461" rx="2.691" transform="matrix(0.995, -0.098, 0.098, 0.995, 0, 16.025)" fill="#524e82"/>
      <g id="Grupo_35" data-name="Grupo 35" transform="translate(1.004)">
        <g id="Grupo_34" data-name="Grupo 34">
          <g id="Grupo_33" data-name="Grupo 33" transform="translate(29.526 7.518)">
            <path id="Trazado_45" data-name="Trazado 45" d="M330.5,402.461l-3.4,4.581a5.272,5.272,0,0,0-.975,3.651,4.791,4.791,0,0,1-4.029,5.424l-36.36,3.583a4.792,4.792,0,0,1-5.011-4.534,5.275,5.275,0,0,0-1.669-3.391l-4.23-3.829Z" transform="translate(-274.829 -402.461)" fill="#2e3062"/>
            <ellipse id="Elipse_2" data-name="Elipse 2" cx="1.887" cy="2.08" rx="1.887" ry="2.08" transform="matrix(0.995, -0.098, 0.098, 0.995, 41.312, 5.645)" fill="#524e82"/>
            <path id="Rectángulo_3" data-name="Rectángulo 3" d="M286.981,411.949l27.135-2.673a.936.936,0,0,1,.98.887l.216,2.192a.935.935,0,0,1-.787,1.06l-27.136,2.674a.936.936,0,0,1-.979-.887l-.216-2.192A.936.936,0,0,1,286.981,411.949Z" transform="translate(-276.218 -403.294)" fill="#524e82"/>
          </g>
          <path id="Trazado_1303" data-name="Trazado 1303" d="M342.962,393.942l-92.331,9.1c-5.808.568-10.008,6.218-9.38,12.617h0v.012h0L261.383,620c.63,6.4,5.852,11.13,11.662,10.558h0l92.331-9.1c5.81-.573,10.009-6.227,9.378-12.631L354.625,404.5C353.994,398.1,348.773,393.37,342.962,393.942Zm26.615,216.1a4.9,4.9,0,0,1-4.105,5.56h0l-93.626,9.225a4.907,4.907,0,0,1-5.142-4.64L246.432,414.447a5.311,5.311,0,0,1-.019-.843,5.092,5.092,0,0,1,2.37-4.129,4.233,4.233,0,0,1,.9-.411,4.442,4.442,0,0,1,.88-.18l93.6-9.222a4.914,4.914,0,0,1,5.137,4.649Z" transform="translate(-241.189 -393.896)" fill="#2e3062"/>
        </g>
      </g>
      <g id="Grupo_68" data-name="Grupo 68" transform="translate(47.25 175.929)">
        <circle id="Elipse_4" data-name="Elipse 4" cx="10.214" cy="10.214" r="10.214" transform="translate(0 3.389)" fill="#f43853"/>
        <path id="Trazado_78" data-name="Trazado 78" d="M304.7,609.125s-1.819.077-2,.553c-.272.706.255,2.157-1.916,2.243s-1.633-1.8-1.439-2.347.527-1.547,5.2-2.008,5.2.453,5.493.954,1.193,2.245-.954,2.583-1.913-1.188-2.315-1.826C306.5,608.848,304.7,609.125,304.7,609.125Z" transform="translate(-294.522 -595.939)" fill="#fff"/>
        <circle id="Elipse_4-2" data-name="Elipse 4" cx="10.214" cy="10.214" r="10.214" transform="translate(34.401)" fill="#00bd00"/>
        <path id="Trazado_78-2" data-name="Trazado 78" d="M343.813,605.614s1.265,1.309,1.741,1.13c.708-.265,1.444-1.622,2.95-.056s-.263,2.417-.8,2.635-1.507.633-4.954-2.559-3.109-4.187-2.932-4.742.888-2.381,2.566-1,.381,2.219.169,2.945C342.411,604.451,343.813,605.614,343.813,605.614Z" transform="translate(-299.484 -595.092)" fill="#fff"/>
      </g>
      <g id="Grupo_636" data-name="Grupo 636" transform="translate(33.281 46.387)">
        <g id="Grupo_635" data-name="Grupo 635" clip-path="url(#clip-path)">
          <rect id="Rectángulo_103" data-name="Rectángulo 103" width="79.936" height="83.948" transform="matrix(0.995, -0.098, 0.098, 0.995, -10.586, 1.862)" fill="#fff"/>
          <g id="Grupo_66" data-name="Grupo 66" transform="translate(8.003 4.44)">
            <g id="Grupo_65" data-name="Grupo 65">
              <g id="Grupo_54" data-name="Grupo 54" transform="translate(0 45.237)">
                <g id="Grupo_51" data-name="Grupo 51">
                  <g id="Grupo_50" data-name="Grupo 50">
                    <g id="Grupo_49" data-name="Grupo 49">
                      <path id="Trazado_54" data-name="Trazado 54" d="M339.814,519.025l1.51,15.321a2.376,2.376,0,0,1-2.124,2.6h0l-47.882,4.718a2.38,2.38,0,0,1-2.605-2.131h0L287.2,524.209c-.746-7.574,2.219-10.5,2.219-10.5a45.553,45.553,0,0,1,9.236-5.985c.056-.035,8.99-4.06,9.047-4.105l9.728-.272c1.228.566,7.846,1.861,11.863,3.358.608.228.966.36,1.318.51a14.539,14.539,0,0,1,5.99,4.111A21.3,21.3,0,0,1,339.814,519.025Z" transform="translate(-287.082 -503.344)" fill="#ff495a"/>
                    </g>
                  </g>
                </g>
                <g id="Grupo_52" data-name="Grupo 52" transform="translate(8.474 26.113)">
                  <path id="Trazado_55" data-name="Trazado 55" d="M298.22,533.627l-.531,11.166-.953.094.536-11.3a.475.475,0,0,1,.951-.023A.431.431,0,0,1,298.22,533.627Z" transform="translate(-296.736 -533.096)" fill="#e21c47"/>
                </g>
                <g id="Grupo_53" data-name="Grupo 53" transform="translate(46.24 25.079)">
                  <path id="Trazado_56" data-name="Trazado 56" d="M342.639,540.739l-.952.094-1.915-8.356a.475.475,0,0,1,.926-.211Z" transform="translate(-339.764 -531.917)" fill="#e21c47"/>
                </g>
                <path id="Trazado_57" data-name="Trazado 57" d="M325,522.852l10.148-1s1.158,8.939-4.138,9.461C325.538,531.851,325,522.852,325,522.852Z" transform="translate(-291.718 -505.607)" fill="#e21c47"/>
              </g>
              <g id="Grupo_64" data-name="Grupo 64" transform="translate(6.492)">
                <path id="Trazado_58" data-name="Trazado 58" d="M323.322,469.441s5.216-2.418,4.262-6.565c-.81-3.529-4.55-.822-4.476-3.65s.6-5.446-2.885-5.808c-3.047-.318-2.884,1.855-7.116-.9-5-3.257-7.712,5.693-11.822,6.358-6.063.982-6.474,4.711-6.786,7.691s2.976,6.121,2.976,6.121Z" transform="translate(-294.478 -451.804)" fill="#2e3062"/>
                <g id="Grupo_57" data-name="Grupo 57" transform="translate(28.416 22.108)">
                  <path id="Trazado_59" data-name="Trazado 59" d="M326.98,478.748s1.969-3.246,3.9-.912.276,9.95-4.029,8.555Z" transform="translate(-326.853 -476.992)" fill="#fa8465"/>
                  <g id="Grupo_55" data-name="Grupo 55" transform="translate(0.291 2.566)">
                    <path id="Trazado_60" data-name="Trazado 60" d="M327.569,484.377a.349.349,0,0,0,.311-.287,5.414,5.414,0,0,1,2.709-3.51.351.351,0,1,0-.312-.628h0a6.038,6.038,0,0,0-3.087,4.016.35.35,0,0,0,.284.406h0A.341.341,0,0,0,327.569,484.377Z" transform="translate(-327.185 -479.915)" fill="#fa664d"/>
                  </g>
                  <g id="Grupo_56" data-name="Grupo 56" transform="translate(1.312 4.133)">
                    <path id="Trazado_61" data-name="Trazado 61" d="M329.983,483.213a.342.342,0,0,0,.183-.074.351.351,0,0,0,.057-.493h0a3.2,3.2,0,0,0-1.413-.927.351.351,0,1,0-.222.665h0a2.529,2.529,0,0,1,1.086.7A.351.351,0,0,0,329.983,483.213Z" transform="translate(-328.347 -481.701)" fill="#fa664d"/>
                  </g>
                </g>
                <path id="Trazado_62" data-name="Trazado 62" d="M308.883,496.6l.723,7.341s2.558,3.524,5.545,3.485,5.27-3.771,5.27-3.771l-.749-7.6Z" transform="translate(-296.24 -457.215)" fill="#f7ad89"/>
                <path id="Trazado_63" data-name="Trazado 63" d="M308.883,496.6l.32,3.257c2.2,2.009,5.787,2.212,10.933.926l-.466-4.726Z" transform="translate(-296.24 -457.215)" fill="#fa8465"/>
                <path id="Trazado_64" data-name="Trazado 64" d="M324.527,474.737c.047.743.084,1.52.1,2.321.009.293.013.592.013.891.008,1.218-.032,2.479-.135,3.74a.111.111,0,0,1,0,.018c0,.02,0,.051-.005.1l-.025.259c-.018.176-.034.355-.056.539-.028.276-.061.564-.1.857-.66,4.891-2.45,9.518-6.566,11.459-9.776,4.612-14.587-2.891-16.865-8.179-.157-.358-.3-.71-.431-1.046-.224-.571-.439-1.213-.642-1.9l0,0a.1.1,0,0,1-.007-.026v-.007c-.442-1.5-.822-3.2-1.149-4.9-.285-1.48-.522-2.955-.718-4.279a7.626,7.626,0,0,1,.025-2.4c.031-.187.07-.376.117-.56.025-.095.049-.186.075-.279q.082-.273.179-.541c.067-.178.14-.355.217-.527s.166-.341.257-.506v0a7.306,7.306,0,0,1,.451-.722,7.779,7.779,0,0,1,1.36-1.475c.147-.122.3-.242.462-.355a7.93,7.93,0,0,1,1.013-.607c4.268-2.143,10.872-4.155,17.617-1.165a7.7,7.7,0,0,1,3.487,3.084c.086.14.165.285.241.432.047.092.093.185.135.281.089.19.168.382.241.579a5.7,5.7,0,0,1,.183.56,7.658,7.658,0,0,1,.24,1.2C324.347,472.509,324.452,473.578,324.527,474.737Z" transform="translate(-294.891 -453.286)" fill="#f7ad89"/>
                <g id="Grupo_58" data-name="Grupo 58" transform="translate(16.464 38.884)">
                  <path id="Trazado_65" data-name="Trazado 65" d="M315.1,497.336a3.538,3.538,0,0,1-1.693-.377.356.356,0,0,1,.333-.628h0a2.867,2.867,0,0,0,1.315.3,3.013,3.013,0,0,0,1.336-.471.356.356,0,0,1,.406.583A3.709,3.709,0,0,1,315.1,497.336Z" transform="translate(-313.236 -496.106)" fill="#fa8465"/>
                </g>
                <path id="Trazado_66" data-name="Trazado 66" d="M307.109,481.058c.077.783.544,1.379,1.042,1.33s.839-.724.762-1.508-.544-1.379-1.042-1.33S307.032,480.273,307.109,481.058Z" transform="translate(-296.022 -455.197)" fill="#2e3062"/>
                <path id="Trazado_67" data-name="Trazado 67" d="M319.593,479.828c.077.783.543,1.379,1.041,1.33s.839-.724.762-1.508-.544-1.379-1.041-1.33S319.516,479.043,319.593,479.828Z" transform="translate(-297.548 -455.046)" fill="#2e3062"/>
                <path id="Trazado_68" data-name="Trazado 68" d="M303.328,475.974s3.583-1.841,6.575-.883l-.129,1.625s-4.248.061-6.285,1.126A2.779,2.779,0,0,1,303.328,475.974Z" transform="translate(-295.549 -454.618)" fill="#2e3062"/>
                <path id="Trazado_69" data-name="Trazado 69" d="M322.607,474.1s-3.9-1.114-6.67.42l.448,1.579s4.209-.777,6.432-.121A2.806,2.806,0,0,0,322.607,474.1Z" transform="translate(-297.102 -454.482)" fill="#2e3062"/>
                <g id="Grupo_59" data-name="Grupo 59" transform="translate(15.927 24.742)">
                  <path id="Trazado_70" data-name="Trazado 70" d="M314.154,486.887a3.717,3.717,0,0,1-1.288-.141.35.35,0,0,1,.2-.671,2.1,2.1,0,0,0,1.412-.006.381.381,0,0,0,.139-.341,52.317,52.317,0,0,0-.737-5.321.351.351,0,0,1,.69-.125,51.814,51.814,0,0,1,.748,5.448,1.069,1.069,0,0,1-.423.9A1.469,1.469,0,0,1,314.154,486.887Z" transform="translate(-312.625 -479.993)" fill="#fa8465"/>
                </g>
                <path id="Trazado_71" data-name="Trazado 71" d="M318.515,490.382c-.134,1.359-.772,3.9-3.736,4.189s-4.026-1.865-4.464-3.381Z" transform="translate(-296.415 -456.522)" fill="#fff9ff"/>
                <path id="Trazado_72" data-name="Trazado 72" d="M324.526,474.737c.048.743.085,1.52.1,2.321.009.293.013.592.013.891.008,1.218-.033,2.479-.134,3.74l-1.518-.154s.635-4.639.13-6.29-2-2.506-1.69-4.176-1.585-3.249-2.879-3.413-4.2,1.948-7.111.535-7.024-.609-8.741,1.028-.079,4.328-1.38,4.822-.051,3.5.276,5.053c.32,1.5.856,3.5.887,3.621l-1.745.214-1.013-3.166c-.623-.2-.734-.708-1.07-.906-.285-1.48-.522-2.955-.718-4.28a7.621,7.621,0,0,1,.025-2.4c.032-.187.07-.376.117-.56.025-.095.049-.186.075-.279.054-.182.114-.363.179-.541s.14-.355.217-.527.166-.341.257-.507v0a7.6,7.6,0,0,1,.452-.723,7.781,7.781,0,0,1,1.36-1.475c.15-.122.3-.241.461-.354a7.8,7.8,0,0,1,1.013-.607c4.269-2.144,10.873-4.155,17.617-1.165a7.7,7.7,0,0,1,3.49,3.083c.087.143.165.288.242.431.047.093.093.186.135.281.09.188.168.383.241.58a5.488,5.488,0,0,1,.183.56,7.471,7.471,0,0,1,.244,1.2C324.348,472.512,324.452,473.581,324.526,474.737Z" transform="translate(-294.891 -453.286)" fill="#2e3062"/>
                <g id="Grupo_63" data-name="Grupo 63" transform="translate(0.818 24.881)">
                  <path id="Trazado_73" data-name="Trazado 73" d="M300.008,482.523a3.045,3.045,0,0,0-1.7-2.153,1.787,1.787,0,0,0-2.542.933c-1.439,2.666,1.672,9.813,5.621,7.6Z" transform="translate(-295.411 -480.151)" fill="#f7ad89"/>
                  <g id="Grupo_60" data-name="Grupo 60" transform="translate(0.891 2.738)">
                    <path id="Trazado_74" data-name="Trazado 74" d="M300.387,487.1a.348.348,0,0,1-.36-.221,5.42,5.42,0,0,0-3.341-2.914.35.35,0,1,1,.183-.677,6.036,6.036,0,0,1,3.812,3.336.35.35,0,0,1-.2.454A.337.337,0,0,1,300.387,487.1Z" transform="translate(-296.426 -483.271)" fill="#fa8465"/>
                  </g>
                  <g id="Grupo_62" data-name="Grupo 62" transform="translate(1.972 3.909)">
                    <g id="Grupo_61" data-name="Grupo 61">
                      <path id="Trazado_75" data-name="Trazado 75" d="M298.042,486.346a.346.346,0,0,1-.194-.037.35.35,0,0,1-.152-.471v0a3.192,3.192,0,0,1,1.205-1.184.35.35,0,1,1,.348.608,2.533,2.533,0,0,0-.929.9A.352.352,0,0,1,298.042,486.346Z" transform="translate(-297.658 -484.605)" fill="#fa8465"/>
                    </g>
                  </g>
                </g>
              </g>
            </g>
          </g>
        </g>
      </g>
      <g id="Grupo_637" data-name="Grupo 637" transform="translate(33.418 126.227)">
        <g id="Trazado_1304" data-name="Trazado 1304" transform="translate(-278.12 -538.209)" fill="#fff" stroke-miterlimit="10">
          <path d="M280.682,541.945l1.547-.152.791,8.019c.313,3.184-1.156,4.316-3.218,4.518a5.044,5.044,0,0,1-1.682-.121l.106-1.286a3.7,3.7,0,0,0,1.321.1c1.388-.136,2.143-.84,1.913-3.186Z" stroke="none"/>
          <path d="M 282.2285461425781 541.7930297851562 L 283.0193786621094 549.811767578125 C 283.3327026367188 552.9953002929688 281.8634338378906 554.1275024414062 279.8016967773438 554.3302612304688 C 279.651123046875 554.3450927734375 279.490966796875 554.3521118164062 279.3292846679688 554.3521118164062 C 278.8802185058594 554.3521118164062 278.41943359375 554.2982177734375 278.1199645996094 554.2091064453125 L 278.2261962890625 552.9232788085938 C 278.4760131835938 552.9931640625 278.8049926757812 553.0452270507812 279.1715393066406 553.0452270507812 C 279.2931213378906 553.0452270507812 279.4188232421875 553.0394897460938 279.5471496582031 553.0267944335938 C 280.9347839355469 552.8908081054688 281.6905212402344 552.1868896484375 281.4596862792969 549.8406982421875 L 280.6820068359375 541.9448852539062 L 282.2285461425781 541.7930297851562 Z" stroke="none" fill="#fff"/>
        </g>
        <g id="Trazado_1305" data-name="Trazado 1305" transform="translate(-279.06 -538.564)" fill="#fff" stroke-miterlimit="10">
          <path d="M294.233,548.742a4.226,4.226,0,0,1-3.836,4.992,4.111,4.111,0,0,1-4.561-4.021c-.284-2.881,1.435-4.755,3.817-4.991C292.125,544.479,293.973,546.111,294.233,548.742Zm-6.82.763c.186,1.884,1.41,3.2,2.94,3.049,1.493-.147,2.475-1.662,2.285-3.6-.144-1.458-1.056-3.235-2.9-3.054S287.252,547.868,287.413,549.5Z" stroke="none"/>
          <path d="M 290.1328735351562 544.69873046875 C 292.3611450195312 544.69873046875 293.9901123046875 546.284423828125 294.2328186035156 548.7416381835938 C 294.546142578125 551.9251708984375 292.478271484375 553.5296630859375 290.3971862792969 553.734130859375 C 290.243408203125 553.7493286132812 290.0911865234375 553.7568359375 289.9409790039062 553.7568359375 C 287.8165588378906 553.7568359375 286.0865783691406 552.2545166015625 285.8357543945312 549.7133178710938 C 285.55224609375 546.8327026367188 287.2708129882812 544.9578857421875 289.6528930664062 544.72265625 C 289.815673828125 544.7066650390625 289.9757690429688 544.69873046875 290.1328735351562 544.69873046875 Z M 290.1159362792969 552.5653686523438 C 290.1941833496094 552.5653686523438 290.2733154296875 552.5614624023438 290.3533325195312 552.5535888671875 C 291.8463134765625 552.406982421875 292.8284606933594 550.8912353515625 292.6380004882812 548.9532470703125 C 292.5009460449219 547.5648803710938 291.6673583984375 545.8869018554688 289.9918823242188 545.8868408203125 C 289.9079284667969 545.8868408203125 289.8218994140625 545.8910522460938 289.7336730957031 545.8997192382812 C 287.8843383789062 546.082275390625 287.2523803710938 547.868408203125 287.4129943847656 549.50439453125 C 287.5893249511719 551.290283203125 288.6982727050781 552.5653686523438 290.1159362792969 552.5653686523438 Z" stroke="none" fill="#fff"/>
        </g>
        <g id="Trazado_1306" data-name="Trazado 1306" transform="translate(-280.432 -538.444)" fill="#fff" stroke-miterlimit="10">
          <path d="M297.64,551.223a4.115,4.115,0,0,0,2.124.419c1.138-.112,1.616-.734,1.546-1.445-.074-.747-.559-1.112-1.756-1.425-1.6-.4-2.415-1.181-2.516-2.212-.137-1.387.872-2.635,2.721-2.817a4.314,4.314,0,0,1,2.168.325l-.279,1.177a3.356,3.356,0,0,0-1.809-.325c-.925.091-1.388.675-1.324,1.316.07.711.617.98,1.779,1.3,1.55.422,2.388,1.094,2.514,2.374.149,1.511-.919,2.694-2.964,2.895a4.923,4.923,0,0,1-2.476-.348Z" stroke="none"/>
          <path d="M 299.2759399414062 552.828857421875 C 298.54736328125 552.828857421875 297.8763732910156 552.6888427734375 297.366455078125 552.4524536132812 L 297.6402893066406 551.2227783203125 C 298.0686950683594 551.446533203125 298.76708984375 551.656982421875 299.4569702148438 551.656982421875 C 299.5599670410156 551.656982421875 299.6626281738281 551.6522827148438 299.7643127441406 551.6422729492188 C 300.9018249511719 551.5299072265625 301.3802185058594 550.9085083007812 301.3099975585938 550.1975708007812 C 301.2362670898438 549.45068359375 300.7508850097656 549.0855712890625 299.5536804199219 548.772216796875 C 297.9518432617188 548.3736572265625 297.1390991210938 547.5916748046875 297.0372924804688 546.560302734375 C 296.9003601074219 545.1735229492188 297.9088745117188 543.9254760742188 299.7581787109375 543.742919921875 C 299.9126586914062 543.7276611328125 300.0646667480469 543.7205810546875 300.2129211425781 543.7205810546875 C 300.9003601074219 543.7205810546875 301.5088195800781 543.8727416992188 301.9261474609375 544.0676879882812 L 301.6470336914062 545.24462890625 C 301.3399047851562 545.089599609375 300.8169860839844 544.9035034179688 300.169921875 544.9035034179688 C 300.0625610351562 544.9035034179688 299.9518737792969 544.9086303710938 299.8380737304688 544.9198608398438 C 298.9129638671875 545.0111694335938 298.4504089355469 545.5949096679688 298.5135803222656 546.235595703125 C 298.5838317871094 546.946533203125 299.130615234375 547.2160034179688 300.2926940917969 547.531982421875 C 301.8427734375 547.9541625976562 302.6809692382812 548.6256713867188 302.8064575195312 549.9061889648438 C 302.9557189941406 551.4176025390625 301.8875427246094 552.599853515625 299.8424377441406 552.8008422851562 C 299.6510314941406 552.8197631835938 299.4616088867188 552.828857421875 299.2759399414062 552.828857421875 Z" stroke="none" fill="#fff"/>
        </g>
        <g id="Trazado_1307" data-name="Trazado 1307" transform="translate(-281.402 -537.816)" fill="#fff" stroke-miterlimit="10">
          <path d="M306.5,547.376a2.771,2.771,0,0,0,3.247,2.7,5.676,5.676,0,0,0,2.338-.679l.377,1.094a7,7,0,0,1-2.81.815,4.015,4.015,0,0,1-4.66-3.922c-.256-2.6,1.072-4.792,3.579-5.038,2.81-.277,3.8,2.121,3.956,3.7a6.133,6.133,0,0,1,.018.734Zm4.477-1.572a2.238,2.238,0,0,0-2.42-2.329,2.605,2.605,0,0,0-2.15,2.78Zm-.334-7.221-1.919,2.757-1.121.111,1.315-2.7Z" stroke="none"/>
          <path d="M 309.0937194824219 551.3299560546875 C 306.7567749023438 551.330078125 305.2286987304688 549.7899780273438 304.9916381835938 547.38037109375 C 304.7353820800781 544.784912109375 306.0633239746094 542.5888671875 308.5709533691406 542.34228515625 C 308.7216796875 542.327392578125 308.8676452636719 542.3201904296875 309.008056640625 542.3201904296875 C 311.4848022460938 542.3201904296875 312.3789672851562 544.548583984375 312.5267639160156 546.0462036132812 C 312.5574951171875 546.3656616210938 312.5469665527344 546.6176147460938 312.5451965332031 546.7799682617188 L 306.4986877441406 547.3759155273438 C 306.7220458984375 549.3091430664062 307.9458618164062 550.0919799804688 309.3518371582031 550.0919799804688 C 309.4816589355469 550.0919799804688 309.6130065917969 550.0853271484375 309.7453002929688 550.072265625 C 310.8652954101562 549.961669921875 311.5218200683594 549.7001342773438 312.0835266113281 549.3928833007812 L 312.4609680175781 550.4865112304688 C 311.934326171875 550.7902221679688 311.019775390625 551.166748046875 309.6514282226562 551.3018798828125 C 309.4609069824219 551.3206787109375 309.2747497558594 551.3299560546875 309.0937194824219 551.3299560546875 Z M 308.8291625976562 543.460693359375 C 308.7413940429688 543.460693359375 308.6504821777344 543.4651489257812 308.5560302734375 543.4744873046875 C 306.9735107421875 543.6298828125 306.424072265625 545.1571044921875 306.4065246582031 546.2542114257812 L 310.9758605957031 545.803955078125 C 310.9002685546875 544.8594970703125 310.3772888183594 543.460693359375 308.8291625976562 543.460693359375 Z M 307.6028442382812 541.4505004882812 L 308.9176330566406 538.7532348632812 L 310.642333984375 538.5830078125 L 308.7236633300781 541.3399047851562 L 307.6028442382812 541.4505004882812 Z" stroke="none" fill="#fff"/>
        </g>
        <g id="Trazado_1308" data-name="Trazado 1308" transform="translate(-283.162 -537.709)" fill="#fff" stroke-miterlimit="10">
          <path d="M319.351,538.276a18.024,18.024,0,0,1,2.946-.523,4.946,4.946,0,0,1,3.459.664,3.239,3.239,0,0,1,1.3,2.4,3.547,3.547,0,0,1-.673,2.652,4.989,4.989,0,0,1-3.534,1.677,5.358,5.358,0,0,1-1.255.016l.473,4.8-1.547.153Zm2.116,5.627a5.228,5.228,0,0,0,1.293,0c1.867-.184,2.915-1.2,2.753-2.857-.156-1.583-1.352-2.236-3.059-2.069a6.535,6.535,0,0,0-1.446.269Z" stroke="none"/>
          <path d="M 323.14501953125 537.709228515625 C 324.2603149414062 537.709228515625 325.1318664550781 537.95751953125 325.7565307617188 538.4172973632812 C 326.4701232910156 538.9212036132812 326.9476013183594 539.7540893554688 327.0529174804688 540.8204956054688 C 327.1591186523438 541.9053344726562 326.9230041503906 542.791015625 326.3797302246094 543.4721069335938 C 325.6476745605469 544.4243774414062 324.3583679199219 545.0001220703125 322.8460693359375 545.1493530273438 C 322.5715637207031 545.176513671875 322.3087768554688 545.1959228515625 322.0641174316406 545.1959228515625 C 321.8973083496094 545.1959228515625 321.7389526367188 545.1868896484375 321.5909423828125 545.1651611328125 L 322.0639953613281 549.9662475585938 L 320.5174865722656 550.1189575195312 L 319.3510131835938 538.2760009765625 C 320.0856628417969 538.0785522460938 321.0529174804688 537.8748779296875 322.2974853515625 537.7528686523438 C 322.5940551757812 537.7235717773438 322.8766174316406 537.709228515625 323.14501953125 537.709228515625 Z M 322.026123046875 543.9420166015625 C 322.2478942871094 543.9420166015625 322.4924011230469 543.9276733398438 322.7600402832031 543.9012451171875 C 324.6269226074219 543.7169799804688 325.6749267578125 542.6979370117188 325.5125427246094 541.0443115234375 C 325.3721313476562 539.6222534179688 324.3923950195312 538.9500732421875 322.9564208984375 538.9500122070312 C 322.7944030761719 538.9500122070312 322.6267700195312 538.9585571289062 322.4537048339844 538.9755249023438 C 321.7787780761719 539.0422973632812 321.2679138183594 539.146728515625 321.0081481933594 539.244140625 L 321.4671630859375 543.903076171875 C 321.6340942382812 543.9296875 321.8203125 543.9420166015625 322.026123046875 543.9420166015625 Z" stroke="none" fill="#fff"/>
        </g>
        <g id="Trazado_1309" data-name="Trazado 1309" transform="translate(-284.425 -538.039)" fill="#fff" stroke-miterlimit="10">
          <path d="M331.22,545.461a2.77,2.77,0,0,0,3.246,2.7,5.668,5.668,0,0,0,2.339-.679l.377,1.095a7.017,7.017,0,0,1-2.81.815,4.016,4.016,0,0,1-4.66-3.922c-.255-2.6,1.072-4.791,3.579-5.039,2.81-.276,3.8,2.121,3.956,3.7a5.944,5.944,0,0,1,.018.734Zm4.477-1.572a2.239,2.239,0,0,0-2.42-2.33,2.605,2.605,0,0,0-2.15,2.78Z" stroke="none"/>
          <path d="M 333.8151245117188 549.4153442382812 C 331.4775390625 549.4154663085938 329.9495544433594 547.8759765625 329.711669921875 545.4658813476562 C 329.4562072753906 542.86962890625 330.7833251953125 540.6744384765625 333.2909545898438 540.4269409179688 C 333.4413452148438 540.4121704101562 333.5868225097656 540.4049682617188 333.7269287109375 540.4049682617188 C 336.2043762207031 540.4049682617188 337.0989074707031 542.633056640625 337.2467651367188 544.1309204101562 C 337.2784118652344 544.4503784179688 337.2669677734375 544.703125 337.2651977539062 544.8646240234375 L 331.2195739746094 545.4606323242188 C 331.4429016113281 547.3944702148438 332.6658020019531 548.1766357421875 334.0714111328125 548.1766967773438 C 334.201416015625 548.1766967773438 334.3328247070312 548.1699829101562 334.4653015136719 548.1569213867188 C 335.5861511230469 548.0472412109375 336.2418212890625 547.7847900390625 336.8044128417969 547.4776000976562 L 337.1818237304688 548.5721435546875 C 336.6552429199219 548.8749389648438 335.7406311035156 549.2522583007812 334.3714294433594 549.387451171875 C 334.181396484375 549.4061279296875 333.9957275390625 549.4153442382812 333.8151245117188 549.4153442382812 Z M 333.5489196777344 541.5454711914062 C 333.4615173339844 541.5454711914062 333.3709716796875 541.5499267578125 333.2769470214844 541.5591430664062 C 331.6943969726562 541.7154541015625 331.1440734863281 543.2417602539062 331.1274108886719 544.3389282226562 L 335.6967468261719 543.888671875 C 335.6203002929688 542.9439697265625 335.0978393554688 541.5454711914062 333.5489196777344 541.5454711914062 Z" stroke="none" fill="#fff"/>
        </g>
        <g id="Trazado_1310" data-name="Trazado 1310" transform="translate(-285.687 -537.913)" fill="#fff" stroke-miterlimit="10">
          <path d="M340.332,542.64c-.1-1.014-.2-1.883-.336-2.678l1.369-.135.219,1.684.072-.007a2.593,2.593,0,0,1,2.2-2.12,1.719,1.719,0,0,1,.449.01l.146,1.475a2.443,2.443,0,0,0-.539,0,2.206,2.206,0,0,0-1.9,2.216,4.476,4.476,0,0,0,0,.736l.452,4.588-1.547.152Z" stroke="none"/>
          <path d="M 344.04638671875 539.3743286132812 C 344.1350708007812 539.3743286132812 344.2155151367188 539.381591796875 344.3029174804688 539.3942260742188 L 344.4486083984375 540.8696899414062 C 344.3638305664062 540.8597412109375 344.2797241210938 540.8544311523438 344.1888427734375 540.8544311523438 C 344.1037902832031 540.8544311523438 344.0127868652344 540.8590698242188 343.90966796875 540.8688354492188 C 342.8073120117188 540.9776000976562 342.1077575683594 541.8905029296875 342.0094909667969 543.0850219726562 C 341.9954223632812 543.3018188476562 341.9839782714844 543.5545654296875 342.0103149414062 543.8214111328125 L 342.4623718261719 548.4092407226562 L 340.9158325195312 548.56103515625 L 340.3321533203125 542.6400146484375 C 340.2321166992188 541.6262817382812 340.1285095214844 540.75732421875 339.9960021972656 539.962158203125 L 341.3652038574219 539.8269653320312 L 341.5846557617188 541.5112915039062 L 341.6566162109375 541.5042724609375 C 341.93310546875 540.3096923828125 342.8038024902344 539.4881591796875 343.853515625 539.3845825195312 C 343.9244384765625 539.3775634765625 343.9872436523438 539.3743286132812 344.04638671875 539.3743286132812 Z" stroke="none" fill="#fff"/>
        </g>
        <g id="Trazado_1311" data-name="Trazado 1311" transform="translate(-286.452 -537.839)" fill="#fff" stroke-miterlimit="10">
          <path d="M347.794,543.828a2.77,2.77,0,0,0,3.246,2.7,5.664,5.664,0,0,0,2.339-.679l.377,1.095a7.019,7.019,0,0,1-2.81.815,4.016,4.016,0,0,1-4.66-3.922c-.255-2.6,1.073-4.791,3.579-5.039,2.81-.276,3.8,2.121,3.956,3.7a5.773,5.773,0,0,1,.018.734Zm4.477-1.572a2.239,2.239,0,0,0-2.42-2.329,2.606,2.606,0,0,0-2.149,2.78Z" stroke="none"/>
          <path d="M 350.3892822265625 547.7824096679688 C 348.0516967773438 547.782470703125 346.5235900878906 546.2428588867188 346.2856750488281 543.8328857421875 C 346.0302429199219 541.2366333007812 347.3582458496094 539.0414428710938 349.864990234375 538.7939453125 C 350.015380859375 538.7791748046875 350.1608581542969 538.77197265625 350.3009643554688 538.77197265625 C 352.7785034179688 538.77197265625 353.6737670898438 541.0000610351562 353.82080078125 542.4978637695312 C 353.8524475097656 542.8173828125 353.8418884277344 543.0701293945312 353.8392333984375 543.231689453125 L 347.7935791015625 543.8275756835938 C 348.0169372558594 545.761474609375 349.2405700683594 546.5436401367188 350.6456298828125 546.543701171875 C 350.7755737304688 546.543701171875 350.9069213867188 546.5369873046875 351.0393371582031 546.52392578125 C 352.1601867675781 546.4142456054688 352.8167114257812 546.1517944335938 353.3784484863281 545.8446044921875 L 353.7558898925781 546.9391479492188 C 353.229248046875 547.2418823242188 352.3146667480469 547.6193237304688 350.9454345703125 547.7545166015625 C 350.7554016113281 547.773193359375 350.5698852539062 547.7824096679688 350.3892822265625 547.7824096679688 Z M 350.1229248046875 539.9124755859375 C 350.0355224609375 539.9124755859375 349.9449462890625 539.9169311523438 349.8509216308594 539.9261474609375 C 348.2684326171875 540.0823974609375 347.718994140625 541.6088256835938 347.7014465332031 542.7059326171875 L 352.2708129882812 542.255615234375 C 352.1951904296875 541.3109130859375 351.6719665527344 539.9124755859375 350.1229248046875 539.9124755859375 Z" stroke="none" fill="#fff"/>
        </g>
        <g id="Trazado_1312" data-name="Trazado 1312" transform="translate(-287.637 -537.712)" fill="#fff" stroke-miterlimit="10">
          <path d="M356.346,546.117l3.394-5.452c.328-.5.643-.943.989-1.444l0-.036-4.659.459-.125-1.262,6.562-.647.078.979-3.348,5.375c-.309.515-.622.978-.97,1.461l0,.035,5.032-.5.123,1.246-6.987.688Z" stroke="none"/>
          <path d="M 356.435302734375 547.02392578125 L 356.3457641601562 546.1172485351562 L 359.7398681640625 540.6657104492188 C 360.068115234375 540.1663818359375 360.3832397460938 539.7222900390625 360.72900390625 539.2219848632812 L 360.7255249023438 539.1859741210938 L 356.066650390625 539.64501953125 L 355.9420166015625 538.3828735351562 L 362.5037231445312 537.7360229492188 L 362.5818481445312 538.7154541015625 L 359.2342529296875 544.0906372070312 C 358.9253540039062 544.6058349609375 358.6119995117188 545.068359375 358.2644653320312 545.5511474609375 L 358.2679443359375 545.586181640625 L 363.2998046875 545.0902709960938 L 363.4227294921875 546.3358154296875 L 356.435302734375 547.02392578125 Z" stroke="none" fill="#fff"/>
        </g>
      </g>
      <g id="Grupo_638" data-name="Grupo 638" transform="translate(39.686 141.101)">
        <path id="Trazado_1313" data-name="Trazado 1313" d="M285.261,560.754l.78-.077.53,5.383,2.58-.254.064.653-3.359.331Z" transform="translate(-285.261 -555.392)" fill="#fff"/>
        <path id="Trazado_1314" data-name="Trazado 1314" d="M290.009,559.915l.788-.078.627,6.36-.788.077Z" transform="translate(-285.842 -555.29)" fill="#fff"/>
        <path id="Trazado_1315" data-name="Trazado 1315" d="M295.466,566.058l-.117-.54-.027,0a1.621,1.621,0,0,1-1.262.775,1.24,1.24,0,0,1-1.448-1.114c-.1-1.048.771-1.713,2.448-1.87l-.009-.089a.9.9,0,0,0-1.085-.907,2.175,2.175,0,0,0-1.1.435l-.23-.5a2.7,2.7,0,0,1,1.386-.525c1.325-.131,1.737.743,1.822,1.612l.16,1.62a6.145,6.145,0,0,0,.175,1.032Zm-.334-2.2c-.862.067-1.824.315-1.741,1.158a.7.7,0,0,0,.817.679,1.083,1.083,0,0,0,.977-.829.818.818,0,0,0,.02-.255Z" transform="translate(-286.159 -555.519)" fill="#fff"/>
        <path id="Trazado_1316" data-name="Trazado 1316" d="M297.67,562.6c-.044-.448-.09-.814-.151-1.17l.69-.068.1.7.026,0a1.5,1.5,0,0,1,1.283-.931,1.286,1.286,0,0,1,1.312.748l.018,0a1.8,1.8,0,0,1,.428-.612,1.483,1.483,0,0,1,.928-.4c.573-.057,1.461.235,1.61,1.74l.251,2.552-.77.075-.241-2.454c-.082-.833-.436-1.3-1.073-1.242a1.023,1.023,0,0,0-.86.808,1.3,1.3,0,0,0-.025.4l.264,2.677-.77.076-.256-2.6c-.068-.69-.422-1.162-1.022-1.1a1.184,1.184,0,0,0-.923,1.275l.258,2.616-.771.076Z" transform="translate(-286.76 -555.414)" fill="#fff"/>
        <path id="Trazado_1317" data-name="Trazado 1317" d="M308.888,564.736l-.117-.54-.026,0a1.623,1.623,0,0,1-1.262.775,1.241,1.241,0,0,1-1.448-1.115c-.1-1.048.772-1.712,2.448-1.869l-.009-.09a.9.9,0,0,0-1.085-.906,2.162,2.162,0,0,0-1.1.434l-.23-.5a2.711,2.711,0,0,1,1.386-.526c1.325-.13,1.737.743,1.822,1.612l.16,1.621a6.058,6.058,0,0,0,.175,1.032Zm-.334-2.2c-.862.068-1.824.315-1.74,1.158a.7.7,0,0,0,.817.679,1.084,1.084,0,0,0,.977-.829.81.81,0,0,0,.02-.255Z" transform="translate(-287.8 -555.357)" fill="#fff"/>
        <path id="Trazado_1318" data-name="Trazado 1318" d="M314.512,557.461l.516,5.24c.038.385.09.823.146,1.116l-.707.069-.11-.749-.018,0a1.609,1.609,0,0,1-1.393,1,1.985,1.985,0,0,1-2.071-2.021,2.083,2.083,0,0,1,1.714-2.52,1.459,1.459,0,0,1,1.373.534l.018,0-.255-2.588Zm-.415,3.867a1.4,1.4,0,0,0-.068-.328,1.165,1.165,0,0,0-1.227-.8c-.815.081-1.229.844-1.134,1.8.086.878.588,1.561,1.439,1.477a1.191,1.191,0,0,0,1.063-1.055,1.4,1.4,0,0,0,0-.343Z" transform="translate(-288.391 -554.999)" fill="#fff"/>
        <path id="Trazado_1319" data-name="Trazado 1319" d="M319.557,563.685l-.117-.54-.026,0a1.627,1.627,0,0,1-1.262.775,1.241,1.241,0,0,1-1.448-1.115c-.1-1.048.772-1.712,2.448-1.869l-.009-.09a.9.9,0,0,0-1.084-.906,2.169,2.169,0,0,0-1.1.434l-.229-.5a2.7,2.7,0,0,1,1.386-.526c1.325-.13,1.737.743,1.822,1.611l.16,1.621a6.032,6.032,0,0,0,.175,1.031Zm-.334-2.2c-.862.068-1.823.315-1.74,1.158a.7.7,0,0,0,.817.678,1.084,1.084,0,0,0,.977-.829.812.812,0,0,0,.019-.255Z" transform="translate(-289.105 -555.228)" fill="#fff"/>
        <path id="Trazado_1320" data-name="Trazado 1320" d="M327.094,559.836l-2.346.231.214,2.177,2.616-.258.065.654-3.395.334-.6-6.037,3.261-.321.064.654-2.48.245.188,1.907,2.346-.232Z" transform="translate(-289.956 -554.896)" fill="#fff"/>
        <path id="Trazado_1321" data-name="Trazado 1321" d="M328.942,559.558c-.044-.448-.089-.814-.151-1.17l.7-.068.115.712.018,0a1.6,1.6,0,0,1,1.353-.956c.6-.059,1.568.207,1.714,1.694l.255,2.588-.789.078-.246-2.5c-.069-.7-.386-1.255-1.13-1.181a1.124,1.124,0,0,0-.977.91,1.108,1.108,0,0,0-.018.372l.256,2.607-.788.077Z" transform="translate(-290.584 -555.073)" fill="#fff"/>
        <path id="Trazado_1322" data-name="Trazado 1322" d="M335.21,556.351l.123,1.245,1.128-.111.06.6-1.129.111.23,2.337c.054.537.235.827.674.784a1.754,1.754,0,0,0,.452-.1l.094.588a1.949,1.949,0,0,1-.688.176,1.1,1.1,0,0,1-.884-.248,1.614,1.614,0,0,1-.415-1.1l-.233-2.365-.671.067-.059-.6.671-.067-.1-1.038Z" transform="translate(-291.208 -554.863)" fill="#fff"/>
        <path id="Trazado_1323" data-name="Trazado 1323" d="M337.956,558.855c-.051-.511-.1-.949-.169-1.349l.69-.068.111.848.036,0a1.306,1.306,0,0,1,1.107-1.067.873.873,0,0,1,.226,0l.074.743a1.223,1.223,0,0,0-.272,0,1.11,1.11,0,0,0-.957,1.116,2.166,2.166,0,0,0,0,.37l.227,2.311-.779.076Z" transform="translate(-291.684 -554.968)" fill="#fff"/>
        <path id="Trazado_1324" data-name="Trazado 1324" d="M343.935,561.283l-.117-.54-.027,0a1.623,1.623,0,0,1-1.262.775,1.241,1.241,0,0,1-1.448-1.114c-.1-1.049.772-1.713,2.448-1.87l-.009-.089a.9.9,0,0,0-1.085-.906,2.165,2.165,0,0,0-1.1.434l-.23-.5a2.714,2.714,0,0,1,1.386-.526c1.325-.13,1.737.743,1.822,1.612l.16,1.621a6.151,6.151,0,0,0,.175,1.032Zm-.334-2.2c-.862.068-1.824.315-1.741,1.158a.7.7,0,0,0,.817.678,1.083,1.083,0,0,0,.977-.829.81.81,0,0,0,.02-.255Z" transform="translate(-292.086 -554.935)" fill="#fff"/>
        <path id="Trazado_1325" data-name="Trazado 1325" d="M346.139,557.864c-.044-.448-.09-.815-.151-1.17l.7-.068.116.712.017,0a1.6,1.6,0,0,1,1.353-.956c.6-.06,1.567.207,1.713,1.694l.255,2.588-.789.077-.246-2.5c-.069-.7-.386-1.255-1.13-1.182a1.162,1.162,0,0,0-.994,1.283l.256,2.607-.788.077Z" transform="translate(-292.687 -554.866)" fill="#fff"/>
        <path id="Trazado_1326" data-name="Trazado 1326" d="M352.406,554.656l.123,1.245,1.129-.111.059.6-1.128.111.23,2.337c.053.537.235.827.674.784a1.76,1.76,0,0,0,.452-.1l.093.588a1.943,1.943,0,0,1-.688.176,1.1,1.1,0,0,1-.883-.247,1.616,1.616,0,0,1-.416-1.1l-.233-2.365-.671.066-.06-.6.671-.067-.1-1.038Z" transform="translate(-293.311 -554.656)" fill="#fff"/>
        <path id="Trazado_1327" data-name="Trazado 1327" d="M355.614,558.083a1.4,1.4,0,0,0,1.635,1.359,2.864,2.864,0,0,0,1.179-.342l.19.551a3.537,3.537,0,0,1-1.416.41,2.021,2.021,0,0,1-2.346-1.975,2.113,2.113,0,0,1,1.8-2.537,1.845,1.845,0,0,1,1.992,1.865,2.864,2.864,0,0,1,.01.37Zm2.256-.792a1.128,1.128,0,0,0-1.219-1.174,1.314,1.314,0,0,0-1.083,1.4Z" transform="translate(-293.77 -554.764)" fill="#fff"/>
      </g>
      <g id="Grupo_639" data-name="Grupo 639" transform="translate(100.215 8.602)">
        <path id="Trazado_1328" data-name="Trazado 1328" d="M358.94,403.809l.53,4.792a.126.126,0,0,1-.111.14l-.5.055a.126.126,0,0,1-.14-.111l-.529-4.793a.126.126,0,0,1,.111-.14l.5-.055A.125.125,0,0,1,358.94,403.809Z" transform="translate(-354.708 -403.696)" fill="#fff"/>
        <path id="Trazado_1329" data-name="Trazado 1329" d="M357.64,405.116l.418,3.784a.126.126,0,0,1-.111.14l-.5.055a.125.125,0,0,1-.139-.112l-.419-3.783a.127.127,0,0,1,.111-.14l.5-.055A.127.127,0,0,1,357.64,405.116Z" transform="translate(-354.549 -403.856)" fill="#fff"/>
        <path id="Trazado_1330" data-name="Trazado 1330" d="M356.308,406.136l.334,3.026a.128.128,0,0,1-.111.14l-.5.055a.127.127,0,0,1-.14-.112l-.334-3.027a.126.126,0,0,1,.111-.14l.5-.055A.127.127,0,0,1,356.308,406.136Z" transform="translate(-354.386 -403.981)" fill="#fff"/>
        <path id="Trazado_1331" data-name="Trazado 1331" d="M354.975,407.156l.251,2.27a.127.127,0,0,1-.111.14l-.5.055a.128.128,0,0,1-.14-.112l-.25-2.271a.126.126,0,0,1,.111-.14l.5-.055A.126.126,0,0,1,354.975,407.156Z" transform="translate(-354.223 -404.105)" fill="#fff"/>
      </g>
      <g id="Grupo_648" data-name="Grupo 648" transform="translate(93.265 10.17)">
        <g id="Grupo_641" data-name="Grupo 641" transform="translate(2.721 3.523)">
          <g id="Grupo_640" data-name="Grupo 640">
            <path id="Trazado_1332" data-name="Trazado 1332" d="M349.873,409.5a.517.517,0,1,0,.568.463A.519.519,0,0,0,349.873,409.5Z" transform="translate(-349.405 -409.496)" fill="#fff"/>
          </g>
        </g>
        <g id="Grupo_643" data-name="Grupo 643" transform="translate(1.781 2.294)">
          <g id="Grupo_642" data-name="Grupo 642">
            <path id="Trazado_1333" data-name="Trazado 1333" d="M350.932,408.5a1.793,1.793,0,0,0-2.518.249.349.349,0,0,0,.541.442,1.092,1.092,0,0,1,1.533-.152.347.347,0,0,0,.256.077.349.349,0,0,0,.188-.617Z" transform="translate(-348.334 -408.096)" fill="#fff"/>
          </g>
        </g>
        <g id="Grupo_645" data-name="Grupo 645">
          <g id="Grupo_644" data-name="Grupo 644">
            <path id="Trazado_1334" data-name="Trazado 1334" d="M352.141,406.4a4.1,4.1,0,0,0-5.757.573.348.348,0,0,0,.305.568.345.345,0,0,0,.236-.126,3.4,3.4,0,0,1,4.772-.476.349.349,0,1,0,.443-.54Z" transform="translate(-346.305 -405.482)" fill="#fff"/>
          </g>
        </g>
        <g id="Grupo_647" data-name="Grupo 647" transform="translate(0.913 1.176)">
          <g id="Grupo_646" data-name="Grupo 646">
            <path id="Trazado_1335" data-name="Trazado 1335" d="M351.521,407.479a2.918,2.918,0,0,0-4.1.407.347.347,0,0,0,.048.491.351.351,0,0,0,.493-.049,2.216,2.216,0,0,1,3.111-.309.351.351,0,0,0,.493-.049.348.348,0,0,0-.049-.491Z" transform="translate(-347.345 -406.822)" fill="#fff"/>
          </g>
        </g>
      </g>
      <g id="Grupo_649" data-name="Grupo 649" transform="translate(15.963 18.537)">
        <path id="Trazado_1336" data-name="Trazado 1336" d="M258.39,420.652a1.4,1.4,0,0,1,.786-1.431l-.011-.023a1.214,1.214,0,0,1-.919-.985,1.374,1.374,0,0,1,1.324-1.5,1.268,1.268,0,0,1,1.576,1,1.244,1.244,0,0,1-.644,1.245l0,.022a1.361,1.361,0,0,1,1.151,1.122,1.508,1.508,0,0,1-1.457,1.637A1.45,1.45,0,0,1,258.39,420.652Zm.47-2.567c.067.484.468.7,1.049.769a.967.967,0,0,0,.62-.983.763.763,0,0,0-.93-.679A.78.78,0,0,0,258.86,418.085Zm2.14,2.179c-.08-.59-.53-.818-1.213-.915a1.066,1.066,0,0,0-.737,1.121.906.906,0,0,0,1.1.793A.887.887,0,0,0,261,420.264Z" transform="translate(-258.233 -415.221)" fill="#fff"/>
        <path id="Trazado_1337" data-name="Trazado 1337" d="M263.651,418.339a.449.449,0,1,1,.888-.122.449.449,0,1,1-.888.122Zm.361,2.637a.449.449,0,1,1,.889-.122.449.449,0,1,1-.889.122Z" transform="translate(-258.895 -415.356)" fill="#fff"/>
        <path id="Trazado_1338" data-name="Trazado 1338" d="M267.162,416.4l-.015,0-.781.57-.2-.482.983-.713.559-.076.665,4.855-.635.087Z" transform="translate(-259.204 -415.098)" fill="#fff"/>
        <path id="Trazado_1339" data-name="Trazado 1339" d="M272.663,415.567l-1.853.254-.017,1.274a2.384,2.384,0,0,1,.391-.084,2.073,2.073,0,0,1,1.082.118,1.4,1.4,0,0,1,.865,1.153,1.7,1.7,0,0,1-1.58,1.9,2.4,2.4,0,0,1-1.252-.133l.1-.523a2.2,2.2,0,0,0,1.074.127,1.08,1.08,0,0,0,1.007-1.21c-.094-.627-.573-1.018-1.545-.885a4.9,4.9,0,0,0-.664.144l-.006-2.373,2.323-.318Z" transform="translate(-259.704 -415.015)" fill="#fff"/>
      </g>
      <g id="Grupo_651" data-name="Grupo 651" transform="translate(84.597 11.982)">
        <g id="Grupo_650" data-name="Grupo 650">
          <path id="Trazado_1340" data-name="Trazado 1340" d="M343.165,408.374l-.149.017-.016-.154a.757.757,0,0,0-.824-.685l-5.074.544a.766.766,0,0,0-.669.845l.188,1.836a.756.756,0,0,0,.824.685l5.074-.543a.766.766,0,0,0,.669-.845l-.016-.154.149-.016a.46.46,0,0,0,.4-.507l-.062-.612A.455.455,0,0,0,343.165,408.374Zm-3.574,2.166a.15.15,0,0,1-.119.087l-2.089.224a.151.151,0,0,1-.165-.138l-.187-1.836a.153.153,0,0,1,.133-.169l1.194-.127a.148.148,0,0,1,.142.07l1.082,1.74A.153.153,0,0,1,339.591,410.54Z" transform="translate(-336.429 -407.547)" fill="#fff"/>
        </g>
      </g>
    </g>
  </g>
</svg>
