<svg id="a720d7e9-d991-4e05-ad2c-a3ac22217953" data-name="Capa 1" xmlns="http://www.w3.org/2000/svg" viewBox="0 0 332.22 117.13"><g id="e8c33ef1-ce8d-4657-9bf3-f67f1fd8ba0f" data-name="Online" style="isolation:isolate"><g style="isolation:isolate"><path d="M174.94,91.31A15.5,15.5,0,0,1,190.44,76c9.1,0,15.41,6.23,15.41,15.33a15.54,15.54,0,0,1-15.41,15.34C181.34,106.65,174.94,100.42,174.94,91.31Zm26,0c0-6.06-4.43-11-10.5-11a10.64,10.64,0,0,0-10.58,11c0,6.07,4.51,11,10.58,11S200.94,97.38,200.94,91.31Z" transform="translate(0 0)" fill="#f2f4ff"/><path d="M209.79,97.71a9.13,9.13,0,0,1,9.27-8.94c5.33,0,9.1,3.61,9.1,8.94v8.53h-4.59V97.71A4.45,4.45,0,0,0,219,93a4.5,4.5,0,0,0-4.6,4.67v8.53h-4.59Z" transform="translate(0 0)" fill="#f2f4ff"/><path d="M233.57,76.39h4.59v29.85h-4.59Z" transform="translate(0 0)" fill="#f2f4ff"/><path d="M243.41,78.77A2.83,2.83,0,0,1,246.28,76a2.77,2.77,0,0,1,2.79,2.79,2.83,2.83,0,0,1-2.79,2.87A2.9,2.9,0,0,1,243.41,78.77Zm.49,10.41h4.59v17.06H243.9Z" transform="translate(0 0)" fill="#f2f4ff"/><path d="M254.07,97.71a9.13,9.13,0,0,1,9.27-8.94c5.33,0,9.1,3.61,9.1,8.94v8.53h-4.59V97.71a4.6,4.6,0,1,0-9.19,0v8.53h-4.59Z" transform="translate(0 0)" fill="#f2f4ff"/><path d="M276.05,97.71a9.17,9.17,0,0,1,9.18-8.94c5.33,0,8.86,3.36,9.18,8.94v1.56H280.56a4.69,4.69,0,0,0,4.67,3.44,4.51,4.51,0,0,0,3.53-1.56l2.78,2.87a8.86,8.86,0,0,1-6.31,2.63C279.9,106.65,276.05,103,276.05,97.71Zm13.85-2a4.65,4.65,0,0,0-4.67-3.28,4.73,4.73,0,0,0-4.59,3.28Z" transform="translate(0 0)" fill="#f2f4ff"/></g></g><g id="a61b7a1c-965e-470f-ad6c-4937197e1ef6" data-name="Llámame" style="isolation:isolate"><g style="isolation:isolate"><path d="M146,47.21a4.3,4.3,0,0,1,2.27-3.73,13.28,13.28,0,0,0,5.18,2.43c2.33-6.42,4.87-12.69,6.32-15.06a8,8,0,0,1,7.08-4.16c6.32,0,10.53,4.32,10.53,9,0,5.4-5.51,11.88-17.55,15.66a38.47,38.47,0,0,1-4.11,7.4c14.48,2.43,17.55,6.81,17.55,10.59a5.46,5.46,0,0,1-3.56,5.4c-3.94-3.41-9.07-6.21-19.76-8.64-1.95,1.83-3.57,3-5.24,3-2.7,0-5.19-4.27-5.19-7.24,0-2.54,1.46-3.73,5.51-3.73.92,0,1.94.06,3.13.17,1.25-2.38,2.27-4.49,3.19-6.7C148.3,51.1,146,49.37,146,47.21Zm15.39-1.4c5.67-2.27,9.24-5.73,9.24-8.86,0-1.67-1.89-3-4-3-.7,0-1.46.48-2.16,2.86Z" transform="translate(0 0)" fill="#f2f4ff"/><path d="M178.7,39.7c1-7.29,4.81-11.66,9.07-11.66,2.33,0,3.79,1.08,3.79,3.83,0,2.38-1.08,5-5.14,12.64-1.45,5.24-4,14.63-4,16,0,.6.27.82.76.82,1.67,0,4.85-3.08,7.66-7.46a2,2,0,0,1,2.05,1.84c0,4.1-8.74,12.58-14.2,12.58-3.13,0-4.26-1.35-4.26-4.16,0-3.62,1.72-9.88,2.16-12.15C177.24,48.45,178.22,43.38,178.7,39.7Z" transform="translate(0 0)" fill="#f2f4ff"/><path d="M194,67.57c-3.08,0-5.35-2.54-5.35-7.45,0-8.1,6.7-16.58,12.1-16.58a1.82,1.82,0,0,1,1.4.38l.16-3.14a2.53,2.53,0,0,1,1.89-.7c3.68,0,5.67,2.49,5.67,4.38a14.45,14.45,0,0,1-.59,3.56c-1.89,6.8-2.59,10.21-2.59,11.61,0,1.08.21,1.24.65,1.24,1.08,0,3.88-2,7.34-6.91a1.81,1.81,0,0,1,2,1.67c0,3.51-9,12.21-12.85,12.21-2.38,0-3.89-1-3.89-4.43a15.7,15.7,0,0,1,.16-2.1C198.41,66.22,195.93,67.57,194,67.57Zm7.88-20.14c-2.7,1.72-5.29,6.21-5.29,10.36,0,2,.65,2.22,1.4,2.22a3,3,0,0,0,2.16-1.35Zm9.24-20.15c0,1.57-1.41,3.84-4.16,6.7-2.22,2.27-5,3.94-6.64,3.94-.76,0-1.25-.43-1.25-1.4,3.73-5.4,5.67-8.53,5.67-11.18a3.1,3.1,0,0,1,2.7-1.46C209.91,23.88,211.16,25.29,211.16,27.28Z" transform="translate(0 0)" fill="#f2f4ff"/><path d="M242.8,43.27c2.48,0,3.67,1.89,3.67,4A15,15,0,0,1,245,52.83c-1,2.37-3.13,7.07-3.13,8.42,0,.6.27.81.76.81,1,0,4.43-2.81,8.15-8.1a2,2,0,0,1,2.11,1.78c0,3.4-9.45,13.18-14.42,13.18-3.19,0-4.27-1.4-4.27-4.38,0-3.56,3.19-10,3.19-11.17a.57.57,0,0,0-.65-.65c-.48,0-2.37,1.13-4.48,4.05a75.47,75.47,0,0,0-1.46,10.85,2.58,2.58,0,0,1-2.16.81c-3,0-5.07-1.24-5.13-4.48a26.3,26.3,0,0,1,1.84-7.83,14.32,14.32,0,0,0,.92-3c0-.49-.22-.65-.65-.65s-1.78.81-3.89,3.73a74.93,74.93,0,0,0-1.4,10.85c-.54.54-.92.7-2.16.7-3,0-5.24-2.86-5.3-6.1a23.09,23.09,0,0,1,1.52-7.34,8.76,8.76,0,0,1-.54-3.35c0-3.19,4.32-7.18,7.66-7.18,1.57,0,2.33.65,2.33,2.27a15.12,15.12,0,0,1-1.68,6.1c3.94-6.81,6.64-8.37,9-8.37A3,3,0,0,1,234.38,47,10,10,0,0,1,233,52.23C237.45,45.59,240.42,43.27,242.8,43.27Z" transform="translate(0 0)" fill="#f2f4ff"/><path d="M253.92,67.57c-3.07,0-5.34-2.54-5.34-7.45,0-8.1,6.69-16.58,12.09-16.58a1.83,1.83,0,0,1,1.41.38l.16-3.14a2.5,2.5,0,0,1,1.89-.7c3.67,0,5.67,2.49,5.67,4.38a14.45,14.45,0,0,1-.59,3.56c-1.89,6.8-2.6,10.21-2.6,11.61,0,1.08.22,1.24.65,1.24,1.08,0,3.89-2,7.35-6.91a1.8,1.8,0,0,1,2,1.67c0,3.51-9,12.21-12.85,12.21-2.37,0-3.89-1-3.89-4.43a15.88,15.88,0,0,1,.17-2.1C258.3,66.22,255.81,67.57,253.92,67.57Zm7.89-20.14c-2.7,1.72-5.29,6.21-5.29,10.36,0,2,.64,2.22,1.4,2.22a3,3,0,0,0,2.16-1.35Z" transform="translate(0 0)" fill="#f2f4ff"/><path d="M302.69,43.27c2.48,0,3.67,1.89,3.67,4a15.18,15.18,0,0,1-1.46,5.57c-1,2.37-3.13,7.07-3.13,8.42,0,.6.27.81.75.81,1,0,4.43-2.81,8.16-8.1a2,2,0,0,1,2.1,1.78c0,3.4-9.45,13.18-14.41,13.18-3.19,0-4.27-1.4-4.27-4.38,0-3.56,3.19-10,3.19-11.17a.57.57,0,0,0-.65-.65c-.49,0-2.38,1.13-4.48,4.05a75.47,75.47,0,0,0-1.46,10.85,2.59,2.59,0,0,1-2.16.81c-3,0-5.08-1.24-5.13-4.48a26.26,26.26,0,0,1,1.83-7.83,13.72,13.72,0,0,0,.92-3c0-.49-.21-.65-.65-.65s-1.78.81-3.88,3.73a75,75,0,0,0-1.41,10.85c-.54.54-.92.7-2.16.7-3,0-5.24-2.86-5.29-6.1a23.05,23.05,0,0,1,1.51-7.34,9,9,0,0,1-.54-3.35c0-3.19,4.32-7.18,7.67-7.18,1.57,0,2.32.65,2.32,2.27a15.23,15.23,0,0,1-1.67,6.1c3.94-6.81,6.64-8.37,9-8.37A3,3,0,0,1,294.26,47a9.9,9.9,0,0,1-1.35,5.24C297.34,45.59,300.31,43.27,302.69,43.27Z" transform="translate(0 0)" fill="#f2f4ff"/><path d="M308.46,58.93c0-8.16,6.65-16.47,11.88-16.47,3.73,0,5.78,1.78,5.78,5.56,0,4.54-2.64,8-10,9.72,0,2.43.48,3.78,2.59,3.78,3.67,0,8.42-3.13,11.5-7.83a1.93,1.93,0,0,1,2.05,1.78c0,4-9,12.59-16,12.59C310.89,68.06,308.46,64.76,308.46,58.93ZM319,48.13c-.75,0-2.21,1.83-2.59,5.61,3-.54,3.67-2.21,3.67-3.83C320.07,48.78,319.64,48.13,319,48.13Z" transform="translate(0 0)" fill="#f2f4ff"/></g></g><g id="bc4bea6f-1ef8-42b7-8761-585cd8fb51d8" data-name="Grupo 612"><path id="baf60e48-17ad-45a7-b019-326ec46d316c" data-name="Trazado 1251" d="M50.56,45.12C49.14,45.12,48,47,48,49.36s1.14,4.25,2.56,4.25,2.56-1.9,2.56-4.25S52,45.12,50.56,45.12Z" transform="translate(0 0)" fill="#f2f4ff"/><path id="ba911f77-972e-4d80-88b5-ff893989fe16" data-name="Trazado 1252" d="M78.34,53.61c1.41,0,2.56-1.9,2.56-4.25s-1.15-4.25-2.56-4.25-2.56,1.9-2.56,4.25S76.93,53.61,78.34,53.61Z" transform="translate(0 0)" fill="#f2f4ff"/><path id="e4246899-169a-45d5-8507-1c442c4169d1" data-name="Trazado 1253" d="M61.81,54.89h5.27a1.78,1.78,0,1,0,0-3.55H61.81a1.78,1.78,0,1,0,0,3.55Z" transform="translate(0 0)" fill="#f2f4ff"/><path id="f556ea61-9490-4a88-b6a2-d34d161ee3bc" data-name="Trazado 1254" d="M70.08,59.48a1.77,1.77,0,0,0-2.33,1h0a3.58,3.58,0,0,1-6.6,0,1.78,1.78,0,1,0-3.31,1.31l0,.07a7.14,7.14,0,0,0,13.16,0,1.79,1.79,0,0,0-1-2.33Z" transform="translate(0 0)" fill="#f2f4ff"/><g id="ea954044-3df0-45c6-99a7-0cb48fe6d4a0" data-name="Grupo 611"><path d="M120.61,97.27c.17-1.3.34-2.58.49-3.83.31-2.6.58-5.21.82-7.81,0,0,0,0,0,0,.41-3.95.52-6,.57-7.78C123,62.27,123,46.55,121.12,31a10.67,10.67,0,0,0-9.82-9.36c-3.39-.23-6.88-.45-10.4-.64A21.26,21.26,0,0,0,95.5,9c-6.69-7-16.8-6-19.33-5.65-3-1.25-17.45-6.74-31.89-.37A24,24,0,0,0,29.7,21.26c-2.11.13-10.88.26-13,.41A10.67,10.67,0,0,0,6.88,31a263.22,263.22,0,0,0,0,62.41c.16,1.26.32,2.54.49,3.83a10.12,10.12,0,0,0,2.73,19.86H117.88a10.12,10.12,0,0,0,2.73-19.86ZM96.8,63a2.32,2.32,0,0,1-2.11,2c-1.15,0-2.49-.83-2.58-1.58a114.65,114.65,0,0,1,.13-21h0c.08-.75,1.28-1.52,2.44-1.52s2.5.83,2.5,1.59Zm-4.29,4.17c-.1-.38.48-1,.87-1h1.69c.53,0,.9.76,1,1.29,0,.25.07.51.09.79s0,.64,0,1a12,12,0,0,1-1.38,5.6,5.88,5.88,0,1,1-4.34-2.74,6.24,6.24,0,0,1,1.53.38,9.16,9.16,0,0,0,.66-4.33A6.35,6.35,0,0,0,92.51,67.17Zm-2.76-11a18,18,0,0,1-18,18H57.11a18,18,0,0,1-18-18V44.32c3.2-.46,6.3-1,9.22-1.61h0c.18,0,5.83-1.27,7.83-1.89C64,38.41,71.91,35.2,76.57,31.4A28.53,28.53,0,0,0,79,35.79c2.88,4.25,6.57,7,10.74,8.06ZM69.15,77.7v2.5a4.71,4.71,0,1,1-9.41,0V77.7ZM43.9,89.82A9.79,9.79,0,0,1,53.51,82h2.87a8.26,8.26,0,0,0,16.13,0h2.87A9.79,9.79,0,0,1,85,89.82l.21,1c-6,.18-12,.27-17.88.27-7.79,0-15.71-.15-23.58-.46ZM99.12,44.11a19.68,19.68,0,0,1,4.81,3.15,22.43,22.43,0,0,1,0,11.39,17.67,17.67,0,0,1-4.81,2.88ZM32.77,24.87c.85-9,5.09-15.13,12.94-18.6C60,0,75,6.77,75.18,6.84A1.78,1.78,0,0,0,76.27,7c.1,0,10.5-1.92,16.67,4.53,4.83,5.06,6,13.86,3.49,26.18a4.91,4.91,0,0,0-6.24,2.6C82.16,38,79,28,79,27.85a1.77,1.77,0,0,0-2.21-1.19,1.74,1.74,0,0,0-.75.44c-3.84,3.84-10,7.2-18.56,9.66-3.28,1-9.62,2.43-9.82,2.47-3.19.66-6.59,1.24-10.11,1.73a1.75,1.75,0,0,0-.13-.28,5,5,0,0,0-3.85-2.6A49.61,49.61,0,0,1,32.77,24.87ZM33,41.62c1.49-.1,2.64.45,2.8,1.2,1.09,5.25,1.37,14.42,1.39,21.24,0,.77-1.13,1.46-2.62,1.56s-2.73-.44-2.78-1.2l-1.4-21.25C30.3,42.41,31.48,41.71,33,41.62ZM29.79,62.77A19.39,19.39,0,0,1,24.9,59.9a22.47,22.47,0,0,1-.75-11.36,18.51,18.51,0,0,1,4.49-3.38ZM10.41,31.45A7.09,7.09,0,0,1,17,25.22c1.87-.13,10.38-.26,12.25-.37a45.43,45.43,0,0,0-.09,5.95c-1.47.09-9.62.19-11.24.3a1.76,1.76,0,0,0-1.64,1.56,253.86,253.86,0,0,0,0,59,1.78,1.78,0,0,0,1.64,1.57c5.65.39,18,.7,23.63.94,8.6.36,17.29.55,25.82.55,6.63,0,13.39-.11,20.1-.34,7.54-.24,15.18-.63,22.7-1.15a1.78,1.78,0,0,0,1.64-1.57,253.86,253.86,0,0,0,0-59,1.77,1.77,0,0,0-1.64-1.56c-3-.21-6-.4-9.05-.57a48.77,48.77,0,0,0,.15-5.92c3.32.18,6.62.38,9.82.61a7.1,7.1,0,0,1,6.55,6.23A258.35,258.35,0,0,1,119,77.14c0,.18-.32,5.75-.54,7.57-.34,2.74-.53,5.54-.87,8.31-.15,1.26-.31,2.56-.49,3.87H10.92c-.17-1.31-.34-2.6-.5-3.87A259.85,259.85,0,0,1,10.41,31.45Zm70.6,69a5,5,0,0,1-4.45,3.23c-3.07.13-6.18.2-9.24.2s-6.17-.07-9.25-.2a5,5,0,0,1-4.45-3.23Zm36.87,13.13H10.12a6.56,6.56,0,1,1,0-13.12H49.94a8.46,8.46,0,0,0,8,6.77c3.13.14,6.29.2,9.4.2s6.27-.07,9.4-.2a8.48,8.48,0,0,0,8-6.77h33.18a6.56,6.56,0,1,1,0,13.12Z" transform="translate(0 0)" fill="#f2f4ff"/></g></g></svg>