<svg xmlns="http://www.w3.org/2000/svg" width="745.683" height="605.038" viewBox="0 0 745.683 605.038">
  <g id="Grupo_395" data-name="Grupo 395" transform="translate(-190.387 -150.814)">
    <g id="Layer_5" data-name="Layer 5" transform="translate(190.387 150.814)">
      <g id="Grupo_379" data-name="Grupo 379" transform="translate(0 0.998)">
        <g id="Grupo_378" data-name="Grupo 378">
          <g id="Grupo_376" data-name="Grupo 376">
            <path id="Trazado_712" data-name="Trazado 712" d="M190.387,182.792V725.26a30.782,30.782,0,0,0,30.778,30.786H491.309a30.774,30.774,0,0,0,30.785-30.763V182.792a30.78,30.78,0,0,0-30.777-30.785H221.173a30.769,30.769,0,0,0-30.786,30.753Z" transform="translate(-190.387 -152.007)" fill="#2e3062"/>
          </g>
          <g id="Grupo_377" data-name="Grupo 377" transform="translate(15.362 15.352)">
            <path id="Trazado_713" data-name="Trazado 713" d="M509.733,183.914v546.2a13.522,13.522,0,0,1-13.487,13.555H222.312a13.543,13.543,0,0,1-13.565-13.522V183.914a13.13,13.13,0,0,1,.189-2.225,13.613,13.613,0,0,1,10.775-11.09,14.545,14.545,0,0,1,2.6-.243H496.171a13.56,13.56,0,0,1,13.562,13.558Z" transform="translate(-208.747 -170.355)" fill="#fff9ff"/>
          </g>
          <path id="Trazado_714" data-name="Trazado 714" d="M509.733,183.921V220.3H208.74v-36.38a13.064,13.064,0,0,1,.187-2.226,13.637,13.637,0,0,1,8.049-10.254,13.29,13.29,0,0,1,2.728-.836,13.664,13.664,0,0,1,2.6-.248H496.17A13.568,13.568,0,0,1,509.733,183.921Z" transform="translate(-193.384 -155.004)" fill="#dadaef"/>
          <path id="Trazado_715" data-name="Trazado 715" d="M394.473,161.154H360.265v7.6c17.72,0,18.1,16.135,18.1,16.135h.047c-.006.189-.028.374-.028.565a15.131,15.131,0,0,0,30.262,0c0-.191-.021-.376-.028-.564h.066s.382-16.135,18.1-16.135v-7.6Z" transform="translate(-218.13 -153.501)" fill="#2e3062"/>
          <circle id="Elipse_37" data-name="Elipse 37" cx="8.674" cy="8.674" r="8.674" transform="translate(166.714 23.613)" fill="#524e82"/>
        </g>
      </g>
      <g id="Grupo_384" data-name="Grupo 384" transform="translate(427.684)">
        <g id="Grupo_383" data-name="Grupo 383">
          <g id="Grupo_380" data-name="Grupo 380">
            <path id="Trazado_716" data-name="Trazado 716" d="M701.551,181.65V725.016c0,17.028,13.208,30.834,29.5,30.836H990.037c16.295.006,29.508-13.791,29.513-30.816V181.65c0-17.027-13.206-30.834-29.5-30.836H731.063c-16.291-.009-29.5,13.783-29.512,30.8Z" transform="translate(-701.551 -150.814)" fill="#2e3062"/>
          </g>
          <g id="Grupo_381" data-name="Grupo 381" transform="translate(14.726 15.379)">
            <path id="Trazado_717" data-name="Trazado 717" d="M1007.7,182.774v547.1c.018,7.48-5.771,13.559-12.929,13.579H732.156c-7.17.013-12.994-6.051-13.005-13.543V182.774a13.7,13.7,0,0,1,.181-2.227A12.915,12.915,0,0,1,732.154,169.2H994.7C1001.878,169.2,1007.7,175.274,1007.7,182.774Z" transform="translate(-719.151 -169.195)" fill="#fff9ff"/>
          </g>
          <path id="Trazado_718" data-name="Trazado 718" d="M1007.7,182.78v36.44H719.15V182.78a13.81,13.81,0,0,1,.178-2.23,13.576,13.576,0,0,1,7.718-10.27,12.377,12.377,0,0,1,2.616-.838,12.6,12.6,0,0,1,2.487-.248H994.7C1001.877,169.2,1007.7,175.278,1007.7,182.78Z" transform="translate(-704.425 -153.816)" fill="#dadaef"/>
          <g id="Grupo_382" data-name="Grupo 382" transform="translate(84.235 15.379)">
            <path id="Trazado_719" data-name="Trazado 719" d="M958.4,169.2l-10.7,11.182a13.557,13.557,0,0,0-3.709,9.365c-.005,7.313-5.679,13.238-12.677,13.241H829.319c-7,0-12.672-5.929-12.677-13.241a13.552,13.552,0,0,0-3.71-9.365l-10.7-11.182Z" transform="translate(-802.228 -169.195)" fill="#2e3062"/>
            <ellipse id="Elipse_38" data-name="Elipse 38" cx="5.267" cy="5.503" rx="5.267" ry="5.503" transform="translate(114.729 11.139)" fill="#524e82"/>
            <path id="Rectángulo_51" data-name="Rectángulo 51" d="M835.319,182.509H913.7a1.373,1.373,0,0,1,1.341,1.4v8.2a1.373,1.373,0,0,1-1.341,1.4H835.319a1.373,1.373,0,0,1-1.342-1.4v-8.2A1.373,1.373,0,0,1,835.319,182.509Z" transform="translate(-807.413 -171.369)" fill="#524e82"/>
          </g>
        </g>
      </g>
    </g>
    <g id="_3" data-name="3" transform="translate(222.269 186.333)">
      <g id="Grupo_736" data-name="Grupo 736" transform="translate(355.048 42.38)">
        <g id="Grupo_722" data-name="Grupo 722" transform="translate(0 166.274)">
          <path id="Trazado_1552" data-name="Trazado 1552" d="M706.577,796.01l-4.222,5.117-5.45,6.591-4.107,5.008-20.957,25.405-19-31.812s7.484-7.621,8.751-8.322c.922-.515,13.933-10.162,21.61-15.9,1.727-1.253,3.147-2.32,4.145-3.056.883-.663,1.42-1.068,1.42-1.068l12.781,12.923Z" transform="translate(-652.842 -497.409)" fill="#febd95"/>
          <path id="Trazado_1553" data-name="Trazado 1553" d="M818.834,585.094l-19.805,74.079L713.59,746.509l-5.028-5.118L695.78,728.467l69.472-88.07s40.071-161.415,42.221-165.538l6.487,63.07Z" transform="translate(-659.854 -447.908)" fill="#febd95"/>
          <path id="Trazado_1554" data-name="Trazado 1554" d="M819.846,596.212,800.04,670.291,714.6,757.626l-4.222,5.117-5.45,6.591a12.6,12.6,0,0,1-2.956-7.916,7.06,7.06,0,0,1,.807-3.535,10.7,10.7,0,0,1,3.684-3.276q1.555-.994,3.109-2.1a210.723,210.723,0,0,0,67.362-73.786c3.339-6.185,6.371-13.66,3.031-19.845,12.436-4.087,17.081-18.373,19.46-30.781a428.622,428.622,0,0,0,6.141-44.7c.921-11.156,5.3-30.6-.346-40.465a20.545,20.545,0,0,1,9.749,6.112Z" transform="translate(-660.866 -459.025)" fill="#febd95" opacity="0.5" style="mix-blend-mode: multiply;isolation: isolate"/>
          <path id="Trazado_1555" data-name="Trazado 1555" d="M800.306,788.072c1.094-7.494,2.277-14.975,3.5-22.45,5.566-34.057,11.976-67.967,14.355-102.687a215.277,215.277,0,0,0,.307-23.344c-.077-2.209-.192-4.418-.384-6.554a236.767,236.767,0,0,0-12.243-60.162c-4.76-13.991-12.9-27.393-12.9-42.084-.039-19.919,14.316-36.009,24.987-51.767,1.19-1.767,2.265-3.534,3.262-5.3,3.723-6.664,6.334-13.475,9.749-20.4a14.557,14.557,0,0,1,1.881-2.8c5.8-6.811,17.464-6.958,26.6-7.4,1.689-.073,3.492-.146,5.259-.294,2.918-.11,5.834-.184,8.674-.184,3.339.037,6.6.147,9.865.4a17.2,17.2,0,0,1,2.418.294h.269c.115,0,.269.037.422.037.922.11,1.843.184,2.725.331,13.742,1.988,49.975,11.156,59.878,28.792-2.226-1.657-7.908-4.492-12.858-1.731-22.8,12.7-9.4,47.644,2.571,62.409a3.381,3.381,0,0,0,.614.663c.806.735,2.072,1.767,3.109,2.614.653.552,1.344.957,1.958,1.436a3.063,3.063,0,0,1-.192.626c-.5,1.693-2,6.406-2.61,8.248-1.305,3.718-2.534,7.51-3.646,11.3-.691,2.541-1.344,5.044-1.919,7.621a142.83,142.83,0,0,0-4.069,30.965,115.692,115.692,0,0,0,.768,15.905c.306,2.8.69,5.6,1.19,8.358,2.38,14.654,6.755,28.94,11.284,43,10.171,31.406,20.3,61.266,22.223,94.367.554,9.916.628,19.847.349,29.777Z" transform="translate(-675.722 -442.647)" fill="#587fa1"/>
          <path id="Trazado_1556" data-name="Trazado 1556" d="M906.784,580.239c-3.609-8.285-8.252-17.011-16.735-20.8-11.437-5.08-23.029,0-34.045,3.277-6.18,1.878-12.551,3.865-17.31,8.063-10.363,9.132-9.366,24.742-8.406,38.217,4.106,59.925-9.271,119.454-18.3,179.078H800.306c1.094-7.494,2.277-14.975,3.5-22.45,5.566-34.057,11.976-67.967,14.355-102.687a215.277,215.277,0,0,0,.307-23.344c-.077-2.209-.192-4.418-.384-6.554a236.767,236.767,0,0,0-12.243-60.162c-4.76-13.991-12.9-27.393-12.9-42.084-.039-19.919,14.316-36.009,24.987-51.767,1.19-1.767,2.265-3.534,3.262-5.3,3.723-6.664,6.334-13.475,9.749-20.4a14.557,14.557,0,0,1,1.881-2.8c5.8-6.811,17.464-6.958,26.6-7.4,1.689-.073,3.492-.146,5.259-.294,2.918-.11,5.834-.184,8.674-.184,6.371,6.591-5.335,9.72-9.4,11.156-9.9,3.5-18.27,9.2-26.33,15.648-17.465,13.917-35.7,33.91-38.191,56.7-1.114,10.236,3.953,22.017,15.7,21.981,7.868,0,15.7-1.252,23.49-1.8a62.75,62.75,0,0,1,17.963.847c3.685.773,7.293,1.915,11.017,2.724,18.922,4.235,36.616-1.657,54.694-6.443a392.871,392.871,0,0,1,9.6,53.2,115.692,115.692,0,0,0,.768,15.905c.306,2.8.69,5.6,1.19,8.358.077.958.115,1.878.154,2.836C919.834,613.339,913.693,596.034,906.784,580.239Z" transform="translate(-675.722 -442.647)" fill="#465e73" opacity="0.3" style="mix-blend-mode: multiply;isolation: isolate"/>
          <path id="Trazado_1557" data-name="Trazado 1557" d="M880.954,845.712h-8.925c.008-.206.011-.412.025-.618.591-8.389,6.85-15.271,12.784-21.459,8.9-9.286,18.307-15.665,23.256-28.044-2.907,8.276-5.837,16.6-10.26,24.237C892.651,828.768,886.286,836.891,880.954,845.712Z" transform="translate(-688.638 -500.287)" fill="#465e73" opacity="0.3" style="mix-blend-mode: multiply;isolation: isolate"/>
        </g>
        <g id="Grupo_732" data-name="Grupo 732" transform="translate(115.156)">
          <path id="Trazado_1558" data-name="Trazado 1558" d="M813.179,471.819s22.6-32.223,54.862-33.339,43.936-5.079,27.775,27.459c.606-1.241,27.087-54.291,27.087-54.291l-3.448-21.275-103.346-3.6,3.563,39.5-2.426,29.671Z" transform="translate(-794.183 -267.247)"/>
          <g id="Grupo_730" data-name="Grupo 730" transform="translate(5.861 24.887)">
            <g id="Grupo_723" data-name="Grupo 723" transform="translate(66.72 125.821)">
              <path id="Trazado_1559" data-name="Trazado 1559" d="M877.224,445.162c-.028,10.125,26.434,10.194,26.464.069l.058-21.121-26.463-.069Z" transform="translate(-877.224 -424.042)" fill="#febd95"/>
              <path id="Trazado_1560" data-name="Trazado 1560" d="M877.224,445.162l.059-21.12,26.463.069-.033,12.008c-9.381,1.54-18.243,6.908-23.39,14.149A6.049,6.049,0,0,1,877.224,445.162Z" transform="translate(-877.224 -424.042)" fill="#febd95" opacity="0.5" style="mix-blend-mode: multiply;isolation: isolate"/>
            </g>
            <g id="Grupo_729" data-name="Grupo 729">
              <g id="Grupo_724" data-name="Grupo 724" transform="translate(0 60.851)">
                <path id="Trazado_1561" data-name="Trazado 1561" d="M811.992,347.7c-3.886-.961-8.4-2.508-12.121.277-4.953,3.707-.983,10.782.969,14.854,3.082,6.429,9.5,14.215,16.268,10.714Z" transform="translate(-797.48 -346.391)" fill="#febd95"/>
                <path id="Trazado_1562" data-name="Trazado 1562" d="M808.6,352.328a12.318,12.318,0,0,0-3.756-.325,2.806,2.806,0,0,0-1.361.551c-2.069,1.529.522,6.251,1.914,8.788l.457.838c2.044,3.8,4.717,6.548,6.821,7.713A55.9,55.9,0,0,0,808.6,352.328Z" transform="translate(-798.334 -347.3)" fill="#f2a272"/>
              </g>
              <path id="Trazado_1563" data-name="Trazado 1563" d="M896.2,400.91c-6.1,5.892-12.782,9.9-19.461,11.34a24.408,24.408,0,0,1-3.608.552c-.576.037-1.151.074-1.727.074h-.576a30.308,30.308,0,0,1-6.487-.773,25.438,25.438,0,0,1-3.569-.92,10.038,10.038,0,0,1-1.267-.4q-1.152-.387-2.3-.884a39.081,39.081,0,0,1-5.182-2.5,64.521,64.521,0,0,1-12.743-9.241c-.69-.626-1.42-1.288-2.111-1.988-.691-.663-1.382-1.362-2.035-2.062-.729-.737-1.42-1.473-2.072-2.246-.613-.7-1.228-1.4-1.88-2.135a25.887,25.887,0,0,1-2.035-2.541c-.46-.588-.883-1.177-1.343-1.767a9.657,9.657,0,0,1-1.075-1.473c-1-1.4-1.957-2.8-2.917-4.271a.741.741,0,0,1-.192-.33,97.73,97.73,0,0,1-8.559-17.011c-.383-.957-.729-1.915-1.074-2.872-.384-1.068-.729-2.172-1.074-3.24q-.979-3.148-1.728-6.406c-4.913-21.171-3.8-40.979,5.259-55.044q.69-1.049,1.5-2.1c7.1-9.72,18.461-16.384,34.851-18.373,43.871-5.3,67.092,23.6,68.2,62.261C921.767,362.03,910.751,386.846,896.2,400.91Z" transform="translate(-799.248 -273.662)" fill="#febd95"/>
              <path id="Trazado_1564" data-name="Trazado 1564" d="M896.2,404.388c-6.1,5.892-12.782,9.9-19.461,11.34a24.408,24.408,0,0,1-3.608.552c-.576.037-1.151.074-1.727.074h-.576a30.308,30.308,0,0,1-6.487-.773,16.145,16.145,0,0,0-3.569-.92c-.193-.037-.346-.074-.5-.11a6.566,6.566,0,0,1-.767-.295q-1.152-.387-2.3-.884a39.081,39.081,0,0,1-5.182-2.5,64.521,64.521,0,0,1-12.743-9.241c-.69-.626-1.42-1.288-2.111-1.988-.384-.331-.729-.7-1.074-1.031s-.653-.7-.961-1.031c-.729-.737-1.42-1.473-2.072-2.246-.613-.7-1.228-1.4-1.88-2.135a25.887,25.887,0,0,1-2.035-2.541c-.46-.588-.883-1.177-1.343-1.767a9.657,9.657,0,0,1-1.075-1.473c-1-1.4-1.957-2.8-2.917-4.271a.741.741,0,0,1-.192-.33,91.263,91.263,0,0,1-8.559-17.011c-.383-.957-.729-1.915-1.074-2.872-.384-1.068-.729-2.172-1.074-3.24q-.979-3.148-1.728-6.406c-4.913-21.171-3.8-40.979,5.259-55.044q.69-1.049,1.5-2.1a19.421,19.421,0,0,1,5.067-1.1c6.717-.589,13.241,2.062,19.153,5.192,3.838,2.025,7.523,4.308,11.438,6.112,1.958.92,4.107,1.436,6.064,2.319,2.188.995,2.649.663.307,1.988-6.486,3.682-16.082.479-23.106,3.535-7.6,3.277-11.361,11.6-13.05,19.4a71.584,71.584,0,0,0,3.762,41.053c4.759,12.04,12.244,25.295,24.718,31.186,1.688.81,3.684.663,5.526.847a2.131,2.131,0,0,0,.96-.074,1.429,1.429,0,0,0,.691-.552c1.8-2.209,1.037-5.56,2.571-7.953a1.721,1.721,0,0,1,1-.847c.73-.185,1.458.442,1.842,1.1,1.075,1.914.729,4.27,1.267,6.406.154.552.538,1.215,1.113,1.141,1.075-4.308-1.8-8.948-.345-13.144.192-.552.576-1.141,1.19-1.141.537,0,.883.478,1.151.919,1.688,3.094,1.765,6.849,3.8,9.721a1.143,1.143,0,0,0,.577.442c.537.148.921-.515,1.036-1.068.844-3.681-.576-7.511-.192-11.266.115-1.289.729-2.8,2.034-2.983a2.4,2.4,0,0,1,2.149,1.031,6.4,6.4,0,0,1,.96,2.209c.5,1.878,1.037,3.756,1.574,5.633.384,1.4,1,3.056,2.457,3.461a.777.777,0,0,0,.576.036,1.061,1.061,0,0,0,.5-.7,36.638,36.638,0,0,0,.652-5.781,15.469,15.469,0,0,1,2.418-6.627c.346-.515,1-1.068,1.535-.773a1.3,1.3,0,0,1,.422.479c2.111,3.572,2.764,7.769,4.682,11.451a16.525,16.525,0,0,1,1.766,3.829A7.439,7.439,0,0,1,896.2,404.388Z" transform="translate(-799.248 -277.139)" fill="#febd95" opacity="0.5" style="mix-blend-mode: multiply;isolation: isolate"/>
              <g id="Grupo_725" data-name="Grupo 725" transform="translate(114.822 44.897)">
                <path id="Trazado_1565" data-name="Trazado 1565" d="M934.714,330.555c3.517-1.855,7.488-4.427,11.814-2.614,5.757,2.413,3.74,10.211,2.9,14.621-1.324,6.96-5.535,16.032-12.991,14.247Z" transform="translate(-934.714 -327.323)" fill="#febd95"/>
                <path id="Trazado_1566" data-name="Trazado 1566" d="M934.714,330.555c3.517-1.855,7.488-4.427,11.814-2.614,5.757,2.413,3.74,10.211,2.9,14.621-1.324,6.96-5.535,16.032-12.991,14.247Z" transform="translate(-934.714 -327.323)" fill="#febd95" opacity="0.5" style="mix-blend-mode: multiply;isolation: isolate"/>
                <path id="Trazado_1567" data-name="Trazado 1567" d="M940.688,334.052a12.179,12.179,0,0,1,3.556-1.208,2.841,2.841,0,0,1,1.461.211c2.4.99,1.109,6.18.416,8.968l-.225.92c-1,4.163-2.878,7.466-4.615,9.094A55.6,55.6,0,0,1,940.688,334.052Z" transform="translate(-935.61 -328.222)" fill="#e8925f"/>
              </g>
              <path id="Trazado_1568" data-name="Trazado 1568" d="M850.31,397.4l41.129-4.967S873.5,429.686,850.31,397.4Z" transform="translate(-806.108 -293.059)" fill="#fff"/>
              <g id="Grupo_726" data-name="Grupo 726" transform="translate(33.557 67.338)">
                <path id="Trazado_1569" data-name="Trazado 1569" d="M846.343,366.753c.458,3.5-1.111,6.566-3.506,6.856s-4.71-2.312-5.169-5.808,1.111-6.566,3.507-6.856S845.884,363.256,846.343,366.753Z" transform="translate(-837.588 -355.251)" fill="#4f2308"/>
                <path id="Trazado_1570" data-name="Trazado 1570" d="M895.928,359.974c.459,3.5-1.11,6.566-3.507,6.855s-4.71-2.311-5.168-5.807,1.11-6.566,3.506-6.856S895.469,356.477,895.928,359.974Z" transform="translate(-845.686 -354.144)" fill="#4f2308"/>
              </g>
              <g id="Grupo_727" data-name="Grupo 727" transform="translate(26.606 57.291)">
                <path id="Trazado_1571" data-name="Trazado 1571" d="M829.279,354.336s8.4-10.077,17.308-10.379c-.124-2.493-3.339-2.276-8.659-.256S829.279,354.336,829.279,354.336Z" transform="translate(-829.279 -342.136)" fill="#592709"/>
              </g>
              <g id="Grupo_728" data-name="Grupo 728" transform="translate(68.326 52.66)">
                <path id="Trazado_1572" data-name="Trazado 1572" d="M899.649,342.523s-12.167-5.505-20.3-2.018c-1.032-2.292,1.954-3.452,7.657-3.883S899.649,342.523,899.649,342.523Z" transform="translate(-879.143 -336.601)" fill="#592709"/>
              </g>
            </g>
          </g>
          <g id="Grupo_731" data-name="Grupo 731">
            <path id="Trazado_1573" data-name="Trazado 1573" d="M808.943,380.746a166,166,0,0,1,.529,67.743c.159-.778,10.367-21.336,11.268-30.358,1.7-17.057-1.521-34.033-4.371-50.806-2.073-12.2-4.11-25.035-3.546-37.638.267-5.969.8-12.418,2.973-18.026,2.092-5.4,5.145-10.219,5.579-16.12-.129,2.039,9.8,5.792,11.453,6.378a58.12,58.12,0,0,0,14.961,2.844c11.527.914,25.127.464,34.687,7.738,8.94,6.8,13.723,17.864,15.347,28.451.571,3.716.059,8.708,1.158,12,1.978-4.709,2.185-10.547,2.418-15.6.272-5.864.647-13.3-1.678-18.849,8.353,19.946,8.444,41.947,7.293,62.953a145.515,145.515,0,0,1-5.788,33.494c-1.622,5.477-9.117,27.661-9.117,27.661s2.79-3.153,4.205-4.512a116.383,116.383,0,0,0,10.264-11.492c8.745-10.963,19-24.543,19.876-38.7.792,2.923.592,6.522.534,9.689,5.152-10.377,8.556-21.059,11.442-32.233,8.625-33.387,5.655-77.133-21.1-102.743-22.527-21.567-63.312-24.6-90.021-8.488-3.545,2.139-9.549,8.953-9.549,8.953s-8.473,1.995-12.669,5.184c-14.038,10.669-15.125,26.717-14.477,42.809C791.611,335.8,803.906,356.93,808.943,380.746Z" transform="translate(-790.476 -243.918)" fill="#242424"/>
            <path id="Trazado_1574" data-name="Trazado 1574" d="M889.3,254.076c25.384,8.963,41.208,37.936,44.276,62.424.874,6.97,2.85,21.018-.837,27.276-2.353-11.811-3.12-22.986-8.334-34.29,2.821,14.094,4.148,34.528-1.08,48.094a139.835,139.835,0,0,0-2.149-28.641c-2.067-10.46-6.988-19.978-11.528-29.6-4.53-9.6-8.114-12.254-16.284-19.046,4.933,4.1,6.609,13.338,7.38,19.173.68,5.144.146,10.044.382,15.137-.326-7.071-4.935-15.5-10.622-19.9-7.882-6.092-17.866-5.062-27.319-5.967a147.889,147.889,0,0,1-17.011-2.633,79.556,79.556,0,0,1-8.527-2.1c-2.3-.773-4.341-2.47-6.258-3.92,0,0,12.561,1.671,18.888.845a82.845,82.845,0,0,0,14.374-3.538c2.656-.85,5.269-2,7.827-3.091a10.633,10.633,0,0,0,2.81-1.5c-2.606-1.476-6.063-1.585-9.012-1.579-4.546.008-9.126-.122-13.659.238-3.026.24-6.4,1.453-9.394,1.365,8.847-2.849,19.2-5.228,28.564-4.991a47.189,47.189,0,0,0-12.26-1.347c-7.645.047-16.8.922-23.708,4.248,8.113-5.669,19.4-8.271,29.354-7.917-3.9-2.19-8.344-1.966-12.678-2.217a40.518,40.518,0,0,0-13.415,1.631c-3.049.861-9.769,2.558-11.483,5.449,4.972-8.393,18.639-12.393,27.693-14.618C866.483,250.31,878.378,250.218,889.3,254.076Z" transform="translate(-796.539 -245.087)" fill="#333"/>
            <path id="Trazado_1575" data-name="Trazado 1575" d="M810.8,282.457c.954-.994,2-1.908,3-2.872,1.305-1.26,3.944-4.028,5.976-4.045a21.1,21.1,0,0,0-8.781,2.18c.51-.991,1.939-1.918,2.776-2.662a25.386,25.386,0,0,1,2.923-2.054,30.9,30.9,0,0,0-4.972,1.852,16.349,16.349,0,0,0-3.423,2.319,34.374,34.374,0,0,0-6.654,7.851c-3.922,6.82-3.813,14.354-4,21.7a18.123,18.123,0,0,1,7.581-10.926c-2.83,3.557-1.651,7.1-.837,11.009,1.7-7.443,7.534-13.681,14.318-17.185-3.429-1.852-8.48,1.647-10.264,4.439.311-.486.37-1.395.641-1.958.245-.51.4-1,.617-1.511a10.964,10.964,0,0,1,2.509-3.6,24.975,24.975,0,0,1,3.828-2.816,5.7,5.7,0,0,0,1.486-1.047,19.433,19.433,0,0,0-3.085.814,25.37,25.37,0,0,0-4.016,2.02c-.563.323-3.286,2.292-3.216,2.967-.13-1.266,1.1-3.193,1.806-4.276A15.034,15.034,0,0,1,810.8,282.457Z" transform="translate(-791.648 -248.668)" fill="#333"/>
          </g>
        </g>
        <g id="Grupo_735" data-name="Grupo 735" transform="translate(183.418 132.697)">
          <g id="Grupo_733" data-name="Grupo 733">
            <path id="Trazado_1576" data-name="Trazado 1576" d="M935.326,432.19c-3.07,2.025-6.486,4.124-8.9,7.106-1.728,2.283-2.457,5.265-3.378,7.954-1.689,4.823-5.335,10.125-7.024,14.947v4.2l-.038,6.848L899.9,477.919l-.345-.331c-.346-.331-.921-.884-1.574-1.583-1-.994-2.265-2.246-3.416-3.351-1.612-1.583-2.994-2.945-3.186-3.056-.038-.074-12.243-22.018-12.243-22.018s-.614-2.062-1.5-5.007c-.576-1.878-1.305-4.161-2.035-6.517-.767-2.54-1.612-5.192-2.38-7.622-.038-.295-.153-.588-.23-.92a25.253,25.253,0,0,1-.768-9.683c.346-3.425,2.265-4.492,3.992-1.178,1.228,2.393.576,5.155,1.421,7.658,1.343,3.682,2.457,7.437,3.722,11.119.192.479.384,2.062,1.114,1.4.46-.515-.154-1.989-.269-2.615-.269-1.325-.538-2.577-.807-3.9-1.574-7.549-2.034-11.046-3.608-18.557-1.42-3.977,3.876-6.222,5.22-2.209,1.688,6.443,3.8,12.739,5.489,19.183a27.874,27.874,0,0,0,1.228,4.9c.346.7,1.151,1.473,1.765.553.384-.627-.115-2.026-.23-2.688-.346-1.509-.653-3.093-.96-4.6-1.574-7.474-2.61-10.971-4.146-18.409-1.343-5.228,5.681-7,7.024-1.767,1.882,7.474,4.184,14.838,6.027,22.238a14.189,14.189,0,0,0,.844,3.387,1.142,1.142,0,0,0,1.688.147c.538-.589.193-2.1.115-2.8-.23-1.436-.422-2.836-.576-4.271-.346-2.43-.73-4.86-1.037-7.29-.729-5.081-.959-6.3-1.65-11.376-.883-4.824,5.643-5.966,6.524-1.105l3.493,13.144c1.574,6.811,2.725,14.065,4.836,20.729a63.347,63.347,0,0,0,8.022-6.222c3.186-3.019,9.711-3.424,13.779-1.914A2.925,2.925,0,0,1,935.326,432.19Z" transform="translate(-872.062 -402.516)" fill="#febd95"/>
          </g>
          <g id="Grupo_734" data-name="Grupo 734" transform="translate(3.542 33.54)">
            <path id="Trazado_1577" data-name="Trazado 1577" d="M981.293,599.49c-.845,4.9-3.532,14.322-10.21,16.531-4.03,1.325-8.444-1.178-11.13-3.977-5.259-5.559-7.485-12.628-9.4-19.514a356.28,356.28,0,0,1-9.9-44.845c-.537-3.682-1-7.328-1.382-11.009-1.381-13.181-3.685-29.713.115-43.446a39.376,39.376,0,0,1,2.8-7.217c2.341-4.565,5.949-9.793,11.016-12.407a14.937,14.937,0,0,1,11.092-1.1c10.133,2.687,12.974,11.3,14.624,19.109C984.862,519.261,982.674,591.315,981.293,599.49Z" transform="translate(-886.258 -447.391)" fill="#febd95"/>
            <path id="Trazado_1578" data-name="Trazado 1578" d="M978.452,599.119c-3.492-7.989-7.062-16.089-12.666-22.865-4.146-5.006-9.327-9.131-13.895-13.806a81.414,81.414,0,0,1-11.246-14.433c-.537-3.682-1-7.328-1.382-11.009-1.381-13.181-3.685-29.713.115-43.446a39.376,39.376,0,0,1,2.8-7.217c2.341-4.565,5.949-9.793,11.016-12.4.365,3.047-1.085,6.971-1.557,10.024a47.481,47.481,0,0,0-.2,12.58c.958,8.525,3.856,16.768,7.331,24.626C969.641,545.759,982.99,571.446,978.452,599.119Z" transform="translate(-886.258 -447.72)" fill="#febd95" opacity="0.5" style="mix-blend-mode: multiply;isolation: isolate"/>
            <path id="Trazado_1579" data-name="Trazado 1579" d="M972.337,609.041a13.363,13.363,0,0,1-8.138,8.1c-15.392,5.228-24.181-13.623-31.358-22.423-7.062-8.652-36.771-109.5-37.692-112.665-.038-.074,4.069-.589,4.069-.589l20.535-2.688c1.5,2.872,48.208,93.225,51.086,98.748C972.989,581.647,976.75,598.436,972.337,609.041Z" transform="translate(-879.374 -448.51)" fill="#febd95"/>
            <path id="Trazado_1580" data-name="Trazado 1580" d="M969.258,603.133a13.363,13.363,0,0,1-8.138,8.1c-15.392,5.228-24.181-13.623-31.358-22.423-7.062-8.652-36.771-109.5-37.692-112.665-.038-.074-12.243-22.018-12.243-22.018s-.614-2.062-1.5-5.007c-.576-1.878-1.305-4.161-2.035-6.517,3.953,7.106,8.329,13.807,12.82,20.692a130.685,130.685,0,0,1,7.024,12.261c1.459,2.8,2.8,5.669,4.107,8.579,15.276,34.352,20.342,73.454,40.532,105.633,4.068,6.443,9.48,13.071,17.233,14.432C961.773,604.863,965.534,604.164,969.258,603.133Z" transform="translate(-876.295 -442.603)" fill="#febd95" opacity="0.5" style="mix-blend-mode: multiply;isolation: isolate"/>
          </g>
        </g>
      </g>
      <g id="Grupo_747" data-name="Grupo 747">
        <path id="Trazado_1581" data-name="Trazado 1581" d="M267.547,846.293H233.531c-.889-11.371-1.366-27.273-.186-32.8l15.886-11.545,17.444,10.04s4.361,8.367,2.616,15.9C268.192,832.634,267.954,841.467,267.547,846.293Z" transform="translate(-229.17 -292.672)" fill="#febd95"/>
        <path id="Trazado_1582" data-name="Trazado 1582" d="M292.924,837.2l.452-53.562a17.287,17.287,0,0,1,.882-5.6c11.861-37.776,144.395-53.608,178.67-.443a47.016,47.016,0,0,1,3.186,5.744c.153.332.307.663.46.994.077.406.154.848.192,1.252,2.318,14.275,3.352,34.415,3.8,51.61Z" transform="translate(-239.015 -283.117)" fill="#144b6e"/>
        <path id="Trazado_1583" data-name="Trazado 1583" d="M418.809,814.051c-23.529,3.83-47.594,3.387-71.2,6.517-7.6.995-15.352,2.467-21.725,6.517-5.505,3.531-10.027,9.51-10.365,15.749h-22.6l.452-53.562a17.287,17.287,0,0,1,.882-5.6l67.554-5.707,111.116,5.264,8.252.4c-1.611,1.878-3.3,3.645-5.066,5.339C461.107,803.19,439.8,810.627,418.809,814.051Z" transform="translate(-239.015 -288.755)" fill="#144b6e" opacity="0.5" style="mix-blend-mode: multiply;isolation: isolate"/>
        <g id="Grupo_738" data-name="Grupo 738" transform="translate(206.162 194.206)">
          <path id="Trazado_1584" data-name="Trazado 1584" d="M664.741,812.725c-2.318-2.94-9.091-7.6-10.919-1.119-.241.853-.1,1.768-.3,2.63a3.76,3.76,0,0,1-3.749,2.732c-1.019-3.881-4.4-6.723-7.687-9.184a6.127,6.127,0,0,1-1.675-1.617,5.692,5.692,0,0,1-.594-1.806c-1.138-5.473-2.905-10.257-1.267-15.7,1.5-4.984,3.8-10.364,2.763-15.643a37.684,37.684,0,0,0-2.144-5.64l-2.5-6.512,29.288-11.969s7.984,12.8,8.061,12.78c4.526,6.738,11.09,13.894,13.81,21.462,2.184,6.073,4.724,12.025,6.8,18.135a87.6,87.6,0,0,1,2.692,9.48c.581,2.666,1.54,6.124-.057,8.654a2.751,2.751,0,0,1-3.127,1.255,7.027,7.027,0,0,1-1.784,3.781,4.084,4.084,0,0,1-3.994,1.119,6.475,6.475,0,0,1-4.839,4.348c-.66.136-1.59-.013-1.642-.66a5,5,0,0,1-4.219,4.158c-4.4.488-5.008-4.764-6.049-7.628a56.427,56.427,0,0,0-5.711-11.439Q665.353,813.5,664.741,812.725Z" transform="translate(-501.315 -478.213)" fill="#febd95"/>
          <path id="Trazado_1585" data-name="Trazado 1585" d="M680.6,832.3a4.894,4.894,0,0,0-.562-1.237,3.809,3.809,0,0,0-3.4-1.806,3.141,3.141,0,0,0,1.473-3.465,4.8,4.8,0,0,0-2.577-3.01,10.316,10.316,0,0,0-4.034-.963,11.367,11.367,0,0,0,2.264-2.626,4.189,4.189,0,0,0,.483-3.3,4.373,4.373,0,0,0-3.333-2.669,9.7,9.7,0,0,0-4.49.325c.222-.061.717-1.216.9-1.455a3.988,3.988,0,0,0,1.2-2.963,3.626,3.626,0,0,0-1.93-2.807,6.56,6.56,0,0,0-2.73-.586c-2.894-.135-5.958.266-8.867.388a7.082,7.082,0,0,0-2.2.326,4.478,4.478,0,0,0-2.534,2.886,12.618,12.618,0,0,0-.417,3.868,2.991,2.991,0,0,0,.2,1.327c.354.729,1.2,1.141,1.785,1.683.538.5.97,1.107,1.513,1.594,1.278-1.257,2.2-2.494,3.955-3.28a9.487,9.487,0,0,1,5.137-.77c.326.045.7.148.817.445a.923.923,0,0,1,0,.5c-.457,2.473.353,4.26,1.664,6.325,3.645,5.742,6.748,11.825,10.158,17.655a1.367,1.367,0,0,0,.611.643,1.461,1.461,0,0,0,.979-.09c1.441-.49,2.977-1.131,3.692-2.428a4.671,4.671,0,0,0,.495-1.962A7.187,7.187,0,0,0,680.6,832.3Z" transform="translate(-503.466 -487.493)" fill="#febd95" opacity="0.5" style="mix-blend-mode: multiply;isolation: isolate"/>
          <g id="Grupo_737" data-name="Grupo 737" transform="translate(147.42 319.553)">
            <path id="Trazado_1586" data-name="Trazado 1586" d="M652.571,810.034s13.724-5.055,15.275-1.4c1.255,2.955-6.975,12.468-12.128,10.739C647.663,816.668,652.571,810.034,652.571,810.034Z" transform="translate(-651.09 -807.306)" fill="#febd95"/>
            <path id="Trazado_1587" data-name="Trazado 1587" d="M658.576,818.476s13.724-5.056,15.275-1.4c1.254,2.956-6.975,12.468-12.129,10.739C653.668,825.11,658.576,818.476,658.576,818.476Z" transform="translate(-652.071 -808.684)" fill="#febd95"/>
            <path id="Trazado_1588" data-name="Trazado 1588" d="M664.673,828.547s12.922-4.76,14.381-1.32c1.181,2.783-6.566,11.74-11.419,10.111C660.051,834.793,664.673,828.547,664.673,828.547Z" transform="translate(-653.081 -810.355)" fill="#febd95"/>
            <path id="Trazado_1589" data-name="Trazado 1589" d="M668.362,838.99s12.206-6.263,14.1-3.023c1.533,2.621-5,12.431-10.022,11.393C664.585,845.739,668.362,838.99,668.362,838.99Z" transform="translate(-653.763 -811.835)" fill="#febd95"/>
          </g>
          <path id="Trazado_1590" data-name="Trazado 1590" d="M647.194,703.928A39.038,39.038,0,0,1,624.05,715.6a51.335,51.335,0,0,1-13.818-.22l-68.5-117.166s-54.744-90.13-59.31-109.606c-3.146-13.418-14.132-61-1.85-63.03a15.343,15.343,0,0,1,3.685-.146c41.453,2.687,88,122.581,88,122.581Z" transform="translate(-474.895 -425.379)" fill="#89c7de"/>
          <path id="Trazado_1591" data-name="Trazado 1591" d="M487.034,460.89a30.234,30.234,0,0,1,9.109,2.825,27.665,27.665,0,0,1,11.973,12.473c4.706,10.295,8.54,31.143,12.961,41.588,10.157,24,19.376,36.468,33.581,58.373,9.709,14.975,18.888,30.273,28.566,45.26q4.922,8.7,9.882,17.375c6.228,10.848,12.585,21.631,19.289,32.216,4.665,7.365,9.122,14.419,12.794,22.208,3.528,8.257,7.016,16.556,11.225,24.506a38.863,38.863,0,0,1-12.09,3.626,51.335,51.335,0,0,1-13.818-.22l-68.5-117.166s-54.745-90.13-59.31-109.606c-2.5-10.643-5.93-22.074-6.127-32.98A23.4,23.4,0,0,1,487.034,460.89Z" transform="translate(-475.169 -431.12)" fill="#89c7de" opacity="0.35" style="mix-blend-mode: multiply;isolation: isolate"/>
        </g>
        <g id="Grupo_739" data-name="Grupo 739" transform="translate(52.094 184.785)">
          <path id="Trazado_1593" data-name="Trazado 1593" d="M480.635,745.977c-4.03,3.719-19.729,5.781-40.417,6.7-35.119,1.546-84.787-.147-117.066-2.577-19.445-1.436-32.566-3.128-32.395-4.526,5.171-42.118,8.275-72.45,9.831-114.9,1.163-31.722,1.525-72.025,2.616-103.749.546-15.861-1.524-36.017-.872-51.875.231-5.607-.8-40.33,2.511-42.185,11.976-6.37,34.314-18.189,65.211-18.667.5-.038,1.037-.038,1.535-.038,3.3,0,6.986-.074,10.94-.037,20.034,0,56.064,4.526,87.268,14.908,2.275.757-1.1,53.382-.872,57.731,1.294,25.239-2.334,57.6-.873,82.832,2.106,36.379,5.4,74.92,7.85,111.279C477.758,708.384,480.635,718.494,480.635,745.977Z" transform="translate(-290.755 -414.119)" fill="#89c7de"/>
          <path id="Trazado_1594" data-name="Trazado 1594" d="M375.851,426.959c-.115.4-.5.626-.845.847-21.8,13.292-36.885,30.376-45.368,54.05-7.523,20.951-9.365,43.3-10.9,65.427-4.644,67.637-6.718,136.009,4.414,202.836-19.46-1.437-32.586-3.13-32.395-4.529,0,0,1.765-28.314,3.339-51.178.538-7.437,1.075-14.286,1.5-19.4.269-3.129.538-5.633.691-7.216,3.225-26.215,0-51.362,1.19-77.135a3.425,3.425,0,0,0,.039-.626q1.382-30.929,2.918-61.893c.115-3.13.23-6.222.345-9.315,1.421-28.608,2.725-57.327,4.069-85.935,11.976-6.37,34.314-18.189,65.211-18.667,2.457,3.35,3.032,8.062,5.374,11.524A1.5,1.5,0,0,1,375.851,426.959Z" transform="translate(-290.755 -414.135)" fill="#89c7de" opacity="0.35" style="mix-blend-mode: multiply;isolation: isolate"/>
        </g>
        <g id="Grupo_746" data-name="Grupo 746" transform="translate(74.616)">
          <g id="Grupo_740" data-name="Grupo 740" transform="translate(49.399 172.471)">
            <path id="Trazado_1595" data-name="Trazado 1595" d="M413.164,415.037c.073,4.286-9.946,17.674-19.408,17.822-7.6-.342-16.724-14.047-16.778-17.257l-.265-15.636L412.9,399.4Z" transform="translate(-376.713 -399.401)" fill="#febd95"/>
            <path id="Trazado_1596" data-name="Trazado 1596" d="M376.978,415.6l-.265-15.636L412.9,399.4l.151,8.891c-12.373,2.194-22.022,12.984-27.488,20.218C378.693,420.952,377.005,417.2,376.978,415.6Z" transform="translate(-376.713 -399.401)" fill="#febd95" opacity="0.5" style="mix-blend-mode: multiply;isolation: isolate"/>
          </g>
          <g id="Grupo_744" data-name="Grupo 744" transform="translate(0 34.652)">
            <g id="Grupo_741" data-name="Grupo 741" transform="translate(120.48 57.486)">
              <path id="Trazado_1597" data-name="Trazado 1597" d="M463.659,305.559c3.21-1.412,6.9-3.5,10.313-1.021,4.542,3.3,1.816,11.04.53,15.461-2.031,6.978-6.773,15.72-12.832,12.831Z" transform="translate(-461.669 -303.388)" fill="#febd95"/>
              <path id="Trazado_1598" data-name="Trazado 1598" d="M468.4,309.892a8.879,8.879,0,0,1,3.159-.741,2.1,2.1,0,0,1,1.206.424c1.9,1.358.126,6.519-.825,9.291l-.311.915c-1.389,4.145-3.408,7.278-5.087,8.709A70.066,70.066,0,0,1,468.4,309.892Z" transform="translate(-462.462 -304.328)" fill="#f2a272"/>
            </g>
            <path id="Trazado_1599" data-name="Trazado 1599" d="M330.19,306.095c2.564,30.273,19.484,73.464,57.947,73.746,1.822.005,3.586.009,5.283-.087,6.542-.228,12.4-1.26,18.412-4.745,6.913-4.017,12.452-9.872,16.931-16.224,10.094-14.28,16.86-32.982,18-50.21.029-.239.058-.468.075-.708.015-.13.029-.25.044-.381.013-.1.016-.207.031-.337.387-3.57.613-7.1.664-10.549.061-3.415-.053-6.759-.319-10.008a74.969,74.969,0,0,0-1.045-8.128,64.189,64.189,0,0,0-5.659-17.378,48.8,48.8,0,0,0-5.809-8.954c-8.606-10.515-21.865-17.027-40.462-17.429-27.054-.575-45.451,10.043-55.459,26.955-.023.044-.048.075-.072.119a66.82,66.82,0,0,0-8.535,27.8A91.645,91.645,0,0,0,330.19,306.095Z" transform="translate(-319.658 -234.681)" fill="#febd95"/>
            <path id="Trazado_1600" data-name="Trazado 1600" d="M453.392,270.356c.616,2.134,4.122,4.444,5.584,6.361,2.178,2.842,3,6.139,3.488,9.568.344,2.4-.395,5.284.219,7.483.731,2.618,2.2,4.841,2.437,7.773.245,3.15.095,10.209.095,10.209l1.8,1.27a1.529,1.529,0,0,0,.044-.381c.013-.1.016-.207.031-.337.132-1.623.446-5.479.491-6.832.042-1.243.107-2.486.172-3.717.061-3.415-.053-6.759-.319-10.008a74.961,74.961,0,0,0-1.045-8.128,64.189,64.189,0,0,0-5.659-17.378,2.011,2.011,0,0,1-.356.373C458.52,268.092,456.138,270.724,453.392,270.356Z" transform="translate(-339.837 -239.836)" fill="#707070" opacity="0.5"/>
            <path id="Trazado_1601" data-name="Trazado 1601" d="M330.2,308.709c2.566,30.276,19.484,73.461,57.95,73.745,1.818,0,3.577,0,5.281-.085-25.255-7.144-41.114-30.2-47.791-53.286a79.61,79.61,0,0,1-1.616-38.566c1.172-5.479,2.815-13.421,6.852-17.7,4.155-4.4,7.042-6.1,13.466-5.33,6.135.732,12.118,2.705,18.207,3.671a70.709,70.709,0,0,0,19.157.262c4.5-.551,9.3-.576,13.5-2.326-7.285-.665-13.664-2.69-20.646-4.706a24,24,0,0,1-9.336-4.583c-2.035-1.719-3.636-3.889-5.975-5.294-9.278-5.571-20.331-4.69-29.633.2C331.469,264.265,328.752,291.649,330.2,308.709Z" transform="translate(-319.663 -237.294)" fill="#febd95" opacity="0.5" style="mix-blend-mode: multiply;isolation: isolate"/>
            <g id="Grupo_742" data-name="Grupo 742" transform="translate(0 23.321)">
              <path id="Trazado_1602" data-name="Trazado 1602" d="M333.726,300.453c-3.9-1.559-8.367-3.813-12.683-1.493-5.745,3.087-2.708,10.946-1.307,15.423,2.211,7.066,7.694,16.018,15.293,13.409Z" transform="translate(-317.672 -268.337)" fill="#febd95"/>
              <path id="Trazado_1603" data-name="Trazado 1603" d="M333.726,300.453c-3.9-1.559-8.367-3.813-12.683-1.493-5.745,3.087-2.708,10.946-1.307,15.423,2.211,7.066,7.694,16.018,15.293,13.409Z" transform="translate(-317.672 -268.337)" fill="#febd95" opacity="0.5" style="mix-blend-mode: multiply;isolation: isolate"/>
              <path id="Trazado_1604" data-name="Trazado 1604" d="M332.458,299.047c1.709,4.619,1.862,9.612,1.6,14.485a18.792,18.792,0,0,1,3.2-.067l.055-9.277s1.069-9.271,4.038-12.761c1.318-1.559,1.889-1.368,2.382-3.1.9-3.131.638-6.26,2.245-9.251,1.438-2.679,4.05-4.836,6.293-6.926,2.029-1.888,6.182-3.425,7.1-6.042.9.079.855.383,1.138.14-3.122-4.788-12.037-4.122-16.737-2.426a24.288,24.288,0,0,0-4.844,2.391c-.023.043-.048.075-.072.119a60.542,60.542,0,0,0-8.391,26.4C331.476,294.249,331.842,297.393,332.458,299.047Z" transform="translate(-319.761 -262.554)" fill="#707070" opacity="0.5"/>
              <path id="Trazado_1605" data-name="Trazado 1605" d="M329.6,304.6a13.116,13.116,0,0,0-3.867-.885,3,3,0,0,0-1.505.368c-2.4,1.269-.431,6.507.626,9.321l.345.93c1.54,4.205,3.9,7.428,5.911,8.935A57.245,57.245,0,0,0,329.6,304.6Z" transform="translate(-318.556 -269.276)" fill="#d98657"/>
            </g>
            <path id="Trazado_1606" data-name="Trazado 1606" d="M361.634,387.749c3.6,2.477,10.964,5.567,20.359,7.031a67.6,67.6,0,0,0,36.674-4.341c24.953-10.528,28.947-68.286,28.947-68.286l-2.385-.064c-2.152,27-28.02,28.775-28.02,28.775-19.078-9.869-41.785-1.124-41.785-1.124-15.163.126-25.67-9.543-31.636-17.247a54.211,54.211,0,0,1-5.869-9.306l-3.2.067C332.153,366.3,353.992,382.511,361.634,387.749Z" transform="translate(-320.423 -248.956)" fill="#4f2308"/>
            <path id="Trazado_1607" data-name="Trazado 1607" d="M361.634,387.963c3.6,2.477,10.964,5.567,20.359,7.031-1.234-.917-2.253-1.676-2.616-1.926a46.4,46.4,0,0,1-7.9-6.871,112.484,112.484,0,0,1-12.949-16.766,107.811,107.811,0,0,1-14.739-36.724,54.211,54.211,0,0,1-5.869-9.306l-3.2.067C332.153,366.517,353.992,382.726,361.634,387.963Z" transform="translate(-320.423 -249.171)" fill="#525252" opacity="0.25" style="mix-blend-mode: multiply;isolation: isolate"/>
            <path id="Trazado_1608" data-name="Trazado 1608" d="M424.695,361.616l-43.668-.924S404.222,397.392,424.695,361.616Z" transform="translate(-328.019 -255.261)" fill="#fff"/>
            <g id="Grupo_743" data-name="Grupo 743" transform="translate(47.104 67.772)">
              <path id="Trazado_1609" data-name="Trazado 1609" d="M426.721,325.943c-.31,3.652,1.493,6.78,4.029,6.986s4.843-2.589,5.153-6.241-1.493-6.781-4.028-6.986S427.032,322.291,426.721,325.943Z" transform="translate(-382.579 -316.336)" fill="#4f2308"/>
              <path id="Trazado_1610" data-name="Trazado 1610" d="M374.005,321.934c-.311,3.652,1.493,6.78,4.029,6.985s4.843-2.589,5.153-6.241-1.493-6.781-4.029-6.986S374.316,318.281,374.005,321.934Z" transform="translate(-373.97 -315.681)" fill="#4f2308"/>
            </g>
            <path id="Trazado_1611" data-name="Trazado 1611" d="M430.6,306.74s11.353.909,17.284,6.32l.881-1.762s-9.389-8.011-19.47-9Z" transform="translate(-335.901 -245.724)" fill="#4f2308"/>
            <path id="Trazado_1612" data-name="Trazado 1612" d="M385.867,304.778s-11.41-.676-18.086,3.849l-.62-1.863s10.489-6.614,20.645-6.192Z" transform="translate(-325.754 -245.439)" fill="#4f2308"/>
          </g>
          <g id="Grupo_745" data-name="Grupo 745" transform="translate(16.011)">
            <path id="Trazado_1613" data-name="Trazado 1613" d="M405.929,261.7q2.519.046,5.038.02c8.175-.084,18.6.259,26.394-2.308,20.357-6.705,17.526-35.129,6.958-48.113-6.438-7.909-17.809-17-29.024-17.291,7.233.733,10.715,13.987,8.525,19.352-5.269-12.191-22.194-18.348-35.051-20.091,5.121,2.724,6.952,8.576,6.783,13.779.043-1.32-5.383-4.459-6.559-5.274a26.889,26.889,0,0,0-7.027-3.041,15.689,15.689,0,0,0-8.885-.3s4.588,1.868,5.149,5.36c.494,3.07-2.728,4.986-5.208,6.332-3.9,2.115-8.225,3.837-12.139,5.8-16.808,8.432-27.235,24.584-23.211,43.245,6.729-7.019,11.526-7.77,20.219-5.1a173.579,173.579,0,0,0,27.37,6.025A176.43,176.43,0,0,0,405.929,261.7Z" transform="translate(-336.809 -193.266)" fill="#4f2308"/>
            <path id="Trazado_1614" data-name="Trazado 1614" d="M440.582,245.88c10.291-9.27,3.953-25.6-7.06-32.988,6.7,4.492-.26,15.771-6.078,17.753.365-7.01-8.718-14.255-15.108-16.352,7.723,2.535-9.8,13.728-12.508,14.245,3.3-4.229-5.86-14.389-10.136-15.869,4.824,1.672.01,9.34-1.845,11.56-3.732,4.463-9.284,7.359-14.722,9.567-8.849,3.592-14.272,8.144-21.31,14.338,4.142-3.191,8.318-3.633,13.533-4.442,4.52-.7,8.487-1.938,13.08-2.236a21.837,21.837,0,0,0,10.481-2.925c-4.952,6.212-10.855,9.749-18.8,11.77,6.347.318,13.345-.036,19.355-2.039,6.115-2.041,10.653-8.025,16.426-10.86,2.424-1.191,5.973-3.436,7.631-.6,1.045,1.785-.559,5.956-1.662,7.481-3.059,4.23-7.277,6.725-12.287,8.179,3-.87,6.76-.262,9.935-1.072a30.94,30.94,0,0,0,8.674-3.734c5.73-3.561,11.356-7.543,16.862-11.422,1.13,5.535-5.782,13.886-10.946,15.881,1.422-.478,2.7-.1,4.264-.237,3.275-.28,5.673-1.814,8.477-3.36A19.972,19.972,0,0,0,440.582,245.88Z" transform="translate(-339.259 -196.435)" fill="#7a360d"/>
          </g>
        </g>
        <path id="Trazado_1615" data-name="Trazado 1615" d="M230.432,752.959c8.448,4.229,15.308,5.487,24.094,3.845a50.638,50.638,0,0,0,13-4.5l6.324-141.187s31.916-105.659,29.656-125.5c-1.558-13.671,1.06-49.682-11.243-47.779a15.152,15.152,0,0,0-3.536,1.007c-38.306,15.431-60.231,152.2-60.231,152.2Z" transform="translate(-228.492 -233.195)" fill="#89c7de"/>
      </g>
    </g>
    <g id="Grupo_748" data-name="Grupo 748" transform="translate(205.748 670.461)">
      <rect id="Rectángulo_56" data-name="Rectángulo 56" width="300.986" height="70.593" rx="14.401" opacity="0.4" style="isolation: isolate"/>
      <g id="Grupo_393" data-name="Grupo 393" transform="translate(57.402 15.979)">
        <circle id="Elipse_44" data-name="Elipse 44" cx="21.613" cy="21.613" r="21.613" fill="#fff" opacity="0.8" style="isolation: isolate"/>
        <circle id="Elipse_45" data-name="Elipse 45" cx="21.613" cy="21.613" r="21.613" transform="translate(73.164)" fill="#f43853"/>
        <circle id="Elipse_46" data-name="Elipse 46" cx="21.613" cy="21.613" r="21.613" transform="translate(144.642)" fill="#fff" opacity="0.8" style="isolation: isolate"/>
        <g id="Grupo_392" data-name="Grupo 392" transform="translate(9.89 13.439)">
          <path id="Trazado_892" data-name="Trazado 892" d="M300.177,807.05a2.409,2.409,0,1,1-2.41,2.409A2.408,2.408,0,0,1,300.177,807.05Z" transform="translate(-290.577 -807.05)" fill="#454545"/>
          <path id="Trazado_893" data-name="Trazado 893" d="M312.624,820.73h-23.45l5.438-5.973,3.728,3.765,6.936-6.446Z" transform="translate(-289.174 -807.871)" fill="#454545"/>
        </g>
        <path id="Trazado_894" data-name="Trazado 894" d="M388.282,815.11s-3.846-.213-4.328.749c-.716,1.432.09,4.6-4.5,4.328s-3.068-4.129-2.544-5.244,1.431-3.148,11.371-3.148,10.847,2.03,11.371,3.148,2.042,4.976-2.545,5.244-3.78-2.9-4.5-4.328C392.129,814.9,388.282,815.11,388.282,815.11Z" transform="translate(-293.504 -794.386)" fill="#fff"/>
        <rect id="Rectángulo_57" data-name="Rectángulo 57" width="21.196" height="14.249" transform="translate(155.658 13.757)" fill="#454545"/>
        <path id="Trazado_895" data-name="Trazado 895" d="M481.994,829.149V822.8l-5.625.952Z" transform="translate(-309.855 -796.183)" fill="#454545"/>
        <rect id="Rectángulo_58" data-name="Rectángulo 58" width="15.895" height="2.414" transform="translate(158.308 17.323)" fill="#fff"/>
        <rect id="Rectángulo_59" data-name="Rectángulo 59" width="8.434" height="2.414" transform="translate(158.308 22.315)" fill="#fff"/>
      </g>
    </g>
    <g id="Grupo_749" data-name="Grupo 749" transform="translate(626.329 671.627)">
      <rect id="Rectángulo_52" data-name="Rectángulo 52" width="301.483" height="69.338" rx="16.43" opacity="0.4" style="isolation: isolate"/>
      <g id="Grupo_391" data-name="Grupo 391" transform="translate(58.477 13.44)">
        <circle id="Elipse_41" data-name="Elipse 41" cx="21.229" cy="21.229" r="21.229" fill="#fff" opacity="0.8" style="isolation: isolate"/>
        <circle id="Elipse_42" data-name="Elipse 42" cx="21.229" cy="21.229" r="21.229" transform="translate(71.864)" fill="#f43853"/>
        <circle id="Elipse_43" data-name="Elipse 43" cx="21.229" cy="21.229" r="21.229" transform="translate(142.072)" fill="#fff" opacity="0.8" style="isolation: isolate"/>
        <g id="Grupo_390" data-name="Grupo 390" transform="translate(9.714 13.201)">
          <path id="Trazado_888" data-name="Trazado 888" d="M803.73,805.125a2.366,2.366,0,1,1-2.366,2.366h0a2.365,2.365,0,0,1,2.364-2.366Z" transform="translate(-794.301 -805.125)" fill="#454545"/>
          <path id="Trazado_889" data-name="Trazado 889" d="M815.952,818.565h-23.03l5.341-5.867,3.662,3.7,6.812-6.331Z" transform="translate(-792.922 -805.932)" fill="#454545"/>
        </g>
        <path id="Trazado_890" data-name="Trazado 890" d="M890.268,813.042s-3.778-.21-4.251.734c-.7,1.407.088,4.515-4.416,4.252s-3.014-4.055-2.5-5.15,1.406-3.091,11.168-3.091,10.655,2,11.167,3.091,2.006,4.888-2.5,5.15-3.715-2.845-4.418-4.252C894.047,812.832,890.268,813.042,890.268,813.042Z" transform="translate(-797.176 -792.685)" fill="#fff"/>
        <rect id="Rectángulo_53" data-name="Rectángulo 53" width="20.82" height="13.995" transform="translate(152.891 13.512)" fill="#454545"/>
        <path id="Trazado_891" data-name="Trazado 891" d="M982.315,826.833V820.6l-5.525.935Z" transform="translate(-813.236 -794.451)" fill="#454545"/>
        <rect id="Rectángulo_54" data-name="Rectángulo 54" width="15.612" height="2.371" transform="translate(155.495 17.014)" fill="#fff"/>
        <rect id="Rectángulo_55" data-name="Rectángulo 55" width="8.284" height="2.371" transform="translate(155.495 21.919)" fill="#fff"/>
      </g>
    </g>
    <path id="Trazado_1616" data-name="Trazado 1616" d="M728.207,772.418a89.766,89.766,0,0,1-15.534.94,137.367,137.367,0,0,0-13.964-.008l-2.928,3.712,4.562,34.123L713.59,795.1l22.048-22.538Q731.922,772.521,728.207,772.418Z" transform="translate(-82.537 -101.516)" fill="#febd95"/>
    <path id="Trazado_1617" data-name="Trazado 1617" d="M732.086,772.5A213.632,213.632,0,0,1,709.573,790q-1.555,1.1-3.11,2.1a10.7,10.7,0,0,0-3.684,3.276,7.06,7.06,0,0,0-.807,3.535,12.6,12.6,0,0,0,2.956,7.916l5.45-6.591,4.222-5.117,22.048-22.538Q734.368,772.552,732.086,772.5Z" transform="translate(-83.549 -101.529)" fill="#febd95" opacity="0.5" style="mix-blend-mode: multiply;isolation: isolate"/>
  </g>
</svg>
