<svg xmlns="http://www.w3.org/2000/svg" width="689.996" height="607.054" viewBox="0 0 689.996 607.054"><g transform="translate(-155.963 -247.869)"><g transform="translate(155.963 247.869)"><g transform="translate(0 0.915)"><path d="M158.328,277.027v497.2a28.213,28.213,0,0,0,28.217,28.217h247.6a28.208,28.208,0,0,0,28.217-28.217v-497.2a28.213,28.213,0,0,0-28.217-28.217h-247.6a28.2,28.2,0,0,0-28.217,28.217Z" transform="translate(-158.328 -248.81)" fill="#2e3062"/><g transform="translate(14.079 14.072)"><path d="M448.677,275.707v500.62a12.393,12.393,0,0,1-12.426,12.425H185.24a12.414,12.414,0,0,1-12.434-12.425V275.707a12.072,12.072,0,0,1,.173-2.038,12.478,12.478,0,0,1,9.876-10.165,13.372,13.372,0,0,1,2.384-.223H436.251A12.429,12.429,0,0,1,448.677,275.707Z" transform="translate(-172.806 -263.281)" fill="#fff9ff"/></g><path d="M448.679,275.713v33.344H172.8V275.713a12,12,0,0,1,.171-2.04,12.5,12.5,0,0,1,7.378-9.4,12.147,12.147,0,0,1,2.5-.766,12.57,12.57,0,0,1,2.382-.228h251.01A12.437,12.437,0,0,1,448.679,275.713Z" transform="translate(-158.727 -249.209)" fill="#dadaef"/><path d="M323.646,256.024H292.293v6.966c16.242,0,16.593,14.788,16.593,14.788h.043c-.006.173-.026.342-.026.517a13.869,13.869,0,0,0,27.737,0c0-.175-.019-.344-.026-.516l.06,0s.351-14.788,16.593-14.788v-6.966Z" transform="translate(-162.019 -249.009)" fill="#2e3062"/><circle cx="7.95" cy="7.95" r="7.95" transform="translate(152.803 21.643)" fill="#524e82"/></g><g transform="translate(385.462)"><g transform="translate(0)"><path d="M554.71,276.132V774.157a28.26,28.26,0,0,0,28.263,28.263H830.98a28.254,28.254,0,0,0,28.263-28.263V276.132a28.259,28.259,0,0,0-28.263-28.263H582.973a28.249,28.249,0,0,0-28.263,28.263Z" transform="translate(-554.71 -247.869)" fill="#2e3062"/><g transform="translate(14.103 14.096)"><path d="M845.54,274.809V776.258A12.414,12.414,0,0,1,833.093,788.7H581.667a12.434,12.434,0,0,1-12.454-12.445V274.809a12.016,12.016,0,0,1,.173-2.041,12.5,12.5,0,0,1,9.893-10.182,13.418,13.418,0,0,1,2.388-.223H833.093A12.449,12.449,0,0,1,845.54,274.809Z" transform="translate(-569.213 -262.364)" fill="#fff9ff"/></g><path d="M845.542,274.816v33.4H569.211v-33.4a12.148,12.148,0,0,1,.171-2.044,12.521,12.521,0,0,1,7.391-9.412,12.218,12.218,0,0,1,2.5-.768,12.6,12.6,0,0,1,2.385-.228H833.089A12.457,12.457,0,0,1,845.542,274.816Z" transform="translate(-555.11 -248.268)" fill="#dadaef"/><g transform="translate(80.669 14.096)"><path d="M787.224,262.364l-10.251,10.25a12.141,12.141,0,0,0-3.552,8.584,12.145,12.145,0,0,1-12.14,12.136H663.608A12.145,12.145,0,0,1,651.467,281.2a12.136,12.136,0,0,0-3.552-8.584l-10.251-10.25Z" transform="translate(-637.664 -262.364)" fill="#2e3062"/><circle cx="5.044" cy="5.044" r="5.044" transform="translate(109.871 10.21)" fill="#524e82"/><rect width="77.633" height="10.088" rx="1.403" transform="translate(25.439 10.21)" fill="#524e82"/></g></g></g></g><g transform="translate(170.042 321.221)"><path d="M241.817,771.037,237.306,803H415.092l-10.064-38.7Z" transform="translate(-174.583 -335.449)" fill="#144273"/><path d="M194.3,642.008a171.987,171.987,0,0,0-12.088,21.473,263.312,263.312,0,0,0,32.9,26.931c8.351-19.289,15.251-29.3,15.251-29.3Z" transform="translate(-173.065 -332.08)" fill="#e98870"/><path d="M403.306,653.906l.928,17.73,54.828-17.324s-37.2-88.759-53.608-106.423S346.8,522.2,346.8,522.2l-23.577,2.107-26.216-1.973s-42.123,8.614-58.283,26.507c-13.83,15.314-62.343,96.182-62.343,96.182l-.021,6.3L230.9,677.3l11.461-22.483-4.309,112.56c9.024,5.336,22.75,10.372,39.162,13.9H369.6a153.38,153.38,0,0,0,39.6-14.88l-4.96-94.759Z" transform="translate(-172.904 -328.779)" fill="#1f5d9a"/><path d="M803.259,592.4c13.035-6.009,18.562-22.3,16.859-36.552s-8.984-27.119-15.459-39.927-12.414-26.7-11.1-41c1.04-11.354,6.6-21.913,7.736-33.258a44.115,44.115,0,0,0-13.162-35.7c-7.753-7.43-17.981-11.728-28.276-14.78-21.386-6.339-43.527-6.156-65.822-5.447a230.9,230.9,0,0,0-50.809,7.331c-7.318,1.9-14.662,4.228-20.925,8.465s-11.391,10.658-12.542,18.132c-1.414,9.184,3.393,18.415,10.135,24.811,3.385,3.211,7.257,5.882,10.6,9.143a41.409,41.409,0,0,1,11.833,22.721,32.261,32.261,0,0,1-.516,13.785c-1.944,7.032-6.666,12.893-10.583,19.048-5.348,8.4-9.39,17.926-9.716,27.883a40.647,40.647,0,0,0,13.718,31.5c.447.389,1.06.791,1.586.517a1.539,1.539,0,0,0,.614-.9l6.046-16.329c4.129,12.874,14.559,23.19,26.826,28.874s26.212,7.053,39.67,5.759C741.14,583.488,771.953,591.449,803.259,592.4Z" transform="translate(-184.837 -325.01)" fill="#173158"/><path d="M808.507,570.1l.587.228c-17.121-6.682-42.363-11.657-42.363-11.657a19.918,19.918,0,0,1-13.876-16.861l-3.671-33.725-48.675,19.809.414,19.479a19.917,19.917,0,0,1-11.547,18.5s-13.115,7.071-28.327,14.431c7.242,3.85,15.414,6.113,23.511,7.739C726.3,596.421,770.748,589.651,808.507,570.1Z" transform="translate(-186.257 -328.39)" fill="#f7a87e"/><path d="M755.395,539.871c9.59.934,19.285-3.789,25.361-11.268s8.716-17.4,8.332-27.028a98.052,98.052,0,0,0-1.647-12.813c-8.329,12.35-16.848,24.952-25.177,37.3C759.261,530.514,756.08,534.548,755.395,539.871Z" transform="translate(-188.856 -327.858)" fill="#0e284c"/><path d="M498.383,828.315a33.889,33.889,0,0,0-3.563,1.137,9.384,9.384,0,0,0-3.487,2.023,3.824,3.824,0,0,0-1.091,3.709,5.835,5.835,0,0,0,2.6,2.742,60.51,60.51,0,0,0,8.614,5.093c1.514.683,3.3,1.233,4.789.5,1.7-.835,2.277-3,2.153-4.89a10.675,10.675,0,0,0-4.711-8.086c-.918-.6-1.952-1.04-2.832-1.7A2.257,2.257,0,0,0,498.383,828.315Z" transform="translate(-181.547 -337.208)" fill="#e98870"/><path d="M513.254,862.857a9.293,9.293,0,0,1-9.386.976,4.141,4.141,0,0,1-1.888-1.553,2.017,2.017,0,0,1,.118-2.316,2.76,2.76,0,0,1,1.358-.7c2.679-.728,5.631-.486,8.112-1.733a5.63,5.63,0,0,1,1,1.75q.513,1.428.89,2.9C513.573,862.62,513.614,862.584,513.254,862.857Z" transform="translate(-181.866 -338.017)" fill="#e98870"/><path d="M521.987,834.49a51.821,51.821,0,0,0,3.2-29.451c-.649-3.495-1.66-7.092-.8-10.54.757-3.029,2.862-5.512,4.889-7.887,9.783-11.465,18.157-23.992,27.254-36.009-5.344-4.278-12.3-5.822-18.572-8.567-2.935-1.286-5.91-1.945-8.71-3.5q-18.06,25.24-33.62,52.15c3.252,3.967,4.511,7.384,7,11.868C508.844,813.739,515.779,823.3,521.987,834.49Z" transform="translate(-181.7 -334.739)" fill="#f7a87e"/><path d="M495.635,791.705c3.252,3.967,4.511,7.384,7,11.868,6.209,11.189,13.145,20.75,19.353,31.939a51.859,51.859,0,0,0,4-22.528,142.63,142.63,0,0,0-20.752-37.335Q500.319,783.607,495.635,791.705Z" transform="translate(-181.7 -335.761)" fill="#e98870"/><path d="M751.614,520.674l-1.371-12.592-48.675,19.809.414,19.479a19.889,19.889,0,0,1-2.5,10.091A84.273,84.273,0,0,0,727.9,546.282,66.911,66.911,0,0,0,751.614,520.674Z" transform="translate(-187.315 -328.39)" fill="#e98870"/><path d="M661.627,454.3a23.927,23.927,0,0,1-15.661-41.243c5.577-5.31,13.369-7.619,20.993-8.7a84.247,84.247,0,0,1,22.688-.124C675.928,418.24,666.966,435.437,661.627,454.3Z" transform="translate(-185.639 -325.51)" fill="#0e284c"/><path d="M291.789,500.815l-.514,35.88s7.61,31.374,35.83,26.933,29.315-34.219,29.315-34.219l-4.252-35.471Z" transform="translate(-176.07 -328)" fill="#f7a87e"/><path d="M354.071,509.818l-1.9-15.881-60.378,6.878-.514,35.88a43.486,43.486,0,0,0,2.7,7.3,85.142,85.142,0,0,0,37.314-13.7C339.8,524.59,347.153,517.421,354.071,509.818Z" transform="translate(-176.07 -328)" fill="#e98870"/><g transform="translate(50.746 0)"><path d="M364.194,456.828a70.739,70.739,0,0,0,24.464-63.282c1.486,1.682,3.057,3.426,5.156,4.219s4.879.278,5.9-1.718a6.465,6.465,0,0,0,.389-3.587A43.692,43.692,0,0,0,388.7,367.087c4.329.4,8.657,4.619,12.386,2.384,2.2-1.32,2.728-4.452,1.819-6.853s-2.891-4.214-4.875-5.843A91.414,91.414,0,0,0,358.01,338.19a11.373,11.373,0,0,0,6.225-2.508,6.22,6.22,0,0,0,2.067-6.123c-.909-3.173-4.572-4.577-7.81-5.22-20.545-4.08-42.219,4.619-61.55,12.686a18.329,18.329,0,0,0,2.545-6.789c.224-2.424-.745-5.129-2.921-6.217a7.293,7.293,0,0,0-3.35-.61,24.806,24.806,0,0,0-10.565,2.843c-8.079,3.97-14.679,10.554-19.677,18.041s-8.142,16.5-11.086,25a47.182,47.182,0,0,0-25.681,24.381c-.964,2.148-1.758,4.669-.748,6.8,1.052,2.211,3.794,3.194,6.23,2.937a17.982,17.982,0,0,0,6.772-2.7,45.989,45.989,0,0,0,14.516,46.224c4.518,3.783,10.1,6.742,15.985,6.584C299.494,452.7,333.752,459.306,364.194,456.828Z" transform="translate(-224.989 -323.3)" fill="#173158"/><path d="M372.478,448.97q-1.308-36.073-2.616-72.147a66.04,66.04,0,0,0-36.357-7.013q-8.322.808-16.64,1.7-10.615.738-21.224,1.608A69.683,69.683,0,0,0,260.4,386.55q2.611,35.956,5.221,71.914c1.086,14.956,2.736,31.286,12.518,41.579,4.4,4.628,10.053,7.544,15.722,10.063,3.774,1.678,11.845,4.452,18.562,6.635a26.091,26.091,0,0,0,20.291-1.844c6.322-3.319,13.864-7.432,17.392-9.748,5.341-3.506,10.624-7.4,14.479-12.77C373.157,480.441,373.022,463.976,372.478,448.97Z" transform="translate(-225.965 -324.573)" fill="#f7a87e"/><path d="M311.242,415.45a5.354,5.354,0,0,1,2.645.464c1.255.693,1.789,2.188,2.222,3.554.483,1.529.923,3.347-.062,4.613a5.045,5.045,0,0,1-3.151,1.455l-24.2,4.79c-1.317.261-2.8.491-3.9-.267a3.379,3.379,0,0,1-1.155-3.47c.88-4.2,7.97-6.616,11.5-8.008A44.8,44.8,0,0,1,311.242,415.45Z" transform="translate(-226.603 -325.838)" fill="#173158"/><path d="M341.842,413.953a5.353,5.353,0,0,0-2.612.623c-1.212.767-1.653,2.292-2,3.682-.391,1.556-.72,3.4.34,4.6a5.039,5.039,0,0,0,3.233,1.26q12.224,1.66,24.448,3.317c1.329.181,2.821.321,3.88-.5a3.38,3.38,0,0,0,.944-3.534c-1.134-4.135-8.356-6.121-11.968-7.3A44.76,44.76,0,0,0,341.842,413.953Z" transform="translate(-228.071 -325.795)" fill="#173158"/><path d="M311.874,444.936c.146,4.5-2.348,8.235-5.572,8.34s-5.955-3.458-6.1-7.96,2.348-8.235,5.571-8.34S311.727,440.435,311.874,444.936Z" transform="translate(-227.061 -326.431)" fill="#173158"/><path d="M355.9,441.972c.147,4.5-2.348,8.235-5.571,8.34s-5.956-3.458-6.1-7.959,2.348-8.235,5.571-8.34S355.754,437.471,355.9,441.972Z" transform="translate(-228.274 -326.35)" fill="#173158"/><path d="M315.689,457.962c.965,4.839,4.892,8.424,9.519,8.334s8.413-3.825,9.189-8.7Z" transform="translate(-227.488 -326.999)" fill="#f17d6f"/><path d="M333.045,481.312a23.433,23.433,0,0,0,9.025-7.58,99.517,99.517,0,0,1-35.711,2.313,31.652,31.652,0,0,0,14.784,6.46A21.833,21.833,0,0,0,333.045,481.312Z" transform="translate(-227.231 -327.444)" fill="#fff"/><path d="M344.044,473.186q-1.012.277-2.03.531a23.433,23.433,0,0,1-9.025,7.58,21.834,21.834,0,0,1-11.9,1.193,31.653,31.653,0,0,1-14.784-6.46c-.66-.078-1.32-.159-1.978-.251.617,3.252,3.1,16.816,10.619,23.529.309-.294.632-.574.963-.837a18.139,18.139,0,0,1,21.109-1.148C343,490.372,344.37,478.93,344.044,473.186Z" transform="translate(-227.175 -327.429)" fill="#c35c6a"/><path d="M316.208,499.075c-.331.264-.654.544-.963.837a14.116,14.116,0,0,0,10.481,3.776,15.935,15.935,0,0,0,11.591-5.761,18.139,18.139,0,0,0-21.109,1.147Z" transform="translate(-227.476 -328.032)" fill="#f28487"/><path d="M367.439,464.821a9.509,9.509,0,1,1-8.326-10.561A9.508,9.508,0,0,1,367.439,464.821Z" transform="translate(-228.391 -326.906)" fill="#f38e77" opacity="0.47"/><path d="M298.031,468.226a9.509,9.509,0,1,1-8.326-10.561A9.51,9.51,0,0,1,298.031,468.226Z" transform="translate(-226.479 -326.999)" fill="#f38e77" opacity="0.47"/><g transform="translate(140.502 115.53)"><path d="M369.472,481.352a31.426,31.426,0,0,0,20.347-7.5,25.782,25.782,0,0,0,8.867-19.536c-.094-4.07-1.515-8.433-4.939-10.635-2.614-1.681-5.947-1.817-9.018-1.341-4.266.659-8.646,2.66-10.678,6.468Z" transform="translate(-369.472 -442.103)" fill="#f7a87e"/><g transform="translate(3.504 9.284)"><path d="M384.008,454.605a5.523,5.523,0,0,1,1.063.711,7.087,7.087,0,0,1,.949,9.883.693.693,0,0,1-1.078-.872,5.7,5.7,0,0,0-.763-7.951,3.339,3.339,0,0,0-1.733-.821,14.076,14.076,0,0,0-5.249,7.178.694.694,0,0,1-.63.485.724.724,0,0,1-.239-.031.694.694,0,0,1-.453-.869,15.242,15.242,0,0,1,16.849-10.5.693.693,0,0,1-.21,1.37A14.081,14.081,0,0,0,384.008,454.605Z" transform="translate(-373.152 -451.65)" fill="#e4876d"/><path d="M373.146,470.157a.694.694,0,0,1,.927-.32c3.872,1.887,8.472.289,11.486-1.836a13.612,13.612,0,0,0,5.4-6.99.693.693,0,0,1,1.33.39,14.971,14.971,0,0,1-5.932,7.733,15.637,15.637,0,0,1-8.021,2.912,10,10,0,0,1-4.871-.963A.693.693,0,0,1,373.146,470.157Z" transform="translate(-373.076 -451.894)" fill="#e4876d"/></g></g><g transform="translate(16.322 119.351)"><path d="M272.22,484.409a31.427,31.427,0,0,1-20.674-6.543,25.781,25.781,0,0,1-9.767-19.1c-.1-4.069,1.12-8.493,4.437-10.853,2.533-1.8,5.857-2.092,8.948-1.76,4.291.46,8.76,2.254,10.967,5.964Z" transform="translate(-241.774 -446.031)" fill="#f7a87e"/><g transform="translate(5.452 9.399)"><path d="M256.771,458.363a5.56,5.56,0,0,0-1.028.76,7.086,7.086,0,0,0-.487,9.916.693.693,0,1,0,1.035-.921,5.7,5.7,0,0,1,.392-7.978,3.343,3.343,0,0,1,1.693-.9,14.082,14.082,0,0,1,5.579,6.926.694.694,0,0,0,.652.455.728.728,0,0,0,.237-.043.694.694,0,0,0,.412-.889,15.243,15.243,0,0,0-17.319-9.7.693.693,0,0,0,.273,1.359A14.077,14.077,0,0,1,256.771,458.363Z" transform="translate(-247.38 -455.696)" fill="#e4876d"/><path d="M268.3,473.4a.694.694,0,0,0-.94-.276c-3.781,2.065-8.45.683-11.559-1.3a13.607,13.607,0,0,1-5.72-6.731.693.693,0,0,0-1.31.452,14.971,14.971,0,0,0,6.285,7.448,15.643,15.643,0,0,0,8.149,2.536,10,10,0,0,0,4.819-1.189A.693.693,0,0,0,268.3,473.4Z" transform="translate(-247.417 -455.942)" fill="#e4876d"/></g></g><path d="M262.827,444.831c5.359-9,6.413-17.364,6.474-27.841a110.044,110.044,0,0,0-4.359-31.438,173.938,173.938,0,0,0,43.568,9.741c2,.182,4.145.3,5.887-.7,4.026-2.31,2.858-8.871-.734-11.809a76.863,76.863,0,0,0,28.7,10.659,13.056,13.056,0,0,0,6.666-.225c2.1-.807,3.844-2.972,3.435-5.184,2.862,6.19,6.455,12.164,11.5,16.752s11.7,7.69,18.51,7.436c.625-13.852-1.46-27.765-7.181-40.4-2.009-4.436-4.545-8.883-8.628-11.537-2.859-1.859-6.252-2.688-9.592-3.371a150.634,150.634,0,0,0-73.628,3.438c-6.407,1.948-12.771,4.372-18.184,8.317a37.527,37.527,0,0,0-10.077,49.634A49.3,49.3,0,0,0,262.827,444.831Z" transform="translate(-225.674 -324.143)" fill="#173158"/><path d="M346.243,331.409a4.674,4.674,0,0,1,3.262,1,3.3,3.3,0,0,1,.829,2.125c.171,2.836-1.955,5.287-4.222,7s-4.882,3.112-6.486,5.456a1.8,1.8,0,0,0-.415,1.444c.176.622.881.907,1.5,1.09,5.131,1.514,10.675,2.034,15.232,4.834a6.112,6.112,0,0,1,2.75,2.918c1.089,3.035-2.124,5.991-5.255,6.764s-6.579.448-9.422,1.97a1.887,1.887,0,0,0-.953.9c-.308.815.434,1.623,1.123,2.155a31.89,31.89,0,0,0,3.648,2.432c1.24.71,2.662,1.5,2.983,2.894.369,1.6-1.034,3.169-2.615,3.611a10.372,10.372,0,0,1-4.867-.264,108.889,108.889,0,0,0-43.305-.211,10.367,10.367,0,0,1-4.138.28,3.333,3.333,0,0,1-2.771-2.733c-.141-1.992,2.016-3.256,3.814-4.125a57.011,57.011,0,0,0,8.379-4.978,2.07,2.07,0,0,0,.983-1.211,1.782,1.782,0,0,0-.5-1.33c-1.418-1.764-3.692-2.538-5.643-3.688s-3.8-3.188-3.334-5.4c.3-1.441,1.5-2.5,2.633-3.441,5.727-4.785,11.5-11.325,18.413-14.387A63.36,63.36,0,0,1,346.243,331.409Z" transform="translate(-226.866 -323.521)" fill="#18345b"/></g><path d="M776.343,459.5c-.444,14.11-5.8,27.82-13.93,39.364s-18.929,21.022-30.688,28.836c-11.114,7.386-24.223,13.552-37.385,11.35-9.413-1.575-17.583-7.235-25.15-13.053-7.276-5.6-14.866-12.431-15.847-21.557-.632-5.878,1.645-11.631,2.6-17.466,1.961-11.983-1.675-24.105-2.335-36.229-.31-5.7.072-11.559,2.3-16.814a39.484,39.484,0,0,1,7.563-10.993,89.864,89.864,0,0,1,28.954-21.047c20.245,4.846,40.861,13.938,59.008,24.138,6.5,3.652,13,7.532,18.113,12.956S776.579,452.049,776.343,459.5Z" transform="translate(-186.041 -325.465)" fill="#f7a87e"/><path d="M690.51,394.993c-2.2,5.678-4.355,11.449-5.084,17.493s.093,12.478,3.462,17.55c2.828,4.258,7.212,7.245,11.761,9.575,12.467,6.384,26.668,8.544,39.568,14,7.586,3.209,15.086,7.985,18.542,15.462,2.139,4.625,2.525,9.873,2.306,14.964a69.419,69.419,0,0,1-30.43,53.933c11.133-.153,22.481.805,32.3-4.433,8.244-4.4,14.472-12.008,18.451-20.462s5.862-17.749,6.941-27.03a169.374,169.374,0,0,0,.647-32.393c-.49-6.442-1.373-12.946-3.88-18.9-5.5-13.056-18.056-21.778-30.931-27.691A135.291,135.291,0,0,0,690.51,394.993Z" transform="translate(-186.921 -325.269)" fill="#173158"/><path d="M678.09,449.87a2.54,2.54,0,0,1,2.03.283,4.127,4.127,0,0,1,1.559,4.925c-.889,1.857-18.5,5.338-24.718,6.281a1.259,1.259,0,0,1-1.271-1.892c1.328-2.16,4.278-3.13,6.513-4.09A117.294,117.294,0,0,1,678.09,449.87Z" transform="translate(-186.104 -326.784)" fill="#173158"/><path d="M705.93,449.8a2.54,2.54,0,0,0-1.969.567,4.128,4.128,0,0,0-.848,5.1c1.143,1.712,19.066,2.671,25.358,2.726a1.259,1.259,0,0,0,.991-2.053c-1.62-1.951-4.677-2.494-7.025-3.128A117.212,117.212,0,0,0,705.93,449.8Z" transform="translate(-187.4 -326.784)" fill="#173158"/><path d="M677.536,472.649c0,3.386-1.884,6.13-4.207,6.13s-4.208-2.744-4.208-6.13,1.884-6.131,4.208-6.131S677.536,469.263,677.536,472.649Z" transform="translate(-186.479 -327.245)" fill="#173158"/><path d="M716.3,472.472c0,3.385-1.884,6.13-4.208,6.13s-4.207-2.745-4.207-6.13,1.884-6.131,4.207-6.131S716.3,469.086,716.3,472.472Z" transform="translate(-187.547 -327.24)" fill="#173158"/><path d="M683.56,486.739c0,.017,0,.035,0,.052a6.173,6.173,0,0,0,12.345,0c0-.017,0-.035,0-.052Z" transform="translate(-186.877 -327.802)" fill="#f17d6f"/><path d="M700.289,508.66a37.068,37.068,0,0,0,11.748-5.566,44.346,44.346,0,0,0,1.117-6.364,89.537,89.537,0,0,1-36.618,6.193c.6,1.353,1.305,3.086,2.122,5.018A37.247,37.247,0,0,0,700.289,508.66Z" transform="translate(-186.683 -328.077)" fill="#fff"/><path d="M690.564,527.556a9.237,9.237,0,0,0,6.487,2.527c4.62-.265,8.462-6.362,11.273-13.284A35.487,35.487,0,0,0,690.564,527.556Z" transform="translate(-187.07 -328.63)" fill="#f28487"/><path d="M700.349,508.84a37.247,37.247,0,0,1-21.63-.72c2.69,6.361,6.56,14.877,11.519,19.063A35.488,35.488,0,0,1,708,516.427a90.909,90.909,0,0,0,4.1-13.153A37.067,37.067,0,0,1,700.349,508.84Z" transform="translate(-186.743 -328.258)" fill="#c35c6a"/><path d="M474.49,785.2c1.618,3.58,3.258,7.24,3.638,11.149.57,5.866-1.738,11.581-2.708,17.393-1.224,7.332-.3,14.894,1.668,22.061s4.959,14.007,7.939,20.817c.778,1.775,1.785,3.758,3.661,4.247a4.235,4.235,0,0,0,4.2-1.674,9.568,9.568,0,0,0,1.675-4.422,27.259,27.259,0,0,0,.3-6.446c-.3-4.226-1.582-8.322-2.13-12.524a25.633,25.633,0,0,1-.218-4.289,6.387,6.387,0,0,1,8.748-.567c2.586,2.078,3.911,5.307,5.133,8.391l4.492,11.341c.964,2.432,1.83,5.49.067,7.422-1.064,1.166-2.74,1.476-4.254,1.924a18.3,18.3,0,0,0-4.849,2.247c-1.307.858-2.624,2.169-2.422,3.72a3.162,3.162,0,0,0,2.429,2.439,7.828,7.828,0,0,0,3.616-.142c6.018-1.31,11.534-4.287,16.776-7.522a12.464,12.464,0,0,0,4.351-3.777,12.218,12.218,0,0,0,1.34-5.835,104.655,104.655,0,0,0-2.34-27.813c-3.993-18.04-16.749-32.175-24.8-48.806-4.775-9.866-8.422-20.231-12.059-30.571L460.035,757.2S469.974,775.212,474.49,785.2Z" transform="translate(-180.719 -334.889)" fill="#f7a87e"/><circle cx="9.42" cy="9.42" r="9.42" transform="translate(531.543 153.661)" fill="#f38e77" opacity="0.64"/><circle cx="9.42" cy="9.42" r="9.42" transform="translate(468.013 172.951) rotate(-80.783)" fill="#f38e77" opacity="0.64"/><path d="M517.688,862.553c1.912-.64,2.906-2.692,3.694-4.547.1-.223.177-.514,0-.68a.588.588,0,0,0-.359-.116c-1.275-.115-2.368-.641-3.637-.477a28.781,28.781,0,0,0,5.369-7.1,10.944,10.944,0,0,0,1.353-3.739,4.932,4.932,0,0,0-.952-3.769c-3.524,1.386-6.387,2.822-8.794,5.745q2.324-3.823,4.466-7.753a22.2,22.2,0,0,0,2.886-7.4,5.456,5.456,0,0,0-.211-2.79,2.674,2.674,0,0,0-2.072-1.722,3.52,3.52,0,0,0-2.339.84,18.662,18.662,0,0,0-2.559,2.361,81.511,81.511,0,0,0-5.884,6.977,87.1,87.1,0,0,0,4.26-12.278c.5-1.9.792-4.277-.75-5.489-.775-.608-2.1-.428-3.06-.19a17.349,17.349,0,0,0-8.492,5.487,38.52,38.52,0,0,0-4.271,5.907,6.719,6.719,0,0,1,5.929,1.219c2.586,2.078,3.911,5.307,5.133,8.391q2.246,5.671,4.492,11.341c.964,2.432,1.83,5.489.067,7.422a5.322,5.322,0,0,1-2.34,1.365,11.711,11.711,0,0,0,5.492,1.189A7.128,7.128,0,0,0,517.688,862.553Z" transform="translate(-181.719 -336.989)" fill="#e98870"/><path d="M494.773,843.99a42.56,42.56,0,0,1-1.378-7.538,6.329,6.329,0,0,0-1.626,3.408,3.792,3.792,0,0,0,.434,2.472A4.843,4.843,0,0,0,494.773,843.99Z" transform="translate(-181.592 -337.436)" fill="#e98870"/><path d="M494.57,834.617a8.813,8.813,0,0,0-1.523,2.355,5.983,5.983,0,0,0-.311,2.6c.138,1.775.992,3.663,2.65,4.311,2,.783,4.187-.524,5.793-1.951,4.927-4.378,8.152-10.332,10.92-16.315a9.987,9.987,0,0,0,.848-2.348,4.049,4.049,0,0,0-.606-3.086c-1.386-1.906-2.959-1.222-4.346.074q-2.426,2.267-4.747,4.643Q498.7,829.56,494.57,834.617Z" transform="translate(-181.619 -336.956)" fill="#f7a87e"/><path d="M507.378,846.97a5.333,5.333,0,0,0,4.535.427,12.11,12.11,0,0,0,3.991-2.45c1.665-1.411,3.374-3.065,5.549-3.258a1.815,1.815,0,0,1,2.252,1.758,7.558,7.558,0,0,1-1.667,5.092,30.6,30.6,0,0,1-6.941,6.737c-2.418,1.816-5.33,3.576-8.282,2.919a9.524,9.524,0,0,1-4.228-2.552,29.508,29.508,0,0,1-4.963-6C501.224,848.725,503.777,847.89,507.378,846.97Z" transform="translate(-181.754 -337.58)" fill="#f7a87e"/><path d="M520.643,828.1a3.2,3.2,0,0,0-3.037-.289c-2.4.776-4.252,2.663-6,4.485l-4.055,4.229c-1.842,1.921-3.8,3.916-6.348,4.69-1.134.344-2.336.428-3.466.788a7.418,7.418,0,0,0-2.986,1.827c.4,2.025.872,4.592,1.071,6.326a20.227,20.227,0,0,0,5.568,1.429,10.106,10.106,0,0,0,6.911-1.315,14.165,14.165,0,0,0,2.95-2.887,96.514,96.514,0,0,0,8.092-11.361,12.462,12.462,0,0,0,2.124-5.291A3.088,3.088,0,0,0,520.643,828.1Z" transform="translate(-181.675 -337.192)" fill="#f7a87e"/><path d="M511.982,854.492c1.792.171,3.6-.265,5.392-.159s3.774,1,4.252,2.733a3.894,3.894,0,0,1-2.179,4.183,10.269,10.269,0,0,1-4.973.836,8.147,8.147,0,0,1-7.347-2.942q-1.61-1.664-3.108-3.433C506.964,855.143,509,854.208,511.982,854.492Z" transform="translate(-181.931 -337.929)" fill="#f7a87e"/><path d="M815.722,573.072l.467.2Z" transform="translate(-190.518 -330.181)" fill="#f7a87e"/><path d="M813.325,572.1l.538.212Z" transform="translate(-190.452 -330.154)" fill="#f7a87e"/><path d="M654.566,585.439l.03-.015Z" transform="translate(-186.078 -330.521)" fill="#f7a87e"/><path d="M813.954,572.35l.493.2Z" transform="translate(-190.469 -330.161)" fill="#f7a87e"/><path d="M650.635,673.889q-.022-.522-.029-1.036Q650.613,673.366,650.635,673.889Z" transform="translate(-185.969 -332.929)" fill="#f7a87e"/><path d="M816.285,573.31l.48.208Z" transform="translate(-190.533 -330.187)" fill="#f7a87e"/><path d="M814.561,572.593l.468.191Z" transform="translate(-190.486 -330.167)" fill="#f7a87e"/><path d="M650.775,668.321q.039-.436.085-.86Q650.814,667.884,650.775,668.321Z" transform="translate(-185.974 -332.781)" fill="#f7a87e"/><path d="M650.646,670.259q.022-.486.054-.957Q650.667,669.773,650.646,670.259Z" transform="translate(-185.97 -332.832)" fill="#f7a87e"/><path d="M651.256,586.977l.125-.057Z" transform="translate(-185.987 -330.562)" fill="#f7a87e"/><path d="M650.873,667.343q.045-.417.1-.821Q650.919,666.926,650.873,667.343Z" transform="translate(-185.976 -332.755)" fill="#f7a87e"/><path d="M650.974,666.5q.054-.427.116-.839Q651.028,666.07,650.974,666.5Z" transform="translate(-185.979 -332.731)" fill="#f7a87e"/><path d="M511.27,765.741l23.175,15.128,19.744-20.793-24.075-21.33C518.713,754.948,511.27,765.741,511.27,765.741Z" transform="translate(-182.13 -334.745)" fill="#f7a87e"/><path d="M815.147,572.833c.155.063.308.127.461.192C815.455,572.96,815.3,572.9,815.147,572.833Z" transform="translate(-190.502 -330.174)" fill="#f7a87e"/><path d="M822.481,576.339l.3.172Z" transform="translate(-190.704 -330.271)" fill="#f7a87e"/><path d="M822.91,576.589l.338.2Z" transform="translate(-190.716 -330.277)" fill="#f7a87e"/><path d="M821.584,575.84l.3.161Z" transform="translate(-190.679 -330.257)" fill="#f7a87e"/><path d="M822.037,576.089l.292.163Z" transform="translate(-190.692 -330.264)" fill="#f7a87e"/><path d="M823.326,576.838c.136.083.269.165.4.249C823.6,577,823.462,576.921,823.326,576.838Z" transform="translate(-190.727 -330.284)" fill="#f7a87e"/><path d="M823.74,577.095c.128.081.253.16.376.241C823.993,577.255,823.868,577.175,823.74,577.095Z" transform="translate(-190.739 -330.291)" fill="#f7a87e"/><path d="M820.138,575.087l.338.171Z" transform="translate(-190.639 -330.236)" fill="#f7a87e"/><path d="M821.116,575.59l.3.161Z" transform="translate(-190.666 -330.25)" fill="#f7a87e"/><path d="M819.618,574.831l.372.183Z" transform="translate(-190.625 -330.229)" fill="#f7a87e"/><path d="M819.046,574.555c.151.071.3.143.447.214C819.346,574.7,819.2,574.626,819.046,574.555Z" transform="translate(-190.609 -330.221)" fill="#f7a87e"/><path d="M816.843,573.551q1.085.474,2.1.957Q817.93,574.025,816.843,573.551Z" transform="translate(-190.549 -330.194)" fill="#f7a87e"/><path d="M820.634,575.34l.319.164Z" transform="translate(-190.653 -330.243)" fill="#f7a87e"/><path d="M650.692,674.972c-.023-.354-.043-.706-.056-1.054C650.65,674.266,650.669,674.618,650.692,674.972Z" transform="translate(-185.97 -332.959)" fill="#f7a87e"/><path d="M818.471,651.887c.029.074.06.152.092.234C818.531,652.039,818.5,651.961,818.471,651.887Z" transform="translate(-190.593 -332.352)" fill="#f7a87e"/><path d="M819.047,653.39q.045.12.09.245Q819.092,653.51,819.047,653.39Z" transform="translate(-190.609 -332.393)" fill="#f7a87e"/><path d="M822.187,664.705c.076.441.146.885.207,1.329C822.333,665.59,822.263,665.146,822.187,664.705Z" transform="translate(-190.696 -332.705)" fill="#f7a87e"/><path d="M651.525,680.728q-.155-.677-.279-1.348Q651.37,680.051,651.525,680.728Z" transform="translate(-185.987 -333.109)" fill="#f7a87e"/><path d="M657.794,692.5q-.525-.71-1.023-1.417Q657.268,691.788,657.794,692.5Z" transform="translate(-186.139 -333.432)" fill="#f7a87e"/><path d="M661.571,697.328q-.382-.465-.761-.935Q661.189,696.864,661.571,697.328Z" transform="translate(-186.25 -333.578)" fill="#f7a87e"/><path d="M651.078,678.4q-.1-.63-.178-1.253Q650.977,677.772,651.078,678.4Z" transform="translate(-185.977 -333.048)" fill="#f7a87e"/><path d="M650.787,676.127q-.055-.566-.093-1.125Q650.732,675.561,650.787,676.127Z" transform="translate(-185.971 -332.989)" fill="#f7a87e"/><path d="M663.033,699.077q-.4-.467-.791-.94Q662.637,698.611,663.033,699.077Z" transform="translate(-186.289 -333.626)" fill="#f7a87e"/><path d="M824.245,577.421c.086.056.17.112.253.168C824.415,577.533,824.329,577.477,824.245,577.421Z" transform="translate(-190.752 -330.3)" fill="#f7a87e"/><path d="M818.609,652.238c.081.205.169.434.264.684C818.778,652.672,818.69,652.443,818.609,652.238Z" transform="translate(-190.597 -332.361)" fill="#f7a87e"/><path d="M826.031,578.718l.166.137Z" transform="translate(-190.802 -330.336)" fill="#f7a87e"/><path d="M826.91,579.484c.054.051.105.1.157.152C827.015,579.585,826.963,579.535,826.91,579.484Z" transform="translate(-190.826 -330.357)" fill="#f7a87e"/><path d="M826.631,579.229c.053.047.1.094.156.141C826.735,579.323,826.684,579.276,826.631,579.229Z" transform="translate(-190.818 -330.35)" fill="#f7a87e"/><path d="M827.173,579.74c.067.067.132.135.2.2C827.305,579.875,827.24,579.807,827.173,579.74Z" transform="translate(-190.833 -330.364)" fill="#f7a87e"/><path d="M650.6,671.809q-.006.5,0,1.015Q650.6,672.312,650.6,671.809Z" transform="translate(-185.969 -332.901)" fill="#f7a87e"/><path d="M818.361,651.615c-.166-.412-.265-.64-.265-.64h0S818.2,651.2,818.361,651.615Z" transform="translate(-190.583 -332.327)" fill="#f7a87e"/><path d="M822.528,672.156c-.282,3.432-2.3,8.446-4.732,13.416,2.436-4.97,4.45-9.984,4.732-13.416a28.022,28.022,0,0,0-.255-6.084A28.022,28.022,0,0,1,822.528,672.156Z" transform="translate(-190.575 -332.743)" fill="#f7a87e"/><path d="M826.339,578.973l.159.138Z" transform="translate(-190.81 -330.343)" fill="#f7a87e"/><path d="M665.1,701.473c4.418,5.028,8.241,8.832,8.241,8.832h0S669.519,706.5,665.1,701.473Z" transform="translate(-186.368 -333.718)" fill="#f7a87e"/><path d="M652.942,657.96l0,0h0Z" transform="translate(-186.033 -332.519)" fill="#f7a87e"/><path d="M647.1,588.637c-3.839,1.992-10.787,9.15-19.564,19.5C636.539,597.662,643.476,590.546,647.1,588.637Z" transform="translate(-185.333 -330.609)" fill="#f7a87e"/><path d="M824.644,577.689c.074.051.148.1.221.153C824.792,577.79,824.718,577.74,824.644,577.689Z" transform="translate(-190.764 -330.308)" fill="#f7a87e"/><path d="M825.708,578.462l.176.138Z" transform="translate(-190.793 -330.329)" fill="#f7a87e"/><path d="M825.369,578.205l.189.142Z" transform="translate(-190.784 -330.322)" fill="#f7a87e"/><path d="M842.114,676.45c3.335,3.647,6.887,7.577,10.56,11.71h0C849,684.027,845.448,680.1,842.114,676.45Z" transform="translate(-191.245 -333.029)" fill="#f7a87e"/><path d="M825.016,577.948l.2.146Z" transform="translate(-190.774 -330.315)" fill="#f7a87e"/><path d="M665.045,701.408c-.654-.744-1.321-1.515-1.99-2.3C663.724,699.893,664.391,700.664,665.045,701.408Z" transform="translate(-186.312 -333.653)" fill="#d75555"/><path d="M651.157,586.979q-1.561.719-3.117,1.423c-.123.055-.252.121-.383.19.13-.067.26-.133.383-.19Q649.594,587.7,651.157,586.979Z" transform="translate(-185.888 -330.564)" fill="#d75555"/><path d="M818.369,651.633c.031.076.064.159.1.247C818.433,651.791,818.4,651.709,818.369,651.633Z" transform="translate(-190.591 -332.345)" fill="#d75555"/><path d="M818.1,650.975s9.909,10.072,23.356,24.773c-13.447-14.7-23.356-24.773-23.356-24.773Z" transform="translate(-190.583 -332.327)" fill="#d75555"/><path d="M651.241,679.354c-.057-.306-.111-.612-.158-.915C651.131,678.742,651.184,679.048,651.241,679.354Z" transform="translate(-185.982 -333.083)" fill="#d75555"/><path d="M660.728,696.288c-1-1.238-1.98-2.5-2.9-3.749C658.748,693.792,659.727,695.05,660.728,696.288Z" transform="translate(-186.168 -333.472)" fill="#d75555"/><path d="M662.224,698.115q-.316-.378-.631-.76Q661.908,697.737,662.224,698.115Z" transform="translate(-186.272 -333.604)" fill="#d75555"/><path d="M852.268,609.5h0C844,598.8,835.652,588.775,827.419,579.994c-.015-.016-.03-.03-.044-.046l.044.046C835.652,588.775,844,598.8,852.268,609.5Z" transform="translate(-190.839 -330.37)" fill="#d75555"/><path d="M819.14,653.642A64.4,64.4,0,0,1,822.1,664.4,64.4,64.4,0,0,0,819.14,653.642Z" transform="translate(-190.612 -332.4)" fill="#d75555"/><path d="M833.018,783.872h0l-25.133-80.587s3.192-4.943,6.57-11.1c-3.378,6.159-6.57,11.1-6.57,11.1Z" transform="translate(-190.302 -333.462)" fill="#d75555"/><path d="M673.56,710.555l-.552,4.562.552-4.562Z" transform="translate(-186.586 -333.968)" fill="#d75555"/><path d="M817.783,686.124q-.231.473-.467.944Q817.552,686.6,817.783,686.124Z" transform="translate(-190.562 -333.295)" fill="#d75555"/><path d="M815.633,690.312q-.328.616-.655,1.219Q815.3,690.927,815.633,690.312Z" transform="translate(-190.497 -333.41)" fill="#d75555"/><path d="M817.27,687.095c-.528,1.054-1.072,2.1-1.618,3.128C816.2,689.2,816.742,688.149,817.27,687.095Z" transform="translate(-190.516 -333.322)" fill="#d75555"/><path d="M818.88,652.941c.052.139.106.285.162.437Q818.959,653.15,818.88,652.941Z" transform="translate(-190.605 -332.381)" fill="#d75555"/><path d="M818.566,652.128l.042.107Z" transform="translate(-190.596 -332.358)" fill="#d75555"/><path d="M652.93,657.959s-.2.534-.49,1.494c.286-.96.49-1.494.49-1.494Z" transform="translate(-186.02 -332.519)" fill="#d75555"/><path d="M824.5,577.594c.046.03.09.061.135.092C824.6,577.655,824.551,577.624,824.5,577.594Z" transform="translate(-190.76 -330.305)" fill="#d75555"/><path d="M651.533,680.766q.112.5.241.993c.654,2.513,2.5,5.71,4.853,9.039-2.349-3.329-4.2-6.526-4.853-9.039Q651.646,681.261,651.533,680.766Z" transform="translate(-185.995 -333.147)" fill="#d75555"/><path d="M820,575.019l.133.066Z" transform="translate(-190.636 -330.234)" fill="#d75555"/><path d="M826.2,578.859l.133.111Z" transform="translate(-190.806 -330.34)" fill="#d75555"/><path d="M825.889,578.6l.138.111Z" transform="translate(-190.798 -330.333)" fill="#d75555"/><path d="M815.621,573.03l.1.041Z" transform="translate(-190.515 -330.179)" fill="#d75555"/><path d="M819.506,574.775l.109.054Z" transform="translate(-190.622 -330.227)" fill="#d75555"/><path d="M826.5,579.115l.125.111Z" transform="translate(-190.815 -330.347)" fill="#d75555"/><path d="M816.2,573.275l.081.034Z" transform="translate(-190.531 -330.186)" fill="#d75555"/><path d="M650.9,677.124q-.06-.486-.107-.965Q650.837,676.639,650.9,677.124Z" transform="translate(-185.974 -333.02)" fill="#d75555"/><path d="M826.791,579.374l.116.107Z" transform="translate(-190.823 -330.354)" fill="#d75555"/><path d="M820.962,575.509l.15.079Z" transform="translate(-190.662 -330.248)" fill="#d75555"/><path d="M816.779,573.524l.062.026Z" transform="translate(-190.547 -330.193)" fill="#d75555"/><path d="M820.486,575.263l.144.075Z" transform="translate(-190.649 -330.241)" fill="#d75555"/><path d="M824.871,577.846l.141.1Z" transform="translate(-190.77 -330.312)" fill="#d75555"/><path d="M823.258,576.8l.066.04Z" transform="translate(-190.725 -330.283)" fill="#d75555"/><path d="M824.127,577.343l.115.076Z" transform="translate(-190.749 -330.298)" fill="#d75555"/><path d="M823.739,577.094h0Z" transform="translate(-190.739 -330.291)" fill="#d75555"/><path d="M821.428,575.756l.152.082Z" transform="translate(-190.675 -330.254)" fill="#d75555"/><path d="M822.785,576.516l.122.071Z" transform="translate(-190.712 -330.275)" fill="#d75555"/><path d="M821.888,576.006l.145.081Z" transform="translate(-190.688 -330.261)" fill="#d75555"/><path d="M825.224,578.1l.141.1Z" transform="translate(-190.78 -330.319)" fill="#d75555"/><path d="M825.563,578.351l.141.108Z" transform="translate(-190.789 -330.326)" fill="#d75555"/><path d="M822.337,576.257l.14.08Z" transform="translate(-190.7 -330.268)" fill="#d75555"/><path d="M819,574.535l.04.019Z" transform="translate(-190.608 -330.221)" fill="#d75555"/><path d="M651.361,664.011q.1-.563.212-1.081Q651.464,663.448,651.361,664.011Z" transform="translate(-185.99 -332.656)" fill="#d75555"/><path d="M651.093,665.636c.04-.273.083-.542.127-.8C651.176,665.094,651.133,665.363,651.093,665.636Z" transform="translate(-185.982 -332.708)" fill="#d75555"/><path d="M651.8,661.846c.219-.94.437-1.734.619-2.351C652.24,660.112,652.022,660.906,651.8,661.846Z" transform="translate(-186.002 -332.561)" fill="#d75555"/><path d="M651.579,662.9q.108-.518.218-.989Q651.687,662.384,651.579,662.9Z" transform="translate(-185.996 -332.628)" fill="#d75555"/><path d="M815.042,572.79l.1.042Z" transform="translate(-190.499 -330.173)" fill="#d75555"/><path d="M650.612,671.267c.007-.331.018-.658.033-.981C650.63,670.609,650.619,670.937,650.612,671.267Z" transform="translate(-185.969 -332.859)" fill="#d75555"/><path d="M650.7,669.276c.021-.315.045-.625.072-.931C650.746,668.65,650.722,668.961,650.7,669.276Z" transform="translate(-185.972 -332.805)" fill="#d75555"/><path d="M650.862,667.458l.011-.092Z" transform="translate(-185.976 -332.778)" fill="#d75555"/><path d="M813.878,572.32l.074.029Z" transform="translate(-190.467 -330.16)" fill="#d75555"/><path d="M660.871,582.346c-2.062,1-4.162,2-6.274,2.993,2.112-.992,4.213-1.995,6.274-2.993Z" transform="translate(-186.079 -330.436)" fill="#d75555"/><path d="M827.071,579.64l.1.1Z" transform="translate(-190.831 -330.362)" fill="#d75555"/><path d="M814.461,572.553l.1.039Z" transform="translate(-190.483 -330.166)" fill="#d75555"/><path d="M813.288,572.088l.036.014Z" transform="translate(-190.451 -330.153)" fill="#d75555"/><path d="M651.385,586.879q1.546-.715,3.093-1.44Q652.934,586.164,651.385,586.879Z" transform="translate(-185.99 -330.521)" fill="#d75555"/><path d="M172.934,685.9a1.811,1.811,0,0,0-.128.677v103.2A10.054,10.054,0,0,0,182.86,799.83H186.4a1.841,1.841,0,0,0,1.827-1.593c5.518-40.321,17.193-84.653,26.044-105.825a1.837,1.837,0,0,0-.652-2.21,263.46,263.46,0,0,1-29.789-24.279,1.844,1.844,0,0,0-2.964.6C178.5,671.967,174.528,681.89,172.934,685.9Z" transform="translate(-172.806 -332.724)" fill="#f7a87e"/><path d="M410.525,674.018l-5.773-65.328S418.638,646.46,410.525,674.018Z" transform="translate(-179.196 -331.162)" fill="#1d5690"/><path d="M818.1,650.975s.062.142.169.4l.139-.089-.308-.313Z" transform="translate(-190.583 -332.327)" fill="none"/><path d="M762.14,666.27c-16.394,1.276-32.847,1.571-49.291,1.608-20.517.047-41.592-.423-60.63-8.013-.142.507-.295,1.095-.449,1.757q-.11.471-.218.989t-.212,1.081c-.046.25-.091.506-.134.768s-.087.531-.126.8-.08.554-.116.839q-.053.4-.1.821l-.011.092q-.045.423-.085.86c-.027.305-.051.616-.072.931s-.039.633-.054.957-.026.651-.033.981c0,.166-.007.333-.008.5q-.006.5,0,1.015t.029,1.036c.014.348.033.7.056,1.054q.038.559.093,1.125c.031.32.067.641.107.965q.077.622.178,1.253c.048.3.1.609.158.915q.124.671.279,1.348.113.5.241.993c.654,2.513,2.5,5.71,4.853,9.039q.5.706,1.023,1.417c.925,1.253,1.9,2.511,2.9,3.749q.379.47.761.935.315.382.631.76.4.474.791.94c.669.789,1.336,1.56,1.99,2.3,4.418,5.028,8.241,8.832,8.241,8.832l-.551,4.562-.514,4.255c14.307-4.137,28.689-8.008,43.314-10.79a298.284,298.284,0,0,1,69.533-4.928,162.328,162.328,0,0,1,19.384,1.918l-.555-1.781s3.192-4.943,6.57-11.1l.328-.6q.327-.6.655-1.219c.546-1.026,1.09-2.074,1.618-3.128q.236-.471.467-.944c2.436-4.97,4.45-9.984,4.732-13.416a28.019,28.019,0,0,0-.255-6.084c-.061-.444-.131-.888-.207-1.329A64.388,64.388,0,0,0,814.5,653.58q-.045-.125-.09-.245c-.056-.152-.11-.3-.162-.437-.094-.25-.183-.478-.264-.684l-.042-.107c-.032-.083-.063-.16-.092-.234s-.068-.171-.1-.247l-.1-.237a85.4,85.4,0,0,1-21.727,10.038C782.272,664.326,772.188,665.489,762.14,666.27Z" transform="translate(-185.969 -332.338)" fill="#dd7270"/><path d="M835.154,798.759,804.41,705.366a162.332,162.332,0,0,0-19.384-1.918,298.282,298.282,0,0,0-69.533,4.928c-14.625,2.782-29.007,6.654-43.314,10.79l-10.586,82.152,170.116-.474C834.149,800.846,834.332,799.973,835.154,798.759Z" transform="translate(-186.272 -333.763)" fill="#ee7b78"/><path d="M244.138,657.135l1.756-50.9A79.6,79.6,0,0,0,244.138,657.135Z" transform="translate(-174.679 -331.094)" fill="#1d5690"/><path d="M319.135,747.4c-15.62.158-31.385-.92-46.412-5.185a91.564,91.564,0,0,1-31.157-15.329L239.8,772.956c9.024,5.336,22.75,10.372,39.162,13.9h92.382a153.384,153.384,0,0,0,39.6-14.88l-2.48-47.386a134.646,134.646,0,0,1-21.821,11.133C365.311,744.238,342.1,747.165,319.135,747.4Z" transform="translate(-174.652 -334.355)" fill="#1d5690"/><rect width="63.553" height="276.327" rx="13.758" transform="translate(385.486 467.556) rotate(-90)" opacity="0.4"/><g transform="translate(439.084 416.321)"><circle cx="19.458" cy="19.458" r="19.458" fill="#fff" opacity="0.8"/><circle cx="19.458" cy="19.458" r="19.458" transform="translate(65.867)" fill="#f43853"/><circle cx="19.458" cy="19.458" r="19.458" transform="translate(130.217)" fill="#fff" opacity="0.8"/><g transform="translate(8.904 12.099)"><path d="M642.311,763.857a2.169,2.169,0,1,1-2.169,2.169A2.168,2.168,0,0,1,642.311,763.857Z" transform="translate(-633.668 -763.857)" fill="#454545"/><path d="M654.593,775.544H633.485l4.9-5.377,3.357,3.39,6.244-5.8Z" transform="translate(-633.485 -763.964)" fill="#454545"/></g><path d="M711.764,770.516s-3.464-.193-3.9.673c-.645,1.289.081,4.138-4.048,3.9s-2.762-3.717-2.291-4.72,1.289-2.833,10.236-2.833,9.766,1.828,10.236,2.833,1.839,4.48-2.29,4.72-3.4-2.607-4.049-3.9C715.228,770.324,711.764,770.516,711.764,770.516Z" transform="translate(-626.439 -751.859)" fill="#fff"/><rect width="19.083" height="12.828" transform="translate(140.133 12.385)" fill="#454545"/><path d="M783.547,781.771v-5.717l-5.065.857Z" transform="translate(-628.575 -752.094)" fill="#454545"/><rect width="14.31" height="2.173" transform="translate(142.52 15.595)" fill="#fff"/><rect width="7.593" height="2.173" transform="translate(142.52 20.09)" fill="#fff"/></g><rect width="64.703" height="275.871" rx="12.059" transform="translate(0 467.636) rotate(-90)" opacity="0.4"/><g transform="translate(52.612 417.579)"><circle cx="19.81" cy="19.81" r="19.81" fill="#fff" opacity="0.8"/><circle cx="19.81" cy="19.81" r="19.81" transform="translate(67.059)" fill="#f43853"/><circle cx="19.81" cy="19.81" r="19.81" transform="translate(132.573)" fill="#fff" opacity="0.8"/><g transform="translate(9.065 12.318)"><path d="M245.216,765.375a2.208,2.208,0,1,1-2.208,2.208A2.209,2.209,0,0,1,245.216,765.375Z" transform="translate(-236.417 -765.375)" fill="#454545"/><path d="M257.721,777.273H236.23l4.984-5.474,3.417,3.451,6.357-5.908Z" transform="translate(-236.23 -765.484)" fill="#454545"/></g><path d="M315.927,772.155s-3.526-.2-3.968.686c-.656,1.313.083,4.213-4.121,3.968s-2.812-3.784-2.333-4.806,1.312-2.884,10.422-2.884,9.942,1.861,10.422,2.884,1.872,4.561-2.333,4.806-3.465-2.655-4.121-3.968C319.453,771.959,315.927,772.155,315.927,772.155Z" transform="translate(-229.057 -753.16)" fill="#fff"/><rect width="19.428" height="13.06" transform="translate(142.669 12.609)" fill="#454545"/><path d="M389.008,783.614v-5.82l-5.156.872Z" transform="translate(-231.232 -753.399)" fill="#454545"/><rect width="14.568" height="2.212" transform="translate(145.099 15.877)" fill="#fff"/><rect width="7.73" height="2.212" transform="translate(145.099 20.453)" fill="#fff"/></g><g transform="translate(346.398 241.707)"><path d="M555.4,757.851l1.1.974,93.75-100.866Z" transform="translate(-529.744 -574.226)" fill="#ee7b78"/><path d="M819.2,579.771c-.014-.015-.029-.03-.043-.046l-.2-.2-.1-.1c-.051-.051-.1-.1-.157-.152l-.116-.107c-.052-.047-.1-.094-.155-.141l-.126-.111-.159-.138-.133-.111-.166-.137-.138-.111-.176-.138-.141-.108-.189-.142-.141-.1c-.066-.049-.134-.1-.2-.146l-.141-.1c-.073-.051-.147-.1-.221-.153l-.135-.092c-.083-.056-.167-.112-.253-.168l-.115-.076c-.123-.081-.248-.161-.376-.241h0q-.2-.125-.4-.249l-.066-.04-.338-.2-.122-.071-.3-.172-.141-.08-.291-.163-.145-.081-.3-.161-.153-.082-.3-.161-.15-.079-.318-.164-.146-.075-.337-.171-.133-.066-.372-.183-.109-.054-.447-.215-.04-.019q-1.015-.483-2.1-.957l-.062-.027-.48-.207-.081-.034-.467-.2-.1-.041q-.229-.1-.461-.192l-.1-.042-.468-.192-.1-.039-.492-.2-.075-.029-.538-.212-.036-.014-.586-.228c-37.759,19.554-82.208,26.324-123.948,17.942-8.1-1.626-16.269-3.889-23.511-7.739-2.062,1-4.162,2-6.274,2.993l-.03.015q-1.545.725-3.093,1.44l-.125.057q-1.562.719-3.118,1.423c-.124.055-.253.123-.383.19-3.626,1.909-10.564,9.025-19.564,19.5-24.96,29.047-65.778,83.906-95.808,125.069l1.585,1.406,24.075,21.329,94.851-99.891h0s-.2.534-.49,1.494c-.053.183-.111.382-.17.594,19.039,7.59,40.114,8.06,60.63,8.013,16.443-.037,32.9-.333,49.291-1.608,10.047-.782,20.132-1.945,29.784-4.844A85.4,85.4,0,0,0,810.3,649.2c-.107-.261-.169-.4-.169-.4l.308.313c1.754,1.793,10.971,11.256,23.048,24.46,3.335,3.647,6.887,7.577,10.56,11.71v-76C835.785,598.572,827.432,588.552,819.2,579.771Z" transform="translate(-529.017 -571.854)" fill="#ee7b78"/></g><path d="M498.161,770.53l-46.7-125.98s-37.48,19.905-37.275,21.4,49.642,98.424,49.642,98.424Z" transform="translate(-179.456 -332.15)" fill="#f7a87e"/></g></g></svg>