<svg id="Capa_1" data-name="Capa 1" xmlns="http://www.w3.org/2000/svg" viewBox="0 0 259.06 104.66"><g id="logo"><g id="Online" style="isolation:isolate"><g style="isolation:isolate"><path d="M124.06,79.77a14,14,0,0,1,14-13.84c8.22,0,13.92,5.62,13.92,13.84A14,14,0,0,1,138,93.61C129.83,93.61,124.06,88,124.06,79.77Zm23.46,0c0-5.48-4-9.92-9.48-9.92a9.92,9.92,0,0,0,0,19.83C143.52,89.68,147.52,85.24,147.52,79.77Z" transform="translate(0 -0.42)" fill="#f2f4ff"/><path d="M155.51,85.54a8.24,8.24,0,0,1,8.36-8.07c4.81,0,8.21,3.26,8.21,8.07v7.7h-4.14v-7.7a4,4,0,0,0-4.14-4.22,4.07,4.07,0,0,0-4.15,4.22v7.7h-4.14Z" transform="translate(0 -0.42)" fill="#f2f4ff"/><path d="M177,66.3h4.14V93.24H177Z" transform="translate(0 -0.42)" fill="#f2f4ff"/><path d="M185.85,68.44a2.56,2.56,0,0,1,2.59-2.51A2.49,2.49,0,0,1,191,68.44a2.56,2.56,0,0,1-2.51,2.6A2.63,2.63,0,0,1,185.85,68.44Zm.44,9.4h4.15v15.4h-4.15Z" transform="translate(0 -0.42)" fill="#f2f4ff"/><path d="M195.47,85.54a8.24,8.24,0,0,1,8.36-8.07c4.81,0,8.21,3.26,8.21,8.07v7.7H207.9v-7.7a4,4,0,0,0-4.14-4.22,4.07,4.07,0,0,0-4.15,4.22v7.7h-4.14Z" transform="translate(0 -0.42)" fill="#f2f4ff"/><path d="M215.3,85.54a8.28,8.28,0,0,1,8.29-8.07c4.81,0,8,3,8.29,8.07V87H219.37a4.24,4.24,0,0,0,4.22,3.1,4.09,4.09,0,0,0,3.18-1.4l2.52,2.59a8,8,0,0,1-5.7,2.37C218.78,93.61,215.3,90.35,215.3,85.54Zm12.51-1.78a4.23,4.23,0,0,0-4.22-3,4.29,4.29,0,0,0-4.15,3Z" transform="translate(0 -0.42)" fill="#f2f4ff"/></g></g><g id="Llámame" style="isolation:isolate"><g style="isolation:isolate"><path d="M97,36.42a3.71,3.71,0,0,1,2-3.24,11.57,11.57,0,0,0,4.51,2.11c2-5.59,4.23-11,5.5-13.11a6.92,6.92,0,0,1,6.15-3.62c5.5,0,9.17,3.76,9.17,7.8,0,4.7-4.8,10.34-15.28,13.63a32.62,32.62,0,0,1-3.57,6.44c12.6,2.12,15.28,5.92,15.28,9.21a4.75,4.75,0,0,1-3.11,4.7c-3.43-3-7.89-5.4-17.2-7.52-1.69,1.6-3.1,2.59-4.56,2.59-2.35,0-4.51-3.71-4.51-6.3,0-2.21,1.27-3.24,4.8-3.24.8,0,1.69.05,2.72.14,1.08-2.07,2-3.9,2.78-5.83C99,39.81,97,38.3,97,36.42Zm13.4-1.22c4.93-2,8-5,8-7.71,0-1.45-1.64-2.63-3.52-2.63-.61,0-1.27.42-1.88,2.49Z" transform="translate(0 -0.42)" fill="#f2f4ff"/><path d="M125.44,29.89c.84-6.34,4.18-10.15,7.89-10.15,2,0,3.29.94,3.29,3.33,0,2.07-.94,4.38-4.46,11-1.27,4.56-3.48,12.74-3.48,13.91,0,.52.24.71.66.71,1.46,0,4.23-2.68,6.67-6.49a1.73,1.73,0,0,1,1.79,1.6c0,3.57-7.62,11-12.36,11-2.73,0-3.72-1.17-3.72-3.62,0-3.15,1.51-8.6,1.88-10.57C124.17,37.5,125,33.09,125.44,29.89Z" transform="translate(0 -0.42)" fill="#f2f4ff"/><path d="M138.79,54.14c-2.68,0-4.66-2.21-4.66-6.49,0-7,5.83-14.42,10.53-14.42.66,0,1,.09,1.22.33l.14-2.73a2.19,2.19,0,0,1,1.65-.61c3.19,0,4.93,2.16,4.93,3.8a12.42,12.42,0,0,1-.52,3.11c-1.64,5.92-2.25,8.88-2.25,10.1,0,.94.19,1.08.56,1.08.94,0,3.39-1.78,6.4-6a1.57,1.57,0,0,1,1.73,1.45c0,3.06-7.8,10.63-11.18,10.63-2.07,0-3.39-.85-3.39-3.86a13.17,13.17,0,0,1,.15-1.83C142.59,53,140.43,54.14,138.79,54.14Zm6.86-17.53c-2.35,1.5-4.61,5.41-4.61,9,0,1.74.56,1.93,1.22,1.93a2.63,2.63,0,0,0,1.88-1.17Zm8-17.53c0,1.36-1.22,3.34-3.62,5.83-1.92,2-4.32,3.43-5.78,3.43-.65,0-1.08-.38-1.08-1.22,3.25-4.7,4.94-7.43,4.94-9.73a2.67,2.67,0,0,1,2.35-1.27C152.6,16.12,153.68,17.34,153.68,19.08Z" transform="translate(0 -0.42)" fill="#f2f4ff"/><path d="M181.22,33c2.17,0,3.2,1.65,3.2,3.48a13.07,13.07,0,0,1-1.27,4.84c-.84,2.07-2.72,6.16-2.72,7.33,0,.52.23.71.65.71.85,0,3.86-2.45,7.1-7.05A1.73,1.73,0,0,1,190,43.85c0,3-8.22,11.46-12.55,11.46-2.77,0-3.71-1.22-3.71-3.8,0-3.1,2.77-8.7,2.77-9.73a.49.49,0,0,0-.56-.56c-.42,0-2.07,1-3.9,3.52a66,66,0,0,0-1.27,9.45,2.25,2.25,0,0,1-1.88.7c-2.63,0-4.42-1.08-4.46-3.9A23,23,0,0,1,166,44.18a12.19,12.19,0,0,0,.8-2.59c0-.42-.18-.56-.56-.56s-1.55.7-3.38,3.24a65.59,65.59,0,0,0-1.23,9.45c-.47.47-.79.61-1.88.61-2.63,0-4.55-2.49-4.6-5.31a20.33,20.33,0,0,1,1.31-6.39,7.91,7.91,0,0,1-.47-2.92c0-2.77,3.76-6.25,6.68-6.25,1.36,0,2,.56,2,2a13.19,13.19,0,0,1-1.46,5.31c3.43-5.93,5.78-7.29,7.85-7.29a2.61,2.61,0,0,1,2.77,2.77,8.6,8.6,0,0,1-1.17,4.56C176.57,35,179.16,33,181.22,33Z" transform="translate(0 -0.42)" fill="#f2f4ff"/><path d="M190.91,54.14c-2.68,0-4.66-2.21-4.66-6.49,0-7,5.83-14.42,10.53-14.42.66,0,1,.09,1.22.33l.15-2.73a2.15,2.15,0,0,1,1.64-.61c3.2,0,4.93,2.16,4.93,3.8a12.78,12.78,0,0,1-.51,3.11C202.56,43.05,202,46,202,47.23c0,.94.19,1.08.57,1.08.94,0,3.38-1.78,6.39-6a1.58,1.58,0,0,1,1.74,1.45c0,3.06-7.81,10.63-11.19,10.63-2.07,0-3.38-.85-3.38-3.86a13,13,0,0,1,.14-1.83C194.71,53,192.55,54.14,190.91,54.14Zm6.86-17.53c-2.35,1.5-4.61,5.41-4.61,9,0,1.74.57,1.93,1.23,1.93a2.66,2.66,0,0,0,1.88-1.17Z" transform="translate(0 -0.42)" fill="#f2f4ff"/><path d="M233.35,33c2.16,0,3.19,1.65,3.19,3.48a13.07,13.07,0,0,1-1.27,4.84c-.84,2.07-2.72,6.16-2.72,7.33,0,.52.23.71.66.71.84,0,3.85-2.45,7.09-7.05a1.73,1.73,0,0,1,1.84,1.55c0,3-8.23,11.46-12.55,11.46-2.78,0-3.71-1.22-3.71-3.8,0-3.1,2.77-8.7,2.77-9.73a.5.5,0,0,0-.57-.56c-.42,0-2.06,1-3.9,3.52a67.4,67.4,0,0,0-1.27,9.45,2.25,2.25,0,0,1-1.88.7c-2.63,0-4.41-1.08-4.46-3.9a22.68,22.68,0,0,1,1.6-6.81,12.82,12.82,0,0,0,.8-2.59c0-.42-.19-.56-.57-.56s-1.55.7-3.38,3.24a65.51,65.51,0,0,0-1.22,9.45c-.47.47-.8.61-1.88.61-2.63,0-4.56-2.49-4.61-5.31a20.09,20.09,0,0,1,1.32-6.39,7.71,7.71,0,0,1-.47-2.92c0-2.77,3.76-6.25,6.67-6.25,1.36,0,2,.56,2,2a13.19,13.19,0,0,1-1.46,5.31c3.44-5.93,5.78-7.29,7.85-7.29A2.62,2.62,0,0,1,226,36.23a8.63,8.63,0,0,1-1.18,4.56C228.69,35,231.28,33,233.35,33Z" transform="translate(0 -0.42)" fill="#f2f4ff"/><path d="M238.38,46.62c0-7.1,5.78-14.33,10.34-14.33,3.24,0,5,1.55,5,4.84,0,3.94-2.31,7-8.75,8.46,0,2.11.43,3.29,2.26,3.29,3.2,0,7.33-2.73,10-6.82a1.69,1.69,0,0,1,1.79,1.55c0,3.48-7.85,11-14,11C240.49,54.56,238.38,51.7,238.38,46.62Zm9.16-9.4c-.66,0-1.92,1.6-2.25,4.89,2.63-.47,3.19-1.93,3.19-3.34C248.48,37.78,248.11,37.22,247.54,37.22Z" transform="translate(0 -0.42)" fill="#f2f4ff"/></g></g><g id="Outline"><circle cx="30.26" cy="37.5" r="2.62" fill="#f2f4ff"/><circle cx="45.95" cy="37.5" r="2.62" fill="#f2f4ff"/><path d="M38.11,47.52a1.74,1.74,0,0,1-1.51-.87,1.71,1.71,0,0,0-1.46-.88H35a1.69,1.69,0,0,0-1.5,2.46,5.24,5.24,0,0,0,9.25,0,1.69,1.69,0,0,0-1.5-2.46h-.16a1.71,1.71,0,0,0-1.46.88A1.73,1.73,0,0,1,38.11,47.52Z" transform="translate(0 -0.42)" fill="#f2f4ff"/><rect x="72.99" y="20.93" width="3.49" height="15.7" fill="#f2f4ff"/><path d="M.64,42l3.43.65c.22-1.11.49-2.22.82-3.31l-3.34-1A35.75,35.75,0,0,0,.64,42Z" transform="translate(0 -0.42)" fill="#f2f4ff"/><path d="M3.61,45.92l-3.47-.3A35.48,35.48,0,0,0,1.27,58.14l3.36-.92A32.13,32.13,0,0,1,3.61,45.92Z" transform="translate(0 -0.42)" fill="#f2f4ff"/><path d="M85,65.12l-.3-.3-2.47,2.46.3.3A15,15,0,0,1,87,78.26h3.48A18.42,18.42,0,0,0,85,65.12Z" transform="translate(0 -0.42)" fill="#f2f4ff"/><path d="M78.27,70.51,67.76,57.38h0V9.14A8.74,8.74,0,0,0,59,.42H17.17A8.74,8.74,0,0,0,8.45,9.14v3.48s0,0,0,0h3.46a0,0,0,0,0,0,0V9.14a5.23,5.23,0,0,1,5.23-5.23h5.91l1.26,2.51a1.72,1.72,0,0,0,1.56,1H50.32a1.74,1.74,0,0,0,1.56-1l1.25-2.51H59a5.23,5.23,0,0,1,5.23,5.23V23.25s0,0,0,0a12.18,12.18,0,0,0-8.31-3.64,0,0,0,0,1,0,0,19.24,19.24,0,0,0-16.08-8.72H36.36A19.21,19.21,0,0,0,17.17,30.07v4.44a7,7,0,0,0-2.32,9.89,7.12,7.12,0,0,0,6,3.12H21a17.49,17.49,0,0,0,2.47,6v0a4.81,4.81,0,0,0-.81.75l0,0a4.35,4.35,0,0,0-3.31-1.53H14.58l0,0-.23,0H12.78a4.47,4.47,0,0,0-.82.08h0V16.13H8.45V96.36a8.74,8.74,0,0,0,8.72,8.72h41a1.75,1.75,0,0,0,1.75-1.74,1.81,1.81,0,0,0-.14-.69c0-.09-3.74-8.94.73-15.82a1.75,1.75,0,0,0-.15-2.08l-9-10.47a3.24,3.24,0,0,1-.79-2.1v-.09a3.27,3.27,0,0,1,2.31-3.17,3.2,3.2,0,0,1,3.14.82L67.91,81.8a2.57,2.57,0,0,0,3.6.07,1,1,0,0,0,0-1.37l-2.83-3a3.53,3.53,0,0,1-1-2.43V63s0,0,0,0l7.77,9.7a12.24,12.24,0,0,1,2.67,7.63v24.75H81.7a0,0,0,0,0,0,0V80.32A15.71,15.71,0,0,0,78.27,70.51ZM59,40.54A3.5,3.5,0,0,1,55.56,44s0,0,0,0V37.07s0,0,0,0A3.5,3.5,0,0,1,59,40.54ZM20.66,44s0,0,0,0a3.49,3.49,0,0,1,0-7s0,0,0,0ZM22,33.18c-.46.1-.91.19-1.34.25a0,0,0,0,1,0,0V30.07a15.71,15.71,0,0,1,15.7-15.69h3.49a15.69,15.69,0,0,1,15.7,15.69h0v3.48s0,0,0,0h-.65l-6.49-13a1.75,1.75,0,0,0-2.34-.78,1.65,1.65,0,0,0-.31.2C45.6,20.1,32,31,22,33.18Zm5.33,19.74h0A13.92,13.92,0,0,1,24.15,44V36.24a0,0,0,0,1,0,0C32.52,33.87,42.3,27,46.2,24h0l5.84,11.68h0V44a13.87,13.87,0,0,1-7.75,12.5h0a13.89,13.89,0,0,1-14.1-1h0A4.33,4.33,0,0,0,27.35,52.92Zm2,9.74v2.83a0,0,0,0,1,0,0,5.25,5.25,0,0,0-.67.22l0,0,.68-3S29.38,62.64,29.38,62.66ZM16.1,54.19a0,0,0,0,1,0,0l0,0ZM30.34,71.81l-4.06,5.08a1.78,1.78,0,0,0-.3.54,14.36,14.36,0,0,1-5.64,7.39l-.21.14a2.7,2.7,0,0,0-1.21,2.27V100.6a1,1,0,0,1-1,1h-.76a5.23,5.23,0,0,1-5.23-5.23V57.08c0-1.93,2.48-1.13,2.48,0v7.88c0,1,.05,1.77,1,1.77s1-.8,1.12-1.64L18,56.68c.17-1,2.86-.54,2.69.46L19.4,64.6c-.16,1,0,1.92,1,2.08s1.1-.54,1.37-1.35l2.9-8.7c.51-1.39,3-.41,2.8.65L25.15,69.41c-.37,1.15.87,2.49,1.76,1.63l1.77-1.76C29.56,68.42,32.3,69.41,30.34,71.81ZM44,80.87a6.88,6.88,0,0,1-1,1.23,7,7,0,0,1-10.32-.5A7.1,7.1,0,0,1,31.13,77V75.61h0L36,69.54a1.74,1.74,0,0,0-.13-2.32h0a6.51,6.51,0,0,0-3-1.72s0,0,0,0V60.69h0a17.5,17.5,0,0,0,10.43,0h0V67a3.45,3.45,0,0,0,1.74,3h0v7.17A6.92,6.92,0,0,1,44,80.87Zm20.25-9.38s0,0,0,0a10.49,10.49,0,0,0-3.54-2.06h0l-2.18-2.17a6.68,6.68,0,0,0-9.44,0l-.07.08L47.11,67h0l-.28,0V59.14h0a17.29,17.29,0,0,0,7-7.45s0,0,0,0a12.23,12.23,0,0,0,10.44,11.4h0Zm0-11.95h0a8.74,8.74,0,0,1-7-8.54v-3.7s0,0,0,0A7,7,0,0,0,59,34.51V30.07a19.33,19.33,0,0,0-1.19-6.64,0,0,0,0,1,0,0,8.75,8.75,0,0,1,6.4,8.41Z" transform="translate(0 -0.42)" fill="#f2f4ff"/></g></g></svg>