<svg id="b24d9893-50a3-4c37-95e0-c7704fd0ab28" data-name="Hero" xmlns="http://www.w3.org/2000/svg" xmlns:xlink="http://www.w3.org/1999/xlink" viewBox="0 0 881.09 630.3"><defs><clipPath id="f98d685a-f072-477b-8c00-f3a657eff192"><circle cx="176" cy="241.9" r="30.17" fill="none"/></clipPath></defs><path id="a43803fb-c65d-4d7f-a7da-8f4925589549" data-name="nube-bg" d="M788.59,279.84c4.69-26.34,2-52.1-7.31-77.57A161.12,161.12,0,0,0,645.74,98.65c-43-4.1-85.18,8.49-117.67,34.25C496.75,54.16,417.72,0,328.73,0H327C217.2.88,122.07,88.11,115.62,194.66a200.72,200.72,0,0,0,9.08,73.47C52.11,285.4,0,348.05,0,422.69c0,86.06,55.62,178,211.34,178H715.7c98.94,0,165.39-91.91,165.39-177.68C881.09,361.81,844.5,306.19,788.59,279.84Z" fill="#6699d8"/><g id="e9f94897-9558-4f66-9ab9-259a2bae874a" data-name="mesa"><path id="a53d3464-ad34-4ef8-b110-aa129a31dafd" data-name="Rectángulo 2" d="M74.71,602.48H776.84a6.51,6.51,0,0,1,6.5,6.5h0V623.8a6.5,6.5,0,0,1-6.5,6.5H74.71a6.5,6.5,0,0,1-6.5-6.5h0V609a6.5,6.5,0,0,1,6.5-6.5h0Z" fill="#3700b1"/><path id="b8d1caac-c012-48bf-bca5-d8afe620dfca" data-name="Trazado 41" d="M783.34,615.76v.63H68.2v-.63a13.28,13.28,0,0,1,13.27-13.28H770.06a13.28,13.28,0,0,1,13.28,13.28Z" fill="#542bd8"/></g><g id="b4511cbe-3afa-496a-9357-bfa1a598fc85" data-name="recuadro-bg"><rect id="aef7a8c9-4acb-4bd4-98ba-35b479b87605" data-name="Rectángulo 97" x="176.8" y="121.17" width="562.91" height="469.7" fill="none" stroke="#1829c4" stroke-linecap="round" stroke-miterlimit="10" stroke-width="5" stroke-dasharray="12"/></g><g id="ecdbf822-3c62-412d-a889-faeae527b0dc" data-name="pregunta"><g id="bce56cbb-2a69-4b6a-a56f-e66f09e7f8f7" data-name="Grupo 129"><g id="fcd5a400-1794-4d39-8323-005fe93ceff3" data-name="Grupo 126"><g id="a0e31b84-d3b1-499e-a2eb-91303c534c54" data-name="Grupo 120"><path id="b649083e-0d0c-4a47-a209-ee29871e505e" data-name="Trazado 145" d="M26.38,392.94H24.24a1.07,1.07,0,0,1-1.07-1.07,1.1,1.1,0,0,1,.14-.53l1.07-1.85a1.07,1.07,0,0,1,1.86,1.07h0l-.15.25h.29a1.07,1.07,0,0,1,0,2.14h0Z" fill="#ff495a"/></g><g id="fa6f2edb-a770-4c94-b4f7-52e7ca4e6c10" data-name="Grupo 121"><path id="a5c4b0eb-8f35-48a7-9fa4-2b8719fb36ff" data-name="Trazado 146" d="M27.21,387.79a1,1,0,0,1-.53-.14,1.08,1.08,0,0,1-.4-1.46h0l1.9-3.29A1.07,1.07,0,0,1,30,384l-1.89,3.29A1.05,1.05,0,0,1,27.21,387.79Zm3.8-6.58a1.07,1.07,0,0,1-1.07-1.07,1.11,1.11,0,0,1,.14-.54l1.9-3.3a1.07,1.07,0,0,1,1.46-.42,1.06,1.06,0,0,1,.42,1.45l0,0-1.9,3.3a1.07,1.07,0,0,1-.93.54Zm3.8-6.59a1.06,1.06,0,0,1-.92-1.6h0l1.89-3.3a1.07,1.07,0,0,1,1.89,1h0l0,.05-1.9,3.29a1.08,1.08,0,0,1-.93.54Z" fill="#ff495a"/></g><g id="abf91ba3-ae1d-4b43-9762-378eff7abc3e" data-name="Grupo 122"><path id="b93f8fb1-e3f8-4b64-8625-91d019740872" data-name="Trazado 147" d="M40.76,368a1.07,1.07,0,0,1-.93-.53l-.14-.25-.14.25a1.08,1.08,0,0,1-1.46.4,1.06,1.06,0,0,1-.42-1.43l0,0h0l1.07-1.86a1.08,1.08,0,0,1,1.47-.39,1.21,1.21,0,0,1,.39.39l1.07,1.86a1.07,1.07,0,0,1-.93,1.6Z" fill="#ff495a"/></g><g id="a03c63c1-9640-418d-bb48-af9d7056fd5d" data-name="Grupo 123"><path id="e480bd37-2334-477a-a2ee-71da3aceff9a" data-name="Trazado 148" d="M52.17,387.79a1.05,1.05,0,0,1-.93-.53L49.34,384a1.07,1.07,0,0,1,1.86-1.07l1.89,3.29a1.06,1.06,0,0,1-.39,1.46,1.1,1.1,0,0,1-.53.14Zm-3.8-6.58a1.08,1.08,0,0,1-.93-.54l-1.9-3.3a1.07,1.07,0,1,1,1.81-1.15l0,0a.08.08,0,0,1,0,0l1.9,3.3a1.06,1.06,0,0,1-.39,1.46,1,1,0,0,1-.53.15Zm-3.8-6.59a1.07,1.07,0,0,1-.93-.53l-1.9-3.3a1.06,1.06,0,0,1,.35-1.47,1.05,1.05,0,0,1,1.47.34h0l0,.05,1.9,3.3a1.07,1.07,0,0,1-.93,1.6Z" fill="#ff495a"/></g><g id="a0f90916-792d-44c4-8c2a-22908795f889" data-name="Grupo 124"><path id="a9ceb274-b6d4-4557-b899-020836f0efb4" data-name="Trazado 149" d="M55.14,392.94H53a1.07,1.07,0,1,1,0-2.14h.3l-.15-.25a1.07,1.07,0,0,1,.43-1.45,1.06,1.06,0,0,1,1.43.39l1.07,1.85a1.07,1.07,0,0,1-.93,1.6Z" fill="#ff495a"/></g><g id="f1ad2199-2f05-4713-9404-0f3f93f78786" data-name="Grupo 125"><path id="b791301f-8d60-40c2-8b81-258eb7995870" data-name="Trazado 150" d="M49.2,392.94H45.4a1.07,1.07,0,0,1,0-2.14H49.2a1.09,1.09,0,0,1,1.08,1.07,1.07,1.07,0,0,1-1.07,1.07h0Zm-7.61,0h-3.8a1.07,1.07,0,0,1,0-2.14H41.6a1.07,1.07,0,1,1,0,2.14Zm-7.6,0h-3.8a1.07,1.07,0,1,1,0-2.14H34a1.07,1.07,0,1,1,0,2.14Z" fill="#ff495a"/></g></g><g id="b022fa8f-6dcf-452b-91ee-9583e2374479" data-name="Grupo 127"><path id="e4a8ab2b-f60d-4172-b5e6-30c449526f73" data-name="Trazado 151" d="M79.23,433.59h-.15a16.16,16.16,0,0,1-4.39-1.29,1.07,1.07,0,0,1,.9-2,13.53,13.53,0,0,0,3.8,1.12,1.07,1.07,0,0,1-.16,2.13Zm4.27,0a1.07,1.07,0,0,1-.15-2.13,13.72,13.72,0,0,0,3.8-1.12,1.08,1.08,0,0,1,1.42.53,1.07,1.07,0,0,1-.53,1.42h0a16,16,0,0,1-4.39,1.29Zm7.68-3.51A1.07,1.07,0,0,1,90.11,429a1.1,1.1,0,0,1,.37-.81,13.78,13.78,0,0,0,2.6-3,1.07,1.07,0,0,1,1.48-.32,1.08,1.08,0,0,1,.35,1.43l0,.05h0a15.94,15.94,0,0,1-3,3.45,1.06,1.06,0,0,1-.7.27Zm-19.63,0a1.06,1.06,0,0,1-.7-.26,16,16,0,0,1-3-3.46,1.06,1.06,0,0,1,.4-1.46,1.08,1.08,0,0,1,1.4.3h0a13.79,13.79,0,0,0,2.6,3,1.08,1.08,0,0,1,.11,1.51,1.1,1.1,0,0,1-.81.37Zm24.2-7.1a1.08,1.08,0,0,1-1.07-1.08,1.35,1.35,0,0,1,0-.29,13.78,13.78,0,0,0,.56-3.93,1.08,1.08,0,0,1,1.11-1,1.06,1.06,0,0,1,1,1h0a15.73,15.73,0,0,1-.64,4.52,1.07,1.07,0,0,1-1,.77ZM67,423a1.08,1.08,0,0,1-1-.77,15.73,15.73,0,0,1-.64-4.52,1.07,1.07,0,0,1,2.14,0h0a14.14,14.14,0,0,0,.56,3.93,1.09,1.09,0,0,1-.73,1.33,1.54,1.54,0,0,1-.3,0Zm28.77-8.44a1.08,1.08,0,0,1-1-.77,13.77,13.77,0,0,0-1.64-3.6,1.07,1.07,0,0,1,1.8-1.16h0a16,16,0,0,1,1.9,4.16,1.08,1.08,0,0,1-.73,1.33,1,1,0,0,1-.3,0Zm-28.77,0a1,1,0,0,1-.3,0,1.07,1.07,0,0,1-.72-1.33h0a16,16,0,0,1,1.9-4.16,1.07,1.07,0,0,1,1.8,1.16,13.8,13.8,0,0,0-1.65,3.6,1.08,1.08,0,0,1-1,.76Zm24.2-7.1a1,1,0,0,1-.7-.26A14,14,0,0,0,87.14,405a1.07,1.07,0,0,1,.89-1.95h0a15.88,15.88,0,0,1,3.84,2.48,1.07,1.07,0,0,1,.11,1.51,1.12,1.12,0,0,1-.81.37Zm-19.63,0a1.07,1.07,0,0,1-1.07-1.07,1.05,1.05,0,0,1,.37-.81,15.9,15.9,0,0,1,3.85-2.47,1.07,1.07,0,0,1,.89,1.94h0a13.81,13.81,0,0,0-3.34,2.15,1.11,1.11,0,0,1-.7.25Zm12-3.51h-.15a13.9,13.9,0,0,0-4,0,1.07,1.07,0,0,1-.3-2.12,15.9,15.9,0,0,1,4.57,0,1.07,1.07,0,0,1-.15,2.13Z" fill="#6b5efd"/></g><g id="e3f2e9ba-dea6-40c5-9fb5-082ea0c2d454" data-name="Grupo 128"><path id="bf40f0e1-8bd0-4a3e-976f-9d75f65ac2dd" data-name="Trazado 152" d="M51.24,342.89h-.15a16,16,0,0,1-4.39-1.29,1.07,1.07,0,1,1,.89-1.94h0a14.05,14.05,0,0,0,3.8,1.11,1.07,1.07,0,0,1-.15,2.13Zm4.27,0a1.07,1.07,0,0,1-.15-2.13,14.05,14.05,0,0,0,3.8-1.11,1.07,1.07,0,0,1,.89,1.94,16.06,16.06,0,0,1-4.39,1.29Zm7.68-3.51a1.07,1.07,0,0,1-1.07-1.07,1.05,1.05,0,0,1,.37-.81,14.26,14.26,0,0,0,2.6-3,1.07,1.07,0,1,1,1.85,1.08l0,.08h0a15.94,15.94,0,0,1-3,3.45,1,1,0,0,1-.7.26Zm-19.63,0a1,1,0,0,1-.7-.26,16,16,0,0,1-3-3.46,1.07,1.07,0,0,1,.43-1.45,1.06,1.06,0,0,1,1.37.3,13.78,13.78,0,0,0,2.6,3,1.07,1.07,0,0,1-.7,1.88Zm24.2-7.1a1,1,0,0,1-.3,0,1.07,1.07,0,0,1-.73-1.33h0a14.09,14.09,0,0,0,.56-3.93,1.07,1.07,0,0,1,2.14,0,16.11,16.11,0,0,1-.65,4.53,1.06,1.06,0,0,1-1,.77Zm-28.78,0a1.07,1.07,0,0,1-1-.77,16.09,16.09,0,0,1-.65-4.52,1.09,1.09,0,0,1,1-1.14,1.07,1.07,0,0,1,1.13,1V327h0a14.07,14.07,0,0,0,.56,3.92,1.07,1.07,0,0,1-.73,1.33.94.94,0,0,1-.3.05Zm28.78-8.44a1.07,1.07,0,0,1-1-.77,14,14,0,0,0-1.65-3.6,1.07,1.07,0,0,1,1.8-1.16,16,16,0,0,1,1.9,4.16,1.07,1.07,0,0,1-.73,1.33h0a1.35,1.35,0,0,1-.29,0Zm-28.77,0a1.06,1.06,0,0,1-1.07-1.08h0a1,1,0,0,1,0-.3,16,16,0,0,1,1.9-4.16,1.07,1.07,0,0,1,1.8,1.16,14.14,14.14,0,0,0-1.65,3.6,1.07,1.07,0,0,1-1,.77Zm24.2-7.1a1,1,0,0,1-.7-.26,14,14,0,0,0-3.34-2.16,1.07,1.07,0,0,1-.47-1.44,1.05,1.05,0,0,1,1.36-.5,15.84,15.84,0,0,1,3.84,2.47,1.07,1.07,0,0,1,.11,1.51,1.1,1.1,0,0,1-.81.37Zm-19.63,0a1.07,1.07,0,0,1-.7-1.88,15.88,15.88,0,0,1,3.84-2.48,1.07,1.07,0,0,1,.92,1.94h0a14,14,0,0,0-3.34,2.15,1.09,1.09,0,0,1-.7.25Zm11.94-3.51h-.15a13.83,13.83,0,0,0-4,0,1.07,1.07,0,1,1-.42-2.1h.12a16.58,16.58,0,0,1,4.56,0,1.07,1.07,0,0,1-.14,2.13Z" fill="#fda803"/></g></g><g id="bd33414b-4b7c-42c0-95f3-edacf9c5b3a0" data-name="Grupo 140"><g id="b7eed76b-003d-4cb2-ba38-4d961ef1c2f7" data-name="Grupo 137"><g id="a89373a1-6547-4808-96ed-886940471444" data-name="Grupo 136"><g id="ada51deb-fe25-473b-8ff0-798636fc018a" data-name="Grupo 130"><path id="ad27cb52-ef16-402a-99c7-412bc1f5a454" data-name="Trazado 153" d="M784.41,91.15h2.15a1.07,1.07,0,0,0,1.07-1.07,1,1,0,0,0-.15-.54l-1.07-1.85a1.07,1.07,0,0,0-1.9,1s0,0,0,0l0,.05h0l.14.25h-.29a1.07,1.07,0,0,0-.06,2.14Z" fill="#fda803"/></g><g id="a2338ced-7e23-46bd-ae70-e7c5a6672a56" data-name="Grupo 131"><path id="a981eec9-1842-4a8a-b6b5-e875aef6ea3f" data-name="Trazado 154" d="M782.65,85.46l-1.9-3.29A1.07,1.07,0,0,1,782.56,81l0,0,0,0h0l1.9,3.29a1.07,1.07,0,0,1-1.83,1.12Zm-3.8-6.58-1.9-3.3a1.07,1.07,0,0,1,1.86-1.07h0l1.9,3.29a1.08,1.08,0,0,1-.39,1.47,1.07,1.07,0,0,1-1.44-.35l0,0Zm-3.8-6.59L773.15,69a1.08,1.08,0,0,1,.39-1.47,1.07,1.07,0,0,1,1.44.35l0,0,1.9,3.3a1.08,1.08,0,0,1-.36,1.47,1.06,1.06,0,0,1-1.47-.36s0,0,0,0Z" fill="#fda803"/></g><g id="b4a7d668-4bf2-49c1-8057-a8e9b1a32ff7" data-name="Grupo 132"><path id="f5f3e88f-6256-4d63-bb66-fd0080502bc2" data-name="Trazado 155" d="M770,66.24a1.07,1.07,0,0,0,.93-.53l.14-.25.14.25a1.07,1.07,0,0,0,1.86-1.07L772,62.78a1.09,1.09,0,0,0-1.47-.39,1.12,1.12,0,0,0-.39.39l-1.07,1.86a1.07,1.07,0,0,0,.39,1.46h0A1.11,1.11,0,0,0,770,66.24Z" fill="#fda803"/></g><g id="f2040bb3-9720-4c8d-8f2d-e9fa51cd1830" data-name="Grupo 133"><path id="f8c7e52d-35be-4f3b-bf3a-c6afdbadeb68" data-name="Trazado 156" d="M758.08,85.86a1.07,1.07,0,0,1-.39-1.46h0l1.9-3.29a1.07,1.07,0,0,1,1.45-.43,1.08,1.08,0,0,1,.43,1.46l0,0h0l-1.9,3.29a1.07,1.07,0,0,1-1.46.39Zm3.8-6.58a1.08,1.08,0,0,1-.39-1.47h0l1.9-3.29a1.07,1.07,0,0,1,1.88,1l0,0h0l-1.9,3.29a1.06,1.06,0,0,1-1.45.4h0Zm3.8-6.59a1.08,1.08,0,0,1-.39-1.46h0l1.9-3.29a1.07,1.07,0,1,1,1.88,1h0l0,.05h0l-1.9,3.29a1.07,1.07,0,0,1-1.46.39Z" fill="#fda803"/></g><g id="b9a41a63-ee85-4709-b023-243b76a12f97" data-name="Grupo 134"><path id="ffc904d4-42ef-4037-afde-e9f1fcf08922" data-name="Trazado 157" d="M755.65,91.15h2.14a1.07,1.07,0,1,0,.07-2.14h-.36l.14-.25a1.07,1.07,0,0,0-1.83-1.11.08.08,0,0,0,0,0h0l-1.07,1.85a1.06,1.06,0,0,0,.39,1.46h0a1.1,1.1,0,0,0,.53.14Z" fill="#fda803"/></g><g id="faf093f0-0f22-45d4-a967-a3ec1dca04a1" data-name="Grupo 135"><path id="a526d452-59ca-4d06-aef6-6cc44c505674" data-name="Trazado 158" d="M760.52,90.09A1.08,1.08,0,0,1,761.59,89h3.81a1.08,1.08,0,0,1,.06,2.15H761.6a1.09,1.09,0,0,1-1.08-1.07Zm7.61,0A1.08,1.08,0,0,1,769.19,89H773a1.08,1.08,0,0,1,0,2.15h-3.8a1.07,1.07,0,0,1-1.07-1.07Zm7.61,0A1.06,1.06,0,0,1,776.8,89h3.81a1.08,1.08,0,0,1,.06,2.15h-3.86a1.07,1.07,0,0,1-1.07-1.07Z" fill="#fda803"/></g></g></g><g id="b82e1ac0-4ef7-4c12-a670-d2305961a956" data-name="Grupo 138"><path id="f7daf7e4-882f-4932-9de0-ae5d1d309cb7" data-name="Trazado 159" d="M712.69,86.39a1.08,1.08,0,0,1,.91-1.21h0a13.85,13.85,0,0,0,3.8-1.11,1.07,1.07,0,0,1,.89,1.94,16,16,0,0,1-4.39,1.29h-.15A1.07,1.07,0,0,1,712.69,86.39Zm-3.35.91a16,16,0,0,1-4.4-1.29,1.07,1.07,0,1,1,.89-2h0a13.53,13.53,0,0,0,3.8,1.12,1.07,1.07,0,0,1-.27,2.12h0Zm-8.23-3.76a16.18,16.18,0,0,1-3-3.45,1.07,1.07,0,0,1,1.74-1.26l0,0,0,.06a14.26,14.26,0,0,0,2.6,3,1.07,1.07,0,0,1-1.4,1.62Zm19.52-.11a1.05,1.05,0,0,1,.1-1.5h0a14.31,14.31,0,0,0,2.6-3,1.07,1.07,0,0,1,1.84,1.1.21.21,0,0,0,0,.06h0a15.94,15.94,0,0,1-3,3.45,1.06,1.06,0,0,1-1.5-.1h0Zm-24.43-7.5a16.08,16.08,0,0,1-.64-4.52,1.07,1.07,0,0,1,2.14-.07v.07a13.66,13.66,0,0,0,.56,3.92,1.07,1.07,0,0,1-2.06.6Zm29.5.72a1.06,1.06,0,0,1-.72-1.32h0a14.14,14.14,0,0,0,.56-3.93,1.07,1.07,0,0,1,2.14,0,16.09,16.09,0,0,1-.65,4.52,1.06,1.06,0,0,1-1.32.73h0Zm-28.77-8.44a1.06,1.06,0,0,1-.72-1.32h0a15.68,15.68,0,0,1,1.9-4.16,1.07,1.07,0,0,1,1.83,1.1l0,.06a13.83,13.83,0,0,0-1.65,3.6,1.08,1.08,0,0,1-1,.77,1,1,0,0,1-.3-.05ZM725,67.48a14.14,14.14,0,0,0-1.65-3.6,1.07,1.07,0,0,1,.23-1.5,1.06,1.06,0,0,1,1.49.23l.05.06,0,0a16,16,0,0,1,1.9,4.16,1.07,1.07,0,1,1-2,.68s0,0,0,0v0Zm-24-6.7a1.06,1.06,0,0,1,.1-1.51h0a16.14,16.14,0,0,1,3.84-2.47,1.07,1.07,0,0,1,1.42.53,1.08,1.08,0,0,1-.53,1.42h0a14,14,0,0,0-3.34,2.14,1.05,1.05,0,0,1-1.5-.11h0Zm19.73.11a13.81,13.81,0,0,0-3.34-2.15,1.07,1.07,0,1,1,.89-1.94h0a15.9,15.9,0,0,1,3.85,2.47,1.08,1.08,0,0,1,0,1.52,1.07,1.07,0,0,1-1.42.1Zm-12.31-4.18a1.07,1.07,0,0,1,.91-1.21,16.65,16.65,0,0,1,4.57,0,1.07,1.07,0,0,1,.88,1.23,1.09,1.09,0,0,1-1.18.89,13.9,13.9,0,0,0-4,0,1.07,1.07,0,0,1-1.2-.9h0Z" fill="#766aff"/></g><g id="a29c7a9c-37a2-4367-b791-f184372d6d66" data-name="Grupo 139"><path id="b3b5d98d-0809-4064-9a04-089ab501e74e" data-name="Trazado 160" d="M778.1,155.07a1.08,1.08,0,0,1,.91-1.21h0a13.85,13.85,0,0,0,3.8-1.11,1.07,1.07,0,1,1,.91,1.93h0a16,16,0,0,1-4.39,1.29,1.08,1.08,0,0,1-1.21-.9h0Zm-3.35.91a16,16,0,0,1-4.39-1.29,1.07,1.07,0,0,1-.53-1.42,1.08,1.08,0,0,1,1.42-.53h0a13.72,13.72,0,0,0,3.8,1.12,1.07,1.07,0,1,1-.3,2.12Zm-8.24-3.76a16.42,16.42,0,0,1-3-3.45,1.07,1.07,0,0,1,1.77-1.22h0l0,.06a14.26,14.26,0,0,0,2.6,3,1.07,1.07,0,0,1-1.4,1.62Zm19.53-.11a1.06,1.06,0,0,1,.1-1.51h0a14,14,0,0,0,2.6-3,1.07,1.07,0,0,1,1.8,1.16,16.18,16.18,0,0,1-3,3.45,1.07,1.07,0,0,1-1.51-.11Zm-24.42-7.5a16.16,16.16,0,0,1-.65-4.53,1.07,1.07,0,1,1,2.14,0h0a14.14,14.14,0,0,0,.56,3.93,1.07,1.07,0,0,1-2,.62v0Zm29.5.72a1.06,1.06,0,0,1-.73-1.32h0a14.14,14.14,0,0,0,.56-3.93A1.06,1.06,0,0,1,792,139a1.07,1.07,0,0,1,1.07,1.06,16.16,16.16,0,0,1-.65,4.53,1.09,1.09,0,0,1-1.32.73Zm-28.78-8.44a1.08,1.08,0,0,1-.72-1.33,15.77,15.77,0,0,1,1.9-4.15,1.07,1.07,0,0,1,1.84,1.1l0,.06a13.51,13.51,0,0,0-1.65,3.6,1.08,1.08,0,0,1-1.33.72Zm28-.73a14.14,14.14,0,0,0-1.65-3.6,1.07,1.07,0,0,1,1.8-1.16,16,16,0,0,1,1.9,4.16,1.07,1.07,0,0,1-2,.64v0Zm-24-6.71a1.07,1.07,0,0,1,.1-1.51,16.2,16.2,0,0,1,3.85-2.47,1.07,1.07,0,1,1,.89,1.94h0a14.33,14.33,0,0,0-3.34,2.15,1.07,1.07,0,0,1-1.51-.1h0Zm19.73.1a13.78,13.78,0,0,0-3.34-2.14,1.07,1.07,0,1,1,.89-2h0a16.2,16.2,0,0,1,3.85,2.47,1.07,1.07,0,0,1-1.4,1.62Zm-12.31-4.16a1.07,1.07,0,0,1,.91-1.21,15.9,15.9,0,0,1,4.57,0,1.07,1.07,0,1,1-.23,2.13H779a14.66,14.66,0,0,0-4,0,1.07,1.07,0,0,1-1.21-.9h0Z" fill="#ff495a"/></g></g><g id="f086ab0d-5c8c-4588-984f-b2aff1dfc4dc" data-name="Grupo 554"><g id="e32512f0-b040-46a5-a68b-3e9bc23f3cfb" data-name="Grupo 554-2"><g id="b4ddb5d6-093b-4b10-b4c4-c74ede228422" data-name="Grupo 143-2"><path id="ae271717-c092-474d-988c-98682910160c" data-name="Trazado 163-2" d="M674.2,369.53l-22.06-5.74A33.2,33.2,0,1,1,666.2,346l9.93,21.26a1.65,1.65,0,0,1-1.92,2.3Z" fill="#6b5efd"/></g><g id="e43bc2ad-5a52-4032-94da-09e8b1cc204e" data-name="question-2"><path id="a4f1b920-acce-428e-8a3f-8fba8a685130" data-name="Trazado 1185-2" d="M636.13,348.83l-2.63,5.28,2.63,5.28a5.28,5.28,0,1,0,0-10.56Z" fill="#fda829"/><path id="fe10e0ea-db6b-4898-83cd-a5b33667fc92" data-name="Trazado 1186-2" d="M630.85,354.11a5.29,5.29,0,0,0,5.28,5.28h0V348.83a5.29,5.29,0,0,0-5.28,5.28Z" fill="#ffcf2f"/><path id="a5d195ee-66a2-46f8-95a2-a3061e2471be" data-name="Trazado 1187-2" d="M636.13,314.36l-5.28,5.28,5.28,5.28a3.16,3.16,0,0,1,2,5.58l-2,1.74-3.51,7,3.51,7h5.28v-4.6l3.6-3.07a13.71,13.71,0,0,0-8.88-24.17Z" fill="#fda829"/><g id="ad939c65-eb04-4a59-979a-8f53c10526be" data-name="Grupo 550-2"><path id="ae1a86af-55bf-4d74-8d2f-e7c136eebbce" data-name="Trazado 1188-2" d="M630.85,336.72v9.48h5.28v-14Z" fill="#ffcf2f"/><path id="bf97c31a-6cb4-4d53-8216-ef2b650a0757" data-name="Trazado 1189-2" d="M622.41,328.08v1.32H633v-1.32a3.15,3.15,0,0,1,3.16-3.16V314.36A13.74,13.74,0,0,0,622.41,328.08Z" fill="#ffcf2f"/></g></g></g></g></g><g id="b3a78976-dbbd-472a-945c-b44805711f7a" data-name="tablet"><g id="bcd80839-2f30-426d-bddc-8ad2536e0e92" data-name="Grupo 151"><path id="f91a96f9-fd7a-4182-9cd6-b544faef14f5" data-name="Rectángulo 14" d="M381.65-5.25H556.17a3.4,3.4,0,0,1,3.4,3.4V261.23a3.39,3.39,0,0,1-3.39,3.39H381.65a3.4,3.4,0,0,1-3.4-3.4V-1.85a3.4,3.4,0,0,1,3.4-3.4Z" transform="translate(325.13 594.47) rotate(-88.27)" fill="#2e3062"/><path id="b926ee42-85e8-4780-bed2-3238be58ef08" data-name="Trazado 165" d="M599,55.43l-4.72,156.23a5.25,5.25,0,0,1-5.41,5.1l-244.93-7.4a5,5,0,0,1-1.82-.39,5.24,5.24,0,0,1-3.27-5l4.72-156.23a5.25,5.25,0,0,1,5.41-5.1h0L593.89,50a5.15,5.15,0,0,1,2,.45A5.26,5.26,0,0,1,599,55.43Z" fill="#fff9ff"/><g id="be802cd1-baaa-4049-8bb8-b90fd1ec5c7c" data-name="Grupo 150"><path id="b20b668f-4ef5-482a-970d-195dc9c05ad6" data-name="Trazado 166" d="M599,55.43l-.24,7.77L343.31,55.49l.24-7.77a5.26,5.26,0,0,1,5.41-5.1h0L593.9,50A5.26,5.26,0,0,1,599,55.43Z" fill="#dadaef"/><path id="a4b4c521-f7a3-4123-82e5-5099caf9d4c4" data-name="Trazado 167" d="M378.13,50.12h0a1.73,1.73,0,0,0,1.67,1.77L552.33,57.1a1.72,1.72,0,0,0,1.78-1.67h0a1.72,1.72,0,0,0-1.67-1.77L379.9,48.45a1.72,1.72,0,0,0-1.77,1.67Z" fill="#fff9ff"/><g id="f65f35b3-b298-4187-9b49-4fc355b08227" data-name="Grupo 148"><path id="a26ae094-2eb7-4e45-882d-3b97544979b5" data-name="Trazado 168" d="M358.46,49.53l0,1.27a.48.48,0,0,1-.49.47.62.62,0,0,1-.23-.07l-1.09-.68-1.08-.67a.47.47,0,0,1-.16-.65.49.49,0,0,1,.18-.17l1.12-.6,1.13-.61a.48.48,0,0,1,.64.2.46.46,0,0,1,.06.23Z" fill="#2e3062"/><path id="e51e2ad7-4604-42f5-a6a4-51983249a8e5" data-name="Trazado 169" d="M364.21,49.7l0,1.27a.47.47,0,0,0,.46.49.42.42,0,0,0,.24-.05l1.12-.6,1.13-.61a.47.47,0,0,0,.19-.64.42.42,0,0,0-.17-.18l-1.09-.68L365,48a.48.48,0,0,0-.66.15.73.73,0,0,0-.07.24Z" fill="#2e3062"/></g><g id="bd39dc69-c118-44aa-8856-910cee02e27b" data-name="Grupo 149"><circle id="f116184c-fadc-46c5-8c00-f3a04ccf6dee" data-name="Elipse 12" cx="576.36" cy="56" r="2.55" fill="#6b5efd"/><circle id="b77a2e24-3891-42d9-9bcb-e3cb05928b79" data-name="Elipse 13" cx="566.91" cy="55.72" r="2.55" fill="#fda803"/><circle id="b603b0c5-11a6-4e26-a197-ccdeb322b096" data-name="Elipse 14" cx="585.8" cy="56.29" r="2.55" fill="#ff495a"/></g></g></g><g id="a904f17f-cbd0-4e80-940c-c99ce35be649" data-name="Grupo 165"><g id="ac694959-827f-46c0-9507-2ffd4413b1ab" data-name="Grupo 153"><path id="bceeb6e2-e892-4605-b58e-ad0b03465519" data-name="Trazado 170" d="M570.25,216.24a2.87,2.87,0,0,0,2.08-.79h0a6.59,6.59,0,0,0,2.12-4.23v-.07c.29-10.66,13.37-9.56,18-22.46s-12-14.51-21.72-6.75c-7,5.59-15-2.75-25.07,3.7-8.79,5.6-4.43,20.17-18.42,15.23-4.47-1.57-8.55-.31-12,2.15a20.2,20.2,0,0,0-7.9,11.33h0Z" fill="#f68601"/><g id="bd8beebe-64c6-4a82-9a38-547d4c483ee1" data-name="Grupo 152"><path id="b703de68-7f9b-43d4-9e6f-2da2747576b6" data-name="Trazado 171" d="M538.77,215.29l36.4-21.85a1.06,1.06,0,0,0-1.1-1.82h0l-39.25,23.55Z" fill="#e65913"/></g></g><g id="a1bd090d-d355-427f-880c-48a216ba8592" data-name="Grupo 156"><path id="b21429d0-8022-4765-b559-c4689022b42e" data-name="Trazado 172" d="M420.43,193.31c2.5-1.74,4.95-3.55,7.29-5.5-2.33-13.31-5.55-37.52-2.9-58.64,4.21-33.47-10.06-40-18.55-32.91-27.58,22.92,13.09,97,13.09,97Z" fill="#f68601"/><g id="a6f2030d-ecb0-479b-9206-d269581d9846" data-name="Grupo 155"><g id="af85e94c-f27f-4753-be9e-38c201a35603" data-name="Grupo 154"><path id="bbd09f14-09c7-46a5-8f3d-36e31d0228d7" data-name="Trazado 173" d="M423.17,191.35l1.23-.92c-6.21-16.93-9.16-34.66-10.55-47.27a225.74,225.74,0,0,1-1.5-27.26.75.75,0,0,0-1.49,0,230.65,230.65,0,0,0,1.51,27.43C413.78,156.1,416.79,174.14,423.17,191.35Z" fill="#e65913"/></g></g></g><g id="e2cfe758-f322-466c-99e7-11a07883b5bd" data-name="Grupo 159"><path id="a5f4fcf4-e7d7-418a-b86d-30d7ba43b784" data-name="Trazado 174" d="M428.62,208.64c.06-2.13.07-4.27,0-6.4-12-6.26-33.14-18.44-48.27-33.41-24-23.73-37.83-16.36-37.4-5.34.95,24.55,40.43,38.3,65.21,44.53Z" fill="#f68601"/><g id="b84744e8-1309-4da5-98a2-fd84b06d2908" data-name="Grupo 158"><g id="a6e0ec91-7823-4591-af82-6dc5957b76c6" data-name="Grupo 157"><path id="af1a8d58-de35-474c-9cde-dd88ebe060fe" data-name="Trazado 175" d="M428.64,208c0-.51,0-1,0-1.54-17.21-5.39-33.07-13.85-43.92-20.42a228.63,228.63,0,0,1-22.53-15.41.74.74,0,1,0-.93,1.15h0A230.42,230.42,0,0,0,384,187.31C395,194,411.12,202.58,428.64,208Z" fill="#e65913"/></g></g></g><g id="adc9025f-d56a-47e1-8bc5-c424254c26e1" data-name="Grupo 162"><path id="ad059f65-6fc5-4a53-a6d9-c56ac9e092df" data-name="Trazado 176" d="M432.67,208.76l2.53-.84s-29.2-40.66-41.28-84.3c-13-47.08-35.71-47.81-43.12-33.65C330,129.72,398.63,192.14,417.61,208.32Z" fill="#fda803"/><g id="b2db6670-4a13-46f1-90b6-347451de16aa" data-name="Grupo 161"><g id="a7a84fba-6a31-4d8b-816a-1f42b39be7fd" data-name="Grupo 160"><path id="b6b04be7-549f-45a6-90af-f250d8c2fb65" data-name="Trazado 177" d="M427.29,208.6l3,.1c-19.1-19.84-33.92-43.37-43.28-60.28a333,333,0,0,1-17.2-35.59,1.06,1.06,0,0,0-1.36-.65,1.07,1.07,0,0,0-.66,1.36v0s0,0,0,0a332.27,332.27,0,0,0,17.29,35.81C394.34,166,408.74,188.94,427.29,208.6Z" fill="#f68601"/></g></g></g><g id="b409aba4-745d-48c8-a0b7-c1f46873a56e" data-name="Grupo 164"><path id="a1fe5eee-625a-4a85-a19c-ba86e2433989" data-name="Trazado 178" d="M538.7,215.24a27.34,27.34,0,0,0-.46-5c-3-15.93,6.51-18.63,19.07-23.25s14.46-19.43,6.06-32,7.67-22,2.42-40.78-25.8-7-30.72,10c-3.55,12.21-19.6,9.07-26.05,24.85-5.61,13.7,11.4,27-8.88,32.76-6.47,1.83-10.17,6.65-12.2,12.36a28.73,28.73,0,0,0,.13,19.61Z" fill="#fda803"/><g id="b5874677-eaa8-4851-a6c7-8938a733b428" data-name="Grupo 163"><path id="ea975977-6075-4de8-b084-49b51dba3fc2" data-name="Trazado 179" d="M514.14,214.5l35.54-80.66a1.51,1.51,0,0,0-2.77-1.22l-36,81.78Z" fill="#f68601"/></g></g></g><g id="e6df0dbf-3859-4bc9-aba6-04abc38d3d3f" data-name="Grupo 180"><g id="f10d3ed0-9656-4a38-a16e-061716359905" data-name="Grupo 179"><g id="e51af6e4-3d8c-4eb1-a400-b7cd478c1517" data-name="Grupo 178"><path id="eb87ca7a-13c1-48b8-83d6-e2f0cbfba33e" data-name="Trazado 180" d="M413.51,211.47l-1.13-30.73a280.57,280.57,0,0,0-20.26,30.08Z" fill="#542bd8"/><path id="b0d9aaf6-28a3-4601-b485-aa963ff381f5" data-name="Trazado 181" d="M540.91,215.31a296.09,296.09,0,0,0-17.4-31.93l-4.35,31.28Z" fill="#542bd8"/><g id="baeef4e6-eac2-4270-a1aa-2d585a517194" data-name="Grupo 167"><path id="e24fe871-ea19-484a-b2f2-a76e0f44a534" data-name="Trazado 182" d="M519.33,214.65l4.18-31.27a150.65,150.65,0,0,0-47.24-13.08c-23.88-2.45-39.12,1-63.89,10.43l1.13,30.73Z" fill="#6b5efd"/><g id="a5d4b74b-11e8-49ff-8106-811ef7270060" data-name="Grupo 166"><path id="f016f6af-8a48-46f7-a67d-a03afd231793" data-name="Trazado 183" d="M444.18,204.13c22.4-1.94,43.64-16.65,44.6-17.32a1.25,1.25,0,0,0-1.43-2.05c-.25.18-25.23,17.47-48.75,17.08a1.25,1.25,0,0,0,0,2.5h0A52.79,52.79,0,0,0,444.18,204.13Z" fill="#542bd8"/></g></g><g id="b57f909d-1327-4318-9412-79712d70361c" data-name="Grupo 177"><path id="ed23bc35-57cd-4cb0-b2c8-7cbf49b67f8d" data-name="Trazado 184" d="M501,77.27s13.72,22.72,11.44,45.89.61,50.07-20.13,48.27S434.23,178,423,159.58,501,77.27,501,77.27Z" fill="#2e3062"/><path id="f08d75c4-2f81-404a-bb74-61b6f1f91fa0" data-name="Trazado 185" d="M505.1,118.41s2.71,33.76-13.53,42.54-27.49-1.9-27.49-1.9S499.15,113.16,505.1,118.41Z" fill="#000b29"/><g id="b420ded0-c2ca-492d-8a0a-0e2be4976031" data-name="Grupo 176"><g id="eed45000-2f9e-491c-a17f-9cf8ea89f584" data-name="Grupo 170"><path id="a2ddd8f7-2f00-4215-8546-db0e13432b0f" data-name="Trazado 186" d="M438.77,116.25s-5.5-7.82-9.95-1.63,1,25,11.59,20.8Z" fill="#fa8465"/><g id="e84df078-9170-43ea-8913-414471af8ea1" data-name="Grupo 168"><path id="ff2fb15c-4009-473c-9291-6dcecf4987af" data-name="Trazado 187" d="M438.3,129.59a.9.9,0,0,1-.83-.67c-1.44-5.82-7.34-8.33-7.4-8.36a.87.87,0,0,1-.46-1.15.89.89,0,0,1,1.14-.48c.27.12,6.77,2.87,8.44,9.56a.88.88,0,0,1-.65,1.07h0a.85.85,0,0,1-.23,0Z" fill="#fa664d"/></g><g id="fe717529-12c7-4080-9d83-48ccdd538a30" data-name="Grupo 169"><path id="fbc8d704-123a-4bf6-be23-522eb087d000" data-name="Trazado 188" d="M432.36,126.5a.91.91,0,0,1-.48-.15.88.88,0,0,1-.22-1.23h0a8,8,0,0,1,3.39-2.57.88.88,0,1,1,.67,1.63,6.42,6.42,0,0,0-2.61,1.94A.87.87,0,0,1,432.36,126.5Z" fill="#fa664d"/></g></g><g id="b5972075-31c7-4ebb-a44c-c9135a60d1b9" data-name="Grupo 173"><path id="a88777c2-cd75-490b-8be5-91a4b768fbd7" data-name="Trazado 189" d="M497.86,118s6-7.47,10-1-2.53,24.94-12.82,20.07Z" fill="#fa8465"/><g id="a0d1b87f-7939-4fe8-8efa-6a60672097e3" data-name="Grupo 171"><path id="bfaea344-3c80-4138-9fa7-f713d77cbfb6" data-name="Trazado 190" d="M497.53,131.38a.91.91,0,0,0,.87-.62c1.78-5.72,7.83-7.88,7.89-7.9a.88.88,0,0,0,.54-1.12.86.86,0,0,0-1.11-.54c-.29.1-6.94,2.45-9,9a.89.89,0,0,0,.58,1.1h0A1,1,0,0,0,497.53,131.38Z" fill="#fa664d"/></g><g id="a7282275-e90d-46a4-8c69-27065c4c2417" data-name="Grupo 172"><path id="b9e30b6d-0512-400f-83cf-c7fafedd601e" data-name="Trazado 191" d="M503.65,128.65a.82.82,0,0,0,.48-.12.89.89,0,0,0,.3-1.21,8.09,8.09,0,0,0-3.23-2.77.88.88,0,1,0-.78,1.58h0a6.36,6.36,0,0,1,2.48,2.09A.87.87,0,0,0,503.65,128.65Z" fill="#fa664d"/></g></g><path id="a727dd91-777f-4672-9a51-58d86e463383" data-name="Trazado 192" d="M481.37,152.51l-.56,18.57s-5.82,9.29-13.33,9.71-13.88-8.57-13.88-8.57l.58-19.22Z" fill="#f7ad89"/><path id="b16aff77-be2f-47af-9966-b4f6954cd833" data-name="Trazado 193" d="M481.37,152.51l-.24,8.24c-5.2,5.43-14.18,7.13-27.32,4.78l.38-12.53Z" fill="#fa8465"/><path id="ef67e910-9839-4157-b3c5-933c0b7f912f" data-name="Trazado 194" d="M502.39,105.42a180.55,180.55,0,0,1-3.12,23.38c-.4,1.79-.83,3.47-1.31,5-4.32,13.56-14.8,36.73-41.87,26.13-11.95-4.68-17.15-18.31-19.23-32.07a133,133,0,0,1-1.06-25.46,19.38,19.38,0,0,1,10.34-16.2c16.42-8.67,33.36-4.74,44.45-.09A19.33,19.33,0,0,1,502.39,105.42Z" fill="#f7ad89"/><path id="b3c09d67-f7bf-4746-9a30-3fd1fb43f648" data-name="Trazado 195" d="M456.19,119.64c-.06,2-1.13,3.56-2.39,3.52s-2.24-1.67-2.18-3.66S452.75,116,454,116,456.25,117.66,456.19,119.64Z" fill="#2e3062"/><path id="a46af60a-24df-441d-babd-668ac355e3e4" data-name="Trazado 196" d="M484.36,120.49c-.06,2-1.13,3.56-2.39,3.52s-2.24-1.67-2.18-3.66,1.13-3.55,2.39-3.51S484.42,118.51,484.36,120.49Z" fill="#2e3062"/><path id="b41a724e-93c6-43fc-a47c-ccbf4cf571ff" data-name="Trazado 197" d="M449.74,107.5a37.69,37.69,0,0,1,9.81-1.17,1.69,1.69,0,0,1,1.66,1.73,1.63,1.63,0,0,1,0,.31v0a1.69,1.69,0,0,1-1.79,1.33c-2.74-.2-10,0-13.41,1.24a2.5,2.5,0,0,1,.83-1.79A5.88,5.88,0,0,1,449.74,107.5Z" fill="#2e3062"/><path id="a52e049b-1a58-4e49-9d94-eb29052a5662" data-name="Trazado 198" d="M486.6,108.68a38.19,38.19,0,0,0-9.72-1.75,1.69,1.69,0,0,0-1.76,1.62h0a1.61,1.61,0,0,0,0,.31v0a1.7,1.7,0,0,0,1.7,1.44c2.75,0,9.95.56,13.32,2a2.6,2.6,0,0,0-.72-1.84A6,6,0,0,0,486.6,108.68Z" fill="#2e3062"/><g id="a326191c-0881-4fe1-b717-99d536fb1f5c" data-name="Grupo 174"><path id="fe10ce45-07a4-45d6-96a9-a4b32a81409f" data-name="Trazado 199" d="M468.1,134.61a3.53,3.53,0,0,1-1.9-.52A2.67,2.67,0,0,1,465,131.9c-.23-3.25.9-13.39.95-13.82a.88.88,0,0,1,1.75.2c0,.1-1.16,10.4-.94,13.5a1,1,0,0,0,.41.83c.82.52,2.74.07,3.55-.23a.88.88,0,0,1,.62,1.65h0A9.29,9.29,0,0,1,468.1,134.61Z" fill="#fa8465"/></g><path id="aefeac88-529b-438c-ad9f-65d205e7693f" data-name="Trazado 200" d="M456.72,139.84c.57,3.38,2.6,9.62,10.06,9.85s9.76-5.36,10.6-9.22Z" fill="#fff9ff"/><g id="b3a53408-36ef-4d25-a7af-09a7ddb7585b" data-name="Grupo 175"><path id="bbb036d8-2856-407a-ab58-7c38e922e9b7" data-name="Trazado 201" d="M466.53,154.83a8.77,8.77,0,0,1-4.1-1.34.88.88,0,0,1,1-1.47h0a7.16,7.16,0,0,0,3.18,1,7.56,7.56,0,0,0,3.42-.85.88.88,0,0,1,1.18.41.9.9,0,0,1-.31,1.13A9.27,9.27,0,0,1,466.53,154.83Z" fill="#fa8465"/></g></g><path id="a7a01092-6a2f-4155-9b8b-3f47ddd08d82" data-name="Trazado 202" d="M506,104.09a2.9,2.9,0,0,1-2.18,1.56,54.89,54.89,0,0,1-.51,6.53c-1.48,12.71-4.76,14.85-5.39,11.68-.42-2.11,0-14.11.32-18a43.21,43.21,0,0,1-4.65-.73L491,92.65l-1.4,12.19c-4.48,1.41-14.75-1.37-14.75-1.37l-3.1-12.31-2.51,11.67c-6.75,3-15,.63-15,.63L452.7,90.74l-4.79,12.53s-14.35,4.67-14.35-.43c0-3,2.42-11.24,4.45-17.65a26.78,26.78,0,0,1,13.38-16c17.89-8.92,36.36-3.33,42.63.68C507.32,78.37,506,104.09,506,104.09Z" fill="#2e3062"/><path id="ec64710a-53ab-41dd-804a-6724fb76082b" data-name="Trazado 203" d="M442.18,76.43s-12.1,13.55-16.7,38.25-10.46,42.88,4.24,51.53c15.92,9.36,15.07-8.87,15-13.83s-13.44-18.88-3.1-56.66C444.94,83.52,442.18,76.43,442.18,76.43Z" fill="#2e3062"/><path id="ad618ba7-d667-41ac-8b8b-8bd1b3dd38b0" data-name="Trazado 204" d="M437.91,127.64v0c0,.18,0,1.17,0,2.72,0,1,0,2.12.08,3.45.3,8.38,1.49,22.87,6.12,28,1.82,2,5.43,3.14,9.7,3.68L454,159a26,26,0,0,1-10.46-10.31,61.42,61.42,0,0,1-5.39-18.52Z" fill="#000b29"/><path id="ef9c4f0a-4e6b-4c3b-8cc0-b506f35095a6" data-name="Trazado 205" d="M501.63,137.69a2.07,2.07,0,1,1-2-2.13h0A2.07,2.07,0,0,1,501.63,137.69Z" fill="#fff9ff"/></g></g></g></g><path id="a65710aa-911e-4261-b258-7aa24c8a3aca" data-name="Rectángulo 15" d="M454.52,68.85h25.32a3.48,3.48,0,0,1,3.48,3.48V321.53a3.49,3.49,0,0,1-3.49,3.49H454.52a3.48,3.48,0,0,1-3.48-3.48V72.33A3.48,3.48,0,0,1,454.52,68.85Z" transform="translate(256.25 657.96) rotate(-88.27)" opacity="0.4" style="isolation:isolate"/><g id="a711856d-cb04-455b-8c16-8744a15f6e55" data-name="Grupo 182"><circle id="e3d610b4-3e40-40a6-a2a2-0413a54e1df2" data-name="Elipse 15" cx="433.5" cy="196.22" r="9.89" fill="#fff" opacity="0.8" style="isolation:isolate"/><circle id="a8785b9a-4b40-47bd-8cd9-fadff2eca7dc" data-name="Elipse 16" cx="466.95" cy="197.23" r="9.89" fill="#f43853"/><circle id="bb064965-1f2d-480d-a92d-9b4843de91d6" data-name="Elipse 17" cx="499.63" cy="198.21" r="9.89" fill="#fff" opacity="0.8" style="isolation:isolate"/><g id="f76e0227-3e6d-482d-8929-aa57e8e6d36e" data-name="Grupo 181"><path id="a5fbe37b-c335-474c-a818-eb6d883ff4a0" data-name="Trazado 206" d="M432.64,192.45a1.1,1.1,0,1,1-1.13,1.07h0a1.1,1.1,0,0,1,1.13-1.07Z" fill="#454545"/><path id="a7574a67-b0a7-4ec4-a4d4-c397693739dd" data-name="Trazado 207" d="M438.79,198.53l-10.71-.33,2.57-2.65,1.65,1.77,3.26-2.85Z" fill="#454545"/></g><path id="f4a054a4-d19e-4298-935a-a8a210106587" data-name="Trazado 208" d="M467,196.82s-1.75-.15-2,.29c-.34.64,0,2.1-2.11,1.91s-1.35-1.93-1.09-2.43.7-1.42,5.24-1.28,4.93,1.07,5.15,1.6.87,2.3-1.23,2.36-1.69-1.38-2-2C468.72,196.78,467,196.82,467,196.82Z" fill="#fff"/><rect id="ba7fd7b8-b4cb-493d-9b36-5ea77bd2c825" data-name="Rectángulo 16" x="496.38" y="193.03" width="6.52" height="9.69" transform="translate(286.77 691.32) rotate(-88.27)" fill="#454545"/><path id="ba7e7a94-c1f1-434e-b44f-07a4d4ebf7b5" data-name="Trazado 209" d="M502.16,203.49l.09-2.9-2.58.35Z" fill="#454545"/><rect id="b24f0226-673e-408a-a6a8-3b3a8c53713a" data-name="Rectángulo 17" x="499.12" y="193.17" width="1.1" height="7.27" transform="translate(287.88 690.31) rotate(-88.27)" fill="#fff"/><rect id="e6d7c75a-aaaf-4253-b855-0e5a3541b34d" data-name="Rectángulo 18" x="497.34" y="197.11" width="1.1" height="3.86" transform="translate(283.93 690.7) rotate(-88.27)" fill="#fff"/></g></g><g id="e4910997-6485-492a-ad4c-d35ada86d8d6" data-name="dinero"><g id="a499412c-ad40-4032-97eb-7f156b8951f3" data-name="Grupo 143"><path id="f028c127-603f-465a-8dfe-574edec3157a" data-name="Trazado 163" d="M477.22,323.26a1.87,1.87,0,0,1-.8-2.52l12.24-23.45a37.42,37.42,0,1,1,14.94,20.77l-25.14,5.37A2,2,0,0,1,477.22,323.26Z" fill="#2e3062"/></g><g id="e8d930c9-87c9-4762-88a3-2fc60e4fad6b" data-name="Grupo 588"><path id="a1eb1cae-cd02-499d-a016-e05cb13a1f8b" data-name="Trazado 1198" d="M523.59,314.87a3.19,3.19,0,0,0,3.29-3.09v-3.1c9-.83,15-5.58,15-13.3v-.13c0-7.86-5.07-11.47-15.14-13.81v-7.35a26.8,26.8,0,0,1,4.42,1.51,5.23,5.23,0,0,0,6.66-2,4.76,4.76,0,0,0-1.5-6.57,4.67,4.67,0,0,0-.49-.27,29,29,0,0,0-8.77-2.36v-1.9c0-1-1.48-1.9-3.3-1.9s-3.29.81-3.29,1.8v1.81c-9.69.7-15.14,5.89-15.14,13.37v.12c0,7.86,5.19,11.34,15.39,13.69V299a24.47,24.47,0,0,1-7.28-2.46c-2.6-1.32-5.78-.85-7.35,1.47a4.77,4.77,0,0,0,1.68,6.92,37.75,37.75,0,0,0,12.57,3.57v3.17A3.23,3.23,0,0,0,523.59,314.87Zm3-22.42c3.3.95,4.24,1.9,4.24,3.61v.13c0,1.83-1.33,2.91-4.24,3.23Zm-10.2-15.65v-.12c0-1.65,1.2-2.92,4.3-3.17v6.84c-3.42-1-4.31-1.9-4.31-3.55Z" fill="#00bd00" stroke="#6168ff" stroke-miterlimit="10"/></g></g><g id="b8d38655-c296-4e4a-8cf9-496e5e4201f7" data-name="telefono"><g id="b648bfc2-fb5c-4900-ab38-42be4bf2fe2e" data-name="Grupo 589"><g id="b9eb93f5-bc57-4756-bf08-c60f78e4df6d" data-name="Trazado 1199"><path d="M707.42,415.7h0a17.85,17.85,0,0,1-7.44-1.57l-15.84-7.23-.07,0-.07,0a16.14,16.14,0,0,1-7.49-8.56,14.38,14.38,0,0,1,.29-11.07l10.66-23.33a14.77,14.77,0,0,1,13.5-8.69,13.94,13.94,0,0,1,11.13,5.41,9.33,9.33,0,0,0,7.33,3.33,10,10,0,0,0,5.39-1.55c4.89-3.37,10-10.2,13.79-18.27a60.13,60.13,0,0,0,4.14-12,32.24,32.24,0,0,0,.78-10.72l0-.11v-.11a8.1,8.1,0,0,0-2.91-5.78,10,10,0,0,0-6.45-2.45h-.29l-.81,0a14.07,14.07,0,0,1-11.84-6.58,14.8,14.8,0,0,1-1-14.21l10.66-23.34,0-.07,0-.07a16.18,16.18,0,0,1,5.91-6.21,15.41,15.41,0,0,1,7.92-2.24,13.8,13.8,0,0,1,5.79,1.25l15.84,7.23h0l0,0c8.74,4.27,13.3,15.82,12.84,32.53-.45,16.12-5.51,35.54-14.25,54.68a182,182,0,0,1-13.14,24,130.86,130.86,0,0,1-14.67,18.77,70.85,70.85,0,0,1-15.1,12.37C716.91,414.16,712,415.7,707.42,415.7Z" fill="#ffb74b"/><path d="M707.42,413.2c16.64,0,39.59-23.77,55.35-58.25,17.89-39.16,18.64-76.08,2.58-83.92l-15.83-7.24a11.49,11.49,0,0,0-4.76-1,13.43,13.43,0,0,0-11.63,7.13l-10.66,23.34c-3.71,8.11,2.14,17.25,10.57,17.25l.69,0h.41c6,0,11.64,4.64,11.86,10.65,1.71,13.87-8.79,35.77-19.8,43.33a12.51,12.51,0,0,1-6.78,2,11.85,11.85,0,0,1-9.29-4.28,11.41,11.41,0,0,0-9.17-4.46,12.3,12.3,0,0,0-11.23,7.23l-10.66,23.33c-2.66,5.84,0,13.12,6.11,16.39L701,411.85a15.25,15.25,0,0,0,6.4,1.35m0,5v0a20.2,20.2,0,0,1-8.48-1.8l-15.83-7.23-.16-.07-.14-.08a18.66,18.66,0,0,1-8.64-9.88,17.61,17.61,0,0,1-1.12-6.43,16.31,16.31,0,0,1,1.47-6.55l10.66-23.34A17.29,17.29,0,0,1,701,352.67,16.41,16.41,0,0,1,714.05,359a6.85,6.85,0,0,0,5.37,2.38,7.55,7.55,0,0,0,4-1.13,31.21,31.21,0,0,0,6.75-6.86A58.62,58.62,0,0,0,736.34,343a57.76,57.76,0,0,0,4-11.45,30,30,0,0,0,.73-9.86l0-.22v-.22a5.7,5.7,0,0,0-2-4,7.43,7.43,0,0,0-4.81-1.84H734c-.3,0-.6,0-.91,0a16.58,16.58,0,0,1-13.95-7.73,17.3,17.3,0,0,1-1.17-16.6l10.66-23.33.07-.16.08-.14a18.69,18.69,0,0,1,6.82-7.16,17.88,17.88,0,0,1,9.21-2.6,16.44,16.44,0,0,1,6.83,1.47l15.84,7.24.05,0,.06,0a20.41,20.41,0,0,1,6.93,5.61,28.26,28.26,0,0,1,4.46,8.07c2.12,5.77,3.08,12.89,2.86,21.17-.46,16.45-5.6,36.21-14.48,55.65A185.2,185.2,0,0,1,754,381.34a134,134,0,0,1-15,19.12,73.43,73.43,0,0,1-15.65,12.81C717.78,416.54,712.41,418.2,707.42,418.2Z" fill="#6168ff"/></g></g></g><g id="a4152782-1e61-4524-bc73-f9be6b79fcca" data-name="planta"><g id="ae1f3173-63a5-454c-8882-b95617e77fbe" data-name="Grupo 185"><g id="bcf0d6f2-576e-49c2-8354-27200010e172" data-name="Grupo 184"><rect id="b3069738-b992-4dfa-a824-2a381625600c" data-name="Rectángulo 19" x="120.11" y="535.65" width="61.22" height="66.35" fill="#ff495a"/></g><rect id="b2e1f7b3-039c-4618-9ee2-faad51464e02" data-name="Rectángulo 20" x="120.11" y="585.58" width="61.22" height="16.41" fill="#e21c47"/></g><g id="a296017b-3dfb-48f4-96ca-63df05daecd1" data-name="Grupo 188"><g id="bf24ba43-eae1-41f0-9a32-65bce7fe57ab" data-name="Grupo 186"><path id="bc656167-2702-4220-87e3-5a57c163d4b1" data-name="Trazado 210" d="M144,535.65h12.62c.72-3.69,8.12-43.15,1.42-77-7-35.5-28.46-56.58-41.78-41.42s3.33,44.75,15.9,66.16C144.05,503.66,144.05,532.53,144,535.65Z" fill="#00bd00"/></g><g id="f6730d8f-388d-4586-a771-dc965ae4643f" data-name="Grupo 187"><path id="bf8f467d-1f52-4a18-8390-74e0e535c70a" data-name="Trazado 211" d="M148.68,535.65H152c3.37-55.29-21.6-97.72-21.87-98.15a1.66,1.66,0,0,0-2.84,1.71C127.55,439.64,152.05,481.35,148.68,535.65Z" fill="#0e8e0e"/></g></g><g id="afc7cdbb-dc42-47c9-8cbb-9d5a0d2e3479" data-name="Grupo 191"><g id="e61bb53f-9469-4955-a11d-88e64ff203f2" data-name="Grupo 189"><path id="ab30edf0-1447-4c4a-a39f-f7687e9ffa7e" data-name="Trazado 212" d="M202.32,426.26c-28.51,0-44.66,86.88-42.56,109.39H171.9c1-5.72,5.72-20.95,27.16-55.6C209.08,463.86,231.72,426.26,202.32,426.26Z" fill="#00bd00"/></g><g id="f3412eef-5f1b-4246-a522-dcfa1483c65a" data-name="Grupo 190"><path id="b19a7ba0-70d8-4d8d-a0fe-0b2bfc74687b" data-name="Trazado 213" d="M197.31,450.42A1.66,1.66,0,0,0,195,451c-.26.47-24.47,43.62-30.28,84.6h3.37c5.81-40.16,29.55-82.5,29.82-83A1.67,1.67,0,0,0,197.31,450.42Z" fill="#0e8e0e"/></g></g><g id="a2746e3c-c2c5-473f-98a9-f990d2a98876" data-name="Grupo 194"><g id="ff0e4d97-c509-4574-9e29-aabb09f0a652" data-name="Grupo 192"><path id="f81d4b74-9941-4e91-939f-c7096d69d3c7" data-name="Trazado 214" d="M142.14,535.65c.48-16.06-21.92-81.35-41-76.64-20.89,5.16,1.9,35.89,10.44,47.32,13.62,18.2,18.91,26,20.91,29.32Z" fill="#00bd00"/></g><g id="aa5dcb17-8421-4ab1-8b4c-605438af0e07" data-name="Grupo 193"><path id="b7be0831-055a-4686-b7ca-3490fe4ee373" data-name="Trazado 215" d="M138.53,535.65c-6.49-27-29.74-58.38-30.79-59.8a1.67,1.67,0,0,0-2.35-.21,1.69,1.69,0,0,0-.37,2.13l0,.06c.26.35,23.37,31.55,30,57.82Z" fill="#0e8e0e"/></g></g></g><g id="a014e6d1-5129-4197-9279-e8b5cc6f5608" data-name="locutor"><g id="b6416b0c-eefe-4ffa-89dd-853f8924edf3" data-name="Grupo 27"><g id="a90772b9-5a90-47ff-8ab0-b0dda33d3328" data-name="Grupo 7"><path id="f9f2b3d4-2da8-45ce-a28c-038eda76fee3" data-name="Trazado 12" d="M398,498.17S424.5,521.6,449,539a116.55,116.55,0,0,0,16.15,10.07c8.36,4,15.77,5.32,20.36,1.2C502.48,535,524.77,445,524.77,445a34,34,0,0,1-18.23-4.84s-9.53,22.94-20.15,40.22C476.6,496.36,469,508.36,469,508.36c-2.59-2.22-5.38-4.66-8.29-7.26-3.1-2.75-6.33-5.68-9.63-8.7-23.94-21.92-52.68-44.63-52.68-44.63Z" fill="#542bd8"/><path id="eff09f23-6c9f-40b8-91cd-e26c939d2b15" data-name="Trazado 13" d="M520.56,445.82a16.32,16.32,0,0,1-16.84-11.09,13.42,13.42,0,0,1-.7-4c-.11-7.06-2.6-22.38,4.7-24,2.67-.59.57,6.69,3.94,12a99.55,99.55,0,0,0,10.73-11.1C526,403,533.84,395,537.5,391.24a1.4,1.4,0,0,1,2.39,1.27c-.59,2.21-2.53,5.8-7.75,11.53,0,0,13.26-13.2,16.42-12s-13.69,17.39-13.69,17.39,14.21-11,16.18-9c1.2,1.22-11.92,14.85-11.92,14.85s14.26-9.19,12.38-4.72c-.54,1.3-24.92,17.13-26.74,34.44A18.83,18.83,0,0,1,520.56,445.82Z" fill="#f7ad89"/></g><g id="b89d2775-df5b-4e0f-88a0-516f5f3e6998" data-name="Grupo 11"><path id="acc1780b-a96b-4a94-b438-3678abd248df" data-name="Trazado 14" d="M406.76,602.64c-10.16-38.8-2.95-81.79-1.65-109.5.54-11.26,1.36-38.89,1.36-38.89-5.09-4.32-32.66-25.62-32.66-25.62L346.25,423s-55.88,9.7-72,33.25c-5.46,7.95-10,33.47-13.74,62.93l-.45,3.53c-3.34,27.28-6,57.43-8,79.95Z" fill="#6b5efd"/><g id="ae44a852-82de-4514-975a-841104915d25" data-name="Grupo 8"><path id="f8dedb29-ee68-4684-9923-dbbcc85e7010" data-name="Trazado 15" d="M356,463.16a1.39,1.39,0,0,0,.24-2.75c-16.9-3-21.95-21.43-22-21.62a1.39,1.39,0,0,0-1.72-.94,1.38,1.38,0,0,0-1,1.64h0c.22.83,5.52,20.3,24.19,23.65Z" fill="#542bd8"/></g><g id="bcfb2f79-bb48-4794-9161-b6c460bd4033" data-name="Grupo 9"><path id="ad40c693-00fc-4d5c-a692-460dcca8236c" data-name="Trazado 16" d="M317.55,582.31c19.14,0,37.21-10,49.55-19a159.83,159.83,0,0,0,25-22.63,1.38,1.38,0,0,0-2.09-1.81h0l0,0a156.58,156.58,0,0,1-24.58,22.21c-13.42,9.73-33.78,20.75-54.54,18a1.38,1.38,0,0,0-.43,2.73h.06A53.36,53.36,0,0,0,317.55,582.31Z" fill="#542bd8"/></g><g id="a931e64e-bf49-4bd9-a210-1b1f24102b7e" data-name="Grupo 10"><path id="fcd6236b-82fd-43d3-b941-ad4560637e43" data-name="Trazado 17" d="M331.15,593.41c24.63,0,42.5-15.39,43.27-16a1.39,1.39,0,0,0-1.83-2.09c-.18.16-17.88,15.37-41.46,15.37h-1a1.4,1.4,0,0,0-1.43,1.34A1.37,1.37,0,0,0,330,593.4h1.15Z" fill="#542bd8"/></g></g><g id="ed425272-d5a8-4ad4-9ee7-b130b0b87f43" data-name="Grupo 26"><path id="bc72b8d0-cee5-4e0e-b8d3-948f904402d9" data-name="Trazado 36" d="M461.17,560.84s24.8-.83,36.52,5.47,26.58,10.76,25.46,15.49S506,580.24,506,580.24s-1.77,8.47-12.64,14.21-39.64-9.09-39.64-9.09Z" fill="#f7ad89"/><g id="fae58ca9-b642-4da0-8612-bb0fca03d91e" data-name="Grupo 25"><path id="f70bf1d6-409c-4adf-a69c-9d4c37d6947f" data-name="Trazado 37" d="M285.29,445.49C302.8,463,351.54,525,364.75,530.8c17.2,7.53,69.54,25,96.13,30.1,4.79.93-5.21,24.68-5.21,24.68S381,579.42,351.8,568.2c-8.26-3.17-36.74-24.94-63-48.54-8.11-7.3-26.17-20.63-25.93-34.67C263.26,463.16,274.66,450.46,285.29,445.49Z" fill="#542bd8"/></g></g><g id="ad955012-c658-4d4c-8e72-0730d2c0fe23" data-name="Grupo 553"><g id="b60e44e1-a95e-49c3-8a9d-58be364ff071" data-name="Grupo 475"><path id="a26c544c-1a74-472e-9691-8edfd77d16cb" data-name="Trazado 1042" d="M344,432.63c-3.45,10.61,23.15,19.25,26.6,8.64l7.19-22.13-26.6-8.64Z" fill="#f7ad89"/><g id="ee46e23a-d1b4-4436-9bb7-051c10e20183" data-name="Grupo 474" opacity="0.5"><path id="a35cfb34-eb5a-47cd-9904-cd024eaba87f" data-name="Trazado 1043" d="M344,432.63l7.19-22.13,26.6,8.64-4.09,12.58A38.46,38.46,0,0,0,345.39,439,6.72,6.72,0,0,1,344,432.63Z" fill="#ffbe92"/></g></g><g id="ebfa5b1f-7703-4c25-a61b-0739cdcc194b" data-name="Grupo 481"><g id="e03a6457-2295-42f6-8031-ea3416307834" data-name="Grupo 476"><path id="e5edfc65-2544-4e6e-bf78-e92e2270930b" data-name="Trazado 1044" d="M433,359.13c4.06-.5,8.84-1.54,12.23,1.89,4.5,4.56-.49,11.5-3,15.54-4,6.38-11.58,13.75-17.94,9.16Z" fill="#ffbe92"/><path id="bfdab10b-86bf-4287-beeb-d761b1303152" data-name="Trazado 1045" d="M436.75,363.62a12.42,12.42,0,0,1,3.85.15,2.74,2.74,0,0,1,1.3.77c1.89,1.88-1.39,6.52-3.15,9l-.57.82c-2.6,3.73-5.68,6.29-8,7.24A61.82,61.82,0,0,1,436.75,363.62Z" fill="#f2a46e"/></g><path id="aba7e712-d6cb-4fdb-8608-16dc702aefa4" data-name="Trazado 1046" d="M322.76,345.22c-4.88,30.68.66,77.41,36.86,86.29,1.71.41,3.37.8,5,1.1,6.22,1.23,12,1.51,18.5-.61,7.48-2.46,14.12-7,19.87-12.35a109,109,0,0,0,29.07-45.91A119.18,119.18,0,0,0,437.83,352a80,80,0,0,0,1-8.32c.7-10.53-.64-20.33-4.47-28.75-5.57-12.38-16.5-21.82-33.94-26.38-25.44-6.63-45.37-.13-58.89,14.51C331.84,313.55,325.45,328.23,322.76,345.22Z" fill="#f7ad89"/><g id="ad747810-c564-4d18-a4ca-af2e75bc3fb3" data-name="Grupo 477" opacity="0.5"><path id="a3238d6f-cc7e-4312-9f8a-db0b58e20f99" data-name="Trazado 1047" d="M322.76,345.22c-4.88,30.68.66,77.41,36.86,86.29,1.71.41,3.37.8,5,1.1-29.87-14.7-34.58-40.23-35.3-64.68-1.71-56.07,37.82-39.8,47.14-37.91,12.28,2.49,22.91,3.12,34.33-2.24,3.27-1.54,7.66-3.19,10.56-5.37.07,8.22,5.31,15.4,11.92,20-2.86-6-.45-16.37-6.07-20.66-7.82-6-22.1-7.58-31.6-8.56a246.66,246.66,0,0,1-40.9-8,52.21,52.21,0,0,0-13.19-2.12C331.83,313.55,325.45,328.22,322.76,345.22Z" fill="#ffbe92"/></g><g id="a177f707-28e7-4df2-8ec6-bce581b7f7a7" data-name="Grupo 479"><path id="ef404249-41a6-44ee-acb1-478987e500d7" data-name="Trazado 1048" d="M331.81,330.57c-3.3-2.42-7-5.67-11.6-4.32-6.16,1.79-5.19,10.28-4.95,15,.38,7.53,3.4,17.65,11.19,16.76Z" fill="#ffbe92"/><g id="eb7df576-8044-4e65-b7ae-96d0294e2ff2" data-name="Grupo 478" opacity="0.5"><path id="a403a356-ef8d-461e-b00a-0821cc70b3c7" data-name="Trazado 1049" d="M331.81,330.57c-3.3-2.43-7-5.67-11.6-4.32-6.16,1.79-5.19,10.28-4.95,15,.38,7.53,3.4,17.65,11.19,16.76Z" fill="#ffbe92"/></g><path id="b727e39f-7981-4c5e-ac73-500c1ab4cff9" data-name="Trazado 1050" d="M446.38,345c-.07.11-.14.22-.2.33-2.24,3.62-4.49,7.22-6.84,10.88-1.63,2.53-4.59,8.16-4.59,8.16s-4.54,17.3-7.56,17.45c-.06-2.29,7.33-27.6,7.14-29a45.32,45.32,0,0,0-1.8-8.78c-2-5.55-6.4-9.23-7.79-15.25-.6-2.62-1.5-8.94-1.5-8.94s-16,7.31-25.29,7.58a125.44,125.44,0,0,1-30.05-2.91c-7.5-1.73-15.52-5.13-23-2.05-12.84,5.27-13.6,17.36-17.78,28.79-.84,0-.59.07-1.28-.38-1.1-.7,1.74-8.79,2.16-10.09,1.66-5.32,3.19-15.12-5.69-14.64-2.84.15-2.32-12.68-2.08-13.7,1.6-7.17,2.61-14.06,5.46-20.92,8.23-19.78,27.5-35.2,49.48-37.61,22.44-2.46,50.24,7.5,61.35,28.34.73,1.37,1.17,4.62,2.19,5.57,1.26,1.17,5.08,1.2,6.83,2.07C454,294.09,456,306.6,456,315.21,456.08,325.08,451.55,336.5,446.38,345Z" fill="#2e3062"/><path id="b400d02f-b866-4480-989d-99df3d19ecc3" data-name="Trazado 1051" d="M326.31,332.64c-7.1-4.68-7.35.26-6.5,8.69.44,4.52,1.89,8.25,3.42,10.2A61.26,61.26,0,0,0,326.31,332.64Z" fill="#da8751"/></g><path id="a78fff13-dc69-4baf-a8da-7fb867cef72f" data-name="Trazado 1190" d="M416.47,414.2c-6.08,12.92-25.65,25.08-45,21.16a89.69,89.69,0,0,1-14.68-3.8c-28.37-10.07-37.57-35.67-38.45-45.95-.57-6.84,7.44-34.47,7.44-34.47l3-3.55c-1.87,10.85-2.87,27.45,3.11,34,3.59,3.92,6.73,4.42,9.79,6.14,8.16,4.59,7.47-9.15,26.23,0,6.74,3.28,18.6,4,26.17,7,6.5,2.53,8.79,7.37,13.52,8.2a13.48,13.48,0,0,0,1.9.22c8.07.52,10.1-5.87,15.86-18.17.32-.7,2.77-1.28,3.11-2,0,0-.2.72-.6,2A239.37,239.37,0,0,1,416.47,414.2Z" fill="#55578d"/><path id="fc5265b0-1f9c-40fe-81a3-27834aa8780f" data-name="Trazado 1052" d="M394.89,400.52l-42.26-12.07S366.25,430.87,394.89,400.52Z" fill="#fff"/><g id="e4023645-f47a-4f55-892a-092f76359789" data-name="Grupo 480"><path id="bc498293-10af-42fd-b522-9615093e670e" data-name="Trazado 1053" d="M399.92,369c-1,3.6.05,7.08,2.42,7.75s5.13-1.7,6.16-5.3-.05-7.09-2.43-7.76S400.94,365.4,399.92,369Z" fill="#2e3062"/><path id="aa6bfb9a-3a26-4509-a82a-0a01d1737cb0" data-name="Trazado 1054" d="M358.64,357.45c-1,3.61.06,7.08,2.43,7.76s5.13-1.7,6.16-5.31-.06-7.08-2.43-7.75S359.67,353.85,358.64,357.45Z" fill="#2e3062"/></g><path id="ad10375d-3164-40c9-afc5-1ad10420a2dd" data-name="Trazado 1055" d="M403.82,350.24s11.06.48,17,5.76l.8-1.83s-9.36-7.8-19.18-8.41Z" fill="#2e3062"/><path id="a948c3db-b3eb-4e0c-a641-1e72eafcb981" data-name="Trazado 1056" d="M374.45,344.06s-10.23-4.25-17.84-2l.05-2s11.79-3.1,21,.5Z" fill="#2e3062"/></g></g></g><g id="f0746edd-8f99-43c7-ba7d-6b9e049f2c1f" data-name="Grupo 28"><rect id="faed1bf1-2183-48ab-a074-892e7c4f70b4" data-name="Rectángulo 1" x="384.97" y="578.46" width="199.45" height="24.01" rx="2.79" fill="#001030"/><path id="b27051b7-f989-4ad4-b626-2260bb7aaf16" data-name="Trazado 38" d="M584.37,602.47l37.49-127.83c2.11-7.17-3.83-14.22-12-14.22H527.37c-5.56,0-10.45,3.37-12,8.25l-41.29,133.8Z" fill="#2e3062"/><path id="e7fac0d2-4320-42ed-9935-5a9dc068373b" data-name="Trazado 39" d="M515.41,468.68l-40.94,132.7h-9.42L506,468.68c1.52-4.89,6.4-8.26,12-8.26h9.42C521.8,460.42,516.93,463.79,515.41,468.68Z" fill="#001030"/><path id="a0c5d3a5-d2bb-446f-a34d-46a83ab8a4c5" data-name="Trazado 40" d="M536.62,536.11c-2.11,9.06,3.68,16.37,12.94,16.34S568,545.05,570.15,536s-3.68-16.37-12.94-16.34S538.73,527.06,536.62,536.11Z" fill="#524e82"/></g><g id="e3ff016a-18a5-49ca-8be1-fe1c45134e56" data-name="Grupo 592"><path id="ba1f2806-8fb1-4860-bc1e-7ac162cec2cb" data-name="Trazado 1200" d="M309,310.39a9.29,9.29,0,0,0-11.34,6.66h0l-6.77,26.14a9.32,9.32,0,0,0,6.68,11.34l2.48.64L311.48,311Z" fill="#1f234f"/><g id="bcfaedb8-4707-4bd0-9db5-05918a86380b" data-name="Grupo 591"><path id="b42e402e-9b3c-4af9-a110-0101d249c6b5" data-name="Trazado 1201" d="M462.53,341.82l-12.88-4a5.93,5.93,0,0,0-7.44,3.86v0L426,393.16a5.94,5.94,0,0,0,3.88,7.44l12.88,4a5.91,5.91,0,0,0,7.43-3.86v0l16.18-51.5A5.94,5.94,0,0,0,462.53,341.82Z" fill="#1f234f"/><path id="a4c5936a-63a9-4063-82b9-0e84cde8abd6" data-name="Trazado 1202" d="M466.77,353.64l-2.44-.77-13.67,43.51,2.44.77a9.31,9.31,0,0,0,11.67-6.08h0l8.09-25.75A9.31,9.31,0,0,0,466.77,353.64Z" fill="#1f234f"/></g><path id="aed2f6b0-ebbf-4597-80b4-a77be5c36c21" data-name="Trazado 1203" d="M448.7,283.92A73.4,73.4,0,0,0,321,296.31l11.61,3a61.55,61.55,0,0,1,117.28,30.36l11.49,3A73.43,73.43,0,0,0,448.7,283.92Z" fill="#1f234f"/><path id="aac8f720-7f13-4f84-8967-090111cbf8b4" data-name="Trazado 1204" d="M321.7,295s-5.7,9.77-5.7,12.21l14.65,4.07s2.45-10.58,2.45-13Z" fill="#1f234f"/><path id="f37a082c-4091-4eba-9b02-159cd153a334" data-name="Trazado 1205" d="M450,328s-2.93,11.74-2.93,14.18l14.65,2.45s-.14-12.18-.14-14.62Z" fill="#1f234f"/><path id="b0233b65-0d4c-4d8e-b723-0def1a621b40" data-name="Trazado 1206" d="M385.79,429.11a9.25,9.25,0,0,0-5.69-4.28l-32.66-8.46a9.31,9.31,0,0,0-10,3.81l-.32.48-.55-.14L322.88,417a24.46,24.46,0,0,1-17.53-29.77l4.23-16.34.2-.78.79.2,3.27.84a5.92,5.92,0,0,0,7.23-4.24h0l13.53-52.27a5.92,5.92,0,0,0-4.25-7.23h0L317.28,304a5.92,5.92,0,0,0-7.23,4.24v0l-13.53,52.26a5.94,5.94,0,0,0,4.25,7.23l3.27.85.79.2-.2.78-4.23,16.33a29.59,29.59,0,0,0,21.2,36l13.65,3.54.56.14.05.57a9.33,9.33,0,0,0,6.92,8.2l32.66,8.46a9.3,9.3,0,0,0,11.34-6.66v0A9.26,9.26,0,0,0,385.79,429.11Z" fill="#1f234f"/></g></g><g id="b30cdab4-5851-4c63-bb68-99636b6b8fe8" data-name="movil"><rect id="a5ff6505-9eba-479a-b049-8a5b106c6f1c" data-name="Rectángulo 4" x="124.59" y="177.91" width="105.64" height="201.65" rx="2.69" transform="translate(-26.47 18.73) rotate(-5.63)" fill="#524e82"/><g id="ad8d520b-cac8-4747-b6a0-016ead2bf0e3" data-name="Grupo 35"><g id="bc257ab3-ae0b-4603-ad6a-1494169913fe" data-name="Grupo 34"><g id="ef2fa992-9a73-4741-b450-16bb269bddb0" data-name="Grupo 33"><path id="a81c35fd-1e1a-47aa-915e-46f409f95b86" data-name="Trazado 45" d="M194.92,175.68l-3.16,4.25a4.87,4.87,0,0,0-.9,3.39,4.45,4.45,0,0,1-3.73,5l-33.73,3.32a4.44,4.44,0,0,1-4.64-4.2,4.92,4.92,0,0,0-1.55-3.15l-3.93-3.55Z" fill="#2e3062"/><ellipse id="e49dd7eb-7254-4b25-9977-7ea9965c23a5" data-name="Elipse 2" cx="183.53" cy="182.66" rx="1.75" ry="1.93" transform="matrix(1, -0.1, 0.1, 1, -17.02, 18.87)" fill="#524e82"/><path id="a2b1ee83-442d-475f-8ee8-6922c5b99498" data-name="Rectángulo 3" d="M153.26,183.71l25.17-2.48a.87.87,0,0,1,.91.82l.2,2a.87.87,0,0,1-.73,1l-25.17,2.48a.88.88,0,0,1-.91-.82l-.2-2A.87.87,0,0,1,153.26,183.71Z" fill="#524e82"/></g><path id="b278ba24-42b5-4d15-a2bf-f0726c7b01d2" data-name="Trazado 1207" d="M210.29,168.75l-85.64,8.44c-5.38.53-9.28,5.77-8.7,11.7h0l18.68,189.51c.58,5.94,5.42,10.32,10.81,9.79h0l85.64-8.43c5.39-.54,9.28-5.78,8.7-11.72L221.11,178.54C220.52,172.6,215.68,168.22,210.29,168.75ZM235,369.18a4.53,4.53,0,0,1-3.81,5.15h0l-86.83,8.56a4.56,4.56,0,0,1-4.77-4.3l-18.8-190.82a5.08,5.08,0,0,1,0-.78,4.74,4.74,0,0,1,2.2-3.83,4,4,0,0,1,.84-.38,4.59,4.59,0,0,1,.82-.17l86.81-8.55a4.55,4.55,0,0,1,4.76,4.31Z" fill="#2e3062"/></g></g><g id="eb668613-c5b1-4dad-8e35-c6a44af4fff1" data-name="Grupo 68"><circle id="b201fd97-6ac4-4bfd-a964-dd7d01b782c1" data-name="Elipse 4" cx="168.26" cy="344.49" r="9.47" fill="#f43853"/><path id="b4b8cbff-9a8d-4a8a-8f92-737eae5864ba" data-name="Trazado 78" d="M168.22,344.1s-1.68.07-1.85.52c-.25.65.23,2-1.78,2.08s-1.51-1.67-1.33-2.18.48-1.44,4.82-1.86,4.82.42,5.1.88,1.1,2.08-.89,2.4-1.77-1.1-2.15-1.69C169.89,343.85,168.22,344.1,168.22,344.1Z" fill="#fff"/><circle id="fee8a62c-9d3b-4bc6-bdc3-c76ddc452752" data-name="Elipse 4-2" cx="200.17" cy="341.35" r="9.47" fill="#00bd00"/><path id="ad7339e0-7bfd-4974-9ceb-7326bf98a0bb" data-name="Trazado 78-2" d="M199.9,341.63s1.17,1.22,1.62,1.05c.65-.24,1.34-1.5,2.73-.05s-.24,2.24-.74,2.44-1.4.59-4.59-2.37-2.89-3.88-2.72-4.4.82-2.21,2.38-.93.35,2.06.15,2.73C198.6,340.56,199.9,341.63,199.9,341.63Z" fill="#fff"/></g><g id="bcdcabc4-82c0-402e-b86f-4c2462160746" data-name="Grupo 594"><g clip-path="url(#f98d685a-f072-477b-8c00-f3a657eff192)"><g id="f46d853f-8a82-414b-9c19-a77c9808d1d5" data-name="Grupo 593"><rect id="f41fc266-d261-4ada-9edc-bdf96a7ea101" data-name="Rectángulo 98" x="139.65" y="209.64" width="74.12" height="77.84" transform="translate(-23.51 18.52) rotate(-5.63)" fill="#fff"/><g id="fa0a00cd-182f-4b24-80db-417a3535e840" data-name="Grupo 66"><g id="b3a60f11-c9f7-4c90-a740-c5dbd25808ff" data-name="Grupo 65"><g id="b1451c86-9e2f-4332-af71-47456c8eba1b" data-name="Grupo 54"><g id="b00aef3d-e9bf-4565-a169-9a5eaee5bf48" data-name="Grupo 51"><g id="fd060a72-9bba-49c5-ab3a-4bd02a439f59" data-name="Grupo 50"><g id="f1acbe50-8c44-4f2d-beed-5bdb8f70c865" data-name="Grupo 49"><path id="fa4a47bf-e3b6-4a0e-bdbd-e8d7510664cc" data-name="Trazado 54" d="M202.16,272.35l1.4,14.21a2.19,2.19,0,0,1-2,2.41h0l-44.41,4.38a2.21,2.21,0,0,1-2.41-2h0l-1.4-14.21c-.69-7,2.06-9.74,2.06-9.74a42.31,42.31,0,0,1,8.56-5.56s8.34-3.76,8.39-3.8l9-.25c1.14.52,7.28,1.72,11,3.11.57.21.9.33,1.23.47a13.52,13.52,0,0,1,5.55,3.82A19.55,19.55,0,0,1,202.16,272.35Z" fill="#ff495a"/></g></g></g><g id="e24bb49e-481b-45ef-8058-6e7bb191887b" data-name="Grupo 52"><path id="b6b1e348-a995-414b-83e8-bf40a17ce313" data-name="Trazado 55" d="M162.49,282.52,162,292.87l-.89.09.5-10.49a.45.45,0,0,1,.89,0S162.49,282.5,162.49,282.52Z" fill="#e21c47"/></g><g id="b6270b3e-e792-4e9b-90c7-48b25948a610" data-name="Grupo 53"><path id="b736003e-b2df-4753-b0df-daeab62c33ed" data-name="Trazado 56" d="M198.81,289.25l-.89.08-1.77-7.75a.44.44,0,0,1,.86-.2Z" fill="#e21c47"/></g><path id="bfb5f72b-3071-4602-a09c-670e4d1bdc55" data-name="Trazado 57" d="M184.12,273.8l9.41-.93s1.08,8.29-3.83,8.78C184.62,282.14,184.12,273.8,184.12,273.8Z" fill="#e21c47"/></g><g id="bb04b7e4-939d-461d-ae4e-c581bb43dcf8" data-name="Grupo 64"><path id="fd43d880-55a0-4b18-bb7a-dabaac6a1b2a" data-name="Trazado 58" d="M186,232.21s4.84-2.25,3.95-6.09c-.75-3.28-4.22-.77-4.15-3.39s.55-5-2.68-5.39c-2.82-.29-2.67,1.72-6.6-.83-4.63-3-7.15,5.28-11,5.9-5.62.91-6,4.37-6.29,7.13s2.76,5.68,2.76,5.68Z" fill="#2e3062"/><g id="a9a99052-87c0-401a-a232-1629a5f71c36" data-name="Grupo 57"><path id="b1f63dca-56cc-4f41-9d42-5039382e2f97" data-name="Trazado 59" d="M185.75,238s1.82-3,3.62-.84.25,9.22-3.74,7.93Z" fill="#fa8465"/><g id="b408a61f-20e4-4368-9543-8da744df90da" data-name="Grupo 55"><path id="b3629722-0183-44fa-8200-23880604ae22" data-name="Trazado 60" d="M186.26,242.87a.31.31,0,0,0,.28-.26,5,5,0,0,1,2.52-3.26.33.33,0,0,0,.14-.44.32.32,0,0,0-.43-.14h0a5.61,5.61,0,0,0-2.87,3.72.33.33,0,0,0,.27.38h.09Z" fill="#fa664d"/></g><g id="e04e0396-d2ea-4a8b-be34-915209d8f58c" data-name="Grupo 56"><path id="e2c17659-dc73-4754-bf5d-6eb99ee57237" data-name="Trazado 61" d="M188.36,241.59a.36.36,0,0,0,.17-.07.33.33,0,0,0,.06-.46h0a3,3,0,0,0-1.32-.86.33.33,0,0,0-.41.21.33.33,0,0,0,.21.41h0a2.36,2.36,0,0,1,1,.64A.31.31,0,0,0,188.36,241.59Z" fill="#fa664d"/></g></g><path id="e7c15576-7247-4be3-8a00-ad467ab970ca" data-name="Trazado 62" d="M171,252.37l.67,6.81s2.37,3.27,5.15,3.24,4.88-3.5,4.88-3.5l-.69-7.05Z" fill="#f7ad89"/><path id="abe33ff1-a323-4e62-bfc2-4ddcfbd16677" data-name="Trazado 63" d="M171,252.37l.3,3c2,1.86,5.37,2,10.14.85l-.43-4.38Z" fill="#fa8465"/><path id="b0b0c3bd-b2fa-4229-b77d-2e2e20a33ea3" data-name="Trazado 64" d="M186.76,235.74c.05.69.08,1.41.1,2.16,0,.27,0,.55,0,.82,0,1.13,0,2.3-.13,3.47v.11l0,.24c0,.16,0,.33-.05.5s-.06.52-.1.79c-.61,4.54-2.27,8.83-6.08,10.63-9.07,4.28-13.53-2.68-15.65-7.59-.14-.33-.28-.65-.4-1-.2-.53-.4-1.12-.6-1.76h0v0h0c-.41-1.38-.77-3-1.07-4.54-.27-1.37-.48-2.74-.67-4a7,7,0,0,1,0-2.23c0-.17.06-.34.11-.52a2.33,2.33,0,0,1,.07-.25c.05-.17.1-.34.16-.5s.13-.33.2-.49a4.16,4.16,0,0,1,.24-.47h0a5.79,5.79,0,0,1,.42-.67,7.12,7.12,0,0,1,1.26-1.37c.14-.11.28-.23.43-.33a6.85,6.85,0,0,1,.94-.56c4-2,10.08-3.86,16.34-1.08a7.11,7.11,0,0,1,3.23,2.86c.08.13.15.26.22.4a2.1,2.1,0,0,1,.13.26c.08.18.15.35.22.54a5.08,5.08,0,0,1,.17.51,7.15,7.15,0,0,1,.22,1.12C186.59,233.68,186.69,234.67,186.76,235.74Z" fill="#f7ad89"/><g id="b5af7e7a-b0a7-4ead-8d24-4275a9bbdd1c" data-name="Grupo 58"><path id="f35054a5-738c-44b4-b3fb-f7e36ad4abda" data-name="Trazado 65" d="M176.27,253.05a3.19,3.19,0,0,1-1.57-.35.33.33,0,0,1,.31-.58h0a2.73,2.73,0,0,0,1.22.28,2.89,2.89,0,0,0,1.24-.44.32.32,0,0,1,.45.11.32.32,0,0,1-.07.43A3.48,3.48,0,0,1,176.27,253.05Z" fill="#fa8465"/></g><path id="ef36cbcd-a574-43bd-96ce-2643e6b2574f" data-name="Trazado 66" d="M169.56,239.83c.07.73.5,1.28,1,1.24s.77-.68.7-1.4-.5-1.28-1-1.24S169.49,239.1,169.56,239.83Z" fill="#2e3062"/><path id="a58085ec-3a95-4fba-bbb6-bba7fbfa8216" data-name="Trazado 67" d="M179.72,238.83c.07.73.5,1.28,1,1.23s.77-.67.7-1.4-.5-1.27-1-1.23S179.65,238.1,179.72,238.83Z" fill="#2e3062"/><path id="e337d496-4f10-4c8e-a59c-63b822e91075" data-name="Trazado 68" d="M166.49,235.65s3.32-1.7,6.1-.81l-.12,1.5s-3.94.06-5.83,1A2.61,2.61,0,0,1,166.49,235.65Z" fill="#2e3062"/><path id="b16bcdf6-5693-4b3c-b706-005ffcd7a36a" data-name="Trazado 69" d="M182.93,234s-3.62-1-6.19.39l.42,1.47s3.9-.72,6-.12A2.62,2.62,0,0,0,182.93,234Z" fill="#2e3062"/><g id="bf774228-e618-43e5-bc2d-786471062ef1" data-name="Grupo 59"><path id="a86f0c66-7350-4f2f-b766-7cefbbba4ebc" data-name="Trazado 70" d="M175.47,245.19a3.46,3.46,0,0,1-1.2-.13.33.33,0,0,1-.22-.41.32.32,0,0,1,.41-.21,2,2,0,0,0,1.31,0,.39.39,0,0,0,.13-.32c-.15-1.65-.38-3.3-.69-4.93a.33.33,0,1,1,.64-.12h0a50.45,50.45,0,0,1,.7,5.06,1,1,0,0,1-.4.83A1.39,1.39,0,0,1,175.47,245.19Z" fill="#fa8465"/></g><path id="b3b76f0e-eb7e-4483-bd4f-7b10fb758482" data-name="Trazado 71" d="M179.77,247.25c-.12,1.26-.71,3.62-3.46,3.89s-3.74-1.73-4.14-3.14Z" fill="#fff9ff"/><path id="b201d7b4-4b8e-4ebe-9cb5-590ac7ba4f0f" data-name="Trazado 72" d="M186.76,235.74q.08,1,.09,2.16c0,.27,0,.54,0,.82,0,1.13,0,2.3-.13,3.47l-1.41-.14s.59-4.3.12-5.84-1.85-2.32-1.56-3.87-1.47-3-2.67-3.16-3.9,1.8-6.6.5-6.52-.57-8.11.95-.07,4-1.28,4.47,0,3.25.26,4.69.79,3.24.82,3.36l-1.62.2-.94-2.94c-.58-.19-.68-.66-1-.84-.27-1.37-.48-2.74-.67-4a7,7,0,0,1,0-2.23c0-.17.06-.34.11-.52a2.33,2.33,0,0,1,.07-.25,4.16,4.16,0,0,1,.16-.5c.06-.17.13-.33.2-.49a4.16,4.16,0,0,1,.24-.47h0a7.57,7.57,0,0,1,.42-.67,7.12,7.12,0,0,1,1.26-1.37c.14-.11.28-.23.43-.33a6.85,6.85,0,0,1,.94-.56c4-2,10.08-3.86,16.33-1.08a7.08,7.08,0,0,1,3.24,2.86c.08.13.16.26.23.4l.12.26a3.21,3.21,0,0,1,.22.54,3.05,3.05,0,0,1,.17.51,6.19,6.19,0,0,1,.23,1.12C186.6,233.68,186.69,234.67,186.76,235.74Z" fill="#2e3062"/><g id="a56d45ee-2fbf-469c-b249-4402bad5bae3" data-name="Grupo 63"><path id="b05b1b7b-6f6a-4278-b992-b1918e1eb9fd" data-name="Trazado 73" d="M164.3,241.12a2.84,2.84,0,0,0-1.58-2,1.66,1.66,0,0,0-2.25.65,1.47,1.47,0,0,0-.1.22c-1.34,2.47,1.55,9.1,5.21,7Z" fill="#f7ad89"/><g id="aed2d850-7337-491f-ba99-5eebc1513669" data-name="Grupo 60"><path id="ebde6ed9-a69e-4bbe-8a63-60a0c293d279" data-name="Trazado 74" d="M164.54,245a.32.32,0,0,1-.34-.2,5,5,0,0,0-3.1-2.7.34.34,0,0,1-.23-.4.32.32,0,0,1,.4-.23h0a5.58,5.58,0,0,1,3.54,3.09.33.33,0,0,1-.19.42h0Z" fill="#fa8465"/></g><g id="afbcbbb5-2ca4-4f2f-94e0-b7a9d87e9370" data-name="Grupo 62"><g id="e18760a0-477e-4590-9342-83c027ff9286" data-name="Grupo 61"><path id="bad8630b-72c8-454c-a40a-a99d574b04d7" data-name="Trazado 75" d="M162.22,244.16a.29.29,0,0,1-.18,0,.33.33,0,0,1-.14-.44h0a3,3,0,0,1,1.12-1.1.33.33,0,0,1,.45.1.32.32,0,0,1-.11.45l0,0a2.28,2.28,0,0,0-.86.83A.32.32,0,0,1,162.22,244.16Z" fill="#fa8465"/></g></g></g></g></g></g></g></g></g><g id="f51a9f23-76ab-4084-ac85-ff87429c2554" data-name="Grupo 595"><g id="a543292f-c95d-4bb0-b8a9-84827c726695" data-name="Trazado 1208"><path d="M148.34,289.24l1.43-.14.74,7.44c.29,2.95-1.08,4-3,4.19a4.82,4.82,0,0,1-1.56-.11l.1-1.19a3.64,3.64,0,0,0,1.23.1c1.28-.13,2-.78,1.77-3Z" fill="#fff"/><path d="M149.77,289.1l.73,7.44c.29,2.95-1.07,4-3,4.19l-.44,0a4.42,4.42,0,0,1-1.12-.13l.1-1.19a3.57,3.57,0,0,0,.88.11l.34,0c1.29-.12,2-.78,1.78-2.95l-.72-7.33Z" fill="#fff"/></g><g id="fdcbdea6-0e7e-4524-a706-057c79d5954b" data-name="Trazado 1209"><path d="M160,295.22a3.91,3.91,0,0,1-3.13,4.57l-.42.06a3.81,3.81,0,0,1-4.21-3.37c0-.12,0-.24,0-.36a3.91,3.91,0,0,1,3.13-4.57l.41-.06a3.8,3.8,0,0,1,4.23,3.33C160,295,160,295.08,160,295.22Zm-6.32.71c.17,1.74,1.31,3,2.72,2.82s2.3-1.54,2.12-3.34c-.13-1.35-1-3-2.69-2.83s-2.3,1.83-2.15,3.35Z" fill="#fff"/><path d="M156.23,291.47a3.8,3.8,0,0,1,3.8,3.75,3.92,3.92,0,0,1-3.55,4.63l-.43,0a3.82,3.82,0,0,1-3.81-3.75,3.93,3.93,0,0,1,3.54-4.63Zm0,7.29h.22c1.39-.13,2.3-1.54,2.12-3.34-.12-1.28-.9-2.84-2.45-2.84h-.24c-1.72.17-2.3,1.83-2.15,3.35S154.9,298.76,156.21,298.76Z" fill="#fff"/></g><g id="af8c97c7-a130-4feb-95ba-bf1b704be075" data-name="Trazado 1210"><path d="M161.92,297.63a3.87,3.87,0,0,0,2,.39c1.06-.1,1.5-.68,1.44-1.34s-.52-1-1.63-1.32c-1.49-.37-2.24-1.1-2.33-2.05a2.46,2.46,0,0,1,2.33-2.61h.19a4.07,4.07,0,0,1,2,.3l-.26,1.09a3.23,3.23,0,0,0-1.68-.3c-.85.09-1.28.63-1.22,1.22s.57.91,1.65,1.2c1.43.4,2.21,1,2.33,2.2.13,1.4-.86,2.5-2.75,2.69a4.63,4.63,0,0,1-2.3-.32Z" fill="#fff"/><path d="M163.44,299.12a4.26,4.26,0,0,1-1.77-.35l.25-1.14a3.9,3.9,0,0,0,1.69.4h.28c1.06-.1,1.5-.68,1.43-1.34s-.51-1-1.62-1.32c-1.49-.37-2.24-1.1-2.34-2.05a2.48,2.48,0,0,1,2.52-2.62l.43,0a3.93,3.93,0,0,1,1.59.32l-.26,1.1a3,3,0,0,0-1.37-.32H164c-.86.09-1.29.63-1.23,1.23s.57.9,1.65,1.2c1.44.39,2.22,1,2.33,2.2.14,1.4-.85,2.5-2.75,2.68A4.53,4.53,0,0,1,163.44,299.12Z" fill="#fff"/></g><g id="ba9fc59d-4e08-4450-a5a7-9133baa0904b" data-name="Trazado 1211"><path d="M169.24,294.64a2.56,2.56,0,0,0,2.6,2.54,2,2,0,0,0,.41,0,5.18,5.18,0,0,0,2.17-.63l.35,1a6.49,6.49,0,0,1-2.61.75,3.71,3.71,0,0,1-4.27-3.07,3.53,3.53,0,0,1,0-.56c-.24-2.41,1-4.45,3.32-4.68,2.6-.25,3.52,2,3.67,3.44a5.15,5.15,0,0,1,0,.68Zm4.15-1.45a2.08,2.08,0,0,0-2-2.17h-.27a2.41,2.41,0,0,0-2,2.58Zm-.31-6.7L171.3,289l-1,.1,1.22-2.5Z" fill="#fff"/><path d="M171.64,298.31a3.7,3.7,0,0,1-3.8-3.66c-.24-2.41,1-4.44,3.32-4.67a2.75,2.75,0,0,1,.4,0c2.3,0,3.13,2.06,3.27,3.45a4,4,0,0,1,0,.68l-5.6.56a2.53,2.53,0,0,0,2.64,2.51h.37a5.51,5.51,0,0,0,2.17-.63l.35,1a6.62,6.62,0,0,1-2.61.76Zm-.24-7.3-.26,0a2.42,2.42,0,0,0-2,2.57l4.24-.41A2.11,2.11,0,0,0,171.4,291Zm-1.14-1.86,1.22-2.5,1.6-.16-1.78,2.56Z" fill="#fff"/></g><g id="a8fe5288-bb0a-4242-b9fb-be543c6576af" data-name="Trazado 1212"><path d="M179.52,286.31a16.91,16.91,0,0,1,2.74-.49,4.53,4.53,0,0,1,3.21.62,3,3,0,0,1,1.2,2.23,3.3,3.3,0,0,1-.63,2.45,4.6,4.6,0,0,1-3.28,1.56,5,5,0,0,1-1.16,0l.44,4.45-1.43.14Zm2,5.21a4.82,4.82,0,0,0,1.2,0c1.73-.17,2.7-1.11,2.55-2.65S184,286.8,182.4,287a6.88,6.88,0,0,0-1.34.25Z" fill="#fff"/><path d="M183,285.78a4,4,0,0,1,2.42.66,3,3,0,0,1,1.21,2.22,3.25,3.25,0,0,1-.63,2.46,4.6,4.6,0,0,1-3.27,1.56c-.26,0-.5,0-.73,0a3.15,3.15,0,0,1-.44,0l.44,4.46-1.43.14-1.09-11a15.79,15.79,0,0,1,2.74-.49A7,7,0,0,1,183,285.78Zm-1,5.78a5.71,5.71,0,0,0,.68,0c1.73-.17,2.7-1.11,2.55-2.65a2.09,2.09,0,0,0-2.37-1.94l-.47,0a6.66,6.66,0,0,0-1.34.25l.43,4.32A2.68,2.68,0,0,0,182,291.56Z" fill="#fff"/></g><g id="ef2732c3-e816-4078-8082-9ccac4a3041a" data-name="Trazado 1213"><path d="M189.36,292.66a2.57,2.57,0,0,0,2.6,2.54,1.9,1.9,0,0,0,.41,0,5.18,5.18,0,0,0,2.17-.63l.35,1a6.49,6.49,0,0,1-2.61.75,3.72,3.72,0,0,1-4.27-3.08,3.41,3.41,0,0,1,0-.55c-.24-2.41,1-4.45,3.32-4.68,2.61-.25,3.52,2,3.67,3.44,0,.22,0,.45,0,.68Zm4.15-1.46a2.08,2.08,0,0,0-2-2.16h-.26a2.43,2.43,0,0,0-2,2.58Z" fill="#fff"/><path d="M191.77,296.33a3.7,3.7,0,0,1-3.81-3.66c-.24-2.41,1-4.45,3.32-4.68l.41,0c2.29,0,3.12,2.07,3.26,3.46a5.82,5.82,0,0,1,0,.68l-5.61.55a2.54,2.54,0,0,0,2.65,2.52l.36,0a5.15,5.15,0,0,0,2.17-.63l.35,1a6.48,6.48,0,0,1-2.61.75Zm-.25-7.3h-.25a2.43,2.43,0,0,0-2,2.58l4.24-.42A2.1,2.1,0,0,0,191.52,289Z" fill="#fff"/></g><g id="b13c6b74-1647-40e0-adcf-a950583109a7" data-name="Trazado 1214"><path d="M196.64,290.16c-.09-.94-.19-1.75-.31-2.48l1.27-.13.2,1.56h.07a2.4,2.4,0,0,1,2-2,1.48,1.48,0,0,1,.42,0l.14,1.37a2.09,2.09,0,0,0-.5,0,2.05,2.05,0,0,0-1.77,2.05c0,.23,0,.46,0,.68l.42,4.26-1.43.14Z" fill="#fff"/><path d="M200.09,287.13l.23,0,.14,1.37H200a2,2,0,0,0-1.76,2.06,3.08,3.08,0,0,0,0,.68l.42,4.25-1.44.14-.54-5.49c-.09-.94-.19-1.74-.31-2.48l1.27-.13.2,1.57h.07a2.41,2.41,0,0,1,2-2Z" fill="#fff"/></g><g id="a8eda390-5540-4223-a805-b21e395d90f4" data-name="Trazado 1215"><path d="M202.85,291.33a2.57,2.57,0,0,0,2.6,2.54,1.84,1.84,0,0,0,.41,0,5.18,5.18,0,0,0,2.17-.63l.35,1a6.44,6.44,0,0,1-2.61.75,3.71,3.71,0,0,1-4.27-3.08,3.41,3.41,0,0,1-.05-.55c-.23-2.41,1-4.45,3.32-4.68,2.61-.25,3.53,2,3.67,3.44a5.15,5.15,0,0,1,0,.68Zm4.15-1.46a2.07,2.07,0,0,0-2-2.16h-.26a2.41,2.41,0,0,0-2,2.58Z" fill="#fff"/><path d="M205.26,295a3.7,3.7,0,0,1-3.81-3.66c-.23-2.41,1-4.45,3.32-4.68l.41,0c2.3,0,3.13,2.07,3.26,3.46a5.87,5.87,0,0,1,0,.68l-5.61.55a2.54,2.54,0,0,0,2.65,2.52,2.17,2.17,0,0,0,.36,0,5.15,5.15,0,0,0,2.17-.63l.35,1a6.42,6.42,0,0,1-2.6.75Zm-.25-7.3h-.25a2.42,2.42,0,0,0-2,2.58l4.23-.41A2.1,2.1,0,0,0,205,287.7Z" fill="#fff"/></g><g id="b87a3f12-83e4-4e02-8e10-80e73cdf3be2" data-name="Trazado 1216"><path d="M209.68,293.57l3.15-5.05c.3-.47.6-.88.92-1.34v0l-4.32.42-.12-1.17,6.09-.6.07.91-3.1,5c-.29.47-.58.9-.9,1.35v0l4.67-.46.11,1.16-6.48.63Z" fill="#fff"/><path d="M209.77,294.42l-.08-.85,3.14-5.05.92-1.34v0l-4.32.42-.12-1.17,6.09-.6.07.91-3.11,5a15.23,15.23,0,0,1-.9,1.36v0l4.67-.46.11,1.16Z" fill="#fff"/></g></g><g id="ab390c77-283e-4769-bbb3-81bbb9d9b93c" data-name="Grupo 596"><path id="a596f5e2-70e5-4474-9569-f475f42c0881" data-name="Trazado 1217" d="M151.77,304.55l.73-.07.49,5,2.39-.24.06.61-3.12.31Z" fill="#fff"/><path id="bf9d49cf-18e1-47b0-81e7-7570dcee1ecd" data-name="Trazado 1218" d="M155.64,303.86l.73-.07.58,5.9-.73.07Z" fill="#fff"/><path id="b1ad6a06-75e9-4d3a-b802-0d6e32f2299f" data-name="Trazado 1219" d="M160.41,309.35l-.11-.5h0a1.51,1.51,0,0,1-1.17.72,1.15,1.15,0,0,1-1.33-.94s0-.06,0-.1c-.1-1,.72-1.58,2.27-1.73v-.08a.83.83,0,0,0-.81-.86.71.71,0,0,0-.2,0,2,2,0,0,0-1,.4l-.22-.47a2.52,2.52,0,0,1,1.29-.49c1.23-.12,1.61.69,1.69,1.5l.15,1.5a5.35,5.35,0,0,0,.16,1Zm-.31-2c-.8.06-1.7.29-1.62,1.07a.65.65,0,0,0,.66.64h.1a1,1,0,0,0,.91-.77.87.87,0,0,0,0-.23Z" fill="#fff"/><path id="bebfce86-6f9a-47f7-8e4a-038514b90a87" data-name="Trazado 1220" d="M161.89,306.24c0-.41-.08-.75-.14-1.08l.64-.07.1.65h0a1.4,1.4,0,0,1,1.19-.87,1.2,1.2,0,0,1,1.21.7h0a1.64,1.64,0,0,1,.4-.57,1.37,1.37,0,0,1,.86-.37c.53-.05,1.35.22,1.49,1.62l.24,2.36-.72.07-.22-2.27c-.08-.78-.4-1.21-1-1.16a1,1,0,0,0-.8.75,1.62,1.62,0,0,0,0,.38l.24,2.48-.71.07-.24-2.41c-.06-.64-.39-1.08-1-1a1.09,1.09,0,0,0-.85,1.18l.24,2.43-.72.07Z" fill="#fff"/><path id="a672acd4-7de1-4268-9017-1c084750fc81" data-name="Trazado 1221" d="M171.33,308.27l-.11-.5h0a1.5,1.5,0,0,1-1.17.72,1.15,1.15,0,0,1-1.33-.94.28.28,0,0,1,0-.09c-.1-1,.71-1.59,2.27-1.73v-.09a.84.84,0,0,0-.81-.86l-.2,0a2.11,2.11,0,0,0-1,.4l-.21-.46a2.52,2.52,0,0,1,1.29-.49c1.23-.12,1.61.69,1.69,1.49l.14,1.5a5.08,5.08,0,0,0,.17,1Zm-.31-2c-.8.06-1.69.29-1.61,1.08a.64.64,0,0,0,.66.63h.1a1,1,0,0,0,.9-.76.65.65,0,0,0,0-.24Z" fill="#fff"/><path id="b60c6a62-71da-4549-9f2f-75ddf1aa9eb7" data-name="Trazado 1222" d="M176,301.86l.48,4.86c0,.35.08.76.13,1l-.65.07-.1-.7h0a1.51,1.51,0,0,1-1.29.93,1.84,1.84,0,0,1-1.92-1.76v-.12a1.93,1.93,0,0,1,1.45-2.31l.14,0a1.34,1.34,0,0,1,1.27.49h0l-.24-2.4Zm-.39,3.58a1.59,1.59,0,0,0-.06-.3,1.09,1.09,0,0,0-1.14-.74c-.75.07-1.14.78-1,1.67s.55,1.45,1.33,1.37a1.1,1.1,0,0,0,1-1,1.71,1.71,0,0,0,0-.32Z" fill="#fff"/><path id="bcdfbbd6-b202-4d80-a9eb-a652057bc5ee" data-name="Trazado 1223" d="M180,307.42l-.11-.5h0a1.54,1.54,0,0,1-1.18.72,1.17,1.17,0,0,1-1.33-.94s0-.07,0-.1c-.1-1,.72-1.59,2.27-1.73v-.08a.82.82,0,0,0-.8-.86.65.65,0,0,0-.2,0,1.93,1.93,0,0,0-1,.4l-.21-.47a2.49,2.49,0,0,1,1.28-.49c1.23-.12,1.61.69,1.69,1.5l.15,1.5a6.08,6.08,0,0,0,.16.95Zm-.31-2c-.8.06-1.69.29-1.62,1.07a.66.66,0,0,0,.66.64h.1a1,1,0,0,0,.91-.77,1,1,0,0,0,0-.24Z" fill="#fff"/><path id="f85b5fe5-8819-447b-ad97-42679fe04b99" data-name="Trazado 1224" d="M186.22,304.15l-2.18.22.2,2,2.43-.24.06.6-3.15.31-.55-5.6,3-.3.06.61-2.3.23.17,1.77,2.18-.22Z" fill="#fff"/><path id="b9432a3c-a802-4b84-98fd-0cf149a86271" data-name="Trazado 1225" d="M187.35,303.73c0-.41-.08-.75-.14-1.08l.65-.06.1.66h0a1.47,1.47,0,0,1,1.25-.89c.56-.05,1.46.19,1.59,1.57l.24,2.4-.73.07-.23-2.31c-.06-.65-.36-1.17-1-1.1a1,1,0,0,0-.9.84,1,1,0,0,0,0,.35l.24,2.41-.73.08Z" fill="#fff"/><path id="a11c15a5-e375-4cda-9b05-e681cca13351" data-name="Trazado 1226" d="M192.58,301l.12,1.16,1-.1.06.56-1.05.1.22,2.16c0,.5.21.77.62.73a1.58,1.58,0,0,0,.42-.09l.09.54a1.79,1.79,0,0,1-.64.17,1,1,0,0,1-.82-.23,1.55,1.55,0,0,1-.39-1l-.21-2.19-.63.06,0-.56.62-.06-.1-1Z" fill="#fff"/><path id="ebab0e91-8744-426c-bc6b-b5c9be9188e3" data-name="Trazado 1227" d="M194.69,303.18c-.05-.47-.1-.88-.16-1.25l.64-.06.1.78h0a1.22,1.22,0,0,1,1-1,.74.74,0,0,1,.21,0l.07.69a1,1,0,0,0-.25,0,1,1,0,0,0-.89,1,1.93,1.93,0,0,0,0,.34l.21,2.14-.72.07Z" fill="#fff"/><path id="ed5b7a26-14e4-403f-a7c7-2e715300e46c" data-name="Trazado 1228" d="M199.86,305.46l-.11-.5h0a1.5,1.5,0,0,1-1.17.72,1.15,1.15,0,0,1-1.33-.94.28.28,0,0,1,0-.09c-.11-1,.71-1.59,2.26-1.74v-.08a.84.84,0,0,0-.81-.86l-.2,0a2.11,2.11,0,0,0-1,.4l-.21-.47a2.6,2.6,0,0,1,1.29-.48,1.44,1.44,0,0,1,1.69,1.49l.14,1.5a5.22,5.22,0,0,0,.17,1Zm-.31-2c-.8.06-1.69.29-1.61,1.07a.64.64,0,0,0,.66.64h.1a1,1,0,0,0,.9-.76.65.65,0,0,0,0-.24Z" fill="#fff"/><path id="ff9dbb5b-9dc3-4e1e-90eb-79ccdefae5d9" data-name="Trazado 1229" d="M201.35,302.36c0-.42-.09-.76-.14-1.09l.65-.06.1.66h0a1.47,1.47,0,0,1,1.25-.89c.56-.06,1.46.19,1.59,1.57l.24,2.4-.73.07-.23-2.32c-.07-.64-.36-1.16-1-1.1a1.07,1.07,0,0,0-.92,1.19l.24,2.42-.73.07Z" fill="#fff"/><path id="a75d0dba-61d9-47f7-84bc-b60991154aca" data-name="Trazado 1230" d="M206.58,299.57l.11,1.16,1.05-.1.06.56-1.05.1.21,2.16c0,.5.22.77.63.73a1.58,1.58,0,0,0,.42-.09l.08.54a1.74,1.74,0,0,1-.63.17,1,1,0,0,1-.82-.23,1.53,1.53,0,0,1-.39-1l-.21-2.19-.63.06,0-.56.62-.06-.09-1Z" fill="#fff"/><path id="e1641e15-e530-4fb7-9865-df8161d586f4" data-name="Trazado 1231" d="M209.13,302.65a1.29,1.29,0,0,0,1.31,1.28.75.75,0,0,0,.21,0,2.63,2.63,0,0,0,1.09-.31l.18.51a3.4,3.4,0,0,1-1.32.38,1.88,1.88,0,0,1-2.15-1.55,2.64,2.64,0,0,1,0-.28,2,2,0,0,1,1.51-2.33l.16,0a1.71,1.71,0,0,1,1.84,1.57.92.92,0,0,1,0,.16c0,.12,0,.23,0,.35Zm2.09-.73a1,1,0,0,0-1-1.09h-.13a1.22,1.22,0,0,0-1,1.3Z" fill="#fff"/></g><g id="a79b4236-9674-485c-9eeb-dfc8311da62e" data-name="Grupo 597"><path id="f6fd25a1-cc56-4cb8-97ac-66cd1a13bad5" data-name="Trazado 1232" d="M211.84,176.79l.49,4.44a.11.11,0,0,1-.1.13l-.47,0a.11.11,0,0,1-.13-.1l-.49-4.44a.13.13,0,0,1,.1-.13l.47-.05A.12.12,0,0,1,211.84,176.79Z" fill="#fff"/><path id="eae87420-0baf-4c10-8c95-213167f0770a" data-name="Trazado 1233" d="M210.78,177.86l.38,3.5a.11.11,0,0,1-.1.13l-.46,0a.11.11,0,0,1-.13-.1l-.39-3.5a.13.13,0,0,1,.1-.14l.47-.05A.13.13,0,0,1,210.78,177.86Z" fill="#fff"/><path id="ed39057f-4f76-4725-9a01-20024dc7ca24" data-name="Trazado 1234" d="M209.69,178.69l.31,2.8a.11.11,0,0,1-.1.13l-.46,0a.11.11,0,0,1-.13-.1l-.31-2.81a.11.11,0,0,1,.1-.12l.46-.06A.12.12,0,0,1,209.69,178.69Z" fill="#fff"/><path id="ba9e605e-3e23-4dcb-bd6b-75128fd5173e" data-name="Trazado 1235" d="M208.61,179.52l.23,2.1a.12.12,0,0,1-.1.13l-.46.05a.11.11,0,0,1-.13-.1l-.23-2.1a.11.11,0,0,1,.1-.13l.46-.05A.11.11,0,0,1,208.61,179.52Z" fill="#fff"/></g><g id="bcd5ca31-893c-48a8-a071-e82c1a20043d" data-name="Grupo 606"><g id="fc1af8d8-9266-47e6-a711-728b1ee663f7" data-name="Grupo 599"><g id="e9d6f3a5-b159-498f-a971-18b4aa2ffd53" data-name="Grupo 598"><path id="b35ca92a-022d-4ba0-941b-6096ce358610" data-name="Trazado 1236" d="M204.42,181.41a.49.49,0,0,0-.43.53.5.5,0,0,0,.53.43.49.49,0,0,0,.43-.53A.48.48,0,0,0,204.42,181.41Z" fill="#fff"/></g></g><g id="bcc69209-4d4f-43c5-a50c-3fbb8e7eec02" data-name="Grupo 601"><g id="a88512fe-c9df-469f-a366-6bb1fa5dd485" data-name="Grupo 600"><path id="b5687261-aada-44cc-8c03-0b5d21b58984" data-name="Trazado 1237" d="M205.53,180.64a1.67,1.67,0,0,0-2.34.23.32.32,0,0,0,.08.45.31.31,0,0,0,.42,0,1,1,0,0,1,1.42-.14.33.33,0,0,0,.53-.28.36.36,0,0,0-.11-.22Z" fill="#fff"/></g></g><g id="e2699326-3fed-4212-beae-fe05550f9de3" data-name="Grupo 603"><g id="b53f3c5e-9acd-49bb-a5d9-3c82b7fafd18" data-name="Grupo 602"><path id="e3ecc6c4-8882-483a-adcc-4421cf11ad3f" data-name="Trazado 1238" d="M206.88,179a3.79,3.79,0,0,0-5.34.53.33.33,0,0,0,0,.45.37.37,0,0,0,.24.08.3.3,0,0,0,.22-.12,3.15,3.15,0,0,1,4.43-.44.33.33,0,0,0,.46,0,.32.32,0,0,0,0-.46l0,0Z" fill="#fff"/></g></g><g id="e89b00b7-d7e1-4002-b9cd-9796d799264d" data-name="Grupo 605"><g id="ea5d96e5-62d5-4c33-aa58-4dbbe3c1f2f1" data-name="Grupo 604"><path id="ff69f83d-35e4-4324-a665-6dcce051318a" data-name="Trazado 1239" d="M206.19,179.84a2.71,2.71,0,0,0-3.8.38.31.31,0,0,0,0,.45h0a.32.32,0,0,0,.46,0,2,2,0,0,1,2.88-.29.33.33,0,0,0,.42-.5Z" fill="#fff"/></g></g></g><g id="fa33ae92-d32a-4d71-a987-fedd85468748" data-name="Grupo 607"><path id="a9702700-c20d-476e-a7f7-538fa836e886" data-name="Trazado 1240" d="M129.92,190.94a1.28,1.28,0,0,1,.73-1.33v0a1.15,1.15,0,0,1-.86-.91,1.28,1.28,0,0,1,1.15-1.39H131a1.17,1.17,0,0,1,1.44.83.3.3,0,0,1,0,.1,1.14,1.14,0,0,1-.6,1.15v0a1.26,1.26,0,0,1,1.07,1,1.39,1.39,0,0,1-1.28,1.51h-.07a1.35,1.35,0,0,1-1.66-.94S129.92,191,129.92,190.94Zm.43-2.38c.07.44.44.64,1,.71a.9.9,0,0,0,.57-.91.71.71,0,0,0-.76-.65l-.1,0a.73.73,0,0,0-.7.75.22.22,0,0,1,0,.08Zm2,2c-.08-.55-.49-.76-1.13-.85a1,1,0,0,0-.68,1,.84.84,0,0,0,.92.75l.1,0a.81.81,0,0,0,.79-.84v-.08Z" fill="#fff"/><path id="eace89e2-26fc-46e0-9e28-3ca752933612" data-name="Trazado 1241" d="M134.18,188.67a.43.43,0,0,1,.35-.48.41.41,0,0,1,.47.34v0a.43.43,0,0,1-.35.48.4.4,0,0,1-.47-.34Zm.34,2.44a.42.42,0,0,1,.33-.49.43.43,0,0,1,.49.33V191a.41.41,0,0,1-.33.49.43.43,0,0,1-.49-.33Z" fill="#fff"/><path id="e186c53f-48b2-48bf-b7a5-c30cb585576b" data-name="Trazado 1242" d="M137.15,187.1h0l-.73.53-.18-.44.91-.67.52-.07.62,4.5-.59.08Z" fill="#fff"/><path id="bc18016c-9c90-41fa-a975-93f81202c476" data-name="Trazado 1243" d="M141.79,186.41l-1.72.24v1.18a2.33,2.33,0,0,1,.36-.08,1.9,1.9,0,0,1,1,.11,1.3,1.3,0,0,1,.8,1.07,1.58,1.58,0,0,1-1.37,1.76h-.1a2.19,2.19,0,0,1-1.16-.13l.09-.48a2.14,2.14,0,0,0,1,.12,1,1,0,0,0,.94-1.06v-.07c-.09-.58-.53-.94-1.44-.82a4.47,4.47,0,0,0-.61.14v-2.2l2.16-.3Z" fill="#fff"/></g><g id="b9ac34c9-ffbf-4c07-b8fd-c02e17d2b766" data-name="Grupo 609"><g id="a5884f0a-077c-47a4-98b9-9ce179c250c5" data-name="Grupo 608"><path id="f5228ea5-b314-4c16-b6ea-64e9ccb7848a" data-name="Trazado 1244" d="M199.67,180.59h-.13l0-.14a.71.71,0,0,0-.76-.64h0l-4.71.5a.7.7,0,0,0-.62.78l.18,1.7a.7.7,0,0,0,.75.64h0l4.71-.5a.71.71,0,0,0,.61-.79V182l.14,0a.41.41,0,0,0,.37-.47l-.06-.56A.42.42,0,0,0,199.67,180.59Zm-3.31,2a.15.15,0,0,1-.11.08l-1.94.21a.14.14,0,0,1-.15-.13h0l-.18-1.7a.15.15,0,0,1,.13-.16l1.11-.12a.15.15,0,0,1,.13.07l1,1.61A.17.17,0,0,1,196.36,182.6Z" fill="#fff"/></g></g></g></svg>