<svg xmlns="http://www.w3.org/2000/svg" width="67.343" height="56.358" viewBox="0 0 67.343 56.358"><g transform="translate(-10.433 -88.249)"><path class="a" d="M43.128,88.876v11.418s-9.152-.666-13.294,0-3.551,3.681-3.54,4.257.188,2.806,1.778,3.576,9.467,2.447,12.363,3.913,9.644,7.05,9.4,15.113S43.709,142.3,34.5,144.146s-23.323-2.471-23.323-2.471l2.756-11.183s9.485,3.309,14.136,2.466,6.591-2.9,6.43-4.767-3.692-5.26-11.4-6.809-12.688-6.625-12.672-15.775,9.479-16.449,15.861-16.732S43.128,88.876,43.128,88.876Z"/><path class="a" d="M45.47,88.75v11.5s8.685-.238,10.686,0,5.12,3.705,4.653,7.453-2.676,6.145-4.653,6.643-7.638,0-7.638,0a21.133,21.133,0,0,1,3.3,4.967c.977,2.387,8.994,25.011,8.994,25.011H77.776s-6.142-17.221-8.386-19.6-3.155-3.272-2.085-3.8,8.993-4.224,9.007-13.224-5.56-17.829-15.5-18.958S45.47,88.75,45.47,88.75Z"/></g></svg>