<svg id="be0904eb-2fa2-4848-83d7-9420a6be9d31" data-name="Capa 1" xmlns="http://www.w3.org/2000/svg" viewBox="0 0 66.46 80.01"><path id="a8a9b8f2-dcf9-4b80-be26-862b42121f94" data-name="Trazado 1179" d="M24.63,43.45h0a2.9,2.9,0,0,1,2.91,2.9v.09a2.9,2.9,0,0,1-2.91,2.9h0a2.9,2.9,0,0,1-2.9-2.9v-.09a2.9,2.9,0,0,1,2.9-2.9Z" fill="#f2f4ff"/><path id="b4e7173a-2104-48d5-8eb4-518973b5f213" data-name="Trazado 1180" d="M49.53,45.75l-3.28-1.66a7.18,7.18,0,0,0-2.69-.65h-3a1.43,1.43,0,0,0-1.42,1.43v3.05a1.42,1.42,0,0,0,1.42,1.42h3A1.43,1.43,0,0,0,45,47.92v-.1a.79.79,0,0,1,.65-.92.8.8,0,0,1,.62.14l3.27,1.67a.8.8,0,0,0,1.27-.78v-.1A2.55,2.55,0,0,0,49.53,45.75Z" fill="#f2f4ff"/><path id="b4ec8143-fb9e-48d5-bc50-37d088873c84" data-name="Trazado 1181" d="M49,68.17a2.33,2.33,0,0,0-1.47.77c-.09.09-.59.57-1.37,1.22a28.5,28.5,0,0,1-2.76,2,25.18,25.18,0,0,1-3,1.62,17.87,17.87,0,0,1-3.15,1.11,18.71,18.71,0,0,1-3.31.53h-.2a25.49,25.49,0,0,1-3.27,0A24.17,24.17,0,0,1,27.08,75c-1-.21-1.73-.4-1.81-.42a2.81,2.81,0,0,0-1-.13,1.48,1.48,0,0,0-1.2.6,1.33,1.33,0,0,0-.21,1.14,3.78,3.78,0,0,0,2,2.06,18.76,18.76,0,0,0,2.2.83,21.17,21.17,0,0,0,3.7.78,20.84,20.84,0,0,0,2.5.15c.42,0,.85,0,1.27,0h.09a20.59,20.59,0,0,0,7.26-1.86,21.44,21.44,0,0,0,3.28-1.89A20.06,20.06,0,0,0,49.64,72a3.8,3.8,0,0,0,.81-2.79A1.35,1.35,0,0,0,49,68.17Z" fill="#f2f4ff"/><g id="ff79f8ba-84c2-495b-b99b-e10abc9ac703" data-name="Grupo 548"><path id="a0988cab-ad46-423d-a9ff-3dbb5753f0d5" data-name="Trazado 1182" d="M47.32,4.94a10.47,10.47,0,0,0-6.24-2.19H41c-.44,0-1.58,0-2.59-.08h-.13L37,2.64a2.8,2.8,0,0,1-2.13-1.35A3.75,3.75,0,0,0,33.53.17l-.19-.1V0H32.17V.07L32,.17a3.73,3.73,0,0,0-1.31,1.12A2.75,2.75,0,0,1,28.53,2.6c-.41,0-1.62,0-2,0-.59,0-1.26,0-2,.06h-.1a10.59,10.59,0,0,0-6.28,2.17s-3.57,3-3.36,5.31a1.78,1.78,0,0,0,1,1.42,1.52,1.52,0,0,0,.75.19c1.14,0,2-1.35,2.73-2.42a7.75,7.75,0,0,1,.71-1l0,0a7.5,7.5,0,0,1,5.45-1.72c.3,0,.87-.06,1.43-.1H27c.84-.06,1.79-.14,2.3-.15a5.45,5.45,0,0,0,2.26-1.08,2.24,2.24,0,0,1,1.15-.71h.07A2.18,2.18,0,0,1,34,5.29,5.67,5.67,0,0,0,36.21,6.4c.51,0,1.44.08,2.34.16h.07c.6.05,1.13.1,1.42.11a7.52,7.52,0,0,1,5.42,1.74l0,0a7.75,7.75,0,0,1,.72,1c.69,1.07,1.56,2.4,2.71,2.42a1.59,1.59,0,0,0,.74-.18,1.77,1.77,0,0,0,1-1.42C50.88,8.06,47.46,5.06,47.32,4.94Z" fill="#f2f4ff"/></g><path id="bfc14454-5753-4d09-838f-1c8cd083f927" data-name="Trazado 1183" d="M32.67,44.45c0-4-.78-6.77-2.33-8.24S23,34.15,23,34.15C22.26,34.07,21,34,20.2,34H17.47c-.62,0-1.76,0-2.55.06,0,0-10.5.5-12.27,1.64S0,39.73,0,44.45s.89,7.67,2.67,8.78,6.48,1.68,14.09,1.68q10.6,0,13.25-1.75C31.78,52,32.67,49.09,32.67,44.45Zm-4.48,6.42c-1,.92-5.31,1.26-5.31,1.26-.78.06-2.06.11-2.84.12H17.39c-.58,0-1.68,0-2.47,0,0,0-9.06-.28-10.18-.94s-1.69-2.94-1.69-6.84.56-6.17,1.69-6.83,5-1,11.61-1,10.46.34,11.58,1,1.69,2.94,1.69,6.83q0,5.07-1.43,6.44Z" fill="#f2f4ff"/><path id="fe0fdca6-f492-4e41-a007-6e76c3e9656e" data-name="Trazado 1184" d="M64.13,36.21c-1.55-1.47-7.3-2.06-7.3-2.06-.77-.08-2-.16-2.83-.17H51.27c-.63,0-1.77,0-2.55.06,0,0-10.51.5-12.28,1.64s-2.65,4.06-2.65,8.78.89,7.67,2.68,8.78S43,54.91,50.56,54.91q10.61,0,13.25-1.75c1.77-1.16,2.65-4.07,2.65-8.71C66.46,40.42,65.69,37.68,64.13,36.21ZM62,50.87c-1,.91-5.31,1.26-5.31,1.26-.78.06-2.06.11-2.84.12H51.19c-.57,0-1.68,0-2.46,0,0,0-9.06-.28-10.19-.94s-1.69-2.94-1.69-6.84.56-6.17,1.69-6.83,5-1,11.61-1,10.46.33,11.58,1,1.69,2.93,1.69,6.83Q63.42,49.5,62,50.87Z" fill="#f2f4ff"/></svg>