<svg xmlns="http://www.w3.org/2000/svg" xmlns:xlink="http://www.w3.org/1999/xlink" width="396.732" height="282.223" viewBox="0 0 396.732 282.223">
  <defs>
    <clipPath id="clip-path">
      <circle id="SVGID" cx="27.618" cy="27.618" r="27.618" fill="none"/>
    </clipPath>
  </defs>
  <g id="Grupo_718" data-name="Grupo 718" transform="translate(-190.072 -920.844)">
    <path id="Trazado_1341" data-name="Trazado 1341" d="M593.249,490.431a64.806,64.806,0,0,0-3.239-34.322,71.284,71.284,0,0,0-59.967-45.849,72.686,72.686,0,0,0-52.065,15.154c-13.858-34.841-48.827-58.8-88.2-58.8H389c-48.568.388-90.661,38.985-93.511,86.129a88.768,88.768,0,0,0,4.016,32.508c-32.12,7.642-55.173,35.358-55.173,68.384,0,38.078,24.608,78.746,93.509,78.746H561c43.776,0,73.177-40.668,73.178-78.615C634.176,526.7,617.986,502.087,593.249,490.431Z" transform="translate(-47.372 554.231)" fill="#97bff0"/>
    <g id="Grupo_30" data-name="Grupo 30" transform="translate(190.072 1186.432)">
      <path id="Rectángulo_2" data-name="Rectángulo 2" d="M262.607,923.86H652.123a3.756,3.756,0,0,1,3.607,3.888h0v8.858a3.756,3.756,0,0,1-3.607,3.888H262.607A3.755,3.755,0,0,1,259,936.606h0v-8.856a3.757,3.757,0,0,1,3.608-3.889h0Z" transform="translate(-258.998 -923.86)" fill="#3700b1"/>
      <path id="Trazado_41" data-name="Trazado 41" d="M655.728,931.887v.382H259v-.382c0-4.433,3.3-8.027,7.361-8.028h382C652.429,923.859,655.727,927.453,655.728,931.887Z" transform="translate(-258.996 -923.86)" fill="#542bd8"/>
    </g>
    <g id="Grupo_655" data-name="Grupo 655" transform="translate(433.904 943.381)">
      <g id="Grupo_654" data-name="Grupo 654" transform="translate(0 0)">
        <path id="Trazado_1350" data-name="Trazado 1350" d="M912.03,626.181l19.251,8.794c20.266,9.258,53.327-21.564,75.082-69.186s22.668-92.518,3.142-102.051l-19.252-8.794c-7.093-3.24-15.949.062-19.927,7.43l-12.961,28.371c-4.629,10.132,3,21.578,13.7,20.952,7.468-.262,14.648,5.467,14.911,12.935,2.089,16.875-10.684,43.495-24.069,52.689-6.092,3.953-14.848,3.015-19.539-2.8-6.53-8.494-20.177-6.768-24.807,3.364l-12.96,28.37C901.358,613.346,904.661,622.2,912.03,626.181Z" transform="translate(-903.355 -453.699)" fill="#00bd00" stroke="#6168ff" stroke-miterlimit="10" stroke-width="3"/>
      </g>
    </g>
    <g id="Grupo_69" data-name="Grupo 69" transform="translate(220.598 963.878) rotate(-19)">
      <rect id="Rectángulo_4" data-name="Rectángulo 4" width="184.612" height="96.713" rx="1.945" transform="translate(0 187.466) rotate(-83.771)" fill="#524e82"/>
      <g id="Grupo_35" data-name="Grupo 35" transform="translate(0.935 0)">
        <g id="Grupo_34" data-name="Grupo 34">
          <g id="Grupo_33" data-name="Grupo 33" transform="translate(44.989 6.76)">
            <path id="Trazado_45" data-name="Trazado 45" d="M836.855,426.292l-3.625,3.213a4.474,4.474,0,0,0-1.447,2.864,4.068,4.068,0,0,1-4.293,3.8l-30.833-3.366a4.068,4.068,0,0,1-3.373-4.64,4.479,4.479,0,0,0-.795-3.109l-2.846-3.918Z" transform="translate(-789.642 -421.139)" fill="#2e3062"/>
            <ellipse id="Elipse_2" data-name="Elipse 2" cx="1.766" cy="1.602" rx="1.766" ry="1.602" transform="translate(33.913 10.848) rotate(-83.771)" fill="#524e82"/>
            <path id="Rectángulo_3" data-name="Rectángulo 3" d="M797.81,425.513l23.012,2.512a.8.8,0,0,1,.659.907l-.2,1.859a.794.794,0,0,1-.839.743l-23.012-2.511a.8.8,0,0,1-.659-.907l.2-1.859A.8.8,0,0,1,797.81,425.513Z" transform="translate(-789.421 -421.004)" fill="#524e82"/>
          </g>
          <path id="Trazado_1351" data-name="Trazado 1351" d="M853.277,423.178l-78.3-8.547c-4.924-.54-9.4,3.421-9.994,8.848h0v.01h0L746.069,596.764c-.593,5.43,2.921,10.268,7.847,10.806h0l78.3,8.547c4.928.538,9.4-3.428,9.995-8.858l18.914-173.275C861.719,428.555,858.205,423.716,853.277,423.178ZM837.7,607.365a4.16,4.16,0,0,1-4.38,3.9h0l-79.4-8.666a4.166,4.166,0,0,1-3.463-4.752L769.5,423.377a4.48,4.48,0,0,1,.131-.7,4.324,4.324,0,0,1,2.69-3.018,3.6,3.6,0,0,1,.822-.183,3.765,3.765,0,0,1,.763,0l79.376,8.664a4.174,4.174,0,0,1,3.458,4.759Z" transform="translate(-746.004 -414.582)" fill="#2e3062"/>
        </g>
      </g>
      <g id="Grupo_68" data-name="Grupo 68" transform="translate(28.84 149.453)">
        <circle id="Elipse_4" data-name="Elipse 4" cx="8.671" cy="8.671" r="8.671" fill="#f43853"/>
        <path id="Trazado_78" data-name="Trazado 78" d="M781.668,567.658s-1.525-.253-1.759.11c-.348.539-.164,1.837-1.982,1.531s-1.043-1.781-.787-2.2.707-1.193,4.672-.76,4.237,1.282,4.4,1.75.6,2.072-1.242,1.979-1.382-1.32-1.6-1.921C783.211,567.742,781.668,567.658,781.668,567.658Z" transform="translate(-772.956 -559.341)" fill="#fff"/>
        <circle id="Elipse_4-2" data-name="Elipse 4" cx="8.671" cy="8.671" r="8.671" transform="translate(29.173 3.184)" fill="#00bd00"/>
        <path id="Trazado_78-2" data-name="Trazado 78" d="M809.583,571.387s.823,1.308,1.25,1.242c.634-.1,1.483-1.1,2.461.469s-.64,1.962-1.126,2.048-1.362.263-3.669-2.991-1.852-4.021-1.608-4.451,1.154-1.824,2.306-.385-.071,1.91-.373,2.476C808.621,570.178,809.583,571.387,809.583,571.387Z" transform="translate(-772.03 -559.327)" fill="#fff"/>
      </g>
      <g id="Grupo_657" data-name="Grupo 657" transform="translate(36.124 40.06)">
        <g id="Grupo_656" data-name="Grupo 656" clip-path="url(#clip-path)">
          <rect id="Rectángulo_104" data-name="Rectángulo 104" width="67.861" height="71.268" transform="translate(-2.857 -5.385) rotate(6.229)" fill="#fff"/>
          <g id="Grupo_66" data-name="Grupo 66" transform="translate(-0.722 3.948)">
            <g id="Grupo_65" data-name="Grupo 65">
              <g id="Grupo_54" data-name="Grupo 54" transform="translate(0 37.46)">
                <g id="Grupo_51" data-name="Grupo 51">
                  <g id="Grupo_50" data-name="Grupo 50">
                    <g id="Grupo_49" data-name="Grupo 49">
                      <path id="Trazado_54" data-name="Trazado 54" d="M825.481,512.006,824.063,525a2.015,2.015,0,0,1-2.218,1.791h0l-40.6-4.432a2.02,2.02,0,0,1-1.794-2.225h0l1.418-13c.7-6.423,3.675-8.339,3.675-8.339a38.706,38.706,0,0,1,8.717-3.361c.053-.019,8.177-1.805,8.232-1.833l8.129,1.47c.923.685,6.194,2.915,9.271,4.86.465.295.739.467,1.006.654a12.362,12.362,0,0,1,4.26,4.46A18.077,18.077,0,0,1,825.481,512.006Z" transform="translate(-779.436 -493.604)" fill="#ff495a"/>
                    </g>
                  </g>
                </g>
                <g id="Grupo_52" data-name="Grupo 52" transform="translate(5.399 19.518)">
                  <path id="Trazado_55" data-name="Trazado 55" d="M787.869,513.069l-2.389,9.185-.808-.089,2.418-9.3a.4.4,0,1,1,.794.146C787.879,513.032,787.875,513.05,787.869,513.069Z" transform="translate(-784.672 -512.536)" fill="#e21c47"/>
                </g>
                <g id="Grupo_53" data-name="Grupo 53" transform="translate(38.922 25.153)">
                  <path id="Trazado_56" data-name="Trazado 56" d="M818.13,525.758l-.808-.088-.133-7.276a.4.4,0,0,1,.806-.013Z" transform="translate(-817.189 -518.002)" fill="#e21c47"/>
                </g>
                <path id="Trazado_57" data-name="Trazado 57" d="M808.161,509.423l8.6.939s-.6,7.629-5.088,7.138C807.041,516.994,808.161,509.423,808.161,509.423Z" transform="translate(-778.55 -493.114)" fill="#e21c47"/>
              </g>
              <g id="Grupo_64" data-name="Grupo 64" transform="translate(13.986)">
                <path id="Trazado_58" data-name="Trazado 58" d="M818.112,474.138s4.755-1.1,4.686-4.712c-.058-3.073-3.637-1.476-3.082-3.813s1.446-4.421-1.384-5.328c-2.475-.8-2.72,1.038-5.755-1.992-3.587-3.579-7.4,3.385-10.932,3.221-5.208-.241-6.2,2.785-6.979,5.207s1.405,5.6,1.405,5.6Z" transform="translate(-792.955 -457.269)" fill="#2e3062"/>
                <g id="Grupo_57" data-name="Grupo 57" transform="translate(22.381 20.921)">
                  <path id="Trazado_59" data-name="Trazado 59" d="M816.15,478.631s2.2-2.354,3.4-.077-1.507,8.315-4.839,6.4Z" transform="translate(-814.711 -477.562)" fill="#fa8465"/>
                  <g id="Grupo_55" data-name="Grupo 55" transform="translate(0.71 2.33)">
                    <path id="Trazado_60" data-name="Trazado 60" d="M815.665,483.036a.3.3,0,0,0,.307-.184,4.6,4.6,0,0,1,2.863-2.443.3.3,0,0,0-.15-.577h0a5.129,5.129,0,0,0-3.265,2.8.3.3,0,0,0,.166.387h0A.285.285,0,0,0,815.665,483.036Z" transform="translate(-815.399 -479.822)" fill="#fa664d"/>
                  </g>
                  <g id="Grupo_56" data-name="Grupo 56" transform="translate(1.941 3.306)">
                    <path id="Trazado_61" data-name="Trazado 61" d="M817.756,482.255a.3.3,0,0,0,.3-.43h0a2.708,2.708,0,0,0-1.012-1.015.3.3,0,0,0-.3.513h0a2.151,2.151,0,0,1,.78.768A.3.3,0,0,0,817.756,482.255Z" transform="translate(-816.593 -480.768)" fill="#fa664d"/>
                  </g>
                </g>
                <path id="Trazado_62" data-name="Trazado 62" d="M800.687,488.415l-.679,6.226s1.51,3.373,4,3.863,5.036-2.213,5.036-2.213l.7-6.444Z" transform="translate(-792.785 -456.305)" fill="#f7ad89"/>
                <path id="Trazado_63" data-name="Trazado 63" d="M800.676,488.415l-.3,2.762c1.48,2.054,4.422,2.847,8.921,2.676l.437-4.007Z" transform="translate(-792.774 -456.305)" fill="#fa8465"/>
                <path id="Trazado_64" data-name="Trazado 64" d="M818.062,477.182c-.09.626-.195,1.277-.321,1.945-.044.245-.093.495-.144.743-.206,1.013-.46,2.054-.765,3.083l0,.015c0,.016-.011.041-.022.077l-.065.211c-.045.143-.091.29-.141.438-.071.226-.149.459-.232.695-1.4,3.949-3.7,7.48-7.455,8.374-8.927,2.127-11.615-4.945-12.585-9.735-.069-.326-.126-.643-.176-.945-.087-.513-.154-1.085-.2-1.688v0a.193.193,0,0,1,0-.024v-.006c-.106-1.319-.126-2.8-.1-4.272.022-1.279.082-2.547.149-3.68a6.5,6.5,0,0,1,.44-1.991c.059-.15.124-.3.195-.444.038-.074.073-.146.111-.218.076-.142.158-.281.242-.419s.178-.27.272-.4.2-.255.3-.376v0a6.691,6.691,0,0,1,.5-.522,6.6,6.6,0,0,1,1.388-.988c.143-.076.292-.148.444-.214a6.7,6.7,0,0,1,.948-.328c3.92-1.036,9.758-1.556,14.839,2.105a6.53,6.53,0,0,1,2.36,3.17c.047.132.087.266.126.4.023.086.044.171.063.257.04.174.073.347.1.524a4.742,4.742,0,0,1,.055.5,6.464,6.464,0,0,1-.01,1.039C818.3,475.3,818.2,476.206,818.062,477.182Z" transform="translate(-792.914 -457.006)" fill="#f7ad89"/>
                <g id="Grupo_58" data-name="Grupo 58" transform="translate(11.062 32.579)">
                  <path id="Trazado_65" data-name="Trazado 65" d="M805.165,490a3.021,3.021,0,0,1-1.34-.609.3.3,0,0,1,.385-.464h0a2.428,2.428,0,0,0,1.04.476,2.553,2.553,0,0,0,1.192-.159.3.3,0,0,1,.236.556A3.173,3.173,0,0,1,805.165,490Z" transform="translate(-803.731 -488.87)" fill="#fa8465"/>
                </g>
                <path id="Trazado_66" data-name="Trazado 66" d="M801.7,477.289c-.072.664.211,1.24.633,1.287s.824-.456.9-1.121-.212-1.24-.633-1.287S801.774,476.624,801.7,477.289Z" transform="translate(-792.733 -456.684)" fill="#2e3062"/>
                <path id="Trazado_67" data-name="Trazado 67" d="M810.715,478.272c-.073.665.211,1.241.633,1.288s.824-.456.9-1.121-.211-1.24-.633-1.287S810.787,477.607,810.715,478.272Z" transform="translate(-792.454 -456.653)" fill="#2e3062"/>
                <path id="Trazado_68" data-name="Trazado 68" d="M799.806,473.073s3.3-.9,5.616.414l-.391,1.327s-3.539-.691-5.419-.16A2.367,2.367,0,0,1,799.806,473.073Z" transform="translate(-792.799 -456.789)" fill="#2e3062"/>
                <path id="Trazado_69" data-name="Trazado 69" d="M814.544,474.692s-3.046-1.606-5.614-.814l.1,1.391s3.632.089,5.365,1.021A2.377,2.377,0,0,0,814.544,474.692Z" transform="translate(-792.509 -456.762)" fill="#2e3062"/>
                <g id="Grupo_59" data-name="Grupo 59" transform="translate(12.059 20.791)">
                  <path id="Trazado_70" data-name="Trazado 70" d="M805.893,483.159a3.173,3.173,0,0,1-1.045-.342.3.3,0,0,1,.283-.524,1.782,1.782,0,0,0,1.174.241.324.324,0,0,0,.177-.26,44.668,44.668,0,0,0,.314-4.548.3.3,0,0,1,.595.015,44.2,44.2,0,0,1-.329,4.658.908.908,0,0,1-.508.675A1.256,1.256,0,0,1,805.893,483.159Z" transform="translate(-804.699 -477.436)" fill="#fa8465"/>
                </g>
                <path id="Trazado_71" data-name="Trazado 71" d="M809.433,485.588a3.561,3.561,0,0,1-3.835,2.829c-2.521-.275-3.021-2.252-3.12-3.588Z" transform="translate(-792.708 -456.416)" fill="#fff9ff"/>
                <path id="Trazado_72" data-name="Trazado 72" d="M818.062,477.182c-.09.626-.195,1.277-.321,1.945-.044.245-.093.495-.145.743-.205,1.013-.459,2.054-.764,3.084l-1.235-.394s1.337-3.743,1.205-5.2-1.222-2.43-.675-3.764-.75-2.975-1.8-3.338-3.832.885-6-.8a7.4,7.4,0,0,0-7.44-.67c-1.711,1.057-.822,3.583-1.988,3.766s-.653,2.9-.653,4.247c0,1.3.1,3.056.106,3.164l-1.488-.128-.288-2.806c-.483-.277-.487-.716-.731-.939.021-1.279.082-2.546.149-3.681a6.506,6.506,0,0,1,.44-1.991c.059-.149.124-.3.195-.444.037-.074.073-.146.11-.219.077-.142.158-.281.243-.419s.177-.27.272-.4.2-.255.3-.376v0a6.5,6.5,0,0,1,1.889-1.509c.146-.075.293-.148.445-.215a6.7,6.7,0,0,1,.948-.328c3.921-1.036,9.758-1.556,14.839,2.105a6.528,6.528,0,0,1,2.362,3.17c.047.133.087.268.126.4.023.086.044.171.063.257.042.172.073.347.1.524a4.844,4.844,0,0,1,.055.5,6.419,6.419,0,0,1-.007,1.042C818.3,475.3,818.2,476.209,818.062,477.182Z" transform="translate(-792.914 -457.006)" fill="#2e3062"/>
                <g id="Grupo_63" data-name="Grupo 63" transform="translate(0 18.314)">
                  <path id="Trazado_73" data-name="Trazado 73" d="M797.015,477.49a2.585,2.585,0,0,0-1.035-2.084,1.515,1.515,0,0,0-2.274.332c-1.66,1.963-.323,8.445,3.343,7.3Z" transform="translate(-793.002 -475.033)" fill="#f7ad89"/>
                  <g id="Grupo_60" data-name="Grupo 60" transform="translate(0.803 2.17)">
                    <path id="Trazado_74" data-name="Trazado 74" d="M796.473,480.951a.3.3,0,0,1-.261-.246,4.6,4.6,0,0,0-2.268-3,.3.3,0,0,1,.27-.531,5.127,5.127,0,0,1,2.585,3.437.3.3,0,0,1-.245.342A.3.3,0,0,1,796.473,480.951Z" transform="translate(-793.781 -477.138)" fill="#fa8465"/>
                  </g>
                  <g id="Grupo_62" data-name="Grupo 62" transform="translate(1.316 3.517)">
                    <g id="Grupo_61" data-name="Grupo 61">
                      <path id="Trazado_75" data-name="Trazado 75" d="M794.543,479.717a.3.3,0,0,1-.2-.482h0a2.717,2.717,0,0,1,1.207-.774.3.3,0,1,1,.182.566,2.154,2.154,0,0,0-.928.583A.3.3,0,0,1,794.543,479.717Z" transform="translate(-794.278 -478.445)" fill="#fa8465"/>
                    </g>
                  </g>
                </g>
              </g>
            </g>
          </g>
        </g>
      </g>
      <g id="Grupo_658" data-name="Grupo 658" transform="translate(25.785 104.884)">
        <g id="Trazado_1352" data-name="Trazado 1352" transform="translate(-770.107 -516.317)" fill="#fff" stroke-miterlimit="10">
          <path d="M774.374,516.317l1.313.143-.742,6.8c-.3,2.7-1.713,3.385-3.462,3.193a4.253,4.253,0,0,1-1.375-.394l.312-1.049a3.146,3.146,0,0,0,1.079.316c1.176.129,1.928-.324,2.144-2.315Z" stroke="none"/>
          <path d="M 774.3740234375 516.3170166015625 L 775.6865234375 516.4600830078125 L 774.9444580078125 523.2603759765625 C 774.6795654296875 525.6832885742188 773.5106201171875 526.4832763671875 772.0090942382812 526.4832763671875 C 771.8374633789062 526.4832763671875 771.6615600585938 526.4728393554688 771.4820556640625 526.4531860351562 C 770.999755859375 526.4007568359375 770.42333984375 526.2316284179688 770.10693359375 526.0594482421875 L 770.4193115234375 525.010009765625 C 770.67919921875 525.14501953125 771.0616455078125 525.279052734375 771.498779296875 525.3264770507812 C 771.618896484375 525.339599609375 771.7347412109375 525.3467407226562 771.8458862304688 525.3467407226562 C 772.8231201171875 525.3467407226562 773.44873046875 524.79931640625 773.64306640625 523.0118408203125 L 774.3740234375 516.3170166015625 Z" stroke="none" fill="#fff"/>
        </g>
        <g id="Trazado_1353" data-name="Trazado 1353" transform="translate(-769.913 -516.215)" fill="#fff" stroke-miterlimit="10">
          <path d="M783.534,523.767a3.587,3.587,0,0,1-4.057,3.478,3.49,3.49,0,0,1-3.089-4.136,3.586,3.586,0,0,1,4.042-3.481A3.476,3.476,0,0,1,783.534,523.767Zm-5.8-.557c-.174,1.6.613,2.905,1.91,3.048,1.267.138,2.347-.949,2.526-2.594.135-1.236-.312-2.872-1.879-3.043S777.888,521.824,777.736,523.21Z" stroke="none"/>
          <path d="M 779.910888671875 527.2689208984375 C 779.7654418945312 527.2689208984375 779.620849609375 527.260986328125 779.4774169921875 527.2453002929688 C 777.5023193359375 527.0299682617188 776.13720703125 525.4164428710938 776.388916015625 523.1092529296875 C 776.6358032226562 520.8504028320312 778.1553955078125 519.6038208007812 779.9806518554688 519.6038208007812 C 780.1290283203125 519.6038208007812 780.2792358398438 519.612060546875 780.43115234375 519.628662109375 C 782.527099609375 519.8574829101562 783.77880859375 521.5359497070312 783.534423828125 523.7669067382812 C 783.2644653320312 526.2466430664062 781.5557250976562 527.2689208984375 779.910888671875 527.2689208984375 Z M 780.031982421875 520.6060180664062 C 778.6309204101562 520.6060180664062 777.8792114257812 521.9026489257812 777.736328125 523.2100830078125 C 777.56201171875 524.8092651367188 778.3497314453125 526.1153564453125 779.6466064453125 526.2576293945312 C 779.7191772460938 526.2655639648438 779.7911987304688 526.2694091796875 779.8623657226562 526.2694702148438 C 781.0345458984375 526.26953125 782.00341796875 525.214111328125 782.17236328125 523.6638793945312 C 782.3074951171875 522.427490234375 781.860107421875 520.79150390625 780.293212890625 520.6205444335938 C 780.2037963867188 520.6107788085938 780.1166381835938 520.6060180664062 780.031982421875 520.6060180664062 Z" stroke="none" fill="#fff"/>
        </g>
        <g id="Trazado_1354" data-name="Trazado 1354" transform="translate(-769.674 -516.191)" fill="#fff" stroke-miterlimit="10">
          <path d="M784.533,526.258a3.494,3.494,0,0,0,1.691.719c.966.106,1.471-.328,1.537-.931.069-.633-.27-1.021-1.211-1.49-1.261-.61-1.8-1.4-1.7-2.276a2.264,2.264,0,0,1,2.752-1.867,3.675,3.675,0,0,1,1.745.649l-.437.929a2.858,2.858,0,0,0-1.447-.585c-.784-.086-1.271.319-1.331.862-.065.6.342.923,1.252,1.389,1.215.62,1.793,1.325,1.674,2.41-.139,1.282-1.233,2.077-2.967,1.889a4.191,4.191,0,0,1-2-.722Z" stroke="none"/>
          <path d="M 786.5803833007812 527.9815673828125 C 786.4225463867188 527.9815673828125 786.258544921875 527.9725341796875 786.0880126953125 527.9539794921875 C 785.287841796875 527.8663330078125 784.5714111328125 527.590087890625 784.0909423828125 527.2323608398438 L 784.533203125 526.2579345703125 C 784.8970947265625 526.5569458007812 785.56103515625 526.9046020507812 786.22412109375 526.9766235351562 C 786.3223876953125 526.9874267578125 786.4159545898438 526.9926147460938 786.5047607421875 526.9926147460938 C 787.288330078125 526.9926147460938 787.7017822265625 526.58740234375 787.76123046875 526.045654296875 C 787.8302001953125 525.4126586914062 787.4910888671875 525.0249633789062 786.5498046875 524.5560302734375 C 785.2889404296875 523.9457397460938 784.749755859375 523.1538696289062 784.8455810546875 522.2797241210938 C 784.9624633789062 521.2037963867188 785.8558349609375 520.390869140625 787.2073364257812 520.390869140625 C 787.3335571289062 520.390869140625 787.4635009765625 520.39794921875 787.597412109375 520.4125366210938 C 788.33642578125 520.4939575195312 788.961181640625 520.7755126953125 789.342529296875 521.0611572265625 L 788.905517578125 521.9899291992188 C 788.638427734375 521.7774658203125 788.136474609375 521.478515625 787.4588623046875 521.4046020507812 C 787.387939453125 521.3968505859375 787.3194580078125 521.39306640625 787.2535400390625 521.39306640625 C 786.5899047851562 521.39306640625 786.1822509765625 521.7728881835938 786.1282958984375 522.2661743164062 C 786.063232421875 522.8703002929688 786.4705810546875 523.1888427734375 787.3807373046875 523.655029296875 C 788.5953369140625 524.2755126953125 789.173583984375 524.9796752929688 789.0548095703125 526.065185546875 C 788.929443359375 527.2208251953125 788.027587890625 527.9815673828125 786.5803833007812 527.9815673828125 Z" stroke="none" fill="#fff"/>
        </g>
        <g id="Trazado_1355" data-name="Trazado 1355" transform="translate(-769.486 -516.256)" fill="#fff" stroke-miterlimit="10">
          <path d="M791.46,525.025a2.352,2.352,0,0,0,2.227,2.806,4.818,4.818,0,0,0,2.061-.157l.123.974a5.933,5.933,0,0,1-2.477.188,3.409,3.409,0,0,1-3.187-4.071c.24-2.2,1.726-3.794,3.853-3.561,2.382.26,2.787,2.425,2.64,3.767a5.127,5.127,0,0,1-.113.612Zm3.994-.526a1.9,1.9,0,0,0-1.6-2.357,2.212,2.212,0,0,0-2.271,1.934Zm.981-6.057-2.074,1.956-.95-.1,1.562-2.011Z" stroke="none"/>
          <path d="M 794.227783203125 528.8836669921875 C 793.972412109375 528.8836669921875 793.6946411132812 528.86962890625 793.3943481445312 528.8368530273438 C 791.1469116210938 528.5914306640625 789.9666137695312 526.9677124023438 790.2068481445312 524.7655639648438 C 790.4312744140625 522.7080078125 791.7440795898438 521.1819458007812 793.651611328125 521.1819458007812 C 793.7847290039062 521.1819458007812 793.9205932617188 521.1893920898438 794.0593872070312 521.20458984375 C 796.4418334960938 521.4645385742188 796.8460083007812 523.6294555664062 796.6997680664062 524.9717407226562 C 796.6696166992188 525.2428588867188 796.6171264648438 525.4501953125 796.5872192382812 525.5841064453125 L 791.4602661132812 525.025390625 C 791.2942504882812 526.8221435546875 792.3593139648438 527.6862182617188 793.6871948242188 527.83154296875 C 793.9522094726562 527.8606567382812 794.1893920898438 527.8734741210938 794.40478515625 527.8734741210938 C 794.9609985351562 527.8734741210938 795.3726806640625 527.787841796875 795.7479858398438 527.6749877929688 L 795.8709106445312 528.6492919921875 C 795.5069580078125 528.7683715820312 794.9595947265625 528.8836669921875 794.227783203125 528.8836669921875 Z M 793.6244506835938 522.1303100585938 C 792.4262084960938 522.1303100585938 791.7732543945312 523.2207641601562 791.5789184570312 524.076904296875 L 795.4542846679688 524.4993896484375 C 795.5614624023438 523.6572265625 795.3428344726562 522.3057250976562 793.8499145507812 522.1427612304688 C 793.7727661132812 522.1343383789062 793.6975708007812 522.1303100585938 793.6244506835938 522.1303100585938 Z M 794.3615112304688 520.3985595703125 L 793.4110717773438 520.2943725585938 L 794.9728393554688 518.2828979492188 L 796.4356079101562 518.4427490234375 L 794.3615112304688 520.3985595703125 Z" stroke="none" fill="#fff"/>
        </g>
        <g id="Trazado_1356" data-name="Trazado 1356" transform="translate(-769.157 -516.22)" fill="#fff" stroke-miterlimit="10">
          <path d="M801.915,519.453a15.3,15.3,0,0,1,2.539.079,4.193,4.193,0,0,1,2.758,1.156,2.746,2.746,0,0,1,.657,2.223A3.005,3.005,0,0,1,806.848,525a4.237,4.237,0,0,1-3.228.777,4.572,4.572,0,0,1-1.045-.206l-.444,4.071-1.312-.143Zm.776,5.044a4.454,4.454,0,0,0,1.075.224c1.583.173,2.632-.491,2.785-1.893.146-1.342-.733-2.095-2.181-2.253a5.492,5.492,0,0,0-1.248-.029Z" stroke="none"/>
          <path d="M 802.684814453125 519.4312744140625 C 803.1893920898438 519.4312744140625 803.7769775390625 519.4578857421875 804.4541015625 519.5319213867188 C 805.7510986328125 519.673095703125 806.6685791015625 520.078369140625 807.2119140625 520.6876831054688 C 807.717041015625 521.2298583984375 807.968505859375 522.0062255859375 807.869384765625 522.9104614257812 C 807.7696533203125 523.829833984375 807.4189453125 524.5237426757812 806.847900390625 524.9959106445312 C 806.2112426757812 525.5416870117188 805.30419921875 525.8101196289062 804.2877807617188 525.8101196289062 C 804.0697021484375 525.8101196289062 803.8466186523438 525.7977905273438 803.6199951171875 525.7731323242188 C 803.2281494140625 525.72998046875 802.8685302734375 525.6753540039062 802.5745849609375 525.567138671875 L 802.1304931640625 529.6382446289062 L 800.8189697265625 529.494873046875 L 801.914794921875 519.4525756835938 C 802.1463012695312 519.4396362304688 802.402587890625 519.4312744140625 802.684814453125 519.4312744140625 Z M 804.2426147460938 524.7476196289062 C 805.5576171875 524.7476196289062 806.4141845703125 524.083984375 806.551025390625 522.8278198242188 C 806.6973876953125 521.4857177734375 805.8179931640625 520.7330322265625 804.3704833984375 520.5753173828125 C 804.0387573242188 520.5388793945312 803.7506103515625 520.5228881835938 803.5216064453125 520.5228881835938 C 803.355712890625 520.5228881835938 803.2208862304688 520.53125 803.1229248046875 520.5463256835938 L 802.691162109375 524.4970703125 C 802.9705810546875 524.603271484375 803.3282470703125 524.673095703125 803.7662353515625 524.7206420898438 C 803.930908203125 524.7386474609375 804.0899047851562 524.7476196289062 804.2426147460938 524.7476196289062 Z" stroke="none" fill="#fff"/>
        </g>
        <g id="Trazado_1357" data-name="Trazado 1357" transform="translate(-768.933 -516.109)" fill="#fff" stroke-miterlimit="10">
          <path d="M809.307,526.886a2.352,2.352,0,0,0,2.227,2.807,4.823,4.823,0,0,0,2.062-.157l.123.975a5.952,5.952,0,0,1-2.477.187,3.409,3.409,0,0,1-3.188-4.07c.24-2.2,1.727-3.794,3.853-3.562,2.383.26,2.788,2.425,2.64,3.767a4.851,4.851,0,0,1-.112.612Zm3.994-.525A1.9,1.9,0,0,0,811.7,524a2.212,2.212,0,0,0-2.271,1.934Z" stroke="none"/>
          <path d="M 812.0759887695312 530.7446899414062 C 811.8203125 530.7446899414062 811.542236328125 530.7306518554688 811.2415771484375 530.69775390625 C 808.994140625 530.4523315429688 807.8135986328125 528.82861328125 808.0537109375 526.6275634765625 C 808.2784423828125 524.5685424804688 809.5928955078125 523.0430908203125 811.5003662109375 523.0430908203125 C 811.6329956054688 523.0430908203125 811.768310546875 523.0504760742188 811.906494140625 523.0655517578125 C 814.2891845703125 523.3253784179688 814.6943359375 525.4904174804688 814.5467529296875 526.8327026367188 C 814.5179443359375 527.10400390625 814.46435546875 527.3110961914062 814.434326171875 527.4451904296875 L 809.3074951171875 526.8861083984375 C 809.1416015625 528.6831665039062 810.2076416015625 529.5481567382812 811.534423828125 529.692626953125 C 811.79931640625 529.7216796875 812.0364990234375 529.7344970703125 812.2520141601562 529.7344970703125 C 812.8086547851562 529.7344970703125 813.220947265625 529.6488647460938 813.5963134765625 529.535888671875 L 813.7188720703125 530.5111694335938 C 813.3554077148438 530.6295776367188 812.8076782226562 530.7446899414062 812.0759887695312 530.7446899414062 Z M 811.4717407226562 523.9913330078125 C 810.2734375 523.9913330078125 809.6201171875 525.0818481445312 809.4259033203125 525.93798828125 L 813.3013916015625 526.3606567382812 C 813.40869140625 525.518310546875 813.1900634765625 524.1665649414062 811.6971435546875 524.0037841796875 C 811.6199951171875 523.995361328125 811.5447998046875 523.9913330078125 811.4717407226562 523.9913330078125 Z" stroke="none" fill="#fff"/>
        </g>
        <g id="Trazado_1358" data-name="Trazado 1358" transform="translate(-768.701 -516.088)" fill="#fff" stroke-miterlimit="10">
          <path d="M816.068,526c.094-.86.16-1.6.188-2.283l1.162.127-.111,1.437.06.006a2.2,2.2,0,0,1,2.2-1.378,1.467,1.467,0,0,1,.372.087l-.137,1.251a2.029,2.029,0,0,0-.447-.094,1.872,1.872,0,0,0-1.965,1.509,3.729,3.729,0,0,0-.129.611l-.424,3.891-1.312-.143Z" stroke="none"/>
          <path d="M 816.2559814453125 523.7130126953125 L 817.4178466796875 523.83984375 L 817.3065185546875 525.2767333984375 L 817.3660888671875 525.2830810546875 C 817.7711181640625 524.4125366210938 818.53955078125 523.894287109375 819.3543090820312 523.8942260742188 C 819.4234008789062 523.8942260742188 819.4927368164062 523.89794921875 819.562255859375 523.905517578125 C 819.7127685546875 523.9222412109375 819.8167724609375 523.9490966796875 819.9344482421875 523.9923095703125 L 819.797119140625 525.242919921875 C 819.664306640625 525.1983642578125 819.5302734375 525.1685791015625 819.349853515625 525.1490478515625 C 819.283935546875 525.141845703125 819.2188720703125 525.1383056640625 819.1549682617188 525.1383056640625 C 818.3124389648438 525.1383056640625 817.6538696289062 525.7517700195312 817.3846435546875 526.6583251953125 C 817.3343505859375 526.8355712890625 817.28076171875 527.0438232421875 817.255859375 527.2696533203125 L 816.832275390625 531.1605224609375 L 815.5198974609375 531.017333984375 L 816.068359375 525.9964599609375 C 816.1622314453125 525.1365966796875 816.2281494140625 524.3963623046875 816.2559814453125 523.7130126953125 Z" stroke="none" fill="#fff"/>
        </g>
        <g id="Trazado_1359" data-name="Trazado 1359" transform="translate(-768.563 -516.068)" fill="#fff" stroke-miterlimit="10">
          <path d="M821.274,528.192A2.352,2.352,0,0,0,823.5,531a4.808,4.808,0,0,0,2.062-.157l.123.975a5.95,5.95,0,0,1-2.477.187,3.409,3.409,0,0,1-3.188-4.07c.24-2.2,1.727-3.794,3.853-3.562,2.382.26,2.788,2.425,2.641,3.767a5.073,5.073,0,0,1-.114.613Zm3.994-.526a1.9,1.9,0,0,0-1.6-2.357,2.21,2.21,0,0,0-2.27,1.934Z" stroke="none"/>
          <path d="M 824.0423583984375 532.050537109375 C 823.78662109375 532.050537109375 823.5084228515625 532.0364990234375 823.207763671875 532.003662109375 C 820.960205078125 531.7581787109375 819.7799072265625 530.134521484375 820.0198974609375 527.933349609375 C 820.2444458007812 525.875244140625 821.5588989257812 524.3490600585938 823.4669189453125 524.3490600585938 C 823.5994262695312 524.3490600585938 823.7347412109375 524.3563842773438 823.872802734375 524.3714599609375 C 826.2552490234375 524.63134765625 826.660400390625 526.7962646484375 826.513916015625 528.138671875 C 826.48388671875 528.40966796875 826.430419921875 528.6180419921875 826.400390625 528.7520751953125 L 821.2735595703125 528.192138671875 C 821.1077880859375 529.9892578125 822.173583984375 530.854248046875 823.50048828125 530.9986572265625 C 823.7661743164062 531.0277709960938 824.0039672851562 531.0406494140625 824.2199096679688 531.0406494140625 C 824.7756958007812 531.0406494140625 825.1874389648438 530.9553833007812 825.5623779296875 530.841796875 L 825.6849365234375 531.8170166015625 C 825.3214111328125 531.9356079101562 824.7738037109375 532.050537109375 824.0423583984375 532.050537109375 Z M 823.4375610351562 525.2973022460938 C 822.2395629882812 525.2973022460938 821.5864868164062 526.3878784179688 821.393310546875 527.243896484375 L 825.2674560546875 527.66650390625 C 825.374755859375 526.8240966796875 825.1561279296875 525.47265625 823.6632080078125 525.309814453125 C 823.5859375 525.3013916015625 823.5107421875 525.2973022460938 823.4375610351562 525.2973022460938 Z" stroke="none" fill="#fff"/>
        </g>
        <g id="Trazado_1360" data-name="Trazado 1360" transform="translate(-768.356 -516.049)" fill="#fff" stroke-miterlimit="10">
          <path d="M826.766,531.465l3.771-3.936c.359-.358.7-.672,1.074-1.028l0-.03-3.951-.432.117-1.07,5.564.607-.105.828-3.72,3.881c-.346.374-.688.7-1.06,1.044l0,.03,4.267.466-.115,1.056-5.926-.647Z" stroke="none"/>
          <path d="M 832.6078491210938 532.8814697265625 L 826.6819458007812 532.2340698242188 L 826.7662963867188 531.4649658203125 L 830.5374145507812 527.5287475585938 C 830.8964233398438 527.1710205078125 831.2356567382812 526.856689453125 831.6110229492188 526.5011596679688 L 831.6140747070312 526.4711303710938 L 827.6631469726562 526.0391235351562 L 827.7799682617188 524.968994140625 L 833.3438110351562 525.5761108398438 L 833.2385864257812 526.4041137695312 L 829.5189819335938 530.2854614257812 C 829.1725463867188 530.659912109375 828.8313598632812 530.9887084960938 828.4590454101562 531.3298950195312 L 828.4562377929688 531.3599243164062 L 832.7232055664062 531.825927734375 L 832.6078491210938 532.8814697265625 Z" stroke="none" fill="#fff"/>
        </g>
      </g>
      <g id="Grupo_659" data-name="Grupo 659" transform="translate(29.695 119.239)">
        <path id="Trazado_1361" data-name="Trazado 1361" d="M774.458,530.241l.661.072-.5,4.565,2.188.239-.06.554-2.849-.31Z" transform="translate(-773.9 -530.241)" fill="#fff"/>
        <path id="Trazado_1362" data-name="Trazado 1362" d="M777.942,530.353l.669.072-.589,5.393-.669-.072Z" transform="translate(-773.793 -530.238)" fill="#fff"/>
        <path id="Trazado_1363" data-name="Trazado 1363" d="M781.133,536.1l0-.469-.022,0a1.381,1.381,0,0,1-1.184.425,1.054,1.054,0,0,1-1.009-1.178c.1-.889.94-1.289,2.36-1.127l.008-.075a.763.763,0,0,0-.743-.942,1.841,1.841,0,0,0-.986.169l-.1-.456a2.284,2.284,0,0,1,1.242-.2,1.313,1.313,0,0,1,1.234,1.657l-.151,1.374a5.173,5.173,0,0,0-.035.888Zm.106-1.888c-.728-.094-1.57-.056-1.648.659a.6.6,0,0,0,.561.706.919.919,0,0,0,.956-.518.679.679,0,0,0,.062-.209Z" transform="translate(-773.745 -530.179)" fill="#fff"/>
        <path id="Trazado_1364" data-name="Trazado 1364" d="M782.933,533.59c.042-.379.068-.692.079-1l.584.064-.034.595.022,0a1.276,1.276,0,0,1,1.229-.55,1.091,1.091,0,0,1,.96.85l.016,0a1.522,1.522,0,0,1,.463-.434,1.258,1.258,0,0,1,.84-.169c.487.052,1.173.451,1.034,1.727l-.237,2.164-.653-.071.227-2.08c.077-.707-.134-1.161-.674-1.22a.87.87,0,0,0-.856.522,1.121,1.121,0,0,0-.09.329l-.248,2.271-.653-.072.24-2.2c.064-.584-.147-1.039-.657-1.094a.919.919,0,0,0-.9.578.929.929,0,0,0-.089.321l-.242,2.217-.654-.071Z" transform="translate(-773.629 -530.168)" fill="#fff"/>
        <path id="Trazado_1365" data-name="Trazado 1365" d="M790.823,537.163l0-.469-.024,0a1.374,1.374,0,0,1-1.182.424,1.053,1.053,0,0,1-1.009-1.178c.1-.889.939-1.289,2.36-1.126l.008-.075a.763.763,0,0,0-.743-.942,1.84,1.84,0,0,0-.987.169l-.1-.457a2.288,2.288,0,0,1,1.243-.195,1.312,1.312,0,0,1,1.233,1.657l-.15,1.374a5.155,5.155,0,0,0-.035.888Zm.106-1.888c-.727-.094-1.569-.055-1.648.659a.6.6,0,0,0,.561.706.919.919,0,0,0,.956-.519.692.692,0,0,0,.062-.208Z" transform="translate(-773.445 -530.146)" fill="#fff"/>
        <path id="Trazado_1366" data-name="Trazado 1366" d="M796.1,532.326l-.485,4.444c-.035.326-.068.7-.073.952l-.6-.066.039-.641h-.014a1.37,1.37,0,0,1-1.332.584,1.686,1.686,0,0,1-1.368-2.04,1.768,1.768,0,0,1,1.863-1.795,1.24,1.24,0,0,1,1.049.683h.014l.24-2.195Zm-1.018,3.14a1.266,1.266,0,0,0,0-.284.991.991,0,0,0-.88-.881c-.691-.075-1.167.488-1.257,1.3-.081.744.216,1.4.938,1.478a1.011,1.011,0,0,0,1.067-.691,1.125,1.125,0,0,0,.062-.286Z" transform="translate(-773.332 -530.179)" fill="#fff"/>
        <path id="Trazado_1367" data-name="Trazado 1367" d="M798.526,538l0-.469-.023,0a1.376,1.376,0,0,1-1.184.424,1.054,1.054,0,0,1-1.009-1.178c.1-.889.94-1.289,2.36-1.126l.008-.075a.763.763,0,0,0-.742-.942,1.845,1.845,0,0,0-.988.169l-.1-.458a2.291,2.291,0,0,1,1.243-.194,1.311,1.311,0,0,1,1.233,1.656l-.15,1.375a5.363,5.363,0,0,0-.035.888Zm.1-1.887c-.727-.095-1.569-.056-1.646.658a.594.594,0,0,0,.561.707.92.92,0,0,0,.956-.518.7.7,0,0,0,.061-.208Z" transform="translate(-773.206 -530.12)" fill="#fff"/>
        <path id="Trazado_1368" data-name="Trazado 1368" d="M804.529,536.275l-1.99-.217-.2,1.845,2.217.242-.06.555-2.879-.315.559-5.12,2.765.3-.061.555-2.1-.229-.177,1.617,1.99.218Z" transform="translate(-773.042 -530.147)" fill="#fff"/>
        <path id="Trazado_1369" data-name="Trazado 1369" d="M805.511,536.054c.041-.379.068-.692.078-1l.592.065-.028.611.014,0a1.361,1.361,0,0,1,1.291-.559c.51.056,1.266.445,1.129,1.706l-.24,2.195-.668-.072.231-2.12c.065-.593-.1-1.111-.732-1.18a.955.955,0,0,0-.97.587.944.944,0,0,0-.08.306l-.241,2.21-.668-.073Z" transform="translate(-772.931 -530.092)" fill="#fff"/>
        <path id="Trazado_1370" data-name="Trazado 1370" d="M810.6,534.564l-.116,1.055.957.105-.056.508-.957-.1-.216,1.983c-.05.456.052.728.424.769a1.481,1.481,0,0,0,.392,0l-.025.505a1.625,1.625,0,0,1-.6.026.935.935,0,0,1-.691-.359,1.372,1.372,0,0,1-.153-.986l.218-2.005-.569-.062.056-.509.569.062.1-.88Z" transform="translate(-772.807 -530.107)" fill="#fff"/>
        <path id="Trazado_1371" data-name="Trazado 1371" d="M811.989,536.915c.048-.433.081-.806.095-1.15l.585.064-.056.724.03,0a1.111,1.111,0,0,1,1.106-.694.7.7,0,0,1,.188.044l-.069.63a1.043,1.043,0,0,0-.226-.048.943.943,0,0,0-.99.761,1.923,1.923,0,0,0-.064.307l-.215,1.96-.661-.072Z" transform="translate(-772.73 -530.07)" fill="#fff"/>
        <path id="Trazado_1372" data-name="Trazado 1372" d="M816.126,539.924l0-.469-.023,0a1.377,1.377,0,0,1-1.183.424,1.054,1.054,0,0,1-1.009-1.178c.1-.889.94-1.289,2.36-1.126l.009-.075a.763.763,0,0,0-.744-.942,1.84,1.84,0,0,0-.987.169l-.1-.458a2.3,2.3,0,0,1,1.243-.194,1.312,1.312,0,0,1,1.233,1.656l-.151,1.375a5.146,5.146,0,0,0-.035.888Zm.106-1.887c-.728-.094-1.57-.055-1.648.659a.6.6,0,0,0,.561.706.923.923,0,0,0,.957-.519.7.7,0,0,0,.061-.208Z" transform="translate(-772.662 -530.061)" fill="#fff"/>
        <path id="Trazado_1373" data-name="Trazado 1373" d="M817.926,537.41c.042-.381.068-.692.079-1l.592.065-.028.611.014,0a1.361,1.361,0,0,1,1.291-.559c.509.056,1.266.445,1.129,1.707l-.24,2.195-.668-.073.231-2.12c.065-.592-.1-1.11-.732-1.178a.956.956,0,0,0-.971.586.969.969,0,0,0-.079.306l-.241,2.211-.668-.073Z" transform="translate(-772.546 -530.05)" fill="#fff"/>
        <path id="Trazado_1374" data-name="Trazado 1374" d="M823.015,535.919l-.115,1.056.957.1-.055.51-.958-.105-.216,1.983c-.049.456.051.728.424.769a1.5,1.5,0,0,0,.393,0l-.025.505a1.652,1.652,0,0,1-.6.027.938.938,0,0,1-.692-.36,1.372,1.372,0,0,1-.154-.986l.219-2.005-.57-.062.056-.509.569.062.1-.881Z" transform="translate(-772.423 -530.065)" fill="#fff"/>
        <path id="Trazado_1375" data-name="Trazado 1375" d="M824.646,539.117a1.184,1.184,0,0,0,1.122,1.413,2.438,2.438,0,0,0,1.038-.078l.062.491a3,3,0,0,1-1.248.094,1.716,1.716,0,0,1-1.6-2.05,1.8,1.8,0,0,1,1.939-1.795,1.567,1.567,0,0,1,1.331,1.9,2.817,2.817,0,0,1-.057.308Zm2.011-.265a.956.956,0,0,0-.808-1.187,1.114,1.114,0,0,0-1.143.973Z" transform="translate(-772.349 -530.026)" fill="#fff"/>
      </g>
      <g id="Grupo_660" data-name="Grupo 660" transform="translate(103.854 15.93)">
        <path id="Trazado_1376" data-name="Trazado 1376" d="M849.968,430.193l-.4,4.074a.107.107,0,0,1-.116.1l-.427-.041a.108.108,0,0,1-.1-.117l.4-4.074a.109.109,0,0,1,.118-.1l.426.041A.107.107,0,0,1,849.968,430.193Z" transform="translate(-845.737 -430.034)" fill="#fff"/>
        <path id="Trazado_1377" data-name="Trazado 1377" d="M848.852,430.925l-.312,3.217a.109.109,0,0,1-.118.1L848,434.2a.106.106,0,0,1-.1-.117l.312-3.216a.107.107,0,0,1,.118-.1l.426.041A.106.106,0,0,1,848.852,430.925Z" transform="translate(-845.769 -430.011)" fill="#fff"/>
        <path id="Trazado_1378" data-name="Trazado 1378" d="M847.756,431.448l-.249,2.573a.108.108,0,0,1-.118.1l-.426-.041a.108.108,0,0,1-.1-.117l.25-2.573a.109.109,0,0,1,.118-.1l.426.041A.107.107,0,0,1,847.756,431.448Z" transform="translate(-845.8 -429.995)" fill="#fff"/>
        <path id="Trazado_1379" data-name="Trazado 1379" d="M846.66,431.972l-.188,1.93a.108.108,0,0,1-.117.1l-.426-.041a.109.109,0,0,1-.1-.118l.188-1.929a.108.108,0,0,1,.118-.1l.426.041A.106.106,0,0,1,846.66,431.972Z" transform="translate(-845.832 -429.978)" fill="#fff"/>
      </g>
      <g id="Grupo_669" data-name="Grupo 669" transform="translate(98.235 15.84)">
        <g id="Grupo_662" data-name="Grupo 662" transform="translate(1.851 2.991)">
          <g id="Grupo_661" data-name="Grupo 661">
            <path id="Trazado_1380" data-name="Trazado 1380" d="M842.667,432.85a.439.439,0,1,0,.392.483A.441.441,0,0,0,842.667,432.85Z" transform="translate(-842.179 -432.847)" fill="#fff"/>
          </g>
        </g>
        <g id="Grupo_664" data-name="Grupo 664" transform="translate(1.227 1.947)">
          <g id="Grupo_663" data-name="Grupo 663">
            <path id="Trazado_1381" data-name="Trazado 1381" d="M843.818,432.4a1.521,1.521,0,0,0-2.135-.233.3.3,0,0,0,.372.462.928.928,0,0,1,1.3.142.3.3,0,0,0,.2.108.292.292,0,0,0,.217-.063A.3.3,0,0,0,843.818,432.4Z" transform="translate(-841.573 -431.834)" fill="#fff"/>
          </g>
        </g>
        <g id="Grupo_666" data-name="Grupo 666">
          <g id="Grupo_665" data-name="Grupo 665">
            <path id="Trazado_1382" data-name="Trazado 1382" d="M845.376,431.238a3.481,3.481,0,0,0-4.882-.527.3.3,0,0,0,.373.461,2.886,2.886,0,0,1,4.047.437.294.294,0,0,0,.2.109.3.3,0,0,0,.219-.064A.3.3,0,0,0,845.376,431.238Z" transform="translate(-840.383 -429.946)" fill="#fff"/>
          </g>
        </g>
        <g id="Grupo_668" data-name="Grupo 668" transform="translate(0.629 0.998)">
          <g id="Grupo_667" data-name="Grupo 667">
            <path id="Trazado_1383" data-name="Trazado 1383" d="M844.578,431.834a2.477,2.477,0,0,0-3.474-.375.3.3,0,0,0,.155.525.3.3,0,0,0,.219-.064,1.88,1.88,0,0,1,2.638.286.3.3,0,1,0,.463-.371Z" transform="translate(-840.992 -430.914)" fill="#fff"/>
          </g>
        </g>
      </g>
      <g id="Grupo_670" data-name="Grupo 670" transform="translate(32.037 10.286)">
        <path id="Trazado_1384" data-name="Trazado 1384" d="M776.174,427.629a1.188,1.188,0,0,1,.9-1.053l0-.02a1.028,1.028,0,0,1-.592-.98,1.166,1.166,0,0,1,1.361-1.013,1.076,1.076,0,0,1,1.135,1.107,1.057,1.057,0,0,1-.753.922v.02a1.155,1.155,0,0,1,.76,1.132,1.279,1.279,0,0,1-1.5,1.106C776.618,428.789,776.131,428.235,776.174,427.629Zm.839-2.052c-.03.415.267.66.736.823a.821.821,0,0,0,.687-.709.647.647,0,0,0-.655-.727A.661.661,0,0,0,777.013,425.577Zm1.4,2.185c.036-.5-.3-.772-.849-.972a.9.9,0,0,0-.807.8.768.768,0,0,0,.772.851A.753.753,0,0,0,778.41,427.762Z" transform="translate(-776.171 -424.56)" fill="#fff"/>
        <path id="Trazado_1385" data-name="Trazado 1385" d="M780.3,426.353a.382.382,0,1,1,.76.054.381.381,0,1,1-.76-.054Zm-.16,2.254a.381.381,0,1,1,.76.054.381.381,0,1,1-.76-.054Z" transform="translate(-776.049 -424.516)" fill="#fff"/>
        <path id="Trazado_1386" data-name="Trazado 1386" d="M783.186,425.54h-.013l-.748.338-.078-.435.941-.42.478.034-.295,4.15-.542-.038Z" transform="translate(-775.98 -424.545)" fill="#fff"/>
        <path id="Trazado_1387" data-name="Trazado 1387" d="M787.4,425.789l-1.583-.113-.236,1.056a2.121,2.121,0,0,1,.339,0,1.756,1.756,0,0,1,.878.287,1.185,1.185,0,0,1,.517,1.109,1.442,1.442,0,0,1-1.644,1.307,2.024,2.024,0,0,1-1.016-.329l.17-.418a1.874,1.874,0,0,0,.871.293.917.917,0,0,0,1.048-.83c.032-.537-.3-.946-1.129-1.005a4.34,4.34,0,0,0-.577,0l.408-1.972,1.986.14Z" transform="translate(-775.909 -424.541)" fill="#fff"/>
      </g>
      <g id="Grupo_672" data-name="Grupo 672" transform="translate(90.615 15.91)">
        <g id="Grupo_671" data-name="Grupo 671">
          <path id="Trazado_1388" data-name="Trazado 1388" d="M838.852,431.308l-.127-.012.013-.13a.641.641,0,0,0-.565-.713l-4.311-.434a.65.65,0,0,0-.7.587l-.165,1.558a.641.641,0,0,0,.565.713l4.311.434a.65.65,0,0,0,.7-.587l.014-.13.127.013a.39.39,0,0,0,.421-.352l.056-.52A.386.386,0,0,0,838.852,431.308Zm-3.348,1.176a.125.125,0,0,1-.114.05l-1.775-.178a.129.129,0,0,1-.113-.142l.165-1.559a.13.13,0,0,1,.14-.118l1.015.1a.128.128,0,0,1,.106.084l.6,1.635A.132.132,0,0,1,835.5,432.484Z" transform="translate(-832.991 -430.015)" fill="#fff"/>
        </g>
      </g>
    </g>
  </g>
</svg>
