<svg id="a36b12b3-5207-472e-ab44-ae536fbc9f72" data-name="Capa 1" xmlns="http://www.w3.org/2000/svg" xmlns:xlink="http://www.w3.org/1999/xlink" viewBox="0 0 392.95 279.53"><defs><clipPath id="a6a995b7-ff0d-49a5-b426-0878f149cf91" transform="translate(-1.89 -48.92)"><circle cx="113.65" cy="134.37" r="27.35" style="fill:none"/></clipPath></defs><g id="f88e0597-bc78-4c79-b20b-2f82cf20b09f" data-name="Grupo 718"><path id="f93eaed0-df07-4d0d-b12f-b6096a54fd4d" data-name="Trazado 1341" d="M354.3,171.56a64.3,64.3,0,0,0-3.2-34,70.64,70.64,0,0,0-59.4-45.41,72,72,0,0,0-51.57,15c-13.72-34.51-48.36-58.24-87.36-58.24H152c-48.1.39-89.79,38.62-92.62,85.31a88,88,0,0,0,4,32.2c-31.81,7.57-54.64,35-54.64,67.73,0,37.71,24.37,78,92.61,78h221c43.36,0,72.48-40.28,72.48-77.86C394.84,207.48,378.8,183.1,354.3,171.56Z" transform="translate(-1.89 -48.92)" style="fill:#97bff0"/><g id="b9cb4768-26fc-4eec-a32c-48d995389ea1" data-name="Grupo 30"><path id="b2aba5dc-4766-42e4-bdf0-f58883f8e2e1" data-name="Rect치ngulo 2" d="M5.47,312h385.8a3.72,3.72,0,0,1,3.57,3.85h0v8.77a3.72,3.72,0,0,1-3.57,3.85H5.47A3.71,3.71,0,0,1,1.9,324.6h0v-8.77A3.71,3.71,0,0,1,5.47,312Z" transform="translate(-1.89 -48.92)" style="fill:#3700b1"/><path id="ba69af9d-158f-47fa-ada4-c1b5154645a3" data-name="Trazado 41" d="M394.84,319.93v.37H1.9v-.37c0-4.39,3.27-7.95,7.29-7.95H387.54C391.57,312,394.84,315.53,394.84,319.93Z" transform="translate(-1.89 -48.92)" style="fill:#542bd8"/></g><g id="b4e87a91-e770-4799-bf5a-e0030d192fae" data-name="Grupo 655"><g id="baa6a1db-f921-4eba-abed-e2e1f0589d03" data-name="Grupo 654"><path id="a3108fd1-3508-47b8-8522-60a76d6d269c" data-name="Trazado 1350" d="M252,242.08l19.07,8.71c20.07,9.17,52.82-21.36,74.36-68.53s22.46-91.63,3.12-101.07l-19.07-8.71c-7-3.21-15.8.06-19.74,7.36l-12.84,28.1c-4.58,10,3,21.37,13.57,20.75,7.4-.26,14.51,5.41,14.77,12.81,2.07,16.71-10.58,43.08-23.84,52.19-6,3.91-14.7,3-19.35-2.78-6.47-8.41-20-6.7-24.57,3.34l-12.84,28.09C241.42,229.37,244.69,238.14,252,242.08Z" transform="translate(-1.89 -48.92)" style="fill:#00bd00;stroke:#6168ff;stroke-miterlimit:10;stroke-width:3px"/></g></g><g id="a1d47144-f32c-4b0a-a8cd-4d958d21a3c3" data-name="Grupo 69"><rect id="ad11940b-b765-4f80-9f27-5d66ded736a2" data-name="Rect치ngulo 4" x="71.18" y="75.93" width="95.79" height="182.85" rx="1.93" transform="translate(-35.94 -18.46) rotate(-12.77)" style="fill:#524e82"/><g id="bfe323d6-5b7d-4a10-839a-44c7e35b7ffb" data-name="Grupo 35"><g id="bc7d239e-f21e-4b00-9450-f1c8437bbc95" data-name="Grupo 34"><g id="ecb16c73-ddea-4e2c-b8b1-a31011bf565a" data-name="Grupo 33"><path id="a2a388cc-e108-481d-9091-924dc49c9780" data-name="Trazado 45" d="M123.19,72.67l-2.36,4.18A4.42,4.42,0,0,0,120.4,80a4,4,0,0,1-2.79,4.94l-30,6.79A4,4,0,0,1,83,88.47a4.42,4.42,0,0,0-1.75-2.65l-3.92-2.76Z" transform="translate(-1.89 -48.92)" style="fill:#2e3062"/><ellipse id="b1b7b90c-5f83-4d86-9cef-7d9e70db52c7" data-name="Elipse 2" cx="113.73" cy="80.23" rx="1.59" ry="1.75" transform="translate(-16.82 -21.8) rotate(-12.77)" style="fill:#524e82"/><path id="fec7c82b-8c19-4fa9-b267-9a40cf7931ab" data-name="Rect치ngulo 3" d="M86.63,84.59,109,79.52a.8.8,0,0,1,.91.63l.41,1.81a.79.79,0,0,1-.55,1L87.4,88a.79.79,0,0,1-.91-.63l-.41-1.81A.78.78,0,0,1,86.63,84.59Z" transform="translate(-1.89 -48.92)" style="fill:#524e82"/></g><path id="ee69bbc1-7848-41c8-9e9a-f2a1ad4b4815" data-name="Trazado 1351" d="M136.24,64.7,60.15,82c-4.78,1.08-7.7,6.23-6.5,11.51h0L91.81,261.84c1.2,5.27,6,8.67,10.83,7.59h0l76.09-17.25c4.79-1.08,7.7-6.24,6.5-11.52L147.07,72.29C145.88,67,141,63.62,136.24,64.7ZM181,242.22a4.11,4.11,0,0,1-2.84,5.06h0l-77.15,17.49a4.13,4.13,0,0,1-4.78-3.33L57.84,91.9a5.46,5.46,0,0,1-.1-.69,4.28,4.28,0,0,1,1.55-3.7,3.2,3.2,0,0,1,.71-.43,3.75,3.75,0,0,1,.71-.25l77.13-17.48a4.12,4.12,0,0,1,4.77,3.34Z" transform="translate(-1.89 -48.92)" style="fill:#2e3062"/></g></g><g id="b989a189-5fbd-44f6-baa0-6b9ad834694f" data-name="Grupo 68"><circle id="ef2c3fc6-29a8-461d-bc8e-809abf9fdad0" data-name="Elipse 4" cx="116.35" cy="178.61" r="8.59" style="fill:#f43853"/><path id="b777b01a-58aa-413d-9e51-080233017b21" data-name="Trazado 78" d="M118.17,227.19s-1.51.25-1.61.67c-.15.61.44,1.77-1.36,2.07s-1.56-1.33-1.45-1.81.28-1.34,4.13-2.21,4.38-.17,4.68.22,1.23,1.74-.52,2.25-1.72-.79-2.12-1.28C119.64,226.77,118.17,227.19,118.17,227.19Z" transform="translate(-1.89 -48.92)" style="fill:#fff"/><circle id="a5ae6c5c-7aba-410a-acbb-9ea95c1ed29f" data-name="Elipse 4-2" cx="144.7" cy="172.18" r="8.59" style="fill:#00bd00"/><path id="b1f9bf14-feaa-4d6d-b0f7-e11cb57b41d0" data-name="Trazado 78-2" d="M146.39,221.39s1.19,1,1.57.76c.56-.3,1-1.51,2.45-.35s0,2-.39,2.28-1.19.69-4.4-1.62-3-3.17-2.94-3.65.49-2.08,2-1.1.55,1.81.45,2.44C145.1,220.57,146.39,221.39,146.39,221.39Z" transform="translate(-1.89 -48.92)" style="fill:#fff"/></g><g id="bf389b09-06af-44d8-9dfe-881024d0ac60" data-name="Grupo 657"><g style="clip-path:url(#a6a995b7-ff0d-49a5-b426-0878f149cf91)"><g id="b3e25ab6-3ccc-46c8-b877-016c93780c62" data-name="Grupo 656"><rect id="a9130f51-d899-4a7c-8a67-d623ab623f9e" data-name="Rect치ngulo 104" x="81.43" y="104.99" width="67.21" height="70.59" transform="translate(-30.06 -20.02) rotate(-12.77)" style="fill:#fff"/><g id="b8bf6dd5-f7ce-4a67-8528-18ddbe0c839d" data-name="Grupo 66"><g id="a219a3cf-37c0-4c78-a4a4-c3c19c2e55cf" data-name="Grupo 65"><g id="a9afc12f-a07f-4af4-9174-094cf41b414a" data-name="Grupo 54"><g id="a5414edf-4a5f-4483-9a3c-a6977aac43d7" data-name="Grupo 51"><g id="a92a401d-baef-4067-8515-e5c7d3ea3760" data-name="Grupo 50"><g id="b214f589-35f0-47b9-9e3c-c70efa017eba" data-name="Grupo 49"><path id="aecb7dfa-2829-437e-8622-750d7741aec2" data-name="Trazado 54" d="M140.61,158.81l2.86,12.63a2,2,0,0,1-1.5,2.39h0l-39.45,8.94a2,2,0,0,1-2.4-1.5h0l-2.86-12.63c-1.42-6.24.75-9,.75-9a38.06,38.06,0,0,1,7.08-6s7.08-4.33,7.12-4.37l8.08-1.25c1.09.35,6.74.74,10.25,1.57l1.16.28a12.32,12.32,0,0,1,5.42,2.81A17.81,17.81,0,0,1,140.61,158.81Z" transform="translate(-1.89 -48.92)" style="fill:#ff495a"/></g></g></g><g id="b8bf6dcd-a767-44db-939b-8285fcf531fe" data-name="Grupo 52"><path id="fc8df27b-63d6-4631-944a-d148ec6fe601" data-name="Trazado 55" d="M106.07,172.43l.72,9.37L106,182l-.74-9.49a.4.4,0,0,1,.34-.45.38.38,0,0,1,.45.33A.13.13,0,0,1,106.07,172.43Z" transform="translate(-1.89 -48.92)" style="fill:#e21c47"/></g><g id="a8de2388-f6ae-4233-896a-b5105b9379d6" data-name="Grupo 53"><path id="a110df3e-6299-4ac5-bb2b-be5dd09be310" data-name="Trazado 56" d="M139.5,174.39l-.79.18-2.47-6.77a.4.4,0,1,1,.75-.28Z" transform="translate(-1.89 -48.92)" style="fill:#e21c47"/></g><path id="a1c26f8c-4a6a-4212-b255-cb075aaee374" data-name="Trazado 57" d="M124.54,162.15l8.36-1.89s1.9,7.33-2.46,8.32S124.54,162.15,124.54,162.15Z" transform="translate(-1.89 -48.92)" style="fill:#e21c47"/></g><g id="b694ba47-3562-4399-b8ef-2046f26d4d23" data-name="Grupo 64"><path id="bef098e3-6be8-4af7-88c6-91cbe1521ee1" data-name="Trazado 58" d="M121.57,124.52s4.1-2.56,2.87-5.92c-1-2.86-3.88-.21-4.12-2.58s-.07-4.61-3-4.55c-2.58,0-2.21,1.85-6,0-4.52-2.19-5.84,5.56-9.2,6.55-5,1.45-4.91,4.6-4.86,7.12s3.12,4.79,3.12,4.79Z" transform="translate(-1.89 -48.92)" style="fill:#2e3062"/><g id="eb0b4c6e-744b-40a2-b609-da16db553ebc" data-name="Grupo 57"><path id="bc1faf01-96cd-4184-a99e-f945650ddc27" data-name="Trazado 59" d="M122,129.75s1.3-2.92,3.16-1.17,1.27,8.27-2.47,7.55Z" transform="translate(-1.89 -48.92)" style="fill:#fa8465"/><g id="f1366c29-f13e-40f9-849a-5dcd801fe757" data-name="Grupo 55"><path id="e7e0d639-9342-443c-9001-8063b0344547" data-name="Trazado 60" d="M123,134.09a.3.3,0,0,0,.23-.28,4.56,4.56,0,0,1,1.89-3.21.29.29,0,0,0,0-.41.31.31,0,0,0-.37-.08h0a5.08,5.08,0,0,0-2.15,3.68.3.3,0,0,0,.28.31H123Z" transform="translate(-1.89 -48.92)" style="fill:#fa664d"/></g><g id="b7460e93-3a39-4f75-be9f-d5c3aac50412" data-name="Grupo 56"><path id="ebd80b0a-2ec9-41f5-8db7-4ec3dd8633d2" data-name="Trazado 61" d="M124.73,132.7a.3.3,0,0,0,.22-.36.29.29,0,0,0-.08-.14h0a2.68,2.68,0,0,0-1.27-.63.3.3,0,0,0-.12.58h0a2.13,2.13,0,0,1,1,.47A.3.3,0,0,0,124.73,132.7Z" transform="translate(-1.89 -48.92)" style="fill:#fa664d"/></g></g><path id="abefd829-551c-4ddf-bfad-dc84957346c2" data-name="Trazado 62" d="M110.33,144.36l1.37,6s2.5,2.67,5,2.32,4-3.69,4-3.69l-1.42-6.26Z" transform="translate(-1.89 -48.92)" style="fill:#f7ad89"/><path id="a180da85-70a3-4b43-ab8e-20783847a3ee" data-name="Trazado 63" d="M110.33,144.36l.6,2.68c2,1.45,5.06,1.24,9.22-.37l-.88-3.89Z" transform="translate(-1.89 -48.92)" style="fill:#fa8465"/><path id="fc4eb8e1-c584-4273-898c-3515fa89ba2b" data-name="Trazado 64" d="M122.63,127.62c.12.61.23,1.26.32,1.92,0,.25.08.5.11.75.13,1,.23,2.07.28,3.13h0s0,0,0,.08v.22c0,.15,0,.3,0,.46s0,.48,0,.72c0,4.15-1.05,8.2-4.28,10.25-7.68,4.87-12.47-.89-14.93-5.06-.17-.28-.32-.56-.47-.83-.24-.45-.49-1-.73-1.51h0v0h0c-.52-1.2-1-2.58-1.47-4-.39-1.21-.74-2.41-1-3.49a6.51,6.51,0,0,1-.23-2c0-.16,0-.32,0-.48a2,2,0,0,1,0-.24,3.89,3.89,0,0,1,.09-.47c0-.16.08-.31.12-.46l.16-.45h0c.09-.22.19-.44.3-.65a6.69,6.69,0,0,1,1-1.37c.11-.12.23-.24.35-.35a7.46,7.46,0,0,1,.78-.61c3.34-2.24,8.64-4.6,14.58-2.81a6.42,6.42,0,0,1,3.23,2.2c.09.11.17.22.25.34l.14.22c.09.15.18.3.26.46a4.71,4.71,0,0,1,.22.45,6.48,6.48,0,0,1,.32,1C122.24,125.78,122.44,126.66,122.63,127.62Z" transform="translate(-1.89 -48.92)" style="fill:#f7ad89"/><g id="f6a49215-098f-4af0-b396-5d1f4e305aaa" data-name="Grupo 58"><path id="ab65f84e-b127-49c8-af7d-74f3dffab02f" data-name="Trazado 65" d="M115.14,144.37a2.88,2.88,0,0,1-1.45-.14.29.29,0,0,1-.17-.38.29.29,0,0,1,.38-.17h0a2.54,2.54,0,0,0,1.13.11,2.49,2.49,0,0,0,1.06-.54.3.3,0,1,1,.41.45A3.16,3.16,0,0,1,115.14,144.37Z" transform="translate(-1.89 -48.92)" style="fill:#fa8465"/></g><path id="b5a73280-5edf-4baa-8047-ea5ef06b3cdd" data-name="Trazado 66" d="M107.61,133.24c.15.64.6,1.09,1,1s.62-.69.48-1.34-.6-1.09-1-1S107.47,132.59,107.61,133.24Z" transform="translate(-1.89 -48.92)" style="fill:#2e3062"/><path id="af071175-4ca3-4c5e-8de6-6eeeb731cf96" data-name="Trazado 67" d="M116.64,131.19c.15.65.6,1.1,1,1s.63-.69.48-1.34-.59-1.09-1-1S116.5,130.55,116.64,131.19Z" transform="translate(-1.89 -48.92)" style="fill:#2e3062"/><path id="a5ce7ad4-c194-48d6-850d-1e90666f30da" data-name="Trazado 68" d="M104.38,129.82s2.8-1.9,5.4-1.42l.06,1.37s-3.54.49-5.13,1.6A2.4,2.4,0,0,1,104.38,129.82Z" transform="translate(-1.89 -48.92)" style="fill:#2e3062"/><path id="b0afac81-6c15-4f73-83e6-4006e815642c" data-name="Trazado 69" d="M119,126.52s-3.37-.52-5.52,1l.54,1.27s3.43-1.09,5.35-.78A2.34,2.34,0,0,0,119,126.52Z" transform="translate(-1.89 -48.92)" style="fill:#2e3062"/><g id="bf38ff30-8527-4129-9303-c4edb493045a" data-name="Grupo 59"><path id="ae14ac85-6660-45dc-8d28-7cf547fa06c1" data-name="Trazado 70" d="M113.53,137.39a3.32,3.32,0,0,1-1.09,0,.3.3,0,0,1,.1-.59,1.73,1.73,0,0,0,1.18-.15.36.36,0,0,0,.08-.3c-.32-1.47-.71-2.93-1.17-4.36a.28.28,0,0,1,.23-.34.3.3,0,0,1,.33.16,46,46,0,0,1,1.19,4.47.89.89,0,0,1-.26.8A1.17,1.17,0,0,1,113.53,137.39Z" transform="translate(-1.89 -48.92)" style="fill:#fa8465"/></g><path id="e9489496-4351-454d-9598-2d850837c1e5" data-name="Trazado 71" d="M117.64,138.76a3.53,3.53,0,0,1-2.68,3.89c-2.45.55-3.55-1.14-4.08-2.36Z" transform="translate(-1.89 -48.92)" style="fill:#fff9ff"/><path id="b2ebb76e-b984-4062-8f57-9d180a1a589a" data-name="Trazado 72" d="M122.63,127.62c.12.61.23,1.26.32,1.92,0,.25.08.5.11.75.13,1,.23,2.07.28,3.13l-1.29,0s0-3.94-.54-5.26-1.93-1.88-1.85-3.31-1.66-2.54-2.76-2.54-3.31,2.06-5.88,1.18a7.31,7.31,0,0,0-7.18,1.78c-1.26,1.54.38,3.62-.65,4.16s.32,2.93.76,4.19,1.08,2.83,1.12,2.93l-1.44.36-1.17-2.53c-.54-.11-.69-.52-1-.65-.39-1.2-.74-2.41-1-3.49a6.51,6.51,0,0,1-.23-2c0-.16,0-.32,0-.48l0-.24c0-.16.06-.31.1-.47s.08-.31.12-.46l.16-.45h0a6.37,6.37,0,0,1,1.28-2l.35-.35a7.46,7.46,0,0,1,.78-.61c3.34-2.24,8.64-4.6,14.58-2.81a6.42,6.42,0,0,1,3.23,2.2c.09.11.17.23.25.34a1.64,1.64,0,0,1,.14.22,5.06,5.06,0,0,1,.27.46q.11.21.21.45a7.91,7.91,0,0,1,.33,1C122.24,125.78,122.44,126.66,122.63,127.62Z" transform="translate(-1.89 -48.92)" style="fill:#2e3062"/><g id="a76bc940-f41b-4230-8eaf-8e9f05d5b7c7" data-name="Grupo 63"><path id="a53188d0-6d28-4f0e-8a88-518204567834" data-name="Trazado 73" d="M103,135a2.57,2.57,0,0,0-1.64-1.62,1.51,1.51,0,0,0-2,.83,1.42,1.42,0,0,0-.07.22c-.92,2.37,2.42,8,5.49,5.76Z" transform="translate(-1.89 -48.92)" style="fill:#f7ad89"/><g id="e9303ef7-71b6-471f-89f1-55801200fab3" data-name="Grupo 60"><path id="ec1fc8fb-cc0b-42d4-b795-4085c76a52f6" data-name="Trazado 74" d="M103.68,138.46a.3.3,0,0,1-.33-.15,4.53,4.53,0,0,0-3.09-2.07.31.31,0,0,1-.21-.37.31.31,0,0,1,.3-.22,5.07,5.07,0,0,1,3.52,2.39.29.29,0,0,1-.11.4Z" transform="translate(-1.89 -48.92)" style="fill:#fa8465"/></g><g id="a3675ba2-e96e-40de-93b8-5df68be7ff4b" data-name="Grupo 62"><g id="ece90519-cb14-4841-b7e6-993468fabe41" data-name="Grupo 61"><path id="b3491c8d-4575-4710-a3f4-2e965c4c8f04" data-name="Trazado 75" d="M101.5,138a.3.3,0,0,1-.35-.23.29.29,0,0,1,0-.16h0a2.66,2.66,0,0,1,.88-1.11.29.29,0,0,1,.42,0,.31.31,0,0,1,0,.42.18.18,0,0,1-.07.05,2.18,2.18,0,0,0-.68.85A.28.28,0,0,1,101.5,138Z" transform="translate(-1.89 -48.92)" style="fill:#fa8465"/></g></g></g></g></g></g></g></g></g><g id="ada74eb0-2fe7-4b92-88b1-a0c62d4ce075" data-name="Grupo 658"><g id="ecb69a86-e527-40b1-b2b9-be5f9f5f4dd6" data-name="Trazado 1352"><path d="M94.09,180.08l1.28-.29,1.5,6.61c.59,2.62-.52,3.72-2.22,4.1a4.18,4.18,0,0,1-1.41.08l0-1.09a3,3,0,0,0,1.12-.05c1.14-.26,1.7-.92,1.26-2.86Z" transform="translate(-1.89 -48.92)" style="fill:#fff"/><path d="M94.09,180.08l1.28-.29,1.5,6.61c.53,2.35-.31,3.48-1.71,4a3.8,3.8,0,0,1-.51.14,4.09,4.09,0,0,1-1.41.08l0-1.09a2.92,2.92,0,0,0,1.12-.05l.33-.09c.91-.31,1.32-1,.93-2.77Z" transform="translate(-1.89 -48.92)" style="fill:#fff"/></g><g id="a1d5656d-1d35-4086-8d55-3baf51fbce5b" data-name="Trazado 1353"><path d="M105.29,184.13a3.55,3.55,0,0,1-2.3,4.47l-.38.1a3.46,3.46,0,0,1-4.17-2.56l-.06-.32a3.55,3.55,0,0,1,2.3-4.46l.37-.1a3.45,3.45,0,0,1,4.17,2.51C105.25,183.89,105.27,184,105.29,184.13Zm-5.61,1.35c.35,1.56,1.51,2.53,2.77,2.24s1.89-1.64,1.53-3.24c-.27-1.2-1.22-2.59-2.74-2.25s-1.87,1.91-1.56,3.25Z" transform="translate(-1.89 -48.92)" style="fill:#fff"/><path d="M103,188.58a2.77,2.77,0,0,1-.41.12,3.46,3.46,0,0,1-4.23-2.88,3.56,3.56,0,0,1,2.24-4.44,3,3,0,0,1,.43-.12,3.45,3.45,0,0,1,4.24,2.87A3.55,3.55,0,0,1,103,188.58Zm-2-6.28c-1.31.46-1.6,1.91-1.31,3.18.35,1.56,1.51,2.53,2.77,2.24l.21-.06c1.09-.38,1.66-1.68,1.32-3.18-.27-1.2-1.22-2.59-2.74-2.25Z" transform="translate(-1.89 -48.92)" style="fill:#fff"/></g><g id="f37b6075-2d6d-4b19-8e5b-81eed7569b19" data-name="Trazado 1354"><path d="M107.26,186.09a3.48,3.48,0,0,0,1.81.13c.94-.21,1.28-.78,1.14-1.37s-.58-.87-1.61-1c-1.38-.17-2.14-.73-2.33-1.59a2.25,2.25,0,0,1,1.8-2.61l.18,0a3.59,3.59,0,0,1,1.84,0l-.11,1a2.88,2.88,0,0,0-1.54-.08c-.76.17-1.09.71-1,1.24s.62.75,1.62.9c1.34.18,2.11.66,2.34,1.71.29,1.25-.48,2.35-2.17,2.73a4.15,4.15,0,0,1-2.1,0Z" transform="translate(-1.89 -48.92)" style="fill:#fff"/><path d="M109.73,187a3.23,3.23,0,0,1-.47.14,4.21,4.21,0,0,1-2.1,0l.1-1.06a3.54,3.54,0,0,0,1.81.13l.27-.08c.74-.25,1-.76.87-1.29s-.58-.87-1.61-1c-1.38-.17-2.14-.74-2.33-1.59a2.17,2.17,0,0,1,1.6-2.53l.37-.1a3.75,3.75,0,0,1,1.85,0l-.11,1a2.88,2.88,0,0,0-1.55-.08l-.19.06a1,1,0,0,0-.77,1.18c.13.58.61.75,1.62.89,1.33.19,2.1.67,2.34,1.72A2.18,2.18,0,0,1,109.73,187Z" transform="translate(-1.89 -48.92)" style="fill:#fff"/></g><g id="a2cc76ba-c6d9-4e81-a126-5a8d0ddfc622" data-name="Trazado 1355"><path d="M113.5,182.58a2.33,2.33,0,0,0,3,1.91,4.78,4.78,0,0,0,1.88-.81l.43.87a5.94,5.94,0,0,1-2.26,1,3.38,3.38,0,0,1-4.19-2.29,2.77,2.77,0,0,1-.1-.5c-.49-2.14.39-4.11,2.46-4.58,2.31-.52,3.39,1.38,3.68,2.68a3.21,3.21,0,0,1,.09.61Zm3.57-1.78a1.87,1.87,0,0,0-2-1.72.85.85,0,0,0-.23,0,2.19,2.19,0,0,0-1.51,2.54Zm-1-6-1.31,2.5-.92.22.81-2.39Z" transform="translate(-1.89 -48.92)" style="fill:#fff"/><path d="M117.34,185.3c-.24.08-.5.16-.8.23a3.37,3.37,0,0,1-4.29-2.79c-.46-2,.28-3.85,2.07-4.46a3.59,3.59,0,0,1,.39-.12c2.31-.52,3.39,1.38,3.68,2.68a4.23,4.23,0,0,1,.09.61l-5,1.13a2.33,2.33,0,0,0,3,1.91,6.66,6.66,0,0,0,.69-.19,4.24,4.24,0,0,0,1.19-.62l.43.87A5.08,5.08,0,0,1,117.34,185.3Zm-2.74-6.13a2.23,2.23,0,0,0-1.29,2.48l3.76-.85a1.88,1.88,0,0,0-2.26-1.69Zm.13-1.86-.93.21.82-2.39,1.42-.32Z" transform="translate(-1.89 -48.92)" style="fill:#fff"/></g><g id="ab06cbf9-7e78-4b7d-9f66-53ec0c81c13c" data-name="Trazado 1356"><path d="M121.82,173.92a15.52,15.52,0,0,1,2.4-.75,4.15,4.15,0,0,1,3,.2,2.74,2.74,0,0,1,1.33,1.87,3,3,0,0,1-.28,2.28,4.2,4.2,0,0,1-2.78,1.77,4.58,4.58,0,0,1-1,.15l.89,3.95-1.27.29Zm2.35,4.47a4.37,4.37,0,0,0,1.08-.13c1.54-.35,2.31-1.31,2-2.68s-1.37-1.72-2.77-1.4a5.39,5.39,0,0,0-1.18.37Z" transform="translate(-1.89 -48.92)" style="fill:#fff"/><path d="M122.53,173.65a16.63,16.63,0,0,1,1.69-.48,4.17,4.17,0,0,1,3,.2,2.73,2.73,0,0,1,1.33,1.87,3,3,0,0,1-.29,2.28,3.85,3.85,0,0,1-2.13,1.59c-.21.07-.42.13-.64.18a4.6,4.6,0,0,1-1,.14l.89,4-1.27.29-2.21-9.76C122,173.83,122.27,173.74,122.53,173.65Zm3.17,4.48a2.06,2.06,0,0,0,1.55-2.55c-.3-1.3-1.37-1.72-2.77-1.4a8.08,8.08,0,0,0-.81.22l-.37.15.87,3.84a4.68,4.68,0,0,0,1.08-.13Z" transform="translate(-1.89 -48.92)" style="fill:#fff"/></g><g id="ee083253-2c64-426e-bc4e-7c64b3a69aab" data-name="Trazado 1357"><path d="M131.38,178.53a2.33,2.33,0,0,0,3,1.91,4.78,4.78,0,0,0,1.88-.81l.43.87a5.77,5.77,0,0,1-2.26,1,3.37,3.37,0,0,1-4.19-2.28,3,3,0,0,1-.1-.5c-.49-2.14.39-4.11,2.46-4.58,2.31-.52,3.39,1.37,3.68,2.68a3.1,3.1,0,0,1,.09.61Zm3.57-1.78a1.87,1.87,0,0,0-2-1.73l-.24,0a2.2,2.2,0,0,0-1.5,2.55Z" transform="translate(-1.89 -48.92)" style="fill:#fff"/><path d="M135.22,181.25a7,7,0,0,1-.8.22,3.38,3.38,0,0,1-4.3-2.78c-.45-2,.29-3.85,2.08-4.47l.38-.11c2.32-.52,3.4,1.37,3.69,2.68a3.88,3.88,0,0,1,.09.61l-5,1.13a2.34,2.34,0,0,0,3,1.91,6.66,6.66,0,0,0,.69-.19,4.51,4.51,0,0,0,1.19-.62l.43.87A5.35,5.35,0,0,1,135.22,181.25Zm-2.74-6.13a2.23,2.23,0,0,0-1.29,2.48l3.76-.85a1.88,1.88,0,0,0-2.26-1.69Z" transform="translate(-1.89 -48.92)" style="fill:#fff"/></g><g id="bf71e5fb-3c2d-45d8-b09a-a32b678aa086" data-name="Trazado 1358"><path d="M137.65,175.46c-.19-.83-.36-1.55-.56-2.2l1.13-.25.36,1.38h.06a2.17,2.17,0,0,1,1.61-2,1.23,1.23,0,0,1,.38,0l.28,1.21a2.13,2.13,0,0,0-.45.06,1.85,1.85,0,0,0-1.36,2,4.25,4.25,0,0,0,.08.61l.86,3.78-1.28.29Z" transform="translate(-1.89 -48.92)" style="fill:#fff"/><path d="M137.09,173.26l1.13-.26.36,1.39.06,0a2.21,2.21,0,0,1,1.41-1.94l.2-.06a1.27,1.27,0,0,1,.38,0l.27,1.21a2,2,0,0,0-.45.06l-.19,0a1.9,1.9,0,0,0-1.16,2,3.57,3.57,0,0,0,.07.61l.86,3.78-1.27.29-1.11-4.88C137.46,174.62,137.28,173.91,137.09,173.26Z" transform="translate(-1.89 -48.92)" style="fill:#fff"/></g><g id="f1af5b18-367a-4e62-9f0b-1ccbe7505534" data-name="Trazado 1359"><path d="M143.37,175.81a2.32,2.32,0,0,0,2.62,2,1.53,1.53,0,0,0,.37-.08,4.64,4.64,0,0,0,1.88-.81l.43.87a5.92,5.92,0,0,1-2.26,1,3.38,3.38,0,0,1-4.19-2.29,4.31,4.31,0,0,1-.11-.49c-.48-2.14.4-4.11,2.46-4.58,2.32-.53,3.4,1.37,3.69,2.67,0,.2.07.41.09.61Zm3.57-1.78a1.87,1.87,0,0,0-2-1.72l-.23,0a2.19,2.19,0,0,0-1.5,2.54Z" transform="translate(-1.89 -48.92)" style="fill:#fff"/><path d="M147.21,178.53c-.24.08-.51.16-.8.23a3.39,3.39,0,0,1-4.3-2.79c-.45-2,.29-3.85,2.07-4.46a2.85,2.85,0,0,1,.39-.11c2.32-.53,3.39,1.37,3.69,2.67a4.23,4.23,0,0,1,.09.61l-5,1.13a2.33,2.33,0,0,0,3,1.91,6.66,6.66,0,0,0,.69-.19,4.24,4.24,0,0,0,1.19-.62l.43.87A5.08,5.08,0,0,1,147.21,178.53Zm-2.75-6.13a2.25,2.25,0,0,0-1.28,2.49l3.76-.86a1.88,1.88,0,0,0-2.26-1.69Z" transform="translate(-1.89 -48.92)" style="fill:#fff"/></g><g id="ed40b113-bf23-4f24-a4e3-41259bcacc78" data-name="Trazado 1360"><path d="M149.77,177.06l2.26-4.91c.22-.45.44-.85.68-1.3v0l-3.84.87-.24-1,5.41-1.23.17.81L152,175.06c-.2.47-.42.88-.65,1.32v0l4.14-.94.24,1-5.76,1.3Z" transform="translate(-1.89 -48.92)" style="fill:#fff"/><path d="M155.7,176.5l-5.76,1.3-.17-.74,2.26-4.91c.22-.45.44-.85.68-1.3v0l-3.84.87-.24-1,5.41-1.23.17.81L152,175.06c-.21.47-.42.88-.66,1.32v0l4.14-.94Z" transform="translate(-1.89 -48.92)" style="fill:#fff"/></g></g><g id="ae864b0d-c8fc-420b-86d3-006485a3dba1" data-name="Grupo 659"><path id="fc456664-1840-4ebb-af3b-5a967b4c84ca" data-name="Trazado 1361" d="M98.91,193.46l.64-.15,1,4.44,2.12-.48.12.53-2.76.63Z" transform="translate(-1.89 -48.92)" style="fill:#fff"/><path id="baaa26d6-8f9f-47f9-b295-db54656e92e3" data-name="Trazado 1362" d="M102.31,192.41l.65-.15,1.19,5.24-.65.15Z" transform="translate(-1.89 -48.92)" style="fill:#fff"/><path id="b50aedce-fab0-4f8b-bf4e-ea6411ab1e85" data-name="Trazado 1363" d="M107.22,196.8l-.16-.44h0a1.37,1.37,0,0,1-1,.78,1,1,0,0,1-1.3-.7.19.19,0,0,1,0-.08c-.2-.87.46-1.51,1.84-1.82v-.07a.76.76,0,0,0-.83-.68l-.17,0a1.81,1.81,0,0,0-.87.47l-.24-.39a2.19,2.19,0,0,1,1.1-.59,1.3,1.3,0,0,1,1.63.85,1.55,1.55,0,0,1,.06.31l.3,1.33a4.78,4.78,0,0,0,.25.84Zm-.51-1.8c-.72.14-1.49.45-1.33,1.15a.58.58,0,0,0,.67.49h.08a.92.92,0,0,0,.73-.8,1.48,1.48,0,0,0,0-.21Z" transform="translate(-1.89 -48.92)" style="fill:#fff"/><path id="eac7d333-6d9b-41bd-b9b6-44ff71da1ff9" data-name="Trazado 1364" d="M108.2,193.84c-.08-.37-.16-.67-.24-1l.56-.13.16.57h0a1.28,1.28,0,0,1,1-.91,1.08,1.08,0,0,1,1.17.49h0a1.33,1.33,0,0,1,.29-.55,1.2,1.2,0,0,1,.73-.43c.47-.11,1.24,0,1.53,1.28l.47,2.1-.63.15-.46-2c-.16-.69-.5-1-1-.93a.87.87,0,0,0-.63.77,1.22,1.22,0,0,0,0,.33l.5,2.21-.63.14-.49-2.13c-.12-.57-.47-.93-1-.82a.92.92,0,0,0-.66.84.85.85,0,0,0,0,.32l.49,2.16-.64.14Z" transform="translate(-1.89 -48.92)" style="fill:#fff"/><path id="f6d0354e-dc67-4748-8276-333ee0789ca0" data-name="Trazado 1365" d="M116.92,194.6l-.15-.43h0a1.37,1.37,0,0,1-1,.78,1,1,0,0,1-1.3-.69.29.29,0,0,1,0-.09c-.2-.86.46-1.51,1.84-1.81v-.07a.77.77,0,0,0-.83-.69l-.17,0a1.83,1.83,0,0,0-.87.48l-.24-.4a2.26,2.26,0,0,1,1.1-.58,1.3,1.3,0,0,1,1.63.85,1.59,1.59,0,0,1,.06.3l.3,1.34a4.78,4.78,0,0,0,.25.84Zm-.51-1.8c-.71.15-1.48.46-1.33,1.15a.6.6,0,0,0,.68.5l.08,0a.9.9,0,0,0,.72-.79.81.81,0,0,0,0-.22Z" transform="translate(-1.89 -48.92)" style="fill:#fff"/><path id="e31746c9-a273-4883-967c-bfe882f58de1" data-name="Trazado 1366" d="M120.4,188.31l1,4.31c.07.32.16.68.24.92l-.58.13-.17-.61h0a1.36,1.36,0,0,1-1.06,1,1.67,1.67,0,0,1-1.92-1.37s0-.07,0-.1a1.75,1.75,0,0,1,1.05-2.24l.12,0a1.2,1.2,0,0,1,1.2.3h0l-.49-2.13Zm.06,3.26a1.14,1.14,0,0,0-.09-.26,1,1,0,0,0-1.11-.54c-.67.15-.93.83-.76,1.62s.66,1.24,1.36,1.08a1,1,0,0,0,.77-1,1,1,0,0,0,0-.29Z" transform="translate(-1.89 -48.92)" style="fill:#fff"/><path id="fe1d66ad-f6ff-483b-a0a4-0d5c5fb92e67" data-name="Trazado 1367" d="M124.64,192.85l-.15-.44h0a1.37,1.37,0,0,1-1,.78,1,1,0,0,1-1.31-.7s0-.05,0-.08c-.19-.86.47-1.51,1.85-1.81l0-.08a.76.76,0,0,0-.82-.68l-.18,0a1.83,1.83,0,0,0-.87.48l-.24-.4a2.35,2.35,0,0,1,1.1-.58,1.29,1.29,0,0,1,1.63.84,1.7,1.7,0,0,1,.06.31l.3,1.34a5.09,5.09,0,0,0,.26.84Zm-.51-1.8c-.72.15-1.49.46-1.33,1.15a.58.58,0,0,0,.66.5l.09,0a.92.92,0,0,0,.73-.79.81.81,0,0,0,0-.22Z" transform="translate(-1.89 -48.92)" style="fill:#fff"/><path id="b2b3e066-c9cf-4913-96d5-29e2b7224990" data-name="Trazado 1368" d="M129.85,189.22l-1.93.44.4,1.79,2.16-.48.12.53-2.8.64-1.12-5,2.68-.61.12.54-2,.46.36,1.58,1.93-.44Z" transform="translate(-1.89 -48.92)" style="fill:#fff"/><path id="b879378a-caf3-413f-8549-9b94e2175e71" data-name="Trazado 1369" d="M130.82,188.71c-.08-.36-.16-.67-.25-1l.58-.13.17.58h0a1.35,1.35,0,0,1,1-.94c.5-.11,1.33,0,1.61,1.23l.48,2.14-.65.14-.47-2.06c-.13-.57-.45-1-1.06-.86a.92.92,0,0,0-.72.86,1.08,1.08,0,0,0,0,.31l.49,2.15-.65.15Z" transform="translate(-1.89 -48.92)" style="fill:#fff"/><path id="b2399e7d-db61-4bc6-bf77-63b84cdc099b" data-name="Trazado 1370" d="M135.22,185.62l.23,1,.93-.21.11.49-.93.22.44,1.92c.1.45.28.67.64.59a1.47,1.47,0,0,0,.37-.13l.14.48a1.63,1.63,0,0,1-.55.22,1,1,0,0,1-.77-.11,1.43,1.43,0,0,1-.46-.88l-.44-1.94-.55.12-.11-.49.55-.13-.19-.86Z" transform="translate(-1.89 -48.92)" style="fill:#fff"/><path id="abcdc658-8e52-4260-8469-19a4f4b01159" data-name="Trazado 1371" d="M137.36,187.39c-.09-.42-.18-.78-.28-1.11l.57-.13.18.7h0a1.1,1.1,0,0,1,.81-1l.19,0,.14.61a1.6,1.6,0,0,0-.23,0,.92.92,0,0,0-.68,1,1.55,1.55,0,0,0,0,.31l.43,1.91-.64.14Z" transform="translate(-1.89 -48.92)" style="fill:#fff"/><path id="a3e3b092-271a-4c72-895a-b643392140f5" data-name="Trazado 1372" d="M142.27,188.86l-.15-.44h0a1.37,1.37,0,0,1-1,.78,1.06,1.06,0,0,1-1.31-.7.24.24,0,0,0,0-.08c-.19-.87.47-1.51,1.85-1.82l0-.07a.75.75,0,0,0-.82-.68.58.58,0,0,0-.18,0,1.86,1.86,0,0,0-.87.47l-.24-.39a2.28,2.28,0,0,1,1.1-.59,1.3,1.3,0,0,1,1.63.85.81.81,0,0,1,.06.31l.3,1.33a5.2,5.2,0,0,0,.26.85Zm-.51-1.8c-.71.14-1.49.45-1.33,1.15a.59.59,0,0,0,.68.49h.07a.91.91,0,0,0,.73-.8.5.5,0,0,0,0-.21Z" transform="translate(-1.89 -48.92)" style="fill:#fff"/><path id="a17179e7-10c4-4c5e-8c54-59f5d402482d" data-name="Trazado 1373" d="M143.26,185.9c-.08-.37-.16-.67-.25-1l.58-.13.17.59h0a1.35,1.35,0,0,1,1-.94c.49-.11,1.33,0,1.61,1.24l.48,2.13-.65.15-.47-2.06c-.13-.58-.45-1-1.06-.87a.94.94,0,0,0-.72.86,1.06,1.06,0,0,0,0,.31l.49,2.15-.65.15Z" transform="translate(-1.89 -48.92)" style="fill:#fff"/><path id="bbf170ea-c01e-4afb-9710-00df2aa16384" data-name="Trazado 1374" d="M147.65,182.81l.24,1,.93-.21.11.49-.93.21.43,1.93c.11.44.29.66.65.58a1.6,1.6,0,0,0,.37-.12l.14.48a1.82,1.82,0,0,1-.56.22.93.93,0,0,1-.76-.12,1.34,1.34,0,0,1-.46-.87l-.44-1.95-.56.13-.11-.5.55-.12-.19-.86Z" transform="translate(-1.89 -48.92)" style="fill:#fff"/><path id="b79ac2e7-4ea5-49e8-aaa7-ce60460d746a" data-name="Trazado 1375" d="M150.29,185.29a1.18,1.18,0,0,0,1.33,1l.18,0a2.52,2.52,0,0,0,.95-.41l.21.44a2.93,2.93,0,0,1-1.13.49,1.69,1.69,0,0,1-2.11-1.16,2,2,0,0,1-.05-.24,1.79,1.79,0,0,1,1.1-2.27l.13,0a1.56,1.56,0,0,1,1.84,1.2.77.77,0,0,1,0,.15,2.87,2.87,0,0,1,.05.31Zm1.8-.9a1,1,0,0,0-1-.87l-.12,0a1.1,1.1,0,0,0-.75,1.28Z" transform="translate(-1.89 -48.92)" style="fill:#fff"/></g><g id="b29a578d-5a8d-4ebf-a2ee-3bfd9948a897" data-name="Grupo 660"><path id="b6a94b11-d198-4db6-9021-a5dd095506d9" data-name="Trazado 1376" d="M138.54,71.76l.94,3.94a.11.11,0,0,1-.08.13h0l-.41.09a.09.09,0,0,1-.13-.07h0l-.94-4a.11.11,0,0,1,.07-.13h0l.42-.1a.12.12,0,0,1,.13.08Z" transform="translate(-1.89 -48.92)" style="fill:#fff"/><path id="abdbbe0f-e7b0-40c0-8e31-1827e8d71275" data-name="Trazado 1377" d="M137.71,72.84l.74,3.11a.1.1,0,0,1-.08.13h0l-.41.1a.12.12,0,0,1-.13-.07h0L137.09,73a.09.09,0,0,1,.07-.13h0l.41-.1a.11.11,0,0,1,.13.08Z" transform="translate(-1.89 -48.92)" style="fill:#fff"/><path id="a1e8fbb0-b9fd-4f0d-ba10-9f17ca641318" data-name="Trazado 1378" d="M136.82,73.71l.6,2.49a.11.11,0,0,1-.08.13h0l-.41.1a.11.11,0,0,1-.13-.08h0l-.6-2.49a.11.11,0,0,1,.08-.13h0l.41-.1a.1.1,0,0,1,.13.07Z" transform="translate(-1.89 -48.92)" style="fill:#fff"/><path id="b2f09e67-af75-41ea-a063-19f292c3f23b" data-name="Trazado 1379" d="M135.94,74.58l.45,1.86a.11.11,0,0,1-.08.13h0l-.41.09a.1.1,0,0,1-.13-.07h0l-.45-1.87a.11.11,0,0,1,.08-.13h0l.41-.1a.1.1,0,0,1,.13.07Z" transform="translate(-1.89 -48.92)" style="fill:#fff"/></g><g id="ba96b0ee-1ccd-46f5-a02e-68ac4dbc0959" data-name="Grupo 669"><g id="bf496acb-9ced-4cb4-a1c4-4ed9864e67b2" data-name="Grupo 662"><g id="b34ab1c1-fbd1-4299-aab3-c474470fef0d" data-name="Grupo 661"><path id="f42a5548-a6ca-4dd0-9e6c-d1a101b92a2b" data-name="Trazado 1380" d="M132.39,76.75a.44.44,0,1,0,.2.85.44.44,0,0,0-.2-.85Z" transform="translate(-1.89 -48.92)" style="fill:#fff"/></g></g><g id="ebe6c933-4818-4217-8ea2-735318aa1d13" data-name="Grupo 664"><g id="a8135425-afa6-46e9-93ef-1da2237f8091" data-name="Grupo 663"><path id="e7739637-c5bc-47b2-a8c8-a8e88e65ff18" data-name="Trazado 1381" d="M133.29,75.94a1.5,1.5,0,0,0-2.07.47.29.29,0,0,0,.15.39.31.31,0,0,0,.35-.08.92.92,0,0,1,1.26-.29.29.29,0,0,0,.22,0,.31.31,0,0,0,.19-.13A.29.29,0,0,0,133.29,75.94Z" transform="translate(-1.89 -48.92)" style="fill:#fff"/></g></g><g id="a320fbb5-779c-462d-9069-93b6653b5a09" data-name="Grupo 666"><g id="bbd3ab6d-1dbd-455c-9af9-1bbd9304daab" data-name="Grupo 665"><path id="eb37b557-a5aa-47c5-835a-a49dbbe4a8eb" data-name="Trazado 1382" d="M134.33,74.3a3.47,3.47,0,0,0-4.75,1.08.3.3,0,0,0,.16.39.29.29,0,0,0,.34-.08A2.87,2.87,0,0,1,134,74.8a.35.35,0,0,0,.22,0,.33.33,0,0,0,.19-.13A.31.31,0,0,0,134.33,74.3Z" transform="translate(-1.89 -48.92)" style="fill:#fff"/></g></g><g id="ae0083b0-eacf-4295-b0f2-bd5e7376c98b" data-name="Grupo 668"><g id="ba3c125b-3273-4e36-a1cf-7d7e8176275a" data-name="Grupo 667"><path id="e9dd66b0-9c07-4cc5-b773-df48a7852886" data-name="Trazado 1383" d="M133.8,75.14a2.46,2.46,0,0,0-3.38.77.31.31,0,0,0,.11.41.37.37,0,0,0,.21,0,.29.29,0,0,0,.18-.13,1.86,1.86,0,0,1,2.57-.58.3.3,0,0,0,.41,0,.29.29,0,0,0,0-.42.18.18,0,0,0-.07,0Z" transform="translate(-1.89 -48.92)" style="fill:#fff"/></g></g></g><g id="a775e35e-6730-40ab-9d0a-14634004a606" data-name="Grupo 670"><path id="f472b025-2fff-42e7-bea2-15a16e468201" data-name="Trazado 1384" d="M66.44,93.72a1.2,1.2,0,0,1,.5-1.28h0a1,1,0,0,1-.87-.73A1.15,1.15,0,0,1,67,90.32H67a1.06,1.06,0,0,1,1.39.59.19.19,0,0,1,0,.08,1,1,0,0,1-.4,1.11v0a1.15,1.15,0,0,1,1.08.81,1.27,1.27,0,0,1-1,1.51h-.08A1.22,1.22,0,0,1,66.44,93.72Zm.12-2.19c.11.4.47.53,1,.53a.8.8,0,0,0,.41-.88.64.64,0,0,0-.76-.5l-.08,0a.65.65,0,0,0-.54.75S66.56,91.51,66.56,91.53Zm2,1.59c-.13-.48-.53-.62-1.11-.63a.9.9,0,0,0-.5,1,.76.76,0,0,0,.91.57L68,94a.74.74,0,0,0,.62-.85s0,0,0-.07Z" transform="translate(-1.89 -48.92)" style="fill:#fff"/><path id="a56e6dbc-8300-479a-8aa7-1789180bd9a4" data-name="Trazado 1385" d="M70,91.2a.38.38,0,0,1,.23-.48.38.38,0,0,1,.49.23s0,0,0,0a.38.38,0,1,1-.73.21Zm.58,2.16a.38.38,0,0,1,.26-.47.37.37,0,0,1,.46.27h0a.38.38,0,0,1-.73.2Z" transform="translate(-1.89 -48.92)" style="fill:#fff"/><path id="a6fd6fca-933f-447d-98b2-fa85e698eadf" data-name="Trazado 1386" d="M72.52,89.46h0l-.59.56-.21-.38.75-.7.45-.12,1.07,4-.52.14Z" transform="translate(-1.89 -48.92)" style="fill:#fff"/><path id="bd46e9ca-33e6-4a33-b774-6d9106157912" data-name="Trazado 1387" d="M76.61,88.31l-1.52.41.12,1.06.32-.11a1.76,1.76,0,0,1,.91,0,1.17,1.17,0,0,1,.85.87,1.43,1.43,0,0,1-1,1.73l-.08,0a2,2,0,0,1-1.06,0l0-.44a1.87,1.87,0,0,0,.91,0,.91.91,0,0,0,.73-1.06s0,0,0-.06c-.14-.51-.59-.78-1.38-.57a4.27,4.27,0,0,0-.54.18l-.26-2,1.91-.51Z" transform="translate(-1.89 -48.92)" style="fill:#fff"/></g><g id="ed48faad-8907-4dbb-9396-f432b9357e4d" data-name="Grupo 672"><g id="bd7e647c-5dcb-40bf-98d9-b822faea38ff" data-name="Grupo 671"><path id="fb2e57a5-f948-41a2-9108-5c9e06810c44" data-name="Trazado 1388" d="M128,76.55l-.12,0,0-.13a.64.64,0,0,0-.75-.49h0l-4.17,1a.64.64,0,0,0-.47.77l.35,1.52a.62.62,0,0,0,.75.48h0l4.17-1a.64.64,0,0,0,.47-.78l0-.12.12,0a.39.39,0,0,0,.29-.47l-.12-.5A.38.38,0,0,0,128,76.55Zm-2.75,2.18a.12.12,0,0,1-.09.08l-1.72.41a.13.13,0,0,1-.15-.1L123,77.61a.13.13,0,0,1,.09-.16l1-.23a.12.12,0,0,1,.13,0l1.09,1.34a.12.12,0,0,1,0,.13Z" transform="translate(-1.89 -48.92)" style="fill:#fff"/></g></g></g></g></svg>