<svg id="f1f15309-d09f-49f9-9df1-5a24f6c1b18e" data-name="Capa 1" xmlns="http://www.w3.org/2000/svg" viewBox="0 0 396.73 318.59"><g id="b2d24447-f8b7-4d27-a4bf-40f7a8c7f9f4" data-name="Grupo 716"><path id="a753cfd7-5e31-4b0d-a102-d522e72c82d9" data-name="Trazado 1341" d="M355.87,170.43a64.81,64.81,0,0,0-3.24-34.33,71.26,71.26,0,0,0-60-45.84,72.66,72.66,0,0,0-52.07,15.15c-13.86-34.84-48.83-58.8-88.2-58.8h-.78c-48.57.39-90.66,39-93.51,86.13a88.66,88.66,0,0,0,4,32.51C30,172.89,7,200.6,7,233.63c0,38.08,24.61,78.75,93.51,78.75H323.62c43.78,0,73.18-40.67,73.18-78.62C396.8,206.7,380.61,182.08,355.87,170.43Z" transform="translate(-0.07 -10.24)" style="fill:#97bff0"/><g id="a4f9508a-df9e-4167-9893-52fa575b998e" data-name="Grupo 30"><path id="bfde7fea-6252-42b4-a489-20f6adb336a2" data-name="Rectángulo 2" d="M3.68,312.2H393.19a3.76,3.76,0,0,1,3.61,3.88h0v8.86a3.76,3.76,0,0,1-3.61,3.89H3.68a3.75,3.75,0,0,1-3.61-3.89h0v-8.85a3.75,3.75,0,0,1,3.61-3.89Z" transform="translate(-0.07 -10.24)" style="fill:#3700b1"/><path id="a234a464-d99e-4503-b42e-65c5fda8c982" data-name="Trazado 41" d="M396.8,320.22v.39H.07v-.39c0-4.43,3.3-8,7.36-8h382C393.5,312.2,396.8,315.79,396.8,320.22Z" transform="translate(-0.07 -10.24)" style="fill:#542bd8"/></g><g id="f11e3f23-3460-4ca6-9541-d44a5856870f" data-name="Grupo 687"><g id="a7c60338-ad4b-4582-8451-7c215fc75ef7" data-name="Grupo 674"><path id="bb05b192-3b5f-4e50-9f87-ec300ab134d6" data-name="Trazado 1389" d="M70.45,258.8c8.19-3,17.1-3.48,25.84-4.07L147,168.14,130.9,163.2s-2.2,3.06-2.26,3.16L64.89,255a13.38,13.38,0,0,0-2.49,7.58A58.75,58.75,0,0,1,70.45,258.8Z" transform="translate(-0.07 -10.24)" style="fill:#febd95"/><path id="af4e90c0-6f3f-4fa6-b435-2ab75182bffd" data-name="Trazado 1390" d="M81.4,242.89c-1.4,7.65-2.76,15.39-1.93,23.07a54.3,54.3,0,0,0,1.79,8.82,13.17,13.17,0,0,0,2.86-1L136,247.47l21.89-11.09L160.81,198l3.16-7.73Z" transform="translate(-0.07 -10.24)" style="fill:#febd95"/><path id="efc424de-25fd-486e-a283-33fda609c80e" data-name="Trazado 1391" d="M71.58,246.07l-.24.33c-4.79,6.66-13.37,15.75-6.18,23.39,5.18,5.5,11.81,5.41,16.69,4.57,4.63-.8,15.77-7.57,19.75-9.59l4.55-2.31C104.39,259.69,72,246.22,71.58,246.07Z" transform="translate(-0.07 -10.24)" style="fill:#febd95"/><path id="f30a7202-4498-4ec0-a9a6-7e1e26df0f25" data-name="Trazado 1392" d="M84.9,263a11.88,11.88,0,0,1-1.38.39,2.54,2.54,0,0,1-1.42,0C83.48,263.25,84.56,263.09,84.9,263Z" transform="translate(-0.07 -10.24)" style="fill:#febd95;opacity:0.5;isolation:isolate"/><path id="aa4643ee-55d6-4aa7-9543-b2798b4c8160" data-name="Trazado 1393" d="M168.34,231l-25.1,12.75L101,265.19c-4,2-15.06,9.28-19.76,9.59-4.87.32-10.91.51-16.09-5-7.19-7.64.79-16.3,5.58-23l9.82-13.65,25.23-35.07,19.8-27.53c1-1.4,2.08-2.79,3-4.23L76.41,244.87c-2.57,3.86-4.67,7.19-5.21,12-.76,6.87,6.11,7.79,11,6.84,5.52-1.07,12.79-5.41,17.44-8.57a240.31,240.31,0,0,1,20.89-13.24c7.31-4,14.64-8,21.94-12.07,3.9-2.16,8-4.19,11.68-6.68,1.8-1.22,3.64-2.39,5.41-3.68,2.62-1.91,3.52,2.56,4.48,4.69C164.41,224.88,167.12,231.62,168.34,231Z" transform="translate(-0.07 -10.24)" style="fill:#febd95;opacity:0.5;isolation:isolate"/></g><path id="b2e48aeb-0dcb-4409-80e6-982b333b52d7" data-name="Trazado 1394" d="M190.86,170.31c1-.07,6.84-1.39,7.49-.95s24-.09,24-.09l15.49,1-27.9,48.77L193.12,218C185,200.54,182.38,184.25,190.86,170.31Z" transform="translate(-0.07 -10.24)" style="fill:#febd95"/><g id="aacd0b03-6df9-4a15-8e75-60278163fe18" data-name="Grupo 675"><path id="b500b67a-6f9e-4c04-b4c9-7011ca9a2c39" data-name="Trazado 1481" d="M159.18,218.46c-.42,0-3.12,6.26-3.41,6.87a64.93,64.93,0,0,0-3.66,9.29,38.85,38.85,0,0,0-1.05,19.7c2.93,12.87,12.69,23.27,16,36.39,1.66,6.55,4.75,14.11,6.67,21.64h81.89c.27-15.62,4.56-31.57,6.58-46.54,3.18-23.4,12.25-60.88,38.64-67.81-6.19-21.88-60.52-30.6-68.06-31-.23,0-.46.21-.71.59-3.62,5.25-11.79,43.18-31.9,41.75-12.24-.62-5.52-41.17-6.85-42-.81-.55-4.43.41-5.44.56-5.36.72-11.9.84-15.9,4.58-14.37,13.44-29.32,27.63-29.32,27.63S158.18,218.11,159.18,218.46Z" transform="translate(-0.07 -10.24)" style="fill:#367696"/></g><path id="a2dab6c7-430a-4f67-9480-9692a5ef0932" data-name="Trazado 1482" d="M240.87,281.86c3.89,6.37,3.45,14,3.47,21.24a33.55,33.55,0,0,1-1.18,9.25h12.43c.27-15.62,4.56-31.57,6.58-46.54,3.19-23.4,12.25-60.89,38.64-67.82-4.67-16.49-32.27-23.39-46.59-27.18,9.89,6.51,10.62,12.67,11.16,28.31.31,9.88-3.35,16.92-5,26.17-1.34,7.41,1.73,14.94.87,22.27-1,8.35-6.69,17.21-14.88,20.14-6.72,2.4-16,1-23.38-.25C230.05,269.28,237.37,276.15,240.87,281.86Z" transform="translate(-0.07 -10.24)" style="fill:#367696;opacity:0.30000001192092896;isolation:isolate"/><g id="af7f7e82-7348-4f77-b4ff-b56c537f1879" data-name="Grupo 676"><path id="a964522d-a0fa-4ccc-9be3-42007566a56c" data-name="Trazado 1483" d="M210.05,312.35a13.08,13.08,0,0,0-7.54,0Z" transform="translate(-0.07 -10.24)" style="fill:#699cb5"/></g><g id="aeb49201-367c-4d13-84fd-07d488f7e537" data-name="Grupo 684"><path id="b8d4ff47-d9bf-4c36-a99b-482c6a8c05aa" data-name="Trazado 1401" d="M267.13,86.23,158.33,111.5c-1.9.44.4,12.51.72,13.88,1.33,5.65,3.74,11,6.2,16.2,9,19.15,22.49,24,42.64,23.48,19.93-.53,43.23-.72,52.65-35.2C264.42,115.65,267.73,101.13,267.13,86.23Z" transform="translate(-0.07 -10.24)" style="fill:#73340a"/><g id="bb4520af-166e-4df5-a30c-8446b707ac32" data-name="Grupo 677"><path id="abcdfd78-c39e-4df2-a14f-ade1f0a03265" data-name="Trazado 1402" d="M221.38,170.66c0,7.34-23.42,7.34-23.42,0V153.72h23.42Z" transform="translate(-0.07 -10.24)" style="fill:#febd95"/><path id="e21acea4-51ef-4502-a647-cc4fb481bb93" data-name="Trazado 1403" d="M221.38,153.72H198V161c8.25.37,17.89,4.61,22.42,12.09C221.93,171.38,221.38,170.93,221.38,153.72Z" transform="translate(-0.07 -10.24)" style="fill:#febd95;opacity:0.5;isolation:isolate"/></g><g id="a768aabe-5a74-4e16-bb9b-1c0cdd501953" data-name="Grupo 682"><g id="af033426-7589-4058-b19a-71117ec77dbe" data-name="Grupo 678"><path id="bb84c703-ac6a-4cdd-8cd2-2a714a2828bc" data-name="Trazado 1404" d="M152.79,98.08c0,5.2,3.51,9.42,7.82,9.42s4.33-18.85,0-18.85S152.79,92.88,152.79,98.08Z" transform="translate(-0.07 -10.24)" style="fill:#febd95"/><path id="b361a44d-93b0-412d-9881-806a40ed1e3e" data-name="Trazado 1405" d="M155.23,98.08c0,2.9,2,5.27,4.37,5.27s2.42-10.54,0-10.54S155.23,95.17,155.23,98.08Z" transform="translate(-0.07 -10.24)" style="fill:#febd95"/></g><path id="b2f178a0-ce24-4640-8776-56da09c3d4e2" data-name="Trazado 1406" d="M257.57,83.91,256.35,94.5c-3.55,30.37-2.61,28.72-4.48,33.62-10.12,26.37-36.05,38.09-50.5,35.09-18.39-3.75-34.85-24.08-41.4-46.87V83.91a35.17,35.17,0,0,1,35.15-35.19h27.26a35.27,35.27,0,0,1,7.46.79l.36.1A35.16,35.16,0,0,1,257.57,83.91Z" transform="translate(-0.07 -10.24)" style="fill:#febd95"/><g id="fe32567d-97a1-4255-b954-8368b906c78d" data-name="Grupo 679"><path id="bbf05cd5-318d-463e-8474-2d290eb53008" data-name="Trazado 1407" d="M176.91,91.48a.93.93,0,0,1-.38-1.71c.26-.17,6.66-4.14,13.37-.56a.93.93,0,0,1-.87,1.65c-5.74-3.06-11.45.45-11.5.48A.91.91,0,0,1,176.91,91.48Z" transform="translate(-0.07 -10.24)" style="fill:#4e2a21"/></g><g id="f3eee649-89c0-4dcc-add2-a0585d82ae64" data-name="Grupo 680"><path id="bbd81b69-c78c-4534-b75b-cdd5d23f26ce" data-name="Trazado 1408" d="M228.13,91.5a1,1,0,0,1-.61-.14c-.06,0-5.76-3.56-11.5-.52a.94.94,0,0,1-.88-1.65h0c6.72-3.56,13.11.42,13.38.59a1,1,0,0,1,.29,1.29A1,1,0,0,1,228.13,91.5Z" transform="translate(-0.07 -10.24)" style="fill:#4e2a21"/></g><path id="a824412f-529e-4119-b884-84d4381fddec" data-name="Trazado 1409" d="M256.34,94.5c-3.54,30.37-2.6,28.72-4.48,33.62-10.11,26.37-36,38.09-50.49,35.09C235,157.69,256,121.09,246.51,94.07c-4.12-11.66-13.62-20.43-22.78-28.73a46.49,46.49,0,0,1-24.2,10.35L206.84,70c-10.14,4.86-20.38,9.77-29,17S162.14,103.91,160.57,115c.32-2.17-.19-4.68-.1-6.89a66.37,66.37,0,0,1,.72-7.18A63.24,63.24,0,0,1,165,87.12a69.17,69.17,0,0,1,3.06-6.52c.75-1.45,1.13-3,1.86-4.46,1.75-3.45,6.05-6.38,9-8.76a92.41,92.41,0,0,1,39.79-18.66,81.67,81.67,0,0,1,8.65-1.3l.27,0c.88.7,1.73,1.43,2.57,2.23,7.78,7.17,13,16.82,18.05,26.23,2.74,5.1,5.5,10.22,7.25,15.73C255.83,92.54,256.09,93.51,256.34,94.5Z" transform="translate(-0.07 -10.24)" style="fill:#febd95;opacity:0.5;isolation:isolate"/><path id="efa55691-c60d-47c7-9cfb-ba785df5db66" data-name="Trazado 1410" d="M187.93,104.42c0,3.31-1.79,6-4,6s-4-2.69-4-6,1.78-6,4-6S187.93,101.11,187.93,104.42Z" transform="translate(-0.07 -10.24)" style="fill:#4e2a21"/><path id="b2b4b856-814d-4583-b56f-c5f08512177f" data-name="Trazado 1411" d="M221.6,103.86c0,3.32-1.78,6-4,6s-4-2.68-4-6,1.78-6,4-6S221.6,100.55,221.6,103.86Z" transform="translate(-0.07 -10.24)" style="fill:#4e2a21"/><path id="b7ee8cf2-e9cb-42f8-9cd8-c629aa52ece0" data-name="Trazado 1412" d="M189.57,134h34.37s-5.15,13.8-18.9,13.8C193,147.76,189.57,134,189.57,134Z" transform="translate(-0.07 -10.24)" style="fill:#fff"/><g id="aa7606ec-0180-4b98-a054-8b199b9e4a3a" data-name="Grupo 681"><path id="aed4eb57-a4db-4a29-9262-66349b06bd29" data-name="Trazado 1413" d="M256.08,107.5c-4.32,0-4.32-18.85,0-18.85C266.42,88.65,266.43,107.5,256.08,107.5Z" transform="translate(-0.07 -10.24)" style="fill:#febd95"/><path id="a5632e59-20eb-4c4d-adae-6f7ee7c5f61c" data-name="Trazado 1414" d="M256.08,107.5c-4.32,0-4.32-18.85,0-18.85C266.42,88.65,266.43,107.5,256.08,107.5Z" transform="translate(-0.07 -10.24)" style="fill:#febd95;opacity:0.30000001192092896;isolation:isolate"/><path id="b3098680-61b5-4cbf-9737-d919692c5749" data-name="Trazado 1415" d="M257.09,103.35c-2.42,0-2.42-10.54,0-10.54C262.87,92.81,262.87,103.35,257.09,103.35Z" transform="translate(-0.07 -10.24)" style="fill:#febd95"/></g></g><g id="a3acad26-e62c-43c8-8c04-126bdb6a4d88" data-name="Grupo 683"><path id="b42b1436-4456-480f-b140-8bf97c178370" data-name="Trazado 1416" d="M236.53,27.24a12.51,12.51,0,0,1,.85,4.18c.35,11.54-8.88,20.72-15.54,29.15a35.56,35.56,0,0,1-5.46,6,56.25,56.25,0,0,1-8.71,5.62c-2.78,1.49-6.53,3.6-9.78,3.43,2.91-1.4,5.58-4.31,7.67-6.74s4.84-5.56,5.13-8.89c-.11,1.3-2.8,3.72-3.66,4.7A32.81,32.81,0,0,1,202.77,69a73.76,73.76,0,0,1-8,5.33,58,58,0,0,1-5.62,2.42c-7.29,3.28-14.61,6.63-18.55,14.16a22.78,22.78,0,0,1,5.09-13.54c-2.91,2.27-5.24,6.1-7.3,9.17-7.83,11.65-7.59,22-7.09,35.4a52.66,52.66,0,0,0,4.39,18.72c3.16,7.12,8.65,12.13,13.09,18.05-12.55-6.6-20.85-20.1-27.89-31.9C132.5,96,131.55,58.19,155.13,29.84c14.07-16.92,37.2-22.71,58.24-18C221.36,13.57,233.26,18.77,236.53,27.24Z" transform="translate(-0.07 -10.24)" style="fill:#d16d2b"/><path id="e1073759-71fc-4236-ab47-6563b66af39d" data-name="Trazado 1417" d="M230.37,68.88c7.65,9.64,19.47,18.33,23.9,29.51-1.33-3.36,1.61-9.2,5.8-8,4,1.17,3.61,7.24,3.09,10.33-2.14,12.75.11,17.56-10,46.25C275.55,118.21,279,67.7,267.37,44c-6.75-13.81-26.91-24.2-36.71-7.17C224.63,47.25,222.39,58.85,230.37,68.88Z" transform="translate(-0.07 -10.24)" style="fill:#d16d2b"/><path id="e81bb5bb-ed04-4772-a250-ee7d9684be86" data-name="Trazado 1418" d="M193.14,19.89a35.92,35.92,0,0,0-18.63,4.84c-11.62,7.19-21.7,20.15-21.1,34.17,0-2,7.89-11,15.56-12-3.74,2.51-5.13,6.29-5.46,10.61.08-1.13,5.69-4.48,6.75-5.1,2.06-1.2,5.84-2.93,8.27-2.44.23,4.18-4.08,8-6.17,11.28,3-2.13,9.1-8.23,13.43-6.84s-4.92,10-6,11.2l-10.56,11.5c-2.5,2.72-6.16,6.59-6.59,10.42.26-3.42,7.28-8.32,9.8-10.31,3.91-3.08,8.42-5.43,12.75-7.87,7.17-4.07,14.64-8.42,21-13.72,5.74-4.78,10.4-9.47,14.09-16a17.48,17.48,0,0,0,2.65-8.48c-1,.27-1.87,1.48-2.68,2.17a44.42,44.42,0,0,1-9.2,6.16c-2.63,1.28-5.4,2.07-8.09,3.18a17.51,17.51,0,0,1-4,1.49c3-1.83,6.66-7.95,7-11.54-2.22,1.44-4,3.64-5.88,5.45a41.78,41.78,0,0,1-9.35,6.4c2.22-2.86,4.62-5.51,6.16-8.82.6-1.3,1-2.63,1.52-4a40.42,40.42,0,0,0,1-4.21c-2.13,1-4.44,3-6.47,4.37-2.42,1.61-6,5.08-9.09,5.12,3.09-3.24,4.7-7,8.68-9.51-5.14-.25-9.12,4.87-13.67,6.34a62.13,62.13,0,0,1,5.31-7.38C186.71,23.38,189.74,21.75,193.14,19.89Z" transform="translate(-0.07 -10.24)" style="fill:#e68c50"/><path id="bc2fdf9f-523d-488b-a6c8-532dabc42e67" data-name="Trazado 1419" d="M248.15,71.61c.77-3.07-.09-6.8-1.37-9.71,2.51.5,4.51,4.33,5.52,6.61.31-4.41-2.5-7.75-4.49-11.39,2.35,1,3.83,3.13,5.28,5.16a11,11,0,0,0-1.55-7.2c2.74,1.89,5.39,3.7,7.21,6.59,1.15,1.84,1.54,4,2.47,5.87.82-10.63-5-20.81-11.71-28.61a64.12,64.12,0,0,0-5.14-4.74c3.15,3,8.1,10.85,7.32,15.54a69.83,69.83,0,0,0-8.93-8.26c1.84,2.68,2.44,6.16,4.17,8.85-2.54.57-4.71-2.11-5.88-4.08-.1,3.22,1.95,5.59,2.22,8.57.06.67-3.25-.68-3.48-.85A10.13,10.13,0,0,1,237,50.4c-1.69-3.2-2.78-10.24-2.78-10.24s-.44,4.07-.39,6.14c.16,6.27,2.26,12.09,7.14,16.22C244,65.06,247,67.7,248.15,71.61Z" transform="translate(-0.07 -10.24)" style="fill:#e68c50"/></g></g><path id="b7e861e5-25e1-43be-af9f-29cb7a023719" data-name="Trazado 1484" d="M270.57,266.47l6.89,45.88h27.27c-.17-25.25-1.82-46.47-2.56-64.18-2-48.32-6.16-53.34-6.16-53.34-23.5,4.73-30.65,36.88-30.65,36.88l5.16,34.38Z" transform="translate(-0.07 -10.24)" style="fill:#febd95"/><g id="ed3a958e-b39e-4a23-9d6d-e47e3e653b69" data-name="Grupo 685"><path id="a60d7012-6694-49a8-a6ea-364e904682f6" data-name="Trazado 1421" d="M141.89,91.76s-7.23,1.81-4.91,14.39S152,156.53,152,156.53s5.41,4.95,8.63,3.84,2.56-8.34,2.56-8.34Z" transform="translate(-0.07 -10.24)" style="fill:#161c4f"/><path id="b6df0960-51e3-4509-8248-2a9ce49988a8" data-name="Trazado 1422" d="M164.54,155.73a6.17,6.17,0,0,1-3.29,1.28,17.38,17.38,0,0,1-4.83-.11c-1.43-.19-3.18-.64-3.3-2.49s2.07-2.63,3.33-3.29c2.06-1.07,5.19-2.6,7.7-1.43a3.37,3.37,0,0,1,1.47,4.39A4.06,4.06,0,0,1,164.54,155.73Z" transform="translate(-0.07 -10.24)" style="fill:#febd95"/><path id="af321438-d5ff-426c-a1d9-720aedaa7014" data-name="Trazado 1423" d="M164.81,147.67a3.81,3.81,0,0,1-.69.7c-2.41,1.8-6.14,1.95-9,1.94-1.73,0-3.85-.27-4.21-2.52s2.14-3.58,3.57-4.6c2.32-1.65,5.86-4,9-3C166.36,141.12,166.44,145.5,164.81,147.67Z" transform="translate(-0.07 -10.24)" style="fill:#febd95"/><path id="b0c064c5-b38a-42cf-902f-44df6287f97c" data-name="Trazado 1424" d="M161.32,138.66a3.49,3.49,0,0,1-.57.81c-2.1,2.21-5.7,3-8.48,3.42-1.69.28-3.79.37-4.45-1.83s1.59-3.95,2.84-5.21c2-2,5.13-5,8.31-4.51C161.92,131.82,162.61,136.21,161.32,138.66Z" transform="translate(-0.07 -10.24)" style="fill:#febd95"/><path id="f877b664-e7c9-42f9-8398-9e30f5223447" data-name="Trazado 1425" d="M155.5,132a2.88,2.88,0,0,1-.5.7c-1.82,1.92-4.95,2.58-7.37,3-1.47.25-3.29.33-3.87-1.59s1.38-3.43,2.47-4.53c1.76-1.77,4.46-4.36,7.23-3.92C156,126.1,156.62,129.92,155.5,132Z" transform="translate(-0.07 -10.24)" style="fill:#febd95"/><path id="e813816d-8a3b-43a0-a0fb-06dbb0701a58" data-name="Trazado 1426" d="M130.9,163.2a8.45,8.45,0,0,0,3.94,6.07c3.68,2.28,8.26,3.87,8.81,3.79s8-2.32,11.58-6,7.15-8.34,7.15-8.34l-.43-8.39-1.49-5.19-5.23-8-4.35-7.93s-5,0-8.25,2.06-6.27,7.22-7.35,10.46S130.9,163.2,130.9,163.2Z" transform="translate(-0.07 -10.24)" style="fill:#febd95"/></g></g></g></svg>