<svg xmlns="http://www.w3.org/2000/svg" width="396.732" height="328.446" viewBox="0 0 396.732 328.446">
  <g id="Grupo_716" data-name="Grupo 716" transform="translate(0 28.378)">
    <path id="Trazado_1341" data-name="Trazado 1341" d="M593.249,490.431a64.806,64.806,0,0,0-3.239-34.322,71.284,71.284,0,0,0-59.967-45.849,72.686,72.686,0,0,0-52.065,15.154c-13.858-34.841-48.827-58.8-88.2-58.8H389c-48.568.388-90.661,38.985-93.511,86.129a88.768,88.768,0,0,0,4.016,32.508c-32.12,7.642-55.173,35.358-55.173,68.384,0,38.078,24.608,78.746,93.509,78.746H561c43.776,0,73.177-40.668,73.178-78.615C634.176,526.7,617.986,502.087,593.249,490.431Z" transform="translate(-237.444 -348.768)" fill="#97bff0"/>
    <g id="Grupo_30" data-name="Grupo 30" transform="translate(0 283.434)">
      <path id="Rectángulo_2" data-name="Rectángulo 2" d="M262.607,923.86H652.123a3.756,3.756,0,0,1,3.607,3.888h0v8.858a3.756,3.756,0,0,1-3.607,3.888H262.607A3.755,3.755,0,0,1,259,936.606h0v-8.856a3.757,3.757,0,0,1,3.608-3.889h0Z" transform="translate(-258.998 -923.86)" fill="#3700b1"/>
      <path id="Trazado_41" data-name="Trazado 41" d="M655.728,931.887v.382H259v-.382c0-4.433,3.3-8.027,7.361-8.028h382C652.429,923.859,655.727,927.453,655.728,931.887Z" transform="translate(-258.996 -923.86)" fill="#542bd8"/>
    </g>
    <g id="Grupo_687" data-name="Grupo 687" transform="translate(-1652.729 26.318)">
      <g id="Grupo_674" data-name="Grupo 674" transform="translate(1710.99 103.251)">
        <path id="Trazado_1389" data-name="Trazado 1389" d="M1719.438,218.484c8.452-3.088,17.654-3.587,26.68-4.2l52.4-89.416-16.658-5.1s-2.276,3.155-2.34,3.259l-65.827,91.493a13.833,13.833,0,0,0-2.573,7.825A61.679,61.679,0,0,1,1719.438,218.484Z" transform="translate(-1711.002 -119.767)" fill="#febd95"/>
        <path id="Trazado_1390" data-name="Trazado 1390" d="M1732.556,204.985c-1.438,7.9-2.844,15.886-1.992,23.819a57.112,57.112,0,0,0,1.846,9.11,13.656,13.656,0,0,0,2.961-1.054l53.57-27.143,22.6-11.46,3.022-39.606,3.264-7.981Z" transform="translate(-1712.819 -122.693)" fill="#febd95"/>
        <path id="Trazado_1391" data-name="Trazado 1391" d="M1720.6,214.288l-.247.342c-4.948,6.881-13.8,16.265-6.381,24.153,5.352,5.685,12.194,5.588,17.232,4.716,4.787-.827,16.284-7.813,20.4-9.9l4.7-2.387C1754.485,228.353,1721,214.447,1720.6,214.288Z" transform="translate(-1711.003 -128.715)" fill="#febd95"/>
        <path id="Trazado_1392" data-name="Trazado 1392" d="M1736.486,233.65c-.475.167-.95.285-1.425.4a2.574,2.574,0,0,1-1.473-.024C1735.013,233.864,1736.13,233.7,1736.486,233.65Z" transform="translate(-1713.129 -130.548)" fill="#febd95" opacity="0.5" style="isolation: isolate"/>
        <path id="Trazado_1393" data-name="Trazado 1393" d="M1820.508,190.118l-25.922,13.163-43.611,22.147c-4.112,2.089-15.551,9.581-20.4,9.9-5.026.332-11.267.53-16.619-5.155-7.424-7.887.815-16.831,5.768-23.711l10.14-14.094,26.05-36.213,20.449-28.428c1.046-1.449,2.152-2.877,3.143-4.366,0,0-53.906,81.047-53.925,81.078-2.656,3.991-4.827,7.431-5.379,12.372-.793,7.1,6.3,8.047,11.4,7.062,5.7-1.1,13.2-5.578,18.007-8.847a246.6,246.6,0,0,1,21.572-13.671c7.542-4.176,15.114-8.3,22.658-12.469,4.027-2.228,8.239-4.318,12.058-6.891,1.853-1.259,3.754-2.471,5.582-3.8,2.708-1.972,3.635,2.637,4.633,4.846C1816.446,183.8,1819.25,190.759,1820.508,190.118Z" transform="translate(-1710.99 -120.107)" fill="#febd95" opacity="0.5" style="isolation: isolate"/>
      </g>
      <path id="Trazado_1394" data-name="Trazado 1394" d="M1857.085,127.761c.983-.072,7.055-1.435,7.732-.981s24.773-.091,24.773-.091l15.99,1.074-28.81,50.367L1859.415,177C1851.041,158.983,1848.321,142.156,1857.085,127.761Z" transform="translate(-13.319 -17.171)" fill="#febd95"/>
      <g id="Grupo_675" data-name="Grupo 675" transform="translate(1793.959 107.214)">
        <path id="Trazado_1481" data-name="Trazado 1481" d="M1819.725,177.247c-.433,0-3.221,6.461-3.522,7.089a67.3,67.3,0,0,0-3.782,9.6,40.093,40.093,0,0,0-1.08,20.337c3.026,13.291,13.1,24.034,16.488,37.584,1.716,6.763,4.909,14.565,6.892,22.345h84.557c.281-16.134,4.709-32.6,6.8-48.062,3.285-24.164,12.645-62.872,39.9-70.027-6.393-22.587-62.494-31.6-70.287-31.966-.237,0-.474.216-.734.606-3.738,5.426-12.167,44.587-32.936,43.119-12.645-.648-5.7-42.513-7.071-43.4-.84-.563-4.579.432-5.619.582-5.542.749-12.291.867-16.424,4.734-14.833,13.873-30.274,28.526-30.274,28.526S1818.688,176.879,1819.725,177.247Z" transform="translate(-1802.634 -124.144)" fill="#367696"/>
      </g>
      <path id="Trazado_1482" data-name="Trazado 1482" d="M1912.752,243.123c4.021,6.571,3.568,14.415,3.59,21.936a35.066,35.066,0,0,1-1.222,9.547h12.835c.281-16.134,4.709-32.6,6.8-48.062,3.285-24.164,12.645-62.872,39.9-70.027-4.821-17.03-33.327-24.162-48.111-28.074,10.21,6.725,10.968,13.089,11.52,29.242.325,10.2-3.458,17.465-5.186,27.017-1.385,7.652,1.793,15.431.905,23-1.038,8.623-6.916,17.767-15.368,20.794-6.937,2.485-16.578,1.014-24.141-.259C1901.58,230.134,1909.143,237.222,1912.752,243.123Z" transform="translate(-17.351 -17.337)" fill="#367696" opacity="0.3" style="isolation: isolate"/>
      <g id="Grupo_676" data-name="Grupo 676" transform="translate(1855.796 256.699)">
        <path id="Trazado_1483" data-name="Trazado 1483" d="M1878.724,289.829a13.594,13.594,0,0,0-7.787,0Z" transform="translate(-1870.937 -289.26)" fill="#699cb5"/>
      </g>
      <g id="Grupo_684" data-name="Grupo 684" transform="translate(1788.395 -54.696)">
        <path id="Trazado_1401" data-name="Trazado 1401" d="M1932.813,31.972l-112.352,26.1c-1.96.453.408,12.911.741,14.325,1.371,5.837,3.86,11.327,6.4,16.729,9.3,19.774,23.224,24.8,44.038,24.25,20.577-.543,44.642-.748,54.363-36.346C1930.014,62.349,1933.429,47.356,1932.813,31.972Z" transform="translate(-1798.685 46.492)" fill="#73340a"/>
        <g id="Grupo_677" data-name="Grupo 677" transform="translate(62.704 148.159)">
          <path id="Trazado_1402" data-name="Trazado 1402" d="M1889.928,126.448c0,7.573-24.179,7.573-24.179,0V108.955h24.179Z" transform="translate(-1865.749 -108.955)" fill="#febd95"/>
          <path id="Trazado_1403" data-name="Trazado 1403" d="M1889.928,108.955h-24.179v7.485c8.516.385,18.469,4.76,23.15,12.481C1890.5,127.191,1889.928,126.728,1889.928,108.955Z" transform="translate(-1865.749 -108.955)" fill="#febd95" opacity="0.5" style="isolation: isolate"/>
        </g>
        <g id="Grupo_682" data-name="Grupo 682" transform="translate(16.055 38.344)">
          <g id="Grupo_678" data-name="Grupo 678" transform="translate(0 42.625)">
            <path id="Trazado_1404" data-name="Trazado 1404" d="M1814.222,44.47c0,5.376,3.621,9.733,8.079,9.733s4.463-19.465,0-19.465S1814.222,39.1,1814.222,44.47Z" transform="translate(-1814.222 -34.739)" fill="#febd95"/>
            <path id="Trazado_1405" data-name="Trazado 1405" d="M1817,44.92c0,3,2.024,5.443,4.518,5.443s2.494-10.882,0-10.882S1817,41.915,1817,44.92Z" transform="translate(-1814.485 -35.188)" fill="#febd95"/>
          </g>
          <path id="Trazado_1406" data-name="Trazado 1406" d="M1923.2,25.525l-1.267,10.942c-3.661,31.36-2.687,29.654-4.623,34.714-10.446,27.232-37.223,39.335-52.147,36.237-18.995-3.879-35.983-24.865-42.751-48.407V25.525a36.319,36.319,0,0,1,36.3-36.335h28.149a35.729,35.729,0,0,1,7.7.819,2.4,2.4,0,0,1,.37.1A36.3,36.3,0,0,1,1923.2,25.525Z" transform="translate(-1814.997 12.198)" fill="#febd95"/>
          <g id="Grupo_679" data-name="Grupo 679" transform="translate(24.062 41.662)">
            <path id="Trazado_1407" data-name="Trazado 1407" d="M1841.644,37.56a.963.963,0,0,1-.395-1.77c.271-.176,6.88-4.271,13.813-.575a.965.965,0,0,1-.905,1.7c-5.92-3.157-11.818.465-11.875.5A.966.966,0,0,1,1841.644,37.56Z" transform="translate(-1840.8 -33.675)" fill="#4e2a21"/>
          </g>
          <g id="Grupo_680" data-name="Grupo 680" transform="translate(63.876 41.655)">
            <path id="Trazado_1408" data-name="Trazado 1408" d="M1898.7,37.571a.974.974,0,0,1-.634-.143c-.057-.038-5.942-3.675-11.874-.532a.966.966,0,0,1-.905-1.706h0c6.941-3.673,13.538.433,13.814.61a.967.967,0,0,1,.3,1.33A.981.981,0,0,1,1898.7,37.571Z" transform="translate(-1884.777 -33.668)" fill="#4e2a21"/>
          </g>
          <path id="Trazado_1409" data-name="Trazado 1409" d="M1921.981,36.321c-3.661,31.36-2.687,29.654-4.623,34.714-10.446,27.232-37.223,39.335-52.147,36.237,34.693-5.7,56.422-43.5,46.614-71.4-4.255-12.035-14.063-21.1-23.521-29.664a47.943,47.943,0,0,1-24.987,10.683l7.547-5.848c-10.474,5.012-21.045,10.082-29.977,17.494S1824.7,46.03,1823.08,57.518c.332-2.243-.193-4.836-.1-7.12a68.022,68.022,0,0,1,.741-7.412,66.151,66.151,0,0,1,3.922-14.294c.936-2.3,2.007-4.545,3.16-6.73.78-1.5,1.169-3.119,1.929-4.6,1.8-3.571,6.247-6.592,9.3-9.053a95.376,95.376,0,0,1,41.092-19.265,85.41,85.41,0,0,1,8.932-1.347c.1-.019.195-.019.272-.038.917.724,1.793,1.482,2.654,2.3,8.034,7.409,13.436,17.377,18.644,27.089,2.829,5.266,5.675,10.553,7.49,16.246C1921.453,34.293,1921.725,35.3,1921.981,36.321Z" transform="translate(-1815.05 12.343)" fill="#febd95" opacity="0.5" style="isolation: isolate"/>
          <path id="Trazado_1410" data-name="Trazado 1410" d="M1853.438,52.073c0,3.419-1.841,6.191-4.115,6.191s-4.112-2.772-4.112-6.191,1.841-6.193,4.112-6.193S1853.438,48.656,1853.438,52.073Z" transform="translate(-1817.156 6.831)" fill="#4e2a21"/>
          <path id="Trazado_1411" data-name="Trazado 1411" d="M1891.85,51.44c0,3.419-1.841,6.191-4.112,6.191s-4.115-2.772-4.115-6.191,1.841-6.193,4.115-6.193S1891.85,48.019,1891.85,51.44Z" transform="translate(-1820.792 6.891)" fill="#4e2a21"/>
          <path id="Trazado_1412" data-name="Trazado 1412" d="M1856.169,86.419h35.5s-5.323,14.251-19.524,14.251C1859.718,100.67,1856.169,86.419,1856.169,86.419Z" transform="translate(-1818.193 2.994)" fill="#fff"/>
          <g id="Grupo_681" data-name="Grupo 681" transform="translate(103.314 42.625)">
            <path id="Trazado_1413" data-name="Trazado 1413" d="M1931.686,54.2c-4.463,0-4.463-19.465,0-19.465C1942.366,34.738,1942.371,54.2,1931.686,54.2Z" transform="translate(-1928.339 -34.739)" fill="#febd95"/>
            <path id="Trazado_1414" data-name="Trazado 1414" d="M1931.686,54.2c-4.463,0-4.463-19.465,0-19.465C1942.366,34.738,1942.371,54.2,1931.686,54.2Z" transform="translate(-1928.339 -34.739)" fill="#febd95" opacity="0.3" style="isolation: isolate"/>
            <path id="Trazado_1415" data-name="Trazado 1415" d="M1932.99,50.362c-2.5,0-2.5-10.882,0-10.882C1938.965,39.48,1938.965,50.362,1932.99,50.362Z" transform="translate(-1928.602 -35.188)" fill="#febd95"/>
          </g>
        </g>
        <g id="Grupo_683" data-name="Grupo 683">
          <path id="Trazado_1416" data-name="Trazado 1416" d="M1899.016-37.144a13.079,13.079,0,0,1,.879,4.312c.362,11.919-9.175,21.4-16.044,30.106a36.881,36.881,0,0,1-5.646,6.164,59.164,59.164,0,0,1-8.989,5.806c-2.877,1.53-6.742,3.712-10.1,3.537,3-1.449,5.765-4.452,7.92-6.956s5-5.744,5.3-9.188c-.117,1.344-2.9,3.846-3.781,4.858a34.294,34.294,0,0,1-4.4,4.457,73.816,73.816,0,0,1-8.276,5.507,59.542,59.542,0,0,1-5.8,2.5c-7.528,3.383-15.087,6.842-19.154,14.619a23.5,23.5,0,0,1,5.251-13.976c-3,2.345-5.411,6.3-7.535,9.464-8.082,12.035-7.835,22.748-7.324,36.557a54.644,54.644,0,0,0,4.533,19.33c3.271,7.355,8.932,12.531,13.524,18.644-12.963-6.815-21.53-20.758-28.8-32.942-18.981-31.8-19.969-70.84,4.385-100.121,14.527-17.466,38.415-23.448,60.138-18.632C1883.347-51.262,1895.64-45.892,1899.016-37.144Z" transform="translate(-1796.488 54.696)" fill="#d16d2b"/>
          <path id="Trazado_1417" data-name="Trazado 1417" d="M1902.15,7.765c7.906,9.953,20.112,18.926,24.687,30.466-1.373-3.464,1.665-9.5,5.984-8.22,4.09,1.211,3.727,7.485,3.195,10.668-2.207,13.168.11,18.139-10.279,47.761,23.076-29.737,26.609-81.9,14.628-106.413-6.971-14.261-27.794-24.987-37.912-7.4C1896.231-14.576,1893.918-2.6,1902.15,7.765Z" transform="translate(-1805.988 52.786)" fill="#d16d2b"/>
          <path id="Trazado_1418" data-name="Trazado 1418" d="M1855.956-43.694a37.082,37.082,0,0,0-19.245,5c-12,7.417-22.4,20.8-21.789,35.277-.042-2.067,8.153-11.372,16.075-12.389-3.863,2.592-5.3,6.5-5.645,10.955.09-1.159,5.877-4.627,6.977-5.265,2.129-1.233,6.031-3.019,8.538-2.516.237,4.317-4.217,8.287-6.371,11.643,3.11-2.2,9.4-8.5,13.866-7.062,4.537,1.47-5.083,10.321-6.236,11.571q-5.453,5.936-10.9,11.873c-2.585,2.807-6.365,6.8-6.808,10.759.266-3.531,7.514-8.593,10.115-10.642,4.043-3.183,8.7-5.613,13.165-8.136,7.412-4.2,15.125-8.691,21.686-14.161,5.927-4.939,10.747-9.785,14.558-16.555a18.1,18.1,0,0,0,2.732-8.758c-1.009.278-1.931,1.53-2.768,2.238a45.593,45.593,0,0,1-9.5,6.362c-2.711,1.328-5.573,2.14-8.355,3.285a17.873,17.873,0,0,1-4.155,1.539c3.129-1.893,6.88-8.212,7.187-11.918-2.291,1.492-4.086,3.765-6.066,5.635a43.486,43.486,0,0,1-9.656,6.6c2.288-2.946,4.775-5.683,6.359-9.1.622-1.343,1.038-2.716,1.573-4.1a43.461,43.461,0,0,0,1.071-4.346c-2.2,1.057-4.587,3.119-6.678,4.509-2.5,1.663-6.226,5.246-9.388,5.291,3.186-3.354,4.849-7.257,8.963-9.827-5.31-.252-9.416,5.026-14.113,6.545A64.83,64.83,0,0,1,1846.626-37C1849.312-40.088,1852.445-41.779,1855.956-43.694Z" transform="translate(-1798.231 53.655)" fill="#e68c50"/>
          <path id="Trazado_1419" data-name="Trazado 1419" d="M1921.442,11.257c.8-3.169-.091-7.022-1.409-10.029,2.594.521,4.656,4.473,5.7,6.832.319-4.554-2.578-8.006-4.633-11.764,2.425,1.028,3.955,3.233,5.445,5.326a11.327,11.327,0,0,0-1.6-7.431c2.832,1.953,5.569,3.815,7.447,6.8,1.192,1.9,1.587,4.1,2.549,6.066.85-10.984-5.169-21.489-12.089-29.547a65.8,65.8,0,0,0-5.307-4.889c3.252,3.062,8.36,11.2,7.554,16.044a72.224,72.224,0,0,0-9.217-8.535c1.9,2.775,2.523,6.369,4.309,9.144-2.625.584-4.865-2.185-6.079-4.219-.1,3.328,2.017,5.78,2.3,8.856.062.686-3.362-.708-3.6-.884a10.486,10.486,0,0,1-2.863-3.673c-1.741-3.3-2.865-10.573-2.865-10.573s-.453,4.2-.4,6.337c.159,6.48,2.326,12.484,7.37,16.749C1917.149,4.489,1920.278,7.216,1921.442,11.257Z" transform="translate(-1806.919 52.11)" fill="#e68c50"/>
        </g>
      </g>
      <path id="Trazado_1484" data-name="Trazado 1484" d="M1948,229.826l7.111,47.373h28.16c-.168-26.075-1.874-47.983-2.636-66.271-2.082-49.9-6.36-55.082-6.36-55.082-24.273,4.88-31.659,38.087-31.659,38.087l5.333,35.5Z" transform="translate(-21.927 -19.931)" fill="#febd95"/>
      <g id="Grupo_685" data-name="Grupo 685" transform="translate(1781.849 29.478)">
        <path id="Trazado_1421" data-name="Trazado 1421" d="M1801.206,38.28s-7.464,1.872-5.064,14.862,15.553,52.028,15.553,52.028,5.582,5.105,8.91,3.963,2.637-8.613,2.637-8.613Z" transform="translate(-1789.865 -38.28)" fill="#161c4f"/>
        <path id="Trazado_1422" data-name="Trazado 1422" d="M1826.388,110.545a6.34,6.34,0,0,1-3.39,1.324,17.779,17.779,0,0,1-4.988-.111c-1.485-.2-3.285-.658-3.408-2.568-.129-1.965,2.131-2.716,3.44-3.4,2.124-1.107,5.354-2.683,7.949-1.478a3.485,3.485,0,0,1,1.516,4.538A4.15,4.15,0,0,1,1826.388,110.545Z" transform="translate(-1791.657 -44.49)" fill="#febd95"/>
        <path id="Trazado_1423" data-name="Trazado 1423" d="M1826.429,101.217a3.652,3.652,0,0,1-.713.724c-2.492,1.862-6.337,2.01-9.286,2-1.786,0-3.976-.272-4.346-2.6-.382-2.392,2.214-3.692,3.692-4.748,2.392-1.71,6.046-4.176,9.264-3.122C1828.031,94.449,1828.116,98.979,1826.429,101.217Z" transform="translate(-1791.415 -43.481)" fill="#febd95"/>
        <path id="Trazado_1424" data-name="Trazado 1424" d="M1822.485,90.979a3.872,3.872,0,0,1-.591.838c-2.166,2.278-5.885,3.057-8.761,3.531-1.739.29-3.907.382-4.592-1.893-.705-2.34,1.64-4.074,2.931-5.376,2.088-2.108,5.3-5.184,8.581-4.653C1823.1,83.918,1823.816,88.454,1822.485,90.979Z" transform="translate(-1791.071 -42.548)" fill="#febd95"/>
        <path id="Trazado_1425" data-name="Trazado 1425" d="M1816.038,83.536a3.32,3.32,0,0,1-.515.724c-1.884,1.981-5.12,2.661-7.618,3.078-1.511.252-3.4.332-3.994-1.649-.613-2.033,1.425-3.537,2.55-4.672,1.817-1.834,4.611-4.509,7.465-4.048C1816.571,77.4,1817.193,81.341,1816.038,83.536Z" transform="translate(-1790.635 -41.938)" fill="#febd95"/>
        <path id="Trazado_1426" data-name="Trazado 1426" d="M1789.258,116.1a8.676,8.676,0,0,0,4.07,6.264c3.792,2.354,8.528,4,9.094,3.913s8.26-2.395,11.956-6.214,7.381-8.613,7.381-8.613l-.446-8.664-1.532-5.361-5.4-8.212-4.49-8.193s-5.161.019-8.519,2.128-6.48,7.457-7.595,10.8S1789.258,116.1,1789.258,116.1Z" transform="translate(-1789.258 -42.326)" fill="#febd95"/>
      </g>
    </g>
  </g>
</svg>
