<svg xmlns="http://www.w3.org/2000/svg" width="20" height="20" viewBox="0 0 40.024 40.024"><defs><style>.a{fill:#e8e8e8;}.b{fill:#283fc3;}</style></defs><path class="a" d="M40.024,20.012A20.012,20.012,0,1,1,20.012,0,20.012,20.012,0,0,1,40.024,20.012Zm0,0" transform="translate(0 0)"/><path class="b" d="M74.919,44.472,61.133,58.258a1.19,1.19,0,0,1-1.683,0L53.789,52.6a1.19,1.19,0,0,0-1.683,0L50.424,54.28a1.19,1.19,0,0,0,0,1.683l8.185,8.185a2.379,2.379,0,0,0,3.365,0l16.31-16.31a1.19,1.19,0,0,0,0-1.683L76.6,44.472A1.19,1.19,0,0,0,74.919,44.472Zm0,0" transform="translate(-44.39 -34.191)"/></svg>