<svg xmlns="http://www.w3.org/2000/svg" width="806.776" height="671.611" viewBox="0 0 806.776 671.611">
  <g id="logo-sr" transform="translate(-10.433 -68.249)">
    <path id="Trazado_1263" data-name="Trazado 1263" d="M388.448,90.2V222.216s-105.814-7.695-153.7,0-41.051,42.559-40.924,49.22,2.171,32.448,20.558,41.345,109.452,28.292,142.944,45.237,111.5,81.507,108.693,174.737-70.84,175.1-177.3,196.48S19.063,700.67,19.063,700.67L50.932,571.377s23.432-18.631,23.116-17.251c36.511,10.374,106.017,51.983,140.329,45.761,53.782-9.753,76.209-33.5,74.34-55.12s-42.688-60.819-131.774-78.721-146.7-76.6-146.509-182.392S120.024,93.468,193.819,90.2,388.448,90.2,388.448,90.2Z" transform="translate(0 5.3)" fill="#f0f0f0"/>
    <path id="Trazado_1264" data-name="Trazado 1264" d="M45.47,94.051V227.067s100.417-2.749,123.549,0,59.2,42.838,53.8,86.176-29.053,62.077-121.066,57.039c-1.44,1.462-21.042,19.765-21.042,19.765s26.833,29.828,38.124,57.429S222.817,736.656,222.817,736.656H419S347.99,537.542,322.037,510.091s-36.473-37.833-24.109-43.95,103.973-48.834,104.134-152.9S337.782,107.106,222.817,94.051c-61.046-6.932-123.182-20.7-153.259-18.765C67.891,74.43,45.47,94.051,45.47,94.051Z" transform="translate(378.21 0)" fill="#f0f0f0"/>
    <path id="Trazado_1550" data-name="Trazado 1550" d="M388.448,90.2V222.216s-105.814-7.695-153.7,0-41.051,42.559-40.924,49.22,2.171,32.448,20.558,41.345,109.452,28.292,142.944,45.237,111.5,81.507,108.693,174.737-70.84,175.1-177.3,196.48S19.063,700.67,19.063,700.67L50.932,571.377s109.664,38.262,163.446,28.51,76.209-33.5,74.34-55.12-42.688-60.819-131.774-78.721-146.7-76.6-146.509-182.392S120.024,93.468,193.819,90.2,388.448,90.2,388.448,90.2Z" transform="translate(20 -14.7)" fill="#fafafa"/>
    <path id="Trazado_1551" data-name="Trazado 1551" d="M45.47,94.051V227.067s100.417-2.749,123.549,0,59.2,42.838,53.8,86.176-30.937,71.049-53.8,76.8-88.31,0-88.31,0,26.833,29.828,38.124,57.429S222.817,736.656,222.817,736.656H419S347.99,537.542,322.037,510.091s-36.473-37.833-24.109-43.95,103.973-48.834,104.134-152.9S337.782,107.106,222.817,94.051,45.47,94.051,45.47,94.051Z" transform="translate(398.211 -20)" fill="#fafafa"/>
  </g>
</svg>
