<?xml version="1.0" encoding="utf-8"?>
<!-- Generator: Adobe Illustrator 24.1.2, SVG Export Plug-In . SVG Version: 6.00 Build 0)  -->
<svg version="1.1" id="Capa_1" xmlns="http://www.w3.org/2000/svg" xmlns:xlink="http://www.w3.org/1999/xlink" x="0px" y="0px"
	 viewBox="0 0 86 86" style="enable-background:new 0 0 86 86;" xml:space="preserve">
<style type="text/css">
	.st0{fill:#D8D8D8;}
	.st1{enable-background:new    ;}
	.st2{fill:#FCFCFC;}
</style>
<g id="_3" transform="translate(-910.358 -387.358)">
	<circle id="Elipse_53" class="st0" cx="953.4" cy="430.4" r="43"/>
	<g class="st1">
		<path class="st2" d="M959.9,423.9c1.6,1.1,2.9,2.6,3.7,4.5c0.9,1.8,1.3,3.8,1.3,5.9c0,2.8-0.6,5.2-1.9,7.3c-1.3,2.1-3,3.7-5.3,4.8
			c-2.3,1.1-4.9,1.7-8,1.7c-1.4,0-2.7-0.2-4.1-0.5c-1.4-0.3-2.6-0.8-3.6-1.4c-1.4-0.8-2.1-1.8-2.1-3.1c0-0.9,0.3-1.7,1-2.5
			c0.6-0.8,1.4-1.1,2.3-1.1c0.8,0,1.6,0.3,2.5,0.9c1.6,1.3,3.4,1.9,5.4,1.9c1.2,0,2.3-0.3,3.4-0.9c1.1-0.6,1.9-1.4,2.6-2.6
			c0.7-1.1,1-2.4,1-3.8c0-2.1-0.6-3.6-1.9-4.8c-1.2-1.1-2.7-1.7-4.5-1.7c-0.8,0-1.4,0.1-2,0.2c-0.6,0.2-0.9,0.2-1,0.3
			c-1,0.3-1.8,0.5-2.5,0.5c-0.8,0-1.5-0.3-2-0.9c-0.5-0.6-0.7-1.3-0.7-2.2c0-0.5,0.1-1,0.3-1.4c0.2-0.4,0.5-0.9,1-1.4l8.8-9.6h-11.3
			c-0.9,0-1.7-0.3-2.3-0.9c-0.6-0.6-0.9-1.4-0.9-2.3c0-0.9,0.3-1.6,0.9-2.2c0.6-0.6,1.4-0.9,2.3-0.9h17.4c1.1,0,2,0.3,2.6,0.9
			c0.6,0.6,0.9,1.5,0.9,2.5c0,0.9-0.5,1.8-1.4,2.7l-7.6,8.4C956.4,422.1,958.3,422.7,959.9,423.9z"/>
	</g>
</g>
</svg>
