<svg id="ffe64ee5-2568-469c-80f2-102fc82ce9a2" data-name="Capa 1" xmlns="http://www.w3.org/2000/svg" viewBox="0 0 86 86"><g id="acefd916-bbf8-43ea-b8e1-5f106576d851" data-name=" 3"><circle id="a00b2353-bccb-45ea-8a7c-92b71e77114f" data-name="Elipse 53" cx="43" cy="43" r="43" style="fill:#d8d8d8"/><g style="isolation:isolate"><path d="M49.54,36.54a10.26,10.26,0,0,1,3.7,4.5,13.07,13.07,0,0,1,1.3,5.9,13.48,13.48,0,0,1-1.9,7.3,12.33,12.33,0,0,1-5.3,4.8,18.14,18.14,0,0,1-8,1.7,19.15,19.15,0,0,1-4.1-.5,11.76,11.76,0,0,1-3.6-1.4,3.5,3.5,0,0,1-2.1-3.1,3.64,3.64,0,0,1,1-2.5,2.7,2.7,0,0,1,2.3-1.1,4.5,4.5,0,0,1,2.5.9,8.29,8.29,0,0,0,5.4,1.9,6.92,6.92,0,0,0,3.4-.9,6.5,6.5,0,0,0,2.6-2.6,7,7,0,0,0,1-3.8,6,6,0,0,0-1.9-4.8,6.44,6.44,0,0,0-4.5-1.7,11.24,11.24,0,0,0-2,.2,6.59,6.59,0,0,0-1,.3,9.15,9.15,0,0,1-2.5.5,2.52,2.52,0,0,1-2-.9,3.23,3.23,0,0,1-.7-2.2,3.19,3.19,0,0,1,.3-1.4,5.27,5.27,0,0,1,1-1.4l8.8-9.6H31.94a3.08,3.08,0,0,1-3.2-3.2,2.94,2.94,0,0,1,.9-2.2,3.17,3.17,0,0,1,2.3-.9h17.4a3.57,3.57,0,0,1,2.6.9,3.49,3.49,0,0,1,.9,2.5,4,4,0,0,1-1.4,2.7l-7.6,8.4A8.58,8.58,0,0,1,49.54,36.54Z" transform="translate(-0.04 -0.04)" style="fill:#fcfcfc"/></g></g></svg>