<svg id="a2c063b3-2751-4d20-9287-d2b420bc33b3" data-name="Capa 1" xmlns="http://www.w3.org/2000/svg" viewBox="0 0 86 86"><g id="b7b44dd5-fd8d-40fa-b1f6-6b2d590c8ed8" data-name=" 1"><circle id="e2f51023-510b-42d3-9a24-f180fae5d50b" data-name="Elipse 53" cx="43" cy="43" r="43" style="fill:#d8d8d8"/><g style="isolation:isolate"><path d="M47.14,21.14a3.74,3.74,0,0,1,1,2.5v32.9A3.41,3.41,0,0,1,47,59a3.62,3.62,0,0,1-2.7,1,3.39,3.39,0,0,1-2.6-1,3.32,3.32,0,0,1-1-2.5v-27l-3.5,2.2a4.07,4.07,0,0,1-1.8.5,3,3,0,0,1-2.4-1.1,3.25,3.25,0,0,1-1-2.4,3.37,3.37,0,0,1,.5-1.7,5.35,5.35,0,0,1,1.3-1.3l8.6-5.1a5.83,5.83,0,0,1,2.5-.5A3.15,3.15,0,0,1,47.14,21.14Z" transform="translate(-0.04 -0.04)" style="fill:#fcfcfc"/></g></g></svg>