<?xml version="1.0" encoding="utf-8"?>
<!-- Generator: Adobe Illustrator 24.1.2, SVG Export Plug-In . SVG Version: 6.00 Build 0)  -->
<svg version="1.1" id="Capa_1" xmlns="http://www.w3.org/2000/svg" xmlns:xlink="http://www.w3.org/1999/xlink" x="0px" y="0px"
	 viewBox="0 0 86 86" style="enable-background:new 0 0 86 86;" xml:space="preserve">
<style type="text/css">
	.st0{fill:#D8D8D8;}
	.st1{enable-background:new    ;}
	.st2{fill:#FCFCFC;}
</style>
<g id="_2" transform="translate(-910.358 -387.358)">
	<circle id="Elipse_53" class="st0" cx="953.4" cy="430.4" r="43"/>
	<g class="st1">
		<path class="st2" d="M965,442c0.6,0.6,0.9,1.4,0.9,2.3c0,0.9-0.3,1.6-0.9,2.2c-0.6,0.6-1.4,0.9-2.3,0.9h-19.4
			c-1,0-1.8-0.3-2.3-0.9c-0.6-0.6-0.9-1.4-0.9-2.3c0-0.9,0.3-1.8,1-2.5l12.4-13.3c1.4-1.5,2.5-3,3.3-4.6c0.8-1.5,1.2-3,1.2-4.2
			c0-1.7-0.6-3.2-1.8-4.4c-1.2-1.3-2.6-1.9-4.2-1.9c-1.1,0-2.2,0.4-3.3,1.1c-1.1,0.7-2.1,1.7-3,2.9c-0.7,0.9-1.6,1.4-2.6,1.4
			c-0.8,0-1.6-0.3-2.3-1c-0.7-0.6-1.1-1.4-1.1-2.2c0-0.6,0.2-1.1,0.6-1.7c0.4-0.6,0.9-1.3,1.7-2c1.4-1.4,3.1-2.6,5-3.5
			c1.9-0.9,3.7-1.3,5.5-1.3c2.5,0,4.7,0.5,6.6,1.6c1.9,1.1,3.4,2.5,4.4,4.4c1,1.9,1.5,4,1.5,6.3c0,2.3-0.6,4.7-1.9,7.2
			c-1.2,2.5-2.9,4.8-5,7l-7.2,7.7h11.7C963.6,441.1,964.4,441.4,965,442z"/>
	</g>
</g>
</svg>
