<svg id="aaea756e-0107-4b66-a43c-957874101fe1" data-name="Capa 1" xmlns="http://www.w3.org/2000/svg" viewBox="0 0 86 86"><g id="abe1ed19-f7ca-4c01-9e33-712a0240fdfa" data-name=" 2"><circle id="b865af25-45aa-4927-9d3a-3cc0d2357061" data-name="Elipse 53" cx="43" cy="43" r="43" style="fill:#d8d8d8"/><g style="isolation:isolate"><path d="M54.64,54.64a3.17,3.17,0,0,1,.9,2.3,2.94,2.94,0,0,1-.9,2.2,3.17,3.17,0,0,1-2.3.9H32.94a2.87,2.87,0,0,1-2.3-.9,3.17,3.17,0,0,1-.9-2.3,3.47,3.47,0,0,1,1-2.5L43.14,41a19.65,19.65,0,0,0,3.3-4.6,9.32,9.32,0,0,0,1.2-4.2,6,6,0,0,0-1.8-4.4,5.5,5.5,0,0,0-4.2-1.9,6.18,6.18,0,0,0-3.3,1.1,11.72,11.72,0,0,0-3,2.9,3.28,3.28,0,0,1-2.6,1.4,3.19,3.19,0,0,1-2.3-1,2.73,2.73,0,0,1-.5-3.9,9.53,9.53,0,0,1,1.7-2,18,18,0,0,1,5-3.5,12.62,12.62,0,0,1,5.5-1.3,12.91,12.91,0,0,1,6.6,1.6,11,11,0,0,1,4.4,4.4,13.32,13.32,0,0,1,1.5,6.3,15.51,15.51,0,0,1-1.9,7.2,27.36,27.36,0,0,1-5,7l-7.2,7.7h11.7A2.84,2.84,0,0,1,54.64,54.64Z" transform="translate(-0.04 -0.04)" style="fill:#fcfcfc"/></g></g></svg>