<?xml version="1.0" encoding="utf-8"?>
<!-- Generator: Adobe Illustrator 24.1.2, SVG Export Plug-In . SVG Version: 6.00 Build 0)  -->
<svg version="1.1" id="Capa_1" xmlns="http://www.w3.org/2000/svg" xmlns:xlink="http://www.w3.org/1999/xlink" x="0px" y="0px"
	 viewBox="0 0 86 86" style="enable-background:new 0 0 86 86;" xml:space="preserve">
<style type="text/css">
	.st0{fill:#D8D8D8;}
	.st1{enable-background:new    ;}
	.st2{fill:#FCFCFC;}
</style>
<g id="_1" transform="translate(-910.358 -387.358)">
	<circle id="Elipse_53" class="st0" cx="953.4" cy="430.4" r="43"/>
	<g class="st1">
		<path class="st2" d="M957.5,408.5c0.6,0.7,1,1.5,1,2.5v32.9c0,1-0.4,1.8-1.1,2.5c-0.7,0.7-1.6,1-2.7,1c-1.1,0-1.9-0.3-2.6-1
			s-1-1.5-1-2.5v-27l-3.5,2.2c-0.6,0.3-1.2,0.5-1.8,0.5c-1,0-1.8-0.4-2.4-1.1c-0.7-0.7-1-1.5-1-2.4c0-0.6,0.2-1.2,0.5-1.7
			c0.3-0.5,0.8-0.9,1.3-1.3l8.6-5.1c0.6-0.3,1.5-0.5,2.5-0.5C956,407.5,956.8,407.8,957.5,408.5z"/>
	</g>
</g>
</svg>
